<?xml version='1.0' encoding='utf-8'?>
<mlt LC_NUMERIC="en_US.UTF-8" producer="main_bin" root="C:/dev/workspace/indy/dist/room/attic2/data/16-9" version="7.32.0">
 <profile colorspace="709" description="4K UHD 2160p 24 fps" display_aspect_den="9" display_aspect_num="16" frame_rate_den="1" frame_rate_num="24" height="2160" progressive="1" sample_aspect_den="1" sample_aspect_num="1" width="3840"/>
 <producer id="producer0" in="00:00:00.000" out="00:05:44.000">
  <property name="length">2147483647</property>
  <property name="eof">continue</property>
  <property name="resource">black</property>
  <property name="aspect_ratio">1</property>
  <property name="mlt_service">color</property>
  <property name="kdenlive:playlistid">black_track</property>
  <property name="mlt_image_format">rgba</property>
  <property name="set.test_audio">0</property>
 </producer>
 <playlist id="playlist0">
  <property name="kdenlive:audio_track">1</property>
 </playlist>
 <playlist id="playlist1">
  <property name="kdenlive:audio_track">1</property>
 </playlist>
 <tractor id="tractor0" in="00:00:00.000">
  <property name="kdenlive:audio_track">1</property>
  <property name="kdenlive:trackheight">67</property>
  <property name="kdenlive:timeline_active">1</property>
  <property name="kdenlive:collapsed">0</property>
  <property name="kdenlive:thumbs_format"/>
  <property name="kdenlive:audio_rec"/>
  <track hide="video" producer="playlist0"/>
  <track hide="video" producer="playlist1"/>
  <filter id="filter0">
   <property name="window">75</property>
   <property name="max_gain">20dB</property>
   <property name="mlt_service">volume</property>
   <property name="internal_added">237</property>
   <property name="disable">1</property>
  </filter>
  <filter id="filter1">
   <property name="channel">-1</property>
   <property name="mlt_service">panner</property>
   <property name="internal_added">237</property>
   <property name="start">0.5</property>
   <property name="disable">1</property>
  </filter>
  <filter id="filter2">
   <property name="iec_scale">0</property>
   <property name="mlt_service">audiolevel</property>
   <property name="dbpeak">1</property>
   <property name="disable">1</property>
  </filter>
 </tractor>
 <chain id="chain0" out="00:03:11.125">
  <property name="length">4588</property>
  <property name="eof">pause</property>
  <property name="resource">C:/dev/workspace/indy/dist/room/attic/content/music/extra/attic.webm</property>
  <property name="mlt_service">avformat-novalidate</property>
  <property name="seekable">1</property>
  <property name="audio_index">0</property>
  <property name="video_index">-1</property>
  <property name="astream">0</property>
  <property name="kdenlive:control_uuid">{6f19b6a9-2b45-4a93-a21c-6862dee0b5fa}</property>
  <property name="kdenlive:id">8</property>
  <property name="kdenlive:clip_type">1</property>
  <property name="kdenlive:file_size">3420074</property>
  <property name="kdenlive:file_hash">029e4f8308d83085556e81b95e7c3d37</property>
  <property name="kdenlive:folderid">-1</property>
  <property name="meta.media.nb_streams">1</property>
  <property name="meta.media.0.stream.type">audio</property>
  <property name="meta.media.0.codec.sample_fmt">fltp</property>
  <property name="meta.media.0.codec.sample_rate">48000</property>
  <property name="meta.media.0.codec.channels">2</property>
  <property name="meta.media.0.codec.layout">stereo</property>
  <property name="meta.media.0.codec.name">opus</property>
  <property name="meta.media.0.codec.long_name">Opus</property>
  <property name="meta.media.0.codec.bit_rate">0</property>
  <property name="meta.attr.0.stream.language.markup">eng</property>
  <property name="meta.attr.encoder.markup">google/video-file</property>
  <property name="xml">was here</property>
  <property name="mute_on_pause">0</property>
  <property name="set.test_audio">0</property>
  <property name="set.test_image">1</property>
 </chain>
 <playlist id="playlist2">
  <property name="kdenlive:audio_track">1</property>
  <entry in="00:02:22.000" out="00:02:29.958" producer="chain0">
   <property name="kdenlive:id">8</property>
   <filter id="filter3" in="00:02:22.000" out="00:02:22.417">
    <property name="window">75</property>
    <property name="max_gain">20dB</property>
    <property name="mlt_service">volume</property>
    <property name="kdenlive_id">fadein</property>
    <property name="gain">0</property>
    <property name="end">1</property>
    <property name="kdenlive:collapsed">0</property>
   </filter>
   <filter id="filter4">
    <property name="window">75</property>
    <property name="max_gain">20dB</property>
    <property name="level">00:02:22.000=0</property>
    <property name="mlt_service">volume</property>
    <property name="kdenlive_id">volume</property>
    <property name="kdenlive:collapsed">0</property>
   </filter>
   <filter id="filter5" in="00:02:26.958" out="00:02:29.958">
    <property name="window">75</property>
    <property name="max_gain">20dB</property>
    <property name="mlt_service">volume</property>
    <property name="kdenlive_id">fadeout</property>
    <property name="gain">1</property>
    <property name="end">0</property>
    <property name="kdenlive:collapsed">0</property>
   </filter>
  </entry>
 </playlist>
 <playlist id="playlist3">
  <property name="kdenlive:audio_track">1</property>
 </playlist>
 <tractor id="tractor1" in="00:00:00.000" out="00:00:07.958">
  <property name="kdenlive:audio_track">1</property>
  <property name="kdenlive:trackheight">67</property>
  <property name="kdenlive:timeline_active">1</property>
  <property name="kdenlive:collapsed">0</property>
  <property name="kdenlive:thumbs_format"/>
  <property name="kdenlive:audio_rec"/>
  <track hide="video" producer="playlist2"/>
  <track hide="video" producer="playlist3"/>
  <filter id="filter6">
   <property name="window">75</property>
   <property name="max_gain">20dB</property>
   <property name="mlt_service">volume</property>
   <property name="internal_added">237</property>
   <property name="disable">1</property>
  </filter>
  <filter id="filter7">
   <property name="channel">-1</property>
   <property name="mlt_service">panner</property>
   <property name="internal_added">237</property>
   <property name="start">0.5</property>
   <property name="disable">1</property>
  </filter>
  <filter id="filter8">
   <property name="iec_scale">0</property>
   <property name="mlt_service">audiolevel</property>
   <property name="dbpeak">1</property>
   <property name="disable">1</property>
  </filter>
 </tractor>
 <producer id="producer1" in="00:00:00.000" out="00:00:01.958">
  <property name="length">48</property>
  <property name="eof">pause</property>
  <property name="resource">2.000000:C:/dev/workspace/indy/dist/room/attic2/content/upscale/attic.mp4</property>
  <property name="aspect_ratio">1</property>
  <property name="meta.media.nb_streams">1</property>
  <property name="meta.media.0.stream.type">video</property>
  <property name="meta.media.0.stream.frame_rate">48</property>
  <property name="meta.media.0.stream.sample_aspect_ratio">0</property>
  <property name="meta.media.0.codec.width">3840</property>
  <property name="meta.media.0.codec.height">2160</property>
  <property name="meta.media.0.codec.rotate">0</property>
  <property name="meta.media.0.codec.pix_fmt">yuv444p</property>
  <property name="meta.media.0.codec.sample_aspect_ratio">0</property>
  <property name="meta.media.0.codec.colorspace">709</property>
  <property name="meta.media.0.codec.name">h264</property>
  <property name="meta.media.0.codec.long_name">H.264 / AVC / MPEG-4 AVC / MPEG-4 part 10</property>
  <property name="meta.media.0.codec.bit_rate">36902902</property>
  <property name="meta.attr.0.stream.handler_name.markup">VideoHandler</property>
  <property name="meta.attr.0.stream.vendor_id.markup">[0][0][0][0]</property>
  <property name="meta.attr.0.stream.encoder.markup">Lavc61.19.101 libx264</property>
  <property name="meta.attr.minor_version.markup">512</property>
  <property name="meta.attr.major_brand.markup">isom</property>
  <property name="meta.attr.compatible_brands.markup">isomiso2avc1mp41</property>
  <property name="meta.attr.encoder.markup">Lavf61.9.100</property>
  <property name="seekable">1</property>
  <property name="meta.media.sample_aspect_num">1</property>
  <property name="meta.media.sample_aspect_den">1</property>
  <property name="audio_index">-1</property>
  <property name="video_index">0</property>
  <property name="warp_speed">2</property>
  <property name="warp_resource">C:/dev/workspace/indy/dist/room/attic2/content/upscale/attic.mp4</property>
  <property name="mlt_service">timewarp</property>
  <property name="kdenlive:control_uuid">{c6ca648c-b36c-4df3-a455-868b86751e55}</property>
  <property name="vstream">0</property>
  <property name="astream">-1</property>
  <property name="set.test_audio">1</property>
  <property name="set.test_image">0</property>
  <property name="kdenlive:id">4</property>
  <property name="warp_pitch">0</property>
 </producer>
 <producer id="producer2" in="00:00:00.000" out="00:00:01.958">
  <property name="length">48</property>
  <property name="eof">pause</property>
  <property name="resource">-2.000000:C:/dev/workspace/indy/dist/room/attic2/content/upscale/attic.mp4</property>
  <property name="aspect_ratio">1</property>
  <property name="meta.media.nb_streams">1</property>
  <property name="meta.media.0.stream.type">video</property>
  <property name="meta.media.0.stream.frame_rate">48</property>
  <property name="meta.media.0.stream.sample_aspect_ratio">0</property>
  <property name="meta.media.0.codec.width">3840</property>
  <property name="meta.media.0.codec.height">2160</property>
  <property name="meta.media.0.codec.rotate">0</property>
  <property name="meta.media.0.codec.pix_fmt">yuv444p</property>
  <property name="meta.media.0.codec.sample_aspect_ratio">0</property>
  <property name="meta.media.0.codec.colorspace">709</property>
  <property name="meta.media.0.codec.name">h264</property>
  <property name="meta.media.0.codec.long_name">H.264 / AVC / MPEG-4 AVC / MPEG-4 part 10</property>
  <property name="meta.media.0.codec.bit_rate">36902902</property>
  <property name="meta.attr.0.stream.handler_name.markup">VideoHandler</property>
  <property name="meta.attr.0.stream.vendor_id.markup">[0][0][0][0]</property>
  <property name="meta.attr.0.stream.encoder.markup">Lavc61.19.101 libx264</property>
  <property name="meta.attr.minor_version.markup">512</property>
  <property name="meta.attr.major_brand.markup">isom</property>
  <property name="meta.attr.compatible_brands.markup">isomiso2avc1mp41</property>
  <property name="meta.attr.encoder.markup">Lavf61.9.100</property>
  <property name="seekable">1</property>
  <property name="meta.media.sample_aspect_num">1</property>
  <property name="meta.media.sample_aspect_den">1</property>
  <property name="audio_index">-1</property>
  <property name="video_index">0</property>
  <property name="warp_speed">-2</property>
  <property name="warp_resource">C:/dev/workspace/indy/dist/room/attic2/content/upscale/attic.mp4</property>
  <property name="mlt_service">timewarp</property>
  <property name="kdenlive:control_uuid">{c6ca648c-b36c-4df3-a455-868b86751e55}</property>
  <property name="vstream">0</property>
  <property name="astream">-1</property>
  <property name="set.test_audio">1</property>
  <property name="set.test_image">0</property>
  <property name="kdenlive:id">4</property>
  <property name="warp_pitch">0</property>
 </producer>
 <producer id="producer3" in="00:00:00.000" out="00:00:39.958">
  <property name="length">960</property>
  <property name="eof">pause</property>
  <property name="resource">0.100000:C:/dev/workspace/indy/dist/room/attic2/content/upscale/attic.mp4</property>
  <property name="aspect_ratio">1</property>
  <property name="meta.media.nb_streams">1</property>
  <property name="meta.media.0.stream.type">video</property>
  <property name="meta.media.0.stream.frame_rate">48</property>
  <property name="meta.media.0.stream.sample_aspect_ratio">0</property>
  <property name="meta.media.0.codec.width">3840</property>
  <property name="meta.media.0.codec.height">2160</property>
  <property name="meta.media.0.codec.rotate">0</property>
  <property name="meta.media.0.codec.pix_fmt">yuv444p</property>
  <property name="meta.media.0.codec.sample_aspect_ratio">0</property>
  <property name="meta.media.0.codec.colorspace">709</property>
  <property name="meta.media.0.codec.name">h264</property>
  <property name="meta.media.0.codec.long_name">H.264 / AVC / MPEG-4 AVC / MPEG-4 part 10</property>
  <property name="meta.media.0.codec.bit_rate">36902902</property>
  <property name="meta.attr.0.stream.handler_name.markup">VideoHandler</property>
  <property name="meta.attr.0.stream.vendor_id.markup">[0][0][0][0]</property>
  <property name="meta.attr.0.stream.encoder.markup">Lavc61.19.101 libx264</property>
  <property name="meta.attr.minor_version.markup">512</property>
  <property name="meta.attr.major_brand.markup">isom</property>
  <property name="meta.attr.compatible_brands.markup">isomiso2avc1mp41</property>
  <property name="meta.attr.encoder.markup">Lavf61.9.100</property>
  <property name="seekable">1</property>
  <property name="meta.media.sample_aspect_num">1</property>
  <property name="meta.media.sample_aspect_den">1</property>
  <property name="audio_index">-1</property>
  <property name="video_index">0</property>
  <property name="warp_speed">0.1</property>
  <property name="warp_resource">C:/dev/workspace/indy/dist/room/attic2/content/upscale/attic.mp4</property>
  <property name="mlt_service">timewarp</property>
  <property name="kdenlive:control_uuid">{c6ca648c-b36c-4df3-a455-868b86751e55}</property>
  <property name="vstream">0</property>
  <property name="astream">-1</property>
  <property name="set.test_audio">1</property>
  <property name="set.test_image">0</property>
  <property name="kdenlive:id">4</property>
  <property name="warp_pitch">0</property>
 </producer>
 <playlist id="playlist4">
  <blank length="00:00:05.000"/>
  <entry in="00:00:00.000" out="00:00:00.458" producer="producer1">
   <property name="kdenlive:id">4</property>
   <filter id="filter9" out="00:00:00.417">
    <property name="start">1</property>
    <property name="level">1</property>
    <property name="mlt_service">brightness</property>
    <property name="kdenlive_id">fade_from_black</property>
    <property name="alpha">00:00:00.000=0;00:00:00.417=1</property>
    <property name="kdenlive:collapsed">0</property>
   </filter>
   <filter id="filter10">
    <property name="version">0.2</property>
    <property name="mlt_service">frei0r.contrast0r</property>
    <property name="kdenlive_id">frei0r.contrast0r</property>
    <property name="Contrast">00:00:00.000=0.56</property>
    <property name="kdenlive:collapsed">1</property>
   </filter>
   <filter id="filter11">
    <property name="version">0.2</property>
    <property name="mlt_service">frei0r.coloradj_RGB</property>
    <property name="kdenlive_id">frei0r.coloradj_RGB</property>
    <property name="R">00:00:00.000=0.5</property>
    <property name="G">00:00:00.000=0.6</property>
    <property name="B">00:00:00.000=0.5</property>
    <property name="Action">0.5</property>
    <property name="Keep luma">1</property>
    <property name="Alpha controlled">0</property>
    <property name="Luma formula">1</property>
    <property name="kdenlive:collapsed">1</property>
   </filter>
  </entry>
  <entry in="00:00:01.458" out="00:00:01.917" producer="producer2">
   <property name="kdenlive:id">4</property>
   <filter id="filter12">
    <property name="version">0.2</property>
    <property name="mlt_service">frei0r.contrast0r</property>
    <property name="kdenlive_id">frei0r.contrast0r</property>
    <property name="Contrast">00:00:01.458=0.56</property>
    <property name="kdenlive:collapsed">1</property>
   </filter>
   <filter id="filter13">
    <property name="version">0.2</property>
    <property name="mlt_service">frei0r.coloradj_RGB</property>
    <property name="kdenlive_id">frei0r.coloradj_RGB</property>
    <property name="R">00:00:01.458=0.5</property>
    <property name="G">00:00:01.458=0.6</property>
    <property name="B">00:00:01.458=0.5</property>
    <property name="Action">0.5</property>
    <property name="Keep luma">1</property>
    <property name="Alpha controlled">0</property>
    <property name="Luma formula">1</property>
    <property name="kdenlive:collapsed">1</property>
   </filter>
  </entry>
  <blank length="00:00:01.583"/>
  <entry in="00:00:00.000" out="00:00:00.375" producer="producer3">
   <property name="kdenlive:id">4</property>
   <filter id="filter14">
    <property name="version">0.2</property>
    <property name="mlt_service">frei0r.contrast0r</property>
    <property name="kdenlive_id">frei0r.contrast0r</property>
    <property name="Contrast">00:00:00.000=0.52</property>
    <property name="kdenlive:collapsed">0</property>
    <property name="disable">0</property>
   </filter>
  </entry>
 </playlist>
 <playlist id="playlist5"/>
 <tractor id="tractor2" in="00:00:00.000" out="00:00:07.958">
  <property name="kdenlive:trackheight">67</property>
  <property name="kdenlive:timeline_active">1</property>
  <property name="kdenlive:collapsed">0</property>
  <property name="kdenlive:thumbs_format"/>
  <property name="kdenlive:audio_rec"/>
  <track hide="both" producer="playlist4"/>
  <track hide="both" producer="playlist5"/>
 </tractor>
 <producer id="producer4" in="00:00:00.000" out="00:00:37.708">
  <property name="length">00:00:37.750</property>
  <property name="eof">pause</property>
  <property name="resource">C:/dev/workspace/indy/dist/room/attic2/data/0x800000ff</property>
  <property name="aspect_ratio">1</property>
  <property name="mlt_service">color</property>
  <property name="kdenlive:clipname">Color Clip</property>
  <property name="kdenlive:duration">00:00:05.000</property>
  <property name="xml">was here</property>
  <property name="seekable">1</property>
  <property name="kdenlive:folderid">-1</property>
  <property name="kdenlive:id">23</property>
  <property name="kdenlive:control_uuid">{7ff73df0-e430-4a4d-930f-58cf539b4ad6}</property>
  <property name="mlt_image_format">rgb</property>
  <property name="kdenlive:clip_type">2</property>
  <property name="kdenlive:file_hash">9487eb9b8093abc12cdb85ddeeb05e29</property>
  <property name="kdenlive:monitorPosition">0</property>
 </producer>
 <playlist id="playlist6">
  <entry in="00:00:00.000" out="00:00:27.958" producer="producer4">
   <property name="kdenlive:id">23</property>
  </entry>
 </playlist>
 <playlist id="playlist7"/>
 <tractor id="tractor3" in="00:00:00.000" out="00:00:27.958">
  <property name="kdenlive:trackheight">67</property>
  <property name="kdenlive:timeline_active">1</property>
  <property name="kdenlive:collapsed">0</property>
  <property name="kdenlive:thumbs_format"/>
  <property name="kdenlive:audio_rec"/>
  <track hide="both" producer="playlist6"/>
  <track hide="both" producer="playlist7"/>
 </tractor>
 <chain id="chain1" out="00:00:05.042">
  <property name="length">122</property>
  <property name="eof">pause</property>
  <property name="resource">C:/dev/workspace/indy/dist/room/attic2/content/upscale/wide/indy.mp4</property>
  <property name="mlt_service">avformat-novalidate</property>
  <property name="seekable">1</property>
  <property name="audio_index">-1</property>
  <property name="video_index">0</property>
  <property name="vstream">0</property>
  <property name="kdenlive:control_uuid">{0bf7c8a8-76e0-4d93-8782-da6eb447392c}</property>
  <property name="kdenlive:id">20</property>
  <property name="kdenlive:clip_type">2</property>
  <property name="kdenlive:file_size">19151951</property>
  <property name="kdenlive:file_hash">dbeab0e57545d1e5e736da2faa4422b5</property>
  <property name="kdenlive:folderid">-1</property>
  <property name="meta.media.nb_streams">1</property>
  <property name="meta.media.0.stream.type">video</property>
  <property name="meta.media.0.stream.frame_rate">60</property>
  <property name="meta.media.0.stream.sample_aspect_ratio">0</property>
  <property name="meta.media.0.codec.width">5160</property>
  <property name="meta.media.0.codec.height">2160</property>
  <property name="meta.media.0.codec.rotate">0</property>
  <property name="meta.media.0.codec.pix_fmt">yuv444p</property>
  <property name="meta.media.0.codec.sample_aspect_ratio">0</property>
  <property name="meta.media.0.codec.colorspace">709</property>
  <property name="meta.media.0.codec.name">h264</property>
  <property name="meta.media.0.codec.long_name">H.264 / AVC / MPEG-4 AVC / MPEG-4 part 10</property>
  <property name="meta.media.0.codec.bit_rate">30132963</property>
  <property name="meta.attr.0.stream.handler_name.markup">VideoHandler</property>
  <property name="meta.attr.0.stream.vendor_id.markup">[0][0][0][0]</property>
  <property name="meta.attr.0.stream.encoder.markup">Lavc61.19.101 libx264</property>
  <property name="meta.attr.minor_version.markup">512</property>
  <property name="meta.attr.major_brand.markup">isom</property>
  <property name="meta.attr.compatible_brands.markup">isomiso2avc1mp41</property>
  <property name="meta.attr.encoder.markup">Lavf61.9.100</property>
  <property name="meta.media.sample_aspect_num">1</property>
  <property name="meta.media.sample_aspect_den">1</property>
  <property name="meta.media.frame_rate_num">60</property>
  <property name="meta.media.frame_rate_den">1</property>
  <property name="meta.media.colorspace">709</property>
  <property name="meta.media.color_trc">2</property>
  <property name="meta.media.has_b_frames">2</property>
  <property name="meta.media.width">5160</property>
  <property name="meta.media.height">2160</property>
  <property name="meta.media.aspect_ratio">1</property>
  <property name="meta.media.color_range">mpeg</property>
  <property name="xml">was here</property>
  <property name="mute_on_pause">0</property>
  <property name="meta.media.top_field_first">0</property>
  <property name="meta.media.progressive">1</property>
  <property name="set.test_audio">1</property>
  <property name="set.test_image">0</property>
 </chain>
 <producer id="producer5" in="00:00:00.000" out="00:00:04.625">
  <property name="length">112</property>
  <property name="eof">pause</property>
  <property name="resource">-1.000000:C:/dev/workspace/indy/dist/room/attic2/content/upscale/wide/indy2.mp4</property>
  <property name="aspect_ratio">1</property>
  <property name="meta.media.nb_streams">2</property>
  <property name="meta.media.0.stream.type">video</property>
  <property name="meta.media.0.stream.frame_rate">60</property>
  <property name="meta.media.0.stream.sample_aspect_ratio">0</property>
  <property name="meta.media.0.codec.width">5160</property>
  <property name="meta.media.0.codec.height">2160</property>
  <property name="meta.media.0.codec.rotate">0</property>
  <property name="meta.media.0.codec.pix_fmt">yuv444p</property>
  <property name="meta.media.0.codec.sample_aspect_ratio">0</property>
  <property name="meta.media.0.codec.colorspace">709</property>
  <property name="meta.media.0.codec.name">h264</property>
  <property name="meta.media.0.codec.long_name">H.264 / AVC / MPEG-4 AVC / MPEG-4 part 10</property>
  <property name="meta.media.0.codec.bit_rate">40753865</property>
  <property name="meta.attr.0.stream.handler_name.markup">VideoHandler</property>
  <property name="meta.attr.0.stream.vendor_id.markup">[0][0][0][0]</property>
  <property name="meta.attr.0.stream.encoder.markup">Lavc61.19.101 libx264</property>
  <property name="meta.media.1.stream.type">audio</property>
  <property name="meta.media.1.codec.sample_fmt">fltp</property>
  <property name="meta.media.1.codec.sample_rate">48000</property>
  <property name="meta.media.1.codec.channels">2</property>
  <property name="meta.media.1.codec.layout">stereo</property>
  <property name="meta.media.1.codec.name">aac</property>
  <property name="meta.media.1.codec.long_name">AAC (Advanced Audio Coding)</property>
  <property name="meta.media.1.codec.bit_rate">2279</property>
  <property name="meta.attr.1.stream.handler_name.markup">SoundHandler</property>
  <property name="meta.attr.1.stream.vendor_id.markup">[0][0][0][0]</property>
  <property name="meta.attr.minor_version.markup">512</property>
  <property name="meta.attr.major_brand.markup">isom</property>
  <property name="meta.attr.compatible_brands.markup">isomiso2avc1mp41</property>
  <property name="meta.attr.encoder.markup">Lavf61.9.100</property>
  <property name="seekable">1</property>
  <property name="meta.media.sample_aspect_num">1</property>
  <property name="meta.media.sample_aspect_den">1</property>
  <property name="audio_index">-1</property>
  <property name="video_index">0</property>
  <property name="warp_speed">-1</property>
  <property name="warp_resource">C:/dev/workspace/indy/dist/room/attic2/content/upscale/wide/indy2.mp4</property>
  <property name="mlt_service">timewarp</property>
  <property name="kdenlive:control_uuid">{64c3a609-5d20-4645-93c5-c0de008f3e25}</property>
  <property name="vstream">0</property>
  <property name="astream">-1</property>
  <property name="set.test_audio">1</property>
  <property name="set.test_image">0</property>
  <property name="kdenlive:id">21</property>
  <property name="warp_pitch">0</property>
 </producer>
 <chain id="chain2" out="00:00:03.958">
  <property name="length">96</property>
  <property name="eof">pause</property>
  <property name="resource">C:/dev/workspace/indy/dist/room/attic2/content/upscale/wide/attic.mp4</property>
  <property name="mlt_service">avformat-novalidate</property>
  <property name="seekable">1</property>
  <property name="audio_index">1</property>
  <property name="video_index">0</property>
  <property name="vstream">0</property>
  <property name="astream">0</property>
  <property name="kdenlive:control_uuid">{2c598107-abd8-4468-b817-47067cfe6ea2}</property>
  <property name="kdenlive:id">16</property>
  <property name="kdenlive:clip_type">2</property>
  <property name="kdenlive:file_size">13211036</property>
  <property name="kdenlive:file_hash">c1d91ce4f88db9127adb2168c828c08f</property>
  <property name="kdenlive:folderid">-1</property>
  <property name="meta.media.nb_streams">2</property>
  <property name="meta.media.0.stream.type">video</property>
  <property name="meta.media.0.stream.frame_rate">48</property>
  <property name="meta.media.0.stream.sample_aspect_ratio">0</property>
  <property name="meta.media.0.codec.width">5160</property>
  <property name="meta.media.0.codec.height">2160</property>
  <property name="meta.media.0.codec.rotate">0</property>
  <property name="meta.media.0.codec.pix_fmt">yuv444p</property>
  <property name="meta.media.0.codec.sample_aspect_ratio">0</property>
  <property name="meta.media.0.codec.colorspace">709</property>
  <property name="meta.media.0.codec.name">h264</property>
  <property name="meta.media.0.codec.long_name">H.264 / AVC / MPEG-4 AVC / MPEG-4 part 10</property>
  <property name="meta.media.0.codec.bit_rate">26410630</property>
  <property name="meta.attr.0.stream.handler_name.markup">VideoHandler</property>
  <property name="meta.attr.0.stream.vendor_id.markup">[0][0][0][0]</property>
  <property name="meta.attr.0.stream.encoder.markup">Lavc61.19.101 libx264</property>
  <property name="meta.media.1.stream.type">audio</property>
  <property name="meta.media.1.codec.sample_fmt">fltp</property>
  <property name="meta.media.1.codec.sample_rate">48000</property>
  <property name="meta.media.1.codec.channels">2</property>
  <property name="meta.media.1.codec.layout">stereo</property>
  <property name="meta.media.1.codec.name">aac</property>
  <property name="meta.media.1.codec.long_name">AAC (Advanced Audio Coding)</property>
  <property name="meta.media.1.codec.bit_rate">2250</property>
  <property name="meta.attr.1.stream.handler_name.markup">SoundHandler</property>
  <property name="meta.attr.1.stream.vendor_id.markup">[0][0][0][0]</property>
  <property name="meta.attr.minor_version.markup">512</property>
  <property name="meta.attr.major_brand.markup">isom</property>
  <property name="meta.attr.compatible_brands.markup">isomiso2avc1mp41</property>
  <property name="meta.attr.encoder.markup">Lavf61.9.100</property>
  <property name="meta.media.sample_aspect_num">1</property>
  <property name="meta.media.sample_aspect_den">1</property>
  <property name="meta.media.frame_rate_num">48</property>
  <property name="meta.media.frame_rate_den">1</property>
  <property name="meta.media.colorspace">709</property>
  <property name="meta.media.color_trc">2</property>
  <property name="meta.media.has_b_frames">2</property>
  <property name="meta.media.width">5160</property>
  <property name="meta.media.height">2160</property>
  <property name="meta.media.aspect_ratio">1</property>
  <property name="meta.media.color_range">mpeg</property>
  <property name="xml">was here</property>
  <property name="mute_on_pause">0</property>
  <property name="meta.media.top_field_first">0</property>
  <property name="meta.media.progressive">1</property>
  <property name="set.test_audio">1</property>
  <property name="set.test_image">0</property>
 </chain>
 <producer id="producer6" in="00:00:00.000" out="00:00:03.958">
  <property name="length">96</property>
  <property name="eof">pause</property>
  <property name="resource">-1.000000:C:/dev/workspace/indy/dist/room/attic2/content/upscale/wide/attic.mp4</property>
  <property name="aspect_ratio">1</property>
  <property name="meta.media.nb_streams">2</property>
  <property name="meta.media.0.stream.type">video</property>
  <property name="meta.media.0.stream.frame_rate">48</property>
  <property name="meta.media.0.stream.sample_aspect_ratio">0</property>
  <property name="meta.media.0.codec.width">5160</property>
  <property name="meta.media.0.codec.height">2160</property>
  <property name="meta.media.0.codec.rotate">0</property>
  <property name="meta.media.0.codec.pix_fmt">yuv444p</property>
  <property name="meta.media.0.codec.sample_aspect_ratio">0</property>
  <property name="meta.media.0.codec.colorspace">709</property>
  <property name="meta.media.0.codec.name">h264</property>
  <property name="meta.media.0.codec.long_name">H.264 / AVC / MPEG-4 AVC / MPEG-4 part 10</property>
  <property name="meta.media.0.codec.bit_rate">26410630</property>
  <property name="meta.attr.0.stream.handler_name.markup">VideoHandler</property>
  <property name="meta.attr.0.stream.vendor_id.markup">[0][0][0][0]</property>
  <property name="meta.attr.0.stream.encoder.markup">Lavc61.19.101 libx264</property>
  <property name="meta.media.1.stream.type">audio</property>
  <property name="meta.media.1.codec.sample_fmt">fltp</property>
  <property name="meta.media.1.codec.sample_rate">48000</property>
  <property name="meta.media.1.codec.channels">2</property>
  <property name="meta.media.1.codec.layout">stereo</property>
  <property name="meta.media.1.codec.name">aac</property>
  <property name="meta.media.1.codec.long_name">AAC (Advanced Audio Coding)</property>
  <property name="meta.media.1.codec.bit_rate">2250</property>
  <property name="meta.attr.1.stream.handler_name.markup">SoundHandler</property>
  <property name="meta.attr.1.stream.vendor_id.markup">[0][0][0][0]</property>
  <property name="meta.attr.minor_version.markup">512</property>
  <property name="meta.attr.major_brand.markup">isom</property>
  <property name="meta.attr.compatible_brands.markup">isomiso2avc1mp41</property>
  <property name="meta.attr.encoder.markup">Lavf61.9.100</property>
  <property name="seekable">1</property>
  <property name="meta.media.sample_aspect_num">1</property>
  <property name="meta.media.sample_aspect_den">1</property>
  <property name="audio_index">-1</property>
  <property name="video_index">0</property>
  <property name="warp_speed">-1</property>
  <property name="warp_resource">C:/dev/workspace/indy/dist/room/attic2/content/upscale/wide/attic.mp4</property>
  <property name="mlt_service">timewarp</property>
  <property name="kdenlive:control_uuid">{2c598107-abd8-4468-b817-47067cfe6ea2}</property>
  <property name="vstream">0</property>
  <property name="astream">-1</property>
  <property name="set.test_audio">1</property>
  <property name="set.test_image">0</property>
  <property name="kdenlive:id">16</property>
  <property name="warp_pitch">0</property>
 </producer>
 <chain id="chain3" out="00:00:03.958">
  <property name="length">96</property>
  <property name="eof">pause</property>
  <property name="resource">C:/dev/workspace/indy/dist/room/attic2/content/upscale/wide/attic2.mp4</property>
  <property name="mlt_service">avformat-novalidate</property>
  <property name="seekable">1</property>
  <property name="audio_index">1</property>
  <property name="video_index">0</property>
  <property name="vstream">0</property>
  <property name="astream">0</property>
  <property name="kdenlive:control_uuid">{4edc959a-9b4d-43fc-8502-5265f06b0913}</property>
  <property name="kdenlive:id">17</property>
  <property name="kdenlive:clip_type">2</property>
  <property name="kdenlive:file_size">12996409</property>
  <property name="kdenlive:file_hash">fbebcb91d9d04891b891d7b51e397707</property>
  <property name="kdenlive:folderid">-1</property>
  <property name="meta.media.nb_streams">2</property>
  <property name="meta.media.0.stream.type">video</property>
  <property name="meta.media.0.stream.frame_rate">48</property>
  <property name="meta.media.0.stream.sample_aspect_ratio">0</property>
  <property name="meta.media.0.codec.width">5160</property>
  <property name="meta.media.0.codec.height">2160</property>
  <property name="meta.media.0.codec.rotate">0</property>
  <property name="meta.media.0.codec.pix_fmt">yuv444p</property>
  <property name="meta.media.0.codec.sample_aspect_ratio">0</property>
  <property name="meta.media.0.codec.colorspace">709</property>
  <property name="meta.media.0.codec.name">h264</property>
  <property name="meta.media.0.codec.long_name">H.264 / AVC / MPEG-4 AVC / MPEG-4 part 10</property>
  <property name="meta.media.0.codec.bit_rate">25981376</property>
  <property name="meta.attr.0.stream.handler_name.markup">VideoHandler</property>
  <property name="meta.attr.0.stream.vendor_id.markup">[0][0][0][0]</property>
  <property name="meta.attr.0.stream.encoder.markup">Lavc61.19.101 libx264</property>
  <property name="meta.media.1.stream.type">audio</property>
  <property name="meta.media.1.codec.sample_fmt">fltp</property>
  <property name="meta.media.1.codec.sample_rate">48000</property>
  <property name="meta.media.1.codec.channels">2</property>
  <property name="meta.media.1.codec.layout">stereo</property>
  <property name="meta.media.1.codec.name">aac</property>
  <property name="meta.media.1.codec.long_name">AAC (Advanced Audio Coding)</property>
  <property name="meta.media.1.codec.bit_rate">2250</property>
  <property name="meta.attr.1.stream.handler_name.markup">SoundHandler</property>
  <property name="meta.attr.1.stream.vendor_id.markup">[0][0][0][0]</property>
  <property name="meta.attr.minor_version.markup">512</property>
  <property name="meta.attr.major_brand.markup">isom</property>
  <property name="meta.attr.compatible_brands.markup">isomiso2avc1mp41</property>
  <property name="meta.attr.encoder.markup">Lavf61.9.100</property>
  <property name="meta.media.sample_aspect_num">1</property>
  <property name="meta.media.sample_aspect_den">1</property>
  <property name="meta.media.frame_rate_num">48</property>
  <property name="meta.media.frame_rate_den">1</property>
  <property name="meta.media.colorspace">709</property>
  <property name="meta.media.color_trc">2</property>
  <property name="meta.media.has_b_frames">2</property>
  <property name="meta.media.width">5160</property>
  <property name="meta.media.height">2160</property>
  <property name="meta.media.aspect_ratio">1</property>
  <property name="meta.media.color_range">mpeg</property>
  <property name="xml">was here</property>
  <property name="mute_on_pause">0</property>
  <property name="meta.media.top_field_first">0</property>
  <property name="meta.media.progressive">1</property>
  <property name="set.test_audio">1</property>
  <property name="set.test_image">0</property>
 </chain>
 <producer id="producer7" in="00:00:00.000" out="00:00:03.958">
  <property name="length">96</property>
  <property name="eof">pause</property>
  <property name="resource">-1.000000:C:/dev/workspace/indy/dist/room/attic2/content/upscale/wide/attic2.mp4</property>
  <property name="aspect_ratio">1</property>
  <property name="meta.media.nb_streams">2</property>
  <property name="meta.media.0.stream.type">video</property>
  <property name="meta.media.0.stream.frame_rate">48</property>
  <property name="meta.media.0.stream.sample_aspect_ratio">0</property>
  <property name="meta.media.0.codec.width">5160</property>
  <property name="meta.media.0.codec.height">2160</property>
  <property name="meta.media.0.codec.rotate">0</property>
  <property name="meta.media.0.codec.pix_fmt">yuv444p</property>
  <property name="meta.media.0.codec.sample_aspect_ratio">0</property>
  <property name="meta.media.0.codec.colorspace">709</property>
  <property name="meta.media.0.codec.name">h264</property>
  <property name="meta.media.0.codec.long_name">H.264 / AVC / MPEG-4 AVC / MPEG-4 part 10</property>
  <property name="meta.media.0.codec.bit_rate">25981376</property>
  <property name="meta.attr.0.stream.handler_name.markup">VideoHandler</property>
  <property name="meta.attr.0.stream.vendor_id.markup">[0][0][0][0]</property>
  <property name="meta.attr.0.stream.encoder.markup">Lavc61.19.101 libx264</property>
  <property name="meta.media.1.stream.type">audio</property>
  <property name="meta.media.1.codec.sample_fmt">fltp</property>
  <property name="meta.media.1.codec.sample_rate">48000</property>
  <property name="meta.media.1.codec.channels">2</property>
  <property name="meta.media.1.codec.layout">stereo</property>
  <property name="meta.media.1.codec.name">aac</property>
  <property name="meta.media.1.codec.long_name">AAC (Advanced Audio Coding)</property>
  <property name="meta.media.1.codec.bit_rate">2250</property>
  <property name="meta.attr.1.stream.handler_name.markup">SoundHandler</property>
  <property name="meta.attr.1.stream.vendor_id.markup">[0][0][0][0]</property>
  <property name="meta.attr.minor_version.markup">512</property>
  <property name="meta.attr.major_brand.markup">isom</property>
  <property name="meta.attr.compatible_brands.markup">isomiso2avc1mp41</property>
  <property name="meta.attr.encoder.markup">Lavf61.9.100</property>
  <property name="seekable">1</property>
  <property name="meta.media.sample_aspect_num">1</property>
  <property name="meta.media.sample_aspect_den">1</property>
  <property name="audio_index">-1</property>
  <property name="video_index">0</property>
  <property name="warp_speed">-1</property>
  <property name="warp_resource">C:/dev/workspace/indy/dist/room/attic2/content/upscale/wide/attic2.mp4</property>
  <property name="mlt_service">timewarp</property>
  <property name="kdenlive:control_uuid">{4edc959a-9b4d-43fc-8502-5265f06b0913}</property>
  <property name="vstream">0</property>
  <property name="astream">-1</property>
  <property name="set.test_audio">1</property>
  <property name="set.test_image">0</property>
  <property name="kdenlive:id">17</property>
  <property name="warp_pitch">0</property>
 </producer>
 <producer id="producer8" in="00:00:00.000" out="00:00:03.958">
  <property name="length">96</property>
  <property name="eof">pause</property>
  <property name="resource">1.162500:C:/dev/workspace/indy/dist/room/attic2/content/upscale/wide/indy4.mp4</property>
  <property name="aspect_ratio">1</property>
  <property name="meta.media.nb_streams">2</property>
  <property name="meta.media.0.stream.type">video</property>
  <property name="meta.media.0.stream.frame_rate">60</property>
  <property name="meta.media.0.stream.sample_aspect_ratio">0</property>
  <property name="meta.media.0.codec.width">5160</property>
  <property name="meta.media.0.codec.height">2160</property>
  <property name="meta.media.0.codec.rotate">0</property>
  <property name="meta.media.0.codec.pix_fmt">yuv444p</property>
  <property name="meta.media.0.codec.sample_aspect_ratio">0</property>
  <property name="meta.media.0.codec.colorspace">709</property>
  <property name="meta.media.0.codec.name">h264</property>
  <property name="meta.media.0.codec.long_name">H.264 / AVC / MPEG-4 AVC / MPEG-4 part 10</property>
  <property name="meta.media.0.codec.bit_rate">46717350</property>
  <property name="meta.attr.0.stream.handler_name.markup">VideoHandler</property>
  <property name="meta.attr.0.stream.vendor_id.markup">[0][0][0][0]</property>
  <property name="meta.attr.0.stream.encoder.markup">Lavc61.19.101 libx264</property>
  <property name="meta.media.1.stream.type">audio</property>
  <property name="meta.media.1.codec.sample_fmt">fltp</property>
  <property name="meta.media.1.codec.sample_rate">48000</property>
  <property name="meta.media.1.codec.channels">2</property>
  <property name="meta.media.1.codec.layout">stereo</property>
  <property name="meta.media.1.codec.name">aac</property>
  <property name="meta.media.1.codec.long_name">AAC (Advanced Audio Coding)</property>
  <property name="meta.media.1.codec.bit_rate">2279</property>
  <property name="meta.attr.1.stream.handler_name.markup">SoundHandler</property>
  <property name="meta.attr.1.stream.vendor_id.markup">[0][0][0][0]</property>
  <property name="meta.attr.minor_version.markup">512</property>
  <property name="meta.attr.major_brand.markup">isom</property>
  <property name="meta.attr.compatible_brands.markup">isomiso2avc1mp41</property>
  <property name="meta.attr.encoder.markup">Lavf61.9.100</property>
  <property name="seekable">1</property>
  <property name="meta.media.sample_aspect_num">1</property>
  <property name="meta.media.sample_aspect_den">1</property>
  <property name="audio_index">-1</property>
  <property name="video_index">0</property>
  <property name="warp_speed">1.1625</property>
  <property name="warp_resource">C:/dev/workspace/indy/dist/room/attic2/content/upscale/wide/indy4.mp4</property>
  <property name="mlt_service">timewarp</property>
  <property name="kdenlive:control_uuid">{0ec0567e-2b79-4a68-8520-02c5e24bd8c7}</property>
  <property name="vstream">0</property>
  <property name="astream">-1</property>
  <property name="set.test_audio">1</property>
  <property name="set.test_image">0</property>
  <property name="kdenlive:id">22</property>
  <property name="warp_pitch">0</property>
 </producer>
 <chain id="chain4" out="00:00:03.958">
  <property name="length">96</property>
  <property name="eof">pause</property>
  <property name="resource">C:/dev/workspace/indy/dist/room/attic2/content/upscale/wide/book2.mp4</property>
  <property name="mlt_service">avformat-novalidate</property>
  <property name="seekable">1</property>
  <property name="audio_index">1</property>
  <property name="video_index">0</property>
  <property name="vstream">0</property>
  <property name="astream">0</property>
  <property name="kdenlive:control_uuid">{a1ad722b-b4ba-4277-bd31-405c0fad5886}</property>
  <property name="kdenlive:id">19</property>
  <property name="kdenlive:clip_type">2</property>
  <property name="kdenlive:file_size">9731803</property>
  <property name="kdenlive:file_hash">0e7400e26d863cafbcec2700e1eed666</property>
  <property name="kdenlive:folderid">-1</property>
  <property name="meta.media.nb_streams">2</property>
  <property name="meta.media.0.stream.type">video</property>
  <property name="meta.media.0.stream.frame_rate">48</property>
  <property name="meta.media.0.stream.sample_aspect_ratio">0</property>
  <property name="meta.media.0.codec.width">5160</property>
  <property name="meta.media.0.codec.height">2160</property>
  <property name="meta.media.0.codec.rotate">0</property>
  <property name="meta.media.0.codec.pix_fmt">yuv444p</property>
  <property name="meta.media.0.codec.sample_aspect_ratio">0</property>
  <property name="meta.media.0.codec.colorspace">709</property>
  <property name="meta.media.0.codec.name">h264</property>
  <property name="meta.media.0.codec.long_name">H.264 / AVC / MPEG-4 AVC / MPEG-4 part 10</property>
  <property name="meta.media.0.codec.bit_rate">19451652</property>
  <property name="meta.attr.0.stream.handler_name.markup">VideoHandler</property>
  <property name="meta.attr.0.stream.vendor_id.markup">[0][0][0][0]</property>
  <property name="meta.attr.0.stream.encoder.markup">Lavc61.19.101 libx264</property>
  <property name="meta.media.1.stream.type">audio</property>
  <property name="meta.media.1.codec.sample_fmt">fltp</property>
  <property name="meta.media.1.codec.sample_rate">48000</property>
  <property name="meta.media.1.codec.channels">2</property>
  <property name="meta.media.1.codec.layout">stereo</property>
  <property name="meta.media.1.codec.name">aac</property>
  <property name="meta.media.1.codec.long_name">AAC (Advanced Audio Coding)</property>
  <property name="meta.media.1.codec.bit_rate">2250</property>
  <property name="meta.attr.1.stream.handler_name.markup">SoundHandler</property>
  <property name="meta.attr.1.stream.vendor_id.markup">[0][0][0][0]</property>
  <property name="meta.attr.minor_version.markup">512</property>
  <property name="meta.attr.major_brand.markup">isom</property>
  <property name="meta.attr.compatible_brands.markup">isomiso2avc1mp41</property>
  <property name="meta.attr.encoder.markup">Lavf61.9.100</property>
  <property name="meta.media.sample_aspect_num">1</property>
  <property name="meta.media.sample_aspect_den">1</property>
  <property name="meta.media.frame_rate_num">48</property>
  <property name="meta.media.frame_rate_den">1</property>
  <property name="meta.media.colorspace">709</property>
  <property name="meta.media.color_trc">2</property>
  <property name="meta.media.has_b_frames">2</property>
  <property name="meta.media.width">5160</property>
  <property name="meta.media.height">2160</property>
  <property name="meta.media.aspect_ratio">1</property>
  <property name="meta.media.color_range">mpeg</property>
  <property name="xml">was here</property>
  <property name="mute_on_pause">0</property>
  <property name="meta.media.top_field_first">0</property>
  <property name="meta.media.progressive">1</property>
  <property name="set.test_audio">1</property>
  <property name="set.test_image">0</property>
 </chain>
 <producer id="producer9" in="00:00:00.000" out="00:00:03.958">
  <property name="length">96</property>
  <property name="eof">pause</property>
  <property name="resource">-1.000000:C:/dev/workspace/indy/dist/room/attic2/content/upscale/wide/book2.mp4</property>
  <property name="aspect_ratio">1</property>
  <property name="meta.media.nb_streams">2</property>
  <property name="meta.media.0.stream.type">video</property>
  <property name="meta.media.0.stream.frame_rate">48</property>
  <property name="meta.media.0.stream.sample_aspect_ratio">0</property>
  <property name="meta.media.0.codec.width">5160</property>
  <property name="meta.media.0.codec.height">2160</property>
  <property name="meta.media.0.codec.rotate">0</property>
  <property name="meta.media.0.codec.pix_fmt">yuv444p</property>
  <property name="meta.media.0.codec.sample_aspect_ratio">0</property>
  <property name="meta.media.0.codec.colorspace">709</property>
  <property name="meta.media.0.codec.name">h264</property>
  <property name="meta.media.0.codec.long_name">H.264 / AVC / MPEG-4 AVC / MPEG-4 part 10</property>
  <property name="meta.media.0.codec.bit_rate">19451652</property>
  <property name="meta.attr.0.stream.handler_name.markup">VideoHandler</property>
  <property name="meta.attr.0.stream.vendor_id.markup">[0][0][0][0]</property>
  <property name="meta.attr.0.stream.encoder.markup">Lavc61.19.101 libx264</property>
  <property name="meta.media.1.stream.type">audio</property>
  <property name="meta.media.1.codec.sample_fmt">fltp</property>
  <property name="meta.media.1.codec.sample_rate">48000</property>
  <property name="meta.media.1.codec.channels">2</property>
  <property name="meta.media.1.codec.layout">stereo</property>
  <property name="meta.media.1.codec.name">aac</property>
  <property name="meta.media.1.codec.long_name">AAC (Advanced Audio Coding)</property>
  <property name="meta.media.1.codec.bit_rate">2250</property>
  <property name="meta.attr.1.stream.handler_name.markup">SoundHandler</property>
  <property name="meta.attr.1.stream.vendor_id.markup">[0][0][0][0]</property>
  <property name="meta.attr.minor_version.markup">512</property>
  <property name="meta.attr.major_brand.markup">isom</property>
  <property name="meta.attr.compatible_brands.markup">isomiso2avc1mp41</property>
  <property name="meta.attr.encoder.markup">Lavf61.9.100</property>
  <property name="seekable">1</property>
  <property name="meta.media.sample_aspect_num">1</property>
  <property name="meta.media.sample_aspect_den">1</property>
  <property name="audio_index">-1</property>
  <property name="video_index">0</property>
  <property name="warp_speed">-1</property>
  <property name="warp_resource">C:/dev/workspace/indy/dist/room/attic2/content/upscale/wide/book2.mp4</property>
  <property name="mlt_service">timewarp</property>
  <property name="kdenlive:control_uuid">{a1ad722b-b4ba-4277-bd31-405c0fad5886}</property>
  <property name="vstream">0</property>
  <property name="astream">-1</property>
  <property name="set.test_audio">1</property>
  <property name="set.test_image">0</property>
  <property name="kdenlive:id">19</property>
  <property name="warp_pitch">0</property>
 </producer>
 <chain id="chain5" out="00:00:03.958">
  <property name="length">96</property>
  <property name="eof">pause</property>
  <property name="resource">C:/dev/workspace/indy/dist/room/attic2/content/upscale/wide/book.mp4</property>
  <property name="mlt_service">avformat-novalidate</property>
  <property name="seekable">1</property>
  <property name="audio_index">1</property>
  <property name="video_index">0</property>
  <property name="vstream">0</property>
  <property name="astream">0</property>
  <property name="kdenlive:control_uuid">{47d4174b-74ba-46c2-9447-9049d3bb4d0c}</property>
  <property name="kdenlive:id">18</property>
  <property name="kdenlive:clip_type">2</property>
  <property name="kdenlive:file_size">8527486</property>
  <property name="kdenlive:file_hash">d8a236a46fe747079bb0a4a541172973</property>
  <property name="kdenlive:folderid">-1</property>
  <property name="meta.media.nb_streams">2</property>
  <property name="meta.media.0.stream.type">video</property>
  <property name="meta.media.0.stream.frame_rate">48</property>
  <property name="meta.media.0.stream.sample_aspect_ratio">0</property>
  <property name="meta.media.0.codec.width">5160</property>
  <property name="meta.media.0.codec.height">2160</property>
  <property name="meta.media.0.codec.rotate">0</property>
  <property name="meta.media.0.codec.pix_fmt">yuv444p</property>
  <property name="meta.media.0.codec.sample_aspect_ratio">0</property>
  <property name="meta.media.0.codec.colorspace">709</property>
  <property name="meta.media.0.codec.name">h264</property>
  <property name="meta.media.0.codec.long_name">H.264 / AVC / MPEG-4 AVC / MPEG-4 part 10</property>
  <property name="meta.media.0.codec.bit_rate">17042698</property>
  <property name="meta.attr.0.stream.handler_name.markup">VideoHandler</property>
  <property name="meta.attr.0.stream.vendor_id.markup">[0][0][0][0]</property>
  <property name="meta.attr.0.stream.encoder.markup">Lavc61.19.101 libx264</property>
  <property name="meta.media.1.stream.type">audio</property>
  <property name="meta.media.1.codec.sample_fmt">fltp</property>
  <property name="meta.media.1.codec.sample_rate">48000</property>
  <property name="meta.media.1.codec.channels">2</property>
  <property name="meta.media.1.codec.layout">stereo</property>
  <property name="meta.media.1.codec.name">aac</property>
  <property name="meta.media.1.codec.long_name">AAC (Advanced Audio Coding)</property>
  <property name="meta.media.1.codec.bit_rate">2250</property>
  <property name="meta.attr.1.stream.handler_name.markup">SoundHandler</property>
  <property name="meta.attr.1.stream.vendor_id.markup">[0][0][0][0]</property>
  <property name="meta.attr.minor_version.markup">512</property>
  <property name="meta.attr.major_brand.markup">isom</property>
  <property name="meta.attr.compatible_brands.markup">isomiso2avc1mp41</property>
  <property name="meta.attr.encoder.markup">Lavf61.9.100</property>
  <property name="meta.media.sample_aspect_num">1</property>
  <property name="meta.media.sample_aspect_den">1</property>
  <property name="meta.media.frame_rate_num">48</property>
  <property name="meta.media.frame_rate_den">1</property>
  <property name="meta.media.colorspace">709</property>
  <property name="meta.media.color_trc">2</property>
  <property name="meta.media.has_b_frames">2</property>
  <property name="meta.media.width">5160</property>
  <property name="meta.media.height">2160</property>
  <property name="meta.media.aspect_ratio">1</property>
  <property name="meta.media.color_range">mpeg</property>
  <property name="xml">was here</property>
  <property name="mute_on_pause">0</property>
  <property name="meta.media.top_field_first">0</property>
  <property name="meta.media.progressive">1</property>
  <property name="set.test_audio">1</property>
  <property name="set.test_image">0</property>
 </chain>
 <producer id="producer10" in="00:00:00.000" out="00:00:03.958">
  <property name="length">96</property>
  <property name="eof">pause</property>
  <property name="resource">-1.000000:C:/dev/workspace/indy/dist/room/attic2/content/upscale/wide/book.mp4</property>
  <property name="aspect_ratio">1</property>
  <property name="meta.media.nb_streams">2</property>
  <property name="meta.media.0.stream.type">video</property>
  <property name="meta.media.0.stream.frame_rate">48</property>
  <property name="meta.media.0.stream.sample_aspect_ratio">0</property>
  <property name="meta.media.0.codec.width">5160</property>
  <property name="meta.media.0.codec.height">2160</property>
  <property name="meta.media.0.codec.rotate">0</property>
  <property name="meta.media.0.codec.pix_fmt">yuv444p</property>
  <property name="meta.media.0.codec.sample_aspect_ratio">0</property>
  <property name="meta.media.0.codec.colorspace">709</property>
  <property name="meta.media.0.codec.name">h264</property>
  <property name="meta.media.0.codec.long_name">H.264 / AVC / MPEG-4 AVC / MPEG-4 part 10</property>
  <property name="meta.media.0.codec.bit_rate">17042698</property>
  <property name="meta.attr.0.stream.handler_name.markup">VideoHandler</property>
  <property name="meta.attr.0.stream.vendor_id.markup">[0][0][0][0]</property>
  <property name="meta.attr.0.stream.encoder.markup">Lavc61.19.101 libx264</property>
  <property name="meta.media.1.stream.type">audio</property>
  <property name="meta.media.1.codec.sample_fmt">fltp</property>
  <property name="meta.media.1.codec.sample_rate">48000</property>
  <property name="meta.media.1.codec.channels">2</property>
  <property name="meta.media.1.codec.layout">stereo</property>
  <property name="meta.media.1.codec.name">aac</property>
  <property name="meta.media.1.codec.long_name">AAC (Advanced Audio Coding)</property>
  <property name="meta.media.1.codec.bit_rate">2250</property>
  <property name="meta.attr.1.stream.handler_name.markup">SoundHandler</property>
  <property name="meta.attr.1.stream.vendor_id.markup">[0][0][0][0]</property>
  <property name="meta.attr.minor_version.markup">512</property>
  <property name="meta.attr.major_brand.markup">isom</property>
  <property name="meta.attr.compatible_brands.markup">isomiso2avc1mp41</property>
  <property name="meta.attr.encoder.markup">Lavf61.9.100</property>
  <property name="seekable">1</property>
  <property name="meta.media.sample_aspect_num">1</property>
  <property name="meta.media.sample_aspect_den">1</property>
  <property name="audio_index">-1</property>
  <property name="video_index">0</property>
  <property name="warp_speed">-1</property>
  <property name="warp_resource">C:/dev/workspace/indy/dist/room/attic2/content/upscale/wide/book.mp4</property>
  <property name="mlt_service">timewarp</property>
  <property name="kdenlive:control_uuid">{47d4174b-74ba-46c2-9447-9049d3bb4d0c}</property>
  <property name="vstream">0</property>
  <property name="astream">-1</property>
  <property name="set.test_audio">1</property>
  <property name="set.test_image">0</property>
  <property name="kdenlive:id">18</property>
  <property name="warp_pitch">0</property>
 </producer>
 <playlist id="playlist8">
  <entry in="00:00:00.000" out="00:00:04.958" producer="chain1">
   <property name="kdenlive:id">20</property>
   <filter id="filter52">
    <property name="version">0.2</property>
    <property name="mlt_service">frei0r.coloradj_RGB</property>
    <property name="kdenlive_id">frei0r.coloradj_RGB</property>
    <property name="R">00:00:00.000=0.4</property>
    <property name="G">00:00:00.000=0.6</property>
    <property name="B">00:00:00.000=0.6</property>
    <property name="Action">0.5</property>
    <property name="Keep luma">1</property>
    <property name="Alpha controlled">0</property>
    <property name="Luma formula">1</property>
    <property name="kdenlive:collapsed">0</property>
   </filter>
   <filter id="filter50">
    <property name="rotate_center">1</property>
    <property name="mlt_service">qtblend</property>
    <property name="kdenlive_id">qtblend</property>
    <property name="compositing">0</property>
    <property name="distort">0</property>
    <property name="rect">00:00:00.000=-153 -64 5469 2289 1.000000</property>
    <property name="rotation">00:00:00.000=0</property>
    <property name="kdenlive:collapsed">0</property>
   </filter>
  </entry>
  <entry in="00:00:01.667" out="00:00:04.625" producer="producer5">
   <property name="kdenlive:id">21</property>
   <filter id="filter55">
    <property name="version">0.2</property>
    <property name="mlt_service">frei0r.brightness</property>
    <property name="kdenlive_id">frei0r.brightness</property>
    <property name="Brightness">00:00:01.667=0.48</property>
    <property name="kdenlive:collapsed">1</property>
   </filter>
   <filter id="filter56">
    <property name="version">0.2</property>
    <property name="mlt_service">frei0r.coloradj_RGB</property>
    <property name="kdenlive_id">frei0r.coloradj_RGB</property>
    <property name="R">00:00:01.667=0.52</property>
    <property name="G">00:00:01.667=0.48</property>
    <property name="B">00:00:01.667=0.5</property>
    <property name="Action">0.5</property>
    <property name="Keep luma">1</property>
    <property name="Alpha controlled">0</property>
    <property name="Luma formula">1</property>
    <property name="kdenlive:collapsed">1</property>
   </filter>
   <filter id="filter51">
    <property name="rotate_center">1</property>
    <property name="mlt_service">qtblend</property>
    <property name="kdenlive_id">qtblend</property>
    <property name="compositing">0</property>
    <property name="distort">1</property>
    <property name="rect">00:00:01.667=-50 0 5260 2160 1.000000</property>
    <property name="rotation">00:00:01.667=0</property>
    <property name="kdenlive:collapsed">0</property>
   </filter>
  </entry>
  <entry in="00:00:00.000" out="00:00:03.958" producer="chain2">
   <property name="kdenlive:id">16</property>
   <filter id="filter59">
    <property name="version">0.2</property>
    <property name="mlt_service">frei0r.coloradj_RGB</property>
    <property name="kdenlive_id">frei0r.coloradj_RGB</property>
    <property name="R">00:00:00.000=0.52</property>
    <property name="G">00:00:00.000=0.5</property>
    <property name="B">00:00:00.000=0.48</property>
    <property name="Action">0.5</property>
    <property name="Keep luma">1</property>
    <property name="Alpha controlled">0</property>
    <property name="Luma formula">1</property>
    <property name="kdenlive:collapsed">0</property>
   </filter>
   <filter id="filter60">
    <property name="version">0.2</property>
    <property name="mlt_service">frei0r.brightness</property>
    <property name="kdenlive_id">frei0r.brightness</property>
    <property name="Brightness">00:00:00.000=0.45</property>
    <property name="kdenlive:collapsed">0</property>
   </filter>
  </entry>
  <entry in="00:00:00.000" out="00:00:03.958" producer="producer6">
   <property name="kdenlive:id">16</property>
   <filter id="filter63">
    <property name="version">0.2</property>
    <property name="mlt_service">frei0r.coloradj_RGB</property>
    <property name="kdenlive_id">frei0r.coloradj_RGB</property>
    <property name="R">00:00:00.000=0.52</property>
    <property name="G">00:00:00.000=0.5</property>
    <property name="B">00:00:00.000=0.48</property>
    <property name="Action">0.5</property>
    <property name="Keep luma">1</property>
    <property name="Alpha controlled">0</property>
    <property name="Luma formula">1</property>
    <property name="kdenlive:collapsed">0</property>
   </filter>
   <filter id="filter64">
    <property name="version">0.2</property>
    <property name="mlt_service">frei0r.brightness</property>
    <property name="kdenlive_id">frei0r.brightness</property>
    <property name="Brightness">00:00:00.000=0.45</property>
    <property name="kdenlive:collapsed">0</property>
   </filter>
  </entry>
  <entry in="00:00:00.000" out="00:00:03.958" producer="chain3">
   <property name="kdenlive:id">17</property>
   <filter id="filter67">
    <property name="version">0.2</property>
    <property name="mlt_service">frei0r.coloradj_RGB</property>
    <property name="kdenlive_id">frei0r.coloradj_RGB</property>
    <property name="R">00:00:00.000=0.52</property>
    <property name="G">00:00:00.000=0.5</property>
    <property name="B">00:00:00.000=0.48</property>
    <property name="Action">0.5</property>
    <property name="Keep luma">1</property>
    <property name="Alpha controlled">0</property>
    <property name="Luma formula">1</property>
    <property name="kdenlive:collapsed">0</property>
   </filter>
   <filter id="filter68">
    <property name="version">0.2</property>
    <property name="mlt_service">frei0r.brightness</property>
    <property name="kdenlive_id">frei0r.brightness</property>
    <property name="Brightness">00:00:00.000=0.45</property>
    <property name="kdenlive:collapsed">0</property>
   </filter>
  </entry>
  <entry in="00:00:00.000" out="00:00:03.958" producer="producer7">
   <property name="kdenlive:id">17</property>
   <filter id="filter71">
    <property name="version">0.2</property>
    <property name="mlt_service">frei0r.coloradj_RGB</property>
    <property name="kdenlive_id">frei0r.coloradj_RGB</property>
    <property name="R">00:00:00.000=0.52</property>
    <property name="G">00:00:00.000=0.5</property>
    <property name="B">00:00:00.000=0.48</property>
    <property name="Action">0.5</property>
    <property name="Keep luma">1</property>
    <property name="Alpha controlled">0</property>
    <property name="Luma formula">1</property>
    <property name="kdenlive:collapsed">0</property>
   </filter>
   <filter id="filter72">
    <property name="version">0.2</property>
    <property name="mlt_service">frei0r.brightness</property>
    <property name="kdenlive_id">frei0r.brightness</property>
    <property name="Brightness">00:00:00.000=0.45</property>
    <property name="kdenlive:collapsed">0</property>
   </filter>
  </entry>
  <entry in="00:00:00.000" out="00:00:03.958" producer="producer8">
   <property name="kdenlive:id">22</property>
   <filter id="filter75">
    <property name="version">0.2</property>
    <property name="mlt_service">frei0r.brightness</property>
    <property name="kdenlive_id">frei0r.brightness</property>
    <property name="Brightness">00:00:00.000=0.48</property>
    <property name="kdenlive:collapsed">0</property>
   </filter>
   <filter id="filter76">
    <property name="version">0.2</property>
    <property name="mlt_service">frei0r.coloradj_RGB</property>
    <property name="kdenlive_id">frei0r.coloradj_RGB</property>
    <property name="R">00:00:00.000=0.52</property>
    <property name="G">00:00:00.000=0.48</property>
    <property name="B">00:00:00.000=0.5</property>
    <property name="Action">0.5</property>
    <property name="Keep luma">1</property>
    <property name="Alpha controlled">0</property>
    <property name="Luma formula">1</property>
    <property name="kdenlive:collapsed">0</property>
   </filter>
   <filter id="filter53">
    <property name="rotate_center">1</property>
    <property name="mlt_service">qtblend</property>
    <property name="kdenlive_id">qtblend</property>
    <property name="compositing">0</property>
    <property name="distort">1</property>
    <property name="rect">00:00:00.000=-50 0 5260 2160 1.000000</property>
    <property name="rotation">00:00:00.000=0</property>
    <property name="kdenlive:collapsed">0</property>
   </filter>
  </entry>
  <entry in="00:00:00.000" out="00:00:03.958" producer="chain4">
   <property name="kdenlive:id">19</property>
  </entry>
  <entry in="00:00:00.000" out="00:00:03.958" producer="producer9">
   <property name="kdenlive:id">19</property>
  </entry>
  <entry in="00:00:00.000" out="00:00:03.958" producer="chain5">
   <property name="kdenlive:id">18</property>
  </entry>
  <entry in="00:00:00.000" out="00:00:03.958" producer="producer10">
   <property name="kdenlive:id">18</property>
  </entry>
 </playlist>
 <playlist id="playlist9"/>
 <tractor id="tractor4" in="00:00:00.000" out="00:00:43.958">
  <property name="kdenlive:trackheight">67</property>
  <property name="kdenlive:timeline_active">1</property>
  <property name="kdenlive:collapsed">0</property>
  <property name="kdenlive:track_name">wide</property>
  <property name="kdenlive:thumbs_format"/>
  <property name="kdenlive:audio_rec"/>
  <track hide="both" producer="playlist8"/>
  <track hide="both" producer="playlist9"/>
 </tractor>
 <producer id="producer11" in="00:00:00.000" out="00:00:04.958">
  <property name="length">00:00:05.000</property>
  <property name="eof">pause</property>
  <property name="resource">C:/dev/workspace/indy/dist/room/attic2/data/indy4-wide.png</property>
  <property name="ttl">25</property>
  <property name="aspect_ratio">1</property>
  <property name="meta.media.progressive">1</property>
  <property name="seekable">1</property>
  <property name="format">2</property>
  <property name="meta.media.width">5160</property>
  <property name="meta.media.height">2160</property>
  <property name="mlt_service">qimage</property>
  <property name="kdenlive:duration">00:00:05.000</property>
  <property name="xml">was here</property>
  <property name="kdenlive:folderid">-1</property>
  <property name="kdenlive:id">25</property>
  <property name="kdenlive:control_uuid">{4bd7d9fc-2a5f-469a-972a-d8438c0d4f43}</property>
  <property name="kdenlive:clip_type">2</property>
  <property name="kdenlive:file_size">9584524</property>
  <property name="kdenlive:file_hash">ca80b087fdcb0550b09480b08a4d9b85</property>
 </producer>
 <playlist id="playlist10">
  <blank length="00:00:28.000"/>
  <entry in="00:00:00.000" out="00:00:00.792" producer="producer11">
   <property name="kdenlive:id">25</property>
   <filter id="filter86" in="00:00:-0.042" out="00:00:00.792">
    <property name="start">1</property>
    <property name="level">1</property>
    <property name="mlt_service">brightness</property>
    <property name="kdenlive_id">fade_to_black</property>
    <property name="alpha">00:00:00.000=1;00:00:00.833=0</property>
    <property name="kdenlive:collapsed">0</property>
   </filter>
  </entry>
 </playlist>
 <playlist id="playlist11"/>
 <tractor id="tractor5" in="00:00:00.000" out="00:00:28.792">
  <property name="kdenlive:trackheight">67</property>
  <property name="kdenlive:timeline_active">1</property>
  <property name="kdenlive:collapsed">0</property>
  <property name="kdenlive:track_name">wide</property>
  <property name="kdenlive:thumbs_format"/>
  <property name="kdenlive:audio_rec"/>
  <track hide="both" producer="playlist10"/>
  <track hide="both" producer="playlist11"/>
 </tractor>
 <chain id="chain6" out="00:00:03.958">
  <property name="length">96</property>
  <property name="eof">pause</property>
  <property name="resource">C:/dev/workspace/indy/dist/room/attic2/content/upscale/attic.mp4</property>
  <property name="mlt_service">avformat-novalidate</property>
  <property name="seekable">1</property>
  <property name="audio_index">-1</property>
  <property name="video_index">0</property>
  <property name="vstream">0</property>
  <property name="kdenlive:control_uuid">{c6ca648c-b36c-4df3-a455-868b86751e55}</property>
  <property name="kdenlive:id">4</property>
  <property name="kdenlive:clip_type">2</property>
  <property name="kdenlive:file_size">18454242</property>
  <property name="kdenlive:file_hash">0a2baaaf5f3202bc5a502d0d33a88444</property>
  <property name="kdenlive:folderid">-1</property>
  <property name="meta.media.nb_streams">1</property>
  <property name="meta.media.0.stream.type">video</property>
  <property name="meta.media.0.stream.frame_rate">48</property>
  <property name="meta.media.0.stream.sample_aspect_ratio">0</property>
  <property name="meta.media.0.codec.width">3840</property>
  <property name="meta.media.0.codec.height">2160</property>
  <property name="meta.media.0.codec.rotate">0</property>
  <property name="meta.media.0.codec.pix_fmt">yuv444p</property>
  <property name="meta.media.0.codec.sample_aspect_ratio">0</property>
  <property name="meta.media.0.codec.colorspace">709</property>
  <property name="meta.media.0.codec.name">h264</property>
  <property name="meta.media.0.codec.long_name">H.264 / AVC / MPEG-4 AVC / MPEG-4 part 10</property>
  <property name="meta.media.0.codec.bit_rate">36902902</property>
  <property name="meta.attr.0.stream.handler_name.markup">VideoHandler</property>
  <property name="meta.attr.0.stream.vendor_id.markup">[0][0][0][0]</property>
  <property name="meta.attr.0.stream.encoder.markup">Lavc61.19.101 libx264</property>
  <property name="meta.attr.minor_version.markup">512</property>
  <property name="meta.attr.major_brand.markup">isom</property>
  <property name="meta.attr.compatible_brands.markup">isomiso2avc1mp41</property>
  <property name="meta.attr.encoder.markup">Lavf61.9.100</property>
  <property name="meta.media.sample_aspect_num">1</property>
  <property name="meta.media.sample_aspect_den">1</property>
  <property name="meta.media.frame_rate_num">48</property>
  <property name="meta.media.frame_rate_den">1</property>
  <property name="meta.media.colorspace">709</property>
  <property name="meta.media.color_trc">2</property>
  <property name="meta.media.has_b_frames">2</property>
  <property name="meta.media.width">3840</property>
  <property name="meta.media.height">2160</property>
  <property name="meta.media.aspect_ratio">1</property>
  <property name="meta.media.color_range">mpeg</property>
  <property name="xml">was here</property>
  <property name="mute_on_pause">0</property>
  <property name="meta.media.top_field_first">0</property>
  <property name="meta.media.progressive">1</property>
  <property name="set.test_audio">1</property>
  <property name="set.test_image">0</property>
 </chain>
 <producer id="producer12" in="00:00:00.000" out="00:00:03.958">
  <property name="length">96</property>
  <property name="eof">pause</property>
  <property name="resource">-1.000000:C:/dev/workspace/indy/dist/room/attic2/content/upscale/attic.mp4</property>
  <property name="aspect_ratio">1</property>
  <property name="meta.media.nb_streams">1</property>
  <property name="meta.media.0.stream.type">video</property>
  <property name="meta.media.0.stream.frame_rate">48</property>
  <property name="meta.media.0.stream.sample_aspect_ratio">0</property>
  <property name="meta.media.0.codec.width">3840</property>
  <property name="meta.media.0.codec.height">2160</property>
  <property name="meta.media.0.codec.rotate">0</property>
  <property name="meta.media.0.codec.pix_fmt">yuv444p</property>
  <property name="meta.media.0.codec.sample_aspect_ratio">0</property>
  <property name="meta.media.0.codec.colorspace">709</property>
  <property name="meta.media.0.codec.name">h264</property>
  <property name="meta.media.0.codec.long_name">H.264 / AVC / MPEG-4 AVC / MPEG-4 part 10</property>
  <property name="meta.media.0.codec.bit_rate">36902902</property>
  <property name="meta.attr.0.stream.handler_name.markup">VideoHandler</property>
  <property name="meta.attr.0.stream.vendor_id.markup">[0][0][0][0]</property>
  <property name="meta.attr.0.stream.encoder.markup">Lavc61.19.101 libx264</property>
  <property name="meta.attr.minor_version.markup">512</property>
  <property name="meta.attr.major_brand.markup">isom</property>
  <property name="meta.attr.compatible_brands.markup">isomiso2avc1mp41</property>
  <property name="meta.attr.encoder.markup">Lavf61.9.100</property>
  <property name="seekable">1</property>
  <property name="meta.media.sample_aspect_num">1</property>
  <property name="meta.media.sample_aspect_den">1</property>
  <property name="audio_index">-1</property>
  <property name="video_index">0</property>
  <property name="warp_speed">-1</property>
  <property name="warp_resource">C:/dev/workspace/indy/dist/room/attic2/content/upscale/attic.mp4</property>
  <property name="mlt_service">timewarp</property>
  <property name="kdenlive:control_uuid">{c6ca648c-b36c-4df3-a455-868b86751e55}</property>
  <property name="vstream">0</property>
  <property name="astream">-1</property>
  <property name="set.test_audio">1</property>
  <property name="set.test_image">0</property>
  <property name="kdenlive:id">4</property>
  <property name="warp_pitch">0</property>
 </producer>
 <chain id="chain7" out="00:00:03.958">
  <property name="length">96</property>
  <property name="eof">pause</property>
  <property name="resource">C:/dev/workspace/indy/dist/room/attic2/content/upscale/attic2.mp4</property>
  <property name="mlt_service">avformat-novalidate</property>
  <property name="seekable">1</property>
  <property name="audio_index">-1</property>
  <property name="video_index">0</property>
  <property name="vstream">0</property>
  <property name="kdenlive:control_uuid">{93a33964-a409-4271-9568-54c3491c755a}</property>
  <property name="kdenlive:id">5</property>
  <property name="kdenlive:clip_type">2</property>
  <property name="kdenlive:file_size">16726195</property>
  <property name="kdenlive:file_hash">79597f60ab1727e7fc495bff55ae20cc</property>
  <property name="kdenlive:folderid">-1</property>
  <property name="meta.media.nb_streams">1</property>
  <property name="meta.media.0.stream.type">video</property>
  <property name="meta.media.0.stream.frame_rate">48</property>
  <property name="meta.media.0.stream.sample_aspect_ratio">0</property>
  <property name="meta.media.0.codec.width">3840</property>
  <property name="meta.media.0.codec.height">2160</property>
  <property name="meta.media.0.codec.rotate">0</property>
  <property name="meta.media.0.codec.pix_fmt">yuv444p</property>
  <property name="meta.media.0.codec.sample_aspect_ratio">0</property>
  <property name="meta.media.0.codec.colorspace">709</property>
  <property name="meta.media.0.codec.name">h264</property>
  <property name="meta.media.0.codec.long_name">H.264 / AVC / MPEG-4 AVC / MPEG-4 part 10</property>
  <property name="meta.media.0.codec.bit_rate">33446944</property>
  <property name="meta.attr.0.stream.handler_name.markup">VideoHandler</property>
  <property name="meta.attr.0.stream.vendor_id.markup">[0][0][0][0]</property>
  <property name="meta.attr.0.stream.encoder.markup">Lavc61.19.101 libx264</property>
  <property name="meta.attr.minor_version.markup">512</property>
  <property name="meta.attr.major_brand.markup">isom</property>
  <property name="meta.attr.compatible_brands.markup">isomiso2avc1mp41</property>
  <property name="meta.attr.encoder.markup">Lavf61.9.100</property>
  <property name="meta.media.sample_aspect_num">1</property>
  <property name="meta.media.sample_aspect_den">1</property>
  <property name="meta.media.frame_rate_num">48</property>
  <property name="meta.media.frame_rate_den">1</property>
  <property name="meta.media.colorspace">709</property>
  <property name="meta.media.color_trc">2</property>
  <property name="meta.media.has_b_frames">2</property>
  <property name="meta.media.width">3840</property>
  <property name="meta.media.height">2160</property>
  <property name="meta.media.aspect_ratio">1</property>
  <property name="meta.media.color_range">mpeg</property>
  <property name="xml">was here</property>
  <property name="mute_on_pause">0</property>
  <property name="meta.media.top_field_first">0</property>
  <property name="meta.media.progressive">1</property>
  <property name="set.test_audio">1</property>
  <property name="set.test_image">0</property>
 </chain>
 <producer id="producer13" in="00:00:00.000" out="00:00:03.958">
  <property name="length">96</property>
  <property name="eof">pause</property>
  <property name="resource">-1.000000:C:/dev/workspace/indy/dist/room/attic2/content/upscale/attic2.mp4</property>
  <property name="aspect_ratio">1</property>
  <property name="meta.media.nb_streams">1</property>
  <property name="meta.media.0.stream.type">video</property>
  <property name="meta.media.0.stream.frame_rate">48</property>
  <property name="meta.media.0.stream.sample_aspect_ratio">0</property>
  <property name="meta.media.0.codec.width">3840</property>
  <property name="meta.media.0.codec.height">2160</property>
  <property name="meta.media.0.codec.rotate">0</property>
  <property name="meta.media.0.codec.pix_fmt">yuv444p</property>
  <property name="meta.media.0.codec.sample_aspect_ratio">0</property>
  <property name="meta.media.0.codec.colorspace">709</property>
  <property name="meta.media.0.codec.name">h264</property>
  <property name="meta.media.0.codec.long_name">H.264 / AVC / MPEG-4 AVC / MPEG-4 part 10</property>
  <property name="meta.media.0.codec.bit_rate">33446944</property>
  <property name="meta.attr.0.stream.handler_name.markup">VideoHandler</property>
  <property name="meta.attr.0.stream.vendor_id.markup">[0][0][0][0]</property>
  <property name="meta.attr.0.stream.encoder.markup">Lavc61.19.101 libx264</property>
  <property name="meta.attr.minor_version.markup">512</property>
  <property name="meta.attr.major_brand.markup">isom</property>
  <property name="meta.attr.compatible_brands.markup">isomiso2avc1mp41</property>
  <property name="meta.attr.encoder.markup">Lavf61.9.100</property>
  <property name="seekable">1</property>
  <property name="meta.media.sample_aspect_num">1</property>
  <property name="meta.media.sample_aspect_den">1</property>
  <property name="audio_index">-1</property>
  <property name="video_index">0</property>
  <property name="warp_speed">-1</property>
  <property name="warp_resource">C:/dev/workspace/indy/dist/room/attic2/content/upscale/attic2.mp4</property>
  <property name="mlt_service">timewarp</property>
  <property name="kdenlive:control_uuid">{93a33964-a409-4271-9568-54c3491c755a}</property>
  <property name="vstream">0</property>
  <property name="astream">-1</property>
  <property name="set.test_audio">1</property>
  <property name="set.test_image">0</property>
  <property name="kdenlive:id">5</property>
  <property name="warp_pitch">0</property>
 </producer>
 <producer id="producer14" in="00:00:00.000" out="00:00:03.958">
  <property name="length">96</property>
  <property name="eof">pause</property>
  <property name="resource">1.162500:C:/dev/workspace/indy/dist/room/attic2/content/upscale/indy4.mp4</property>
  <property name="aspect_ratio">1</property>
  <property name="meta.media.nb_streams">1</property>
  <property name="meta.media.0.stream.type">video</property>
  <property name="meta.media.0.stream.frame_rate">60</property>
  <property name="meta.media.0.stream.sample_aspect_ratio">0</property>
  <property name="meta.media.0.codec.width">3840</property>
  <property name="meta.media.0.codec.height">2160</property>
  <property name="meta.media.0.codec.rotate">0</property>
  <property name="meta.media.0.codec.pix_fmt">yuv444p</property>
  <property name="meta.media.0.codec.sample_aspect_ratio">0</property>
  <property name="meta.media.0.codec.colorspace">709</property>
  <property name="meta.media.0.codec.name">h264</property>
  <property name="meta.media.0.codec.long_name">H.264 / AVC / MPEG-4 AVC / MPEG-4 part 10</property>
  <property name="meta.media.0.codec.bit_rate">41686573</property>
  <property name="meta.attr.0.stream.handler_name.markup">VideoHandler</property>
  <property name="meta.attr.0.stream.vendor_id.markup">[0][0][0][0]</property>
  <property name="meta.attr.0.stream.encoder.markup">Lavc61.19.101 libx264</property>
  <property name="meta.attr.minor_version.markup">512</property>
  <property name="meta.attr.major_brand.markup">isom</property>
  <property name="meta.attr.compatible_brands.markup">isomiso2avc1mp41</property>
  <property name="meta.attr.encoder.markup">Lavf61.9.100</property>
  <property name="seekable">1</property>
  <property name="meta.media.sample_aspect_num">1</property>
  <property name="meta.media.sample_aspect_den">1</property>
  <property name="audio_index">-1</property>
  <property name="video_index">0</property>
  <property name="warp_speed">1.1625</property>
  <property name="warp_resource">C:/dev/workspace/indy/dist/room/attic2/content/upscale/indy4.mp4</property>
  <property name="mlt_service">timewarp</property>
  <property name="kdenlive:control_uuid">{8b1621ca-8633-4196-b981-2cd151857227}</property>
  <property name="kdenlive:proxy">-</property>
  <property name="kdenlive:originalurl">C:/dev/workspace/indy/dist/room/attic2/content/upscale/indy4.mp4</property>
  <property name="vstream">0</property>
  <property name="astream">-1</property>
  <property name="set.test_audio">1</property>
  <property name="set.test_image">0</property>
  <property name="kdenlive:id">11</property>
  <property name="warp_pitch">0</property>
 </producer>
 <chain id="chain8" out="00:00:03.958">
  <property name="length">96</property>
  <property name="eof">pause</property>
  <property name="resource">C:/dev/workspace/indy/dist/room/attic2/content/upscale/book2.mp4</property>
  <property name="mlt_service">avformat-novalidate</property>
  <property name="seekable">1</property>
  <property name="audio_index">-1</property>
  <property name="video_index">0</property>
  <property name="vstream">0</property>
  <property name="kdenlive:control_uuid">{e5367c92-ea71-4e44-91e0-29e53c1edd7b}</property>
  <property name="kdenlive:proxy">-</property>
  <property name="kdenlive:originalurl">C:/dev/workspace/indy/dist/room/attic2/content/upscale/book2.mp4</property>
  <property name="kdenlive:id">13</property>
  <property name="kdenlive:clip_type">2</property>
  <property name="kdenlive:file_size">12637497</property>
  <property name="kdenlive:file_hash">5cc3c3c47acebd916f4b937b296f9de0</property>
  <property name="kdenlive:folderid">-1</property>
  <property name="meta.media.nb_streams">1</property>
  <property name="meta.media.0.stream.type">video</property>
  <property name="meta.media.0.stream.frame_rate">48</property>
  <property name="meta.media.0.stream.sample_aspect_ratio">0</property>
  <property name="meta.media.0.codec.width">3840</property>
  <property name="meta.media.0.codec.height">2160</property>
  <property name="meta.media.0.codec.rotate">0</property>
  <property name="meta.media.0.codec.pix_fmt">yuv444p</property>
  <property name="meta.media.0.codec.sample_aspect_ratio">0</property>
  <property name="meta.media.0.codec.colorspace">709</property>
  <property name="meta.media.0.codec.name">h264</property>
  <property name="meta.media.0.codec.long_name">H.264 / AVC / MPEG-4 AVC / MPEG-4 part 10</property>
  <property name="meta.media.0.codec.bit_rate">25269500</property>
  <property name="meta.attr.0.stream.handler_name.markup">VideoHandler</property>
  <property name="meta.attr.0.stream.vendor_id.markup">[0][0][0][0]</property>
  <property name="meta.attr.0.stream.encoder.markup">Lavc61.19.101 libx264</property>
  <property name="meta.attr.minor_version.markup">512</property>
  <property name="meta.attr.major_brand.markup">isom</property>
  <property name="meta.attr.compatible_brands.markup">isomiso2avc1mp41</property>
  <property name="meta.attr.encoder.markup">Lavf61.9.100</property>
  <property name="meta.media.sample_aspect_num">1</property>
  <property name="meta.media.sample_aspect_den">1</property>
  <property name="meta.media.frame_rate_num">48</property>
  <property name="meta.media.frame_rate_den">1</property>
  <property name="meta.media.colorspace">709</property>
  <property name="meta.media.color_trc">2</property>
  <property name="meta.media.has_b_frames">2</property>
  <property name="meta.media.width">3840</property>
  <property name="meta.media.height">2160</property>
  <property name="meta.media.aspect_ratio">1</property>
  <property name="meta.media.color_range">mpeg</property>
  <property name="xml">was here</property>
  <property name="mute_on_pause">0</property>
  <property name="meta.media.top_field_first">0</property>
  <property name="meta.media.progressive">1</property>
  <property name="set.test_audio">1</property>
  <property name="set.test_image">0</property>
 </chain>
 <producer id="producer15" in="00:00:00.000" out="00:00:03.958">
  <property name="length">96</property>
  <property name="eof">pause</property>
  <property name="resource">-1.000000:C:/dev/workspace/indy/dist/room/attic2/content/upscale/book2.mp4</property>
  <property name="aspect_ratio">1</property>
  <property name="meta.media.nb_streams">1</property>
  <property name="meta.media.0.stream.type">video</property>
  <property name="meta.media.0.stream.frame_rate">48</property>
  <property name="meta.media.0.stream.sample_aspect_ratio">0</property>
  <property name="meta.media.0.codec.width">3840</property>
  <property name="meta.media.0.codec.height">2160</property>
  <property name="meta.media.0.codec.rotate">0</property>
  <property name="meta.media.0.codec.pix_fmt">yuv444p</property>
  <property name="meta.media.0.codec.sample_aspect_ratio">0</property>
  <property name="meta.media.0.codec.colorspace">709</property>
  <property name="meta.media.0.codec.name">h264</property>
  <property name="meta.media.0.codec.long_name">H.264 / AVC / MPEG-4 AVC / MPEG-4 part 10</property>
  <property name="meta.media.0.codec.bit_rate">25269500</property>
  <property name="meta.attr.0.stream.handler_name.markup">VideoHandler</property>
  <property name="meta.attr.0.stream.vendor_id.markup">[0][0][0][0]</property>
  <property name="meta.attr.0.stream.encoder.markup">Lavc61.19.101 libx264</property>
  <property name="meta.attr.minor_version.markup">512</property>
  <property name="meta.attr.major_brand.markup">isom</property>
  <property name="meta.attr.compatible_brands.markup">isomiso2avc1mp41</property>
  <property name="meta.attr.encoder.markup">Lavf61.9.100</property>
  <property name="seekable">1</property>
  <property name="meta.media.sample_aspect_num">1</property>
  <property name="meta.media.sample_aspect_den">1</property>
  <property name="audio_index">-1</property>
  <property name="video_index">0</property>
  <property name="warp_speed">-1</property>
  <property name="warp_resource">C:/dev/workspace/indy/dist/room/attic2/content/upscale/book2.mp4</property>
  <property name="mlt_service">timewarp</property>
  <property name="kdenlive:control_uuid">{e5367c92-ea71-4e44-91e0-29e53c1edd7b}</property>
  <property name="kdenlive:proxy">-</property>
  <property name="kdenlive:originalurl">C:/dev/workspace/indy/dist/room/attic2/content/upscale/book2.mp4</property>
  <property name="vstream">0</property>
  <property name="astream">-1</property>
  <property name="set.test_audio">1</property>
  <property name="set.test_image">0</property>
  <property name="kdenlive:id">13</property>
  <property name="warp_pitch">0</property>
 </producer>
 <chain id="chain9" out="00:00:03.958">
  <property name="length">96</property>
  <property name="eof">pause</property>
  <property name="resource">C:/dev/workspace/indy/dist/room/attic2/content/upscale/book.mp4</property>
  <property name="mlt_service">avformat-novalidate</property>
  <property name="seekable">1</property>
  <property name="audio_index">-1</property>
  <property name="video_index">0</property>
  <property name="vstream">0</property>
  <property name="kdenlive:control_uuid">{b7153cc4-3a42-4e1c-a615-c82c4d12f3ab}</property>
  <property name="kdenlive:proxy">-</property>
  <property name="kdenlive:originalurl">C:/dev/workspace/indy/dist/room/attic2/content/upscale/book.mp4</property>
  <property name="kdenlive:id">12</property>
  <property name="kdenlive:clip_type">2</property>
  <property name="kdenlive:file_size">13197201</property>
  <property name="kdenlive:file_hash">aa793cb632706de68e382c43b9a36d22</property>
  <property name="kdenlive:folderid">-1</property>
  <property name="meta.media.nb_streams">1</property>
  <property name="meta.media.0.stream.type">video</property>
  <property name="meta.media.0.stream.frame_rate">48</property>
  <property name="meta.media.0.stream.sample_aspect_ratio">0</property>
  <property name="meta.media.0.codec.width">3840</property>
  <property name="meta.media.0.codec.height">2160</property>
  <property name="meta.media.0.codec.rotate">0</property>
  <property name="meta.media.0.codec.pix_fmt">yuv444p</property>
  <property name="meta.media.0.codec.sample_aspect_ratio">0</property>
  <property name="meta.media.0.codec.colorspace">709</property>
  <property name="meta.media.0.codec.name">h264</property>
  <property name="meta.media.0.codec.long_name">H.264 / AVC / MPEG-4 AVC / MPEG-4 part 10</property>
  <property name="meta.media.0.codec.bit_rate">26388676</property>
  <property name="meta.attr.0.stream.handler_name.markup">VideoHandler</property>
  <property name="meta.attr.0.stream.vendor_id.markup">[0][0][0][0]</property>
  <property name="meta.attr.0.stream.encoder.markup">Lavc61.19.101 libx264</property>
  <property name="meta.attr.minor_version.markup">512</property>
  <property name="meta.attr.major_brand.markup">isom</property>
  <property name="meta.attr.compatible_brands.markup">isomiso2avc1mp41</property>
  <property name="meta.attr.encoder.markup">Lavf61.9.100</property>
  <property name="meta.media.sample_aspect_num">1</property>
  <property name="meta.media.sample_aspect_den">1</property>
  <property name="meta.media.frame_rate_num">48</property>
  <property name="meta.media.frame_rate_den">1</property>
  <property name="meta.media.colorspace">709</property>
  <property name="meta.media.color_trc">2</property>
  <property name="meta.media.has_b_frames">2</property>
  <property name="meta.media.width">3840</property>
  <property name="meta.media.height">2160</property>
  <property name="meta.media.aspect_ratio">1</property>
  <property name="meta.media.color_range">mpeg</property>
  <property name="xml">was here</property>
  <property name="mute_on_pause">0</property>
  <property name="meta.media.top_field_first">0</property>
  <property name="meta.media.progressive">1</property>
  <property name="set.test_audio">1</property>
  <property name="set.test_image">0</property>
 </chain>
 <producer id="producer16" in="00:00:00.000" out="00:00:03.958">
  <property name="length">96</property>
  <property name="eof">pause</property>
  <property name="resource">-1.000000:C:/dev/workspace/indy/dist/room/attic2/content/upscale/book.mp4</property>
  <property name="aspect_ratio">1</property>
  <property name="meta.media.nb_streams">1</property>
  <property name="meta.media.0.stream.type">video</property>
  <property name="meta.media.0.stream.frame_rate">48</property>
  <property name="meta.media.0.stream.sample_aspect_ratio">0</property>
  <property name="meta.media.0.codec.width">3840</property>
  <property name="meta.media.0.codec.height">2160</property>
  <property name="meta.media.0.codec.rotate">0</property>
  <property name="meta.media.0.codec.pix_fmt">yuv444p</property>
  <property name="meta.media.0.codec.sample_aspect_ratio">0</property>
  <property name="meta.media.0.codec.colorspace">709</property>
  <property name="meta.media.0.codec.name">h264</property>
  <property name="meta.media.0.codec.long_name">H.264 / AVC / MPEG-4 AVC / MPEG-4 part 10</property>
  <property name="meta.media.0.codec.bit_rate">26388676</property>
  <property name="meta.attr.0.stream.handler_name.markup">VideoHandler</property>
  <property name="meta.attr.0.stream.vendor_id.markup">[0][0][0][0]</property>
  <property name="meta.attr.0.stream.encoder.markup">Lavc61.19.101 libx264</property>
  <property name="meta.attr.minor_version.markup">512</property>
  <property name="meta.attr.major_brand.markup">isom</property>
  <property name="meta.attr.compatible_brands.markup">isomiso2avc1mp41</property>
  <property name="meta.attr.encoder.markup">Lavf61.9.100</property>
  <property name="seekable">1</property>
  <property name="meta.media.sample_aspect_num">1</property>
  <property name="meta.media.sample_aspect_den">1</property>
  <property name="audio_index">-1</property>
  <property name="video_index">0</property>
  <property name="warp_speed">-1</property>
  <property name="warp_resource">C:/dev/workspace/indy/dist/room/attic2/content/upscale/book.mp4</property>
  <property name="mlt_service">timewarp</property>
  <property name="kdenlive:control_uuid">{b7153cc4-3a42-4e1c-a615-c82c4d12f3ab}</property>
  <property name="kdenlive:proxy">-</property>
  <property name="kdenlive:originalurl">C:/dev/workspace/indy/dist/room/attic2/content/upscale/book.mp4</property>
  <property name="vstream">0</property>
  <property name="astream">-1</property>
  <property name="set.test_audio">1</property>
  <property name="set.test_image">0</property>
  <property name="kdenlive:id">12</property>
  <property name="warp_pitch">0</property>
 </producer>
 <playlist id="playlist12">
  <blank length="00:00:08.000"/>
  <entry in="00:00:00.000" out="00:00:03.958" producer="chain6">
   <property name="kdenlive:id">4</property>
  </entry>
  <entry in="00:00:00.000" out="00:00:03.958" producer="producer12">
   <property name="kdenlive:id">4</property>
  </entry>
  <entry in="00:00:00.000" out="00:00:03.958" producer="chain7">
   <property name="kdenlive:id">5</property>
  </entry>
  <entry in="00:00:00.000" out="00:00:03.958" producer="producer13">
   <property name="kdenlive:id">5</property>
  </entry>
  <entry in="00:00:00.000" out="00:00:03.958" producer="producer14">
   <property name="kdenlive:id">11</property>
   <filter id="filter87">
    <property name="version">0.2</property>
    <property name="mlt_service">frei0r.contrast0r</property>
    <property name="kdenlive_id">frei0r.contrast0r</property>
    <property name="Contrast">00:00:00.000=0.52</property>
    <property name="kdenlive:collapsed">0</property>
    <property name="disable">1</property>
   </filter>
  </entry>
  <entry in="00:00:00.000" out="00:00:03.958" producer="chain8">
   <property name="kdenlive:id">13</property>
  </entry>
  <entry in="00:00:00.000" out="00:00:03.958" producer="producer15">
   <property name="kdenlive:id">13</property>
  </entry>
  <entry in="00:00:00.000" out="00:00:03.958" producer="chain9">
   <property name="kdenlive:id">12</property>
  </entry>
  <entry in="00:00:00.000" out="00:00:03.958" producer="producer16">
   <property name="kdenlive:id">12</property>
  </entry>
 </playlist>
 <playlist id="playlist13"/>
 <tractor id="tractor6" in="00:00:00.000" out="00:00:43.958">
  <property name="kdenlive:trackheight">67</property>
  <property name="kdenlive:timeline_active">1</property>
  <property name="kdenlive:collapsed">0</property>
  <property name="kdenlive:thumbs_format"/>
  <property name="kdenlive:audio_rec"/>
  <track hide="audio" producer="playlist12"/>
  <track hide="audio" producer="playlist13"/>
 </tractor>
 <chain id="chain10" out="00:00:05.042">
  <property name="length">122</property>
  <property name="eof">pause</property>
  <property name="resource">C:/dev/workspace/indy/dist/room/attic2/content/upscale/indy.mp4</property>
  <property name="mlt_service">avformat-novalidate</property>
  <property name="seekable">1</property>
  <property name="audio_index">-1</property>
  <property name="video_index">0</property>
  <property name="vstream">0</property>
  <property name="kdenlive:control_uuid">{3e68eeae-8bfb-420b-bbf3-2a39b8083e25}</property>
  <property name="kdenlive:id">7</property>
  <property name="kdenlive:clip_type">2</property>
  <property name="kdenlive:file_size">15361542</property>
  <property name="kdenlive:file_hash">56ca686ab9ca25016bdd3a6b935f41b0</property>
  <property name="kdenlive:folderid">-1</property>
  <property name="meta.media.nb_streams">1</property>
  <property name="meta.media.0.stream.type">video</property>
  <property name="meta.media.0.stream.frame_rate">60</property>
  <property name="meta.media.0.stream.sample_aspect_ratio">0</property>
  <property name="meta.media.0.codec.width">3840</property>
  <property name="meta.media.0.codec.height">2160</property>
  <property name="meta.media.0.codec.rotate">0</property>
  <property name="meta.media.0.codec.pix_fmt">yuv444p</property>
  <property name="meta.media.0.codec.sample_aspect_ratio">0</property>
  <property name="meta.media.0.codec.colorspace">709</property>
  <property name="meta.media.0.codec.name">h264</property>
  <property name="meta.media.0.codec.long_name">H.264 / AVC / MPEG-4 AVC / MPEG-4 part 10</property>
  <property name="meta.media.0.codec.bit_rate">24088795</property>
  <property name="meta.attr.0.stream.handler_name.markup">VideoHandler</property>
  <property name="meta.attr.0.stream.vendor_id.markup">[0][0][0][0]</property>
  <property name="meta.attr.0.stream.encoder.markup">Lavc61.19.101 libx264</property>
  <property name="meta.attr.minor_version.markup">512</property>
  <property name="meta.attr.major_brand.markup">isom</property>
  <property name="meta.attr.compatible_brands.markup">isomiso2avc1mp41</property>
  <property name="meta.attr.encoder.markup">Lavf61.9.100</property>
  <property name="meta.media.sample_aspect_num">1</property>
  <property name="meta.media.sample_aspect_den">1</property>
  <property name="meta.media.frame_rate_num">60</property>
  <property name="meta.media.frame_rate_den">1</property>
  <property name="meta.media.colorspace">709</property>
  <property name="meta.media.color_trc">2</property>
  <property name="meta.media.has_b_frames">2</property>
  <property name="meta.media.width">3840</property>
  <property name="meta.media.height">2160</property>
  <property name="meta.media.aspect_ratio">1</property>
  <property name="meta.media.color_range">mpeg</property>
  <property name="xml">was here</property>
  <property name="mute_on_pause">0</property>
  <property name="meta.media.top_field_first">0</property>
  <property name="meta.media.progressive">1</property>
  <property name="set.test_audio">1</property>
  <property name="set.test_image">0</property>
 </chain>
 <chain id="chain11" out="00:00:04.625">
  <property name="length">112</property>
  <property name="eof">pause</property>
  <property name="resource">C:/dev/workspace/indy/dist/room/attic2/content/upscale/indy2.mp4</property>
  <property name="mlt_service">avformat-novalidate</property>
  <property name="seekable">1</property>
  <property name="audio_index">-1</property>
  <property name="video_index">0</property>
  <property name="vstream">0</property>
  <property name="kdenlive:control_uuid">{d5906bfb-21b2-4903-afc7-4ac06972bd61}</property>
  <property name="kdenlive:proxy">-</property>
  <property name="kdenlive:originalurl">C:/dev/workspace/indy/dist/room/attic2/content/upscale/indy2.mp4</property>
  <property name="kdenlive:id">9</property>
  <property name="kdenlive:clip_type">2</property>
  <property name="kdenlive:file_size">17907369</property>
  <property name="kdenlive:file_hash">d7f3b456e912767e38486c5f46a9273f</property>
  <property name="kdenlive:folderid">-1</property>
  <property name="meta.media.nb_streams">1</property>
  <property name="meta.media.0.stream.type">video</property>
  <property name="meta.media.0.stream.frame_rate">60</property>
  <property name="meta.media.0.stream.sample_aspect_ratio">0</property>
  <property name="meta.media.0.codec.width">3840</property>
  <property name="meta.media.0.codec.height">2160</property>
  <property name="meta.media.0.codec.rotate">0</property>
  <property name="meta.media.0.codec.pix_fmt">yuv444p</property>
  <property name="meta.media.0.codec.sample_aspect_ratio">0</property>
  <property name="meta.media.0.codec.colorspace">709</property>
  <property name="meta.media.0.codec.name">h264</property>
  <property name="meta.media.0.codec.long_name">H.264 / AVC / MPEG-4 AVC / MPEG-4 part 10</property>
  <property name="meta.media.0.codec.bit_rate">30690421</property>
  <property name="meta.attr.0.stream.handler_name.markup">VideoHandler</property>
  <property name="meta.attr.0.stream.vendor_id.markup">[0][0][0][0]</property>
  <property name="meta.attr.0.stream.encoder.markup">Lavc61.19.101 libx264</property>
  <property name="meta.attr.minor_version.markup">512</property>
  <property name="meta.attr.major_brand.markup">isom</property>
  <property name="meta.attr.compatible_brands.markup">isomiso2avc1mp41</property>
  <property name="meta.attr.encoder.markup">Lavf61.9.100</property>
  <property name="meta.media.sample_aspect_num">1</property>
  <property name="meta.media.sample_aspect_den">1</property>
  <property name="meta.media.frame_rate_num">60</property>
  <property name="meta.media.frame_rate_den">1</property>
  <property name="meta.media.colorspace">709</property>
  <property name="meta.media.color_trc">2</property>
  <property name="meta.media.has_b_frames">2</property>
  <property name="meta.media.width">3840</property>
  <property name="meta.media.height">2160</property>
  <property name="meta.media.aspect_ratio">1</property>
  <property name="meta.media.color_range">mpeg</property>
  <property name="xml">was here</property>
  <property name="mute_on_pause">0</property>
  <property name="meta.media.top_field_first">0</property>
  <property name="meta.media.progressive">1</property>
  <property name="set.test_audio">1</property>
  <property name="set.test_image">0</property>
 </chain>
 <producer id="producer17" in="00:00:00.000" out="00:00:20.208">
  <property name="length">00:00:20.250</property>
  <property name="eof">pause</property>
  <property name="resource">C:/dev/workspace/indy/dist/room/attic2/content/tag.png</property>
  <property name="ttl">25</property>
  <property name="aspect_ratio">1</property>
  <property name="meta.media.progressive">1</property>
  <property name="seekable">1</property>
  <property name="format">2</property>
  <property name="meta.media.width">3840</property>
  <property name="meta.media.height">2160</property>
  <property name="mlt_service">qimage</property>
  <property name="kdenlive:clipname"/>
  <property name="kdenlive:duration">00:00:05.000</property>
  <property name="xml">was here</property>
  <property name="kdenlive:folderid">-1</property>
  <property name="kdenlive:id">14</property>
  <property name="kdenlive:clip_type">2</property>
  <property name="kdenlive:file_size">259292</property>
  <property name="kdenlive:file_hash">182adfed85d0771b1d1ce2a274946ca8</property>
  <property name="kdenlive:control_uuid">{4b9305bc-03f3-433f-a0f5-36d6c873d639}</property>
 </producer>
 <producer id="producer18" in="00:00:00.000" out="00:00:16.542">
  <property name="length">00:00:16.583</property>
  <property name="eof">pause</property>
  <property name="resource">C:/dev/workspace/indy/dist/room/attic2/content/tag2.png</property>
  <property name="ttl">25</property>
  <property name="aspect_ratio">1</property>
  <property name="meta.media.progressive">1</property>
  <property name="seekable">1</property>
  <property name="format">2</property>
  <property name="meta.media.width">3840</property>
  <property name="meta.media.height">2160</property>
  <property name="mlt_service">qimage</property>
  <property name="kdenlive:clipname"/>
  <property name="kdenlive:duration">00:00:05.000</property>
  <property name="xml">was here</property>
  <property name="kdenlive:folderid">-1</property>
  <property name="kdenlive:id">15</property>
  <property name="kdenlive:clip_type">2</property>
  <property name="kdenlive:file_size">313513</property>
  <property name="kdenlive:file_hash">3b4b8af50b7f2ea8e46f39ce9cdffb84</property>
  <property name="kdenlive:control_uuid">{8f8f2edd-88ed-4aa6-8c70-6bbce53fef60}</property>
 </producer>
 <playlist id="playlist14">
  <entry in="00:00:00.000" out="00:00:04.958" producer="chain10">
   <property name="kdenlive:id">7</property>
   <filter id="filter88">
    <property name="version">0.2</property>
    <property name="mlt_service">frei0r.coloradj_RGB</property>
    <property name="kdenlive_id">frei0r.coloradj_RGB</property>
    <property name="R">00:00:00.000=0.4</property>
    <property name="G">00:00:00.000=0.6</property>
    <property name="B">00:00:00.000=0.6</property>
    <property name="Action">0.5</property>
    <property name="Keep luma">1</property>
    <property name="Alpha controlled">0</property>
    <property name="Luma formula">1</property>
    <property name="kdenlive:collapsed">1</property>
    <property name="disable">0</property>
   </filter>
   <filter id="filter89">
    <property name="version">0.2</property>
    <property name="mlt_service">frei0r.contrast0r</property>
    <property name="kdenlive_id">frei0r.contrast0r</property>
    <property name="Contrast">00:00:00.000=0.48</property>
    <property name="kdenlive:collapsed">0</property>
    <property name="disable">1</property>
    <property name="kdenlive:kfrhidden">0</property>
   </filter>
   <filter id="filter90">
    <property name="rotate_center">1</property>
    <property name="mlt_service">qtblend</property>
    <property name="kdenlive_id">qtblend</property>
    <property name="rect">00:00:00.000=545 -64 4070 2289 1.000000</property>
    <property name="rotation">00:00:00.000=0</property>
    <property name="compositing">0</property>
    <property name="distort">0</property>
    <property name="kdenlive:collapsed">0</property>
   </filter>
  </entry>
  <entry in="00:00:01.667" out="00:00:04.625" producer="chain11">
   <property name="kdenlive:id">9</property>
   <filter id="filter91">
    <property name="version">0.2</property>
    <property name="mlt_service">frei0r.contrast0r</property>
    <property name="kdenlive_id">frei0r.contrast0r</property>
    <property name="Contrast">00:00:01.667=0.52</property>
    <property name="kdenlive:collapsed">0</property>
    <property name="disable">1</property>
   </filter>
  </entry>
  <entry in="00:00:00.000" out="00:00:15.958" producer="producer17">
   <property name="kdenlive:id">14</property>
   <filter id="filter92" out="00:00:00.833">
    <property name="start">1</property>
    <property name="level">1</property>
    <property name="mlt_service">brightness</property>
    <property name="kdenlive_id">fade_from_black</property>
    <property name="alpha">00:00:00.000=0;00:00:00.833=1</property>
   </filter>
  </entry>
  <blank length="00:00:04.000"/>
  <entry in="00:00:00.000" out="00:00:15.958" producer="producer18">
   <property name="kdenlive:id">15</property>
   <filter id="filter93" out="00:00:00.833">
    <property name="start">1</property>
    <property name="level">1</property>
    <property name="mlt_service">brightness</property>
    <property name="kdenlive_id">fade_from_black</property>
    <property name="alpha">00:00:00.000=0;00:00:00.833=1</property>
    <property name="kdenlive:collapsed">0</property>
   </filter>
  </entry>
 </playlist>
 <playlist id="playlist15"/>
 <tractor id="tractor7" in="00:00:00.000" out="00:00:43.958">
  <property name="kdenlive:trackheight">67</property>
  <property name="kdenlive:timeline_active">1</property>
  <property name="kdenlive:collapsed">0</property>
  <property name="kdenlive:thumbs_format"/>
  <property name="kdenlive:audio_rec"/>
  <track hide="audio" producer="playlist14"/>
  <track hide="audio" producer="playlist15"/>
 </tractor>
 <producer id="producer19" in="00:00:00.000" out="00:00:04.958">
  <property name="length">00:00:05.000</property>
  <property name="eof">pause</property>
  <property name="resource">C:/dev/workspace/indy/dist/room/attic2/data/indy2-wide.png</property>
  <property name="ttl">25</property>
  <property name="aspect_ratio">1</property>
  <property name="meta.media.progressive">1</property>
  <property name="seekable">1</property>
  <property name="format">2</property>
  <property name="meta.media.width">5160</property>
  <property name="meta.media.height">2160</property>
  <property name="mlt_service">qimage</property>
  <property name="kdenlive:duration">00:00:05.000</property>
  <property name="xml">was here</property>
  <property name="kdenlive:folderid">-1</property>
  <property name="kdenlive:id">24</property>
  <property name="kdenlive:control_uuid">{0f27442f-5547-4314-9dd9-d5c027df24ab}</property>
  <property name="kdenlive:clip_type">2</property>
  <property name="kdenlive:file_size">8537585</property>
  <property name="kdenlive:file_hash">59212a4f14e8af0a105020fbb4a21007</property>
  <property name="kdenlive:monitorPosition">18</property>
 </producer>
 <playlist id="playlist16">
  <blank length="00:00:07.958"/>
  <entry in="00:00:00.000" out="00:00:00.417" producer="producer19">
   <property name="kdenlive:id">24</property>
   <filter id="filter85" out="00:00:00.417">
    <property name="start">1</property>
    <property name="level">1</property>
    <property name="mlt_service">brightness</property>
    <property name="kdenlive_id">fade_to_black</property>
    <property name="alpha">00:00:00.000=1;00:00:00.417=0</property>
    <property name="kdenlive:collapsed">0</property>
   </filter>
  </entry>
 </playlist>
 <playlist id="playlist17"/>
 <tractor id="tractor8" in="00:00:00.000" out="00:00:08.375">
  <property name="kdenlive:trackheight">67</property>
  <property name="kdenlive:timeline_active">1</property>
  <property name="kdenlive:collapsed">0</property>
  <property name="kdenlive:track_name">wide</property>
  <property name="kdenlive:thumbs_format"/>
  <property name="kdenlive:audio_rec"/>
  <track hide="both" producer="playlist16"/>
  <track hide="both" producer="playlist17"/>
 </tractor>
 <chain id="chain12" out="00:00:05.042">
  <property name="length">122</property>
  <property name="eof">pause</property>
  <property name="resource">C:/dev/workspace/indy/dist/room/attic2/content/upscale/indy.mp4</property>
  <property name="mlt_service">avformat-novalidate</property>
  <property name="seekable">1</property>
  <property name="audio_index">-1</property>
  <property name="video_index">0</property>
  <property name="vstream">0</property>
  <property name="kdenlive:control_uuid">{3e68eeae-8bfb-420b-bbf3-2a39b8083e25}</property>
  <property name="kdenlive:id">7</property>
  <property name="kdenlive:clip_type">2</property>
  <property name="kdenlive:file_size">15361542</property>
  <property name="kdenlive:file_hash">56ca686ab9ca25016bdd3a6b935f41b0</property>
  <property name="kdenlive:folderid">-1</property>
  <property name="meta.media.nb_streams">1</property>
  <property name="meta.media.0.stream.type">video</property>
  <property name="meta.media.0.stream.frame_rate">60</property>
  <property name="meta.media.0.stream.sample_aspect_ratio">0</property>
  <property name="meta.media.0.codec.width">3840</property>
  <property name="meta.media.0.codec.height">2160</property>
  <property name="meta.media.0.codec.rotate">0</property>
  <property name="meta.media.0.codec.pix_fmt">yuv444p</property>
  <property name="meta.media.0.codec.sample_aspect_ratio">0</property>
  <property name="meta.media.0.codec.colorspace">709</property>
  <property name="meta.media.0.codec.name">h264</property>
  <property name="meta.media.0.codec.long_name">H.264 / AVC / MPEG-4 AVC / MPEG-4 part 10</property>
  <property name="meta.media.0.codec.bit_rate">24088795</property>
  <property name="meta.attr.0.stream.handler_name.markup">VideoHandler</property>
  <property name="meta.attr.0.stream.vendor_id.markup">[0][0][0][0]</property>
  <property name="meta.attr.0.stream.encoder.markup">Lavc61.19.101 libx264</property>
  <property name="meta.attr.minor_version.markup">512</property>
  <property name="meta.attr.major_brand.markup">isom</property>
  <property name="meta.attr.compatible_brands.markup">isomiso2avc1mp41</property>
  <property name="meta.attr.encoder.markup">Lavf61.9.100</property>
  <property name="meta.media.sample_aspect_num">1</property>
  <property name="meta.media.sample_aspect_den">1</property>
  <property name="meta.media.frame_rate_num">60</property>
  <property name="meta.media.frame_rate_den">1</property>
  <property name="meta.media.colorspace">709</property>
  <property name="meta.media.color_trc">2</property>
  <property name="meta.media.has_b_frames">2</property>
  <property name="meta.media.width">3840</property>
  <property name="meta.media.height">2160</property>
  <property name="meta.media.aspect_ratio">1</property>
  <property name="meta.media.color_range">mpeg</property>
  <property name="xml">was here</property>
  <property name="mute_on_pause">0</property>
  <property name="meta.media.top_field_first">0</property>
  <property name="meta.media.progressive">1</property>
  <property name="set.test_audio">1</property>
  <property name="set.test_image">0</property>
 </chain>
 <playlist id="playlist18">
  <entry in="00:00:00.000" out="00:00:04.958" producer="chain12">
   <property name="kdenlive:id">7</property>
   <filter id="filter94">
    <property name="version">0.2</property>
    <property name="mlt_service">frei0r.coloradj_RGB</property>
    <property name="kdenlive_id">frei0r.coloradj_RGB</property>
    <property name="R">00:00:00.000=0.4</property>
    <property name="G">00:00:00.000=0.6</property>
    <property name="B">00:00:00.000=0.6</property>
    <property name="Action">0.5</property>
    <property name="Keep luma">1</property>
    <property name="Alpha controlled">0</property>
    <property name="Luma formula">1</property>
    <property name="kdenlive:collapsed">0</property>
   </filter>
   <filter id="filter95">
    <property name="version">0.2</property>
    <property name="mlt_service">frei0r.contrast0r</property>
    <property name="kdenlive_id">frei0r.contrast0r</property>
    <property name="Contrast">0=0.48</property>
    <property name="disable">1</property>
    <property name="kdenlive:collapsed">0</property>
   </filter>
   <filter id="filter96">
    <property name="rotate_center">1</property>
    <property name="mlt_service">qtblend</property>
    <property name="kdenlive_id">qtblend</property>
    <property name="compositing">0</property>
    <property name="distort">0</property>
    <property name="rect">00:00:00.000=0 -64 4070 2289 1.000000</property>
    <property name="rotation">00:00:00.000=0</property>
    <property name="kdenlive:collapsed">0</property>
   </filter>
  </entry>
  <blank length="00:00:02.958"/>
  <entry in="00:00:00.000" out="00:00:00.417" producer="producer19">
   <property name="kdenlive:id">24</property>
   <filter id="filter97" out="00:00:00.417">
    <property name="start">1</property>
    <property name="level">1</property>
    <property name="mlt_service">brightness</property>
    <property name="kdenlive_id">fade_to_black</property>
    <property name="alpha">00:00:00.000=1;00:00:00.417=0</property>
    <property name="kdenlive:collapsed">0</property>
   </filter>
   <filter id="filter98">
    <property name="rotate_center">1</property>
    <property name="mlt_service">qtblend</property>
    <property name="kdenlive_id">qtblend</property>
    <property name="compositing">0</property>
    <property name="distort">0</property>
    <property name="rect">00:00:00.000=-660 0 5160 2160 1.000000</property>
    <property name="rotation">00:00:00.000=0</property>
    <property name="kdenlive:collapsed">0</property>
   </filter>
  </entry>
 </playlist>
 <playlist id="playlist19"/>
 <tractor id="tractor9" in="00:00:00.000" out="00:00:08.375">
  <property name="kdenlive:trackheight">67</property>
  <property name="kdenlive:timeline_active">1</property>
  <property name="kdenlive:collapsed">0</property>
  <property name="kdenlive:track_name">16-9</property>
  <property name="kdenlive:thumbs_format"/>
  <property name="kdenlive:audio_rec"/>
  <track hide="audio" producer="playlist18"/>
  <track hide="audio" producer="playlist19"/>
 </tractor>
 <tractor id="tractor10" in="00:00:00.000" out="00:00:43.958">
  <property name="kdenlive:duration">00:00:44.000</property>
  <property name="kdenlive:maxduration">1056</property>
  <property name="kdenlive:clipname">Sequence 1</property>
  <property name="kdenlive:description"/>
  <property name="kdenlive:uuid">{ed4ce6b4-837f-48d9-a74e-f669c4ffa62b}</property>
  <property name="kdenlive:producer_type">17</property>
  <property name="kdenlive:control_uuid">{4c9b7408-6609-4cbc-bf7f-563005623080}</property>
  <property name="kdenlive:id">3</property>
  <property name="kdenlive:clip_type">0</property>
  <property name="kdenlive:file_hash">8adfb33fab2c66668c9209532826fcc5</property>
  <property name="kdenlive:folderid">2</property>
  <property name="kdenlive:sequenceproperties.activeTrack">9</property>
  <property name="kdenlive:sequenceproperties.audioTarget">1</property>
  <property name="kdenlive:sequenceproperties.disablepreview">0</property>
  <property name="kdenlive:sequenceproperties.documentuuid">{ed4ce6b4-837f-48d9-a74e-f669c4ffa62b}</property>
  <property name="kdenlive:sequenceproperties.hasAudio">1</property>
  <property name="kdenlive:sequenceproperties.hasVideo">1</property>
  <property name="kdenlive:sequenceproperties.position">133</property>
  <property name="kdenlive:sequenceproperties.scrollPos">0</property>
  <property name="kdenlive:sequenceproperties.tracks">4</property>
  <property name="kdenlive:sequenceproperties.tracksCount">10</property>
  <property name="kdenlive:sequenceproperties.verticalzoom">1</property>
  <property name="kdenlive:sequenceproperties.videoTarget">2</property>
  <property name="kdenlive:sequenceproperties.zonein">120</property>
  <property name="kdenlive:sequenceproperties.zoneout">288</property>
  <property name="kdenlive:sequenceproperties.zoom">5</property>
  <property name="kdenlive:sequenceproperties.groups">[
]
</property>
  <property name="kdenlive:sequenceproperties.guides">[
]
</property>
  <track producer="producer0"/>
  <track producer="tractor0"/>
  <track producer="tractor1"/>
  <track producer="tractor2"/>
  <track producer="tractor3"/>
  <track producer="tractor4"/>
  <track producer="tractor5"/>
  <track producer="tractor6"/>
  <track producer="tractor7"/>
  <track producer="tractor8"/>
  <track producer="tractor9"/>
  <transition id="transition0">
   <property name="a_track">0</property>
   <property name="b_track">1</property>
   <property name="mlt_service">mix</property>
   <property name="kdenlive_id">mix</property>
   <property name="internal_added">237</property>
   <property name="always_active">1</property>
   <property name="accepts_blanks">1</property>
   <property name="sum">1</property>
  </transition>
  <transition id="transition1">
   <property name="a_track">0</property>
   <property name="b_track">2</property>
   <property name="mlt_service">mix</property>
   <property name="kdenlive_id">mix</property>
   <property name="internal_added">237</property>
   <property name="always_active">1</property>
   <property name="accepts_blanks">1</property>
   <property name="sum">1</property>
  </transition>
  <transition id="transition2">
   <property name="a_track">0</property>
   <property name="b_track">3</property>
   <property name="compositing">0</property>
   <property name="distort">0</property>
   <property name="rotate_center">0</property>
   <property name="mlt_service">qtblend</property>
   <property name="kdenlive_id">qtblend</property>
   <property name="internal_added">237</property>
   <property name="always_active">1</property>
  </transition>
  <transition id="transition3">
   <property name="a_track">0</property>
   <property name="b_track">4</property>
   <property name="compositing">0</property>
   <property name="distort">0</property>
   <property name="rotate_center">0</property>
   <property name="mlt_service">qtblend</property>
   <property name="kdenlive_id">qtblend</property>
   <property name="internal_added">237</property>
   <property name="always_active">1</property>
  </transition>
  <transition id="transition4">
   <property name="a_track">0</property>
   <property name="b_track">5</property>
   <property name="compositing">0</property>
   <property name="distort">0</property>
   <property name="rotate_center">0</property>
   <property name="mlt_service">qtblend</property>
   <property name="kdenlive_id">qtblend</property>
   <property name="internal_added">237</property>
   <property name="always_active">1</property>
  </transition>
  <transition id="transition5">
   <property name="a_track">0</property>
   <property name="b_track">6</property>
   <property name="compositing">0</property>
   <property name="distort">0</property>
   <property name="rotate_center">0</property>
   <property name="mlt_service">qtblend</property>
   <property name="kdenlive_id">qtblend</property>
   <property name="internal_added">237</property>
   <property name="always_active">1</property>
  </transition>
  <transition id="transition6">
   <property name="a_track">0</property>
   <property name="b_track">7</property>
   <property name="compositing">0</property>
   <property name="distort">0</property>
   <property name="rotate_center">0</property>
   <property name="mlt_service">qtblend</property>
   <property name="kdenlive_id">qtblend</property>
   <property name="internal_added">237</property>
   <property name="always_active">1</property>
  </transition>
  <transition id="transition7">
   <property name="a_track">0</property>
   <property name="b_track">8</property>
   <property name="compositing">0</property>
   <property name="distort">0</property>
   <property name="rotate_center">0</property>
   <property name="mlt_service">qtblend</property>
   <property name="kdenlive_id">qtblend</property>
   <property name="internal_added">237</property>
   <property name="always_active">1</property>
  </transition>
  <transition id="transition8">
   <property name="a_track">0</property>
   <property name="b_track">9</property>
   <property name="compositing">0</property>
   <property name="distort">0</property>
   <property name="rotate_center">0</property>
   <property name="mlt_service">qtblend</property>
   <property name="kdenlive_id">qtblend</property>
   <property name="internal_added">237</property>
   <property name="always_active">1</property>
  </transition>
  <transition id="transition9">
   <property name="a_track">0</property>
   <property name="b_track">10</property>
   <property name="compositing">0</property>
   <property name="distort">0</property>
   <property name="rotate_center">0</property>
   <property name="mlt_service">qtblend</property>
   <property name="kdenlive_id">qtblend</property>
   <property name="internal_added">237</property>
   <property name="always_active">1</property>
  </transition>
  <filter id="filter99">
   <property name="window">75</property>
   <property name="max_gain">20dB</property>
   <property name="mlt_service">volume</property>
   <property name="internal_added">237</property>
   <property name="disable">1</property>
  </filter>
  <filter id="filter100">
   <property name="channel">-1</property>
   <property name="mlt_service">panner</property>
   <property name="internal_added">237</property>
   <property name="start">0.5</property>
   <property name="disable">1</property>
  </filter>
 </tractor>
 <chain id="chain13" out="00:00:05.042">
  <property name="length">122</property>
  <property name="eof">pause</property>
  <property name="resource">C:/dev/workspace/indy/dist/room/attic2/content/upscale/indy.mp4</property>
  <property name="mlt_service">avformat</property>
  <property name="meta.media.nb_streams">1</property>
  <property name="meta.media.0.stream.type">video</property>
  <property name="meta.media.0.stream.frame_rate">60</property>
  <property name="meta.media.0.stream.sample_aspect_ratio">0</property>
  <property name="meta.media.0.codec.width">3840</property>
  <property name="meta.media.0.codec.height">2160</property>
  <property name="meta.media.0.codec.rotate">0</property>
  <property name="meta.media.0.codec.pix_fmt">yuv444p</property>
  <property name="meta.media.0.codec.sample_aspect_ratio">0</property>
  <property name="meta.media.0.codec.colorspace">709</property>
  <property name="meta.media.0.codec.name">h264</property>
  <property name="meta.media.0.codec.long_name">H.264 / AVC / MPEG-4 AVC / MPEG-4 part 10</property>
  <property name="meta.media.0.codec.bit_rate">24088795</property>
  <property name="meta.attr.0.stream.handler_name.markup">VideoHandler</property>
  <property name="meta.attr.0.stream.vendor_id.markup">[0][0][0][0]</property>
  <property name="meta.attr.0.stream.encoder.markup">Lavc61.19.101 libx264</property>
  <property name="meta.attr.minor_version.markup">512</property>
  <property name="meta.attr.major_brand.markup">isom</property>
  <property name="meta.attr.compatible_brands.markup">isomiso2avc1mp41</property>
  <property name="meta.attr.encoder.markup">Lavf61.9.100</property>
  <property name="seekable">1</property>
  <property name="meta.media.sample_aspect_num">1</property>
  <property name="meta.media.sample_aspect_den">1</property>
  <property name="audio_index">-1</property>
  <property name="video_index">0</property>
  <property name="vstream">0</property>
  <property name="meta.media.frame_rate_num">60</property>
  <property name="meta.media.frame_rate_den">1</property>
  <property name="meta.media.colorspace">709</property>
  <property name="meta.media.color_trc">2</property>
  <property name="meta.media.has_b_frames">2</property>
  <property name="meta.media.width">3840</property>
  <property name="meta.media.height">2160</property>
  <property name="meta.media.aspect_ratio">1</property>
  <property name="meta.media.color_range">mpeg</property>
  <property name="meta.media.top_field_first">0</property>
  <property name="meta.media.progressive">1</property>
  <property name="kdenlive:control_uuid">{3e68eeae-8bfb-420b-bbf3-2a39b8083e25}</property>
  <property name="kdenlive:id">7</property>
  <property name="kdenlive:clip_type">2</property>
  <property name="kdenlive:file_size">15361542</property>
  <property name="kdenlive:file_hash">56ca686ab9ca25016bdd3a6b935f41b0</property>
  <property name="kdenlive:folderid">-1</property>
 </chain>
 <chain id="chain14" out="00:03:11.125">
  <property name="length">4588</property>
  <property name="eof">pause</property>
  <property name="resource">C:/dev/workspace/indy/dist/room/attic/content/music/extra/attic.webm</property>
  <property name="mlt_service">avformat</property>
  <property name="meta.media.nb_streams">1</property>
  <property name="meta.media.0.stream.type">audio</property>
  <property name="meta.media.0.codec.sample_fmt">fltp</property>
  <property name="meta.media.0.codec.sample_rate">48000</property>
  <property name="meta.media.0.codec.channels">2</property>
  <property name="meta.media.0.codec.layout">stereo</property>
  <property name="meta.media.0.codec.name">opus</property>
  <property name="meta.media.0.codec.long_name">Opus</property>
  <property name="meta.media.0.codec.bit_rate">0</property>
  <property name="meta.attr.0.stream.language.markup">eng</property>
  <property name="meta.attr.encoder.markup">google/video-file</property>
  <property name="seekable">1</property>
  <property name="audio_index">0</property>
  <property name="video_index">-1</property>
  <property name="astream">0</property>
  <property name="kdenlive:control_uuid">{6f19b6a9-2b45-4a93-a21c-6862dee0b5fa}</property>
  <property name="kdenlive:id">8</property>
  <property name="kdenlive:clip_type">1</property>
  <property name="kdenlive:file_size">3420074</property>
  <property name="kdenlive:file_hash">029e4f8308d83085556e81b95e7c3d37</property>
  <property name="kdenlive:folderid">-1</property>
 </chain>
 <chain id="chain15" out="00:00:03.958">
  <property name="length">96</property>
  <property name="eof">pause</property>
  <property name="resource">C:/dev/workspace/indy/dist/room/attic2/content/upscale/attic3.mp4</property>
  <property name="mlt_service">avformat</property>
  <property name="meta.media.nb_streams">1</property>
  <property name="meta.media.0.stream.type">video</property>
  <property name="meta.media.0.stream.frame_rate">60</property>
  <property name="meta.media.0.stream.sample_aspect_ratio">0</property>
  <property name="meta.media.0.codec.width">3840</property>
  <property name="meta.media.0.codec.height">2160</property>
  <property name="meta.media.0.codec.rotate">0</property>
  <property name="meta.media.0.codec.pix_fmt">yuv444p</property>
  <property name="meta.media.0.codec.sample_aspect_ratio">0</property>
  <property name="meta.media.0.codec.colorspace">709</property>
  <property name="meta.media.0.codec.name">h264</property>
  <property name="meta.media.0.codec.long_name">H.264 / AVC / MPEG-4 AVC / MPEG-4 part 10</property>
  <property name="meta.media.0.codec.bit_rate">34897250</property>
  <property name="meta.attr.0.stream.handler_name.markup">VideoHandler</property>
  <property name="meta.attr.0.stream.vendor_id.markup">[0][0][0][0]</property>
  <property name="meta.attr.0.stream.encoder.markup">Lavc61.19.101 libx264</property>
  <property name="meta.attr.minor_version.markup">512</property>
  <property name="meta.attr.major_brand.markup">isom</property>
  <property name="meta.attr.compatible_brands.markup">isomiso2avc1mp41</property>
  <property name="meta.attr.encoder.markup">Lavf61.9.100</property>
  <property name="seekable">1</property>
  <property name="meta.media.sample_aspect_num">1</property>
  <property name="meta.media.sample_aspect_den">1</property>
  <property name="audio_index">-1</property>
  <property name="video_index">0</property>
  <property name="vstream">0</property>
  <property name="meta.media.frame_rate_num">60</property>
  <property name="meta.media.frame_rate_den">1</property>
  <property name="meta.media.colorspace">709</property>
  <property name="meta.media.color_trc">2</property>
  <property name="meta.media.has_b_frames">2</property>
  <property name="meta.media.width">3840</property>
  <property name="meta.media.height">2160</property>
  <property name="meta.media.aspect_ratio">1</property>
  <property name="meta.media.color_range">mpeg</property>
  <property name="meta.media.top_field_first">0</property>
  <property name="meta.media.progressive">1</property>
  <property name="kdenlive:control_uuid">{15d63653-512d-4f6e-8957-de8e87a0764d}</property>
  <property name="kdenlive:id">6</property>
  <property name="kdenlive:clip_type">2</property>
  <property name="kdenlive:file_size">17452672</property>
  <property name="kdenlive:file_hash">c4361b5efeb364049f8ad7d7b5b9b247</property>
  <property name="kdenlive:folderid">-1</property>
 </chain>
 <chain id="chain16" out="00:00:03.958">
  <property name="length">96</property>
  <property name="eof">pause</property>
  <property name="resource">C:/dev/workspace/indy/dist/room/attic2/content/upscale/attic2.mp4</property>
  <property name="mlt_service">avformat</property>
  <property name="meta.media.nb_streams">1</property>
  <property name="meta.media.0.stream.type">video</property>
  <property name="meta.media.0.stream.frame_rate">48</property>
  <property name="meta.media.0.stream.sample_aspect_ratio">0</property>
  <property name="meta.media.0.codec.width">3840</property>
  <property name="meta.media.0.codec.height">2160</property>
  <property name="meta.media.0.codec.rotate">0</property>
  <property name="meta.media.0.codec.pix_fmt">yuv444p</property>
  <property name="meta.media.0.codec.sample_aspect_ratio">0</property>
  <property name="meta.media.0.codec.colorspace">709</property>
  <property name="meta.media.0.codec.name">h264</property>
  <property name="meta.media.0.codec.long_name">H.264 / AVC / MPEG-4 AVC / MPEG-4 part 10</property>
  <property name="meta.media.0.codec.bit_rate">33446944</property>
  <property name="meta.attr.0.stream.handler_name.markup">VideoHandler</property>
  <property name="meta.attr.0.stream.vendor_id.markup">[0][0][0][0]</property>
  <property name="meta.attr.0.stream.encoder.markup">Lavc61.19.101 libx264</property>
  <property name="meta.attr.minor_version.markup">512</property>
  <property name="meta.attr.major_brand.markup">isom</property>
  <property name="meta.attr.compatible_brands.markup">isomiso2avc1mp41</property>
  <property name="meta.attr.encoder.markup">Lavf61.9.100</property>
  <property name="seekable">1</property>
  <property name="meta.media.sample_aspect_num">1</property>
  <property name="meta.media.sample_aspect_den">1</property>
  <property name="audio_index">-1</property>
  <property name="video_index">0</property>
  <property name="vstream">0</property>
  <property name="meta.media.frame_rate_num">48</property>
  <property name="meta.media.frame_rate_den">1</property>
  <property name="meta.media.colorspace">709</property>
  <property name="meta.media.color_trc">2</property>
  <property name="meta.media.has_b_frames">2</property>
  <property name="meta.media.width">3840</property>
  <property name="meta.media.height">2160</property>
  <property name="meta.media.aspect_ratio">1</property>
  <property name="meta.media.color_range">mpeg</property>
  <property name="meta.media.top_field_first">0</property>
  <property name="meta.media.progressive">1</property>
  <property name="kdenlive:control_uuid">{93a33964-a409-4271-9568-54c3491c755a}</property>
  <property name="kdenlive:id">5</property>
  <property name="kdenlive:clip_type">2</property>
  <property name="kdenlive:file_size">16726195</property>
  <property name="kdenlive:file_hash">79597f60ab1727e7fc495bff55ae20cc</property>
  <property name="kdenlive:folderid">-1</property>
 </chain>
 <chain id="chain17" out="00:00:03.958">
  <property name="length">96</property>
  <property name="eof">pause</property>
  <property name="resource">C:/dev/workspace/indy/dist/room/attic2/content/upscale/attic.mp4</property>
  <property name="mlt_service">avformat</property>
  <property name="meta.media.nb_streams">1</property>
  <property name="meta.media.0.stream.type">video</property>
  <property name="meta.media.0.stream.frame_rate">48</property>
  <property name="meta.media.0.stream.sample_aspect_ratio">0</property>
  <property name="meta.media.0.codec.width">3840</property>
  <property name="meta.media.0.codec.height">2160</property>
  <property name="meta.media.0.codec.rotate">0</property>
  <property name="meta.media.0.codec.pix_fmt">yuv444p</property>
  <property name="meta.media.0.codec.sample_aspect_ratio">0</property>
  <property name="meta.media.0.codec.colorspace">709</property>
  <property name="meta.media.0.codec.name">h264</property>
  <property name="meta.media.0.codec.long_name">H.264 / AVC / MPEG-4 AVC / MPEG-4 part 10</property>
  <property name="meta.media.0.codec.bit_rate">36902902</property>
  <property name="meta.attr.0.stream.handler_name.markup">VideoHandler</property>
  <property name="meta.attr.0.stream.vendor_id.markup">[0][0][0][0]</property>
  <property name="meta.attr.0.stream.encoder.markup">Lavc61.19.101 libx264</property>
  <property name="meta.attr.minor_version.markup">512</property>
  <property name="meta.attr.major_brand.markup">isom</property>
  <property name="meta.attr.compatible_brands.markup">isomiso2avc1mp41</property>
  <property name="meta.attr.encoder.markup">Lavf61.9.100</property>
  <property name="seekable">1</property>
  <property name="meta.media.sample_aspect_num">1</property>
  <property name="meta.media.sample_aspect_den">1</property>
  <property name="audio_index">-1</property>
  <property name="video_index">0</property>
  <property name="vstream">0</property>
  <property name="meta.media.frame_rate_num">48</property>
  <property name="meta.media.frame_rate_den">1</property>
  <property name="meta.media.colorspace">709</property>
  <property name="meta.media.color_trc">2</property>
  <property name="meta.media.has_b_frames">2</property>
  <property name="meta.media.width">3840</property>
  <property name="meta.media.height">2160</property>
  <property name="meta.media.aspect_ratio">1</property>
  <property name="meta.media.color_range">mpeg</property>
  <property name="meta.media.top_field_first">0</property>
  <property name="meta.media.progressive">1</property>
  <property name="kdenlive:control_uuid">{c6ca648c-b36c-4df3-a455-868b86751e55}</property>
  <property name="kdenlive:id">4</property>
  <property name="kdenlive:clip_type">2</property>
  <property name="kdenlive:file_size">18454242</property>
  <property name="kdenlive:file_hash">0a2baaaf5f3202bc5a502d0d33a88444</property>
  <property name="kdenlive:folderid">-1</property>
 </chain>
 <chain id="chain18" out="00:00:04.625">
  <property name="length">112</property>
  <property name="eof">pause</property>
  <property name="resource">C:/dev/workspace/indy/dist/room/attic2/content/upscale/indy2.mp4</property>
  <property name="mlt_service">avformat</property>
  <property name="meta.media.nb_streams">1</property>
  <property name="meta.media.0.stream.type">video</property>
  <property name="meta.media.0.stream.frame_rate">60</property>
  <property name="meta.media.0.stream.sample_aspect_ratio">0</property>
  <property name="meta.media.0.codec.width">3840</property>
  <property name="meta.media.0.codec.height">2160</property>
  <property name="meta.media.0.codec.rotate">0</property>
  <property name="meta.media.0.codec.pix_fmt">yuv444p</property>
  <property name="meta.media.0.codec.sample_aspect_ratio">0</property>
  <property name="meta.media.0.codec.colorspace">709</property>
  <property name="meta.media.0.codec.name">h264</property>
  <property name="meta.media.0.codec.long_name">H.264 / AVC / MPEG-4 AVC / MPEG-4 part 10</property>
  <property name="meta.media.0.codec.bit_rate">30690421</property>
  <property name="meta.attr.0.stream.handler_name.markup">VideoHandler</property>
  <property name="meta.attr.0.stream.vendor_id.markup">[0][0][0][0]</property>
  <property name="meta.attr.0.stream.encoder.markup">Lavc61.19.101 libx264</property>
  <property name="meta.attr.minor_version.markup">512</property>
  <property name="meta.attr.major_brand.markup">isom</property>
  <property name="meta.attr.compatible_brands.markup">isomiso2avc1mp41</property>
  <property name="meta.attr.encoder.markup">Lavf61.9.100</property>
  <property name="seekable">1</property>
  <property name="meta.media.sample_aspect_num">1</property>
  <property name="meta.media.sample_aspect_den">1</property>
  <property name="audio_index">-1</property>
  <property name="video_index">0</property>
  <property name="vstream">0</property>
  <property name="meta.media.frame_rate_num">60</property>
  <property name="meta.media.frame_rate_den">1</property>
  <property name="meta.media.colorspace">709</property>
  <property name="meta.media.color_trc">2</property>
  <property name="meta.media.has_b_frames">2</property>
  <property name="meta.media.width">3840</property>
  <property name="meta.media.height">2160</property>
  <property name="meta.media.aspect_ratio">1</property>
  <property name="meta.media.color_range">mpeg</property>
  <property name="meta.media.top_field_first">0</property>
  <property name="meta.media.progressive">1</property>
  <property name="kdenlive:control_uuid">{d5906bfb-21b2-4903-afc7-4ac06972bd61}</property>
  <property name="kdenlive:proxy">-</property>
  <property name="kdenlive:originalurl">C:/dev/workspace/indy/dist/room/attic2/content/upscale/indy2.mp4</property>
  <property name="kdenlive:id">9</property>
  <property name="kdenlive:clip_type">2</property>
  <property name="kdenlive:file_size">17907369</property>
  <property name="kdenlive:file_hash">d7f3b456e912767e38486c5f46a9273f</property>
  <property name="kdenlive:folderid">-1</property>
 </chain>
 <chain id="chain19" out="00:00:05.042">
  <property name="length">122</property>
  <property name="eof">pause</property>
  <property name="resource">C:/dev/workspace/indy/dist/room/attic2/content/upscale/indy3.mp4</property>
  <property name="mlt_service">avformat</property>
  <property name="meta.media.nb_streams">1</property>
  <property name="meta.media.0.stream.type">video</property>
  <property name="meta.media.0.stream.frame_rate">60</property>
  <property name="meta.media.0.stream.sample_aspect_ratio">0</property>
  <property name="meta.media.0.codec.width">3840</property>
  <property name="meta.media.0.codec.height">2160</property>
  <property name="meta.media.0.codec.rotate">0</property>
  <property name="meta.media.0.codec.pix_fmt">yuv444p</property>
  <property name="meta.media.0.codec.sample_aspect_ratio">0</property>
  <property name="meta.media.0.codec.colorspace">709</property>
  <property name="meta.media.0.codec.name">h264</property>
  <property name="meta.media.0.codec.long_name">H.264 / AVC / MPEG-4 AVC / MPEG-4 part 10</property>
  <property name="meta.media.0.codec.bit_rate">47751706</property>
  <property name="meta.attr.0.stream.handler_name.markup">VideoHandler</property>
  <property name="meta.attr.0.stream.vendor_id.markup">[0][0][0][0]</property>
  <property name="meta.attr.0.stream.encoder.markup">Lavc61.19.101 libx264</property>
  <property name="meta.attr.minor_version.markup">512</property>
  <property name="meta.attr.major_brand.markup">isom</property>
  <property name="meta.attr.compatible_brands.markup">isomiso2avc1mp41</property>
  <property name="meta.attr.encoder.markup">Lavf61.9.100</property>
  <property name="seekable">1</property>
  <property name="meta.media.sample_aspect_num">1</property>
  <property name="meta.media.sample_aspect_den">1</property>
  <property name="audio_index">-1</property>
  <property name="video_index">0</property>
  <property name="vstream">0</property>
  <property name="meta.media.frame_rate_num">60</property>
  <property name="meta.media.frame_rate_den">1</property>
  <property name="meta.media.colorspace">709</property>
  <property name="meta.media.color_trc">2</property>
  <property name="meta.media.has_b_frames">2</property>
  <property name="meta.media.width">3840</property>
  <property name="meta.media.height">2160</property>
  <property name="meta.media.aspect_ratio">1</property>
  <property name="meta.media.color_range">mpeg</property>
  <property name="meta.media.top_field_first">0</property>
  <property name="meta.media.progressive">1</property>
  <property name="kdenlive:control_uuid">{55e89f44-13a6-458c-8b8f-1cd4c06d8856}</property>
  <property name="kdenlive:id">10</property>
  <property name="kdenlive:clip_type">2</property>
  <property name="kdenlive:file_size">30446764</property>
  <property name="kdenlive:file_hash">9f93cd565785fd015a942a53a543d7bf</property>
  <property name="kdenlive:folderid">-1</property>
 </chain>
 <chain id="chain20" out="00:00:04.625">
  <property name="length">112</property>
  <property name="eof">pause</property>
  <property name="resource">C:/dev/workspace/indy/dist/room/attic2/content/upscale/indy4.mp4</property>
  <property name="mlt_service">avformat</property>
  <property name="meta.media.nb_streams">1</property>
  <property name="meta.media.0.stream.type">video</property>
  <property name="meta.media.0.stream.frame_rate">60</property>
  <property name="meta.media.0.stream.sample_aspect_ratio">0</property>
  <property name="meta.media.0.codec.width">3840</property>
  <property name="meta.media.0.codec.height">2160</property>
  <property name="meta.media.0.codec.rotate">0</property>
  <property name="meta.media.0.codec.pix_fmt">yuv444p</property>
  <property name="meta.media.0.codec.sample_aspect_ratio">0</property>
  <property name="meta.media.0.codec.colorspace">709</property>
  <property name="meta.media.0.codec.name">h264</property>
  <property name="meta.media.0.codec.long_name">H.264 / AVC / MPEG-4 AVC / MPEG-4 part 10</property>
  <property name="meta.media.0.codec.bit_rate">41686573</property>
  <property name="meta.attr.0.stream.handler_name.markup">VideoHandler</property>
  <property name="meta.attr.0.stream.vendor_id.markup">[0][0][0][0]</property>
  <property name="meta.attr.0.stream.encoder.markup">Lavc61.19.101 libx264</property>
  <property name="meta.attr.minor_version.markup">512</property>
  <property name="meta.attr.major_brand.markup">isom</property>
  <property name="meta.attr.compatible_brands.markup">isomiso2avc1mp41</property>
  <property name="meta.attr.encoder.markup">Lavf61.9.100</property>
  <property name="seekable">1</property>
  <property name="meta.media.sample_aspect_num">1</property>
  <property name="meta.media.sample_aspect_den">1</property>
  <property name="audio_index">-1</property>
  <property name="video_index">0</property>
  <property name="vstream">0</property>
  <property name="meta.media.frame_rate_num">60</property>
  <property name="meta.media.frame_rate_den">1</property>
  <property name="meta.media.colorspace">709</property>
  <property name="meta.media.color_trc">2</property>
  <property name="meta.media.has_b_frames">2</property>
  <property name="meta.media.width">3840</property>
  <property name="meta.media.height">2160</property>
  <property name="meta.media.aspect_ratio">1</property>
  <property name="meta.media.color_range">mpeg</property>
  <property name="meta.media.top_field_first">0</property>
  <property name="meta.media.progressive">1</property>
  <property name="kdenlive:control_uuid">{8b1621ca-8633-4196-b981-2cd151857227}</property>
  <property name="kdenlive:proxy">-</property>
  <property name="kdenlive:originalurl">C:/dev/workspace/indy/dist/room/attic2/content/upscale/indy4.mp4</property>
  <property name="kdenlive:id">11</property>
  <property name="kdenlive:clip_type">2</property>
  <property name="kdenlive:file_size">24321855</property>
  <property name="kdenlive:file_hash">b067991bd1da8951cee6114719642bf4</property>
  <property name="kdenlive:folderid">-1</property>
 </chain>
 <chain id="chain21" out="00:00:03.958">
  <property name="length">96</property>
  <property name="eof">pause</property>
  <property name="resource">C:/dev/workspace/indy/dist/room/attic2/content/upscale/book.mp4</property>
  <property name="mlt_service">avformat</property>
  <property name="meta.media.nb_streams">1</property>
  <property name="meta.media.0.stream.type">video</property>
  <property name="meta.media.0.stream.frame_rate">48</property>
  <property name="meta.media.0.stream.sample_aspect_ratio">0</property>
  <property name="meta.media.0.codec.width">3840</property>
  <property name="meta.media.0.codec.height">2160</property>
  <property name="meta.media.0.codec.rotate">0</property>
  <property name="meta.media.0.codec.pix_fmt">yuv444p</property>
  <property name="meta.media.0.codec.sample_aspect_ratio">0</property>
  <property name="meta.media.0.codec.colorspace">709</property>
  <property name="meta.media.0.codec.name">h264</property>
  <property name="meta.media.0.codec.long_name">H.264 / AVC / MPEG-4 AVC / MPEG-4 part 10</property>
  <property name="meta.media.0.codec.bit_rate">26388676</property>
  <property name="meta.attr.0.stream.handler_name.markup">VideoHandler</property>
  <property name="meta.attr.0.stream.vendor_id.markup">[0][0][0][0]</property>
  <property name="meta.attr.0.stream.encoder.markup">Lavc61.19.101 libx264</property>
  <property name="meta.attr.minor_version.markup">512</property>
  <property name="meta.attr.major_brand.markup">isom</property>
  <property name="meta.attr.compatible_brands.markup">isomiso2avc1mp41</property>
  <property name="meta.attr.encoder.markup">Lavf61.9.100</property>
  <property name="seekable">1</property>
  <property name="meta.media.sample_aspect_num">1</property>
  <property name="meta.media.sample_aspect_den">1</property>
  <property name="audio_index">-1</property>
  <property name="video_index">0</property>
  <property name="vstream">0</property>
  <property name="meta.media.frame_rate_num">48</property>
  <property name="meta.media.frame_rate_den">1</property>
  <property name="meta.media.colorspace">709</property>
  <property name="meta.media.color_trc">2</property>
  <property name="meta.media.has_b_frames">2</property>
  <property name="meta.media.width">3840</property>
  <property name="meta.media.height">2160</property>
  <property name="meta.media.aspect_ratio">1</property>
  <property name="meta.media.color_range">mpeg</property>
  <property name="meta.media.top_field_first">0</property>
  <property name="meta.media.progressive">1</property>
  <property name="kdenlive:control_uuid">{b7153cc4-3a42-4e1c-a615-c82c4d12f3ab}</property>
  <property name="kdenlive:proxy">-</property>
  <property name="kdenlive:originalurl">C:/dev/workspace/indy/dist/room/attic2/content/upscale/book.mp4</property>
  <property name="kdenlive:id">12</property>
  <property name="kdenlive:clip_type">2</property>
  <property name="kdenlive:file_size">13197201</property>
  <property name="kdenlive:file_hash">aa793cb632706de68e382c43b9a36d22</property>
  <property name="kdenlive:folderid">-1</property>
 </chain>
 <chain id="chain22" out="00:00:03.958">
  <property name="length">96</property>
  <property name="eof">pause</property>
  <property name="resource">C:/dev/workspace/indy/dist/room/attic2/content/upscale/book2.mp4</property>
  <property name="mlt_service">avformat</property>
  <property name="meta.media.nb_streams">1</property>
  <property name="meta.media.0.stream.type">video</property>
  <property name="meta.media.0.stream.frame_rate">48</property>
  <property name="meta.media.0.stream.sample_aspect_ratio">0</property>
  <property name="meta.media.0.codec.width">3840</property>
  <property name="meta.media.0.codec.height">2160</property>
  <property name="meta.media.0.codec.rotate">0</property>
  <property name="meta.media.0.codec.pix_fmt">yuv444p</property>
  <property name="meta.media.0.codec.sample_aspect_ratio">0</property>
  <property name="meta.media.0.codec.colorspace">709</property>
  <property name="meta.media.0.codec.name">h264</property>
  <property name="meta.media.0.codec.long_name">H.264 / AVC / MPEG-4 AVC / MPEG-4 part 10</property>
  <property name="meta.media.0.codec.bit_rate">25269500</property>
  <property name="meta.attr.0.stream.handler_name.markup">VideoHandler</property>
  <property name="meta.attr.0.stream.vendor_id.markup">[0][0][0][0]</property>
  <property name="meta.attr.0.stream.encoder.markup">Lavc61.19.101 libx264</property>
  <property name="meta.attr.minor_version.markup">512</property>
  <property name="meta.attr.major_brand.markup">isom</property>
  <property name="meta.attr.compatible_brands.markup">isomiso2avc1mp41</property>
  <property name="meta.attr.encoder.markup">Lavf61.9.100</property>
  <property name="seekable">1</property>
  <property name="meta.media.sample_aspect_num">1</property>
  <property name="meta.media.sample_aspect_den">1</property>
  <property name="audio_index">-1</property>
  <property name="video_index">0</property>
  <property name="vstream">0</property>
  <property name="meta.media.frame_rate_num">48</property>
  <property name="meta.media.frame_rate_den">1</property>
  <property name="meta.media.colorspace">709</property>
  <property name="meta.media.color_trc">2</property>
  <property name="meta.media.has_b_frames">2</property>
  <property name="meta.media.width">3840</property>
  <property name="meta.media.height">2160</property>
  <property name="meta.media.aspect_ratio">1</property>
  <property name="meta.media.color_range">mpeg</property>
  <property name="meta.media.top_field_first">0</property>
  <property name="meta.media.progressive">1</property>
  <property name="kdenlive:control_uuid">{e5367c92-ea71-4e44-91e0-29e53c1edd7b}</property>
  <property name="kdenlive:proxy">-</property>
  <property name="kdenlive:originalurl">C:/dev/workspace/indy/dist/room/attic2/content/upscale/book2.mp4</property>
  <property name="kdenlive:id">13</property>
  <property name="kdenlive:clip_type">2</property>
  <property name="kdenlive:file_size">12637497</property>
  <property name="kdenlive:file_hash">5cc3c3c47acebd916f4b937b296f9de0</property>
  <property name="kdenlive:folderid">-1</property>
 </chain>
 <chain id="chain23" out="00:00:03.958">
  <property name="length">96</property>
  <property name="eof">pause</property>
  <property name="resource">C:/dev/workspace/indy/dist/room/attic2/content/upscale/wide/attic.mp4</property>
  <property name="mlt_service">avformat</property>
  <property name="meta.media.nb_streams">2</property>
  <property name="meta.media.0.stream.type">video</property>
  <property name="meta.media.0.stream.frame_rate">48</property>
  <property name="meta.media.0.stream.sample_aspect_ratio">0</property>
  <property name="meta.media.0.codec.width">5160</property>
  <property name="meta.media.0.codec.height">2160</property>
  <property name="meta.media.0.codec.rotate">0</property>
  <property name="meta.media.0.codec.pix_fmt">yuv444p</property>
  <property name="meta.media.0.codec.sample_aspect_ratio">0</property>
  <property name="meta.media.0.codec.colorspace">709</property>
  <property name="meta.media.0.codec.name">h264</property>
  <property name="meta.media.0.codec.long_name">H.264 / AVC / MPEG-4 AVC / MPEG-4 part 10</property>
  <property name="meta.media.0.codec.bit_rate">26410630</property>
  <property name="meta.attr.0.stream.handler_name.markup">VideoHandler</property>
  <property name="meta.attr.0.stream.vendor_id.markup">[0][0][0][0]</property>
  <property name="meta.attr.0.stream.encoder.markup">Lavc61.19.101 libx264</property>
  <property name="meta.media.1.stream.type">audio</property>
  <property name="meta.media.1.codec.sample_fmt">fltp</property>
  <property name="meta.media.1.codec.sample_rate">48000</property>
  <property name="meta.media.1.codec.channels">2</property>
  <property name="meta.media.1.codec.layout">stereo</property>
  <property name="meta.media.1.codec.name">aac</property>
  <property name="meta.media.1.codec.long_name">AAC (Advanced Audio Coding)</property>
  <property name="meta.media.1.codec.bit_rate">2250</property>
  <property name="meta.attr.1.stream.handler_name.markup">SoundHandler</property>
  <property name="meta.attr.1.stream.vendor_id.markup">[0][0][0][0]</property>
  <property name="meta.attr.minor_version.markup">512</property>
  <property name="meta.attr.major_brand.markup">isom</property>
  <property name="meta.attr.compatible_brands.markup">isomiso2avc1mp41</property>
  <property name="meta.attr.encoder.markup">Lavf61.9.100</property>
  <property name="seekable">1</property>
  <property name="meta.media.sample_aspect_num">1</property>
  <property name="meta.media.sample_aspect_den">1</property>
  <property name="audio_index">1</property>
  <property name="video_index">0</property>
  <property name="vstream">0</property>
  <property name="meta.media.frame_rate_num">48</property>
  <property name="meta.media.frame_rate_den">1</property>
  <property name="meta.media.colorspace">709</property>
  <property name="meta.media.color_trc">2</property>
  <property name="meta.media.has_b_frames">2</property>
  <property name="meta.media.width">5160</property>
  <property name="meta.media.height">2160</property>
  <property name="meta.media.aspect_ratio">1</property>
  <property name="meta.media.color_range">mpeg</property>
  <property name="astream">0</property>
  <property name="meta.media.top_field_first">0</property>
  <property name="meta.media.progressive">1</property>
  <property name="kdenlive:control_uuid">{2c598107-abd8-4468-b817-47067cfe6ea2}</property>
  <property name="kdenlive:id">16</property>
  <property name="kdenlive:clip_type">2</property>
  <property name="kdenlive:file_size">13211036</property>
  <property name="kdenlive:file_hash">c1d91ce4f88db9127adb2168c828c08f</property>
  <property name="kdenlive:folderid">-1</property>
 </chain>
 <chain id="chain24" out="00:00:03.958">
  <property name="length">96</property>
  <property name="eof">pause</property>
  <property name="resource">C:/dev/workspace/indy/dist/room/attic2/content/upscale/wide/attic2.mp4</property>
  <property name="mlt_service">avformat</property>
  <property name="meta.media.nb_streams">2</property>
  <property name="meta.media.0.stream.type">video</property>
  <property name="meta.media.0.stream.frame_rate">48</property>
  <property name="meta.media.0.stream.sample_aspect_ratio">0</property>
  <property name="meta.media.0.codec.width">5160</property>
  <property name="meta.media.0.codec.height">2160</property>
  <property name="meta.media.0.codec.rotate">0</property>
  <property name="meta.media.0.codec.pix_fmt">yuv444p</property>
  <property name="meta.media.0.codec.sample_aspect_ratio">0</property>
  <property name="meta.media.0.codec.colorspace">709</property>
  <property name="meta.media.0.codec.name">h264</property>
  <property name="meta.media.0.codec.long_name">H.264 / AVC / MPEG-4 AVC / MPEG-4 part 10</property>
  <property name="meta.media.0.codec.bit_rate">25981376</property>
  <property name="meta.attr.0.stream.handler_name.markup">VideoHandler</property>
  <property name="meta.attr.0.stream.vendor_id.markup">[0][0][0][0]</property>
  <property name="meta.attr.0.stream.encoder.markup">Lavc61.19.101 libx264</property>
  <property name="meta.media.1.stream.type">audio</property>
  <property name="meta.media.1.codec.sample_fmt">fltp</property>
  <property name="meta.media.1.codec.sample_rate">48000</property>
  <property name="meta.media.1.codec.channels">2</property>
  <property name="meta.media.1.codec.layout">stereo</property>
  <property name="meta.media.1.codec.name">aac</property>
  <property name="meta.media.1.codec.long_name">AAC (Advanced Audio Coding)</property>
  <property name="meta.media.1.codec.bit_rate">2250</property>
  <property name="meta.attr.1.stream.handler_name.markup">SoundHandler</property>
  <property name="meta.attr.1.stream.vendor_id.markup">[0][0][0][0]</property>
  <property name="meta.attr.minor_version.markup">512</property>
  <property name="meta.attr.major_brand.markup">isom</property>
  <property name="meta.attr.compatible_brands.markup">isomiso2avc1mp41</property>
  <property name="meta.attr.encoder.markup">Lavf61.9.100</property>
  <property name="seekable">1</property>
  <property name="meta.media.sample_aspect_num">1</property>
  <property name="meta.media.sample_aspect_den">1</property>
  <property name="audio_index">1</property>
  <property name="video_index">0</property>
  <property name="vstream">0</property>
  <property name="meta.media.frame_rate_num">48</property>
  <property name="meta.media.frame_rate_den">1</property>
  <property name="meta.media.colorspace">709</property>
  <property name="meta.media.color_trc">2</property>
  <property name="meta.media.has_b_frames">2</property>
  <property name="meta.media.width">5160</property>
  <property name="meta.media.height">2160</property>
  <property name="meta.media.aspect_ratio">1</property>
  <property name="meta.media.color_range">mpeg</property>
  <property name="astream">0</property>
  <property name="meta.media.top_field_first">0</property>
  <property name="meta.media.progressive">1</property>
  <property name="kdenlive:control_uuid">{4edc959a-9b4d-43fc-8502-5265f06b0913}</property>
  <property name="kdenlive:id">17</property>
  <property name="kdenlive:clip_type">2</property>
  <property name="kdenlive:file_size">12996409</property>
  <property name="kdenlive:file_hash">fbebcb91d9d04891b891d7b51e397707</property>
  <property name="kdenlive:folderid">-1</property>
 </chain>
 <chain id="chain25" out="00:00:03.958">
  <property name="length">96</property>
  <property name="eof">pause</property>
  <property name="resource">C:/dev/workspace/indy/dist/room/attic2/content/upscale/wide/book.mp4</property>
  <property name="mlt_service">avformat</property>
  <property name="meta.media.nb_streams">2</property>
  <property name="meta.media.0.stream.type">video</property>
  <property name="meta.media.0.stream.frame_rate">48</property>
  <property name="meta.media.0.stream.sample_aspect_ratio">0</property>
  <property name="meta.media.0.codec.width">5160</property>
  <property name="meta.media.0.codec.height">2160</property>
  <property name="meta.media.0.codec.rotate">0</property>
  <property name="meta.media.0.codec.pix_fmt">yuv444p</property>
  <property name="meta.media.0.codec.sample_aspect_ratio">0</property>
  <property name="meta.media.0.codec.colorspace">709</property>
  <property name="meta.media.0.codec.name">h264</property>
  <property name="meta.media.0.codec.long_name">H.264 / AVC / MPEG-4 AVC / MPEG-4 part 10</property>
  <property name="meta.media.0.codec.bit_rate">17042698</property>
  <property name="meta.attr.0.stream.handler_name.markup">VideoHandler</property>
  <property name="meta.attr.0.stream.vendor_id.markup">[0][0][0][0]</property>
  <property name="meta.attr.0.stream.encoder.markup">Lavc61.19.101 libx264</property>
  <property name="meta.media.1.stream.type">audio</property>
  <property name="meta.media.1.codec.sample_fmt">fltp</property>
  <property name="meta.media.1.codec.sample_rate">48000</property>
  <property name="meta.media.1.codec.channels">2</property>
  <property name="meta.media.1.codec.layout">stereo</property>
  <property name="meta.media.1.codec.name">aac</property>
  <property name="meta.media.1.codec.long_name">AAC (Advanced Audio Coding)</property>
  <property name="meta.media.1.codec.bit_rate">2250</property>
  <property name="meta.attr.1.stream.handler_name.markup">SoundHandler</property>
  <property name="meta.attr.1.stream.vendor_id.markup">[0][0][0][0]</property>
  <property name="meta.attr.minor_version.markup">512</property>
  <property name="meta.attr.major_brand.markup">isom</property>
  <property name="meta.attr.compatible_brands.markup">isomiso2avc1mp41</property>
  <property name="meta.attr.encoder.markup">Lavf61.9.100</property>
  <property name="seekable">1</property>
  <property name="meta.media.sample_aspect_num">1</property>
  <property name="meta.media.sample_aspect_den">1</property>
  <property name="audio_index">1</property>
  <property name="video_index">0</property>
  <property name="vstream">0</property>
  <property name="meta.media.frame_rate_num">48</property>
  <property name="meta.media.frame_rate_den">1</property>
  <property name="meta.media.colorspace">709</property>
  <property name="meta.media.color_trc">2</property>
  <property name="meta.media.has_b_frames">2</property>
  <property name="meta.media.width">5160</property>
  <property name="meta.media.height">2160</property>
  <property name="meta.media.aspect_ratio">1</property>
  <property name="meta.media.color_range">mpeg</property>
  <property name="astream">0</property>
  <property name="meta.media.top_field_first">0</property>
  <property name="meta.media.progressive">1</property>
  <property name="kdenlive:control_uuid">{47d4174b-74ba-46c2-9447-9049d3bb4d0c}</property>
  <property name="kdenlive:id">18</property>
  <property name="kdenlive:clip_type">2</property>
  <property name="kdenlive:file_size">8527486</property>
  <property name="kdenlive:file_hash">d8a236a46fe747079bb0a4a541172973</property>
  <property name="kdenlive:folderid">-1</property>
 </chain>
 <chain id="chain26" out="00:00:03.958">
  <property name="length">96</property>
  <property name="eof">pause</property>
  <property name="resource">C:/dev/workspace/indy/dist/room/attic2/content/upscale/wide/book2.mp4</property>
  <property name="mlt_service">avformat</property>
  <property name="meta.media.nb_streams">2</property>
  <property name="meta.media.0.stream.type">video</property>
  <property name="meta.media.0.stream.frame_rate">48</property>
  <property name="meta.media.0.stream.sample_aspect_ratio">0</property>
  <property name="meta.media.0.codec.width">5160</property>
  <property name="meta.media.0.codec.height">2160</property>
  <property name="meta.media.0.codec.rotate">0</property>
  <property name="meta.media.0.codec.pix_fmt">yuv444p</property>
  <property name="meta.media.0.codec.sample_aspect_ratio">0</property>
  <property name="meta.media.0.codec.colorspace">709</property>
  <property name="meta.media.0.codec.name">h264</property>
  <property name="meta.media.0.codec.long_name">H.264 / AVC / MPEG-4 AVC / MPEG-4 part 10</property>
  <property name="meta.media.0.codec.bit_rate">19451652</property>
  <property name="meta.attr.0.stream.handler_name.markup">VideoHandler</property>
  <property name="meta.attr.0.stream.vendor_id.markup">[0][0][0][0]</property>
  <property name="meta.attr.0.stream.encoder.markup">Lavc61.19.101 libx264</property>
  <property name="meta.media.1.stream.type">audio</property>
  <property name="meta.media.1.codec.sample_fmt">fltp</property>
  <property name="meta.media.1.codec.sample_rate">48000</property>
  <property name="meta.media.1.codec.channels">2</property>
  <property name="meta.media.1.codec.layout">stereo</property>
  <property name="meta.media.1.codec.name">aac</property>
  <property name="meta.media.1.codec.long_name">AAC (Advanced Audio Coding)</property>
  <property name="meta.media.1.codec.bit_rate">2250</property>
  <property name="meta.attr.1.stream.handler_name.markup">SoundHandler</property>
  <property name="meta.attr.1.stream.vendor_id.markup">[0][0][0][0]</property>
  <property name="meta.attr.minor_version.markup">512</property>
  <property name="meta.attr.major_brand.markup">isom</property>
  <property name="meta.attr.compatible_brands.markup">isomiso2avc1mp41</property>
  <property name="meta.attr.encoder.markup">Lavf61.9.100</property>
  <property name="seekable">1</property>
  <property name="meta.media.sample_aspect_num">1</property>
  <property name="meta.media.sample_aspect_den">1</property>
  <property name="audio_index">1</property>
  <property name="video_index">0</property>
  <property name="vstream">0</property>
  <property name="meta.media.frame_rate_num">48</property>
  <property name="meta.media.frame_rate_den">1</property>
  <property name="meta.media.colorspace">709</property>
  <property name="meta.media.color_trc">2</property>
  <property name="meta.media.has_b_frames">2</property>
  <property name="meta.media.width">5160</property>
  <property name="meta.media.height">2160</property>
  <property name="meta.media.aspect_ratio">1</property>
  <property name="meta.media.color_range">mpeg</property>
  <property name="astream">0</property>
  <property name="meta.media.top_field_first">0</property>
  <property name="meta.media.progressive">1</property>
  <property name="kdenlive:control_uuid">{a1ad722b-b4ba-4277-bd31-405c0fad5886}</property>
  <property name="kdenlive:id">19</property>
  <property name="kdenlive:clip_type">2</property>
  <property name="kdenlive:file_size">9731803</property>
  <property name="kdenlive:file_hash">0e7400e26d863cafbcec2700e1eed666</property>
  <property name="kdenlive:folderid">-1</property>
 </chain>
 <chain id="chain27" out="00:00:05.042">
  <property name="length">122</property>
  <property name="eof">pause</property>
  <property name="resource">C:/dev/workspace/indy/dist/room/attic2/content/upscale/wide/indy.mp4</property>
  <property name="mlt_service">avformat</property>
  <property name="meta.media.nb_streams">1</property>
  <property name="meta.media.0.stream.type">video</property>
  <property name="meta.media.0.stream.frame_rate">60</property>
  <property name="meta.media.0.stream.sample_aspect_ratio">0</property>
  <property name="meta.media.0.codec.width">5160</property>
  <property name="meta.media.0.codec.height">2160</property>
  <property name="meta.media.0.codec.rotate">0</property>
  <property name="meta.media.0.codec.pix_fmt">yuv444p</property>
  <property name="meta.media.0.codec.sample_aspect_ratio">0</property>
  <property name="meta.media.0.codec.colorspace">709</property>
  <property name="meta.media.0.codec.name">h264</property>
  <property name="meta.media.0.codec.long_name">H.264 / AVC / MPEG-4 AVC / MPEG-4 part 10</property>
  <property name="meta.media.0.codec.bit_rate">30132963</property>
  <property name="meta.attr.0.stream.handler_name.markup">VideoHandler</property>
  <property name="meta.attr.0.stream.vendor_id.markup">[0][0][0][0]</property>
  <property name="meta.attr.0.stream.encoder.markup">Lavc61.19.101 libx264</property>
  <property name="meta.attr.minor_version.markup">512</property>
  <property name="meta.attr.major_brand.markup">isom</property>
  <property name="meta.attr.compatible_brands.markup">isomiso2avc1mp41</property>
  <property name="meta.attr.encoder.markup">Lavf61.9.100</property>
  <property name="seekable">1</property>
  <property name="meta.media.sample_aspect_num">1</property>
  <property name="meta.media.sample_aspect_den">1</property>
  <property name="audio_index">-1</property>
  <property name="video_index">0</property>
  <property name="vstream">0</property>
  <property name="meta.media.frame_rate_num">60</property>
  <property name="meta.media.frame_rate_den">1</property>
  <property name="meta.media.colorspace">709</property>
  <property name="meta.media.color_trc">2</property>
  <property name="meta.media.has_b_frames">2</property>
  <property name="meta.media.width">5160</property>
  <property name="meta.media.height">2160</property>
  <property name="meta.media.aspect_ratio">1</property>
  <property name="meta.media.color_range">mpeg</property>
  <property name="meta.media.top_field_first">0</property>
  <property name="meta.media.progressive">1</property>
  <property name="kdenlive:control_uuid">{0bf7c8a8-76e0-4d93-8782-da6eb447392c}</property>
  <property name="kdenlive:id">20</property>
  <property name="kdenlive:clip_type">2</property>
  <property name="kdenlive:file_size">19151951</property>
  <property name="kdenlive:file_hash">dbeab0e57545d1e5e736da2faa4422b5</property>
  <property name="kdenlive:folderid">-1</property>
 </chain>
 <chain id="chain28" out="00:00:04.625">
  <property name="length">112</property>
  <property name="eof">pause</property>
  <property name="resource">C:/dev/workspace/indy/dist/room/attic2/content/upscale/wide/indy2.mp4</property>
  <property name="mlt_service">avformat</property>
  <property name="meta.media.nb_streams">2</property>
  <property name="meta.media.0.stream.type">video</property>
  <property name="meta.media.0.stream.frame_rate">60</property>
  <property name="meta.media.0.stream.sample_aspect_ratio">0</property>
  <property name="meta.media.0.codec.width">5160</property>
  <property name="meta.media.0.codec.height">2160</property>
  <property name="meta.media.0.codec.rotate">0</property>
  <property name="meta.media.0.codec.pix_fmt">yuv444p</property>
  <property name="meta.media.0.codec.sample_aspect_ratio">0</property>
  <property name="meta.media.0.codec.colorspace">709</property>
  <property name="meta.media.0.codec.name">h264</property>
  <property name="meta.media.0.codec.long_name">H.264 / AVC / MPEG-4 AVC / MPEG-4 part 10</property>
  <property name="meta.media.0.codec.bit_rate">40753865</property>
  <property name="meta.attr.0.stream.handler_name.markup">VideoHandler</property>
  <property name="meta.attr.0.stream.vendor_id.markup">[0][0][0][0]</property>
  <property name="meta.attr.0.stream.encoder.markup">Lavc61.19.101 libx264</property>
  <property name="meta.media.1.stream.type">audio</property>
  <property name="meta.media.1.codec.sample_fmt">fltp</property>
  <property name="meta.media.1.codec.sample_rate">48000</property>
  <property name="meta.media.1.codec.channels">2</property>
  <property name="meta.media.1.codec.layout">stereo</property>
  <property name="meta.media.1.codec.name">aac</property>
  <property name="meta.media.1.codec.long_name">AAC (Advanced Audio Coding)</property>
  <property name="meta.media.1.codec.bit_rate">2279</property>
  <property name="meta.attr.1.stream.handler_name.markup">SoundHandler</property>
  <property name="meta.attr.1.stream.vendor_id.markup">[0][0][0][0]</property>
  <property name="meta.attr.minor_version.markup">512</property>
  <property name="meta.attr.major_brand.markup">isom</property>
  <property name="meta.attr.compatible_brands.markup">isomiso2avc1mp41</property>
  <property name="meta.attr.encoder.markup">Lavf61.9.100</property>
  <property name="seekable">1</property>
  <property name="meta.media.sample_aspect_num">1</property>
  <property name="meta.media.sample_aspect_den">1</property>
  <property name="audio_index">1</property>
  <property name="video_index">0</property>
  <property name="vstream">0</property>
  <property name="meta.media.frame_rate_num">60</property>
  <property name="meta.media.frame_rate_den">1</property>
  <property name="meta.media.colorspace">709</property>
  <property name="meta.media.color_trc">2</property>
  <property name="meta.media.has_b_frames">2</property>
  <property name="meta.media.width">5160</property>
  <property name="meta.media.height">2160</property>
  <property name="meta.media.aspect_ratio">1</property>
  <property name="meta.media.color_range">mpeg</property>
  <property name="astream">0</property>
  <property name="meta.media.top_field_first">0</property>
  <property name="meta.media.progressive">1</property>
  <property name="kdenlive:control_uuid">{64c3a609-5d20-4645-93c5-c0de008f3e25}</property>
  <property name="kdenlive:id">21</property>
  <property name="kdenlive:clip_type">2</property>
  <property name="kdenlive:file_size">23783484</property>
  <property name="kdenlive:file_hash">9238de346303c1a1eca8d92bb5a4c3e0</property>
  <property name="kdenlive:folderid">-1</property>
 </chain>
 <chain id="chain29" out="00:00:04.625">
  <property name="length">112</property>
  <property name="eof">pause</property>
  <property name="resource">C:/dev/workspace/indy/dist/room/attic2/content/upscale/wide/indy4.mp4</property>
  <property name="mlt_service">avformat</property>
  <property name="meta.media.nb_streams">2</property>
  <property name="meta.media.0.stream.type">video</property>
  <property name="meta.media.0.stream.frame_rate">60</property>
  <property name="meta.media.0.stream.sample_aspect_ratio">0</property>
  <property name="meta.media.0.codec.width">5160</property>
  <property name="meta.media.0.codec.height">2160</property>
  <property name="meta.media.0.codec.rotate">0</property>
  <property name="meta.media.0.codec.pix_fmt">yuv444p</property>
  <property name="meta.media.0.codec.sample_aspect_ratio">0</property>
  <property name="meta.media.0.codec.colorspace">709</property>
  <property name="meta.media.0.codec.name">h264</property>
  <property name="meta.media.0.codec.long_name">H.264 / AVC / MPEG-4 AVC / MPEG-4 part 10</property>
  <property name="meta.media.0.codec.bit_rate">46717350</property>
  <property name="meta.attr.0.stream.handler_name.markup">VideoHandler</property>
  <property name="meta.attr.0.stream.vendor_id.markup">[0][0][0][0]</property>
  <property name="meta.attr.0.stream.encoder.markup">Lavc61.19.101 libx264</property>
  <property name="meta.media.1.stream.type">audio</property>
  <property name="meta.media.1.codec.sample_fmt">fltp</property>
  <property name="meta.media.1.codec.sample_rate">48000</property>
  <property name="meta.media.1.codec.channels">2</property>
  <property name="meta.media.1.codec.layout">stereo</property>
  <property name="meta.media.1.codec.name">aac</property>
  <property name="meta.media.1.codec.long_name">AAC (Advanced Audio Coding)</property>
  <property name="meta.media.1.codec.bit_rate">2279</property>
  <property name="meta.attr.1.stream.handler_name.markup">SoundHandler</property>
  <property name="meta.attr.1.stream.vendor_id.markup">[0][0][0][0]</property>
  <property name="meta.attr.minor_version.markup">512</property>
  <property name="meta.attr.major_brand.markup">isom</property>
  <property name="meta.attr.compatible_brands.markup">isomiso2avc1mp41</property>
  <property name="meta.attr.encoder.markup">Lavf61.9.100</property>
  <property name="seekable">1</property>
  <property name="meta.media.sample_aspect_num">1</property>
  <property name="meta.media.sample_aspect_den">1</property>
  <property name="audio_index">1</property>
  <property name="video_index">0</property>
  <property name="vstream">0</property>
  <property name="meta.media.frame_rate_num">60</property>
  <property name="meta.media.frame_rate_den">1</property>
  <property name="meta.media.colorspace">709</property>
  <property name="meta.media.color_trc">2</property>
  <property name="meta.media.has_b_frames">2</property>
  <property name="meta.media.width">5160</property>
  <property name="meta.media.height">2160</property>
  <property name="meta.media.aspect_ratio">1</property>
  <property name="meta.media.color_range">mpeg</property>
  <property name="astream">0</property>
  <property name="meta.media.top_field_first">0</property>
  <property name="meta.media.progressive">1</property>
  <property name="kdenlive:control_uuid">{0ec0567e-2b79-4a68-8520-02c5e24bd8c7}</property>
  <property name="kdenlive:id">22</property>
  <property name="kdenlive:clip_type">2</property>
  <property name="kdenlive:file_size">27262176</property>
  <property name="kdenlive:file_hash">ad0d855e02eeb7972d72dcbdca3347c3</property>
  <property name="kdenlive:folderid">-1</property>
 </chain>
 <playlist id="main_bin">
  <property name="kdenlive:folder.-1.2">Sequences</property>
  <property name="kdenlive:sequenceFolder">2</property>
  <property name="kdenlive:docproperties.activetimeline">{ed4ce6b4-837f-48d9-a74e-f669c4ffa62b}</property>
  <property name="kdenlive:docproperties.audioChannels">2</property>
  <property name="kdenlive:docproperties.binsort">0</property>
  <property name="kdenlive:docproperties.browserurl">C:/Users/barnaud/Videos/</property>
  <property name="kdenlive:docproperties.compositing">1</property>
  <property name="kdenlive:docproperties.documentid">1724145097408</property>
  <property name="kdenlive:docproperties.enableTimelineZone">0</property>
  <property name="kdenlive:docproperties.enableexternalproxy">0</property>
  <property name="kdenlive:docproperties.enableproxy">0</property>
  <property name="kdenlive:docproperties.externalproxyparams"/>
  <property name="kdenlive:docproperties.generateimageproxy">0</property>
  <property name="kdenlive:docproperties.generateproxy">0</property>
  <property name="kdenlive:docproperties.guidesCategories">[&#xd;&#xd;&#xd;&#xd;&#xd;&#xd;&#xd;&#xd;&#xd;&#xd;&#xd;&#xd;&#xd;&#xd;&#xd;&#xd;&#xd;&#xd;&#xd;&#xd;&#xd;
    {&#xd;&#xd;&#xd;&#xd;&#xd;&#xd;&#xd;&#xd;&#xd;&#xd;&#xd;&#xd;&#xd;&#xd;&#xd;&#xd;&#xd;&#xd;&#xd;&#xd;&#xd;
        "color": "#9b59b6",&#xd;&#xd;&#xd;&#xd;&#xd;&#xd;&#xd;&#xd;&#xd;&#xd;&#xd;&#xd;&#xd;&#xd;&#xd;&#xd;&#xd;&#xd;&#xd;&#xd;&#xd;
        "comment": "Category 1",&#xd;&#xd;&#xd;&#xd;&#xd;&#xd;&#xd;&#xd;&#xd;&#xd;&#xd;&#xd;&#xd;&#xd;&#xd;&#xd;&#xd;&#xd;&#xd;&#xd;&#xd;
        "index": 0&#xd;&#xd;&#xd;&#xd;&#xd;&#xd;&#xd;&#xd;&#xd;&#xd;&#xd;&#xd;&#xd;&#xd;&#xd;&#xd;&#xd;&#xd;&#xd;&#xd;&#xd;
    },&#xd;&#xd;&#xd;&#xd;&#xd;&#xd;&#xd;&#xd;&#xd;&#xd;&#xd;&#xd;&#xd;&#xd;&#xd;&#xd;&#xd;&#xd;&#xd;&#xd;&#xd;
    {&#xd;&#xd;&#xd;&#xd;&#xd;&#xd;&#xd;&#xd;&#xd;&#xd;&#xd;&#xd;&#xd;&#xd;&#xd;&#xd;&#xd;&#xd;&#xd;&#xd;&#xd;
        "color": "#3daee9",&#xd;&#xd;&#xd;&#xd;&#xd;&#xd;&#xd;&#xd;&#xd;&#xd;&#xd;&#xd;&#xd;&#xd;&#xd;&#xd;&#xd;&#xd;&#xd;&#xd;&#xd;
        "comment": "Category 2",&#xd;&#xd;&#xd;&#xd;&#xd;&#xd;&#xd;&#xd;&#xd;&#xd;&#xd;&#xd;&#xd;&#xd;&#xd;&#xd;&#xd;&#xd;&#xd;&#xd;&#xd;
        "index": 1&#xd;&#xd;&#xd;&#xd;&#xd;&#xd;&#xd;&#xd;&#xd;&#xd;&#xd;&#xd;&#xd;&#xd;&#xd;&#xd;&#xd;&#xd;&#xd;&#xd;&#xd;
    },&#xd;&#xd;&#xd;&#xd;&#xd;&#xd;&#xd;&#xd;&#xd;&#xd;&#xd;&#xd;&#xd;&#xd;&#xd;&#xd;&#xd;&#xd;&#xd;&#xd;&#xd;
    {&#xd;&#xd;&#xd;&#xd;&#xd;&#xd;&#xd;&#xd;&#xd;&#xd;&#xd;&#xd;&#xd;&#xd;&#xd;&#xd;&#xd;&#xd;&#xd;&#xd;&#xd;
        "color": "#1abc9c",&#xd;&#xd;&#xd;&#xd;&#xd;&#xd;&#xd;&#xd;&#xd;&#xd;&#xd;&#xd;&#xd;&#xd;&#xd;&#xd;&#xd;&#xd;&#xd;&#xd;&#xd;
        "comment": "Category 3",&#xd;&#xd;&#xd;&#xd;&#xd;&#xd;&#xd;&#xd;&#xd;&#xd;&#xd;&#xd;&#xd;&#xd;&#xd;&#xd;&#xd;&#xd;&#xd;&#xd;&#xd;
        "index": 2&#xd;&#xd;&#xd;&#xd;&#xd;&#xd;&#xd;&#xd;&#xd;&#xd;&#xd;&#xd;&#xd;&#xd;&#xd;&#xd;&#xd;&#xd;&#xd;&#xd;&#xd;
    },&#xd;&#xd;&#xd;&#xd;&#xd;&#xd;&#xd;&#xd;&#xd;&#xd;&#xd;&#xd;&#xd;&#xd;&#xd;&#xd;&#xd;&#xd;&#xd;&#xd;&#xd;
    {&#xd;&#xd;&#xd;&#xd;&#xd;&#xd;&#xd;&#xd;&#xd;&#xd;&#xd;&#xd;&#xd;&#xd;&#xd;&#xd;&#xd;&#xd;&#xd;&#xd;&#xd;
        "color": "#1cdc9a",&#xd;&#xd;&#xd;&#xd;&#xd;&#xd;&#xd;&#xd;&#xd;&#xd;&#xd;&#xd;&#xd;&#xd;&#xd;&#xd;&#xd;&#xd;&#xd;&#xd;&#xd;
        "comment": "Category 4",&#xd;&#xd;&#xd;&#xd;&#xd;&#xd;&#xd;&#xd;&#xd;&#xd;&#xd;&#xd;&#xd;&#xd;&#xd;&#xd;&#xd;&#xd;&#xd;&#xd;&#xd;
        "index": 3&#xd;&#xd;&#xd;&#xd;&#xd;&#xd;&#xd;&#xd;&#xd;&#xd;&#xd;&#xd;&#xd;&#xd;&#xd;&#xd;&#xd;&#xd;&#xd;&#xd;&#xd;
    },&#xd;&#xd;&#xd;&#xd;&#xd;&#xd;&#xd;&#xd;&#xd;&#xd;&#xd;&#xd;&#xd;&#xd;&#xd;&#xd;&#xd;&#xd;&#xd;&#xd;&#xd;
    {&#xd;&#xd;&#xd;&#xd;&#xd;&#xd;&#xd;&#xd;&#xd;&#xd;&#xd;&#xd;&#xd;&#xd;&#xd;&#xd;&#xd;&#xd;&#xd;&#xd;&#xd;
        "color": "#c9ce3b",&#xd;&#xd;&#xd;&#xd;&#xd;&#xd;&#xd;&#xd;&#xd;&#xd;&#xd;&#xd;&#xd;&#xd;&#xd;&#xd;&#xd;&#xd;&#xd;&#xd;&#xd;
        "comment": "Category 5",&#xd;&#xd;&#xd;&#xd;&#xd;&#xd;&#xd;&#xd;&#xd;&#xd;&#xd;&#xd;&#xd;&#xd;&#xd;&#xd;&#xd;&#xd;&#xd;&#xd;&#xd;
        "index": 4&#xd;&#xd;&#xd;&#xd;&#xd;&#xd;&#xd;&#xd;&#xd;&#xd;&#xd;&#xd;&#xd;&#xd;&#xd;&#xd;&#xd;&#xd;&#xd;&#xd;&#xd;
    },&#xd;&#xd;&#xd;&#xd;&#xd;&#xd;&#xd;&#xd;&#xd;&#xd;&#xd;&#xd;&#xd;&#xd;&#xd;&#xd;&#xd;&#xd;&#xd;&#xd;&#xd;
    {&#xd;&#xd;&#xd;&#xd;&#xd;&#xd;&#xd;&#xd;&#xd;&#xd;&#xd;&#xd;&#xd;&#xd;&#xd;&#xd;&#xd;&#xd;&#xd;&#xd;&#xd;
        "color": "#fdbc4b",&#xd;&#xd;&#xd;&#xd;&#xd;&#xd;&#xd;&#xd;&#xd;&#xd;&#xd;&#xd;&#xd;&#xd;&#xd;&#xd;&#xd;&#xd;&#xd;&#xd;&#xd;
        "comment": "Category 6",&#xd;&#xd;&#xd;&#xd;&#xd;&#xd;&#xd;&#xd;&#xd;&#xd;&#xd;&#xd;&#xd;&#xd;&#xd;&#xd;&#xd;&#xd;&#xd;&#xd;&#xd;
        "index": 5&#xd;&#xd;&#xd;&#xd;&#xd;&#xd;&#xd;&#xd;&#xd;&#xd;&#xd;&#xd;&#xd;&#xd;&#xd;&#xd;&#xd;&#xd;&#xd;&#xd;&#xd;
    },&#xd;&#xd;&#xd;&#xd;&#xd;&#xd;&#xd;&#xd;&#xd;&#xd;&#xd;&#xd;&#xd;&#xd;&#xd;&#xd;&#xd;&#xd;&#xd;&#xd;&#xd;
    {&#xd;&#xd;&#xd;&#xd;&#xd;&#xd;&#xd;&#xd;&#xd;&#xd;&#xd;&#xd;&#xd;&#xd;&#xd;&#xd;&#xd;&#xd;&#xd;&#xd;&#xd;
        "color": "#f39c1f",&#xd;&#xd;&#xd;&#xd;&#xd;&#xd;&#xd;&#xd;&#xd;&#xd;&#xd;&#xd;&#xd;&#xd;&#xd;&#xd;&#xd;&#xd;&#xd;&#xd;&#xd;
        "comment": "Category 7",&#xd;&#xd;&#xd;&#xd;&#xd;&#xd;&#xd;&#xd;&#xd;&#xd;&#xd;&#xd;&#xd;&#xd;&#xd;&#xd;&#xd;&#xd;&#xd;&#xd;&#xd;
        "index": 6&#xd;&#xd;&#xd;&#xd;&#xd;&#xd;&#xd;&#xd;&#xd;&#xd;&#xd;&#xd;&#xd;&#xd;&#xd;&#xd;&#xd;&#xd;&#xd;&#xd;&#xd;
    },&#xd;&#xd;&#xd;&#xd;&#xd;&#xd;&#xd;&#xd;&#xd;&#xd;&#xd;&#xd;&#xd;&#xd;&#xd;&#xd;&#xd;&#xd;&#xd;&#xd;&#xd;
    {&#xd;&#xd;&#xd;&#xd;&#xd;&#xd;&#xd;&#xd;&#xd;&#xd;&#xd;&#xd;&#xd;&#xd;&#xd;&#xd;&#xd;&#xd;&#xd;&#xd;&#xd;
        "color": "#f47750",&#xd;&#xd;&#xd;&#xd;&#xd;&#xd;&#xd;&#xd;&#xd;&#xd;&#xd;&#xd;&#xd;&#xd;&#xd;&#xd;&#xd;&#xd;&#xd;&#xd;&#xd;
        "comment": "Category 8",&#xd;&#xd;&#xd;&#xd;&#xd;&#xd;&#xd;&#xd;&#xd;&#xd;&#xd;&#xd;&#xd;&#xd;&#xd;&#xd;&#xd;&#xd;&#xd;&#xd;&#xd;
        "index": 7&#xd;&#xd;&#xd;&#xd;&#xd;&#xd;&#xd;&#xd;&#xd;&#xd;&#xd;&#xd;&#xd;&#xd;&#xd;&#xd;&#xd;&#xd;&#xd;&#xd;&#xd;
    },&#xd;&#xd;&#xd;&#xd;&#xd;&#xd;&#xd;&#xd;&#xd;&#xd;&#xd;&#xd;&#xd;&#xd;&#xd;&#xd;&#xd;&#xd;&#xd;&#xd;&#xd;
    {&#xd;&#xd;&#xd;&#xd;&#xd;&#xd;&#xd;&#xd;&#xd;&#xd;&#xd;&#xd;&#xd;&#xd;&#xd;&#xd;&#xd;&#xd;&#xd;&#xd;&#xd;
        "color": "#da4453",&#xd;&#xd;&#xd;&#xd;&#xd;&#xd;&#xd;&#xd;&#xd;&#xd;&#xd;&#xd;&#xd;&#xd;&#xd;&#xd;&#xd;&#xd;&#xd;&#xd;&#xd;
        "comment": "Category 9",&#xd;&#xd;&#xd;&#xd;&#xd;&#xd;&#xd;&#xd;&#xd;&#xd;&#xd;&#xd;&#xd;&#xd;&#xd;&#xd;&#xd;&#xd;&#xd;&#xd;&#xd;
        "index": 8&#xd;&#xd;&#xd;&#xd;&#xd;&#xd;&#xd;&#xd;&#xd;&#xd;&#xd;&#xd;&#xd;&#xd;&#xd;&#xd;&#xd;&#xd;&#xd;&#xd;&#xd;
    }&#xd;&#xd;&#xd;&#xd;&#xd;&#xd;&#xd;&#xd;&#xd;&#xd;&#xd;&#xd;&#xd;&#xd;&#xd;&#xd;&#xd;&#xd;&#xd;&#xd;&#xd;
]&#xd;&#xd;&#xd;&#xd;&#xd;&#xd;&#xd;&#xd;&#xd;&#xd;&#xd;&#xd;&#xd;&#xd;&#xd;&#xd;&#xd;&#xd;&#xd;&#xd;&#xd;
</property>
  <property name="kdenlive:docproperties.kdenliveversion">25.04.1</property>
  <property name="kdenlive:docproperties.opensequences">{ed4ce6b4-837f-48d9-a74e-f669c4ffa62b}</property>
  <property name="kdenlive:docproperties.previewextension"/>
  <property name="kdenlive:docproperties.previewparameters"/>
  <property name="kdenlive:docproperties.profile">uhd_2160p_24</property>
  <property name="kdenlive:docproperties.proxyextension"/>
  <property name="kdenlive:docproperties.proxyimageminsize">2000</property>
  <property name="kdenlive:docproperties.proxyimagesize">800</property>
  <property name="kdenlive:docproperties.proxyminsize">1000</property>
  <property name="kdenlive:docproperties.proxyparams"/>
  <property name="kdenlive:docproperties.proxyresize">640</property>
  <property name="kdenlive:docproperties.rendercategory">Generic (HD for web, mobile devices...)</property>
  <property name="kdenlive:docproperties.rendercustomquality">-1</property>
  <property name="kdenlive:docproperties.renderendguide">-1</property>
  <property name="kdenlive:docproperties.renderexportaudio">0</property>
  <property name="kdenlive:docproperties.renderfullcolorrange">0</property>
  <property name="kdenlive:docproperties.rendermode">1</property>
  <property name="kdenlive:docproperties.renderplay">0</property>
  <property name="kdenlive:docproperties.renderpreview">0</property>
  <property name="kdenlive:docproperties.renderprofile">MP4-H264/AAC</property>
  <property name="kdenlive:docproperties.renderrescale">0</property>
  <property name="kdenlive:docproperties.renderrescaleheight">1080</property>
  <property name="kdenlive:docproperties.renderrescalewidth">2580</property>
  <property name="kdenlive:docproperties.renderspeed">6</property>
  <property name="kdenlive:docproperties.renderstartguide">-1</property>
  <property name="kdenlive:docproperties.rendertcoverlay">0</property>
  <property name="kdenlive:docproperties.rendertctype">-1</property>
  <property name="kdenlive:docproperties.rendertwopass">0</property>
  <property name="kdenlive:docproperties.renderurl">C:/dev/workspace/indy/deploy/wide/attic2-1-test7.mp4</property>
  <property name="kdenlive:docproperties.seekOffset">30000</property>
  <property name="kdenlive:docproperties.sessionid">{ce06a488-9d12-40f3-b0d7-3a8af59abb12}</property>
  <property name="kdenlive:docproperties.uuid">{ed4ce6b4-837f-48d9-a74e-f669c4ffa62b}</property>
  <property name="kdenlive:docproperties.version">1.1</property>
  <property name="kdenlive:expandedFolders"/>
  <property name="kdenlive:binZoom">6</property>
  <property name="kdenlive:extraBins">project_bin:-1:0</property>
  <property name="kdenlive:documentnotes"/>
  <property name="kdenlive:documentnotesversion">2</property>
  <property name="xml_retain">1</property>
  <entry in="00:00:00.000" out="00:00:43.958" producer="tractor10"/>
  <entry in="00:00:00.000" out="00:00:05.042" producer="chain13"/>
  <entry in="00:00:00.000" out="00:03:11.125" producer="chain14"/>
  <entry in="00:00:00.000" out="00:00:03.958" producer="chain15"/>
  <entry in="00:00:00.000" out="00:00:03.958" producer="chain16"/>
  <entry in="00:00:00.000" out="00:00:03.958" producer="chain17"/>
  <entry in="00:00:00.000" out="00:00:04.625" producer="chain18"/>
  <entry in="00:00:00.000" out="00:00:05.042" producer="chain19"/>
  <entry in="00:00:00.000" out="00:00:04.625" producer="chain20"/>
  <entry in="00:00:00.000" out="00:00:20.208" producer="producer17"/>
  <entry in="00:00:00.000" out="00:00:16.542" producer="producer18"/>
  <entry in="00:00:00.000" out="00:00:03.958" producer="chain21"/>
  <entry in="00:00:00.000" out="00:00:03.958" producer="chain22"/>
  <entry in="00:00:00.000" out="00:00:03.958" producer="chain23"/>
  <entry in="00:00:00.000" out="00:00:03.958" producer="chain24"/>
  <entry in="00:00:00.000" out="00:00:03.958" producer="chain25"/>
  <entry in="00:00:00.000" out="00:00:03.958" producer="chain26"/>
  <entry in="00:00:00.000" out="00:00:37.708" producer="producer4"/>
  <entry in="00:00:00.000" out="00:00:04.958" producer="producer19"/>
  <entry in="00:00:00.000" out="00:00:05.042" producer="chain27"/>
  <entry in="00:00:00.000" out="00:00:04.625" producer="chain28"/>
  <entry in="00:00:00.000" out="00:00:04.958" producer="producer11"/>
  <entry in="00:00:00.000" out="00:00:04.625" producer="chain29"/>
 </playlist>
 <tractor id="tractor11" in="00:00:00.000" out="00:00:43.958">
  <property name="kdenlive:projectTractor">1</property>
  <track in="00:00:00.000" out="00:00:43.958" producer="tractor10"/>
 </tractor>
</mlt>
