<svg xmlns="http://www.w3.org/2000/svg" data-name="Layer 1" viewBox="0 0 100 125" x="0px" y="0px"><title>44</title><path d="M5.77734,47.98511a3.00006,3.00006,0,0,0,0,4.02929C6.58105,52.9021,25.75391,73.74585,50,73.74585c24.24707,0,43.41895-20.84375,44.22266-21.73145a3.00006,3.00006,0,0,0,0-4.02929C93.419,47.09741,74.24707,26.25464,50,26.25464,25.75391,26.25464,6.582,47.09741,5.77734,47.98511ZM50,66.20679a16.20655,16.20655,0,1,1,16.207-16.207A16.22463,16.22463,0,0,1,50,66.20679ZM32.639,36.17816a22.13808,22.13808,0,0,0,.00012,27.64411A74.32117,74.32117,0,0,1,12.2373,49.99976,74.33315,74.33315,0,0,1,32.639,36.17816ZM67.3623,63.82159a22.13794,22.13794,0,0,0-.00018-27.64318A74.31453,74.31453,0,0,1,87.7627,49.99976,74.324,74.324,0,0,1,67.3623,63.82159Z"/><circle cx="50.00026" cy="50" r="9.64424" transform="matrix(0.98709, -0.16018, 0.16018, 0.98709, -7.36349, 8.65479)"/><path d="M52.50562,15.66992V7.5a2.5,2.5,0,0,0-5,0v8.16992a2.5,2.5,0,1,0,5,0Z"/><path d="M76.006,24.34973A2.5,2.5,0,0,0,79.24506,22.933l2.99646-7.65356a2.50007,2.50007,0,0,0-4.656-1.82288l-2.99646,7.65357A2.50005,2.50005,0,0,0,76.006,24.34973Z"/><path d="M23.99457,24.34973a2.5,2.5,0,0,0,1.41687-3.23956L22.415,13.4566a2.50007,2.50007,0,0,0-4.656,1.82288L20.75543,22.933A2.50008,2.50008,0,0,0,23.99457,24.34973Z"/><path d="M47.50562,84.33008V92.5a2.5,2.5,0,0,0,5,0V84.33008a2.5,2.5,0,0,0-5,0Z"/><path d="M76.006,75.65027a2.50005,2.50005,0,0,0-1.41693,3.23956l2.99646,7.65357a2.50007,2.50007,0,0,0,4.656-1.82288L79.24506,77.067A2.5,2.5,0,0,0,76.006,75.65027Z"/><path d="M20.75543,77.067,17.759,84.72052a2.50007,2.50007,0,0,0,4.656,1.82288l2.99646-7.65357a2.50006,2.50006,0,1,0-4.656-1.82287Z"/><text x="0" y="115" fill="#000000" font-size="5px" font-weight="bold" font-family="'Helvetica Neue', Helvetica, Arial-Unicode, Arial, Sans-serif">Created by Markus</text><text x="0" y="120" fill="#000000" font-size="5px" font-weight="bold" font-family="'Helvetica Neue', Helvetica, Arial-Unicode, Arial, Sans-serif">from the Noun Project</text></svg>