<?xml version='1.0' encoding='utf-8'?>
<mlt LC_NUMERIC="en_US.UTF-8" producer="main_bin" root="C:/dev/workspace/indy/dist/room/attic/data" version="7.32.0">
 <profile colorspace="709" description="4K UHD 2160p 24 fps" display_aspect_den="9" display_aspect_num="16" frame_rate_den="1" frame_rate_num="24" height="2160" progressive="1" sample_aspect_den="1" sample_aspect_num="1" width="3840"/>
 <chain id="chain39" out="00:00:03.958">
  <property name="length">96</property>
  <property name="eof">pause</property>
  <property name="resource">C:/dev/workspace/indy/dist/room/attic/content/upscale/attic5.mp4</property>
  <property name="mlt_service">avformat-novalidate</property>
  <property name="meta.media.nb_streams">1</property>
  <property name="meta.media.0.stream.type">video</property>
  <property name="meta.media.0.stream.frame_rate">24</property>
  <property name="meta.media.0.stream.sample_aspect_ratio">1</property>
  <property name="meta.media.0.codec.width">3840</property>
  <property name="meta.media.0.codec.height">2160</property>
  <property name="meta.media.0.codec.rotate">0</property>
  <property name="meta.media.0.codec.pix_fmt">yuv420p</property>
  <property name="meta.media.0.codec.sample_aspect_ratio">1</property>
  <property name="meta.media.0.codec.colorspace">709</property>
  <property name="meta.media.0.codec.name">h264</property>
  <property name="meta.media.0.codec.long_name">H.264 / AVC / MPEG-4 AVC / MPEG-4 part 10</property>
  <property name="meta.media.0.codec.bit_rate">51994028</property>
  <property name="meta.attr.0.stream.handler_name.markup">VideoHandler</property>
  <property name="meta.attr.0.stream.vendor_id.markup">[0][0][0][0]</property>
  <property name="meta.attr.0.stream.encoder.markup">Lavc61.5.103 h264_nvenc</property>
  <property name="meta.attr.minor_version.markup">512</property>
  <property name="meta.attr.major_brand.markup">isom</property>
  <property name="meta.attr.compatible_brands.markup">isomiso2avc1mp41</property>
  <property name="meta.attr.videoai.markup">Enhanced using iris-3; mode: auto; revert compression at 0; recover details at 0; sharpen at 0; reduce noise at 0; dehalo at 0; anti-alias/deblur at 0; focus fix Off; and recover original detail at 20. Changed resolution to 3840x2160</property>
  <property name="meta.attr.encoder.markup">Lavf61.3.103</property>
  <property name="seekable">1</property>
  <property name="meta.media.sample_aspect_num">1</property>
  <property name="meta.media.sample_aspect_den">1</property>
  <property name="audio_index">-1</property>
  <property name="video_index">0</property>
  <property name="vstream">0</property>
  <property name="meta.media.frame_rate_num">24</property>
  <property name="meta.media.frame_rate_den">1</property>
  <property name="meta.media.colorspace">709</property>
  <property name="meta.media.color_trc">2</property>
  <property name="meta.media.has_b_frames">0</property>
  <property name="meta.media.width">3840</property>
  <property name="meta.media.height">2160</property>
  <property name="meta.media.color_range">mpeg</property>
  <property name="meta.media.top_field_first">0</property>
  <property name="meta.media.progressive">1</property>
  <property name="kdenlive:proxy">-</property>
  <property name="kdenlive:originalurl">C:/dev/workspace/indy/dist/room/attic/content/upscale/attic5.mp4</property>
  <property name="kdenlive:id">4</property>
  <property name="mute_on_pause">0</property>
  <property name="kdenlive:clip_type">2</property>
  <property name="kdenlive:file_size">25992821</property>
  <property name="kdenlive:folderid">-1</property>
  <property name="kdenlive:control_uuid">{2350f2d9-bcdb-4f85-a571-8f0e497a5e75}</property>
  <property name="kdenlive:file_hash">e0131611ac38c1fbc7416abb6c52d314</property>
 </chain>
 <chain id="chain40" out="00:00:03.958">
  <property name="length">96</property>
  <property name="eof">pause</property>
  <property name="resource">C:/dev/workspace/indy/dist/room/attic/content/upscale/attic6.mp4</property>
  <property name="mlt_service">avformat-novalidate</property>
  <property name="meta.media.nb_streams">1</property>
  <property name="meta.media.0.stream.type">video</property>
  <property name="meta.media.0.stream.frame_rate">24</property>
  <property name="meta.media.0.stream.sample_aspect_ratio">1</property>
  <property name="meta.media.0.codec.width">3840</property>
  <property name="meta.media.0.codec.height">2160</property>
  <property name="meta.media.0.codec.rotate">0</property>
  <property name="meta.media.0.codec.pix_fmt">yuv420p</property>
  <property name="meta.media.0.codec.sample_aspect_ratio">1</property>
  <property name="meta.media.0.codec.colorspace">709</property>
  <property name="meta.media.0.codec.name">h264</property>
  <property name="meta.media.0.codec.long_name">H.264 / AVC / MPEG-4 AVC / MPEG-4 part 10</property>
  <property name="meta.media.0.codec.bit_rate">56113096</property>
  <property name="meta.attr.0.stream.handler_name.markup">VideoHandler</property>
  <property name="meta.attr.0.stream.vendor_id.markup">[0][0][0][0]</property>
  <property name="meta.attr.0.stream.encoder.markup">Lavc61.5.103 h264_nvenc</property>
  <property name="meta.attr.minor_version.markup">512</property>
  <property name="meta.attr.major_brand.markup">isom</property>
  <property name="meta.attr.compatible_brands.markup">isomiso2avc1mp41</property>
  <property name="meta.attr.videoai.markup">Enhanced using iris-3; mode: auto; revert compression at 0; recover details at 0; sharpen at 0; reduce noise at 0; dehalo at 0; anti-alias/deblur at 0; focus fix Off; and recover original detail at 20. Changed resolution to 3840x2160</property>
  <property name="meta.attr.encoder.markup">Lavf61.3.103</property>
  <property name="seekable">1</property>
  <property name="meta.media.sample_aspect_num">1</property>
  <property name="meta.media.sample_aspect_den">1</property>
  <property name="audio_index">-1</property>
  <property name="video_index">0</property>
  <property name="vstream">0</property>
  <property name="meta.media.frame_rate_num">24</property>
  <property name="meta.media.frame_rate_den">1</property>
  <property name="meta.media.colorspace">709</property>
  <property name="meta.media.color_trc">2</property>
  <property name="meta.media.has_b_frames">0</property>
  <property name="meta.media.width">3840</property>
  <property name="meta.media.height">2160</property>
  <property name="meta.media.color_range">mpeg</property>
  <property name="meta.media.top_field_first">0</property>
  <property name="meta.media.progressive">1</property>
  <property name="kdenlive:proxy">-</property>
  <property name="kdenlive:originalurl">C:/dev/workspace/indy/dist/room/attic/content/upscale/attic6.mp4</property>
  <property name="kdenlive:id">5</property>
  <property name="mute_on_pause">0</property>
  <property name="kdenlive:clip_type">2</property>
  <property name="kdenlive:file_size">27976198</property>
  <property name="kdenlive:folderid">-1</property>
  <property name="kdenlive:control_uuid">{04713a07-312b-42d8-bfb2-61124fd89200}</property>
  <property name="kdenlive:file_hash">b3c279d70db48107f9ab36961b770aa4</property>
 </chain>
 <chain id="chain38" out="00:00:03.958">
  <property name="length">96</property>
  <property name="eof">pause</property>
  <property name="resource">C:/dev/workspace/indy/dist/room/attic/content/upscale/attic7.mp4</property>
  <property name="mlt_service">avformat-novalidate</property>
  <property name="meta.media.nb_streams">1</property>
  <property name="meta.media.0.stream.type">video</property>
  <property name="meta.media.0.stream.frame_rate">24</property>
  <property name="meta.media.0.stream.sample_aspect_ratio">1</property>
  <property name="meta.media.0.codec.width">3840</property>
  <property name="meta.media.0.codec.height">2160</property>
  <property name="meta.media.0.codec.rotate">0</property>
  <property name="meta.media.0.codec.pix_fmt">yuv420p</property>
  <property name="meta.media.0.codec.sample_aspect_ratio">1</property>
  <property name="meta.media.0.codec.colorspace">709</property>
  <property name="meta.media.0.codec.name">h264</property>
  <property name="meta.media.0.codec.long_name">H.264 / AVC / MPEG-4 AVC / MPEG-4 part 10</property>
  <property name="meta.media.0.codec.bit_rate">54189734</property>
  <property name="meta.attr.0.stream.handler_name.markup">VideoHandler</property>
  <property name="meta.attr.0.stream.vendor_id.markup">[0][0][0][0]</property>
  <property name="meta.attr.0.stream.encoder.markup">Lavc61.5.103 h264_nvenc</property>
  <property name="meta.attr.minor_version.markup">512</property>
  <property name="meta.attr.major_brand.markup">isom</property>
  <property name="meta.attr.compatible_brands.markup">isomiso2avc1mp41</property>
  <property name="meta.attr.videoai.markup">Enhanced using iris-3; mode: auto; revert compression at 0; recover details at 0; sharpen at 0; reduce noise at 0; dehalo at 0; anti-alias/deblur at 0; focus fix Off; and recover original detail at 20. Changed resolution to 3840x2160</property>
  <property name="meta.attr.encoder.markup">Lavf61.3.103</property>
  <property name="seekable">1</property>
  <property name="meta.media.sample_aspect_num">1</property>
  <property name="meta.media.sample_aspect_den">1</property>
  <property name="audio_index">-1</property>
  <property name="video_index">0</property>
  <property name="vstream">0</property>
  <property name="meta.media.frame_rate_num">24</property>
  <property name="meta.media.frame_rate_den">1</property>
  <property name="meta.media.colorspace">709</property>
  <property name="meta.media.color_trc">2</property>
  <property name="meta.media.has_b_frames">0</property>
  <property name="meta.media.width">3840</property>
  <property name="meta.media.height">2160</property>
  <property name="meta.media.color_range">mpeg</property>
  <property name="meta.media.top_field_first">0</property>
  <property name="meta.media.progressive">1</property>
  <property name="kdenlive:proxy">-</property>
  <property name="kdenlive:originalurl">C:/dev/workspace/indy/dist/room/attic/content/upscale/attic7.mp4</property>
  <property name="kdenlive:id">6</property>
  <property name="mute_on_pause">0</property>
  <property name="kdenlive:clip_type">2</property>
  <property name="kdenlive:file_size">27097044</property>
  <property name="kdenlive:folderid">-1</property>
  <property name="kdenlive:control_uuid">{50f9a4e6-33c6-4400-a886-7a9b8decb923}</property>
  <property name="kdenlive:file_hash">901b5bc00800ea76f58219a19469b79f</property>
 </chain>
 <producer id="producer13" in="00:00:00.000" out="00:00:26.125">
  <property name="length">00:00:26.167</property>
  <property name="eof">pause</property>
  <property name="resource">C:/dev/workspace/indy/dist/room/attic/content/tag2.png</property>
  <property name="ttl">25</property>
  <property name="aspect_ratio">1</property>
  <property name="meta.media.progressive">1</property>
  <property name="seekable">1</property>
  <property name="format">2</property>
  <property name="meta.media.width">2816</property>
  <property name="meta.media.height">1536</property>
  <property name="mlt_service">qimage</property>
  <property name="kdenlive:clipname"/>
  <property name="kdenlive:duration">00:00:05.000</property>
  <property name="xml">was here</property>
  <property name="kdenlive:folderid">-1</property>
  <property name="kdenlive:id">7</property>
  <property name="kdenlive:clip_type">2</property>
  <property name="kdenlive:file_size">108718</property>
  <property name="kdenlive:file_hash">782a8fefcf1e143fd778c116c67b439f</property>
  <property name="kdenlive:control_uuid">{1026013a-0379-4d86-a5d6-eff91e70d502}</property>
 </producer>
 <chain id="chain41" out="00:00:03.958">
  <property name="length">96</property>
  <property name="eof">pause</property>
  <property name="resource">C:/dev/workspace/indy/dist/room/attic/content/upscale/attic8.mp4</property>
  <property name="mlt_service">avformat-novalidate</property>
  <property name="meta.media.nb_streams">1</property>
  <property name="meta.media.0.stream.type">video</property>
  <property name="meta.media.0.stream.frame_rate">24</property>
  <property name="meta.media.0.stream.sample_aspect_ratio">1</property>
  <property name="meta.media.0.codec.width">3840</property>
  <property name="meta.media.0.codec.height">2160</property>
  <property name="meta.media.0.codec.rotate">0</property>
  <property name="meta.media.0.codec.pix_fmt">yuv420p</property>
  <property name="meta.media.0.codec.sample_aspect_ratio">1</property>
  <property name="meta.media.0.codec.colorspace">709</property>
  <property name="meta.media.0.codec.name">h264</property>
  <property name="meta.media.0.codec.long_name">H.264 / AVC / MPEG-4 AVC / MPEG-4 part 10</property>
  <property name="meta.media.0.codec.bit_rate">61912004</property>
  <property name="meta.attr.0.stream.handler_name.markup">VideoHandler</property>
  <property name="meta.attr.0.stream.vendor_id.markup">[0][0][0][0]</property>
  <property name="meta.attr.0.stream.encoder.markup">Lavc61.5.103 h264_nvenc</property>
  <property name="meta.attr.minor_version.markup">512</property>
  <property name="meta.attr.major_brand.markup">isom</property>
  <property name="meta.attr.compatible_brands.markup">isomiso2avc1mp41</property>
  <property name="meta.attr.videoai.markup">Enhanced using iris-3; mode: auto; revert compression at 0; recover details at 0; sharpen at 0; reduce noise at 0; dehalo at 0; anti-alias/deblur at 0; focus fix Off; and recover original detail at 20. Changed resolution to 3840x2160</property>
  <property name="meta.attr.encoder.markup">Lavf61.3.103</property>
  <property name="seekable">1</property>
  <property name="meta.media.sample_aspect_num">1</property>
  <property name="meta.media.sample_aspect_den">1</property>
  <property name="audio_index">-1</property>
  <property name="video_index">0</property>
  <property name="vstream">0</property>
  <property name="meta.media.frame_rate_num">24</property>
  <property name="meta.media.frame_rate_den">1</property>
  <property name="meta.media.colorspace">709</property>
  <property name="meta.media.color_trc">2</property>
  <property name="meta.media.has_b_frames">0</property>
  <property name="meta.media.width">3840</property>
  <property name="meta.media.height">2160</property>
  <property name="meta.media.color_range">mpeg</property>
  <property name="meta.media.top_field_first">0</property>
  <property name="meta.media.progressive">1</property>
  <property name="kdenlive:proxy">-</property>
  <property name="kdenlive:originalurl">C:/dev/workspace/indy/dist/room/attic/content/upscale/attic8.mp4</property>
  <property name="kdenlive:id">8</property>
  <property name="mute_on_pause">0</property>
  <property name="kdenlive:clip_type">2</property>
  <property name="kdenlive:file_size">31032049</property>
  <property name="kdenlive:folderid">-1</property>
  <property name="kdenlive:control_uuid">{67a556ec-426e-4769-8455-354fc873d0b6}</property>
  <property name="kdenlive:file_hash">d2ba3e73f5e8c7e758e85baa2a69ee1e</property>
 </chain>
 <chain id="chain36" out="00:00:03.958">
  <property name="length">96</property>
  <property name="eof">pause</property>
  <property name="resource">C:/dev/workspace/indy/dist/room/attic/content/upscale/desk.mp4</property>
  <property name="mlt_service">avformat-novalidate</property>
  <property name="meta.media.nb_streams">1</property>
  <property name="meta.media.0.stream.type">video</property>
  <property name="meta.media.0.stream.frame_rate">24</property>
  <property name="meta.media.0.stream.sample_aspect_ratio">1</property>
  <property name="meta.media.0.codec.width">3840</property>
  <property name="meta.media.0.codec.height">2160</property>
  <property name="meta.media.0.codec.rotate">0</property>
  <property name="meta.media.0.codec.pix_fmt">yuv420p</property>
  <property name="meta.media.0.codec.sample_aspect_ratio">1</property>
  <property name="meta.media.0.codec.colorspace">709</property>
  <property name="meta.media.0.codec.name">h264</property>
  <property name="meta.media.0.codec.long_name">H.264 / AVC / MPEG-4 AVC / MPEG-4 part 10</property>
  <property name="meta.media.0.codec.bit_rate">64732542</property>
  <property name="meta.attr.0.stream.handler_name.markup">VideoHandler</property>
  <property name="meta.attr.0.stream.vendor_id.markup">[0][0][0][0]</property>
  <property name="meta.attr.0.stream.encoder.markup">Lavc61.5.103 h264_nvenc</property>
  <property name="meta.attr.minor_version.markup">512</property>
  <property name="meta.attr.major_brand.markup">isom</property>
  <property name="meta.attr.compatible_brands.markup">isomiso2avc1mp41</property>
  <property name="meta.attr.videoai.markup">Enhanced using iris-3; mode: auto; revert compression at 0; recover details at 0; sharpen at 0; reduce noise at 0; dehalo at 0; anti-alias/deblur at 0; focus fix Off; and recover original detail at 20. Changed resolution to 3840x2160</property>
  <property name="meta.attr.encoder.markup">Lavf61.3.103</property>
  <property name="seekable">1</property>
  <property name="meta.media.sample_aspect_num">1</property>
  <property name="meta.media.sample_aspect_den">1</property>
  <property name="audio_index">-1</property>
  <property name="video_index">0</property>
  <property name="vstream">0</property>
  <property name="meta.media.frame_rate_num">24</property>
  <property name="meta.media.frame_rate_den">1</property>
  <property name="meta.media.colorspace">709</property>
  <property name="meta.media.color_trc">2</property>
  <property name="meta.media.has_b_frames">0</property>
  <property name="meta.media.width">3840</property>
  <property name="meta.media.height">2160</property>
  <property name="meta.media.color_range">mpeg</property>
  <property name="meta.media.top_field_first">0</property>
  <property name="meta.media.progressive">1</property>
  <property name="kdenlive:proxy">-</property>
  <property name="kdenlive:originalurl">C:/dev/workspace/indy/dist/room/attic/content/upscale/desk.mp4</property>
  <property name="kdenlive:id">9</property>
  <property name="mute_on_pause">0</property>
  <property name="kdenlive:clip_type">2</property>
  <property name="kdenlive:file_size">32412404</property>
  <property name="kdenlive:folderid">-1</property>
  <property name="kdenlive:control_uuid">{51c21c80-770e-42a1-a5a2-f31b49a20877}</property>
  <property name="kdenlive:file_hash">c353248550d16dbdc7a4e3cd970fbedb</property>
 </chain>
 <chain id="chain19" out="00:00:03.958">
  <property name="length">96</property>
  <property name="eof">pause</property>
  <property name="resource">C:/dev/workspace/indy/dist/room/attic/content/cross.mp4</property>
  <property name="mlt_service">avformat-novalidate</property>
  <property name="meta.media.nb_streams">1</property>
  <property name="meta.media.0.stream.type">video</property>
  <property name="meta.media.0.stream.frame_rate">24</property>
  <property name="meta.media.0.stream.sample_aspect_ratio">0</property>
  <property name="meta.media.0.codec.width">2816</property>
  <property name="meta.media.0.codec.height">1536</property>
  <property name="meta.media.0.codec.rotate">0</property>
  <property name="meta.media.0.codec.pix_fmt">yuv420p</property>
  <property name="meta.media.0.codec.sample_aspect_ratio">0</property>
  <property name="meta.media.0.codec.colorspace">709</property>
  <property name="meta.media.0.codec.name">h264</property>
  <property name="meta.media.0.codec.long_name">H.264 / AVC / MPEG-4 AVC / MPEG-4 part 10</property>
  <property name="meta.media.0.codec.bit_rate">16817242</property>
  <property name="meta.attr.0.stream.handler_name.markup">VideoHandler</property>
  <property name="meta.attr.0.stream.vendor_id.markup">[0][0][0][0]</property>
  <property name="meta.attr.major_brand.markup">isom</property>
  <property name="meta.attr.minor_version.markup">512</property>
  <property name="meta.attr.compatible_brands.markup">isomiso2avc1mp41</property>
  <property name="meta.attr.encoder.markup">Lavf58.29.100</property>
  <property name="seekable">1</property>
  <property name="meta.media.sample_aspect_num">1</property>
  <property name="meta.media.sample_aspect_den">1</property>
  <property name="audio_index">-1</property>
  <property name="video_index">0</property>
  <property name="vstream">0</property>
  <property name="meta.media.frame_rate_num">24</property>
  <property name="meta.media.frame_rate_den">1</property>
  <property name="meta.media.colorspace">709</property>
  <property name="meta.media.color_trc">2</property>
  <property name="meta.media.has_b_frames">2</property>
  <property name="meta.media.width">2816</property>
  <property name="meta.media.height">1536</property>
  <property name="meta.media.color_range">mpeg</property>
  <property name="meta.media.top_field_first">0</property>
  <property name="meta.media.progressive">1</property>
  <property name="kdenlive:id">10</property>
  <property name="kdenlive:clip_type">2</property>
  <property name="kdenlive:file_size">8410668</property>
  <property name="kdenlive:file_hash">d91c4c73fb9092ccd68f00b1a610cf05</property>
  <property name="kdenlive:folderid">-1</property>
  <property name="mute_on_pause">0</property>
  <property name="kdenlive:control_uuid">{11a8c443-ee02-427e-8438-794955ac9a1d}</property>
 </chain>
 <chain id="chain20" out="00:00:03.958">
  <property name="length">96</property>
  <property name="eof">pause</property>
  <property name="resource">C:/dev/workspace/indy/dist/room/attic/content/cross2.mp4</property>
  <property name="mlt_service">avformat-novalidate</property>
  <property name="meta.media.nb_streams">1</property>
  <property name="meta.media.0.stream.type">video</property>
  <property name="meta.media.0.stream.frame_rate">24</property>
  <property name="meta.media.0.stream.sample_aspect_ratio">0</property>
  <property name="meta.media.0.codec.width">2816</property>
  <property name="meta.media.0.codec.height">1536</property>
  <property name="meta.media.0.codec.rotate">0</property>
  <property name="meta.media.0.codec.pix_fmt">yuv420p</property>
  <property name="meta.media.0.codec.sample_aspect_ratio">0</property>
  <property name="meta.media.0.codec.colorspace">709</property>
  <property name="meta.media.0.codec.name">h264</property>
  <property name="meta.media.0.codec.long_name">H.264 / AVC / MPEG-4 AVC / MPEG-4 part 10</property>
  <property name="meta.media.0.codec.bit_rate">15445746</property>
  <property name="meta.attr.0.stream.handler_name.markup">VideoHandler</property>
  <property name="meta.attr.0.stream.vendor_id.markup">[0][0][0][0]</property>
  <property name="meta.attr.major_brand.markup">isom</property>
  <property name="meta.attr.minor_version.markup">512</property>
  <property name="meta.attr.compatible_brands.markup">isomiso2avc1mp41</property>
  <property name="meta.attr.encoder.markup">Lavf58.29.100</property>
  <property name="seekable">1</property>
  <property name="meta.media.sample_aspect_num">1</property>
  <property name="meta.media.sample_aspect_den">1</property>
  <property name="audio_index">-1</property>
  <property name="video_index">0</property>
  <property name="vstream">0</property>
  <property name="meta.media.frame_rate_num">24</property>
  <property name="meta.media.frame_rate_den">1</property>
  <property name="meta.media.colorspace">709</property>
  <property name="meta.media.color_trc">2</property>
  <property name="meta.media.has_b_frames">2</property>
  <property name="meta.media.width">2816</property>
  <property name="meta.media.height">1536</property>
  <property name="meta.media.color_range">mpeg</property>
  <property name="meta.media.top_field_first">0</property>
  <property name="meta.media.progressive">1</property>
  <property name="kdenlive:id">11</property>
  <property name="kdenlive:clip_type">2</property>
  <property name="kdenlive:file_size">7724972</property>
  <property name="kdenlive:file_hash">2489a85edbfec07ab54e8d9ffc06ed74</property>
  <property name="kdenlive:folderid">-1</property>
  <property name="mute_on_pause">0</property>
  <property name="kdenlive:control_uuid">{7c91ea91-926f-4d8f-8b45-0df8b21940dc}</property>
 </chain>
 <chain id="chain22" out="00:00:03.958">
  <property name="length">96</property>
  <property name="eof">pause</property>
  <property name="resource">C:/dev/workspace/indy/dist/room/attic/content/cross3.mp4</property>
  <property name="mlt_service">avformat-novalidate</property>
  <property name="meta.media.nb_streams">1</property>
  <property name="meta.media.0.stream.type">video</property>
  <property name="meta.media.0.stream.frame_rate">24</property>
  <property name="meta.media.0.stream.sample_aspect_ratio">0</property>
  <property name="meta.media.0.codec.width">2816</property>
  <property name="meta.media.0.codec.height">1536</property>
  <property name="meta.media.0.codec.rotate">0</property>
  <property name="meta.media.0.codec.pix_fmt">yuv420p</property>
  <property name="meta.media.0.codec.sample_aspect_ratio">0</property>
  <property name="meta.media.0.codec.colorspace">709</property>
  <property name="meta.media.0.codec.name">h264</property>
  <property name="meta.media.0.codec.long_name">H.264 / AVC / MPEG-4 AVC / MPEG-4 part 10</property>
  <property name="meta.media.0.codec.bit_rate">16817242</property>
  <property name="meta.attr.0.stream.handler_name.markup">VideoHandler</property>
  <property name="meta.attr.0.stream.vendor_id.markup">[0][0][0][0]</property>
  <property name="meta.attr.major_brand.markup">isom</property>
  <property name="meta.attr.minor_version.markup">512</property>
  <property name="meta.attr.compatible_brands.markup">isomiso2avc1mp41</property>
  <property name="meta.attr.encoder.markup">Lavf58.29.100</property>
  <property name="seekable">1</property>
  <property name="meta.media.sample_aspect_num">1</property>
  <property name="meta.media.sample_aspect_den">1</property>
  <property name="audio_index">-1</property>
  <property name="video_index">0</property>
  <property name="vstream">0</property>
  <property name="meta.media.frame_rate_num">24</property>
  <property name="meta.media.frame_rate_den">1</property>
  <property name="meta.media.colorspace">709</property>
  <property name="meta.media.color_trc">2</property>
  <property name="meta.media.has_b_frames">2</property>
  <property name="meta.media.width">2816</property>
  <property name="meta.media.height">1536</property>
  <property name="meta.media.color_range">mpeg</property>
  <property name="meta.media.top_field_first">0</property>
  <property name="meta.media.progressive">1</property>
  <property name="kdenlive:id">12</property>
  <property name="kdenlive:clip_type">2</property>
  <property name="kdenlive:file_size">8410668</property>
  <property name="kdenlive:file_hash">d91c4c73fb9092ccd68f00b1a610cf05</property>
  <property name="kdenlive:folderid">-1</property>
  <property name="mute_on_pause">0</property>
  <property name="kdenlive:control_uuid">{87a1168c-67f3-4371-a64b-3d3fd0c90290}</property>
 </chain>
 <chain id="chain23" out="00:00:03.958">
  <property name="length">96</property>
  <property name="eof">pause</property>
  <property name="resource">C:/dev/workspace/indy/dist/room/attic/content/cross4.mp4</property>
  <property name="mlt_service">avformat-novalidate</property>
  <property name="meta.media.nb_streams">1</property>
  <property name="meta.media.0.stream.type">video</property>
  <property name="meta.media.0.stream.frame_rate">24</property>
  <property name="meta.media.0.stream.sample_aspect_ratio">0</property>
  <property name="meta.media.0.codec.width">2816</property>
  <property name="meta.media.0.codec.height">1536</property>
  <property name="meta.media.0.codec.rotate">0</property>
  <property name="meta.media.0.codec.pix_fmt">yuv420p</property>
  <property name="meta.media.0.codec.sample_aspect_ratio">0</property>
  <property name="meta.media.0.codec.colorspace">709</property>
  <property name="meta.media.0.codec.name">h264</property>
  <property name="meta.media.0.codec.long_name">H.264 / AVC / MPEG-4 AVC / MPEG-4 part 10</property>
  <property name="meta.media.0.codec.bit_rate">19162026</property>
  <property name="meta.attr.0.stream.handler_name.markup">VideoHandler</property>
  <property name="meta.attr.0.stream.vendor_id.markup">[0][0][0][0]</property>
  <property name="meta.attr.major_brand.markup">isom</property>
  <property name="meta.attr.minor_version.markup">512</property>
  <property name="meta.attr.compatible_brands.markup">isomiso2avc1mp41</property>
  <property name="meta.attr.encoder.markup">Lavf58.29.100</property>
  <property name="seekable">1</property>
  <property name="meta.media.sample_aspect_num">1</property>
  <property name="meta.media.sample_aspect_den">1</property>
  <property name="audio_index">-1</property>
  <property name="video_index">0</property>
  <property name="vstream">0</property>
  <property name="meta.media.frame_rate_num">24</property>
  <property name="meta.media.frame_rate_den">1</property>
  <property name="meta.media.colorspace">709</property>
  <property name="meta.media.color_trc">2</property>
  <property name="meta.media.has_b_frames">2</property>
  <property name="meta.media.width">2816</property>
  <property name="meta.media.height">1536</property>
  <property name="meta.media.color_range">mpeg</property>
  <property name="meta.media.top_field_first">0</property>
  <property name="meta.media.progressive">1</property>
  <property name="kdenlive:id">13</property>
  <property name="kdenlive:clip_type">2</property>
  <property name="kdenlive:file_size">9583080</property>
  <property name="kdenlive:file_hash">e1a0f440c638ce6a21e744aa5900e33e</property>
  <property name="kdenlive:folderid">-1</property>
  <property name="mute_on_pause">0</property>
  <property name="kdenlive:control_uuid">{e5621b2d-a667-479d-8c8e-6326c5bbebe8}</property>
 </chain>
 <chain id="chain21" out="00:12:00.000">
  <property name="length">17281</property>
  <property name="eof">pause</property>
  <property name="resource">C:/dev/workspace/indy/dist/room/attic/content/music/extra/attic2.webm</property>
  <property name="mlt_service">avformat</property>
  <property name="meta.media.nb_streams">1</property>
  <property name="meta.media.0.stream.type">audio</property>
  <property name="meta.media.0.codec.sample_fmt">fltp</property>
  <property name="meta.media.0.codec.sample_rate">48000</property>
  <property name="meta.media.0.codec.channels">2</property>
  <property name="meta.media.0.codec.name">opus</property>
  <property name="meta.media.0.codec.long_name">Opus</property>
  <property name="meta.media.0.codec.bit_rate">0</property>
  <property name="meta.attr.0.stream.language.markup">eng</property>
  <property name="meta.attr.encoder.markup">google/video-file</property>
  <property name="seekable">1</property>
  <property name="audio_index">0</property>
  <property name="video_index">-1</property>
  <property name="astream">0</property>
  <property name="kdenlive:id">14</property>
  <property name="kdenlive:clip_type">1</property>
  <property name="kdenlive:file_size">12295707</property>
  <property name="kdenlive:file_hash">946749c6ed27e31476ade9621df76e60</property>
  <property name="kdenlive:folderid">-1</property>
  <property name="kdenlive:audio_max0">234</property>
  <property name="kdenlive:control_uuid">{0c049463-f570-458a-ad6d-9d5bea9a6459}</property>
  <property name="meta.media.0.codec.layout">stereo</property>
 </chain>
 <chain id="chain25" out="00:00:03.958">
  <property name="length">96</property>
  <property name="eof">pause</property>
  <property name="resource">C:/dev/workspace/indy/dist/room/attic/content/gargoyle.mp4</property>
  <property name="mlt_service">avformat-novalidate</property>
  <property name="meta.media.nb_streams">1</property>
  <property name="meta.media.0.stream.type">video</property>
  <property name="meta.media.0.stream.frame_rate">24</property>
  <property name="meta.media.0.stream.sample_aspect_ratio">0</property>
  <property name="meta.media.0.codec.width">2816</property>
  <property name="meta.media.0.codec.height">1536</property>
  <property name="meta.media.0.codec.rotate">0</property>
  <property name="meta.media.0.codec.pix_fmt">yuv420p</property>
  <property name="meta.media.0.codec.sample_aspect_ratio">0</property>
  <property name="meta.media.0.codec.colorspace">709</property>
  <property name="meta.media.0.codec.name">h264</property>
  <property name="meta.media.0.codec.long_name">H.264 / AVC / MPEG-4 AVC / MPEG-4 part 10</property>
  <property name="meta.media.0.codec.bit_rate">15433926</property>
  <property name="meta.attr.0.stream.handler_name.markup">VideoHandler</property>
  <property name="meta.attr.0.stream.vendor_id.markup">[0][0][0][0]</property>
  <property name="meta.attr.major_brand.markup">isom</property>
  <property name="meta.attr.minor_version.markup">512</property>
  <property name="meta.attr.compatible_brands.markup">isomiso2avc1mp41</property>
  <property name="meta.attr.encoder.markup">Lavf58.29.100</property>
  <property name="seekable">1</property>
  <property name="meta.media.sample_aspect_num">1</property>
  <property name="meta.media.sample_aspect_den">1</property>
  <property name="audio_index">-1</property>
  <property name="video_index">0</property>
  <property name="vstream">0</property>
  <property name="meta.media.frame_rate_num">24</property>
  <property name="meta.media.frame_rate_den">1</property>
  <property name="meta.media.colorspace">709</property>
  <property name="meta.media.color_trc">2</property>
  <property name="meta.media.has_b_frames">2</property>
  <property name="meta.media.width">2816</property>
  <property name="meta.media.height">1536</property>
  <property name="meta.media.color_range">mpeg</property>
  <property name="meta.media.top_field_first">0</property>
  <property name="meta.media.progressive">1</property>
  <property name="kdenlive:id">15</property>
  <property name="kdenlive:clip_type">2</property>
  <property name="kdenlive:file_size">7719062</property>
  <property name="kdenlive:file_hash">fdd5c85871d6c4d126886fd3491f9afa</property>
  <property name="kdenlive:folderid">-1</property>
  <property name="mute_on_pause">0</property>
  <property name="kdenlive:control_uuid">{25bd75ce-00de-41df-907c-1d3db99c653d}</property>
 </chain>
 <chain id="chain24" out="00:00:03.958">
  <property name="length">96</property>
  <property name="eof">pause</property>
  <property name="resource">C:/dev/workspace/indy/dist/room/attic/content/gargoyle2.mp4</property>
  <property name="mlt_service">avformat-novalidate</property>
  <property name="meta.media.nb_streams">1</property>
  <property name="meta.media.0.stream.type">video</property>
  <property name="meta.media.0.stream.frame_rate">24</property>
  <property name="meta.media.0.stream.sample_aspect_ratio">0</property>
  <property name="meta.media.0.codec.width">2816</property>
  <property name="meta.media.0.codec.height">1536</property>
  <property name="meta.media.0.codec.rotate">0</property>
  <property name="meta.media.0.codec.pix_fmt">yuv420p</property>
  <property name="meta.media.0.codec.sample_aspect_ratio">0</property>
  <property name="meta.media.0.codec.colorspace">709</property>
  <property name="meta.media.0.codec.name">h264</property>
  <property name="meta.media.0.codec.long_name">H.264 / AVC / MPEG-4 AVC / MPEG-4 part 10</property>
  <property name="meta.media.0.codec.bit_rate">15340408</property>
  <property name="meta.attr.0.stream.handler_name.markup">VideoHandler</property>
  <property name="meta.attr.0.stream.vendor_id.markup">[0][0][0][0]</property>
  <property name="meta.attr.major_brand.markup">isom</property>
  <property name="meta.attr.minor_version.markup">512</property>
  <property name="meta.attr.compatible_brands.markup">isomiso2avc1mp41</property>
  <property name="meta.attr.encoder.markup">Lavf58.29.100</property>
  <property name="seekable">1</property>
  <property name="meta.media.sample_aspect_num">1</property>
  <property name="meta.media.sample_aspect_den">1</property>
  <property name="audio_index">-1</property>
  <property name="video_index">0</property>
  <property name="vstream">0</property>
  <property name="meta.media.frame_rate_num">24</property>
  <property name="meta.media.frame_rate_den">1</property>
  <property name="meta.media.colorspace">709</property>
  <property name="meta.media.color_trc">2</property>
  <property name="meta.media.has_b_frames">2</property>
  <property name="meta.media.width">2816</property>
  <property name="meta.media.height">1536</property>
  <property name="meta.media.color_range">mpeg</property>
  <property name="meta.media.top_field_first">0</property>
  <property name="meta.media.progressive">1</property>
  <property name="kdenlive:id">16</property>
  <property name="kdenlive:clip_type">2</property>
  <property name="kdenlive:file_size">7672271</property>
  <property name="kdenlive:file_hash">86ea1a3237823a1fee7bfda6eaec76b9</property>
  <property name="kdenlive:folderid">-1</property>
  <property name="mute_on_pause">0</property>
  <property name="kdenlive:control_uuid">{44faf742-f3b6-4546-9e71-049d4373d9ce}</property>
 </chain>
 <chain id="chain27" out="00:00:03.958">
  <property name="length">96</property>
  <property name="eof">pause</property>
  <property name="resource">C:/dev/workspace/indy/dist/room/attic/content/gargoyle3.mp4</property>
  <property name="mlt_service">avformat-novalidate</property>
  <property name="meta.media.nb_streams">1</property>
  <property name="meta.media.0.stream.type">video</property>
  <property name="meta.media.0.stream.frame_rate">24</property>
  <property name="meta.media.0.stream.sample_aspect_ratio">0</property>
  <property name="meta.media.0.codec.width">2816</property>
  <property name="meta.media.0.codec.height">1536</property>
  <property name="meta.media.0.codec.rotate">0</property>
  <property name="meta.media.0.codec.pix_fmt">yuv420p</property>
  <property name="meta.media.0.codec.sample_aspect_ratio">0</property>
  <property name="meta.media.0.codec.colorspace">709</property>
  <property name="meta.media.0.codec.name">h264</property>
  <property name="meta.media.0.codec.long_name">H.264 / AVC / MPEG-4 AVC / MPEG-4 part 10</property>
  <property name="meta.media.0.codec.bit_rate">15370532</property>
  <property name="meta.attr.0.stream.handler_name.markup">VideoHandler</property>
  <property name="meta.attr.0.stream.vendor_id.markup">[0][0][0][0]</property>
  <property name="meta.attr.major_brand.markup">isom</property>
  <property name="meta.attr.minor_version.markup">512</property>
  <property name="meta.attr.compatible_brands.markup">isomiso2avc1mp41</property>
  <property name="meta.attr.encoder.markup">Lavf58.29.100</property>
  <property name="seekable">1</property>
  <property name="meta.media.sample_aspect_num">1</property>
  <property name="meta.media.sample_aspect_den">1</property>
  <property name="audio_index">-1</property>
  <property name="video_index">0</property>
  <property name="vstream">0</property>
  <property name="meta.media.frame_rate_num">24</property>
  <property name="meta.media.frame_rate_den">1</property>
  <property name="meta.media.colorspace">709</property>
  <property name="meta.media.color_trc">2</property>
  <property name="meta.media.has_b_frames">2</property>
  <property name="meta.media.width">2816</property>
  <property name="meta.media.height">1536</property>
  <property name="meta.media.color_range">mpeg</property>
  <property name="meta.media.top_field_first">0</property>
  <property name="meta.media.progressive">1</property>
  <property name="kdenlive:id">17</property>
  <property name="kdenlive:clip_type">2</property>
  <property name="kdenlive:file_size">7687341</property>
  <property name="kdenlive:file_hash">84ada7ed53506b417594fbbe8c79248a</property>
  <property name="kdenlive:folderid">-1</property>
  <property name="mute_on_pause">0</property>
  <property name="kdenlive:control_uuid">{a092bc7b-8353-467e-9b1e-cc1db0191f34}</property>
 </chain>
 <chain id="chain33" out="00:00:03.958">
  <property name="length">96</property>
  <property name="eof">pause</property>
  <property name="resource">C:/dev/workspace/indy/dist/room/attic/content/gargoyle5.mp4</property>
  <property name="mlt_service">avformat-novalidate</property>
  <property name="meta.media.nb_streams">1</property>
  <property name="meta.media.0.stream.type">video</property>
  <property name="meta.media.0.stream.frame_rate">24</property>
  <property name="meta.media.0.stream.sample_aspect_ratio">0</property>
  <property name="meta.media.0.codec.width">2816</property>
  <property name="meta.media.0.codec.height">1536</property>
  <property name="meta.media.0.codec.rotate">0</property>
  <property name="meta.media.0.codec.pix_fmt">yuv420p</property>
  <property name="meta.media.0.codec.sample_aspect_ratio">0</property>
  <property name="meta.media.0.codec.colorspace">709</property>
  <property name="meta.media.0.codec.name">h264</property>
  <property name="meta.media.0.codec.long_name">H.264 / AVC / MPEG-4 AVC / MPEG-4 part 10</property>
  <property name="meta.media.0.codec.bit_rate">15221898</property>
  <property name="meta.attr.0.stream.handler_name.markup">VideoHandler</property>
  <property name="meta.attr.0.stream.vendor_id.markup">[0][0][0][0]</property>
  <property name="meta.attr.major_brand.markup">isom</property>
  <property name="meta.attr.minor_version.markup">512</property>
  <property name="meta.attr.compatible_brands.markup">isomiso2avc1mp41</property>
  <property name="meta.attr.encoder.markup">Lavf58.29.100</property>
  <property name="seekable">1</property>
  <property name="meta.media.sample_aspect_num">1</property>
  <property name="meta.media.sample_aspect_den">1</property>
  <property name="audio_index">-1</property>
  <property name="video_index">0</property>
  <property name="vstream">0</property>
  <property name="meta.media.frame_rate_num">24</property>
  <property name="meta.media.frame_rate_den">1</property>
  <property name="meta.media.colorspace">709</property>
  <property name="meta.media.color_trc">2</property>
  <property name="meta.media.has_b_frames">2</property>
  <property name="meta.media.width">2816</property>
  <property name="meta.media.height">1536</property>
  <property name="meta.media.color_range">mpeg</property>
  <property name="meta.media.top_field_first">0</property>
  <property name="meta.media.progressive">1</property>
  <property name="kdenlive:id">18</property>
  <property name="kdenlive:clip_type">2</property>
  <property name="kdenlive:file_size">7613040</property>
  <property name="kdenlive:file_hash">ced14b426677966203996cdddd0932f1</property>
  <property name="kdenlive:folderid">-1</property>
  <property name="mute_on_pause">0</property>
  <property name="kdenlive:control_uuid">{4a4cdf24-f69f-4068-ab83-75ab73255a7c}</property>
 </chain>
 <chain id="chain26" out="00:00:02.083">
  <property name="length">51</property>
  <property name="eof">pause</property>
  <property name="resource">C:/dev/workspace/indy/dist/room/attic/content/voice/cross.mp3</property>
  <property name="mlt_service">avformat</property>
  <property name="meta.media.nb_streams">1</property>
  <property name="meta.media.0.stream.type">audio</property>
  <property name="meta.media.0.codec.sample_fmt">fltp</property>
  <property name="meta.media.0.codec.sample_rate">44100</property>
  <property name="meta.media.0.codec.channels">1</property>
  <property name="meta.media.0.codec.name">mp3float</property>
  <property name="meta.media.0.codec.long_name">MP3 (MPEG audio layer 3)</property>
  <property name="meta.media.0.codec.bit_rate">64000</property>
  <property name="meta.attr.encoder.markup">Lavf61.1.100</property>
  <property name="seekable">1</property>
  <property name="audio_index">0</property>
  <property name="video_index">-1</property>
  <property name="astream">0</property>
  <property name="kdenlive:id">19</property>
  <property name="kdenlive:clip_type">1</property>
  <property name="kdenlive:file_size">17362</property>
  <property name="kdenlive:file_hash">2a7a560848dc1125e3cbd4c2e405cca8</property>
  <property name="kdenlive:folderid">-1</property>
  <property name="kdenlive:audio_max0">190</property>
  <property name="kdenlive:control_uuid">{e93ecfc7-76a6-4392-bd15-525ec8051987}</property>
  <property name="meta.media.0.codec.layout">mono</property>
 </chain>
 <chain id="chain28" out="00:00:03.333">
  <property name="length">81</property>
  <property name="eof">pause</property>
  <property name="resource">C:/dev/workspace/indy/dist/room/attic/content/voice/cross2.mp3</property>
  <property name="mlt_service">avformat</property>
  <property name="meta.media.nb_streams">1</property>
  <property name="meta.media.0.stream.type">audio</property>
  <property name="meta.media.0.codec.sample_fmt">fltp</property>
  <property name="meta.media.0.codec.sample_rate">44100</property>
  <property name="meta.media.0.codec.channels">1</property>
  <property name="meta.media.0.codec.name">mp3float</property>
  <property name="meta.media.0.codec.long_name">MP3 (MPEG audio layer 3)</property>
  <property name="meta.media.0.codec.bit_rate">64000</property>
  <property name="meta.attr.encoder.markup">Lavf61.1.100</property>
  <property name="seekable">1</property>
  <property name="audio_index">0</property>
  <property name="video_index">-1</property>
  <property name="astream">0</property>
  <property name="kdenlive:id">20</property>
  <property name="kdenlive:clip_type">1</property>
  <property name="kdenlive:file_size">27184</property>
  <property name="kdenlive:file_hash">7ad3dd2b81ee01c24d4654efa8d919f5</property>
  <property name="kdenlive:folderid">-1</property>
  <property name="kdenlive:audio_max0">218</property>
  <property name="kdenlive:control_uuid">{8173d856-e790-4c07-939b-d4a7ba6dfe17}</property>
  <property name="meta.media.0.codec.layout">mono</property>
 </chain>
 <chain id="chain29" out="00:00:04.208">
  <property name="length">102</property>
  <property name="eof">pause</property>
  <property name="resource">C:/dev/workspace/indy/dist/room/attic/content/voice/cross3.mp3</property>
  <property name="mlt_service">avformat</property>
  <property name="meta.media.nb_streams">1</property>
  <property name="meta.media.0.stream.type">audio</property>
  <property name="meta.media.0.codec.sample_fmt">fltp</property>
  <property name="meta.media.0.codec.sample_rate">44100</property>
  <property name="meta.media.0.codec.channels">1</property>
  <property name="meta.media.0.codec.name">mp3float</property>
  <property name="meta.media.0.codec.long_name">MP3 (MPEG audio layer 3)</property>
  <property name="meta.media.0.codec.bit_rate">64000</property>
  <property name="meta.attr.encoder.markup">Lavf61.1.100</property>
  <property name="seekable">1</property>
  <property name="audio_index">0</property>
  <property name="video_index">-1</property>
  <property name="astream">0</property>
  <property name="kdenlive:id">21</property>
  <property name="kdenlive:clip_type">1</property>
  <property name="kdenlive:file_size">34080</property>
  <property name="kdenlive:file_hash">feee882d69c1faeb7e18e49403338d00</property>
  <property name="kdenlive:folderid">-1</property>
  <property name="kdenlive:audio_max0">202</property>
  <property name="kdenlive:control_uuid">{f1c0b077-99ee-4302-a5e1-420ae3c5cfb1}</property>
  <property name="meta.media.0.codec.layout">mono</property>
 </chain>
 <chain id="chain31" out="00:00:03.083">
  <property name="length">75</property>
  <property name="eof">pause</property>
  <property name="resource">C:/dev/workspace/indy/dist/room/attic/content/voice/gargoyle.mp3</property>
  <property name="mlt_service">avformat</property>
  <property name="meta.media.nb_streams">1</property>
  <property name="meta.media.0.stream.type">audio</property>
  <property name="meta.media.0.codec.sample_fmt">fltp</property>
  <property name="meta.media.0.codec.sample_rate">44100</property>
  <property name="meta.media.0.codec.channels">1</property>
  <property name="meta.media.0.codec.name">mp3float</property>
  <property name="meta.media.0.codec.long_name">MP3 (MPEG audio layer 3)</property>
  <property name="meta.media.0.codec.bit_rate">64000</property>
  <property name="meta.attr.encoder.markup">Lavf61.1.100</property>
  <property name="seekable">1</property>
  <property name="audio_index">0</property>
  <property name="video_index">-1</property>
  <property name="astream">0</property>
  <property name="kdenlive:id">22</property>
  <property name="kdenlive:clip_type">1</property>
  <property name="kdenlive:file_size">25303</property>
  <property name="kdenlive:file_hash">48d628cbc1d2b53830f59744b1147215</property>
  <property name="kdenlive:folderid">-1</property>
  <property name="kdenlive:audio_max0">182</property>
  <property name="kdenlive:control_uuid">{0695e140-b46a-4a8e-94a1-1b26f3d99f44}</property>
  <property name="meta.media.0.codec.layout">mono</property>
 </chain>
 <chain id="chain30" out="00:00:04.333">
  <property name="length">105</property>
  <property name="eof">pause</property>
  <property name="resource">C:/dev/workspace/indy/dist/room/attic/content/voice/gargoyle2.mp3</property>
  <property name="mlt_service">avformat</property>
  <property name="meta.media.nb_streams">1</property>
  <property name="meta.media.0.stream.type">audio</property>
  <property name="meta.media.0.codec.sample_fmt">fltp</property>
  <property name="meta.media.0.codec.sample_rate">44100</property>
  <property name="meta.media.0.codec.channels">1</property>
  <property name="meta.media.0.codec.name">mp3float</property>
  <property name="meta.media.0.codec.long_name">MP3 (MPEG audio layer 3)</property>
  <property name="meta.media.0.codec.bit_rate">64000</property>
  <property name="meta.attr.encoder.markup">Lavf61.1.100</property>
  <property name="seekable">1</property>
  <property name="audio_index">0</property>
  <property name="video_index">-1</property>
  <property name="astream">0</property>
  <property name="kdenlive:id">23</property>
  <property name="kdenlive:clip_type">1</property>
  <property name="kdenlive:file_size">35334</property>
  <property name="kdenlive:file_hash">6b61d9b126cb60405e4bff345f1bea97</property>
  <property name="kdenlive:folderid">-1</property>
  <property name="kdenlive:audio_max0">185</property>
  <property name="kdenlive:control_uuid">{17a3603d-34c2-4e80-8f7a-50318d149109}</property>
  <property name="meta.media.0.codec.layout">mono</property>
 </chain>
 <chain id="chain32" out="00:00:02.083">
  <property name="length">51</property>
  <property name="eof">pause</property>
  <property name="resource">C:/dev/workspace/indy/dist/room/attic/content/voice/gargoyle3.mp3</property>
  <property name="mlt_service">avformat</property>
  <property name="meta.media.nb_streams">1</property>
  <property name="meta.media.0.stream.type">audio</property>
  <property name="meta.media.0.codec.sample_fmt">fltp</property>
  <property name="meta.media.0.codec.sample_rate">44100</property>
  <property name="meta.media.0.codec.channels">1</property>
  <property name="meta.media.0.codec.name">mp3float</property>
  <property name="meta.media.0.codec.long_name">MP3 (MPEG audio layer 3)</property>
  <property name="meta.media.0.codec.bit_rate">64000</property>
  <property name="meta.attr.encoder.markup">Lavf61.1.100</property>
  <property name="seekable">1</property>
  <property name="audio_index">0</property>
  <property name="video_index">-1</property>
  <property name="astream">0</property>
  <property name="kdenlive:id">24</property>
  <property name="kdenlive:clip_type">1</property>
  <property name="kdenlive:file_size">17153</property>
  <property name="kdenlive:file_hash">4eb65d3e7161baaa02daa2b4c9a72551</property>
  <property name="kdenlive:folderid">-1</property>
  <property name="kdenlive:audio_max0">170</property>
  <property name="kdenlive:control_uuid">{641ff522-40f2-4a96-8d7c-c4cfb035fc8c}</property>
  <property name="meta.media.0.codec.layout">mono</property>
 </chain>
 <chain id="chain34" out="00:00:05.042">
  <property name="length">122</property>
  <property name="eof">pause</property>
  <property name="resource">C:/dev/workspace/indy/dist/room/attic/content/upscale/cross6.mp4</property>
  <property name="mlt_service">avformat-novalidate</property>
  <property name="meta.media.nb_streams">1</property>
  <property name="meta.media.0.stream.type">video</property>
  <property name="meta.media.0.stream.frame_rate">30</property>
  <property name="meta.media.0.stream.sample_aspect_ratio">1</property>
  <property name="meta.media.0.codec.width">3840</property>
  <property name="meta.media.0.codec.height">2160</property>
  <property name="meta.media.0.codec.rotate">0</property>
  <property name="meta.media.0.codec.pix_fmt">yuv420p</property>
  <property name="meta.media.0.codec.sample_aspect_ratio">1</property>
  <property name="meta.media.0.codec.colorspace">709</property>
  <property name="meta.media.0.codec.name">h264</property>
  <property name="meta.media.0.codec.long_name">H.264 / AVC / MPEG-4 AVC / MPEG-4 part 10</property>
  <property name="meta.media.0.codec.bit_rate">74092716</property>
  <property name="meta.attr.0.stream.handler_name.markup">VideoHandler</property>
  <property name="meta.attr.0.stream.vendor_id.markup">[0][0][0][0]</property>
  <property name="meta.attr.0.stream.encoder.markup">Lavc61.5.103 h264_nvenc</property>
  <property name="meta.attr.minor_version.markup">512</property>
  <property name="meta.attr.major_brand.markup">isom</property>
  <property name="meta.attr.compatible_brands.markup">isomiso2avc1mp41</property>
  <property name="meta.attr.metadata1.markup">W70iPnDfysEZNnMeqQhXRbV4K9hLBUM+PwHlElXS0K1LdupsBFe3q560Kv9btwDnYGcVIRuQQe2bXZc/Im/saRE9wRMxqayeA6DyjDwMu6NUaEqsJ0mxfms1PXGykjm/HaBlRtiIg6kH9k/77BMZOW5r6jY40FpEiBTd3HLyXYxMo0o60g88oBTAB</property>
  <property name="meta.attr.metadata0.markup">ChtzZWN1cml0eS5rbGluZy5tZXRhX2VuY3J5cHQS8AGMWqSFswgdkosCZuSOXvrSHJjl5CQFor26V6fYli/oiOw14wH7VGZc8OtVJ9bk7VFiQG7FbXXSRChZJ8kHpBdJsTHVaZawsdnrzegtoDTNVWKIEZozETP6+rvBIuFekgFYGeoq3OJu2I1IS7VpvYq83+bT5DIINU047JHSntdOxjL+5LK+22vgsfdy9ruDT4UaFi/uGUaRmsAr16YPYUK</property>
  <property name="meta.attr.videoai.markup">Enhanced using iris-3; mode: auto; revert compression at 0; recover details at 0; sharpen at 0; reduce noise at 0; dehalo at 0; anti-alias/deblur at 0; focus fix Off; and recover original detail at 20. Changed resolution to 3840x2160</property>
  <property name="meta.attr.encoder.markup">Lavf61.3.103</property>
  <property name="seekable">1</property>
  <property name="meta.media.sample_aspect_num">1</property>
  <property name="meta.media.sample_aspect_den">1</property>
  <property name="audio_index">-1</property>
  <property name="video_index">0</property>
  <property name="vstream">0</property>
  <property name="meta.media.frame_rate_num">30</property>
  <property name="meta.media.frame_rate_den">1</property>
  <property name="meta.media.colorspace">709</property>
  <property name="meta.media.color_trc">2</property>
  <property name="meta.media.has_b_frames">0</property>
  <property name="meta.media.width">3840</property>
  <property name="meta.media.height">2160</property>
  <property name="meta.media.color_range">mpeg</property>
  <property name="meta.media.top_field_first">0</property>
  <property name="meta.media.progressive">1</property>
  <property name="kdenlive:proxy">-</property>
  <property name="kdenlive:originalurl">C:/dev/workspace/indy/dist/room/attic/content/upscale/cross6.mp4</property>
  <property name="kdenlive:id">25</property>
  <property name="mute_on_pause">0</property>
  <property name="kdenlive:clip_type">2</property>
  <property name="kdenlive:file_size">47339810</property>
  <property name="kdenlive:folderid">-1</property>
  <property name="kdenlive:control_uuid">{ff6ecf40-aa46-42cd-8ce6-a78ad9f1331b}</property>
  <property name="kdenlive:file_hash">f6749d010b207497fae66c2f199d8ede</property>
 </chain>
 <chain id="chain35" out="00:00:05.042">
  <property name="length">122</property>
  <property name="eof">pause</property>
  <property name="resource">C:/dev/workspace/indy/dist/room/attic/content/upscale/cross7.mp4</property>
  <property name="mlt_service">avformat-novalidate</property>
  <property name="meta.media.nb_streams">1</property>
  <property name="meta.media.0.stream.type">video</property>
  <property name="meta.media.0.stream.frame_rate">30</property>
  <property name="meta.media.0.stream.sample_aspect_ratio">1</property>
  <property name="meta.media.0.codec.width">3840</property>
  <property name="meta.media.0.codec.height">2160</property>
  <property name="meta.media.0.codec.rotate">0</property>
  <property name="meta.media.0.codec.pix_fmt">yuv420p</property>
  <property name="meta.media.0.codec.sample_aspect_ratio">1</property>
  <property name="meta.media.0.codec.colorspace">709</property>
  <property name="meta.media.0.codec.name">h264</property>
  <property name="meta.media.0.codec.long_name">H.264 / AVC / MPEG-4 AVC / MPEG-4 part 10</property>
  <property name="meta.media.0.codec.bit_rate">83440128</property>
  <property name="meta.attr.0.stream.handler_name.markup">VideoHandler</property>
  <property name="meta.attr.0.stream.vendor_id.markup">[0][0][0][0]</property>
  <property name="meta.attr.0.stream.encoder.markup">Lavc61.5.103 h264_nvenc</property>
  <property name="meta.attr.minor_version.markup">512</property>
  <property name="meta.attr.major_brand.markup">isom</property>
  <property name="meta.attr.compatible_brands.markup">isomiso2avc1mp41</property>
  <property name="meta.attr.metadata1.markup">wr0Jjijm2YOrTnHcpAERwKanJHiharJk97jRHx85uIq7AHcno5RzZmlJLJNJFevV4xSvX5z6s6ZAvJQvJSsMBu04xjz6sHQdhqVHkBdcjYhEaEjhb4fNP/cZyP17nw5rvwAND3SIgYR+dYgNxweX0Xj0H/Eo2xXVzNS9qdHAz3AQbdPB24XIoBTAB</property>
  <property name="meta.attr.metadata0.markup">ChtzZWN1cml0eS5rbGluZy5tZXRhX2VuY3J5cHQS8AFaTJ+KVexNycnu9uCDG6T420kPUaZuEQ5VpIcsk0UdEsmxEpY+CT0vjv1pur1+xoJr796Q8KwbVhQoT+lOHKUtziL+JexYQ4G6EnTFRhw19I9dp+1VQa01f4YRYJxkL7nR/gN6dP+WE67K62DaxgDMd93HBkrG1wMxnQAg9fvteAr6qUHpxQbcbBgsHI28SPR4jT1+vZ3wItEu/Cj3aDh</property>
  <property name="meta.attr.videoai.markup">Enhanced using iris-3; mode: auto; revert compression at 0; recover details at 0; sharpen at 0; reduce noise at 0; dehalo at 0; anti-alias/deblur at 0; focus fix Off; and recover original detail at 20. Changed resolution to 3840x2160</property>
  <property name="meta.attr.encoder.markup">Lavf61.3.103</property>
  <property name="seekable">1</property>
  <property name="meta.media.sample_aspect_num">1</property>
  <property name="meta.media.sample_aspect_den">1</property>
  <property name="audio_index">-1</property>
  <property name="video_index">0</property>
  <property name="vstream">0</property>
  <property name="meta.media.frame_rate_num">30</property>
  <property name="meta.media.frame_rate_den">1</property>
  <property name="meta.media.colorspace">709</property>
  <property name="meta.media.color_trc">2</property>
  <property name="meta.media.has_b_frames">0</property>
  <property name="meta.media.width">3840</property>
  <property name="meta.media.height">2160</property>
  <property name="meta.media.color_range">mpeg</property>
  <property name="meta.media.top_field_first">0</property>
  <property name="meta.media.progressive">1</property>
  <property name="kdenlive:proxy">-</property>
  <property name="kdenlive:originalurl">C:/dev/workspace/indy/dist/room/attic/content/upscale/cross7.mp4</property>
  <property name="kdenlive:id">26</property>
  <property name="mute_on_pause">0</property>
  <property name="kdenlive:clip_type">2</property>
  <property name="kdenlive:file_size">53196044</property>
  <property name="kdenlive:file_hash">8d6f97a9a548a881a09bfd45fdf94304</property>
  <property name="kdenlive:folderid">-1</property>
  <property name="kdenlive:control_uuid">{3a480b84-eeb0-4bf5-b2ef-4817cb26d639}</property>
 </chain>
 <chain id="chain37" out="00:00:09.542">
  <property name="length">230</property>
  <property name="eof">pause</property>
  <property name="resource">C:/dev/workspace/indy/dist/room/attic/content/upscale/gargoyle6.mp4</property>
  <property name="mlt_service">avformat-novalidate</property>
  <property name="meta.media.nb_streams">1</property>
  <property name="meta.media.0.stream.type">video</property>
  <property name="meta.media.0.stream.frame_rate">30</property>
  <property name="meta.media.0.stream.sample_aspect_ratio">1</property>
  <property name="meta.media.0.codec.width">3840</property>
  <property name="meta.media.0.codec.height">2160</property>
  <property name="meta.media.0.codec.rotate">0</property>
  <property name="meta.media.0.codec.pix_fmt">yuv420p</property>
  <property name="meta.media.0.codec.sample_aspect_ratio">1</property>
  <property name="meta.media.0.codec.colorspace">709</property>
  <property name="meta.media.0.codec.name">h264</property>
  <property name="meta.media.0.codec.long_name">H.264 / AVC / MPEG-4 AVC / MPEG-4 part 10</property>
  <property name="meta.media.0.codec.bit_rate">80989571</property>
  <property name="meta.attr.0.stream.handler_name.markup">VideoHandler</property>
  <property name="meta.attr.0.stream.vendor_id.markup">[0][0][0][0]</property>
  <property name="meta.attr.0.stream.encoder.markup">Lavc61.5.103 h264_nvenc</property>
  <property name="meta.attr.minor_version.markup">512</property>
  <property name="meta.attr.major_brand.markup">isom</property>
  <property name="meta.attr.compatible_brands.markup">isomiso2avc1mp41</property>
  <property name="meta.attr.metadata1.markup">Ge3rQAgrOa73m5UkZ1Glu2QrYYt3Hi52lLJcQm2X+rzcgdvjZApkFLREBi+3ZNpxsK7lqrjmUGXVN2qrjMfNmtbb0TIDmNijapREImFqvO8kaEgSS0hVbN4ezQdG0i/TEHHYjISIgy7cq4uHu4JdSInc8rjRWEADYs/5vW55cxViD+Li7RVYoBTAB</property>
  <property name="meta.attr.metadata0.markup">ChtzZWN1cml0eS5rbGluZy5tZXRhX2VuY3J5cHQS8AExZZAjusCwry7MC7rvXIbk1i4ZkZX5nr9Qm6hDlweWxjqKb7lQv7W8Pasilr0zFDu3c1t0JbscTbEkqDzx26Nsf8axXk94OTsc4kPyIys3w+9aR1QfB92z1w+t3TM50dg3dMSpycBztnRKNcUzVjBLc1ULsaqsKSH1wm9QskQll25LQVKdT3+qLwzfMBt7EmPjx7DFxar+0O0VQco56QV</property>
  <property name="meta.attr.videoai.markup">Enhanced using iris-3; mode: auto; revert compression at 0; recover details at 0; sharpen at 0; reduce noise at 0; dehalo at 0; anti-alias/deblur at 0; focus fix Off; and recover original detail at 20. Changed resolution to 3840x2160</property>
  <property name="meta.attr.encoder.markup">Lavf61.3.103</property>
  <property name="seekable">1</property>
  <property name="meta.media.sample_aspect_num">1</property>
  <property name="meta.media.sample_aspect_den">1</property>
  <property name="audio_index">-1</property>
  <property name="video_index">0</property>
  <property name="vstream">0</property>
  <property name="meta.media.frame_rate_num">30</property>
  <property name="meta.media.frame_rate_den">1</property>
  <property name="meta.media.colorspace">709</property>
  <property name="meta.media.color_trc">2</property>
  <property name="meta.media.has_b_frames">0</property>
  <property name="meta.media.width">3840</property>
  <property name="meta.media.height">2160</property>
  <property name="meta.media.color_range">mpeg</property>
  <property name="meta.media.top_field_first">0</property>
  <property name="meta.media.progressive">1</property>
  <property name="kdenlive:proxy">-</property>
  <property name="kdenlive:originalurl">C:/dev/workspace/indy/dist/room/attic/content/upscale/gargoyle6.mp4</property>
  <property name="kdenlive:id">27</property>
  <property name="mute_on_pause">0</property>
  <property name="kdenlive:clip_type">2</property>
  <property name="kdenlive:file_size">97239026</property>
  <property name="kdenlive:folderid">-1</property>
  <property name="kdenlive:control_uuid">{136ceae5-7790-45bc-a16c-b546da3b2ca4}</property>
  <property name="kdenlive:file_hash">7d2ef27180f82b15388caa7581c27023</property>
 </chain>
 <chain id="chain43" out="00:00:04.625">
  <property name="length">112</property>
  <property name="eof">pause</property>
  <property name="resource">C:/dev/workspace/indy/dist/room/attic/content/upscale/attic13.mp4</property>
  <property name="mlt_service">avformat-novalidate</property>
  <property name="meta.media.nb_streams">1</property>
  <property name="meta.media.0.stream.type">video</property>
  <property name="meta.media.0.stream.frame_rate">24</property>
  <property name="meta.media.0.stream.sample_aspect_ratio">1</property>
  <property name="meta.media.0.codec.width">3840</property>
  <property name="meta.media.0.codec.height">2160</property>
  <property name="meta.media.0.codec.rotate">0</property>
  <property name="meta.media.0.codec.pix_fmt">yuv420p</property>
  <property name="meta.media.0.codec.sample_aspect_ratio">1</property>
  <property name="meta.media.0.codec.colorspace">709</property>
  <property name="meta.media.0.codec.name">h264</property>
  <property name="meta.media.0.codec.long_name">H.264 / AVC / MPEG-4 AVC / MPEG-4 part 10</property>
  <property name="meta.media.0.codec.bit_rate">90239592</property>
  <property name="meta.attr.0.stream.handler_name.markup">VideoHandler</property>
  <property name="meta.attr.0.stream.vendor_id.markup">[0][0][0][0]</property>
  <property name="meta.attr.0.stream.encoder.markup">Lavc61.5.103 h264_nvenc</property>
  <property name="meta.attr.minor_version.markup">512</property>
  <property name="meta.attr.major_brand.markup">isom</property>
  <property name="meta.attr.compatible_brands.markup">isomiso2avc1mp41</property>
  <property name="meta.attr.videoai.markup">Enhanced using iris-3; mode: auto; revert compression at 0; recover details at 0; sharpen at 0; reduce noise at 0; dehalo at 0; anti-alias/deblur at 0; focus fix Off; and recover original detail at 20. Changed resolution to 3840x2160</property>
  <property name="meta.attr.encoder.markup">Lavf61.3.103</property>
  <property name="seekable">1</property>
  <property name="meta.media.sample_aspect_num">1</property>
  <property name="meta.media.sample_aspect_den">1</property>
  <property name="audio_index">-1</property>
  <property name="video_index">0</property>
  <property name="vstream">0</property>
  <property name="meta.media.frame_rate_num">24</property>
  <property name="meta.media.frame_rate_den">1</property>
  <property name="meta.media.colorspace">709</property>
  <property name="meta.media.color_trc">2</property>
  <property name="meta.media.has_b_frames">0</property>
  <property name="meta.media.width">3840</property>
  <property name="meta.media.height">2160</property>
  <property name="meta.media.color_range">mpeg</property>
  <property name="meta.media.top_field_first">0</property>
  <property name="meta.media.progressive">1</property>
  <property name="kdenlive:proxy">-</property>
  <property name="kdenlive:originalurl">C:/dev/workspace/indy/dist/room/attic/content/upscale/attic13.mp4</property>
  <property name="kdenlive:id">28</property>
  <property name="mute_on_pause">0</property>
  <property name="kdenlive:clip_type">2</property>
  <property name="kdenlive:file_size">59982025</property>
  <property name="kdenlive:folderid">-1</property>
  <property name="kdenlive:control_uuid">{f253d6f8-ad1e-4200-ad3e-7e9e1a1ddd8e}</property>
  <property name="kdenlive:file_hash">e88ef2576443fa15be5cf4558609d0a2</property>
 </chain>
 <chain id="chain44" out="00:00:04.625">
  <property name="length">112</property>
  <property name="eof">pause</property>
  <property name="resource">C:/dev/workspace/indy/dist/room/attic/content/upscale/attic14.mp4</property>
  <property name="mlt_service">avformat-novalidate</property>
  <property name="meta.media.nb_streams">1</property>
  <property name="meta.media.0.stream.type">video</property>
  <property name="meta.media.0.stream.frame_rate">24</property>
  <property name="meta.media.0.stream.sample_aspect_ratio">1</property>
  <property name="meta.media.0.codec.width">3840</property>
  <property name="meta.media.0.codec.height">2160</property>
  <property name="meta.media.0.codec.rotate">0</property>
  <property name="meta.media.0.codec.pix_fmt">yuv420p</property>
  <property name="meta.media.0.codec.sample_aspect_ratio">1</property>
  <property name="meta.media.0.codec.colorspace">709</property>
  <property name="meta.media.0.codec.name">h264</property>
  <property name="meta.media.0.codec.long_name">H.264 / AVC / MPEG-4 AVC / MPEG-4 part 10</property>
  <property name="meta.media.0.codec.bit_rate">85964662</property>
  <property name="meta.attr.0.stream.handler_name.markup">VideoHandler</property>
  <property name="meta.attr.0.stream.vendor_id.markup">[0][0][0][0]</property>
  <property name="meta.attr.0.stream.encoder.markup">Lavc61.5.103 h264_nvenc</property>
  <property name="meta.attr.minor_version.markup">512</property>
  <property name="meta.attr.major_brand.markup">isom</property>
  <property name="meta.attr.compatible_brands.markup">isomiso2avc1mp41</property>
  <property name="meta.attr.videoai.markup">Enhanced using iris-3; mode: auto; revert compression at 0; recover details at 0; sharpen at 0; reduce noise at 0; dehalo at 0; anti-alias/deblur at 0; focus fix Off; and recover original detail at 20. Changed resolution to 3840x2160</property>
  <property name="meta.attr.encoder.markup">Lavf61.3.103</property>
  <property name="seekable">1</property>
  <property name="meta.media.sample_aspect_num">1</property>
  <property name="meta.media.sample_aspect_den">1</property>
  <property name="audio_index">-1</property>
  <property name="video_index">0</property>
  <property name="vstream">0</property>
  <property name="meta.media.frame_rate_num">24</property>
  <property name="meta.media.frame_rate_den">1</property>
  <property name="meta.media.colorspace">709</property>
  <property name="meta.media.color_trc">2</property>
  <property name="meta.media.has_b_frames">0</property>
  <property name="meta.media.width">3840</property>
  <property name="meta.media.height">2160</property>
  <property name="meta.media.color_range">mpeg</property>
  <property name="meta.media.top_field_first">0</property>
  <property name="meta.media.progressive">1</property>
  <property name="kdenlive:id">29</property>
  <property name="kdenlive:clip_type">2</property>
  <property name="kdenlive:file_size">59278614</property>
  <property name="kdenlive:folderid">-1</property>
  <property name="mute_on_pause">0</property>
  <property name="kdenlive:control_uuid">{eecc67c0-a578-48a3-b276-67ef1038a14f}</property>
  <property name="kdenlive:file_hash">1b0ada917f28d4b4bff4ca920c951d43</property>
 </chain>
 <producer id="producer1" in="00:00:00.000" out="00:00:20.958">
  <property name="length">504</property>
  <property name="eof">pause</property>
  <property name="resource">0x000000ff</property>
  <property name="aspect_ratio">1</property>
  <property name="mlt_service">color</property>
  <property name="kdenlive:clipname">Color Clip</property>
  <property name="kdenlive:duration">00:00:01:00</property>
  <property name="xml">was here</property>
  <property name="seekable">1</property>
  <property name="kdenlive:folderid">-1</property>
  <property name="kdenlive:id">30</property>
  <property name="mlt_image_format">rgb</property>
  <property name="kdenlive:clip_type">2</property>
  <property name="kdenlive:file_hash">9196813120dc5c505072516b15baf414</property>
  <property name="kdenlive:control_uuid">{42e103d1-ff52-459d-b524-f0c3334972aa}</property>
 </producer>
 <chain id="chain49" out="00:00:05.042">
  <property name="length">122</property>
  <property name="eof">pause</property>
  <property name="resource">C:/dev/workspace/indy/dist/room/attic/content/upscale/attic17.mp4</property>
  <property name="mlt_service">avformat-novalidate</property>
  <property name="meta.media.nb_streams">1</property>
  <property name="meta.media.0.stream.type">video</property>
  <property name="meta.media.0.stream.frame_rate">30</property>
  <property name="meta.media.0.stream.sample_aspect_ratio">1</property>
  <property name="meta.media.0.codec.width">3840</property>
  <property name="meta.media.0.codec.height">2160</property>
  <property name="meta.media.0.codec.rotate">0</property>
  <property name="meta.media.0.codec.pix_fmt">yuv420p</property>
  <property name="meta.media.0.codec.sample_aspect_ratio">1</property>
  <property name="meta.media.0.codec.colorspace">709</property>
  <property name="meta.media.0.codec.name">h264</property>
  <property name="meta.media.0.codec.long_name">H.264 / AVC / MPEG-4 AVC / MPEG-4 part 10</property>
  <property name="meta.media.0.codec.bit_rate">96395512</property>
  <property name="meta.attr.0.stream.handler_name.markup">VideoHandler</property>
  <property name="meta.attr.0.stream.vendor_id.markup">[0][0][0][0]</property>
  <property name="meta.attr.0.stream.encoder.markup">Lavc61.5.103 h264_nvenc</property>
  <property name="meta.attr.minor_version.markup">512</property>
  <property name="meta.attr.major_brand.markup">isom</property>
  <property name="meta.attr.compatible_brands.markup">isomiso2avc1mp41</property>
  <property name="meta.attr.metadata1.markup">bNqqEfYDYZpOiWvni5iy8PMIUs0x9/BZCkP6O5aF2RDLBzcdR9Jis49y8SanqT3KyhGqiaAcfNT5It/0JinRqUYQ272Sy/zuj+ENg/nvHpk8aEruG/UhL5UhSygvcpQENm2giSCIg/Tls80qPSAZ8DTpoI/AVocSsFNTDILN00M7/fZXMYccoBTAB</property>
  <property name="meta.attr.metadata0.markup">ChtzZWN1cml0eS5rbGluZy5tZXRhX2VuY3J5cHQS8AH8oi6sVl8WCjBNjFg7RN4VRlc4+p9W+CKcTIL6CEb8TvkHBgrrBfUrmz9m8YZ1kx1fC/RvsONMnPj2kvs3gkXlC79jXdQwAfqabnSYyzVywuwCFUjxj0qF7N7IaGoS/eEivlVhR7A7t0sXr5mePIWLctFGzH4BZeJsxa/6+LguF/shYKZTd6b1JkjbUylJzJTaBc283Gfvx/EFZsQ3PQZ</property>
  <property name="meta.attr.videoai.markup">Enhanced using iris-3; mode: auto; revert compression at 0; recover details at 0; sharpen at 0; reduce noise at 0; dehalo at 0; anti-alias/deblur at 0; focus fix Off; and recover original detail at 20. Changed resolution to 3840x2160</property>
  <property name="meta.attr.encoder.markup">Lavf61.3.103</property>
  <property name="seekable">1</property>
  <property name="meta.media.sample_aspect_num">1</property>
  <property name="meta.media.sample_aspect_den">1</property>
  <property name="audio_index">-1</property>
  <property name="video_index">0</property>
  <property name="vstream">0</property>
  <property name="meta.media.frame_rate_num">30</property>
  <property name="meta.media.frame_rate_den">1</property>
  <property name="meta.media.colorspace">709</property>
  <property name="meta.media.color_trc">2</property>
  <property name="meta.media.has_b_frames">0</property>
  <property name="meta.media.width">3840</property>
  <property name="meta.media.height">2160</property>
  <property name="meta.media.color_range">mpeg</property>
  <property name="meta.media.top_field_first">0</property>
  <property name="meta.media.progressive">1</property>
  <property name="kdenlive:folderid">-1</property>
  <property name="kdenlive:id">31</property>
  <property name="mute_on_pause">0</property>
  <property name="kdenlive:clip_type">2</property>
  <property name="kdenlive:file_size">61455169</property>
  <property name="kdenlive:file_hash">20fb612295db4d34315e7b523399b5a9</property>
  <property name="kdenlive:control_uuid">{c8b78783-2ad6-4324-a0b2-a61d5164e1c3}</property>
 </chain>
 <chain id="chain50" out="00:00:05.083">
  <property name="length">123</property>
  <property name="eof">pause</property>
  <property name="resource">C:/dev/workspace/indy/dist/room/attic/content/upscale/attic16.mp4</property>
  <property name="mlt_service">avformat-novalidate</property>
  <property name="meta.media.nb_streams">1</property>
  <property name="meta.media.0.stream.type">video</property>
  <property name="meta.media.0.stream.frame_rate">30</property>
  <property name="meta.media.0.stream.sample_aspect_ratio">1</property>
  <property name="meta.media.0.codec.width">3840</property>
  <property name="meta.media.0.codec.height">2160</property>
  <property name="meta.media.0.codec.rotate">0</property>
  <property name="meta.media.0.codec.pix_fmt">yuv420p</property>
  <property name="meta.media.0.codec.sample_aspect_ratio">1</property>
  <property name="meta.media.0.codec.colorspace">709</property>
  <property name="meta.media.0.codec.name">h264</property>
  <property name="meta.media.0.codec.long_name">H.264 / AVC / MPEG-4 AVC / MPEG-4 part 10</property>
  <property name="meta.media.0.codec.bit_rate">82747935</property>
  <property name="meta.attr.0.stream.handler_name.markup">VideoHandler</property>
  <property name="meta.attr.0.stream.vendor_id.markup">[0][0][0][0]</property>
  <property name="meta.attr.0.stream.encoder.markup">Lavc61.5.103 h264_nvenc</property>
  <property name="meta.attr.minor_version.markup">512</property>
  <property name="meta.attr.major_brand.markup">isom</property>
  <property name="meta.attr.compatible_brands.markup">isomiso2avc1mp41</property>
  <property name="meta.attr.metadata1.markup">Zb/3FUTYWke4ix3n/Z9YTjdsCH4yAlDRxRayhuKHC5dacl0xV8pytabk8kFvt/7k27mn7CN9W9EffvrNp8QwMfSgycaJrfWN2rcZlQTqfz/EaEtE0eIf3so5Lwzpg3hYo1G93EiIgjhE2QUXyimLRfwf/meRt49cmShTzZGyZuTfDDYtFqc8oBTAB</property>
  <property name="meta.attr.metadata0.markup">ChtzZWN1cml0eS5rbGluZy5tZXRhX2VuY3J5cHQS8AE8zcFNFZPx7rlww8M+HQVG2Vd/lyZ4OY3iF2szFHfzPpIiRyOXcbH6T3hJwGQiWioNqaaJ80EBITaXPyoh3JJWZPfuQQW7S7kO8TGt1HB7+DG4BcWCb1Qsy/EjueRpMR66rRnr+jakYAoztJ+Ge95wdZM7QkiLjY/w4JIuC77Abqni2XDIUOc54TgNjmA8mHAh1oH/ND3SU183t017GXE</property>
  <property name="meta.attr.videoai.markup">Enhanced using iris-3; mode: auto; revert compression at 0; recover details at 0; sharpen at 0; reduce noise at 0; dehalo at 0; anti-alias/deblur at 0; focus fix Off; and recover original detail at 20. Changed resolution to 3840x2160</property>
  <property name="meta.attr.encoder.markup">Lavf61.3.103</property>
  <property name="seekable">1</property>
  <property name="meta.media.sample_aspect_num">1</property>
  <property name="meta.media.sample_aspect_den">1</property>
  <property name="audio_index">-1</property>
  <property name="video_index">0</property>
  <property name="vstream">0</property>
  <property name="meta.media.frame_rate_num">30</property>
  <property name="meta.media.frame_rate_den">1</property>
  <property name="meta.media.colorspace">709</property>
  <property name="meta.media.color_trc">2</property>
  <property name="meta.media.has_b_frames">0</property>
  <property name="meta.media.width">3840</property>
  <property name="meta.media.height">2160</property>
  <property name="meta.media.color_range">mpeg</property>
  <property name="meta.media.top_field_first">0</property>
  <property name="meta.media.progressive">1</property>
  <property name="kdenlive:folderid">-1</property>
  <property name="kdenlive:id">32</property>
  <property name="mute_on_pause">0</property>
  <property name="kdenlive:clip_type">2</property>
  <property name="kdenlive:file_size">53012690</property>
  <property name="kdenlive:control_uuid">{a9f57a72-e30e-4c40-b3c5-a43a6d7fb1b5}</property>
  <property name="kdenlive:file_hash">1230f0a752dcf9e033821d8167ee21e0</property>
 </chain>
 <chain id="chain51" out="00:00:05.125">
  <property name="length">124</property>
  <property name="eof">pause</property>
  <property name="resource">C:/dev/workspace/indy/dist/room/attic/content/audio/step.mp4</property>
  <property name="mlt_service">avformat-novalidate</property>
  <property name="meta.media.nb_streams">2</property>
  <property name="meta.media.0.stream.type">video</property>
  <property name="meta.media.0.stream.frame_rate">30</property>
  <property name="meta.media.0.stream.sample_aspect_ratio">0</property>
  <property name="meta.media.0.codec.width">1344</property>
  <property name="meta.media.0.codec.height">704</property>
  <property name="meta.media.0.codec.rotate">0</property>
  <property name="meta.media.0.codec.pix_fmt">yuv420p</property>
  <property name="meta.media.0.codec.sample_aspect_ratio">0</property>
  <property name="meta.media.0.codec.colorspace">709</property>
  <property name="meta.media.0.codec.name">h264</property>
  <property name="meta.media.0.codec.long_name">H.264 / AVC / MPEG-4 AVC / MPEG-4 part 10</property>
  <property name="meta.media.0.codec.bit_rate">1551651</property>
  <property name="meta.attr.0.stream.handler_name.markup">VideoHandler</property>
  <property name="meta.attr.0.stream.vendor_id.markup">[0][0][0][0]</property>
  <property name="meta.attr.0.stream.encoder.markup">Lavc59.37.100 libx264</property>
  <property name="meta.media.1.stream.type">audio</property>
  <property name="meta.media.1.codec.sample_fmt">fltp</property>
  <property name="meta.media.1.codec.sample_rate">44100</property>
  <property name="meta.media.1.codec.channels">2</property>
  <property name="meta.media.1.codec.name">aac</property>
  <property name="meta.media.1.codec.long_name">AAC (Advanced Audio Coding)</property>
  <property name="meta.media.1.codec.bit_rate">127768</property>
  <property name="meta.attr.1.stream.handler_name.markup">SoundHandler</property>
  <property name="meta.attr.1.stream.vendor_id.markup">[0][0][0][0]</property>
  <property name="meta.attr.major_brand.markup">isom</property>
  <property name="meta.attr.minor_version.markup">512</property>
  <property name="meta.attr.compatible_brands.markup">isomiso2avc1mp41</property>
  <property name="meta.attr.encoder.markup">Lavf59.27.100</property>
  <property name="seekable">1</property>
  <property name="meta.media.sample_aspect_num">1</property>
  <property name="meta.media.sample_aspect_den">1</property>
  <property name="audio_index">1</property>
  <property name="video_index">0</property>
  <property name="vstream">0</property>
  <property name="meta.media.frame_rate_num">30</property>
  <property name="meta.media.frame_rate_den">1</property>
  <property name="meta.media.colorspace">709</property>
  <property name="meta.media.color_trc">2</property>
  <property name="meta.media.has_b_frames">2</property>
  <property name="meta.media.width">1344</property>
  <property name="meta.media.height">704</property>
  <property name="meta.media.color_range">mpeg</property>
  <property name="astream">0</property>
  <property name="meta.media.top_field_first">0</property>
  <property name="meta.media.progressive">1</property>
  <property name="kdenlive:folderid">-1</property>
  <property name="kdenlive:id">33</property>
  <property name="mute_on_pause">0</property>
  <property name="kdenlive:clip_type">0</property>
  <property name="kdenlive:file_size">1078682</property>
  <property name="kdenlive:file_hash">3c52f0f3046ecfdec5ff1e0103da3929</property>
  <property name="kdenlive:audio_max1">123</property>
  <property name="kdenlive:control_uuid">{7df54aa8-39bd-415e-af33-60693c09b5e4}</property>
 </chain>
 <chain id="chain54" out="00:00:05.042">
  <property name="length">122</property>
  <property name="eof">pause</property>
  <property name="resource">C:/dev/workspace/indy/dist/room/attic/content/upscale/attic19.mp4</property>
  <property name="mlt_service">avformat-novalidate</property>
  <property name="meta.media.nb_streams">1</property>
  <property name="meta.media.0.stream.type">video</property>
  <property name="meta.media.0.stream.frame_rate">30</property>
  <property name="meta.media.0.stream.sample_aspect_ratio">1</property>
  <property name="meta.media.0.codec.width">3840</property>
  <property name="meta.media.0.codec.height">2160</property>
  <property name="meta.media.0.codec.rotate">0</property>
  <property name="meta.media.0.codec.pix_fmt">yuv420p</property>
  <property name="meta.media.0.codec.sample_aspect_ratio">1</property>
  <property name="meta.media.0.codec.colorspace">709</property>
  <property name="meta.media.0.codec.name">h264</property>
  <property name="meta.media.0.codec.long_name">H.264 / AVC / MPEG-4 AVC / MPEG-4 part 10</property>
  <property name="meta.media.0.codec.bit_rate">81876268</property>
  <property name="meta.attr.0.stream.handler_name.markup">VideoHandler</property>
  <property name="meta.attr.0.stream.vendor_id.markup">[0][0][0][0]</property>
  <property name="meta.attr.0.stream.encoder.markup">Lavc61.5.103 h264_nvenc</property>
  <property name="meta.attr.minor_version.markup">512</property>
  <property name="meta.attr.major_brand.markup">isom</property>
  <property name="meta.attr.compatible_brands.markup">isomiso2avc1mp41</property>
  <property name="meta.attr.metadata1.markup">fYDZDnIpSrRqkFDPVn38WiRbP3rwVJICkFOfZzqOcQBfPj0fEW2GYymo5EuOxQ4nwPdytpvztqKG9FynuEftaqelP48KWb6LYlluEKJz4Vn8aEtPY/yy9/EL/GL+WYdLYRGFvASIgpVZOpf6fzV3OUGIBWaaUOX3XxaWoN+dYtNwXWmt7vdIoBTAB</property>
  <property name="meta.attr.metadata0.markup">ChtzZWN1cml0eS5rbGluZy5tZXRhX2VuY3J5cHQS8AFDWpZys8rofo6c0hS5sN30VN+paLY1STkOlqH6lMA93CId7a1epXcME3rGZZGPFu/668nxWbyDZ/kEUT2CMgqpdJSp9HPHT7jhmgFKjx99Oo1E/No7DoC0FSkhSGr8B4NT2N2TOG7MsumCXUxB+eutVr1OCzXkyy5AeFsJpylzNU5JjdC1XQyoA06e4mrWIhfL4BfSRYXy8QLNMt3vp+/</property>
  <property name="meta.attr.videoai.markup">Enhanced using iris-3; mode: auto; revert compression at 0; recover details at 0; sharpen at 0; reduce noise at 0; dehalo at 0; anti-alias/deblur at 0; focus fix Off; and recover original detail at 20. Changed resolution to 3840x2160</property>
  <property name="meta.attr.encoder.markup">Lavf61.3.103</property>
  <property name="seekable">1</property>
  <property name="meta.media.sample_aspect_num">1</property>
  <property name="meta.media.sample_aspect_den">1</property>
  <property name="audio_index">-1</property>
  <property name="video_index">0</property>
  <property name="vstream">0</property>
  <property name="meta.media.frame_rate_num">30</property>
  <property name="meta.media.frame_rate_den">1</property>
  <property name="meta.media.colorspace">709</property>
  <property name="meta.media.color_trc">2</property>
  <property name="meta.media.has_b_frames">0</property>
  <property name="meta.media.width">3840</property>
  <property name="meta.media.height">2160</property>
  <property name="meta.media.color_range">mpeg</property>
  <property name="meta.media.top_field_first">0</property>
  <property name="meta.media.progressive">1</property>
  <property name="kdenlive:id">34</property>
  <property name="kdenlive:clip_type">2</property>
  <property name="kdenlive:file_size">52199099</property>
  <property name="kdenlive:file_hash">c7f563f6fc2f198c6080719992d90d33</property>
  <property name="kdenlive:folderid">-1</property>
  <property name="mute_on_pause">0</property>
  <property name="kdenlive:control_uuid">{eac92812-ae8a-46f7-9216-103327ce146a}</property>
 </chain>
 <chain id="chain53" out="00:00:03.958">
  <property name="length">96</property>
  <property name="eof">pause</property>
  <property name="resource">C:/dev/workspace/indy/dist/room/attic/content/upscale/dialog2.mp4</property>
  <property name="mlt_service">avformat-novalidate</property>
  <property name="meta.media.nb_streams">1</property>
  <property name="meta.media.0.stream.type">video</property>
  <property name="meta.media.0.stream.frame_rate">30</property>
  <property name="meta.media.0.stream.sample_aspect_ratio">1</property>
  <property name="meta.media.0.codec.width">3840</property>
  <property name="meta.media.0.codec.height">2160</property>
  <property name="meta.media.0.codec.rotate">0</property>
  <property name="meta.media.0.codec.pix_fmt">yuv420p</property>
  <property name="meta.media.0.codec.sample_aspect_ratio">1</property>
  <property name="meta.media.0.codec.colorspace">709</property>
  <property name="meta.media.0.codec.name">h264</property>
  <property name="meta.media.0.codec.long_name">H.264 / AVC / MPEG-4 AVC / MPEG-4 part 10</property>
  <property name="meta.media.0.codec.bit_rate">77984252</property>
  <property name="meta.attr.0.stream.handler_name.markup">VideoHandler</property>
  <property name="meta.attr.0.stream.vendor_id.markup">[0][0][0][0]</property>
  <property name="meta.attr.0.stream.encoder.markup">Lavc61.5.103 h264_nvenc</property>
  <property name="meta.attr.minor_version.markup">512</property>
  <property name="meta.attr.major_brand.markup">isom</property>
  <property name="meta.attr.compatible_brands.markup">isomiso2avc1mp41</property>
  <property name="meta.attr.videoai.markup">Enhanced using iris-3; mode: auto; revert compression at 0; recover details at 0; sharpen at 0; reduce noise at 0; dehalo at 0; anti-alias/deblur at 0; focus fix Off; and recover original detail at 20. Changed resolution to 3840x2160</property>
  <property name="meta.attr.encoder.markup">Lavf61.3.103</property>
  <property name="seekable">1</property>
  <property name="meta.media.sample_aspect_num">1</property>
  <property name="meta.media.sample_aspect_den">1</property>
  <property name="audio_index">-1</property>
  <property name="video_index">0</property>
  <property name="vstream">0</property>
  <property name="meta.media.frame_rate_num">30</property>
  <property name="meta.media.frame_rate_den">1</property>
  <property name="meta.media.colorspace">709</property>
  <property name="meta.media.color_trc">2</property>
  <property name="meta.media.has_b_frames">0</property>
  <property name="meta.media.width">3840</property>
  <property name="meta.media.height">2160</property>
  <property name="meta.media.color_range">mpeg</property>
  <property name="meta.media.top_field_first">0</property>
  <property name="meta.media.progressive">1</property>
  <property name="kdenlive:id">35</property>
  <property name="kdenlive:clip_type">2</property>
  <property name="kdenlive:file_size">38994338</property>
  <property name="kdenlive:file_hash">00d4ccb4e3f4d5ed5ecbe48a71309de0</property>
  <property name="kdenlive:folderid">-1</property>
  <property name="mute_on_pause">0</property>
  <property name="kdenlive:control_uuid">{862e0f5e-e5cb-4812-9052-8bcf87bd9217}</property>
 </chain>
 <chain id="chain52" out="00:00:05.042">
  <property name="length">122</property>
  <property name="eof">pause</property>
  <property name="resource">C:/dev/workspace/indy/dist/room/attic/content/upscale/attic20.mp4</property>
  <property name="mlt_service">avformat-novalidate</property>
  <property name="meta.media.nb_streams">1</property>
  <property name="meta.media.0.stream.type">video</property>
  <property name="meta.media.0.stream.frame_rate">30</property>
  <property name="meta.media.0.stream.sample_aspect_ratio">1</property>
  <property name="meta.media.0.codec.width">3840</property>
  <property name="meta.media.0.codec.height">2160</property>
  <property name="meta.media.0.codec.rotate">0</property>
  <property name="meta.media.0.codec.pix_fmt">yuv420p</property>
  <property name="meta.media.0.codec.sample_aspect_ratio">1</property>
  <property name="meta.media.0.codec.colorspace">709</property>
  <property name="meta.media.0.codec.name">h264</property>
  <property name="meta.media.0.codec.long_name">H.264 / AVC / MPEG-4 AVC / MPEG-4 part 10</property>
  <property name="meta.media.0.codec.bit_rate">87180812</property>
  <property name="meta.attr.0.stream.handler_name.markup">VideoHandler</property>
  <property name="meta.attr.0.stream.vendor_id.markup">[0][0][0][0]</property>
  <property name="meta.attr.0.stream.encoder.markup">Lavc61.5.103 h264_nvenc</property>
  <property name="meta.attr.minor_version.markup">512</property>
  <property name="meta.attr.major_brand.markup">isom</property>
  <property name="meta.attr.compatible_brands.markup">isomiso2avc1mp41</property>
  <property name="meta.attr.metadata1.markup">UWaUAiZJhrdW3VJmoQBhd+97bde4SOc25DqnnUCzWrlOU8YBP6tReU66o2n2MXpkPa/d02C+7jAoG4wiQPYmr5wGy5HZFRtLegklQ0YFcaaIaEivQw0d2bbNADt/QQc1aqHm78iIgweXB+Rvy5QGs352+gca1rw2WYhjcFLt71kfzqmoxdRMoBTAB</property>
  <property name="meta.attr.metadata0.markup">ChtzZWN1cml0eS5rbGluZy5tZXRhX2VuY3J5cHQS8AHo4crEdmuNZhSX5SZwbAatFKOFcb/enCVOyoesAp4ktoTtQf05kZpx5iMZBx+/n7pxMz9uLOrXmJG5UtUzRytSi5k+WAgJlhqFN37cZmvExO8oI/7wV2MXgoc0dsdoI8hgNhqO7QJ1vae4a6NBHZirQyUoIhBVaJ5+CGZAxFWf14cvQsMHpLHpvylyatoUamrRygoUqmwy0lxQRB9Wo3N</property>
  <property name="meta.attr.videoai.markup">Enhanced using iris-3; mode: auto; revert compression at 0; recover details at 0; sharpen at 0; reduce noise at 0; dehalo at 0; anti-alias/deblur at 0; focus fix Off; and recover original detail at 20. Changed resolution to 3840x2160</property>
  <property name="meta.attr.encoder.markup">Lavf61.3.103</property>
  <property name="seekable">1</property>
  <property name="meta.media.sample_aspect_num">1</property>
  <property name="meta.media.sample_aspect_den">1</property>
  <property name="audio_index">-1</property>
  <property name="video_index">0</property>
  <property name="vstream">0</property>
  <property name="meta.media.frame_rate_num">30</property>
  <property name="meta.media.frame_rate_den">1</property>
  <property name="meta.media.colorspace">709</property>
  <property name="meta.media.color_trc">2</property>
  <property name="meta.media.has_b_frames">0</property>
  <property name="meta.media.width">3840</property>
  <property name="meta.media.height">2160</property>
  <property name="meta.media.color_range">mpeg</property>
  <property name="meta.media.top_field_first">0</property>
  <property name="meta.media.progressive">1</property>
  <property name="kdenlive:id">36</property>
  <property name="kdenlive:clip_type">2</property>
  <property name="kdenlive:file_size">55580782</property>
  <property name="kdenlive:file_hash">df47a78921d8310cb4ab02b361a56786</property>
  <property name="kdenlive:folderid">-1</property>
  <property name="mute_on_pause">0</property>
  <property name="kdenlive:control_uuid">{1c5b08fa-5dab-4704-bc54-bc57213f9509}</property>
 </chain>
 <chain id="chain56" out="00:00:05.042">
  <property name="length">122</property>
  <property name="eof">pause</property>
  <property name="resource">C:/dev/workspace/indy/dist/room/attic/content/upscale/attic18.mp4</property>
  <property name="mlt_service">avformat-novalidate</property>
  <property name="meta.media.nb_streams">1</property>
  <property name="meta.media.0.stream.type">video</property>
  <property name="meta.media.0.stream.frame_rate">30</property>
  <property name="meta.media.0.stream.sample_aspect_ratio">1</property>
  <property name="meta.media.0.codec.width">3840</property>
  <property name="meta.media.0.codec.height">2160</property>
  <property name="meta.media.0.codec.rotate">0</property>
  <property name="meta.media.0.codec.pix_fmt">yuv420p</property>
  <property name="meta.media.0.codec.sample_aspect_ratio">1</property>
  <property name="meta.media.0.codec.colorspace">709</property>
  <property name="meta.media.0.codec.name">h264</property>
  <property name="meta.media.0.codec.long_name">H.264 / AVC / MPEG-4 AVC / MPEG-4 part 10</property>
  <property name="meta.media.0.codec.bit_rate">61021480</property>
  <property name="meta.attr.0.stream.handler_name.markup">VideoHandler</property>
  <property name="meta.attr.0.stream.vendor_id.markup">[0][0][0][0]</property>
  <property name="meta.attr.0.stream.encoder.markup">Lavc61.5.103 h264_nvenc</property>
  <property name="meta.attr.minor_version.markup">512</property>
  <property name="meta.attr.major_brand.markup">isom</property>
  <property name="meta.attr.compatible_brands.markup">isomiso2avc1mp41</property>
  <property name="meta.attr.metadata1.markup">slhG9wEIAsSIckVPCixPJXq5ygb7qp/WTvZ+7kOtL00NmRhb6bdcOpxLbysDxvahhRQZgRLWQIZckVwFmaTZZAuYH/evseaYuaMHCXo7+AYcaEtgwYXwSZZrANFTt/HfNjE8c1yIg4LoNwZzfie6z0SDY7ejQQNe7KfGFKvZSZ+9i1KtMuLkoBTAB</property>
  <property name="meta.attr.metadata0.markup">ChtzZWN1cml0eS5rbGluZy5tZXRhX2VuY3J5cHQS8AE7sXE3ucGbWKEUpdpiQs3mUFKabQbaqJAWhDUNG92c1zRU7TV3psWOL6guF996if1dORuvn9M4J/kOpTzKbp5gY73/2gDep1B/Ij/O/2fHxdR7Dov+4naDCJoyhLIvXdoTEGoGu3KYxcGsBQ7qg35BDLsVQ3IH5Qn/u5oBXMPQr9gUZFebS6bT2rv20KoLxZzxQpCaCYswuR9Fd251zUh</property>
  <property name="meta.attr.videoai.markup">Enhanced using iris-3; mode: auto; revert compression at 0; recover details at 0; sharpen at 0; reduce noise at 0; dehalo at 0; anti-alias/deblur at 0; focus fix Off; and recover original detail at 20. Changed resolution to 3840x2160</property>
  <property name="meta.attr.encoder.markup">Lavf61.3.103</property>
  <property name="seekable">1</property>
  <property name="meta.media.sample_aspect_num">1</property>
  <property name="meta.media.sample_aspect_den">1</property>
  <property name="audio_index">-1</property>
  <property name="video_index">0</property>
  <property name="vstream">0</property>
  <property name="meta.media.frame_rate_num">30</property>
  <property name="meta.media.frame_rate_den">1</property>
  <property name="meta.media.colorspace">709</property>
  <property name="meta.media.color_trc">2</property>
  <property name="meta.media.has_b_frames">0</property>
  <property name="meta.media.width">3840</property>
  <property name="meta.media.height">2160</property>
  <property name="meta.media.color_range">mpeg</property>
  <property name="meta.media.top_field_first">0</property>
  <property name="meta.media.progressive">1</property>
  <property name="kdenlive:folderid">-1</property>
  <property name="kdenlive:id">37</property>
  <property name="mute_on_pause">0</property>
  <property name="kdenlive:clip_type">2</property>
  <property name="kdenlive:file_size">38904128</property>
  <property name="kdenlive:file_hash">87c2913a80844f79eb1182b3b582d4fc</property>
  <property name="kdenlive:control_uuid">{f7a61479-f69d-4942-a09f-6dc14aae08cc}</property>
 </chain>
 <producer id="producer0" in="00:00:00.000" out="00:06:07.000">
  <property name="length">2147483647</property>
  <property name="eof">continue</property>
  <property name="resource">black</property>
  <property name="aspect_ratio">1</property>
  <property name="mlt_service">color</property>
  <property name="kdenlive:playlistid">black_track</property>
  <property name="mlt_image_format">rgba</property>
  <property name="set.test_audio">0</property>
 </producer>
 <chain id="chain0" out="00:00:02.083">
  <property name="length">51</property>
  <property name="eof">pause</property>
  <property name="resource">C:/dev/workspace/indy/dist/room/attic/content/voice/cross.mp3</property>
  <property name="mlt_service">avformat-novalidate</property>
  <property name="seekable">1</property>
  <property name="audio_index">0</property>
  <property name="video_index">-1</property>
  <property name="astream">0</property>
  <property name="kdenlive:id">19</property>
  <property name="kdenlive:clip_type">1</property>
  <property name="kdenlive:file_size">17362</property>
  <property name="kdenlive:file_hash">2a7a560848dc1125e3cbd4c2e405cca8</property>
  <property name="kdenlive:folderid">-1</property>
  <property name="meta.media.nb_streams">1</property>
  <property name="meta.media.0.stream.type">audio</property>
  <property name="meta.media.0.codec.sample_fmt">fltp</property>
  <property name="meta.media.0.codec.sample_rate">44100</property>
  <property name="meta.media.0.codec.channels">1</property>
  <property name="meta.media.0.codec.name">mp3float</property>
  <property name="meta.media.0.codec.long_name">MP3 (MPEG audio layer 3)</property>
  <property name="meta.media.0.codec.bit_rate">64000</property>
  <property name="meta.attr.encoder.markup">Lavf61.1.100</property>
  <property name="xml">was here</property>
  <property name="mute_on_pause">0</property>
  <property name="set.test_audio">0</property>
  <property name="set.test_image">1</property>
  <property name="kdenlive:control_uuid">{e93ecfc7-76a6-4392-bd15-525ec8051987}</property>
  <property name="meta.media.0.codec.layout">mono</property>
 </chain>
 <chain id="chain1" out="00:00:03.333">
  <property name="length">81</property>
  <property name="eof">pause</property>
  <property name="resource">C:/dev/workspace/indy/dist/room/attic/content/voice/cross2.mp3</property>
  <property name="mlt_service">avformat-novalidate</property>
  <property name="seekable">1</property>
  <property name="audio_index">0</property>
  <property name="video_index">-1</property>
  <property name="astream">0</property>
  <property name="kdenlive:id">20</property>
  <property name="kdenlive:clip_type">1</property>
  <property name="kdenlive:file_size">27184</property>
  <property name="kdenlive:file_hash">7ad3dd2b81ee01c24d4654efa8d919f5</property>
  <property name="kdenlive:folderid">-1</property>
  <property name="meta.media.nb_streams">1</property>
  <property name="meta.media.0.stream.type">audio</property>
  <property name="meta.media.0.codec.sample_fmt">fltp</property>
  <property name="meta.media.0.codec.sample_rate">44100</property>
  <property name="meta.media.0.codec.channels">1</property>
  <property name="meta.media.0.codec.name">mp3float</property>
  <property name="meta.media.0.codec.long_name">MP3 (MPEG audio layer 3)</property>
  <property name="meta.media.0.codec.bit_rate">64000</property>
  <property name="meta.attr.encoder.markup">Lavf61.1.100</property>
  <property name="xml">was here</property>
  <property name="mute_on_pause">0</property>
  <property name="set.test_audio">0</property>
  <property name="set.test_image">1</property>
  <property name="kdenlive:control_uuid">{8173d856-e790-4c07-939b-d4a7ba6dfe17}</property>
  <property name="meta.media.0.codec.layout">mono</property>
 </chain>
 <chain id="chain2" out="00:00:04.208">
  <property name="length">102</property>
  <property name="eof">pause</property>
  <property name="resource">C:/dev/workspace/indy/dist/room/attic/content/voice/cross3.mp3</property>
  <property name="mlt_service">avformat-novalidate</property>
  <property name="seekable">1</property>
  <property name="audio_index">0</property>
  <property name="video_index">-1</property>
  <property name="astream">0</property>
  <property name="kdenlive:id">21</property>
  <property name="kdenlive:clip_type">1</property>
  <property name="kdenlive:file_size">34080</property>
  <property name="kdenlive:file_hash">feee882d69c1faeb7e18e49403338d00</property>
  <property name="kdenlive:folderid">-1</property>
  <property name="meta.media.nb_streams">1</property>
  <property name="meta.media.0.stream.type">audio</property>
  <property name="meta.media.0.codec.sample_fmt">fltp</property>
  <property name="meta.media.0.codec.sample_rate">44100</property>
  <property name="meta.media.0.codec.channels">1</property>
  <property name="meta.media.0.codec.name">mp3float</property>
  <property name="meta.media.0.codec.long_name">MP3 (MPEG audio layer 3)</property>
  <property name="meta.media.0.codec.bit_rate">64000</property>
  <property name="meta.attr.encoder.markup">Lavf61.1.100</property>
  <property name="xml">was here</property>
  <property name="mute_on_pause">0</property>
  <property name="set.test_audio">0</property>
  <property name="set.test_image">1</property>
  <property name="kdenlive:control_uuid">{f1c0b077-99ee-4302-a5e1-420ae3c5cfb1}</property>
  <property name="meta.media.0.codec.layout">mono</property>
 </chain>
 <playlist id="playlist0">
  <property name="kdenlive:audio_track">1</property>
  <blank length="00:00:31.000"/>
  <entry in="00:00:00.000" out="00:00:02.083" producer="chain0">
   <property name="kdenlive:id">19</property>
  </entry>
  <blank length="00:00:00.875"/>
  <entry in="00:00:00.000" out="00:00:03.292" producer="chain1">
   <property name="kdenlive:id">20</property>
  </entry>
  <blank length="00:00:04.083"/>
  <entry in="00:00:00.000" out="00:00:04.208" producer="chain2">
   <property name="kdenlive:id">21</property>
  </entry>
 </playlist>
 <playlist id="playlist1">
  <property name="kdenlive:audio_track">1</property>
 </playlist>
 <tractor id="tractor0" in="00:00:00.000" out="00:00:45.625">
  <property name="kdenlive:audio_track">1</property>
  <property name="kdenlive:trackheight">67</property>
  <property name="kdenlive:timeline_active">1</property>
  <property name="kdenlive:collapsed">0</property>
  <property name="kdenlive:thumbs_format"/>
  <property name="kdenlive:audio_rec"/>
  <track hide="video" producer="playlist0"/>
  <track hide="video" producer="playlist1"/>
  <filter id="filter3">
   <property name="window">75</property>
   <property name="max_gain">20dB</property>
   <property name="mlt_service">volume</property>
   <property name="internal_added">237</property>
   <property name="disable">1</property>
  </filter>
  <filter id="filter4">
   <property name="channel">-1</property>
   <property name="mlt_service">panner</property>
   <property name="internal_added">237</property>
   <property name="start">0.5</property>
   <property name="disable">1</property>
  </filter>
  <filter id="filter0">
   <property name="iec_scale">0</property>
   <property name="mlt_service">audiolevel</property>
   <property name="dbpeak">1</property>
   <property name="disable">1</property>
  </filter>
 </tractor>
 <chain id="chain3" out="00:00:05.125">
  <property name="length">124</property>
  <property name="eof">pause</property>
  <property name="resource">C:/dev/workspace/indy/dist/room/attic/content/audio/step.mp4</property>
  <property name="mlt_service">avformat-novalidate</property>
  <property name="seekable">1</property>
  <property name="audio_index">1</property>
  <property name="video_index">0</property>
  <property name="vstream">0</property>
  <property name="astream">0</property>
  <property name="kdenlive:folderid">-1</property>
  <property name="kdenlive:id">33</property>
  <property name="mute_on_pause">0</property>
  <property name="kdenlive:clip_type">0</property>
  <property name="kdenlive:file_size">1078682</property>
  <property name="kdenlive:file_hash">3c52f0f3046ecfdec5ff1e0103da3929</property>
  <property name="kdenlive:audio_max1">123</property>
  <property name="meta.media.nb_streams">2</property>
  <property name="meta.media.0.stream.type">video</property>
  <property name="meta.media.0.stream.frame_rate">30</property>
  <property name="meta.media.0.stream.sample_aspect_ratio">0</property>
  <property name="meta.media.0.codec.width">1344</property>
  <property name="meta.media.0.codec.height">704</property>
  <property name="meta.media.0.codec.rotate">0</property>
  <property name="meta.media.0.codec.pix_fmt">yuv420p</property>
  <property name="meta.media.0.codec.sample_aspect_ratio">0</property>
  <property name="meta.media.0.codec.colorspace">709</property>
  <property name="meta.media.0.codec.name">h264</property>
  <property name="meta.media.0.codec.long_name">H.264 / AVC / MPEG-4 AVC / MPEG-4 part 10</property>
  <property name="meta.media.0.codec.bit_rate">1551651</property>
  <property name="meta.attr.0.stream.handler_name.markup">VideoHandler</property>
  <property name="meta.attr.0.stream.vendor_id.markup">[0][0][0][0]</property>
  <property name="meta.attr.0.stream.encoder.markup">Lavc59.37.100 libx264</property>
  <property name="meta.media.1.stream.type">audio</property>
  <property name="meta.media.1.codec.sample_fmt">fltp</property>
  <property name="meta.media.1.codec.sample_rate">44100</property>
  <property name="meta.media.1.codec.channels">2</property>
  <property name="meta.media.1.codec.name">aac</property>
  <property name="meta.media.1.codec.long_name">AAC (Advanced Audio Coding)</property>
  <property name="meta.media.1.codec.bit_rate">127768</property>
  <property name="meta.attr.1.stream.handler_name.markup">SoundHandler</property>
  <property name="meta.attr.1.stream.vendor_id.markup">[0][0][0][0]</property>
  <property name="meta.attr.major_brand.markup">isom</property>
  <property name="meta.attr.minor_version.markup">512</property>
  <property name="meta.attr.compatible_brands.markup">isomiso2avc1mp41</property>
  <property name="meta.attr.encoder.markup">Lavf59.27.100</property>
  <property name="meta.media.sample_aspect_num">1</property>
  <property name="meta.media.sample_aspect_den">1</property>
  <property name="meta.media.frame_rate_num">30</property>
  <property name="meta.media.frame_rate_den">1</property>
  <property name="meta.media.colorspace">709</property>
  <property name="meta.media.color_trc">2</property>
  <property name="meta.media.has_b_frames">2</property>
  <property name="meta.media.width">1344</property>
  <property name="meta.media.height">704</property>
  <property name="meta.media.color_range">mpeg</property>
  <property name="xml">was here</property>
  <property name="meta.media.top_field_first">0</property>
  <property name="meta.media.progressive">1</property>
  <property name="set.test_audio">0</property>
  <property name="set.test_image">1</property>
  <property name="kdenlive:control_uuid">{7df54aa8-39bd-415e-af33-60693c09b5e4}</property>
 </chain>
 <chain id="chain4" out="00:12:00.000">
  <property name="length">17281</property>
  <property name="eof">pause</property>
  <property name="resource">C:/dev/workspace/indy/dist/room/attic/content/music/extra/attic2.webm</property>
  <property name="mlt_service">avformat-novalidate</property>
  <property name="seekable">1</property>
  <property name="audio_index">0</property>
  <property name="video_index">-1</property>
  <property name="astream">0</property>
  <property name="kdenlive:id">14</property>
  <property name="kdenlive:clip_type">1</property>
  <property name="kdenlive:file_size">12295707</property>
  <property name="kdenlive:file_hash">946749c6ed27e31476ade9621df76e60</property>
  <property name="kdenlive:folderid">-1</property>
  <property name="meta.media.nb_streams">1</property>
  <property name="meta.media.0.stream.type">audio</property>
  <property name="meta.media.0.codec.sample_fmt">fltp</property>
  <property name="meta.media.0.codec.sample_rate">48000</property>
  <property name="meta.media.0.codec.channels">2</property>
  <property name="meta.media.0.codec.name">opus</property>
  <property name="meta.media.0.codec.long_name">Opus</property>
  <property name="meta.media.0.codec.bit_rate">0</property>
  <property name="meta.attr.0.stream.language.markup">eng</property>
  <property name="meta.attr.encoder.markup">google/video-file</property>
  <property name="xml">was here</property>
  <property name="mute_on_pause">0</property>
  <property name="set.test_audio">0</property>
  <property name="set.test_image">1</property>
  <property name="kdenlive:control_uuid">{0c049463-f570-458a-ad6d-9d5bea9a6459}</property>
  <property name="meta.media.0.codec.layout">stereo</property>
 </chain>
 <chain id="chain5" out="00:00:03.083">
  <property name="length">75</property>
  <property name="eof">pause</property>
  <property name="resource">C:/dev/workspace/indy/dist/room/attic/content/voice/gargoyle.mp3</property>
  <property name="mlt_service">avformat-novalidate</property>
  <property name="seekable">1</property>
  <property name="audio_index">0</property>
  <property name="video_index">-1</property>
  <property name="astream">0</property>
  <property name="kdenlive:id">22</property>
  <property name="kdenlive:clip_type">1</property>
  <property name="kdenlive:file_size">25303</property>
  <property name="kdenlive:file_hash">48d628cbc1d2b53830f59744b1147215</property>
  <property name="kdenlive:folderid">-1</property>
  <property name="meta.media.nb_streams">1</property>
  <property name="meta.media.0.stream.type">audio</property>
  <property name="meta.media.0.codec.sample_fmt">fltp</property>
  <property name="meta.media.0.codec.sample_rate">44100</property>
  <property name="meta.media.0.codec.channels">1</property>
  <property name="meta.media.0.codec.name">mp3float</property>
  <property name="meta.media.0.codec.long_name">MP3 (MPEG audio layer 3)</property>
  <property name="meta.media.0.codec.bit_rate">64000</property>
  <property name="meta.attr.encoder.markup">Lavf61.1.100</property>
  <property name="xml">was here</property>
  <property name="mute_on_pause">0</property>
  <property name="set.test_audio">0</property>
  <property name="set.test_image">1</property>
  <property name="kdenlive:control_uuid">{0695e140-b46a-4a8e-94a1-1b26f3d99f44}</property>
  <property name="meta.media.0.codec.layout">mono</property>
 </chain>
 <chain id="chain6" out="00:00:04.333">
  <property name="length">105</property>
  <property name="eof">pause</property>
  <property name="resource">C:/dev/workspace/indy/dist/room/attic/content/voice/gargoyle2.mp3</property>
  <property name="mlt_service">avformat-novalidate</property>
  <property name="seekable">1</property>
  <property name="audio_index">0</property>
  <property name="video_index">-1</property>
  <property name="astream">0</property>
  <property name="kdenlive:id">23</property>
  <property name="kdenlive:clip_type">1</property>
  <property name="kdenlive:file_size">35334</property>
  <property name="kdenlive:file_hash">6b61d9b126cb60405e4bff345f1bea97</property>
  <property name="kdenlive:folderid">-1</property>
  <property name="meta.media.nb_streams">1</property>
  <property name="meta.media.0.stream.type">audio</property>
  <property name="meta.media.0.codec.sample_fmt">fltp</property>
  <property name="meta.media.0.codec.sample_rate">44100</property>
  <property name="meta.media.0.codec.channels">1</property>
  <property name="meta.media.0.codec.name">mp3float</property>
  <property name="meta.media.0.codec.long_name">MP3 (MPEG audio layer 3)</property>
  <property name="meta.media.0.codec.bit_rate">64000</property>
  <property name="meta.attr.encoder.markup">Lavf61.1.100</property>
  <property name="xml">was here</property>
  <property name="mute_on_pause">0</property>
  <property name="set.test_audio">0</property>
  <property name="set.test_image">1</property>
  <property name="kdenlive:control_uuid">{17a3603d-34c2-4e80-8f7a-50318d149109}</property>
  <property name="meta.media.0.codec.layout">mono</property>
 </chain>
 <chain id="chain7" out="00:00:02.083">
  <property name="length">51</property>
  <property name="eof">pause</property>
  <property name="resource">C:/dev/workspace/indy/dist/room/attic/content/voice/gargoyle3.mp3</property>
  <property name="mlt_service">avformat-novalidate</property>
  <property name="seekable">1</property>
  <property name="audio_index">0</property>
  <property name="video_index">-1</property>
  <property name="astream">0</property>
  <property name="kdenlive:id">24</property>
  <property name="kdenlive:clip_type">1</property>
  <property name="kdenlive:file_size">17153</property>
  <property name="kdenlive:file_hash">4eb65d3e7161baaa02daa2b4c9a72551</property>
  <property name="kdenlive:folderid">-1</property>
  <property name="meta.media.nb_streams">1</property>
  <property name="meta.media.0.stream.type">audio</property>
  <property name="meta.media.0.codec.sample_fmt">fltp</property>
  <property name="meta.media.0.codec.sample_rate">44100</property>
  <property name="meta.media.0.codec.channels">1</property>
  <property name="meta.media.0.codec.name">mp3float</property>
  <property name="meta.media.0.codec.long_name">MP3 (MPEG audio layer 3)</property>
  <property name="meta.media.0.codec.bit_rate">64000</property>
  <property name="meta.attr.encoder.markup">Lavf61.1.100</property>
  <property name="xml">was here</property>
  <property name="mute_on_pause">0</property>
  <property name="set.test_audio">0</property>
  <property name="set.test_image">1</property>
  <property name="kdenlive:control_uuid">{641ff522-40f2-4a96-8d7c-c4cfb035fc8c}</property>
  <property name="meta.media.0.codec.layout">mono</property>
 </chain>
 <playlist id="playlist2">
  <property name="kdenlive:audio_track">1</property>
  <entry in="00:00:00.000" out="00:00:01.958" producer="chain3">
   <property name="kdenlive:id">33</property>
   <filter id="filter1" in="00:00:01.750" out="00:00:01.958">
    <property name="window">75</property>
    <property name="max_gain">20dB</property>
    <property name="mlt_service">volume</property>
    <property name="kdenlive_id">fadeout</property>
    <property name="gain">1</property>
    <property name="end">0</property>
   </filter>
  </entry>
  <blank length="00:00:26.000"/>
  <entry in="00:03:27.750" out="00:03:50.708" producer="chain4">
   <property name="kdenlive:id">14</property>
   <filter id="filter6" in="00:03:27.750" out="00:03:29.750">
    <property name="window">75</property>
    <property name="max_gain">20dB</property>
    <property name="mlt_service">volume</property>
    <property name="kdenlive_id">fadein</property>
    <property name="gain">0</property>
    <property name="end">1</property>
    <property name="kdenlive:collapsed">0</property>
   </filter>
   <filter id="filter7" in="00:03:49.875" out="00:03:50.708">
    <property name="window">75</property>
    <property name="max_gain">20dB</property>
    <property name="mlt_service">volume</property>
    <property name="kdenlive_id">fadeout</property>
    <property name="gain">1</property>
    <property name="end">0</property>
    <property name="kdenlive:collapsed">0</property>
   </filter>
   <filter id="filter8">
    <property name="window">75</property>
    <property name="max_gain">20dB</property>
    <property name="level">00:03:27.750=-10</property>
    <property name="mlt_service">volume</property>
    <property name="kdenlive_id">volume</property>
    <property name="kdenlive:collapsed">0</property>
   </filter>
  </entry>
  <blank length="00:00:03.000"/>
  <entry in="00:00:00.000" out="00:00:03.083" producer="chain5">
   <property name="kdenlive:id">22</property>
  </entry>
  <blank length="00:00:01.292"/>
  <entry in="00:00:00.000" out="00:00:04.333" producer="chain6">
   <property name="kdenlive:id">23</property>
  </entry>
  <blank length="00:00:00.583"/>
  <entry in="00:00:00.000" out="00:00:02.042" producer="chain7">
   <property name="kdenlive:id">24</property>
  </entry>
 </playlist>
 <playlist id="playlist3">
  <property name="kdenlive:audio_track">1</property>
 </playlist>
 <tractor id="tractor1" in="00:00:00.000" out="00:01:05.417">
  <property name="kdenlive:audio_track">1</property>
  <property name="kdenlive:trackheight">67</property>
  <property name="kdenlive:timeline_active">1</property>
  <property name="kdenlive:collapsed">0</property>
  <property name="kdenlive:thumbs_format"/>
  <property name="kdenlive:audio_rec"/>
  <track hide="video" producer="playlist2"/>
  <track hide="video" producer="playlist3"/>
  <filter id="filter12">
   <property name="window">75</property>
   <property name="max_gain">20dB</property>
   <property name="mlt_service">volume</property>
   <property name="internal_added">237</property>
   <property name="disable">1</property>
  </filter>
  <filter id="filter13">
   <property name="channel">-1</property>
   <property name="mlt_service">panner</property>
   <property name="internal_added">237</property>
   <property name="start">0.5</property>
   <property name="disable">1</property>
  </filter>
  <filter id="filter2">
   <property name="iec_scale">0</property>
   <property name="mlt_service">audiolevel</property>
   <property name="dbpeak">1</property>
   <property name="disable">1</property>
  </filter>
 </tractor>
 <producer id="producer10" in="00:00:00.000" out="00:00:03.042">
  <property name="length">74</property>
  <property name="eof">pause</property>
  <property name="resource">-1.297300:C:/dev/workspace/indy/dist/room/attic/content/upscale/desk.mp4</property>
  <property name="aspect_ratio">1</property>
  <property name="meta.media.nb_streams">1</property>
  <property name="meta.media.0.stream.type">video</property>
  <property name="meta.media.0.stream.frame_rate">24</property>
  <property name="meta.media.0.stream.sample_aspect_ratio">1</property>
  <property name="meta.media.0.codec.width">3840</property>
  <property name="meta.media.0.codec.height">2160</property>
  <property name="meta.media.0.codec.rotate">0</property>
  <property name="meta.media.0.codec.pix_fmt">yuv420p</property>
  <property name="meta.media.0.codec.sample_aspect_ratio">1</property>
  <property name="meta.media.0.codec.colorspace">709</property>
  <property name="meta.media.0.codec.name">h264</property>
  <property name="meta.media.0.codec.long_name">H.264 / AVC / MPEG-4 AVC / MPEG-4 part 10</property>
  <property name="meta.media.0.codec.bit_rate">64829594</property>
  <property name="meta.attr.0.stream.handler_name.markup">VideoHandler</property>
  <property name="meta.attr.0.stream.vendor_id.markup">[0][0][0][0]</property>
  <property name="meta.attr.0.stream.encoder.markup">Lavc61.5.103 h264_nvenc</property>
  <property name="meta.attr.minor_version.markup">512</property>
  <property name="meta.attr.major_brand.markup">isom</property>
  <property name="meta.attr.compatible_brands.markup">isomiso2avc1mp41</property>
  <property name="meta.attr.videoai.markup">Enhanced using iris-3; mode: auto; revert compression at 0; recover details at 0; sharpen at 0; reduce noise at 0; dehalo at 0; anti-alias/deblur at 0; focus fix Off; and recover original detail at 20. Changed resolution to 3840x2160</property>
  <property name="meta.attr.encoder.markup">Lavf61.3.103</property>
  <property name="seekable">1</property>
  <property name="meta.media.sample_aspect_num">1</property>
  <property name="meta.media.sample_aspect_den">1</property>
  <property name="audio_index">-1</property>
  <property name="video_index">0</property>
  <property name="warp_speed">-1.2973</property>
  <property name="warp_resource">C:/dev/workspace/indy/dist/room/attic/content/upscale/desk.mp4</property>
  <property name="mlt_service">timewarp</property>
  <property name="kdenlive:proxy">-</property>
  <property name="kdenlive:originalurl">C:/dev/workspace/indy/dist/room/attic/content/upscale/desk.mp4</property>
  <property name="vstream">0</property>
  <property name="astream">-1</property>
  <property name="set.test_audio">1</property>
  <property name="set.test_image">0</property>
  <property name="kdenlive:id">9</property>
  <property name="warp_pitch">0</property>
  <property name="meta.media.frame_rate_num">24</property>
  <property name="meta.media.frame_rate_den">1</property>
  <property name="meta.media.colorspace">709</property>
  <property name="meta.media.color_trc">2</property>
  <property name="meta.media.has_b_frames">0</property>
  <property name="meta.media.width">3840</property>
  <property name="meta.media.height">2160</property>
  <property name="meta.media.color_range">mpeg</property>
  <property name="meta.media.top_field_first">0</property>
  <property name="meta.media.progressive">1</property>
  <property name="kdenlive:control_uuid">{51c21c80-770e-42a1-a5a2-f31b49a20877}</property>
 </producer>
 <playlist id="playlist4">
  <blank length="00:00:00.917"/>
  <entry in="00:00:00.000" out="00:00:03.042" producer="producer10">
   <property name="kdenlive:id">9</property>
  </entry>
 </playlist>
 <playlist id="playlist5"/>
 <tractor id="tractor2" in="00:00:00.000" out="00:00:03.958">
  <property name="kdenlive:trackheight">67</property>
  <property name="kdenlive:timeline_active">1</property>
  <property name="kdenlive:collapsed">0</property>
  <property name="kdenlive:thumbs_format"/>
  <property name="kdenlive:audio_rec"/>
  <track hide="both" producer="playlist4"/>
  <track hide="both" producer="playlist5"/>
 </tractor>
 <producer id="producer17" in="00:00:00.000" out="00:00:01.292">
  <property name="length">32</property>
  <property name="eof">pause</property>
  <property name="resource">3.000000:C:/dev/workspace/indy/dist/room/attic/content/upscale/attic8.mp4</property>
  <property name="aspect_ratio">1</property>
  <property name="meta.media.nb_streams">1</property>
  <property name="meta.media.0.stream.type">video</property>
  <property name="meta.media.0.stream.frame_rate">24</property>
  <property name="meta.media.0.stream.sample_aspect_ratio">1</property>
  <property name="meta.media.0.codec.width">3840</property>
  <property name="meta.media.0.codec.height">2160</property>
  <property name="meta.media.0.codec.rotate">0</property>
  <property name="meta.media.0.codec.pix_fmt">yuv420p</property>
  <property name="meta.media.0.codec.sample_aspect_ratio">1</property>
  <property name="meta.media.0.codec.colorspace">709</property>
  <property name="meta.media.0.codec.name">h264</property>
  <property name="meta.media.0.codec.long_name">H.264 / AVC / MPEG-4 AVC / MPEG-4 part 10</property>
  <property name="meta.media.0.codec.bit_rate">62047444</property>
  <property name="meta.attr.0.stream.handler_name.markup">VideoHandler</property>
  <property name="meta.attr.0.stream.vendor_id.markup">[0][0][0][0]</property>
  <property name="meta.attr.0.stream.encoder.markup">Lavc61.5.103 h264_nvenc</property>
  <property name="meta.attr.minor_version.markup">512</property>
  <property name="meta.attr.major_brand.markup">isom</property>
  <property name="meta.attr.compatible_brands.markup">isomiso2avc1mp41</property>
  <property name="meta.attr.videoai.markup">Enhanced using iris-3; mode: auto; revert compression at 0; recover details at 0; sharpen at 0; reduce noise at 0; dehalo at 0; anti-alias/deblur at 0; focus fix Off; and recover original detail at 20. Changed resolution to 3840x2160</property>
  <property name="meta.attr.encoder.markup">Lavf61.3.103</property>
  <property name="seekable">1</property>
  <property name="meta.media.sample_aspect_num">1</property>
  <property name="meta.media.sample_aspect_den">1</property>
  <property name="audio_index">-1</property>
  <property name="video_index">0</property>
  <property name="warp_speed">3</property>
  <property name="warp_resource">C:/dev/workspace/indy/dist/room/attic/content/upscale/attic8.mp4</property>
  <property name="mlt_service">timewarp</property>
  <property name="kdenlive:proxy">-</property>
  <property name="kdenlive:originalurl">C:/dev/workspace/indy/dist/room/attic/content/upscale/attic8.mp4</property>
  <property name="vstream">0</property>
  <property name="astream">-1</property>
  <property name="set.test_audio">1</property>
  <property name="set.test_image">0</property>
  <property name="kdenlive:id">8</property>
  <property name="warp_pitch">0</property>
  <property name="meta.media.frame_rate_num">24</property>
  <property name="meta.media.frame_rate_den">1</property>
  <property name="meta.media.colorspace">709</property>
  <property name="meta.media.color_trc">2</property>
  <property name="meta.media.has_b_frames">0</property>
  <property name="meta.media.width">3840</property>
  <property name="meta.media.height">2160</property>
  <property name="meta.media.color_range">mpeg</property>
  <property name="meta.media.top_field_first">0</property>
  <property name="meta.media.progressive">1</property>
  <property name="kdenlive:control_uuid">{67a556ec-426e-4769-8455-354fc873d0b6}</property>
 </producer>
 <chain id="chain8" out="00:00:04.625">
  <property name="length">112</property>
  <property name="eof">pause</property>
  <property name="resource">C:/dev/workspace/indy/dist/room/attic/content/upscale/attic13.mp4</property>
  <property name="mlt_service">avformat-novalidate</property>
  <property name="seekable">1</property>
  <property name="audio_index">-1</property>
  <property name="video_index">0</property>
  <property name="vstream">0</property>
  <property name="kdenlive:proxy">-</property>
  <property name="kdenlive:originalurl">C:/dev/workspace/indy/dist/room/attic/content/upscale/attic13.mp4</property>
  <property name="kdenlive:id">28</property>
  <property name="mute_on_pause">0</property>
  <property name="kdenlive:clip_type">2</property>
  <property name="kdenlive:file_size">52604218</property>
  <property name="kdenlive:folderid">-1</property>
  <property name="kdenlive:file_hash">db1f1cd254fe85b355bf6b66d7a5a89d</property>
  <property name="meta.media.nb_streams">1</property>
  <property name="meta.media.0.stream.type">video</property>
  <property name="meta.media.0.stream.frame_rate">24</property>
  <property name="meta.media.0.stream.sample_aspect_ratio">1</property>
  <property name="meta.media.0.codec.width">3840</property>
  <property name="meta.media.0.codec.height">2160</property>
  <property name="meta.media.0.codec.rotate">0</property>
  <property name="meta.media.0.codec.pix_fmt">yuv420p</property>
  <property name="meta.media.0.codec.sample_aspect_ratio">1</property>
  <property name="meta.media.0.codec.colorspace">709</property>
  <property name="meta.media.0.codec.name">h264</property>
  <property name="meta.media.0.codec.long_name">H.264 / AVC / MPEG-4 AVC / MPEG-4 part 10</property>
  <property name="meta.media.0.codec.bit_rate">102783900</property>
  <property name="meta.attr.0.stream.handler_name.markup">VideoHandler</property>
  <property name="meta.attr.0.stream.vendor_id.markup">[0][0][0][0]</property>
  <property name="meta.attr.0.stream.encoder.markup">Lavc61.5.103 h264_nvenc</property>
  <property name="meta.attr.minor_version.markup">512</property>
  <property name="meta.attr.major_brand.markup">isom</property>
  <property name="meta.attr.compatible_brands.markup">isomiso2avc1mp41</property>
  <property name="meta.attr.videoai.markup">Enhanced using rhea-1; mode: auto; revert compression at 0; recover details at 0; sharpen at 0; reduce noise at 0; dehalo at 0; anti-alias/deblur at 0; focus fix Off; and recover original detail at 20. Changed resolution to 3840x2160</property>
  <property name="meta.attr.encoder.markup">Lavf61.3.103</property>
  <property name="meta.media.sample_aspect_num">1</property>
  <property name="meta.media.sample_aspect_den">1</property>
  <property name="meta.media.frame_rate_num">24</property>
  <property name="meta.media.frame_rate_den">1</property>
  <property name="meta.media.colorspace">709</property>
  <property name="meta.media.color_trc">2</property>
  <property name="meta.media.has_b_frames">0</property>
  <property name="meta.media.width">3840</property>
  <property name="meta.media.height">2160</property>
  <property name="meta.media.color_range">mpeg</property>
  <property name="xml">was here</property>
  <property name="meta.media.top_field_first">0</property>
  <property name="meta.media.progressive">1</property>
  <property name="set.test_audio">1</property>
  <property name="set.test_image">0</property>
  <property name="kdenlive:control_uuid">{f253d6f8-ad1e-4200-ad3e-7e9e1a1ddd8e}</property>
 </chain>
 <producer id="producer7" in="00:00:00.000" out="00:00:07.958">
  <property name="length">192</property>
  <property name="eof">pause</property>
  <property name="resource">0.500000:C:/dev/workspace/indy/dist/room/attic/content/upscale/attic5.mp4</property>
  <property name="aspect_ratio">1</property>
  <property name="meta.media.nb_streams">1</property>
  <property name="meta.media.0.stream.type">video</property>
  <property name="meta.media.0.stream.frame_rate">24</property>
  <property name="meta.media.0.stream.sample_aspect_ratio">1</property>
  <property name="meta.media.0.codec.width">3840</property>
  <property name="meta.media.0.codec.height">2160</property>
  <property name="meta.media.0.codec.rotate">0</property>
  <property name="meta.media.0.codec.pix_fmt">yuv420p</property>
  <property name="meta.media.0.codec.sample_aspect_ratio">1</property>
  <property name="meta.media.0.codec.colorspace">709</property>
  <property name="meta.media.0.codec.name">h264</property>
  <property name="meta.media.0.codec.long_name">H.264 / AVC / MPEG-4 AVC / MPEG-4 part 10</property>
  <property name="meta.media.0.codec.bit_rate">51994028</property>
  <property name="meta.attr.0.stream.handler_name.markup">VideoHandler</property>
  <property name="meta.attr.0.stream.vendor_id.markup">[0][0][0][0]</property>
  <property name="meta.attr.0.stream.encoder.markup">Lavc61.5.103 h264_nvenc</property>
  <property name="meta.attr.minor_version.markup">512</property>
  <property name="meta.attr.major_brand.markup">isom</property>
  <property name="meta.attr.compatible_brands.markup">isomiso2avc1mp41</property>
  <property name="meta.attr.videoai.markup">Enhanced using iris-3; mode: auto; revert compression at 0; recover details at 0; sharpen at 0; reduce noise at 0; dehalo at 0; anti-alias/deblur at 0; focus fix Off; and recover original detail at 20. Changed resolution to 3840x2160</property>
  <property name="meta.attr.encoder.markup">Lavf61.3.103</property>
  <property name="seekable">1</property>
  <property name="meta.media.sample_aspect_num">1</property>
  <property name="meta.media.sample_aspect_den">1</property>
  <property name="audio_index">-1</property>
  <property name="video_index">0</property>
  <property name="warp_speed">0.5</property>
  <property name="warp_resource">C:/dev/workspace/indy/dist/room/attic/content/upscale/attic5.mp4</property>
  <property name="mlt_service">timewarp</property>
  <property name="kdenlive:proxy">-</property>
  <property name="kdenlive:originalurl">C:/dev/workspace/indy/dist/room/attic/content/upscale/attic5.mp4</property>
  <property name="vstream">0</property>
  <property name="astream">-1</property>
  <property name="set.test_audio">1</property>
  <property name="set.test_image">0</property>
  <property name="kdenlive:id">4</property>
  <property name="warp_pitch">0</property>
  <property name="meta.media.frame_rate_num">24</property>
  <property name="meta.media.frame_rate_den">1</property>
  <property name="meta.media.colorspace">709</property>
  <property name="meta.media.color_trc">2</property>
  <property name="meta.media.has_b_frames">0</property>
  <property name="meta.media.width">3840</property>
  <property name="meta.media.height">2160</property>
  <property name="meta.media.color_range">mpeg</property>
  <property name="meta.media.top_field_first">0</property>
  <property name="meta.media.progressive">1</property>
  <property name="kdenlive:control_uuid">{2350f2d9-bcdb-4f85-a571-8f0e497a5e75}</property>
 </producer>
 <producer id="producer3" in="00:00:00.000" out="00:00:03.958">
  <property name="length">96</property>
  <property name="eof">pause</property>
  <property name="resource">-1.000000:C:/dev/workspace/indy/dist/room/attic/content/cross4.mp4</property>
  <property name="aspect_ratio">1</property>
  <property name="meta.media.nb_streams">1</property>
  <property name="meta.media.0.stream.type">video</property>
  <property name="meta.media.0.stream.frame_rate">24</property>
  <property name="meta.media.0.stream.sample_aspect_ratio">0</property>
  <property name="meta.media.0.codec.width">2816</property>
  <property name="meta.media.0.codec.height">1536</property>
  <property name="meta.media.0.codec.rotate">0</property>
  <property name="meta.media.0.codec.pix_fmt">yuv420p</property>
  <property name="meta.media.0.codec.sample_aspect_ratio">0</property>
  <property name="meta.media.0.codec.colorspace">709</property>
  <property name="meta.media.0.codec.name">h264</property>
  <property name="meta.media.0.codec.long_name">H.264 / AVC / MPEG-4 AVC / MPEG-4 part 10</property>
  <property name="meta.media.0.codec.bit_rate">19162026</property>
  <property name="meta.attr.0.stream.handler_name.markup">VideoHandler</property>
  <property name="meta.attr.0.stream.vendor_id.markup">[0][0][0][0]</property>
  <property name="meta.attr.major_brand.markup">isom</property>
  <property name="meta.attr.minor_version.markup">512</property>
  <property name="meta.attr.compatible_brands.markup">isomiso2avc1mp41</property>
  <property name="meta.attr.encoder.markup">Lavf58.29.100</property>
  <property name="seekable">1</property>
  <property name="meta.media.sample_aspect_num">1</property>
  <property name="meta.media.sample_aspect_den">1</property>
  <property name="audio_index">-1</property>
  <property name="video_index">0</property>
  <property name="warp_speed">-1</property>
  <property name="warp_resource">C:/dev/workspace/indy/dist/room/attic/content/cross4.mp4</property>
  <property name="mlt_service">timewarp</property>
  <property name="vstream">0</property>
  <property name="astream">-1</property>
  <property name="set.test_audio">1</property>
  <property name="set.test_image">0</property>
  <property name="kdenlive:id">13</property>
  <property name="warp_pitch">0</property>
  <property name="meta.media.frame_rate_num">24</property>
  <property name="meta.media.frame_rate_den">1</property>
  <property name="meta.media.colorspace">709</property>
  <property name="meta.media.color_trc">2</property>
  <property name="meta.media.has_b_frames">2</property>
  <property name="meta.media.width">2816</property>
  <property name="meta.media.height">1536</property>
  <property name="meta.media.color_range">mpeg</property>
  <property name="kdenlive:control_uuid">{e5621b2d-a667-479d-8c8e-6326c5bbebe8}</property>
 </producer>
 <chain id="chain9" out="00:00:03.958">
  <property name="length">96</property>
  <property name="eof">pause</property>
  <property name="resource">C:/dev/workspace/indy/dist/room/attic/content/cross2.mp4</property>
  <property name="mlt_service">avformat-novalidate</property>
  <property name="seekable">1</property>
  <property name="audio_index">-1</property>
  <property name="video_index">0</property>
  <property name="vstream">0</property>
  <property name="kdenlive:id">11</property>
  <property name="kdenlive:clip_type">2</property>
  <property name="kdenlive:file_size">7724972</property>
  <property name="kdenlive:file_hash">2489a85edbfec07ab54e8d9ffc06ed74</property>
  <property name="kdenlive:folderid">-1</property>
  <property name="meta.media.nb_streams">1</property>
  <property name="meta.media.0.stream.type">video</property>
  <property name="meta.media.0.stream.frame_rate">24</property>
  <property name="meta.media.0.stream.sample_aspect_ratio">0</property>
  <property name="meta.media.0.codec.width">2816</property>
  <property name="meta.media.0.codec.height">1536</property>
  <property name="meta.media.0.codec.rotate">0</property>
  <property name="meta.media.0.codec.pix_fmt">yuv420p</property>
  <property name="meta.media.0.codec.sample_aspect_ratio">0</property>
  <property name="meta.media.0.codec.colorspace">709</property>
  <property name="meta.media.0.codec.name">h264</property>
  <property name="meta.media.0.codec.long_name">H.264 / AVC / MPEG-4 AVC / MPEG-4 part 10</property>
  <property name="meta.media.0.codec.bit_rate">15445746</property>
  <property name="meta.attr.0.stream.handler_name.markup">VideoHandler</property>
  <property name="meta.attr.0.stream.vendor_id.markup">[0][0][0][0]</property>
  <property name="meta.attr.major_brand.markup">isom</property>
  <property name="meta.attr.minor_version.markup">512</property>
  <property name="meta.attr.compatible_brands.markup">isomiso2avc1mp41</property>
  <property name="meta.attr.encoder.markup">Lavf58.29.100</property>
  <property name="meta.media.sample_aspect_num">1</property>
  <property name="meta.media.sample_aspect_den">1</property>
  <property name="meta.media.frame_rate_num">24</property>
  <property name="meta.media.frame_rate_den">1</property>
  <property name="meta.media.colorspace">709</property>
  <property name="meta.media.color_trc">2</property>
  <property name="meta.media.has_b_frames">2</property>
  <property name="meta.media.width">2816</property>
  <property name="meta.media.height">1536</property>
  <property name="meta.media.color_range">mpeg</property>
  <property name="xml">was here</property>
  <property name="mute_on_pause">0</property>
  <property name="meta.media.top_field_first">0</property>
  <property name="meta.media.progressive">1</property>
  <property name="set.test_audio">1</property>
  <property name="set.test_image">0</property>
  <property name="kdenlive:control_uuid">{7c91ea91-926f-4d8f-8b45-0df8b21940dc}</property>
 </chain>
 <producer id="producer4" in="00:00:00.000" out="00:00:03.958">
  <property name="length">96</property>
  <property name="eof">pause</property>
  <property name="resource">-1.000000:C:/dev/workspace/indy/dist/room/attic/content/cross2.mp4</property>
  <property name="aspect_ratio">1</property>
  <property name="meta.media.nb_streams">1</property>
  <property name="meta.media.0.stream.type">video</property>
  <property name="meta.media.0.stream.frame_rate">24</property>
  <property name="meta.media.0.stream.sample_aspect_ratio">0</property>
  <property name="meta.media.0.codec.width">2816</property>
  <property name="meta.media.0.codec.height">1536</property>
  <property name="meta.media.0.codec.rotate">0</property>
  <property name="meta.media.0.codec.pix_fmt">yuv420p</property>
  <property name="meta.media.0.codec.sample_aspect_ratio">0</property>
  <property name="meta.media.0.codec.colorspace">709</property>
  <property name="meta.media.0.codec.name">h264</property>
  <property name="meta.media.0.codec.long_name">H.264 / AVC / MPEG-4 AVC / MPEG-4 part 10</property>
  <property name="meta.media.0.codec.bit_rate">15445746</property>
  <property name="meta.attr.0.stream.handler_name.markup">VideoHandler</property>
  <property name="meta.attr.0.stream.vendor_id.markup">[0][0][0][0]</property>
  <property name="meta.attr.major_brand.markup">isom</property>
  <property name="meta.attr.minor_version.markup">512</property>
  <property name="meta.attr.compatible_brands.markup">isomiso2avc1mp41</property>
  <property name="meta.attr.encoder.markup">Lavf58.29.100</property>
  <property name="seekable">1</property>
  <property name="meta.media.sample_aspect_num">1</property>
  <property name="meta.media.sample_aspect_den">1</property>
  <property name="audio_index">-1</property>
  <property name="video_index">0</property>
  <property name="warp_speed">-1</property>
  <property name="warp_resource">C:/dev/workspace/indy/dist/room/attic/content/cross2.mp4</property>
  <property name="mlt_service">timewarp</property>
  <property name="vstream">0</property>
  <property name="astream">-1</property>
  <property name="set.test_audio">1</property>
  <property name="set.test_image">0</property>
  <property name="kdenlive:id">11</property>
  <property name="warp_pitch">0</property>
  <property name="meta.media.frame_rate_num">24</property>
  <property name="meta.media.frame_rate_den">1</property>
  <property name="meta.media.colorspace">709</property>
  <property name="meta.media.color_trc">2</property>
  <property name="meta.media.has_b_frames">2</property>
  <property name="meta.media.width">2816</property>
  <property name="meta.media.height">1536</property>
  <property name="meta.media.color_range">mpeg</property>
  <property name="kdenlive:control_uuid">{7c91ea91-926f-4d8f-8b45-0df8b21940dc}</property>
 </producer>
 <chain id="chain10" out="00:00:03.958">
  <property name="length">96</property>
  <property name="eof">pause</property>
  <property name="resource">C:/dev/workspace/indy/dist/room/attic/content/cross3.mp4</property>
  <property name="mlt_service">avformat-novalidate</property>
  <property name="seekable">1</property>
  <property name="audio_index">-1</property>
  <property name="video_index">0</property>
  <property name="vstream">0</property>
  <property name="kdenlive:id">12</property>
  <property name="kdenlive:clip_type">2</property>
  <property name="kdenlive:file_size">8410668</property>
  <property name="kdenlive:file_hash">d91c4c73fb9092ccd68f00b1a610cf05</property>
  <property name="kdenlive:folderid">-1</property>
  <property name="meta.media.nb_streams">1</property>
  <property name="meta.media.0.stream.type">video</property>
  <property name="meta.media.0.stream.frame_rate">24</property>
  <property name="meta.media.0.stream.sample_aspect_ratio">0</property>
  <property name="meta.media.0.codec.width">2816</property>
  <property name="meta.media.0.codec.height">1536</property>
  <property name="meta.media.0.codec.rotate">0</property>
  <property name="meta.media.0.codec.pix_fmt">yuv420p</property>
  <property name="meta.media.0.codec.sample_aspect_ratio">0</property>
  <property name="meta.media.0.codec.colorspace">709</property>
  <property name="meta.media.0.codec.name">h264</property>
  <property name="meta.media.0.codec.long_name">H.264 / AVC / MPEG-4 AVC / MPEG-4 part 10</property>
  <property name="meta.media.0.codec.bit_rate">16817242</property>
  <property name="meta.attr.0.stream.handler_name.markup">VideoHandler</property>
  <property name="meta.attr.0.stream.vendor_id.markup">[0][0][0][0]</property>
  <property name="meta.attr.major_brand.markup">isom</property>
  <property name="meta.attr.minor_version.markup">512</property>
  <property name="meta.attr.compatible_brands.markup">isomiso2avc1mp41</property>
  <property name="meta.attr.encoder.markup">Lavf58.29.100</property>
  <property name="meta.media.sample_aspect_num">1</property>
  <property name="meta.media.sample_aspect_den">1</property>
  <property name="meta.media.frame_rate_num">24</property>
  <property name="meta.media.frame_rate_den">1</property>
  <property name="meta.media.colorspace">709</property>
  <property name="meta.media.color_trc">2</property>
  <property name="meta.media.has_b_frames">2</property>
  <property name="meta.media.width">2816</property>
  <property name="meta.media.height">1536</property>
  <property name="meta.media.color_range">mpeg</property>
  <property name="xml">was here</property>
  <property name="mute_on_pause">0</property>
  <property name="meta.media.top_field_first">0</property>
  <property name="meta.media.progressive">1</property>
  <property name="set.test_audio">1</property>
  <property name="set.test_image">0</property>
  <property name="kdenlive:control_uuid">{87a1168c-67f3-4371-a64b-3d3fd0c90290}</property>
 </chain>
 <producer id="producer5" in="00:00:00.000" out="00:00:03.958">
  <property name="length">96</property>
  <property name="eof">pause</property>
  <property name="resource">-1.000000:C:/dev/workspace/indy/dist/room/attic/content/cross3.mp4</property>
  <property name="aspect_ratio">1</property>
  <property name="meta.media.nb_streams">1</property>
  <property name="meta.media.0.stream.type">video</property>
  <property name="meta.media.0.stream.frame_rate">24</property>
  <property name="meta.media.0.stream.sample_aspect_ratio">0</property>
  <property name="meta.media.0.codec.width">2816</property>
  <property name="meta.media.0.codec.height">1536</property>
  <property name="meta.media.0.codec.rotate">0</property>
  <property name="meta.media.0.codec.pix_fmt">yuv420p</property>
  <property name="meta.media.0.codec.sample_aspect_ratio">0</property>
  <property name="meta.media.0.codec.colorspace">709</property>
  <property name="meta.media.0.codec.name">h264</property>
  <property name="meta.media.0.codec.long_name">H.264 / AVC / MPEG-4 AVC / MPEG-4 part 10</property>
  <property name="meta.media.0.codec.bit_rate">16817242</property>
  <property name="meta.attr.0.stream.handler_name.markup">VideoHandler</property>
  <property name="meta.attr.0.stream.vendor_id.markup">[0][0][0][0]</property>
  <property name="meta.attr.major_brand.markup">isom</property>
  <property name="meta.attr.minor_version.markup">512</property>
  <property name="meta.attr.compatible_brands.markup">isomiso2avc1mp41</property>
  <property name="meta.attr.encoder.markup">Lavf58.29.100</property>
  <property name="seekable">1</property>
  <property name="meta.media.sample_aspect_num">1</property>
  <property name="meta.media.sample_aspect_den">1</property>
  <property name="audio_index">-1</property>
  <property name="video_index">0</property>
  <property name="warp_speed">-1</property>
  <property name="warp_resource">C:/dev/workspace/indy/dist/room/attic/content/cross3.mp4</property>
  <property name="mlt_service">timewarp</property>
  <property name="vstream">0</property>
  <property name="astream">-1</property>
  <property name="set.test_audio">1</property>
  <property name="set.test_image">0</property>
  <property name="kdenlive:id">12</property>
  <property name="warp_pitch">0</property>
  <property name="meta.media.frame_rate_num">24</property>
  <property name="meta.media.frame_rate_den">1</property>
  <property name="meta.media.colorspace">709</property>
  <property name="meta.media.color_trc">2</property>
  <property name="meta.media.has_b_frames">2</property>
  <property name="meta.media.width">2816</property>
  <property name="meta.media.height">1536</property>
  <property name="meta.media.color_range">mpeg</property>
  <property name="kdenlive:control_uuid">{87a1168c-67f3-4371-a64b-3d3fd0c90290}</property>
 </producer>
 <chain id="chain11" out="00:00:03.958">
  <property name="length">96</property>
  <property name="eof">pause</property>
  <property name="resource">C:/dev/workspace/indy/dist/room/attic/content/cross.mp4</property>
  <property name="mlt_service">avformat-novalidate</property>
  <property name="seekable">1</property>
  <property name="audio_index">-1</property>
  <property name="video_index">0</property>
  <property name="vstream">0</property>
  <property name="kdenlive:id">10</property>
  <property name="kdenlive:clip_type">2</property>
  <property name="kdenlive:file_size">8410668</property>
  <property name="kdenlive:file_hash">d91c4c73fb9092ccd68f00b1a610cf05</property>
  <property name="kdenlive:folderid">-1</property>
  <property name="meta.media.nb_streams">1</property>
  <property name="meta.media.0.stream.type">video</property>
  <property name="meta.media.0.stream.frame_rate">24</property>
  <property name="meta.media.0.stream.sample_aspect_ratio">0</property>
  <property name="meta.media.0.codec.width">2816</property>
  <property name="meta.media.0.codec.height">1536</property>
  <property name="meta.media.0.codec.rotate">0</property>
  <property name="meta.media.0.codec.pix_fmt">yuv420p</property>
  <property name="meta.media.0.codec.sample_aspect_ratio">0</property>
  <property name="meta.media.0.codec.colorspace">709</property>
  <property name="meta.media.0.codec.name">h264</property>
  <property name="meta.media.0.codec.long_name">H.264 / AVC / MPEG-4 AVC / MPEG-4 part 10</property>
  <property name="meta.media.0.codec.bit_rate">16817242</property>
  <property name="meta.attr.0.stream.handler_name.markup">VideoHandler</property>
  <property name="meta.attr.0.stream.vendor_id.markup">[0][0][0][0]</property>
  <property name="meta.attr.major_brand.markup">isom</property>
  <property name="meta.attr.minor_version.markup">512</property>
  <property name="meta.attr.compatible_brands.markup">isomiso2avc1mp41</property>
  <property name="meta.attr.encoder.markup">Lavf58.29.100</property>
  <property name="meta.media.sample_aspect_num">1</property>
  <property name="meta.media.sample_aspect_den">1</property>
  <property name="meta.media.frame_rate_num">24</property>
  <property name="meta.media.frame_rate_den">1</property>
  <property name="meta.media.colorspace">709</property>
  <property name="meta.media.color_trc">2</property>
  <property name="meta.media.has_b_frames">2</property>
  <property name="meta.media.width">2816</property>
  <property name="meta.media.height">1536</property>
  <property name="meta.media.color_range">mpeg</property>
  <property name="xml">was here</property>
  <property name="mute_on_pause">0</property>
  <property name="meta.media.top_field_first">0</property>
  <property name="meta.media.progressive">1</property>
  <property name="set.test_audio">1</property>
  <property name="set.test_image">0</property>
  <property name="kdenlive:control_uuid">{11a8c443-ee02-427e-8438-794955ac9a1d}</property>
 </chain>
 <producer id="producer6" in="00:00:00.000" out="00:00:03.958">
  <property name="length">96</property>
  <property name="eof">pause</property>
  <property name="resource">-1.000000:C:/dev/workspace/indy/dist/room/attic/content/gargoyle5.mp4</property>
  <property name="aspect_ratio">1</property>
  <property name="meta.media.nb_streams">1</property>
  <property name="meta.media.0.stream.type">video</property>
  <property name="meta.media.0.stream.frame_rate">24</property>
  <property name="meta.media.0.stream.sample_aspect_ratio">0</property>
  <property name="meta.media.0.codec.width">2816</property>
  <property name="meta.media.0.codec.height">1536</property>
  <property name="meta.media.0.codec.rotate">0</property>
  <property name="meta.media.0.codec.pix_fmt">yuv420p</property>
  <property name="meta.media.0.codec.sample_aspect_ratio">0</property>
  <property name="meta.media.0.codec.colorspace">709</property>
  <property name="meta.media.0.codec.name">h264</property>
  <property name="meta.media.0.codec.long_name">H.264 / AVC / MPEG-4 AVC / MPEG-4 part 10</property>
  <property name="meta.media.0.codec.bit_rate">15221898</property>
  <property name="meta.attr.0.stream.handler_name.markup">VideoHandler</property>
  <property name="meta.attr.0.stream.vendor_id.markup">[0][0][0][0]</property>
  <property name="meta.attr.major_brand.markup">isom</property>
  <property name="meta.attr.minor_version.markup">512</property>
  <property name="meta.attr.compatible_brands.markup">isomiso2avc1mp41</property>
  <property name="meta.attr.encoder.markup">Lavf58.29.100</property>
  <property name="seekable">1</property>
  <property name="meta.media.sample_aspect_num">1</property>
  <property name="meta.media.sample_aspect_den">1</property>
  <property name="audio_index">-1</property>
  <property name="video_index">0</property>
  <property name="warp_speed">-1</property>
  <property name="warp_resource">C:/dev/workspace/indy/dist/room/attic/content/gargoyle5.mp4</property>
  <property name="mlt_service">timewarp</property>
  <property name="vstream">0</property>
  <property name="astream">-1</property>
  <property name="set.test_audio">1</property>
  <property name="set.test_image">0</property>
  <property name="kdenlive:id">18</property>
  <property name="warp_pitch">0</property>
  <property name="meta.media.frame_rate_num">24</property>
  <property name="meta.media.frame_rate_den">1</property>
  <property name="meta.media.colorspace">709</property>
  <property name="meta.media.color_trc">2</property>
  <property name="meta.media.has_b_frames">2</property>
  <property name="meta.media.width">2816</property>
  <property name="meta.media.height">1536</property>
  <property name="meta.media.color_range">mpeg</property>
  <property name="kdenlive:control_uuid">{4a4cdf24-f69f-4068-ab83-75ab73255a7c}</property>
 </producer>
 <chain id="chain12" out="00:00:03.958">
  <property name="length">96</property>
  <property name="eof">pause</property>
  <property name="resource">C:/dev/workspace/indy/dist/room/attic/content/gargoyle3.mp4</property>
  <property name="mlt_service">avformat-novalidate</property>
  <property name="seekable">1</property>
  <property name="audio_index">-1</property>
  <property name="video_index">0</property>
  <property name="vstream">0</property>
  <property name="kdenlive:id">17</property>
  <property name="kdenlive:clip_type">2</property>
  <property name="kdenlive:file_size">7687341</property>
  <property name="kdenlive:file_hash">84ada7ed53506b417594fbbe8c79248a</property>
  <property name="kdenlive:folderid">-1</property>
  <property name="meta.media.nb_streams">1</property>
  <property name="meta.media.0.stream.type">video</property>
  <property name="meta.media.0.stream.frame_rate">24</property>
  <property name="meta.media.0.stream.sample_aspect_ratio">0</property>
  <property name="meta.media.0.codec.width">2816</property>
  <property name="meta.media.0.codec.height">1536</property>
  <property name="meta.media.0.codec.rotate">0</property>
  <property name="meta.media.0.codec.pix_fmt">yuv420p</property>
  <property name="meta.media.0.codec.sample_aspect_ratio">0</property>
  <property name="meta.media.0.codec.colorspace">709</property>
  <property name="meta.media.0.codec.name">h264</property>
  <property name="meta.media.0.codec.long_name">H.264 / AVC / MPEG-4 AVC / MPEG-4 part 10</property>
  <property name="meta.media.0.codec.bit_rate">15370532</property>
  <property name="meta.attr.0.stream.handler_name.markup">VideoHandler</property>
  <property name="meta.attr.0.stream.vendor_id.markup">[0][0][0][0]</property>
  <property name="meta.attr.major_brand.markup">isom</property>
  <property name="meta.attr.minor_version.markup">512</property>
  <property name="meta.attr.compatible_brands.markup">isomiso2avc1mp41</property>
  <property name="meta.attr.encoder.markup">Lavf58.29.100</property>
  <property name="meta.media.sample_aspect_num">1</property>
  <property name="meta.media.sample_aspect_den">1</property>
  <property name="meta.media.frame_rate_num">24</property>
  <property name="meta.media.frame_rate_den">1</property>
  <property name="meta.media.colorspace">709</property>
  <property name="meta.media.color_trc">2</property>
  <property name="meta.media.has_b_frames">2</property>
  <property name="meta.media.width">2816</property>
  <property name="meta.media.height">1536</property>
  <property name="meta.media.color_range">mpeg</property>
  <property name="xml">was here</property>
  <property name="mute_on_pause">0</property>
  <property name="meta.media.top_field_first">0</property>
  <property name="meta.media.progressive">1</property>
  <property name="set.test_audio">1</property>
  <property name="set.test_image">0</property>
  <property name="kdenlive:control_uuid">{a092bc7b-8353-467e-9b1e-cc1db0191f34}</property>
 </chain>
 <producer id="producer9" in="00:00:00.000" out="00:00:03.958">
  <property name="length">96</property>
  <property name="eof">pause</property>
  <property name="resource">-1.000000:C:/dev/workspace/indy/dist/room/attic/content/gargoyle3.mp4</property>
  <property name="aspect_ratio">1</property>
  <property name="meta.media.nb_streams">1</property>
  <property name="meta.media.0.stream.type">video</property>
  <property name="meta.media.0.stream.frame_rate">24</property>
  <property name="meta.media.0.stream.sample_aspect_ratio">0</property>
  <property name="meta.media.0.codec.width">2816</property>
  <property name="meta.media.0.codec.height">1536</property>
  <property name="meta.media.0.codec.rotate">0</property>
  <property name="meta.media.0.codec.pix_fmt">yuv420p</property>
  <property name="meta.media.0.codec.sample_aspect_ratio">0</property>
  <property name="meta.media.0.codec.colorspace">709</property>
  <property name="meta.media.0.codec.name">h264</property>
  <property name="meta.media.0.codec.long_name">H.264 / AVC / MPEG-4 AVC / MPEG-4 part 10</property>
  <property name="meta.media.0.codec.bit_rate">15370532</property>
  <property name="meta.attr.0.stream.handler_name.markup">VideoHandler</property>
  <property name="meta.attr.0.stream.vendor_id.markup">[0][0][0][0]</property>
  <property name="meta.attr.major_brand.markup">isom</property>
  <property name="meta.attr.minor_version.markup">512</property>
  <property name="meta.attr.compatible_brands.markup">isomiso2avc1mp41</property>
  <property name="meta.attr.encoder.markup">Lavf58.29.100</property>
  <property name="seekable">1</property>
  <property name="meta.media.sample_aspect_num">1</property>
  <property name="meta.media.sample_aspect_den">1</property>
  <property name="audio_index">-1</property>
  <property name="video_index">0</property>
  <property name="warp_speed">-1</property>
  <property name="warp_resource">C:/dev/workspace/indy/dist/room/attic/content/gargoyle3.mp4</property>
  <property name="mlt_service">timewarp</property>
  <property name="vstream">0</property>
  <property name="astream">-1</property>
  <property name="set.test_audio">1</property>
  <property name="set.test_image">0</property>
  <property name="kdenlive:id">17</property>
  <property name="warp_pitch">0</property>
  <property name="meta.media.frame_rate_num">24</property>
  <property name="meta.media.frame_rate_den">1</property>
  <property name="meta.media.colorspace">709</property>
  <property name="meta.media.color_trc">2</property>
  <property name="meta.media.has_b_frames">2</property>
  <property name="meta.media.width">2816</property>
  <property name="meta.media.height">1536</property>
  <property name="meta.media.color_range">mpeg</property>
  <property name="kdenlive:control_uuid">{a092bc7b-8353-467e-9b1e-cc1db0191f34}</property>
 </producer>
 <chain id="chain13" out="00:00:03.958">
  <property name="length">96</property>
  <property name="eof">pause</property>
  <property name="resource">C:/dev/workspace/indy/dist/room/attic/content/gargoyle2.mp4</property>
  <property name="mlt_service">avformat-novalidate</property>
  <property name="seekable">1</property>
  <property name="audio_index">-1</property>
  <property name="video_index">0</property>
  <property name="vstream">0</property>
  <property name="kdenlive:id">16</property>
  <property name="kdenlive:clip_type">2</property>
  <property name="kdenlive:file_size">7672271</property>
  <property name="kdenlive:file_hash">86ea1a3237823a1fee7bfda6eaec76b9</property>
  <property name="kdenlive:folderid">-1</property>
  <property name="meta.media.nb_streams">1</property>
  <property name="meta.media.0.stream.type">video</property>
  <property name="meta.media.0.stream.frame_rate">24</property>
  <property name="meta.media.0.stream.sample_aspect_ratio">0</property>
  <property name="meta.media.0.codec.width">2816</property>
  <property name="meta.media.0.codec.height">1536</property>
  <property name="meta.media.0.codec.rotate">0</property>
  <property name="meta.media.0.codec.pix_fmt">yuv420p</property>
  <property name="meta.media.0.codec.sample_aspect_ratio">0</property>
  <property name="meta.media.0.codec.colorspace">709</property>
  <property name="meta.media.0.codec.name">h264</property>
  <property name="meta.media.0.codec.long_name">H.264 / AVC / MPEG-4 AVC / MPEG-4 part 10</property>
  <property name="meta.media.0.codec.bit_rate">15340408</property>
  <property name="meta.attr.0.stream.handler_name.markup">VideoHandler</property>
  <property name="meta.attr.0.stream.vendor_id.markup">[0][0][0][0]</property>
  <property name="meta.attr.major_brand.markup">isom</property>
  <property name="meta.attr.minor_version.markup">512</property>
  <property name="meta.attr.compatible_brands.markup">isomiso2avc1mp41</property>
  <property name="meta.attr.encoder.markup">Lavf58.29.100</property>
  <property name="meta.media.sample_aspect_num">1</property>
  <property name="meta.media.sample_aspect_den">1</property>
  <property name="meta.media.frame_rate_num">24</property>
  <property name="meta.media.frame_rate_den">1</property>
  <property name="meta.media.colorspace">709</property>
  <property name="meta.media.color_trc">2</property>
  <property name="meta.media.has_b_frames">2</property>
  <property name="meta.media.width">2816</property>
  <property name="meta.media.height">1536</property>
  <property name="meta.media.color_range">mpeg</property>
  <property name="xml">was here</property>
  <property name="mute_on_pause">0</property>
  <property name="meta.media.top_field_first">0</property>
  <property name="meta.media.progressive">1</property>
  <property name="set.test_audio">1</property>
  <property name="set.test_image">0</property>
  <property name="kdenlive:control_uuid">{44faf742-f3b6-4546-9e71-049d4373d9ce}</property>
 </chain>
 <playlist id="playlist6">
  <entry in="00:00:00.000" out="00:00:01.292" producer="producer17">
   <property name="kdenlive:id">8</property>
   <filter id="filter26" in="00:00:00.875" out="00:00:01.292">
    <property name="start">1</property>
    <property name="level">1</property>
    <property name="mlt_service">brightness</property>
    <property name="kdenlive_id">fade_to_black</property>
    <property name="alpha">00:00:00.000=1;00:00:00.417=0</property>
    <property name="kdenlive:collapsed">0</property>
   </filter>
  </entry>
  <blank length="00:00:06.833"/>
  <entry in="00:00:02.583" out="00:00:04.625" producer="chain8">
   <property name="kdenlive:id">28</property>
  </entry>
  <entry in="00:00:00.000" out="00:00:00.625" producer="producer7">
   <property name="kdenlive:id">4</property>
  </entry>
  <blank length="00:00:19.083"/>
  <entry in="00:00:00.000" out="00:00:03.958" producer="producer3">
   <property name="kdenlive:id">13</property>
  </entry>
  <entry in="00:00:00.000" out="00:00:03.958" producer="chain9">
   <property name="kdenlive:id">11</property>
  </entry>
  <entry in="00:00:00.000" out="00:00:03.958" producer="producer4">
   <property name="kdenlive:id">11</property>
  </entry>
  <entry in="00:00:00.000" out="00:00:03.958" producer="chain10">
   <property name="kdenlive:id">12</property>
  </entry>
  <entry in="00:00:00.000" out="00:00:03.958" producer="producer5">
   <property name="kdenlive:id">12</property>
  </entry>
  <entry in="00:00:00.000" out="00:00:00.958" producer="chain11">
   <property name="kdenlive:id">10</property>
   <filter id="filter18" in="00:00:00.542" out="00:00:00.958">
    <property name="start">1</property>
    <property name="level">1</property>
    <property name="mlt_service">brightness</property>
    <property name="kdenlive_id">fade_to_black</property>
    <property name="alpha">00:00:00.000=1;00:00:00.417=0</property>
    <property name="kdenlive:collapsed">0</property>
   </filter>
  </entry>
  <blank length="00:00:02.000"/>
  <entry in="00:00:00.000" out="00:00:03.958" producer="producer6">
   <property name="kdenlive:id">18</property>
  </entry>
  <entry in="00:00:00.000" out="00:00:03.958" producer="chain12">
   <property name="kdenlive:id">17</property>
  </entry>
  <entry in="00:00:00.000" out="00:00:03.958" producer="producer9">
   <property name="kdenlive:id">17</property>
  </entry>
  <entry in="00:00:00.000" out="00:00:03.958" producer="chain13">
   <property name="kdenlive:id">16</property>
   <filter id="filter20" in="00:00:03.542" out="00:00:03.958">
    <property name="start">1</property>
    <property name="level">1</property>
    <property name="mlt_service">brightness</property>
    <property name="kdenlive_id">fade_to_black</property>
    <property name="alpha">00:00:00.000=1;00:00:00.417=0</property>
    <property name="kdenlive:collapsed">0</property>
   </filter>
  </entry>
 </playlist>
 <playlist id="playlist7"/>
 <tractor id="tractor3" in="00:00:00.000" out="00:01:08.958">
  <property name="kdenlive:trackheight">67</property>
  <property name="kdenlive:timeline_active">1</property>
  <property name="kdenlive:collapsed">0</property>
  <property name="kdenlive:thumbs_format"/>
  <property name="kdenlive:audio_rec"/>
  <track hide="both" producer="playlist6"/>
  <track hide="both" producer="playlist7"/>
 </tractor>
 <producer id="producer2" in="00:00:00.000" out="00:00:03.375">
  <property name="length">82</property>
  <property name="eof">pause</property>
  <property name="resource">-1.500000:C:/dev/workspace/indy/dist/room/attic/content/upscale/attic16.mp4</property>
  <property name="aspect_ratio">1</property>
  <property name="meta.media.nb_streams">1</property>
  <property name="meta.media.0.stream.type">video</property>
  <property name="meta.media.0.stream.frame_rate">30</property>
  <property name="meta.media.0.stream.sample_aspect_ratio">1</property>
  <property name="meta.media.0.codec.width">3840</property>
  <property name="meta.media.0.codec.height">2160</property>
  <property name="meta.media.0.codec.rotate">0</property>
  <property name="meta.media.0.codec.pix_fmt">yuv420p</property>
  <property name="meta.media.0.codec.sample_aspect_ratio">1</property>
  <property name="meta.media.0.codec.colorspace">709</property>
  <property name="meta.media.0.codec.name">h264</property>
  <property name="meta.media.0.codec.long_name">H.264 / AVC / MPEG-4 AVC / MPEG-4 part 10</property>
  <property name="meta.media.0.codec.bit_rate">82747935</property>
  <property name="meta.attr.0.stream.handler_name.markup">VideoHandler</property>
  <property name="meta.attr.0.stream.vendor_id.markup">[0][0][0][0]</property>
  <property name="meta.attr.0.stream.encoder.markup">Lavc61.5.103 h264_nvenc</property>
  <property name="meta.attr.minor_version.markup">512</property>
  <property name="meta.attr.major_brand.markup">isom</property>
  <property name="meta.attr.compatible_brands.markup">isomiso2avc1mp41</property>
  <property name="meta.attr.metadata1.markup">Zb/3FUTYWke4ix3n/Z9YTjdsCH4yAlDRxRayhuKHC5dacl0xV8pytabk8kFvt/7k27mn7CN9W9EffvrNp8QwMfSgycaJrfWN2rcZlQTqfz/EaEtE0eIf3so5Lwzpg3hYo1G93EiIgjhE2QUXyimLRfwf/meRt49cmShTzZGyZuTfDDYtFqc8oBTAB</property>
  <property name="meta.attr.metadata0.markup">ChtzZWN1cml0eS5rbGluZy5tZXRhX2VuY3J5cHQS8AE8zcFNFZPx7rlww8M+HQVG2Vd/lyZ4OY3iF2szFHfzPpIiRyOXcbH6T3hJwGQiWioNqaaJ80EBITaXPyoh3JJWZPfuQQW7S7kO8TGt1HB7+DG4BcWCb1Qsy/EjueRpMR66rRnr+jakYAoztJ+Ge95wdZM7QkiLjY/w4JIuC77Abqni2XDIUOc54TgNjmA8mHAh1oH/ND3SU183t017GXE</property>
  <property name="meta.attr.videoai.markup">Enhanced using iris-3; mode: auto; revert compression at 0; recover details at 0; sharpen at 0; reduce noise at 0; dehalo at 0; anti-alias/deblur at 0; focus fix Off; and recover original detail at 20. Changed resolution to 3840x2160</property>
  <property name="meta.attr.encoder.markup">Lavf61.3.103</property>
  <property name="seekable">1</property>
  <property name="meta.media.sample_aspect_num">1</property>
  <property name="meta.media.sample_aspect_den">1</property>
  <property name="audio_index">-1</property>
  <property name="video_index">0</property>
  <property name="warp_speed">-1.5</property>
  <property name="warp_resource">C:/dev/workspace/indy/dist/room/attic/content/upscale/attic16.mp4</property>
  <property name="mlt_service">timewarp</property>
  <property name="vstream">0</property>
  <property name="astream">-1</property>
  <property name="set.test_audio">1</property>
  <property name="set.test_image">0</property>
  <property name="kdenlive:id">32</property>
  <property name="warp_pitch">0</property>
  <property name="meta.media.frame_rate_num">30</property>
  <property name="meta.media.frame_rate_den">1</property>
  <property name="meta.media.colorspace">709</property>
  <property name="meta.media.color_trc">2</property>
  <property name="meta.media.has_b_frames">0</property>
  <property name="meta.media.width">3840</property>
  <property name="meta.media.height">2160</property>
  <property name="meta.media.color_range">mpeg</property>
  <property name="meta.media.top_field_first">0</property>
  <property name="meta.media.progressive">1</property>
  <property name="kdenlive:control_uuid">{a9f57a72-e30e-4c40-b3c5-a43a6d7fb1b5}</property>
 </producer>
 <chain id="chain14" out="00:00:03.958">
  <property name="length">96</property>
  <property name="eof">pause</property>
  <property name="resource">C:/dev/workspace/indy/dist/room/attic/content/upscale/attic7.mp4</property>
  <property name="mlt_service">avformat-novalidate</property>
  <property name="seekable">1</property>
  <property name="audio_index">-1</property>
  <property name="video_index">0</property>
  <property name="vstream">0</property>
  <property name="kdenlive:proxy">-</property>
  <property name="kdenlive:originalurl">C:/dev/workspace/indy/dist/room/attic/content/upscale/attic7.mp4</property>
  <property name="kdenlive:id">6</property>
  <property name="mute_on_pause">0</property>
  <property name="kdenlive:clip_type">2</property>
  <property name="kdenlive:file_size">27203037</property>
  <property name="kdenlive:file_hash">0141135237b0fc98eb1273404d5bc998</property>
  <property name="kdenlive:folderid">-1</property>
  <property name="meta.media.nb_streams">1</property>
  <property name="meta.media.0.stream.type">video</property>
  <property name="meta.media.0.stream.frame_rate">24</property>
  <property name="meta.media.0.stream.sample_aspect_ratio">1</property>
  <property name="meta.media.0.codec.width">3840</property>
  <property name="meta.media.0.codec.height">2160</property>
  <property name="meta.media.0.codec.rotate">0</property>
  <property name="meta.media.0.codec.pix_fmt">yuv420p</property>
  <property name="meta.media.0.codec.sample_aspect_ratio">1</property>
  <property name="meta.media.0.codec.colorspace">709</property>
  <property name="meta.media.0.codec.name">h264</property>
  <property name="meta.media.0.codec.long_name">H.264 / AVC / MPEG-4 AVC / MPEG-4 part 10</property>
  <property name="meta.media.0.codec.bit_rate">54190024</property>
  <property name="meta.attr.0.stream.handler_name.markup">VideoHandler</property>
  <property name="meta.attr.0.stream.vendor_id.markup">[0][0][0][0]</property>
  <property name="meta.attr.0.stream.encoder.markup">Lavc61.5.103 h264_nvenc</property>
  <property name="meta.attr.minor_version.markup">512</property>
  <property name="meta.attr.major_brand.markup">isom</property>
  <property name="meta.attr.compatible_brands.markup">isomiso2avc1mp41</property>
  <property name="meta.attr.videoai.markup">Enhanced using iris-3; mode: auto; revert compression at 0; recover details at 0; sharpen at 0; reduce noise at 0; dehalo at 0; anti-alias/deblur at 0; focus fix Off; and recover original detail at 20. Changed resolution to 3840x2160</property>
  <property name="meta.attr.encoder.markup">Lavf61.3.103</property>
  <property name="meta.media.sample_aspect_num">1</property>
  <property name="meta.media.sample_aspect_den">1</property>
  <property name="meta.media.frame_rate_num">24</property>
  <property name="meta.media.frame_rate_den">1</property>
  <property name="meta.media.colorspace">709</property>
  <property name="meta.media.color_trc">2</property>
  <property name="meta.media.has_b_frames">0</property>
  <property name="meta.media.width">3840</property>
  <property name="meta.media.height">2160</property>
  <property name="meta.media.color_range">mpeg</property>
  <property name="xml">was here</property>
  <property name="meta.media.top_field_first">0</property>
  <property name="meta.media.progressive">1</property>
  <property name="set.test_audio">1</property>
  <property name="set.test_image">0</property>
  <property name="kdenlive:control_uuid">{50f9a4e6-33c6-4400-a886-7a9b8decb923}</property>
  <property name="meta.media.aspect_ratio">1</property>
 </chain>
 <producer id="producer11" in="00:00:00.000" out="00:00:03.958">
  <property name="length">96</property>
  <property name="eof">pause</property>
  <property name="resource">-1.000000:C:/dev/workspace/indy/dist/room/attic/content/upscale/attic7.mp4</property>
  <property name="aspect_ratio">1</property>
  <property name="meta.media.nb_streams">1</property>
  <property name="meta.media.0.stream.type">video</property>
  <property name="meta.media.0.stream.frame_rate">24</property>
  <property name="meta.media.0.stream.sample_aspect_ratio">1</property>
  <property name="meta.media.0.codec.width">3840</property>
  <property name="meta.media.0.codec.height">2160</property>
  <property name="meta.media.0.codec.rotate">0</property>
  <property name="meta.media.0.codec.pix_fmt">yuv420p</property>
  <property name="meta.media.0.codec.sample_aspect_ratio">1</property>
  <property name="meta.media.0.codec.colorspace">709</property>
  <property name="meta.media.0.codec.name">h264</property>
  <property name="meta.media.0.codec.long_name">H.264 / AVC / MPEG-4 AVC / MPEG-4 part 10</property>
  <property name="meta.media.0.codec.bit_rate">54189734</property>
  <property name="meta.attr.0.stream.handler_name.markup">VideoHandler</property>
  <property name="meta.attr.0.stream.vendor_id.markup">[0][0][0][0]</property>
  <property name="meta.attr.0.stream.encoder.markup">Lavc61.5.103 h264_nvenc</property>
  <property name="meta.attr.minor_version.markup">512</property>
  <property name="meta.attr.major_brand.markup">isom</property>
  <property name="meta.attr.compatible_brands.markup">isomiso2avc1mp41</property>
  <property name="meta.attr.videoai.markup">Enhanced using iris-3; mode: auto; revert compression at 0; recover details at 0; sharpen at 0; reduce noise at 0; dehalo at 0; anti-alias/deblur at 0; focus fix Off; and recover original detail at 20. Changed resolution to 3840x2160</property>
  <property name="meta.attr.encoder.markup">Lavf61.3.103</property>
  <property name="seekable">1</property>
  <property name="meta.media.sample_aspect_num">1</property>
  <property name="meta.media.sample_aspect_den">1</property>
  <property name="audio_index">-1</property>
  <property name="video_index">0</property>
  <property name="warp_speed">-1</property>
  <property name="warp_resource">C:/dev/workspace/indy/dist/room/attic/content/upscale/attic7.mp4</property>
  <property name="mlt_service">timewarp</property>
  <property name="kdenlive:proxy">-</property>
  <property name="kdenlive:originalurl">C:/dev/workspace/indy/dist/room/attic/content/upscale/attic7.mp4</property>
  <property name="vstream">0</property>
  <property name="astream">-1</property>
  <property name="set.test_audio">1</property>
  <property name="set.test_image">0</property>
  <property name="kdenlive:id">6</property>
  <property name="warp_pitch">0</property>
  <property name="meta.media.frame_rate_num">24</property>
  <property name="meta.media.frame_rate_den">1</property>
  <property name="meta.media.colorspace">709</property>
  <property name="meta.media.color_trc">2</property>
  <property name="meta.media.has_b_frames">0</property>
  <property name="meta.media.width">3840</property>
  <property name="meta.media.height">2160</property>
  <property name="meta.media.color_range">mpeg</property>
  <property name="meta.media.top_field_first">0</property>
  <property name="meta.media.progressive">1</property>
  <property name="kdenlive:control_uuid">{50f9a4e6-33c6-4400-a886-7a9b8decb923}</property>
 </producer>
 <chain id="chain15" out="00:00:03.958">
  <property name="length">96</property>
  <property name="eof">pause</property>
  <property name="resource">C:/dev/workspace/indy/dist/room/attic/content/upscale/attic5.mp4</property>
  <property name="mlt_service">avformat-novalidate</property>
  <property name="seekable">1</property>
  <property name="audio_index">-1</property>
  <property name="video_index">0</property>
  <property name="vstream">0</property>
  <property name="kdenlive:proxy">-</property>
  <property name="kdenlive:originalurl">C:/dev/workspace/indy/dist/room/attic/content/upscale/attic5.mp4</property>
  <property name="kdenlive:id">4</property>
  <property name="mute_on_pause">0</property>
  <property name="kdenlive:clip_type">2</property>
  <property name="kdenlive:file_size">26056914</property>
  <property name="kdenlive:file_hash">4f5c6215efc36cad33a6b8fe55b71823</property>
  <property name="kdenlive:folderid">-1</property>
  <property name="meta.media.nb_streams">1</property>
  <property name="meta.media.0.stream.type">video</property>
  <property name="meta.media.0.stream.frame_rate">24</property>
  <property name="meta.media.0.stream.sample_aspect_ratio">1</property>
  <property name="meta.media.0.codec.width">3840</property>
  <property name="meta.media.0.codec.height">2160</property>
  <property name="meta.media.0.codec.rotate">0</property>
  <property name="meta.media.0.codec.pix_fmt">yuv420p</property>
  <property name="meta.media.0.codec.sample_aspect_ratio">1</property>
  <property name="meta.media.0.codec.colorspace">709</property>
  <property name="meta.media.0.codec.name">h264</property>
  <property name="meta.media.0.codec.long_name">H.264 / AVC / MPEG-4 AVC / MPEG-4 part 10</property>
  <property name="meta.media.0.codec.bit_rate">51994028</property>
  <property name="meta.attr.0.stream.handler_name.markup">VideoHandler</property>
  <property name="meta.attr.0.stream.vendor_id.markup">[0][0][0][0]</property>
  <property name="meta.attr.0.stream.encoder.markup">Lavc61.5.103 h264_nvenc</property>
  <property name="meta.attr.minor_version.markup">512</property>
  <property name="meta.attr.major_brand.markup">isom</property>
  <property name="meta.attr.compatible_brands.markup">isomiso2avc1mp41</property>
  <property name="meta.attr.videoai.markup">Enhanced using iris-3; mode: auto; revert compression at 0; recover details at 0; sharpen at 0; reduce noise at 0; dehalo at 0; anti-alias/deblur at 0; focus fix Off; and recover original detail at 20. Changed resolution to 3840x2160</property>
  <property name="meta.attr.encoder.markup">Lavf61.3.103</property>
  <property name="meta.media.sample_aspect_num">1</property>
  <property name="meta.media.sample_aspect_den">1</property>
  <property name="meta.media.frame_rate_num">24</property>
  <property name="meta.media.frame_rate_den">1</property>
  <property name="meta.media.colorspace">709</property>
  <property name="meta.media.color_trc">2</property>
  <property name="meta.media.has_b_frames">0</property>
  <property name="meta.media.width">3840</property>
  <property name="meta.media.height">2160</property>
  <property name="meta.media.color_range">mpeg</property>
  <property name="xml">was here</property>
  <property name="meta.media.top_field_first">0</property>
  <property name="meta.media.progressive">1</property>
  <property name="set.test_audio">1</property>
  <property name="set.test_image">0</property>
  <property name="kdenlive:control_uuid">{2350f2d9-bcdb-4f85-a571-8f0e497a5e75}</property>
 </chain>
 <producer id="producer12" in="00:00:00.000" out="00:00:03.958">
  <property name="length">96</property>
  <property name="eof">pause</property>
  <property name="resource">-1.000000:C:/dev/workspace/indy/dist/room/attic/content/upscale/attic5.mp4</property>
  <property name="aspect_ratio">1</property>
  <property name="meta.media.nb_streams">1</property>
  <property name="meta.media.0.stream.type">video</property>
  <property name="meta.media.0.stream.frame_rate">24</property>
  <property name="meta.media.0.stream.sample_aspect_ratio">1</property>
  <property name="meta.media.0.codec.width">3840</property>
  <property name="meta.media.0.codec.height">2160</property>
  <property name="meta.media.0.codec.rotate">0</property>
  <property name="meta.media.0.codec.pix_fmt">yuv420p</property>
  <property name="meta.media.0.codec.sample_aspect_ratio">1</property>
  <property name="meta.media.0.codec.colorspace">709</property>
  <property name="meta.media.0.codec.name">h264</property>
  <property name="meta.media.0.codec.long_name">H.264 / AVC / MPEG-4 AVC / MPEG-4 part 10</property>
  <property name="meta.media.0.codec.bit_rate">51994028</property>
  <property name="meta.attr.0.stream.handler_name.markup">VideoHandler</property>
  <property name="meta.attr.0.stream.vendor_id.markup">[0][0][0][0]</property>
  <property name="meta.attr.0.stream.encoder.markup">Lavc61.5.103 h264_nvenc</property>
  <property name="meta.attr.minor_version.markup">512</property>
  <property name="meta.attr.major_brand.markup">isom</property>
  <property name="meta.attr.compatible_brands.markup">isomiso2avc1mp41</property>
  <property name="meta.attr.videoai.markup">Enhanced using iris-3; mode: auto; revert compression at 0; recover details at 0; sharpen at 0; reduce noise at 0; dehalo at 0; anti-alias/deblur at 0; focus fix Off; and recover original detail at 20. Changed resolution to 3840x2160</property>
  <property name="meta.attr.encoder.markup">Lavf61.3.103</property>
  <property name="seekable">1</property>
  <property name="meta.media.sample_aspect_num">1</property>
  <property name="meta.media.sample_aspect_den">1</property>
  <property name="audio_index">-1</property>
  <property name="video_index">0</property>
  <property name="warp_speed">-1</property>
  <property name="warp_resource">C:/dev/workspace/indy/dist/room/attic/content/upscale/attic5.mp4</property>
  <property name="mlt_service">timewarp</property>
  <property name="kdenlive:proxy">-</property>
  <property name="kdenlive:originalurl">C:/dev/workspace/indy/dist/room/attic/content/upscale/attic5.mp4</property>
  <property name="vstream">0</property>
  <property name="astream">-1</property>
  <property name="set.test_audio">1</property>
  <property name="set.test_image">0</property>
  <property name="kdenlive:id">4</property>
  <property name="warp_pitch">0</property>
  <property name="meta.media.frame_rate_num">24</property>
  <property name="meta.media.frame_rate_den">1</property>
  <property name="meta.media.colorspace">709</property>
  <property name="meta.media.color_trc">2</property>
  <property name="meta.media.has_b_frames">0</property>
  <property name="meta.media.width">3840</property>
  <property name="meta.media.height">2160</property>
  <property name="meta.media.color_range">mpeg</property>
  <property name="meta.media.top_field_first">0</property>
  <property name="meta.media.progressive">1</property>
  <property name="kdenlive:control_uuid">{2350f2d9-bcdb-4f85-a571-8f0e497a5e75}</property>
 </producer>
 <chain id="chain16" out="00:00:03.958">
  <property name="length">96</property>
  <property name="eof">pause</property>
  <property name="resource">C:/dev/workspace/indy/dist/room/attic/content/upscale/attic6.mp4</property>
  <property name="mlt_service">avformat-novalidate</property>
  <property name="seekable">1</property>
  <property name="audio_index">-1</property>
  <property name="video_index">0</property>
  <property name="vstream">0</property>
  <property name="kdenlive:proxy">-</property>
  <property name="kdenlive:originalurl">C:/dev/workspace/indy/dist/room/attic/content/upscale/attic6.mp4</property>
  <property name="kdenlive:id">5</property>
  <property name="mute_on_pause">0</property>
  <property name="kdenlive:clip_type">2</property>
  <property name="kdenlive:file_size">28058592</property>
  <property name="kdenlive:file_hash">354e533e011cbd16354a6d1920360e36</property>
  <property name="kdenlive:folderid">-1</property>
  <property name="meta.media.nb_streams">1</property>
  <property name="meta.media.0.stream.type">video</property>
  <property name="meta.media.0.stream.frame_rate">24</property>
  <property name="meta.media.0.stream.sample_aspect_ratio">1</property>
  <property name="meta.media.0.codec.width">3840</property>
  <property name="meta.media.0.codec.height">2160</property>
  <property name="meta.media.0.codec.rotate">0</property>
  <property name="meta.media.0.codec.pix_fmt">yuv420p</property>
  <property name="meta.media.0.codec.sample_aspect_ratio">1</property>
  <property name="meta.media.0.codec.colorspace">709</property>
  <property name="meta.media.0.codec.name">h264</property>
  <property name="meta.media.0.codec.long_name">H.264 / AVC / MPEG-4 AVC / MPEG-4 part 10</property>
  <property name="meta.media.0.codec.bit_rate">55942308</property>
  <property name="meta.attr.0.stream.handler_name.markup">VideoHandler</property>
  <property name="meta.attr.0.stream.vendor_id.markup">[0][0][0][0]</property>
  <property name="meta.attr.0.stream.encoder.markup">Lavc61.5.103 h264_nvenc</property>
  <property name="meta.attr.minor_version.markup">512</property>
  <property name="meta.attr.major_brand.markup">isom</property>
  <property name="meta.attr.compatible_brands.markup">isomiso2avc1mp41</property>
  <property name="meta.attr.videoai.markup">Enhanced using iris-3; mode: auto; revert compression at 0; recover details at 0; sharpen at 0; reduce noise at 0; dehalo at 0; anti-alias/deblur at 0; focus fix Off; and recover original detail at 20. Changed resolution to 3840x2160</property>
  <property name="meta.attr.encoder.markup">Lavf61.3.103</property>
  <property name="meta.media.sample_aspect_num">1</property>
  <property name="meta.media.sample_aspect_den">1</property>
  <property name="meta.media.frame_rate_num">24</property>
  <property name="meta.media.frame_rate_den">1</property>
  <property name="meta.media.colorspace">709</property>
  <property name="meta.media.color_trc">2</property>
  <property name="meta.media.has_b_frames">0</property>
  <property name="meta.media.width">3840</property>
  <property name="meta.media.height">2160</property>
  <property name="meta.media.color_range">mpeg</property>
  <property name="xml">was here</property>
  <property name="meta.media.top_field_first">0</property>
  <property name="meta.media.progressive">1</property>
  <property name="set.test_audio">1</property>
  <property name="set.test_image">0</property>
  <property name="kdenlive:control_uuid">{04713a07-312b-42d8-bfb2-61124fd89200}</property>
 </chain>
 <producer id="producer14" in="00:00:00.000" out="00:00:03.958">
  <property name="length">96</property>
  <property name="eof">pause</property>
  <property name="resource">-1.000000:C:/dev/workspace/indy/dist/room/attic/content/upscale/attic6.mp4</property>
  <property name="aspect_ratio">1</property>
  <property name="meta.media.nb_streams">1</property>
  <property name="meta.media.0.stream.type">video</property>
  <property name="meta.media.0.stream.frame_rate">24</property>
  <property name="meta.media.0.stream.sample_aspect_ratio">1</property>
  <property name="meta.media.0.codec.width">3840</property>
  <property name="meta.media.0.codec.height">2160</property>
  <property name="meta.media.0.codec.rotate">0</property>
  <property name="meta.media.0.codec.pix_fmt">yuv420p</property>
  <property name="meta.media.0.codec.sample_aspect_ratio">1</property>
  <property name="meta.media.0.codec.colorspace">709</property>
  <property name="meta.media.0.codec.name">h264</property>
  <property name="meta.media.0.codec.long_name">H.264 / AVC / MPEG-4 AVC / MPEG-4 part 10</property>
  <property name="meta.media.0.codec.bit_rate">55942308</property>
  <property name="meta.attr.0.stream.handler_name.markup">VideoHandler</property>
  <property name="meta.attr.0.stream.vendor_id.markup">[0][0][0][0]</property>
  <property name="meta.attr.0.stream.encoder.markup">Lavc61.5.103 h264_nvenc</property>
  <property name="meta.attr.minor_version.markup">512</property>
  <property name="meta.attr.major_brand.markup">isom</property>
  <property name="meta.attr.compatible_brands.markup">isomiso2avc1mp41</property>
  <property name="meta.attr.videoai.markup">Enhanced using iris-3; mode: auto; revert compression at 0; recover details at 0; sharpen at 0; reduce noise at 0; dehalo at 0; anti-alias/deblur at 0; focus fix Off; and recover original detail at 20. Changed resolution to 3840x2160</property>
  <property name="meta.attr.encoder.markup">Lavf61.3.103</property>
  <property name="seekable">1</property>
  <property name="meta.media.sample_aspect_num">1</property>
  <property name="meta.media.sample_aspect_den">1</property>
  <property name="audio_index">-1</property>
  <property name="video_index">0</property>
  <property name="warp_speed">-1</property>
  <property name="warp_resource">C:/dev/workspace/indy/dist/room/attic/content/upscale/attic6.mp4</property>
  <property name="mlt_service">timewarp</property>
  <property name="kdenlive:proxy">-</property>
  <property name="kdenlive:originalurl">C:/dev/workspace/indy/dist/room/attic/content/upscale/attic6.mp4</property>
  <property name="vstream">0</property>
  <property name="astream">-1</property>
  <property name="set.test_audio">1</property>
  <property name="set.test_image">0</property>
  <property name="kdenlive:id">5</property>
  <property name="warp_pitch">0</property>
  <property name="meta.media.frame_rate_num">24</property>
  <property name="meta.media.frame_rate_den">1</property>
  <property name="meta.media.colorspace">709</property>
  <property name="meta.media.color_trc">2</property>
  <property name="meta.media.has_b_frames">0</property>
  <property name="meta.media.width">3840</property>
  <property name="meta.media.height">2160</property>
  <property name="meta.media.color_range">mpeg</property>
  <property name="meta.media.top_field_first">0</property>
  <property name="meta.media.progressive">1</property>
  <property name="kdenlive:control_uuid">{04713a07-312b-42d8-bfb2-61124fd89200}</property>
 </producer>
 <chain id="chain17" out="00:00:05.042">
  <property name="length">122</property>
  <property name="eof">pause</property>
  <property name="resource">C:/dev/workspace/indy/dist/room/attic/content/upscale/attic18.mp4</property>
  <property name="mlt_service">avformat-novalidate</property>
  <property name="seekable">1</property>
  <property name="audio_index">-1</property>
  <property name="video_index">0</property>
  <property name="vstream">0</property>
  <property name="kdenlive:folderid">-1</property>
  <property name="kdenlive:id">37</property>
  <property name="mute_on_pause">0</property>
  <property name="kdenlive:clip_type">2</property>
  <property name="kdenlive:file_size">38904128</property>
  <property name="kdenlive:file_hash">87c2913a80844f79eb1182b3b582d4fc</property>
  <property name="meta.media.nb_streams">1</property>
  <property name="meta.media.0.stream.type">video</property>
  <property name="meta.media.0.stream.frame_rate">30</property>
  <property name="meta.media.0.stream.sample_aspect_ratio">1</property>
  <property name="meta.media.0.codec.width">3840</property>
  <property name="meta.media.0.codec.height">2160</property>
  <property name="meta.media.0.codec.rotate">0</property>
  <property name="meta.media.0.codec.pix_fmt">yuv420p</property>
  <property name="meta.media.0.codec.sample_aspect_ratio">1</property>
  <property name="meta.media.0.codec.colorspace">709</property>
  <property name="meta.media.0.codec.name">h264</property>
  <property name="meta.media.0.codec.long_name">H.264 / AVC / MPEG-4 AVC / MPEG-4 part 10</property>
  <property name="meta.media.0.codec.bit_rate">61021480</property>
  <property name="meta.attr.0.stream.handler_name.markup">VideoHandler</property>
  <property name="meta.attr.0.stream.vendor_id.markup">[0][0][0][0]</property>
  <property name="meta.attr.0.stream.encoder.markup">Lavc61.5.103 h264_nvenc</property>
  <property name="meta.attr.minor_version.markup">512</property>
  <property name="meta.attr.major_brand.markup">isom</property>
  <property name="meta.attr.compatible_brands.markup">isomiso2avc1mp41</property>
  <property name="meta.attr.metadata1.markup">slhG9wEIAsSIckVPCixPJXq5ygb7qp/WTvZ+7kOtL00NmRhb6bdcOpxLbysDxvahhRQZgRLWQIZckVwFmaTZZAuYH/evseaYuaMHCXo7+AYcaEtgwYXwSZZrANFTt/HfNjE8c1yIg4LoNwZzfie6z0SDY7ejQQNe7KfGFKvZSZ+9i1KtMuLkoBTAB</property>
  <property name="meta.attr.metadata0.markup">ChtzZWN1cml0eS5rbGluZy5tZXRhX2VuY3J5cHQS8AE7sXE3ucGbWKEUpdpiQs3mUFKabQbaqJAWhDUNG92c1zRU7TV3psWOL6guF996if1dORuvn9M4J/kOpTzKbp5gY73/2gDep1B/Ij/O/2fHxdR7Dov+4naDCJoyhLIvXdoTEGoGu3KYxcGsBQ7qg35BDLsVQ3IH5Qn/u5oBXMPQr9gUZFebS6bT2rv20KoLxZzxQpCaCYswuR9Fd251zUh</property>
  <property name="meta.attr.videoai.markup">Enhanced using iris-3; mode: auto; revert compression at 0; recover details at 0; sharpen at 0; reduce noise at 0; dehalo at 0; anti-alias/deblur at 0; focus fix Off; and recover original detail at 20. Changed resolution to 3840x2160</property>
  <property name="meta.attr.encoder.markup">Lavf61.3.103</property>
  <property name="meta.media.sample_aspect_num">1</property>
  <property name="meta.media.sample_aspect_den">1</property>
  <property name="meta.media.frame_rate_num">30</property>
  <property name="meta.media.frame_rate_den">1</property>
  <property name="meta.media.colorspace">709</property>
  <property name="meta.media.color_trc">2</property>
  <property name="meta.media.has_b_frames">0</property>
  <property name="meta.media.width">3840</property>
  <property name="meta.media.height">2160</property>
  <property name="meta.media.color_range">mpeg</property>
  <property name="xml">was here</property>
  <property name="meta.media.top_field_first">0</property>
  <property name="meta.media.progressive">1</property>
  <property name="set.test_audio">1</property>
  <property name="set.test_image">0</property>
  <property name="kdenlive:control_uuid">{f7a61479-f69d-4942-a09f-6dc14aae08cc}</property>
 </chain>
 <producer id="producer15" in="00:00:00.000" out="00:00:05.042">
  <property name="length">122</property>
  <property name="eof">pause</property>
  <property name="resource">-1.000000:C:/dev/workspace/indy/dist/room/attic/content/upscale/cross6.mp4</property>
  <property name="aspect_ratio">1</property>
  <property name="meta.media.nb_streams">1</property>
  <property name="meta.media.0.stream.type">video</property>
  <property name="meta.media.0.stream.frame_rate">30</property>
  <property name="meta.media.0.stream.sample_aspect_ratio">1</property>
  <property name="meta.media.0.codec.width">3840</property>
  <property name="meta.media.0.codec.height">2160</property>
  <property name="meta.media.0.codec.rotate">0</property>
  <property name="meta.media.0.codec.pix_fmt">yuv420p</property>
  <property name="meta.media.0.codec.sample_aspect_ratio">1</property>
  <property name="meta.media.0.codec.colorspace">709</property>
  <property name="meta.media.0.codec.name">h264</property>
  <property name="meta.media.0.codec.long_name">H.264 / AVC / MPEG-4 AVC / MPEG-4 part 10</property>
  <property name="meta.media.0.codec.bit_rate">74092716</property>
  <property name="meta.attr.0.stream.handler_name.markup">VideoHandler</property>
  <property name="meta.attr.0.stream.vendor_id.markup">[0][0][0][0]</property>
  <property name="meta.attr.0.stream.encoder.markup">Lavc61.5.103 h264_nvenc</property>
  <property name="meta.attr.minor_version.markup">512</property>
  <property name="meta.attr.major_brand.markup">isom</property>
  <property name="meta.attr.compatible_brands.markup">isomiso2avc1mp41</property>
  <property name="meta.attr.metadata1.markup">W70iPnDfysEZNnMeqQhXRbV4K9hLBUM+PwHlElXS0K1LdupsBFe3q560Kv9btwDnYGcVIRuQQe2bXZc/Im/saRE9wRMxqayeA6DyjDwMu6NUaEqsJ0mxfms1PXGykjm/HaBlRtiIg6kH9k/77BMZOW5r6jY40FpEiBTd3HLyXYxMo0o60g88oBTAB</property>
  <property name="meta.attr.metadata0.markup">ChtzZWN1cml0eS5rbGluZy5tZXRhX2VuY3J5cHQS8AGMWqSFswgdkosCZuSOXvrSHJjl5CQFor26V6fYli/oiOw14wH7VGZc8OtVJ9bk7VFiQG7FbXXSRChZJ8kHpBdJsTHVaZawsdnrzegtoDTNVWKIEZozETP6+rvBIuFekgFYGeoq3OJu2I1IS7VpvYq83+bT5DIINU047JHSntdOxjL+5LK+22vgsfdy9ruDT4UaFi/uGUaRmsAr16YPYUK</property>
  <property name="meta.attr.videoai.markup">Enhanced using iris-3; mode: auto; revert compression at 0; recover details at 0; sharpen at 0; reduce noise at 0; dehalo at 0; anti-alias/deblur at 0; focus fix Off; and recover original detail at 20. Changed resolution to 3840x2160</property>
  <property name="meta.attr.encoder.markup">Lavf61.3.103</property>
  <property name="seekable">1</property>
  <property name="meta.media.sample_aspect_num">1</property>
  <property name="meta.media.sample_aspect_den">1</property>
  <property name="audio_index">-1</property>
  <property name="video_index">0</property>
  <property name="warp_speed">-1</property>
  <property name="warp_resource">C:/dev/workspace/indy/dist/room/attic/content/upscale/cross6.mp4</property>
  <property name="mlt_service">timewarp</property>
  <property name="kdenlive:proxy">-</property>
  <property name="kdenlive:originalurl">C:/dev/workspace/indy/dist/room/attic/content/upscale/cross6.mp4</property>
  <property name="vstream">0</property>
  <property name="astream">-1</property>
  <property name="set.test_audio">1</property>
  <property name="set.test_image">0</property>
  <property name="kdenlive:id">25</property>
  <property name="warp_pitch">0</property>
  <property name="meta.media.frame_rate_num">30</property>
  <property name="meta.media.frame_rate_den">1</property>
  <property name="meta.media.colorspace">709</property>
  <property name="meta.media.color_trc">2</property>
  <property name="meta.media.has_b_frames">0</property>
  <property name="meta.media.width">3840</property>
  <property name="meta.media.height">2160</property>
  <property name="meta.media.color_range">mpeg</property>
  <property name="meta.media.top_field_first">0</property>
  <property name="meta.media.progressive">1</property>
  <property name="kdenlive:control_uuid">{ff6ecf40-aa46-42cd-8ce6-a78ad9f1331b}</property>
 </producer>
 <chain id="chain18" out="00:00:05.042">
  <property name="length">122</property>
  <property name="eof">pause</property>
  <property name="resource">C:/dev/workspace/indy/dist/room/attic/content/upscale/cross7.mp4</property>
  <property name="mlt_service">avformat-novalidate</property>
  <property name="seekable">1</property>
  <property name="audio_index">-1</property>
  <property name="video_index">0</property>
  <property name="vstream">0</property>
  <property name="kdenlive:proxy">-</property>
  <property name="kdenlive:originalurl">C:/dev/workspace/indy/dist/room/attic/content/upscale/cross7.mp4</property>
  <property name="kdenlive:id">26</property>
  <property name="mute_on_pause">0</property>
  <property name="kdenlive:clip_type">2</property>
  <property name="kdenlive:file_size">53196044</property>
  <property name="kdenlive:file_hash">8d6f97a9a548a881a09bfd45fdf94304</property>
  <property name="kdenlive:folderid">-1</property>
  <property name="meta.media.nb_streams">1</property>
  <property name="meta.media.0.stream.type">video</property>
  <property name="meta.media.0.stream.frame_rate">30</property>
  <property name="meta.media.0.stream.sample_aspect_ratio">1</property>
  <property name="meta.media.0.codec.width">3840</property>
  <property name="meta.media.0.codec.height">2160</property>
  <property name="meta.media.0.codec.rotate">0</property>
  <property name="meta.media.0.codec.pix_fmt">yuv420p</property>
  <property name="meta.media.0.codec.sample_aspect_ratio">1</property>
  <property name="meta.media.0.codec.colorspace">709</property>
  <property name="meta.media.0.codec.name">h264</property>
  <property name="meta.media.0.codec.long_name">H.264 / AVC / MPEG-4 AVC / MPEG-4 part 10</property>
  <property name="meta.media.0.codec.bit_rate">83440128</property>
  <property name="meta.attr.0.stream.handler_name.markup">VideoHandler</property>
  <property name="meta.attr.0.stream.vendor_id.markup">[0][0][0][0]</property>
  <property name="meta.attr.0.stream.encoder.markup">Lavc61.5.103 h264_nvenc</property>
  <property name="meta.attr.minor_version.markup">512</property>
  <property name="meta.attr.major_brand.markup">isom</property>
  <property name="meta.attr.compatible_brands.markup">isomiso2avc1mp41</property>
  <property name="meta.attr.metadata1.markup">wr0Jjijm2YOrTnHcpAERwKanJHiharJk97jRHx85uIq7AHcno5RzZmlJLJNJFevV4xSvX5z6s6ZAvJQvJSsMBu04xjz6sHQdhqVHkBdcjYhEaEjhb4fNP/cZyP17nw5rvwAND3SIgYR+dYgNxweX0Xj0H/Eo2xXVzNS9qdHAz3AQbdPB24XIoBTAB</property>
  <property name="meta.attr.metadata0.markup">ChtzZWN1cml0eS5rbGluZy5tZXRhX2VuY3J5cHQS8AFaTJ+KVexNycnu9uCDG6T420kPUaZuEQ5VpIcsk0UdEsmxEpY+CT0vjv1pur1+xoJr796Q8KwbVhQoT+lOHKUtziL+JexYQ4G6EnTFRhw19I9dp+1VQa01f4YRYJxkL7nR/gN6dP+WE67K62DaxgDMd93HBkrG1wMxnQAg9fvteAr6qUHpxQbcbBgsHI28SPR4jT1+vZ3wItEu/Cj3aDh</property>
  <property name="meta.attr.videoai.markup">Enhanced using iris-3; mode: auto; revert compression at 0; recover details at 0; sharpen at 0; reduce noise at 0; dehalo at 0; anti-alias/deblur at 0; focus fix Off; and recover original detail at 20. Changed resolution to 3840x2160</property>
  <property name="meta.attr.encoder.markup">Lavf61.3.103</property>
  <property name="meta.media.sample_aspect_num">1</property>
  <property name="meta.media.sample_aspect_den">1</property>
  <property name="meta.media.frame_rate_num">30</property>
  <property name="meta.media.frame_rate_den">1</property>
  <property name="meta.media.colorspace">709</property>
  <property name="meta.media.color_trc">2</property>
  <property name="meta.media.has_b_frames">0</property>
  <property name="meta.media.width">3840</property>
  <property name="meta.media.height">2160</property>
  <property name="meta.media.color_range">mpeg</property>
  <property name="xml">was here</property>
  <property name="meta.media.top_field_first">0</property>
  <property name="meta.media.progressive">1</property>
  <property name="set.test_audio">1</property>
  <property name="set.test_image">0</property>
  <property name="kdenlive:control_uuid">{3a480b84-eeb0-4bf5-b2ef-4817cb26d639}</property>
 </chain>
 <producer id="producer16" in="00:00:00.000" out="00:00:05.042">
  <property name="length">122</property>
  <property name="eof">pause</property>
  <property name="resource">-1.000000:C:/dev/workspace/indy/dist/room/attic/content/upscale/cross7.mp4</property>
  <property name="aspect_ratio">1</property>
  <property name="meta.media.nb_streams">1</property>
  <property name="meta.media.0.stream.type">video</property>
  <property name="meta.media.0.stream.frame_rate">30</property>
  <property name="meta.media.0.stream.sample_aspect_ratio">1</property>
  <property name="meta.media.0.codec.width">3840</property>
  <property name="meta.media.0.codec.height">2160</property>
  <property name="meta.media.0.codec.rotate">0</property>
  <property name="meta.media.0.codec.pix_fmt">yuv420p</property>
  <property name="meta.media.0.codec.sample_aspect_ratio">1</property>
  <property name="meta.media.0.codec.colorspace">709</property>
  <property name="meta.media.0.codec.name">h264</property>
  <property name="meta.media.0.codec.long_name">H.264 / AVC / MPEG-4 AVC / MPEG-4 part 10</property>
  <property name="meta.media.0.codec.bit_rate">83440128</property>
  <property name="meta.attr.0.stream.handler_name.markup">VideoHandler</property>
  <property name="meta.attr.0.stream.vendor_id.markup">[0][0][0][0]</property>
  <property name="meta.attr.0.stream.encoder.markup">Lavc61.5.103 h264_nvenc</property>
  <property name="meta.attr.minor_version.markup">512</property>
  <property name="meta.attr.major_brand.markup">isom</property>
  <property name="meta.attr.compatible_brands.markup">isomiso2avc1mp41</property>
  <property name="meta.attr.metadata1.markup">wr0Jjijm2YOrTnHcpAERwKanJHiharJk97jRHx85uIq7AHcno5RzZmlJLJNJFevV4xSvX5z6s6ZAvJQvJSsMBu04xjz6sHQdhqVHkBdcjYhEaEjhb4fNP/cZyP17nw5rvwAND3SIgYR+dYgNxweX0Xj0H/Eo2xXVzNS9qdHAz3AQbdPB24XIoBTAB</property>
  <property name="meta.attr.metadata0.markup">ChtzZWN1cml0eS5rbGluZy5tZXRhX2VuY3J5cHQS8AFaTJ+KVexNycnu9uCDG6T420kPUaZuEQ5VpIcsk0UdEsmxEpY+CT0vjv1pur1+xoJr796Q8KwbVhQoT+lOHKUtziL+JexYQ4G6EnTFRhw19I9dp+1VQa01f4YRYJxkL7nR/gN6dP+WE67K62DaxgDMd93HBkrG1wMxnQAg9fvteAr6qUHpxQbcbBgsHI28SPR4jT1+vZ3wItEu/Cj3aDh</property>
  <property name="meta.attr.videoai.markup">Enhanced using iris-3; mode: auto; revert compression at 0; recover details at 0; sharpen at 0; reduce noise at 0; dehalo at 0; anti-alias/deblur at 0; focus fix Off; and recover original detail at 20. Changed resolution to 3840x2160</property>
  <property name="meta.attr.encoder.markup">Lavf61.3.103</property>
  <property name="seekable">1</property>
  <property name="meta.media.sample_aspect_num">1</property>
  <property name="meta.media.sample_aspect_den">1</property>
  <property name="audio_index">-1</property>
  <property name="video_index">0</property>
  <property name="warp_speed">-1</property>
  <property name="warp_resource">C:/dev/workspace/indy/dist/room/attic/content/upscale/cross7.mp4</property>
  <property name="mlt_service">timewarp</property>
  <property name="kdenlive:proxy">-</property>
  <property name="kdenlive:originalurl">C:/dev/workspace/indy/dist/room/attic/content/upscale/cross7.mp4</property>
  <property name="vstream">0</property>
  <property name="astream">-1</property>
  <property name="set.test_audio">1</property>
  <property name="set.test_image">0</property>
  <property name="kdenlive:id">26</property>
  <property name="warp_pitch">0</property>
  <property name="meta.media.frame_rate_num">30</property>
  <property name="meta.media.frame_rate_den">1</property>
  <property name="meta.media.colorspace">709</property>
  <property name="meta.media.color_trc">2</property>
  <property name="meta.media.has_b_frames">0</property>
  <property name="meta.media.width">3840</property>
  <property name="meta.media.height">2160</property>
  <property name="meta.media.color_range">mpeg</property>
  <property name="meta.media.top_field_first">0</property>
  <property name="meta.media.progressive">1</property>
  <property name="kdenlive:control_uuid">{3a480b84-eeb0-4bf5-b2ef-4817cb26d639}</property>
 </producer>
 <chain id="chain42" out="00:00:05.042">
  <property name="length">122</property>
  <property name="eof">pause</property>
  <property name="resource">C:/dev/workspace/indy/dist/room/attic/content/upscale/cross6.mp4</property>
  <property name="mlt_service">avformat-novalidate</property>
  <property name="seekable">1</property>
  <property name="audio_index">-1</property>
  <property name="video_index">0</property>
  <property name="vstream">0</property>
  <property name="kdenlive:proxy">-</property>
  <property name="kdenlive:originalurl">C:/dev/workspace/indy/dist/room/attic/content/upscale/cross6.mp4</property>
  <property name="kdenlive:id">25</property>
  <property name="mute_on_pause">0</property>
  <property name="kdenlive:clip_type">2</property>
  <property name="kdenlive:file_size">47237133</property>
  <property name="kdenlive:file_hash">a67ff55fb2f476033550c01a0610cf84</property>
  <property name="kdenlive:folderid">-1</property>
  <property name="meta.media.nb_streams">1</property>
  <property name="meta.media.0.stream.type">video</property>
  <property name="meta.media.0.stream.frame_rate">30</property>
  <property name="meta.media.0.stream.sample_aspect_ratio">1</property>
  <property name="meta.media.0.codec.width">3840</property>
  <property name="meta.media.0.codec.height">2160</property>
  <property name="meta.media.0.codec.rotate">0</property>
  <property name="meta.media.0.codec.pix_fmt">yuv420p</property>
  <property name="meta.media.0.codec.sample_aspect_ratio">1</property>
  <property name="meta.media.0.codec.colorspace">709</property>
  <property name="meta.media.0.codec.name">h264</property>
  <property name="meta.media.0.codec.long_name">H.264 / AVC / MPEG-4 AVC / MPEG-4 part 10</property>
  <property name="meta.media.0.codec.bit_rate">74092716</property>
  <property name="meta.attr.0.stream.handler_name.markup">VideoHandler</property>
  <property name="meta.attr.0.stream.vendor_id.markup">[0][0][0][0]</property>
  <property name="meta.attr.0.stream.encoder.markup">Lavc61.5.103 h264_nvenc</property>
  <property name="meta.attr.minor_version.markup">512</property>
  <property name="meta.attr.major_brand.markup">isom</property>
  <property name="meta.attr.compatible_brands.markup">isomiso2avc1mp41</property>
  <property name="meta.attr.metadata1.markup">W70iPnDfysEZNnMeqQhXRbV4K9hLBUM+PwHlElXS0K1LdupsBFe3q560Kv9btwDnYGcVIRuQQe2bXZc/Im/saRE9wRMxqayeA6DyjDwMu6NUaEqsJ0mxfms1PXGykjm/HaBlRtiIg6kH9k/77BMZOW5r6jY40FpEiBTd3HLyXYxMo0o60g88oBTAB</property>
  <property name="meta.attr.metadata0.markup">ChtzZWN1cml0eS5rbGluZy5tZXRhX2VuY3J5cHQS8AGMWqSFswgdkosCZuSOXvrSHJjl5CQFor26V6fYli/oiOw14wH7VGZc8OtVJ9bk7VFiQG7FbXXSRChZJ8kHpBdJsTHVaZawsdnrzegtoDTNVWKIEZozETP6+rvBIuFekgFYGeoq3OJu2I1IS7VpvYq83+bT5DIINU047JHSntdOxjL+5LK+22vgsfdy9ruDT4UaFi/uGUaRmsAr16YPYUK</property>
  <property name="meta.attr.videoai.markup">Enhanced using iris-3; mode: auto; revert compression at 0; recover details at 0; sharpen at 0; reduce noise at 0; dehalo at 0; anti-alias/deblur at 0; focus fix Off; and recover original detail at 20. Changed resolution to 3840x2160</property>
  <property name="meta.attr.encoder.markup">Lavf61.3.103</property>
  <property name="meta.media.sample_aspect_num">1</property>
  <property name="meta.media.sample_aspect_den">1</property>
  <property name="meta.media.frame_rate_num">30</property>
  <property name="meta.media.frame_rate_den">1</property>
  <property name="meta.media.colorspace">709</property>
  <property name="meta.media.color_trc">2</property>
  <property name="meta.media.has_b_frames">0</property>
  <property name="meta.media.width">3840</property>
  <property name="meta.media.height">2160</property>
  <property name="meta.media.color_range">mpeg</property>
  <property name="xml">was here</property>
  <property name="meta.media.top_field_first">0</property>
  <property name="meta.media.progressive">1</property>
  <property name="set.test_audio">1</property>
  <property name="set.test_image">0</property>
  <property name="kdenlive:control_uuid">{ff6ecf40-aa46-42cd-8ce6-a78ad9f1331b}</property>
 </chain>
 <chain id="chain45" out="00:00:05.042">
  <property name="length">122</property>
  <property name="eof">pause</property>
  <property name="resource">C:/dev/workspace/indy/dist/room/attic/content/upscale/attic19.mp4</property>
  <property name="mlt_service">avformat-novalidate</property>
  <property name="seekable">1</property>
  <property name="audio_index">-1</property>
  <property name="video_index">0</property>
  <property name="vstream">0</property>
  <property name="kdenlive:id">34</property>
  <property name="kdenlive:clip_type">2</property>
  <property name="kdenlive:file_size">52199099</property>
  <property name="kdenlive:file_hash">c7f563f6fc2f198c6080719992d90d33</property>
  <property name="kdenlive:folderid">-1</property>
  <property name="meta.media.nb_streams">1</property>
  <property name="meta.media.0.stream.type">video</property>
  <property name="meta.media.0.stream.frame_rate">30</property>
  <property name="meta.media.0.stream.sample_aspect_ratio">1</property>
  <property name="meta.media.0.codec.width">3840</property>
  <property name="meta.media.0.codec.height">2160</property>
  <property name="meta.media.0.codec.rotate">0</property>
  <property name="meta.media.0.codec.pix_fmt">yuv420p</property>
  <property name="meta.media.0.codec.sample_aspect_ratio">1</property>
  <property name="meta.media.0.codec.colorspace">709</property>
  <property name="meta.media.0.codec.name">h264</property>
  <property name="meta.media.0.codec.long_name">H.264 / AVC / MPEG-4 AVC / MPEG-4 part 10</property>
  <property name="meta.media.0.codec.bit_rate">81876268</property>
  <property name="meta.attr.0.stream.handler_name.markup">VideoHandler</property>
  <property name="meta.attr.0.stream.vendor_id.markup">[0][0][0][0]</property>
  <property name="meta.attr.0.stream.encoder.markup">Lavc61.5.103 h264_nvenc</property>
  <property name="meta.attr.minor_version.markup">512</property>
  <property name="meta.attr.major_brand.markup">isom</property>
  <property name="meta.attr.compatible_brands.markup">isomiso2avc1mp41</property>
  <property name="meta.attr.metadata1.markup">fYDZDnIpSrRqkFDPVn38WiRbP3rwVJICkFOfZzqOcQBfPj0fEW2GYymo5EuOxQ4nwPdytpvztqKG9FynuEftaqelP48KWb6LYlluEKJz4Vn8aEtPY/yy9/EL/GL+WYdLYRGFvASIgpVZOpf6fzV3OUGIBWaaUOX3XxaWoN+dYtNwXWmt7vdIoBTAB</property>
  <property name="meta.attr.metadata0.markup">ChtzZWN1cml0eS5rbGluZy5tZXRhX2VuY3J5cHQS8AFDWpZys8rofo6c0hS5sN30VN+paLY1STkOlqH6lMA93CId7a1epXcME3rGZZGPFu/668nxWbyDZ/kEUT2CMgqpdJSp9HPHT7jhmgFKjx99Oo1E/No7DoC0FSkhSGr8B4NT2N2TOG7MsumCXUxB+eutVr1OCzXkyy5AeFsJpylzNU5JjdC1XQyoA06e4mrWIhfL4BfSRYXy8QLNMt3vp+/</property>
  <property name="meta.attr.videoai.markup">Enhanced using iris-3; mode: auto; revert compression at 0; recover details at 0; sharpen at 0; reduce noise at 0; dehalo at 0; anti-alias/deblur at 0; focus fix Off; and recover original detail at 20. Changed resolution to 3840x2160</property>
  <property name="meta.attr.encoder.markup">Lavf61.3.103</property>
  <property name="meta.media.sample_aspect_num">1</property>
  <property name="meta.media.sample_aspect_den">1</property>
  <property name="meta.media.frame_rate_num">30</property>
  <property name="meta.media.frame_rate_den">1</property>
  <property name="meta.media.colorspace">709</property>
  <property name="meta.media.color_trc">2</property>
  <property name="meta.media.has_b_frames">0</property>
  <property name="meta.media.width">3840</property>
  <property name="meta.media.height">2160</property>
  <property name="meta.media.color_range">mpeg</property>
  <property name="xml">was here</property>
  <property name="mute_on_pause">0</property>
  <property name="meta.media.top_field_first">0</property>
  <property name="meta.media.progressive">1</property>
  <property name="set.test_audio">1</property>
  <property name="set.test_image">0</property>
  <property name="kdenlive:control_uuid">{eac92812-ae8a-46f7-9216-103327ce146a}</property>
  <property name="meta.media.aspect_ratio">1</property>
 </chain>
 <chain id="chain46" out="00:00:09.542">
  <property name="length">230</property>
  <property name="eof">pause</property>
  <property name="resource">C:/dev/workspace/indy/dist/room/attic/content/upscale/gargoyle6.mp4</property>
  <property name="mlt_service">avformat-novalidate</property>
  <property name="seekable">1</property>
  <property name="audio_index">-1</property>
  <property name="video_index">0</property>
  <property name="vstream">0</property>
  <property name="kdenlive:proxy">-</property>
  <property name="kdenlive:originalurl">C:/dev/workspace/indy/dist/room/attic/content/upscale/gargoyle6.mp4</property>
  <property name="kdenlive:id">27</property>
  <property name="mute_on_pause">0</property>
  <property name="kdenlive:clip_type">2</property>
  <property name="kdenlive:file_size">97191392</property>
  <property name="kdenlive:file_hash">7b116758664f0e1c93c7683f5675a673</property>
  <property name="kdenlive:folderid">-1</property>
  <property name="meta.media.nb_streams">1</property>
  <property name="meta.media.0.stream.type">video</property>
  <property name="meta.media.0.stream.frame_rate">30</property>
  <property name="meta.media.0.stream.sample_aspect_ratio">1</property>
  <property name="meta.media.0.codec.width">3840</property>
  <property name="meta.media.0.codec.height">2160</property>
  <property name="meta.media.0.codec.rotate">0</property>
  <property name="meta.media.0.codec.pix_fmt">yuv420p</property>
  <property name="meta.media.0.codec.sample_aspect_ratio">1</property>
  <property name="meta.media.0.codec.colorspace">709</property>
  <property name="meta.media.0.codec.name">h264</property>
  <property name="meta.media.0.codec.long_name">H.264 / AVC / MPEG-4 AVC / MPEG-4 part 10</property>
  <property name="meta.media.0.codec.bit_rate">80989571</property>
  <property name="meta.attr.0.stream.handler_name.markup">VideoHandler</property>
  <property name="meta.attr.0.stream.vendor_id.markup">[0][0][0][0]</property>
  <property name="meta.attr.0.stream.encoder.markup">Lavc61.5.103 h264_nvenc</property>
  <property name="meta.attr.minor_version.markup">512</property>
  <property name="meta.attr.major_brand.markup">isom</property>
  <property name="meta.attr.compatible_brands.markup">isomiso2avc1mp41</property>
  <property name="meta.attr.metadata1.markup">Ge3rQAgrOa73m5UkZ1Glu2QrYYt3Hi52lLJcQm2X+rzcgdvjZApkFLREBi+3ZNpxsK7lqrjmUGXVN2qrjMfNmtbb0TIDmNijapREImFqvO8kaEgSS0hVbN4ezQdG0i/TEHHYjISIgy7cq4uHu4JdSInc8rjRWEADYs/5vW55cxViD+Li7RVYoBTAB</property>
  <property name="meta.attr.metadata0.markup">ChtzZWN1cml0eS5rbGluZy5tZXRhX2VuY3J5cHQS8AExZZAjusCwry7MC7rvXIbk1i4ZkZX5nr9Qm6hDlweWxjqKb7lQv7W8Pasilr0zFDu3c1t0JbscTbEkqDzx26Nsf8axXk94OTsc4kPyIys3w+9aR1QfB92z1w+t3TM50dg3dMSpycBztnRKNcUzVjBLc1ULsaqsKSH1wm9QskQll25LQVKdT3+qLwzfMBt7EmPjx7DFxar+0O0VQco56QV</property>
  <property name="meta.attr.videoai.markup">Enhanced using iris-3; mode: auto; revert compression at 0; recover details at 0; sharpen at 0; reduce noise at 0; dehalo at 0; anti-alias/deblur at 0; focus fix Off; and recover original detail at 20. Changed resolution to 3840x2160</property>
  <property name="meta.attr.encoder.markup">Lavf61.3.103</property>
  <property name="meta.media.sample_aspect_num">1</property>
  <property name="meta.media.sample_aspect_den">1</property>
  <property name="meta.media.frame_rate_num">30</property>
  <property name="meta.media.frame_rate_den">1</property>
  <property name="meta.media.colorspace">709</property>
  <property name="meta.media.color_trc">2</property>
  <property name="meta.media.has_b_frames">0</property>
  <property name="meta.media.width">3840</property>
  <property name="meta.media.height">2160</property>
  <property name="meta.media.color_range">mpeg</property>
  <property name="xml">was here</property>
  <property name="meta.media.top_field_first">0</property>
  <property name="meta.media.progressive">1</property>
  <property name="set.test_audio">1</property>
  <property name="set.test_image">0</property>
  <property name="kdenlive:control_uuid">{136ceae5-7790-45bc-a16c-b546da3b2ca4}</property>
 </chain>
 <playlist id="playlist8">
  <blank length="00:00:01.583"/>
  <entry in="00:00:01.000" out="00:00:03.375" producer="producer2">
   <property name="kdenlive:id">32</property>
   <filter id="filter5">
    <property name="filter">frei0r.select0r</property>
    <property name="mlt_service">mask_start</property>
    <property name="kdenlive_id">mask_start-frei0r.select0r</property>
    <property name="filter.Color to select">24=0x0078b4ff</property>
    <property name="filter.Invert selection">0</property>
    <property name="filter.Selection subspace">0</property>
    <property name="filter.Subspace shape">0.5</property>
    <property name="filter.Edge mode">0.9</property>
    <property name="filter.Delta R / A / Hue">24=0.2</property>
    <property name="filter.Delta G / B / Chroma">24=0.2</property>
    <property name="filter.Delta B / I / I">24=0.2</property>
    <property name="filter.Slope">24=0.5</property>
    <property name="filter.Operation">0</property>
    <property name="kdenlive:collapsed">1</property>
   </filter>
   <filter id="filter9">
    <property name="version">0.2</property>
    <property name="mlt_service">frei0r.coloradj_RGB</property>
    <property name="kdenlive_id">frei0r.coloradj_RGB</property>
    <property name="R">00:00:01.000=0.5</property>
    <property name="G">00:00:01.000=0.5</property>
    <property name="B">00:00:01.000=0.4</property>
    <property name="Action">0.5</property>
    <property name="Keep luma">1</property>
    <property name="Alpha controlled">0</property>
    <property name="Luma formula">1</property>
    <property name="kdenlive:collapsed">1</property>
   </filter>
   <filter id="filter10">
    <property name="transition">frei0r.composition</property>
    <property name="mlt_image_format">rgba</property>
    <property name="mlt_service">mask_apply</property>
    <property name="kdenlive_id">mask_apply</property>
    <property name="kdenlive:collapsed">0</property>
   </filter>
  </entry>
  <entry in="00:00:00.000" out="00:00:03.958" producer="chain14">
   <property name="kdenlive:id">6</property>
  </entry>
  <entry in="00:00:00.000" out="00:00:03.958" producer="producer11">
   <property name="kdenlive:id">6</property>
  </entry>
  <entry in="00:00:00.000" out="00:00:03.958" producer="chain15">
   <property name="kdenlive:id">4</property>
  </entry>
  <entry in="00:00:00.000" out="00:00:03.958" producer="producer12">
   <property name="kdenlive:id">4</property>
  </entry>
  <entry in="00:00:00.000" out="00:00:03.958" producer="chain16">
   <property name="kdenlive:id">5</property>
  </entry>
  <entry in="00:00:00.000" out="00:00:03.958" producer="producer14">
   <property name="kdenlive:id">5</property>
  </entry>
  <entry in="00:00:00.000" out="00:00:01.958" producer="chain17">
   <property name="kdenlive:id">37</property>
   <filter id="filter11">
    <property name="filter">frei0r.select0r</property>
    <property name="mlt_service">mask_start</property>
    <property name="kdenlive_id">mask_start-frei0r.select0r</property>
    <property name="filter.Color to select">0=0x0078b4ff</property>
    <property name="filter.Invert selection">0</property>
    <property name="filter.Selection subspace">0</property>
    <property name="filter.Subspace shape">0.5</property>
    <property name="filter.Edge mode">0.9</property>
    <property name="filter.Delta R / A / Hue">0=0.2</property>
    <property name="filter.Delta G / B / Chroma">0=0.2</property>
    <property name="filter.Delta B / I / I">0=0.2</property>
    <property name="filter.Slope">0=0.5</property>
    <property name="filter.Operation">0</property>
    <property name="kdenlive:collapsed">1</property>
    <property name="disable">0</property>
   </filter>
   <filter id="filter14">
    <property name="version">0.2</property>
    <property name="mlt_service">frei0r.coloradj_RGB</property>
    <property name="kdenlive_id">frei0r.coloradj_RGB</property>
    <property name="R">00:00:00.000=0.5</property>
    <property name="G">00:00:00.000=0.5</property>
    <property name="B">00:00:00.000=0.4</property>
    <property name="Action">0.5</property>
    <property name="Keep luma">1</property>
    <property name="Alpha controlled">0</property>
    <property name="Luma formula">1</property>
    <property name="kdenlive:collapsed">1</property>
   </filter>
   <filter id="filter15">
    <property name="transition">frei0r.composition</property>
    <property name="mlt_image_format">rgba</property>
    <property name="mlt_service">mask_apply</property>
    <property name="kdenlive_id">mask_apply</property>
    <property name="kdenlive:collapsed">0</property>
   </filter>
  </entry>
  <entry in="00:00:00.000" out="00:00:05.042" producer="producer15">
   <property name="kdenlive:id">25</property>
   <filter id="filter16">
    <property name="filter">frei0r.select0r</property>
    <property name="mlt_service">mask_start</property>
    <property name="kdenlive_id">mask_start-frei0r.select0r</property>
    <property name="filter.Color to select">00:00:00.000=0x0078b4ff</property>
    <property name="filter.Invert selection">0</property>
    <property name="filter.Selection subspace">0</property>
    <property name="filter.Subspace shape">0.5</property>
    <property name="filter.Edge mode">0.9</property>
    <property name="filter.Delta R / A / Hue">0=0.2</property>
    <property name="filter.Delta G / B / Chroma">0=0.2</property>
    <property name="filter.Delta B / I / I">0=0.2</property>
    <property name="filter.Slope">00:00:00.000=0.5</property>
    <property name="filter.Operation">0</property>
    <property name="kdenlive:collapsed">1</property>
    <property name="disable">1</property>
   </filter>
   <filter id="filter17">
    <property name="version">0.2</property>
    <property name="mlt_service">frei0r.coloradj_RGB</property>
    <property name="kdenlive_id">frei0r.coloradj_RGB</property>
    <property name="R">00:00:00.000=0.5</property>
    <property name="G">00:00:00.000=0.5</property>
    <property name="B">00:00:00.000=0.4</property>
    <property name="Action">0.5</property>
    <property name="Keep luma">1</property>
    <property name="Alpha controlled">0</property>
    <property name="Luma formula">1</property>
    <property name="kdenlive:collapsed">1</property>
    <property name="disable">1</property>
   </filter>
   <filter id="filter19">
    <property name="transition">frei0r.composition</property>
    <property name="mlt_image_format">rgba</property>
    <property name="mlt_service">mask_apply</property>
    <property name="kdenlive_id">mask_apply</property>
    <property name="kdenlive:collapsed">0</property>
    <property name="disable">1</property>
   </filter>
  </entry>
  <entry in="00:00:00.000" out="00:00:05.042" producer="chain18">
   <property name="kdenlive:id">26</property>
   <filter id="filter21">
    <property name="filter">frei0r.select0r</property>
    <property name="mlt_service">mask_start</property>
    <property name="kdenlive_id">mask_start-frei0r.select0r</property>
    <property name="filter.Color to select">0=0x0078b4ff</property>
    <property name="filter.Invert selection">0</property>
    <property name="filter.Selection subspace">0</property>
    <property name="filter.Subspace shape">0.5</property>
    <property name="filter.Edge mode">0.9</property>
    <property name="filter.Delta R / A / Hue">0=0.2</property>
    <property name="filter.Delta G / B / Chroma">0=0.2</property>
    <property name="filter.Delta B / I / I">0=0.2</property>
    <property name="filter.Slope">00:00:00.000=0.5</property>
    <property name="filter.Operation">0</property>
    <property name="kdenlive:collapsed">1</property>
    <property name="disable">1</property>
   </filter>
   <filter id="filter22">
    <property name="version">0.2</property>
    <property name="mlt_service">frei0r.coloradj_RGB</property>
    <property name="kdenlive_id">frei0r.coloradj_RGB</property>
    <property name="R">00:00:00.000=0.5</property>
    <property name="G">00:00:00.000=0.5</property>
    <property name="B">00:00:00.000=0.4</property>
    <property name="Action">0.5</property>
    <property name="Keep luma">1</property>
    <property name="Alpha controlled">0</property>
    <property name="Luma formula">1</property>
    <property name="kdenlive:collapsed">0</property>
    <property name="disable">1</property>
   </filter>
   <filter id="filter23">
    <property name="transition">frei0r.composition</property>
    <property name="mlt_image_format">rgba</property>
    <property name="mlt_service">mask_apply</property>
    <property name="kdenlive_id">mask_apply</property>
    <property name="kdenlive:collapsed">0</property>
    <property name="disable">1</property>
   </filter>
  </entry>
  <entry in="00:00:00.000" out="00:00:05.042" producer="producer16">
   <property name="kdenlive:id">26</property>
   <filter id="filter24">
    <property name="filter">frei0r.select0r</property>
    <property name="mlt_service">mask_start</property>
    <property name="kdenlive_id">mask_start-frei0r.select0r</property>
    <property name="filter.Color to select">0=0x0078b4ff</property>
    <property name="filter.Invert selection">0</property>
    <property name="filter.Selection subspace">0</property>
    <property name="filter.Subspace shape">0.5</property>
    <property name="filter.Edge mode">0.9</property>
    <property name="filter.Delta R / A / Hue">0=0.2</property>
    <property name="filter.Delta G / B / Chroma">0=0.2</property>
    <property name="filter.Delta B / I / I">0=0.2</property>
    <property name="filter.Slope">0=0.5</property>
    <property name="filter.Operation">0</property>
    <property name="kdenlive:collapsed">1</property>
    <property name="disable">1</property>
   </filter>
   <filter id="filter25">
    <property name="version">0.2</property>
    <property name="mlt_service">frei0r.coloradj_RGB</property>
    <property name="kdenlive_id">frei0r.coloradj_RGB</property>
    <property name="R">00:00:00.000=0.5</property>
    <property name="G">00:00:00.000=0.5</property>
    <property name="B">00:00:00.000=0.4</property>
    <property name="Action">0.5</property>
    <property name="Keep luma">1</property>
    <property name="Alpha controlled">0</property>
    <property name="Luma formula">1</property>
    <property name="kdenlive:collapsed">1</property>
    <property name="disable">1</property>
   </filter>
   <filter id="filter27">
    <property name="transition">frei0r.composition</property>
    <property name="mlt_image_format">rgba</property>
    <property name="mlt_service">mask_apply</property>
    <property name="kdenlive_id">mask_apply</property>
    <property name="kdenlive:collapsed">0</property>
    <property name="disable">1</property>
   </filter>
  </entry>
  <entry in="00:00:00.000" out="00:00:05.042" producer="chain42">
   <property name="kdenlive:id">25</property>
   <filter id="filter28">
    <property name="filter">frei0r.select0r</property>
    <property name="mlt_service">mask_start</property>
    <property name="kdenlive_id">mask_start-frei0r.select0r</property>
    <property name="filter.Color to select">0=0x0078b4ff</property>
    <property name="filter.Invert selection">0</property>
    <property name="filter.Selection subspace">0</property>
    <property name="filter.Subspace shape">0.5</property>
    <property name="filter.Edge mode">0.9</property>
    <property name="filter.Delta R / A / Hue">0=0.2</property>
    <property name="filter.Delta G / B / Chroma">0=0.2</property>
    <property name="filter.Delta B / I / I">0=0.2</property>
    <property name="filter.Slope">0=0.5</property>
    <property name="filter.Operation">0</property>
    <property name="kdenlive:collapsed">1</property>
    <property name="disable">1</property>
   </filter>
   <filter id="filter29">
    <property name="version">0.2</property>
    <property name="mlt_service">frei0r.coloradj_RGB</property>
    <property name="kdenlive_id">frei0r.coloradj_RGB</property>
    <property name="R">00:00:00.000=0.5</property>
    <property name="G">00:00:00.000=0.5</property>
    <property name="B">00:00:00.000=0.4</property>
    <property name="Action">0.5</property>
    <property name="Keep luma">1</property>
    <property name="Alpha controlled">0</property>
    <property name="Luma formula">1</property>
    <property name="kdenlive:collapsed">1</property>
    <property name="disable">1</property>
   </filter>
   <filter id="filter30">
    <property name="transition">frei0r.composition</property>
    <property name="mlt_image_format">rgba</property>
    <property name="mlt_service">mask_apply</property>
    <property name="kdenlive_id">mask_apply</property>
    <property name="kdenlive:collapsed">0</property>
    <property name="disable">1</property>
   </filter>
  </entry>
  <blank length="00:00:00.250"/>
  <entry in="00:00:00.083" out="00:00:00.458" producer="chain14">
   <property name="kdenlive:id">6</property>
  </entry>
  <entry in="00:00:02.542" out="00:00:04.500" producer="chain45">
   <property name="kdenlive:id">34</property>
  </entry>
  <entry in="00:00:00.000" out="00:00:06.958" producer="chain46">
   <property name="kdenlive:id">27</property>
   <filter id="filter31">
    <property name="filter">frei0r.select0r</property>
    <property name="mlt_service">mask_start</property>
    <property name="kdenlive_id">mask_start-frei0r.select0r</property>
    <property name="filter.Color to select">00:00:00.000=0x0078b4ff</property>
    <property name="filter.Invert selection">0</property>
    <property name="filter.Selection subspace">0</property>
    <property name="filter.Subspace shape">0.5</property>
    <property name="filter.Edge mode">0.9</property>
    <property name="filter.Delta R / A / Hue">00:00:00.000=0.2</property>
    <property name="filter.Delta G / B / Chroma">00:00:00.000=0.2</property>
    <property name="filter.Delta B / I / I">00:00:00.000=0.2</property>
    <property name="filter.Slope">00:00:00.000=0.5</property>
    <property name="filter.Operation">0</property>
    <property name="kdenlive:collapsed">1</property>
    <property name="disable">1</property>
   </filter>
   <filter id="filter32">
    <property name="version">0.2</property>
    <property name="mlt_service">frei0r.coloradj_RGB</property>
    <property name="kdenlive_id">frei0r.coloradj_RGB</property>
    <property name="R">00:00:00.000=0.5</property>
    <property name="G">00:00:00.000=0.5</property>
    <property name="B">00:00:00.000=0.4</property>
    <property name="Action">0.5</property>
    <property name="Keep luma">1</property>
    <property name="Alpha controlled">0</property>
    <property name="Luma formula">1</property>
    <property name="kdenlive:collapsed">1</property>
    <property name="disable">1</property>
   </filter>
   <filter id="filter33">
    <property name="transition">frei0r.composition</property>
    <property name="mlt_image_format">rgba</property>
    <property name="mlt_service">mask_apply</property>
    <property name="kdenlive_id">mask_apply</property>
    <property name="kdenlive:collapsed">0</property>
    <property name="disable">1</property>
   </filter>
  </entry>
  <blank length="00:00:06.583"/>
  <entry in="00:00:00.000" out="00:00:00.375" producer="chain14">
   <property name="kdenlive:id">6</property>
  </entry>
 </playlist>
 <playlist id="playlist9"/>
 <tractor id="tractor4" in="00:00:00.000" out="00:01:06.958">
  <property name="kdenlive:trackheight">67</property>
  <property name="kdenlive:timeline_active">1</property>
  <property name="kdenlive:collapsed">0</property>
  <property name="kdenlive:thumbs_format"/>
  <property name="kdenlive:audio_rec"/>
  <track hide="audio" producer="playlist8"/>
  <track hide="audio" producer="playlist9"/>
 </tractor>
 <chain id="chain47" out="00:00:05.042">
  <property name="length">122</property>
  <property name="eof">pause</property>
  <property name="resource">C:/dev/workspace/indy/dist/room/attic/content/upscale/attic17.mp4</property>
  <property name="mlt_service">avformat-novalidate</property>
  <property name="seekable">1</property>
  <property name="audio_index">-1</property>
  <property name="video_index">0</property>
  <property name="vstream">0</property>
  <property name="kdenlive:folderid">-1</property>
  <property name="kdenlive:id">31</property>
  <property name="mute_on_pause">0</property>
  <property name="kdenlive:clip_type">2</property>
  <property name="kdenlive:file_size">61455169</property>
  <property name="kdenlive:file_hash">20fb612295db4d34315e7b523399b5a9</property>
  <property name="meta.media.nb_streams">1</property>
  <property name="meta.media.0.stream.type">video</property>
  <property name="meta.media.0.stream.frame_rate">30</property>
  <property name="meta.media.0.stream.sample_aspect_ratio">1</property>
  <property name="meta.media.0.codec.width">3840</property>
  <property name="meta.media.0.codec.height">2160</property>
  <property name="meta.media.0.codec.rotate">0</property>
  <property name="meta.media.0.codec.pix_fmt">yuv420p</property>
  <property name="meta.media.0.codec.sample_aspect_ratio">1</property>
  <property name="meta.media.0.codec.colorspace">709</property>
  <property name="meta.media.0.codec.name">h264</property>
  <property name="meta.media.0.codec.long_name">H.264 / AVC / MPEG-4 AVC / MPEG-4 part 10</property>
  <property name="meta.media.0.codec.bit_rate">96395512</property>
  <property name="meta.attr.0.stream.handler_name.markup">VideoHandler</property>
  <property name="meta.attr.0.stream.vendor_id.markup">[0][0][0][0]</property>
  <property name="meta.attr.0.stream.encoder.markup">Lavc61.5.103 h264_nvenc</property>
  <property name="meta.attr.minor_version.markup">512</property>
  <property name="meta.attr.major_brand.markup">isom</property>
  <property name="meta.attr.compatible_brands.markup">isomiso2avc1mp41</property>
  <property name="meta.attr.metadata1.markup">bNqqEfYDYZpOiWvni5iy8PMIUs0x9/BZCkP6O5aF2RDLBzcdR9Jis49y8SanqT3KyhGqiaAcfNT5It/0JinRqUYQ272Sy/zuj+ENg/nvHpk8aEruG/UhL5UhSygvcpQENm2giSCIg/Tls80qPSAZ8DTpoI/AVocSsFNTDILN00M7/fZXMYccoBTAB</property>
  <property name="meta.attr.metadata0.markup">ChtzZWN1cml0eS5rbGluZy5tZXRhX2VuY3J5cHQS8AH8oi6sVl8WCjBNjFg7RN4VRlc4+p9W+CKcTIL6CEb8TvkHBgrrBfUrmz9m8YZ1kx1fC/RvsONMnPj2kvs3gkXlC79jXdQwAfqabnSYyzVywuwCFUjxj0qF7N7IaGoS/eEivlVhR7A7t0sXr5mePIWLctFGzH4BZeJsxa/6+LguF/shYKZTd6b1JkjbUylJzJTaBc283Gfvx/EFZsQ3PQZ</property>
  <property name="meta.attr.videoai.markup">Enhanced using iris-3; mode: auto; revert compression at 0; recover details at 0; sharpen at 0; reduce noise at 0; dehalo at 0; anti-alias/deblur at 0; focus fix Off; and recover original detail at 20. Changed resolution to 3840x2160</property>
  <property name="meta.attr.encoder.markup">Lavf61.3.103</property>
  <property name="meta.media.sample_aspect_num">1</property>
  <property name="meta.media.sample_aspect_den">1</property>
  <property name="meta.media.frame_rate_num">30</property>
  <property name="meta.media.frame_rate_den">1</property>
  <property name="meta.media.colorspace">709</property>
  <property name="meta.media.color_trc">2</property>
  <property name="meta.media.has_b_frames">0</property>
  <property name="meta.media.width">3840</property>
  <property name="meta.media.height">2160</property>
  <property name="meta.media.color_range">mpeg</property>
  <property name="xml">was here</property>
  <property name="meta.media.top_field_first">0</property>
  <property name="meta.media.progressive">1</property>
  <property name="set.test_audio">1</property>
  <property name="set.test_image">0</property>
  <property name="kdenlive:control_uuid">{c8b78783-2ad6-4324-a0b2-a61d5164e1c3}</property>
 </chain>
 <producer id="producer18" in="00:00:00.000" out="00:00:05.042">
  <property name="length">122</property>
  <property name="eof">pause</property>
  <property name="resource">-1.000000:C:/dev/workspace/indy/dist/room/attic/content/upscale/cross6.mp4</property>
  <property name="aspect_ratio">1</property>
  <property name="meta.media.nb_streams">1</property>
  <property name="meta.media.0.stream.type">video</property>
  <property name="meta.media.0.stream.frame_rate">30</property>
  <property name="meta.media.0.stream.sample_aspect_ratio">1</property>
  <property name="meta.media.0.codec.width">3840</property>
  <property name="meta.media.0.codec.height">2160</property>
  <property name="meta.media.0.codec.rotate">0</property>
  <property name="meta.media.0.codec.pix_fmt">yuv420p</property>
  <property name="meta.media.0.codec.sample_aspect_ratio">1</property>
  <property name="meta.media.0.codec.colorspace">709</property>
  <property name="meta.media.0.codec.name">h264</property>
  <property name="meta.media.0.codec.long_name">H.264 / AVC / MPEG-4 AVC / MPEG-4 part 10</property>
  <property name="meta.media.0.codec.bit_rate">74092716</property>
  <property name="meta.attr.0.stream.handler_name.markup">VideoHandler</property>
  <property name="meta.attr.0.stream.vendor_id.markup">[0][0][0][0]</property>
  <property name="meta.attr.0.stream.encoder.markup">Lavc61.5.103 h264_nvenc</property>
  <property name="meta.attr.minor_version.markup">512</property>
  <property name="meta.attr.major_brand.markup">isom</property>
  <property name="meta.attr.compatible_brands.markup">isomiso2avc1mp41</property>
  <property name="meta.attr.metadata1.markup">W70iPnDfysEZNnMeqQhXRbV4K9hLBUM+PwHlElXS0K1LdupsBFe3q560Kv9btwDnYGcVIRuQQe2bXZc/Im/saRE9wRMxqayeA6DyjDwMu6NUaEqsJ0mxfms1PXGykjm/HaBlRtiIg6kH9k/77BMZOW5r6jY40FpEiBTd3HLyXYxMo0o60g88oBTAB</property>
  <property name="meta.attr.metadata0.markup">ChtzZWN1cml0eS5rbGluZy5tZXRhX2VuY3J5cHQS8AGMWqSFswgdkosCZuSOXvrSHJjl5CQFor26V6fYli/oiOw14wH7VGZc8OtVJ9bk7VFiQG7FbXXSRChZJ8kHpBdJsTHVaZawsdnrzegtoDTNVWKIEZozETP6+rvBIuFekgFYGeoq3OJu2I1IS7VpvYq83+bT5DIINU047JHSntdOxjL+5LK+22vgsfdy9ruDT4UaFi/uGUaRmsAr16YPYUK</property>
  <property name="meta.attr.videoai.markup">Enhanced using iris-3; mode: auto; revert compression at 0; recover details at 0; sharpen at 0; reduce noise at 0; dehalo at 0; anti-alias/deblur at 0; focus fix Off; and recover original detail at 20. Changed resolution to 3840x2160</property>
  <property name="meta.attr.encoder.markup">Lavf61.3.103</property>
  <property name="seekable">1</property>
  <property name="meta.media.sample_aspect_num">1</property>
  <property name="meta.media.sample_aspect_den">1</property>
  <property name="audio_index">-1</property>
  <property name="video_index">0</property>
  <property name="warp_speed">-1</property>
  <property name="warp_resource">C:/dev/workspace/indy/dist/room/attic/content/upscale/cross6.mp4</property>
  <property name="mlt_service">timewarp</property>
  <property name="kdenlive:proxy">-</property>
  <property name="kdenlive:originalurl">C:/dev/workspace/indy/dist/room/attic/content/upscale/cross6.mp4</property>
  <property name="vstream">0</property>
  <property name="astream">-1</property>
  <property name="set.test_audio">1</property>
  <property name="set.test_image">0</property>
  <property name="kdenlive:id">25</property>
  <property name="warp_pitch">0</property>
  <property name="meta.media.frame_rate_num">30</property>
  <property name="meta.media.frame_rate_den">1</property>
  <property name="meta.media.colorspace">709</property>
  <property name="meta.media.color_trc">2</property>
  <property name="meta.media.has_b_frames">0</property>
  <property name="meta.media.width">3840</property>
  <property name="meta.media.height">2160</property>
  <property name="meta.media.color_range">mpeg</property>
  <property name="meta.media.top_field_first">0</property>
  <property name="meta.media.progressive">1</property>
  <property name="kdenlive:control_uuid">{ff6ecf40-aa46-42cd-8ce6-a78ad9f1331b}</property>
 </producer>
 <chain id="chain48" out="00:00:03.958">
  <property name="length">96</property>
  <property name="eof">pause</property>
  <property name="resource">C:/dev/workspace/indy/dist/room/attic/content/upscale/attic7.mp4</property>
  <property name="mlt_service">avformat-novalidate</property>
  <property name="seekable">1</property>
  <property name="audio_index">-1</property>
  <property name="video_index">0</property>
  <property name="vstream">0</property>
  <property name="kdenlive:proxy">-</property>
  <property name="kdenlive:originalurl">C:/dev/workspace/indy/dist/room/attic/content/upscale/attic7.mp4</property>
  <property name="kdenlive:id">6</property>
  <property name="mute_on_pause">0</property>
  <property name="kdenlive:clip_type">2</property>
  <property name="kdenlive:file_size">27096899</property>
  <property name="kdenlive:folderid">-1</property>
  <property name="kdenlive:file_hash">e425f35b2f5baea0034bf98f8a8cc328</property>
  <property name="meta.media.nb_streams">1</property>
  <property name="meta.media.0.stream.type">video</property>
  <property name="meta.media.0.stream.frame_rate">24</property>
  <property name="meta.media.0.stream.sample_aspect_ratio">1</property>
  <property name="meta.media.0.codec.width">3840</property>
  <property name="meta.media.0.codec.height">2160</property>
  <property name="meta.media.0.codec.rotate">0</property>
  <property name="meta.media.0.codec.pix_fmt">yuv420p</property>
  <property name="meta.media.0.codec.sample_aspect_ratio">1</property>
  <property name="meta.media.0.codec.colorspace">709</property>
  <property name="meta.media.0.codec.name">h264</property>
  <property name="meta.media.0.codec.long_name">H.264 / AVC / MPEG-4 AVC / MPEG-4 part 10</property>
  <property name="meta.media.0.codec.bit_rate">54189734</property>
  <property name="meta.attr.0.stream.handler_name.markup">VideoHandler</property>
  <property name="meta.attr.0.stream.vendor_id.markup">[0][0][0][0]</property>
  <property name="meta.attr.0.stream.encoder.markup">Lavc61.5.103 h264_nvenc</property>
  <property name="meta.attr.minor_version.markup">512</property>
  <property name="meta.attr.major_brand.markup">isom</property>
  <property name="meta.attr.compatible_brands.markup">isomiso2avc1mp41</property>
  <property name="meta.attr.videoai.markup">Enhanced using iris-3; mode: auto; revert compression at 0; recover details at 0; sharpen at 0; reduce noise at 0; dehalo at 0; anti-alias/deblur at 0; focus fix Off; and recover original detail at 20. Changed resolution to 3840x2160</property>
  <property name="meta.attr.encoder.markup">Lavf61.3.103</property>
  <property name="meta.media.sample_aspect_num">1</property>
  <property name="meta.media.sample_aspect_den">1</property>
  <property name="meta.media.frame_rate_num">24</property>
  <property name="meta.media.frame_rate_den">1</property>
  <property name="meta.media.colorspace">709</property>
  <property name="meta.media.color_trc">2</property>
  <property name="meta.media.has_b_frames">0</property>
  <property name="meta.media.width">3840</property>
  <property name="meta.media.height">2160</property>
  <property name="meta.media.color_range">mpeg</property>
  <property name="xml">was here</property>
  <property name="meta.media.top_field_first">0</property>
  <property name="meta.media.progressive">1</property>
  <property name="set.test_audio">1</property>
  <property name="set.test_image">0</property>
  <property name="kdenlive:control_uuid">{50f9a4e6-33c6-4400-a886-7a9b8decb923}</property>
 </chain>
 <producer id="producer19" in="00:00:00.000" out="00:00:09.542">
  <property name="length">230</property>
  <property name="eof">pause</property>
  <property name="resource">-1.000000:C:/dev/workspace/indy/dist/room/attic/content/upscale/gargoyle6.mp4</property>
  <property name="aspect_ratio">1</property>
  <property name="meta.media.nb_streams">1</property>
  <property name="meta.media.0.stream.type">video</property>
  <property name="meta.media.0.stream.frame_rate">30</property>
  <property name="meta.media.0.stream.sample_aspect_ratio">1</property>
  <property name="meta.media.0.codec.width">3840</property>
  <property name="meta.media.0.codec.height">2160</property>
  <property name="meta.media.0.codec.rotate">0</property>
  <property name="meta.media.0.codec.pix_fmt">yuv420p</property>
  <property name="meta.media.0.codec.sample_aspect_ratio">1</property>
  <property name="meta.media.0.codec.colorspace">709</property>
  <property name="meta.media.0.codec.name">h264</property>
  <property name="meta.media.0.codec.long_name">H.264 / AVC / MPEG-4 AVC / MPEG-4 part 10</property>
  <property name="meta.media.0.codec.bit_rate">81029266</property>
  <property name="meta.attr.0.stream.handler_name.markup">VideoHandler</property>
  <property name="meta.attr.0.stream.vendor_id.markup">[0][0][0][0]</property>
  <property name="meta.attr.0.stream.encoder.markup">Lavc61.5.103 h264_nvenc</property>
  <property name="meta.attr.minor_version.markup">512</property>
  <property name="meta.attr.major_brand.markup">isom</property>
  <property name="meta.attr.compatible_brands.markup">isomiso2avc1mp41</property>
  <property name="meta.attr.metadata1.markup">Ge3rQAgrOa73m5UkZ1Glu2QrYYt3Hi52lLJcQm2X+rzcgdvjZApkFLREBi+3ZNpxsK7lqrjmUGXVN2qrjMfNmtbb0TIDmNijapREImFqvO8kaEgSS0hVbN4ezQdG0i/TEHHYjISIgy7cq4uHu4JdSInc8rjRWEADYs/5vW55cxViD+Li7RVYoBTAB</property>
  <property name="meta.attr.metadata0.markup">ChtzZWN1cml0eS5rbGluZy5tZXRhX2VuY3J5cHQS8AExZZAjusCwry7MC7rvXIbk1i4ZkZX5nr9Qm6hDlweWxjqKb7lQv7W8Pasilr0zFDu3c1t0JbscTbEkqDzx26Nsf8axXk94OTsc4kPyIys3w+9aR1QfB92z1w+t3TM50dg3dMSpycBztnRKNcUzVjBLc1ULsaqsKSH1wm9QskQll25LQVKdT3+qLwzfMBt7EmPjx7DFxar+0O0VQco56QV</property>
  <property name="meta.attr.videoai.markup">Enhanced using iris-3; mode: auto; revert compression at 0; recover details at 0; sharpen at 0; reduce noise at 0; dehalo at 0; anti-alias/deblur at 0; focus fix Off; and recover original detail at 20. Changed resolution to 3840x2160</property>
  <property name="meta.attr.encoder.markup">Lavf61.3.103</property>
  <property name="seekable">1</property>
  <property name="meta.media.sample_aspect_num">1</property>
  <property name="meta.media.sample_aspect_den">1</property>
  <property name="audio_index">-1</property>
  <property name="video_index">0</property>
  <property name="warp_speed">-1</property>
  <property name="warp_resource">C:/dev/workspace/indy/dist/room/attic/content/upscale/gargoyle6.mp4</property>
  <property name="mlt_service">timewarp</property>
  <property name="kdenlive:proxy">-</property>
  <property name="kdenlive:originalurl">C:/dev/workspace/indy/dist/room/attic/content/upscale/gargoyle6.mp4</property>
  <property name="vstream">0</property>
  <property name="astream">-1</property>
  <property name="set.test_audio">1</property>
  <property name="set.test_image">0</property>
  <property name="kdenlive:id">27</property>
  <property name="warp_pitch">0</property>
  <property name="meta.media.frame_rate_num">30</property>
  <property name="meta.media.frame_rate_den">1</property>
  <property name="meta.media.colorspace">709</property>
  <property name="meta.media.color_trc">2</property>
  <property name="meta.media.has_b_frames">0</property>
  <property name="meta.media.width">3840</property>
  <property name="meta.media.height">2160</property>
  <property name="meta.media.color_range">mpeg</property>
  <property name="meta.media.top_field_first">0</property>
  <property name="meta.media.progressive">1</property>
  <property name="kdenlive:control_uuid">{136ceae5-7790-45bc-a16c-b546da3b2ca4}</property>
  <property name="meta.media.aspect_ratio">1</property>
 </producer>
 <chain id="chain55" out="00:00:05.042">
  <property name="length">122</property>
  <property name="eof">pause</property>
  <property name="resource">C:/dev/workspace/indy/dist/room/attic/content/upscale/attic20.mp4</property>
  <property name="mlt_service">avformat-novalidate</property>
  <property name="seekable">1</property>
  <property name="audio_index">-1</property>
  <property name="video_index">0</property>
  <property name="vstream">0</property>
  <property name="kdenlive:id">36</property>
  <property name="kdenlive:clip_type">2</property>
  <property name="kdenlive:file_size">55580782</property>
  <property name="kdenlive:file_hash">df47a78921d8310cb4ab02b361a56786</property>
  <property name="kdenlive:folderid">-1</property>
  <property name="meta.media.nb_streams">1</property>
  <property name="meta.media.0.stream.type">video</property>
  <property name="meta.media.0.stream.frame_rate">30</property>
  <property name="meta.media.0.stream.sample_aspect_ratio">1</property>
  <property name="meta.media.0.codec.width">3840</property>
  <property name="meta.media.0.codec.height">2160</property>
  <property name="meta.media.0.codec.rotate">0</property>
  <property name="meta.media.0.codec.pix_fmt">yuv420p</property>
  <property name="meta.media.0.codec.sample_aspect_ratio">1</property>
  <property name="meta.media.0.codec.colorspace">709</property>
  <property name="meta.media.0.codec.name">h264</property>
  <property name="meta.media.0.codec.long_name">H.264 / AVC / MPEG-4 AVC / MPEG-4 part 10</property>
  <property name="meta.media.0.codec.bit_rate">87180812</property>
  <property name="meta.attr.0.stream.handler_name.markup">VideoHandler</property>
  <property name="meta.attr.0.stream.vendor_id.markup">[0][0][0][0]</property>
  <property name="meta.attr.0.stream.encoder.markup">Lavc61.5.103 h264_nvenc</property>
  <property name="meta.attr.minor_version.markup">512</property>
  <property name="meta.attr.major_brand.markup">isom</property>
  <property name="meta.attr.compatible_brands.markup">isomiso2avc1mp41</property>
  <property name="meta.attr.metadata1.markup">UWaUAiZJhrdW3VJmoQBhd+97bde4SOc25DqnnUCzWrlOU8YBP6tReU66o2n2MXpkPa/d02C+7jAoG4wiQPYmr5wGy5HZFRtLegklQ0YFcaaIaEivQw0d2bbNADt/QQc1aqHm78iIgweXB+Rvy5QGs352+gca1rw2WYhjcFLt71kfzqmoxdRMoBTAB</property>
  <property name="meta.attr.metadata0.markup">ChtzZWN1cml0eS5rbGluZy5tZXRhX2VuY3J5cHQS8AHo4crEdmuNZhSX5SZwbAatFKOFcb/enCVOyoesAp4ktoTtQf05kZpx5iMZBx+/n7pxMz9uLOrXmJG5UtUzRytSi5k+WAgJlhqFN37cZmvExO8oI/7wV2MXgoc0dsdoI8hgNhqO7QJ1vae4a6NBHZirQyUoIhBVaJ5+CGZAxFWf14cvQsMHpLHpvylyatoUamrRygoUqmwy0lxQRB9Wo3N</property>
  <property name="meta.attr.videoai.markup">Enhanced using iris-3; mode: auto; revert compression at 0; recover details at 0; sharpen at 0; reduce noise at 0; dehalo at 0; anti-alias/deblur at 0; focus fix Off; and recover original detail at 20. Changed resolution to 3840x2160</property>
  <property name="meta.attr.encoder.markup">Lavf61.3.103</property>
  <property name="meta.media.sample_aspect_num">1</property>
  <property name="meta.media.sample_aspect_den">1</property>
  <property name="meta.media.frame_rate_num">30</property>
  <property name="meta.media.frame_rate_den">1</property>
  <property name="meta.media.colorspace">709</property>
  <property name="meta.media.color_trc">2</property>
  <property name="meta.media.has_b_frames">0</property>
  <property name="meta.media.width">3840</property>
  <property name="meta.media.height">2160</property>
  <property name="meta.media.color_range">mpeg</property>
  <property name="xml">was here</property>
  <property name="mute_on_pause">0</property>
  <property name="meta.media.top_field_first">0</property>
  <property name="meta.media.progressive">1</property>
  <property name="set.test_audio">1</property>
  <property name="set.test_image">0</property>
  <property name="kdenlive:control_uuid">{1c5b08fa-5dab-4704-bc54-bc57213f9509}</property>
  <property name="meta.media.aspect_ratio">1</property>
 </chain>
 <playlist id="playlist10">
  <entry in="00:00:00.000" out="00:00:01.958" producer="chain47">
   <property name="kdenlive:id">31</property>
   <property name="kdenlive:activeeffect">3</property>
   <filter id="filter34" in="00:00:01.542" out="00:00:01.958">
    <property name="start">1</property>
    <property name="level">1</property>
    <property name="mlt_service">brightness</property>
    <property name="kdenlive_id">fade_to_black</property>
    <property name="alpha">00:00:00.000=1;00:00:00.417=0</property>
    <property name="kdenlive:collapsed">1</property>
    <property name="disable">1</property>
   </filter>
   <filter id="filter35">
    <property name="filter">frei0r.select0r</property>
    <property name="mlt_service">mask_start</property>
    <property name="kdenlive_id">mask_start-frei0r.select0r</property>
    <property name="filter.Color to select">00:00:00.000=0x0078b4ff</property>
    <property name="filter.Invert selection">0</property>
    <property name="filter.Selection subspace">0</property>
    <property name="filter.Subspace shape">0.5</property>
    <property name="filter.Edge mode">0.9</property>
    <property name="filter.Delta R / A / Hue">0=0.2</property>
    <property name="filter.Delta G / B / Chroma">0=0.2</property>
    <property name="filter.Delta B / I / I">0=0.2</property>
    <property name="filter.Slope">00:00:00.000=0.5</property>
    <property name="filter.Operation">0</property>
    <property name="kdenlive:collapsed">1</property>
   </filter>
   <filter id="filter36">
    <property name="version">0.2</property>
    <property name="mlt_service">frei0r.coloradj_RGB</property>
    <property name="kdenlive_id">frei0r.coloradj_RGB</property>
    <property name="R">00:00:00.000=0.5</property>
    <property name="G">00:00:00.000=0.5</property>
    <property name="B">00:00:00.000=0.4</property>
    <property name="Action">0.5</property>
    <property name="Keep luma">1</property>
    <property name="Alpha controlled">0</property>
    <property name="Luma formula">1</property>
    <property name="kdenlive:collapsed">1</property>
   </filter>
   <filter id="filter37">
    <property name="transition">frei0r.composition</property>
    <property name="mlt_image_format">rgba</property>
    <property name="mlt_service">mask_apply</property>
    <property name="kdenlive_id">mask_apply</property>
    <property name="kdenlive:collapsed">0</property>
    <property name="disable">0</property>
   </filter>
   <filter id="filter38">
    <property name="rotate_center">1</property>
    <property name="mlt_service">qtblend</property>
    <property name="kdenlive_id">qtblend</property>
    <property name="rect">00:00:00.000=0 0 3840 2160 1.000000;00:00:01.583=0 0 3840 2160 1.000000;00:00:01.958=0 0 3840 2160 0.200000</property>
    <property name="rotation">00:00:00.000=0;00:00:01.583=0;00:00:01.958=0</property>
    <property name="compositing">0</property>
    <property name="distort">0</property>
    <property name="kdenlive:collapsed">0</property>
   </filter>
  </entry>
  <blank length="00:00:02.000"/>
  <entry in="00:00:00.000" out="00:00:23.958" producer="producer13">
   <property name="kdenlive:id">7</property>
   <filter id="filter39" out="00:00:00.833">
    <property name="start">1</property>
    <property name="level">1</property>
    <property name="mlt_service">brightness</property>
    <property name="kdenlive_id">fade_from_black</property>
    <property name="alpha">00:00:00.000=0;00:00:00.833=1</property>
    <property name="kdenlive:collapsed">0</property>
   </filter>
  </entry>
  <blank length="00:00:22.333"/>
  <entry in="00:00:00.000" out="00:00:00.625" producer="producer18">
   <property name="kdenlive:id">25</property>
   <filter id="filter40" in="00:00:00.208" out="00:00:00.625">
    <property name="start">1</property>
    <property name="level">1</property>
    <property name="mlt_service">brightness</property>
    <property name="kdenlive_id">fade_to_black</property>
    <property name="alpha">00:00:00.000=1;00:00:00.417=0</property>
    <property name="kdenlive:collapsed">0</property>
    <property name="disable">0</property>
   </filter>
   <filter id="filter41">
    <property name="filter">frei0r.select0r</property>
    <property name="mlt_service">mask_start</property>
    <property name="kdenlive_id">mask_start-frei0r.select0r</property>
    <property name="filter.Color to select">0=0x0078b4ff</property>
    <property name="filter.Invert selection">0</property>
    <property name="filter.Selection subspace">0</property>
    <property name="filter.Subspace shape">0.5</property>
    <property name="filter.Edge mode">0.9</property>
    <property name="filter.Delta R / A / Hue">0=0.2</property>
    <property name="filter.Delta G / B / Chroma">0=0.2</property>
    <property name="filter.Delta B / I / I">0=0.2</property>
    <property name="filter.Slope">0=0.5</property>
    <property name="filter.Operation">0</property>
    <property name="kdenlive:collapsed">1</property>
    <property name="disable">1</property>
   </filter>
   <filter id="filter42">
    <property name="version">0.2</property>
    <property name="mlt_service">frei0r.coloradj_RGB</property>
    <property name="kdenlive_id">frei0r.coloradj_RGB</property>
    <property name="R">00:00:00.000=0.5</property>
    <property name="G">00:00:00.000=0.5</property>
    <property name="B">00:00:00.000=0.4</property>
    <property name="Action">0.5</property>
    <property name="Keep luma">1</property>
    <property name="Alpha controlled">0</property>
    <property name="Luma formula">1</property>
    <property name="kdenlive:collapsed">1</property>
    <property name="disable">1</property>
   </filter>
   <filter id="filter43">
    <property name="transition">frei0r.composition</property>
    <property name="mlt_image_format">rgba</property>
    <property name="mlt_service">mask_apply</property>
    <property name="kdenlive_id">mask_apply</property>
    <property name="kdenlive:collapsed">0</property>
    <property name="disable">1</property>
   </filter>
   <filter id="filter44">
    <property name="rotate_center">1</property>
    <property name="mlt_service">qtblend</property>
    <property name="kdenlive_id">qtblend</property>
    <property name="rect">00:00:00.000=0 0 3840 2160 1.000000;00:00:00.250=0 0 3840 2160 1.000000;00:00:00.625=0 0 3840 2160 0.120000</property>
    <property name="rotation">00:00:00.000=0;00:00:00.250=0;00:00:00.625=0</property>
    <property name="compositing">0</property>
    <property name="distort">0</property>
    <property name="kdenlive:collapsed">0</property>
    <property name="disable">1</property>
   </filter>
  </entry>
  <entry in="00:00:00.000" out="00:00:00.375" producer="chain48">
   <property name="kdenlive:id">6</property>
   <filter id="filter45" in="00:00:-0.042" out="00:00:00.375">
    <property name="start">1</property>
    <property name="level">1</property>
    <property name="mlt_service">brightness</property>
    <property name="kdenlive_id">fade_to_black</property>
    <property name="alpha">00:00:00.000=1;00:00:00.417=0</property>
    <property name="kdenlive:collapsed">0</property>
   </filter>
  </entry>
  <blank length="00:00:08.583"/>
  <entry in="00:00:02.542" out="00:00:05.500" producer="producer19">
   <property name="kdenlive:id">27</property>
   <filter id="filter46">
    <property name="filter">frei0r.select0r</property>
    <property name="mlt_service">mask_start</property>
    <property name="kdenlive_id">mask_start-frei0r.select0r</property>
    <property name="filter.Color to select">61=0x0078b4ff</property>
    <property name="filter.Invert selection">0</property>
    <property name="filter.Selection subspace">0</property>
    <property name="filter.Subspace shape">0.5</property>
    <property name="filter.Edge mode">0.9</property>
    <property name="filter.Delta R / A / Hue">61=0.2</property>
    <property name="filter.Delta G / B / Chroma">61=0.2</property>
    <property name="filter.Delta B / I / I">61=0.2</property>
    <property name="filter.Slope">61=0.5</property>
    <property name="filter.Operation">0</property>
    <property name="kdenlive:collapsed">1</property>
    <property name="disable">1</property>
   </filter>
   <filter id="filter47">
    <property name="version">0.2</property>
    <property name="mlt_service">frei0r.coloradj_RGB</property>
    <property name="kdenlive_id">frei0r.coloradj_RGB</property>
    <property name="R">00:00:02.542=0.5</property>
    <property name="G">00:00:02.542=0.5</property>
    <property name="B">00:00:02.542=0.4</property>
    <property name="Action">0.5</property>
    <property name="Keep luma">1</property>
    <property name="Alpha controlled">0</property>
    <property name="Luma formula">1</property>
    <property name="kdenlive:collapsed">1</property>
    <property name="disable">1</property>
   </filter>
   <filter id="filter48">
    <property name="transition">frei0r.composition</property>
    <property name="mlt_image_format">rgba</property>
    <property name="mlt_service">mask_apply</property>
    <property name="kdenlive_id">mask_apply</property>
    <property name="kdenlive:collapsed">0</property>
    <property name="disable">1</property>
   </filter>
   <filter id="filter49">
    <property name="rotate_center">1</property>
    <property name="mlt_service">qtblend</property>
    <property name="kdenlive_id">qtblend</property>
    <property name="rect">00:00:02.542=0 0 3840 2160 1.000000;00:00:05.500=0 0 3840 2160 1.000000</property>
    <property name="rotation">00:00:02.542=0;00:00:05.500=0</property>
    <property name="compositing">0</property>
    <property name="distort">0</property>
    <property name="kdenlive:collapsed">0</property>
    <property name="disable">1</property>
   </filter>
  </entry>
  <entry in="00:00:01.083" out="00:00:05.042" producer="chain55">
   <property name="kdenlive:id">36</property>
   <filter id="filter50" in="00:00:04.625" out="00:00:05.042">
    <property name="start">1</property>
    <property name="level">1</property>
    <property name="mlt_service">brightness</property>
    <property name="kdenlive_id">fade_to_black</property>
    <property name="alpha">00:00:00.000=1;00:00:00.417=0</property>
    <property name="kdenlive:collapsed">0</property>
   </filter>
  </entry>
 </playlist>
 <playlist id="playlist11"/>
 <tractor id="tractor5" in="00:00:00.000" out="00:01:06.958">
  <property name="kdenlive:trackheight">67</property>
  <property name="kdenlive:timeline_active">1</property>
  <property name="kdenlive:collapsed">0</property>
  <property name="kdenlive:thumbs_format"/>
  <property name="kdenlive:audio_rec"/>
  <track hide="audio" producer="playlist10"/>
  <track hide="audio" producer="playlist11"/>
 </tractor>
 <chain id="chain57" out="00:00:03.958">
  <property name="length">96</property>
  <property name="eof">pause</property>
  <property name="resource">C:/dev/workspace/indy/dist/room/attic/content/upscale/dialog2.mp4</property>
  <property name="mlt_service">avformat-novalidate</property>
  <property name="seekable">1</property>
  <property name="audio_index">-1</property>
  <property name="video_index">0</property>
  <property name="vstream">0</property>
  <property name="kdenlive:id">35</property>
  <property name="kdenlive:clip_type">2</property>
  <property name="kdenlive:file_size">38994338</property>
  <property name="kdenlive:file_hash">00d4ccb4e3f4d5ed5ecbe48a71309de0</property>
  <property name="kdenlive:folderid">-1</property>
  <property name="meta.media.nb_streams">2</property>
  <property name="meta.media.0.stream.type">video</property>
  <property name="meta.media.0.stream.frame_rate">30</property>
  <property name="meta.media.0.stream.sample_aspect_ratio">0</property>
  <property name="meta.media.0.codec.width">1280</property>
  <property name="meta.media.0.codec.height">720</property>
  <property name="meta.media.0.codec.rotate">0</property>
  <property name="meta.media.0.codec.pix_fmt">yuv420p</property>
  <property name="meta.media.0.codec.sample_aspect_ratio">0</property>
  <property name="meta.media.0.codec.colorspace">709</property>
  <property name="meta.media.0.codec.name">h264</property>
  <property name="meta.media.0.codec.long_name">H.264 / AVC / MPEG-4 AVC / MPEG-4 part 10</property>
  <property name="meta.media.0.codec.bit_rate">4449276</property>
  <property name="meta.attr.0.stream.handler_name.markup">VideoHandler</property>
  <property name="meta.attr.0.stream.vendor_id.markup">[0][0][0][0]</property>
  <property name="meta.attr.0.stream.encoder.markup">Lavc61.5.103 h264_nvenc</property>
  <property name="meta.attr.minor_version.markup">512</property>
  <property name="meta.attr.major_brand.markup">isom</property>
  <property name="meta.attr.compatible_brands.markup">isomiso2avc1mp41</property>
  <property name="meta.attr.videoai.markup">Enhanced using iris-3; mode: auto; revert compression at 0; recover details at 0; sharpen at 0; reduce noise at 0; dehalo at 0; anti-alias/deblur at 0; focus fix Off; and recover original detail at 20. Changed resolution to 3840x2160</property>
  <property name="meta.attr.encoder.markup">Lavf61.1.100</property>
  <property name="meta.media.sample_aspect_num">1</property>
  <property name="meta.media.sample_aspect_den">1</property>
  <property name="meta.media.frame_rate_num">30</property>
  <property name="meta.media.frame_rate_den">1</property>
  <property name="meta.media.colorspace">709</property>
  <property name="meta.media.color_trc">2</property>
  <property name="meta.media.has_b_frames">2</property>
  <property name="meta.media.width">1280</property>
  <property name="meta.media.height">720</property>
  <property name="meta.media.color_range">mpeg</property>
  <property name="xml">was here</property>
  <property name="mute_on_pause">0</property>
  <property name="meta.media.top_field_first">0</property>
  <property name="meta.media.progressive">1</property>
  <property name="set.test_audio">1</property>
  <property name="set.test_image">0</property>
  <property name="kdenlive:control_uuid">{862e0f5e-e5cb-4812-9052-8bcf87bd9217}</property>
  <property name="meta.media.1.stream.type">audio</property>
  <property name="meta.media.1.codec.sample_fmt">fltp</property>
  <property name="meta.media.1.codec.sample_rate">48000</property>
  <property name="meta.media.1.codec.channels">2</property>
  <property name="meta.media.1.codec.layout">stereo</property>
  <property name="meta.media.1.codec.name">aac</property>
  <property name="meta.media.1.codec.long_name">AAC (Advanced Audio Coding)</property>
  <property name="meta.media.1.codec.bit_rate">70438</property>
  <property name="meta.attr.1.stream.handler_name.markup">SoundHandler</property>
  <property name="meta.attr.1.stream.vendor_id.markup">[0][0][0][0]</property>
  <property name="meta.media.aspect_ratio">1</property>
  <property name="astream">-1</property>
 </chain>
 <playlist id="playlist12">
  <blank length="00:01:03.000"/>
  <entry in="00:00:00.000" out="00:00:02.417" producer="chain57">
   <property name="kdenlive:id">35</property>
   <property name="kdenlive:activeeffect">2</property>
   <filter id="filter51">
    <property name="filter">frei0r.select0r</property>
    <property name="mlt_service">mask_start</property>
    <property name="kdenlive_id">mask_start-frei0r.select0r</property>
    <property name="filter.Color to select">00:00:00.000=0x0078b4ff</property>
    <property name="filter.Invert selection">0</property>
    <property name="filter.Selection subspace">0</property>
    <property name="filter.Subspace shape">0.5</property>
    <property name="filter.Edge mode">0.9</property>
    <property name="filter.Delta R / A / Hue">00:00:00.000=0.2</property>
    <property name="filter.Delta G / B / Chroma">00:00:00.000=0.2</property>
    <property name="filter.Delta B / I / I">00:00:00.000=0.2</property>
    <property name="filter.Slope">00:00:00.000=0.5</property>
    <property name="filter.Operation">0</property>
    <property name="kdenlive:collapsed">1</property>
   </filter>
   <filter id="filter52">
    <property name="version">0.2</property>
    <property name="mlt_service">frei0r.coloradj_RGB</property>
    <property name="kdenlive_id">frei0r.coloradj_RGB</property>
    <property name="R">00:00:00.000=0.5</property>
    <property name="G">00:00:00.000=0.5</property>
    <property name="B">00:00:00.000=0.4</property>
    <property name="Action">0.5</property>
    <property name="Keep luma">1</property>
    <property name="Alpha controlled">0</property>
    <property name="Luma formula">1</property>
    <property name="kdenlive:collapsed">1</property>
   </filter>
   <filter id="filter53">
    <property name="transition">frei0r.composition</property>
    <property name="mlt_image_format">rgba</property>
    <property name="mlt_service">mask_apply</property>
    <property name="kdenlive_id">mask_apply</property>
    <property name="kdenlive:collapsed">0</property>
   </filter>
  </entry>
 </playlist>
 <playlist id="playlist13"/>
 <tractor id="tractor6" in="00:00:00.000" out="00:01:05.417">
  <property name="kdenlive:trackheight">67</property>
  <property name="kdenlive:timeline_active">1</property>
  <property name="kdenlive:collapsed">0</property>
  <property name="kdenlive:thumbs_format"/>
  <property name="kdenlive:audio_rec"/>
  <track hide="audio" producer="playlist12"/>
  <track hide="audio" producer="playlist13"/>
 </tractor>
 <playlist id="playlist14"/>
 <playlist id="playlist15"/>
 <tractor id="tractor7" in="00:00:00.000">
  <property name="kdenlive:trackheight">67</property>
  <property name="kdenlive:timeline_active">1</property>
  <property name="kdenlive:collapsed">0</property>
  <property name="kdenlive:thumbs_format"/>
  <property name="kdenlive:audio_rec"/>
  <track hide="audio" producer="playlist14"/>
  <track hide="audio" producer="playlist15"/>
 </tractor>
 <tractor id="tractor8" in="00:00:00.000" out="00:06:07.000">
  <property name="kdenlive:duration">00:01:07:00</property>
  <property name="kdenlive:maxduration">1608</property>
  <property name="kdenlive:clipname">Sequence 1</property>
  <property name="kdenlive:description"/>
  <property name="kdenlive:uuid">{93e8ea12-7463-4eeb-8744-610d14ce039d}</property>
  <property name="kdenlive:producer_type">17</property>
  <property name="kdenlive:control_uuid">{92d9071f-9093-437a-ad22-b7990e83e6cd}</property>
  <property name="kdenlive:id">3</property>
  <property name="kdenlive:clip_type">0</property>
  <property name="kdenlive:file_hash">de8be21a8dc488ff53e8d702e1fb8efe</property>
  <property name="kdenlive:folderid">2</property>
  <property name="kdenlive:sequenceproperties.activeTrack">4</property>
  <property name="kdenlive:sequenceproperties.audioTarget">1</property>
  <property name="kdenlive:sequenceproperties.disablepreview">0</property>
  <property name="kdenlive:sequenceproperties.documentuuid">{93e8ea12-7463-4eeb-8744-610d14ce039d}</property>
  <property name="kdenlive:sequenceproperties.globalSubtitleStyles">[
]
</property>
  <property name="kdenlive:sequenceproperties.hasAudio">1</property>
  <property name="kdenlive:sequenceproperties.hasVideo">1</property>
  <property name="kdenlive:sequenceproperties.hidesubtitle">0</property>
  <property name="kdenlive:sequenceproperties.position">1565</property>
  <property name="kdenlive:sequenceproperties.scrollPos">3604</property>
  <property name="kdenlive:sequenceproperties.subtitlesList">[
    {
        "file": "C:/dev/workspace/indy/dist/room/attic/data/attic2.kdenlive.ass",
        "id": 0,
        "name": "Subtitles"
    }
]
</property>
  <property name="kdenlive:sequenceproperties.tracks">4</property>
  <property name="kdenlive:sequenceproperties.tracksCount">8</property>
  <property name="kdenlive:sequenceproperties.verticalzoom">1</property>
  <property name="kdenlive:sequenceproperties.videoTarget">2</property>
  <property name="kdenlive:sequenceproperties.zonein">0</property>
  <property name="kdenlive:sequenceproperties.zoneout">163</property>
  <property name="kdenlive:sequenceproperties.zoom">4</property>
  <property name="kdenlive:sequenceproperties.groups">[
]
</property>
  <property name="kdenlive:sequenceproperties.guides">[
]
</property>
  <track producer="producer0"/>
  <track producer="tractor0"/>
  <track producer="tractor1"/>
  <track producer="tractor2"/>
  <track producer="tractor3"/>
  <track producer="tractor4"/>
  <track producer="tractor5"/>
  <track producer="tractor6"/>
  <track producer="tractor7"/>
  <transition id="transition0">
   <property name="a_track">0</property>
   <property name="b_track">1</property>
   <property name="mlt_service">mix</property>
   <property name="kdenlive_id">mix</property>
   <property name="internal_added">237</property>
   <property name="always_active">1</property>
   <property name="accepts_blanks">1</property>
   <property name="sum">1</property>
  </transition>
  <transition id="transition1">
   <property name="a_track">0</property>
   <property name="b_track">2</property>
   <property name="mlt_service">mix</property>
   <property name="kdenlive_id">mix</property>
   <property name="internal_added">237</property>
   <property name="always_active">1</property>
   <property name="accepts_blanks">1</property>
   <property name="sum">1</property>
  </transition>
  <transition id="transition2">
   <property name="a_track">0</property>
   <property name="b_track">3</property>
   <property name="compositing">0</property>
   <property name="distort">0</property>
   <property name="rotate_center">0</property>
   <property name="mlt_service">qtblend</property>
   <property name="kdenlive_id">qtblend</property>
   <property name="internal_added">237</property>
   <property name="always_active">1</property>
  </transition>
  <transition id="transition3">
   <property name="a_track">0</property>
   <property name="b_track">4</property>
   <property name="compositing">0</property>
   <property name="distort">0</property>
   <property name="rotate_center">0</property>
   <property name="mlt_service">qtblend</property>
   <property name="kdenlive_id">qtblend</property>
   <property name="internal_added">237</property>
   <property name="always_active">1</property>
  </transition>
  <transition id="transition4">
   <property name="a_track">0</property>
   <property name="b_track">5</property>
   <property name="compositing">0</property>
   <property name="distort">0</property>
   <property name="rotate_center">0</property>
   <property name="mlt_service">qtblend</property>
   <property name="kdenlive_id">qtblend</property>
   <property name="internal_added">237</property>
   <property name="always_active">1</property>
  </transition>
  <transition id="transition5">
   <property name="a_track">0</property>
   <property name="b_track">6</property>
   <property name="compositing">0</property>
   <property name="distort">0</property>
   <property name="rotate_center">0</property>
   <property name="mlt_service">qtblend</property>
   <property name="kdenlive_id">qtblend</property>
   <property name="internal_added">237</property>
   <property name="always_active">1</property>
  </transition>
  <transition id="transition6">
   <property name="a_track">0</property>
   <property name="b_track">7</property>
   <property name="compositing">0</property>
   <property name="distort">0</property>
   <property name="rotate_center">0</property>
   <property name="mlt_service">qtblend</property>
   <property name="kdenlive_id">qtblend</property>
   <property name="internal_added">237</property>
   <property name="always_active">1</property>
  </transition>
  <transition id="transition7">
   <property name="a_track">0</property>
   <property name="b_track">8</property>
   <property name="compositing">0</property>
   <property name="distort">0</property>
   <property name="rotate_center">0</property>
   <property name="mlt_service">qtblend</property>
   <property name="kdenlive_id">qtblend</property>
   <property name="internal_added">237</property>
   <property name="always_active">1</property>
  </transition>
  <filter id="filter54">
   <property name="window">75</property>
   <property name="max_gain">20dB</property>
   <property name="mlt_service">volume</property>
   <property name="internal_added">237</property>
   <property name="disable">1</property>
  </filter>
  <filter id="filter55">
   <property name="channel">-1</property>
   <property name="mlt_service">panner</property>
   <property name="internal_added">237</property>
   <property name="start">0.5</property>
   <property name="disable">1</property>
  </filter>
 </tractor>
 <playlist id="main_bin">
  <property name="kdenlive:folder.-1.2">Sequences</property>
  <property name="kdenlive:docproperties.activetimeline">{93e8ea12-7463-4eeb-8744-610d14ce039d}</property>
  <property name="kdenlive:docproperties.audioChannels">2</property>
  <property name="kdenlive:docproperties.binsort">0</property>
  <property name="kdenlive:docproperties.browserurl">C:/Users/barnaud/Videos/</property>
  <property name="kdenlive:docproperties.compositing">1</property>
  <property name="kdenlive:docproperties.documentid">1706889826898</property>
  <property name="kdenlive:docproperties.enableTimelineZone">0</property>
  <property name="kdenlive:docproperties.enableexternalproxy">0</property>
  <property name="kdenlive:docproperties.enableproxy">0</property>
  <property name="kdenlive:docproperties.externalproxyparams"/>
  <property name="kdenlive:docproperties.generateimageproxy">0</property>
  <property name="kdenlive:docproperties.generateproxy">0</property>
  <property name="kdenlive:docproperties.guidesCategories">[&#xd;&#xd;&#xd;&#xd;&#xd;&#xd;&#xd;&#xd;&#xd;&#xd;&#xd;&#xd;&#xd;&#xd;&#xd;&#xd;&#xd;&#xd;&#xd;&#xd;&#xd;&#xd;&#xd;&#xd;&#xd;&#xd;&#xd;&#xd;&#xd;&#xd;&#xd;&#xd;&#xd;&#xd;
    {&#xd;&#xd;&#xd;&#xd;&#xd;&#xd;&#xd;&#xd;&#xd;&#xd;&#xd;&#xd;&#xd;&#xd;&#xd;&#xd;&#xd;&#xd;&#xd;&#xd;&#xd;&#xd;&#xd;&#xd;&#xd;&#xd;&#xd;&#xd;&#xd;&#xd;&#xd;&#xd;&#xd;&#xd;
        "color": "#9b59b6",&#xd;&#xd;&#xd;&#xd;&#xd;&#xd;&#xd;&#xd;&#xd;&#xd;&#xd;&#xd;&#xd;&#xd;&#xd;&#xd;&#xd;&#xd;&#xd;&#xd;&#xd;&#xd;&#xd;&#xd;&#xd;&#xd;&#xd;&#xd;&#xd;&#xd;&#xd;&#xd;&#xd;&#xd;
        "comment": "Category 1",&#xd;&#xd;&#xd;&#xd;&#xd;&#xd;&#xd;&#xd;&#xd;&#xd;&#xd;&#xd;&#xd;&#xd;&#xd;&#xd;&#xd;&#xd;&#xd;&#xd;&#xd;&#xd;&#xd;&#xd;&#xd;&#xd;&#xd;&#xd;&#xd;&#xd;&#xd;&#xd;&#xd;&#xd;
        "index": 0&#xd;&#xd;&#xd;&#xd;&#xd;&#xd;&#xd;&#xd;&#xd;&#xd;&#xd;&#xd;&#xd;&#xd;&#xd;&#xd;&#xd;&#xd;&#xd;&#xd;&#xd;&#xd;&#xd;&#xd;&#xd;&#xd;&#xd;&#xd;&#xd;&#xd;&#xd;&#xd;&#xd;&#xd;
    },&#xd;&#xd;&#xd;&#xd;&#xd;&#xd;&#xd;&#xd;&#xd;&#xd;&#xd;&#xd;&#xd;&#xd;&#xd;&#xd;&#xd;&#xd;&#xd;&#xd;&#xd;&#xd;&#xd;&#xd;&#xd;&#xd;&#xd;&#xd;&#xd;&#xd;&#xd;&#xd;&#xd;&#xd;
    {&#xd;&#xd;&#xd;&#xd;&#xd;&#xd;&#xd;&#xd;&#xd;&#xd;&#xd;&#xd;&#xd;&#xd;&#xd;&#xd;&#xd;&#xd;&#xd;&#xd;&#xd;&#xd;&#xd;&#xd;&#xd;&#xd;&#xd;&#xd;&#xd;&#xd;&#xd;&#xd;&#xd;&#xd;
        "color": "#3daee9",&#xd;&#xd;&#xd;&#xd;&#xd;&#xd;&#xd;&#xd;&#xd;&#xd;&#xd;&#xd;&#xd;&#xd;&#xd;&#xd;&#xd;&#xd;&#xd;&#xd;&#xd;&#xd;&#xd;&#xd;&#xd;&#xd;&#xd;&#xd;&#xd;&#xd;&#xd;&#xd;&#xd;&#xd;
        "comment": "Category 2",&#xd;&#xd;&#xd;&#xd;&#xd;&#xd;&#xd;&#xd;&#xd;&#xd;&#xd;&#xd;&#xd;&#xd;&#xd;&#xd;&#xd;&#xd;&#xd;&#xd;&#xd;&#xd;&#xd;&#xd;&#xd;&#xd;&#xd;&#xd;&#xd;&#xd;&#xd;&#xd;&#xd;&#xd;
        "index": 1&#xd;&#xd;&#xd;&#xd;&#xd;&#xd;&#xd;&#xd;&#xd;&#xd;&#xd;&#xd;&#xd;&#xd;&#xd;&#xd;&#xd;&#xd;&#xd;&#xd;&#xd;&#xd;&#xd;&#xd;&#xd;&#xd;&#xd;&#xd;&#xd;&#xd;&#xd;&#xd;&#xd;&#xd;
    },&#xd;&#xd;&#xd;&#xd;&#xd;&#xd;&#xd;&#xd;&#xd;&#xd;&#xd;&#xd;&#xd;&#xd;&#xd;&#xd;&#xd;&#xd;&#xd;&#xd;&#xd;&#xd;&#xd;&#xd;&#xd;&#xd;&#xd;&#xd;&#xd;&#xd;&#xd;&#xd;&#xd;&#xd;
    {&#xd;&#xd;&#xd;&#xd;&#xd;&#xd;&#xd;&#xd;&#xd;&#xd;&#xd;&#xd;&#xd;&#xd;&#xd;&#xd;&#xd;&#xd;&#xd;&#xd;&#xd;&#xd;&#xd;&#xd;&#xd;&#xd;&#xd;&#xd;&#xd;&#xd;&#xd;&#xd;&#xd;&#xd;
        "color": "#1abc9c",&#xd;&#xd;&#xd;&#xd;&#xd;&#xd;&#xd;&#xd;&#xd;&#xd;&#xd;&#xd;&#xd;&#xd;&#xd;&#xd;&#xd;&#xd;&#xd;&#xd;&#xd;&#xd;&#xd;&#xd;&#xd;&#xd;&#xd;&#xd;&#xd;&#xd;&#xd;&#xd;&#xd;&#xd;
        "comment": "Category 3",&#xd;&#xd;&#xd;&#xd;&#xd;&#xd;&#xd;&#xd;&#xd;&#xd;&#xd;&#xd;&#xd;&#xd;&#xd;&#xd;&#xd;&#xd;&#xd;&#xd;&#xd;&#xd;&#xd;&#xd;&#xd;&#xd;&#xd;&#xd;&#xd;&#xd;&#xd;&#xd;&#xd;&#xd;
        "index": 2&#xd;&#xd;&#xd;&#xd;&#xd;&#xd;&#xd;&#xd;&#xd;&#xd;&#xd;&#xd;&#xd;&#xd;&#xd;&#xd;&#xd;&#xd;&#xd;&#xd;&#xd;&#xd;&#xd;&#xd;&#xd;&#xd;&#xd;&#xd;&#xd;&#xd;&#xd;&#xd;&#xd;&#xd;
    },&#xd;&#xd;&#xd;&#xd;&#xd;&#xd;&#xd;&#xd;&#xd;&#xd;&#xd;&#xd;&#xd;&#xd;&#xd;&#xd;&#xd;&#xd;&#xd;&#xd;&#xd;&#xd;&#xd;&#xd;&#xd;&#xd;&#xd;&#xd;&#xd;&#xd;&#xd;&#xd;&#xd;&#xd;
    {&#xd;&#xd;&#xd;&#xd;&#xd;&#xd;&#xd;&#xd;&#xd;&#xd;&#xd;&#xd;&#xd;&#xd;&#xd;&#xd;&#xd;&#xd;&#xd;&#xd;&#xd;&#xd;&#xd;&#xd;&#xd;&#xd;&#xd;&#xd;&#xd;&#xd;&#xd;&#xd;&#xd;&#xd;
        "color": "#1cdc9a",&#xd;&#xd;&#xd;&#xd;&#xd;&#xd;&#xd;&#xd;&#xd;&#xd;&#xd;&#xd;&#xd;&#xd;&#xd;&#xd;&#xd;&#xd;&#xd;&#xd;&#xd;&#xd;&#xd;&#xd;&#xd;&#xd;&#xd;&#xd;&#xd;&#xd;&#xd;&#xd;&#xd;&#xd;
        "comment": "Category 4",&#xd;&#xd;&#xd;&#xd;&#xd;&#xd;&#xd;&#xd;&#xd;&#xd;&#xd;&#xd;&#xd;&#xd;&#xd;&#xd;&#xd;&#xd;&#xd;&#xd;&#xd;&#xd;&#xd;&#xd;&#xd;&#xd;&#xd;&#xd;&#xd;&#xd;&#xd;&#xd;&#xd;&#xd;
        "index": 3&#xd;&#xd;&#xd;&#xd;&#xd;&#xd;&#xd;&#xd;&#xd;&#xd;&#xd;&#xd;&#xd;&#xd;&#xd;&#xd;&#xd;&#xd;&#xd;&#xd;&#xd;&#xd;&#xd;&#xd;&#xd;&#xd;&#xd;&#xd;&#xd;&#xd;&#xd;&#xd;&#xd;&#xd;
    },&#xd;&#xd;&#xd;&#xd;&#xd;&#xd;&#xd;&#xd;&#xd;&#xd;&#xd;&#xd;&#xd;&#xd;&#xd;&#xd;&#xd;&#xd;&#xd;&#xd;&#xd;&#xd;&#xd;&#xd;&#xd;&#xd;&#xd;&#xd;&#xd;&#xd;&#xd;&#xd;&#xd;&#xd;
    {&#xd;&#xd;&#xd;&#xd;&#xd;&#xd;&#xd;&#xd;&#xd;&#xd;&#xd;&#xd;&#xd;&#xd;&#xd;&#xd;&#xd;&#xd;&#xd;&#xd;&#xd;&#xd;&#xd;&#xd;&#xd;&#xd;&#xd;&#xd;&#xd;&#xd;&#xd;&#xd;&#xd;&#xd;
        "color": "#c9ce3b",&#xd;&#xd;&#xd;&#xd;&#xd;&#xd;&#xd;&#xd;&#xd;&#xd;&#xd;&#xd;&#xd;&#xd;&#xd;&#xd;&#xd;&#xd;&#xd;&#xd;&#xd;&#xd;&#xd;&#xd;&#xd;&#xd;&#xd;&#xd;&#xd;&#xd;&#xd;&#xd;&#xd;&#xd;
        "comment": "Category 5",&#xd;&#xd;&#xd;&#xd;&#xd;&#xd;&#xd;&#xd;&#xd;&#xd;&#xd;&#xd;&#xd;&#xd;&#xd;&#xd;&#xd;&#xd;&#xd;&#xd;&#xd;&#xd;&#xd;&#xd;&#xd;&#xd;&#xd;&#xd;&#xd;&#xd;&#xd;&#xd;&#xd;&#xd;
        "index": 4&#xd;&#xd;&#xd;&#xd;&#xd;&#xd;&#xd;&#xd;&#xd;&#xd;&#xd;&#xd;&#xd;&#xd;&#xd;&#xd;&#xd;&#xd;&#xd;&#xd;&#xd;&#xd;&#xd;&#xd;&#xd;&#xd;&#xd;&#xd;&#xd;&#xd;&#xd;&#xd;&#xd;&#xd;
    },&#xd;&#xd;&#xd;&#xd;&#xd;&#xd;&#xd;&#xd;&#xd;&#xd;&#xd;&#xd;&#xd;&#xd;&#xd;&#xd;&#xd;&#xd;&#xd;&#xd;&#xd;&#xd;&#xd;&#xd;&#xd;&#xd;&#xd;&#xd;&#xd;&#xd;&#xd;&#xd;&#xd;&#xd;
    {&#xd;&#xd;&#xd;&#xd;&#xd;&#xd;&#xd;&#xd;&#xd;&#xd;&#xd;&#xd;&#xd;&#xd;&#xd;&#xd;&#xd;&#xd;&#xd;&#xd;&#xd;&#xd;&#xd;&#xd;&#xd;&#xd;&#xd;&#xd;&#xd;&#xd;&#xd;&#xd;&#xd;&#xd;
        "color": "#fdbc4b",&#xd;&#xd;&#xd;&#xd;&#xd;&#xd;&#xd;&#xd;&#xd;&#xd;&#xd;&#xd;&#xd;&#xd;&#xd;&#xd;&#xd;&#xd;&#xd;&#xd;&#xd;&#xd;&#xd;&#xd;&#xd;&#xd;&#xd;&#xd;&#xd;&#xd;&#xd;&#xd;&#xd;&#xd;
        "comment": "Category 6",&#xd;&#xd;&#xd;&#xd;&#xd;&#xd;&#xd;&#xd;&#xd;&#xd;&#xd;&#xd;&#xd;&#xd;&#xd;&#xd;&#xd;&#xd;&#xd;&#xd;&#xd;&#xd;&#xd;&#xd;&#xd;&#xd;&#xd;&#xd;&#xd;&#xd;&#xd;&#xd;&#xd;&#xd;
        "index": 5&#xd;&#xd;&#xd;&#xd;&#xd;&#xd;&#xd;&#xd;&#xd;&#xd;&#xd;&#xd;&#xd;&#xd;&#xd;&#xd;&#xd;&#xd;&#xd;&#xd;&#xd;&#xd;&#xd;&#xd;&#xd;&#xd;&#xd;&#xd;&#xd;&#xd;&#xd;&#xd;&#xd;&#xd;
    },&#xd;&#xd;&#xd;&#xd;&#xd;&#xd;&#xd;&#xd;&#xd;&#xd;&#xd;&#xd;&#xd;&#xd;&#xd;&#xd;&#xd;&#xd;&#xd;&#xd;&#xd;&#xd;&#xd;&#xd;&#xd;&#xd;&#xd;&#xd;&#xd;&#xd;&#xd;&#xd;&#xd;&#xd;
    {&#xd;&#xd;&#xd;&#xd;&#xd;&#xd;&#xd;&#xd;&#xd;&#xd;&#xd;&#xd;&#xd;&#xd;&#xd;&#xd;&#xd;&#xd;&#xd;&#xd;&#xd;&#xd;&#xd;&#xd;&#xd;&#xd;&#xd;&#xd;&#xd;&#xd;&#xd;&#xd;&#xd;&#xd;
        "color": "#f39c1f",&#xd;&#xd;&#xd;&#xd;&#xd;&#xd;&#xd;&#xd;&#xd;&#xd;&#xd;&#xd;&#xd;&#xd;&#xd;&#xd;&#xd;&#xd;&#xd;&#xd;&#xd;&#xd;&#xd;&#xd;&#xd;&#xd;&#xd;&#xd;&#xd;&#xd;&#xd;&#xd;&#xd;&#xd;
        "comment": "Category 7",&#xd;&#xd;&#xd;&#xd;&#xd;&#xd;&#xd;&#xd;&#xd;&#xd;&#xd;&#xd;&#xd;&#xd;&#xd;&#xd;&#xd;&#xd;&#xd;&#xd;&#xd;&#xd;&#xd;&#xd;&#xd;&#xd;&#xd;&#xd;&#xd;&#xd;&#xd;&#xd;&#xd;&#xd;
        "index": 6&#xd;&#xd;&#xd;&#xd;&#xd;&#xd;&#xd;&#xd;&#xd;&#xd;&#xd;&#xd;&#xd;&#xd;&#xd;&#xd;&#xd;&#xd;&#xd;&#xd;&#xd;&#xd;&#xd;&#xd;&#xd;&#xd;&#xd;&#xd;&#xd;&#xd;&#xd;&#xd;&#xd;&#xd;
    },&#xd;&#xd;&#xd;&#xd;&#xd;&#xd;&#xd;&#xd;&#xd;&#xd;&#xd;&#xd;&#xd;&#xd;&#xd;&#xd;&#xd;&#xd;&#xd;&#xd;&#xd;&#xd;&#xd;&#xd;&#xd;&#xd;&#xd;&#xd;&#xd;&#xd;&#xd;&#xd;&#xd;&#xd;
    {&#xd;&#xd;&#xd;&#xd;&#xd;&#xd;&#xd;&#xd;&#xd;&#xd;&#xd;&#xd;&#xd;&#xd;&#xd;&#xd;&#xd;&#xd;&#xd;&#xd;&#xd;&#xd;&#xd;&#xd;&#xd;&#xd;&#xd;&#xd;&#xd;&#xd;&#xd;&#xd;&#xd;&#xd;
        "color": "#f47750",&#xd;&#xd;&#xd;&#xd;&#xd;&#xd;&#xd;&#xd;&#xd;&#xd;&#xd;&#xd;&#xd;&#xd;&#xd;&#xd;&#xd;&#xd;&#xd;&#xd;&#xd;&#xd;&#xd;&#xd;&#xd;&#xd;&#xd;&#xd;&#xd;&#xd;&#xd;&#xd;&#xd;&#xd;
        "comment": "Category 8",&#xd;&#xd;&#xd;&#xd;&#xd;&#xd;&#xd;&#xd;&#xd;&#xd;&#xd;&#xd;&#xd;&#xd;&#xd;&#xd;&#xd;&#xd;&#xd;&#xd;&#xd;&#xd;&#xd;&#xd;&#xd;&#xd;&#xd;&#xd;&#xd;&#xd;&#xd;&#xd;&#xd;&#xd;
        "index": 7&#xd;&#xd;&#xd;&#xd;&#xd;&#xd;&#xd;&#xd;&#xd;&#xd;&#xd;&#xd;&#xd;&#xd;&#xd;&#xd;&#xd;&#xd;&#xd;&#xd;&#xd;&#xd;&#xd;&#xd;&#xd;&#xd;&#xd;&#xd;&#xd;&#xd;&#xd;&#xd;&#xd;&#xd;
    },&#xd;&#xd;&#xd;&#xd;&#xd;&#xd;&#xd;&#xd;&#xd;&#xd;&#xd;&#xd;&#xd;&#xd;&#xd;&#xd;&#xd;&#xd;&#xd;&#xd;&#xd;&#xd;&#xd;&#xd;&#xd;&#xd;&#xd;&#xd;&#xd;&#xd;&#xd;&#xd;&#xd;&#xd;
    {&#xd;&#xd;&#xd;&#xd;&#xd;&#xd;&#xd;&#xd;&#xd;&#xd;&#xd;&#xd;&#xd;&#xd;&#xd;&#xd;&#xd;&#xd;&#xd;&#xd;&#xd;&#xd;&#xd;&#xd;&#xd;&#xd;&#xd;&#xd;&#xd;&#xd;&#xd;&#xd;&#xd;&#xd;
        "color": "#da4453",&#xd;&#xd;&#xd;&#xd;&#xd;&#xd;&#xd;&#xd;&#xd;&#xd;&#xd;&#xd;&#xd;&#xd;&#xd;&#xd;&#xd;&#xd;&#xd;&#xd;&#xd;&#xd;&#xd;&#xd;&#xd;&#xd;&#xd;&#xd;&#xd;&#xd;&#xd;&#xd;&#xd;&#xd;
        "comment": "Category 9",&#xd;&#xd;&#xd;&#xd;&#xd;&#xd;&#xd;&#xd;&#xd;&#xd;&#xd;&#xd;&#xd;&#xd;&#xd;&#xd;&#xd;&#xd;&#xd;&#xd;&#xd;&#xd;&#xd;&#xd;&#xd;&#xd;&#xd;&#xd;&#xd;&#xd;&#xd;&#xd;&#xd;&#xd;
        "index": 8&#xd;&#xd;&#xd;&#xd;&#xd;&#xd;&#xd;&#xd;&#xd;&#xd;&#xd;&#xd;&#xd;&#xd;&#xd;&#xd;&#xd;&#xd;&#xd;&#xd;&#xd;&#xd;&#xd;&#xd;&#xd;&#xd;&#xd;&#xd;&#xd;&#xd;&#xd;&#xd;&#xd;&#xd;
    }&#xd;&#xd;&#xd;&#xd;&#xd;&#xd;&#xd;&#xd;&#xd;&#xd;&#xd;&#xd;&#xd;&#xd;&#xd;&#xd;&#xd;&#xd;&#xd;&#xd;&#xd;&#xd;&#xd;&#xd;&#xd;&#xd;&#xd;&#xd;&#xd;&#xd;&#xd;&#xd;&#xd;&#xd;
]&#xd;&#xd;&#xd;&#xd;&#xd;&#xd;&#xd;&#xd;&#xd;&#xd;&#xd;&#xd;&#xd;&#xd;&#xd;&#xd;&#xd;&#xd;&#xd;&#xd;&#xd;&#xd;&#xd;&#xd;&#xd;&#xd;&#xd;&#xd;&#xd;&#xd;&#xd;&#xd;&#xd;&#xd;
</property>
  <property name="kdenlive:docproperties.kdenliveversion">25.04.1</property>
  <property name="kdenlive:docproperties.opensequences">{93e8ea12-7463-4eeb-8744-610d14ce039d}</property>
  <property name="kdenlive:docproperties.previewextension"/>
  <property name="kdenlive:docproperties.previewparameters"/>
  <property name="kdenlive:docproperties.profile">uhd_2160p_24</property>
  <property name="kdenlive:docproperties.proxyextension"/>
  <property name="kdenlive:docproperties.proxyimageminsize">2000</property>
  <property name="kdenlive:docproperties.proxyimagesize">800</property>
  <property name="kdenlive:docproperties.proxyminsize">1000</property>
  <property name="kdenlive:docproperties.proxyparams"/>
  <property name="kdenlive:docproperties.proxyresize">640</property>
  <property name="kdenlive:docproperties.rendercategory">Generic (HD for web, mobile devices...)</property>
  <property name="kdenlive:docproperties.rendercustomquality">-1</property>
  <property name="kdenlive:docproperties.renderendguide">-1</property>
  <property name="kdenlive:docproperties.renderexportaudio">0</property>
  <property name="kdenlive:docproperties.renderfullcolorrange">0</property>
  <property name="kdenlive:docproperties.rendermode">0</property>
  <property name="kdenlive:docproperties.renderplay">0</property>
  <property name="kdenlive:docproperties.renderpreview">0</property>
  <property name="kdenlive:docproperties.renderprofile">MP4-H264/AAC</property>
  <property name="kdenlive:docproperties.renderrescale">0</property>
  <property name="kdenlive:docproperties.renderrescaleheight">768</property>
  <property name="kdenlive:docproperties.renderrescalewidth">1365</property>
  <property name="kdenlive:docproperties.renderspeed">6</property>
  <property name="kdenlive:docproperties.renderstartguide">-1</property>
  <property name="kdenlive:docproperties.rendertcoverlay">0</property>
  <property name="kdenlive:docproperties.rendertctype">-1</property>
  <property name="kdenlive:docproperties.rendertwopass">0</property>
  <property name="kdenlive:docproperties.renderurl">C:/dev/workspace/indy/deploy/attic2.mp4</property>
  <property name="kdenlive:docproperties.seekOffset">30000</property>
  <property name="kdenlive:docproperties.sessionid">{a2143fab-840a-40fe-85d5-05fd20785ce5}</property>
  <property name="kdenlive:docproperties.uuid">{93e8ea12-7463-4eeb-8744-610d14ce039d}</property>
  <property name="kdenlive:docproperties.version">1.1</property>
  <property name="kdenlive:expandedFolders"/>
  <property name="kdenlive:binZoom">4</property>
  <property name="kdenlive:extraBins">project_bin:-1:0</property>
  <property name="kdenlive:documentnotes"/>
  <property name="kdenlive:documentnotesversion">2</property>
  <property name="xml_retain">1</property>
  <entry in="00:00:00.000" out="00:00:03.958" producer="chain39"/>
  <entry in="00:00:00.000" out="00:00:03.958" producer="chain40"/>
  <entry in="00:00:00.000" out="00:00:03.958" producer="chain38"/>
  <entry in="00:00:00.000" out="00:00:26.125" producer="producer13"/>
  <entry in="00:00:00.000" out="00:00:03.958" producer="chain41"/>
  <entry in="00:00:00.000" out="00:00:03.958" producer="chain36"/>
  <entry in="00:00:00.000" out="00:00:03.958" producer="chain19"/>
  <entry in="00:00:00.000" out="00:00:03.958" producer="chain20"/>
  <entry in="00:00:00.000" out="00:00:03.958" producer="chain22"/>
  <entry in="00:00:00.000" out="00:00:03.958" producer="chain23"/>
  <entry in="00:00:00.000" out="00:12:00.000" producer="chain21"/>
  <entry in="00:00:00.000" out="00:00:03.958" producer="chain25"/>
  <entry in="00:00:00.000" out="00:00:03.958" producer="chain24"/>
  <entry in="00:00:00.000" out="00:00:03.958" producer="chain27"/>
  <entry in="00:00:00.000" out="00:00:03.958" producer="chain33"/>
  <entry in="00:00:00.000" out="00:00:02.083" producer="chain26"/>
  <entry in="00:00:00.000" out="00:00:03.333" producer="chain28"/>
  <entry in="00:00:00.000" out="00:00:04.208" producer="chain29"/>
  <entry in="00:00:00.000" out="00:00:03.083" producer="chain31"/>
  <entry in="00:00:00.000" out="00:00:04.333" producer="chain30"/>
  <entry in="00:00:00.000" out="00:00:02.083" producer="chain32"/>
  <entry in="00:00:00.000" out="00:00:05.042" producer="chain34"/>
  <entry in="00:00:00.000" out="00:00:05.042" producer="chain35"/>
  <entry in="00:00:00.000" out="00:00:09.542" producer="chain37"/>
  <entry in="00:00:00.000" out="00:00:04.625" producer="chain43"/>
  <entry in="00:00:00.000" out="00:00:04.625" producer="chain44"/>
  <entry in="00:00:00.000" out="00:00:20.958" producer="producer1"/>
  <entry in="00:00:00.000" out="00:00:05.042" producer="chain49"/>
  <entry in="00:00:00.000" out="00:00:05.083" producer="chain50"/>
  <entry in="00:00:00.000" out="00:00:05.125" producer="chain51"/>
  <entry in="00:00:00.000" out="00:00:05.042" producer="chain54"/>
  <entry in="00:00:00.000" out="00:00:03.958" producer="chain53"/>
  <entry in="00:00:00.000" out="00:00:05.042" producer="chain52"/>
  <entry in="00:00:00.000" out="00:00:05.042" producer="chain56"/>
  <entry in="00:00:00.000" out="00:01:06.958" producer="tractor8"/>
 </playlist>
 <tractor id="tractor9" in="00:00:00.000" out="00:01:07.000">
  <property name="kdenlive:projectTractor">1</property>
  <track in="00:00:00.000" out="00:01:07.000" producer="tractor8"/>
 </tractor>
</mlt>
