<?xml version='1.0' encoding='utf-8'?>
<mlt LC_NUMERIC="en_US.UTF-8" producer="main_bin" version="7.21.0" root="C:/dev/workspace/indy/dist/trailer">
 <profile frame_rate_num="24" sample_aspect_num="1" display_aspect_den="6" colorspace="709" progressive="1" description="2816x1536 24.00fps" display_aspect_num="11" frame_rate_den="1" width="2816" height="1536" sample_aspect_den="1"/>
 <producer id="tractor6" in="00:00:00.000" out="00:00:28.750">
  <property name="length">691</property>
  <property name="eof">pause</property>
  <property name="resource">C:/dev/workspace/indy/dist/room/attic/data/attic.kdenlive</property>
  <property name="mlt_service">xml</property>
  <property name="kdenlive:projectTractor">1</property>
  <property name="xml">was here</property>
  <property name="seekable">1</property>
  <property name="kdenlive:clipname"/>
  <property name="kdenlive:folderid">-1</property>
  <property name="kdenlive:id">4</property>
  <property name="kdenlive:clip_type">0</property>
  <property name="kdenlive:file_size">109035</property>
  <property name="kdenlive:file_hash">2edd0d0d835e98da73ae785b05882104</property>
  <property name="kdenlive:audio_max0">205</property>
 </producer>
 <producer id="tractor4" in="00:00:00.000" out="00:01:21.458">
  <property name="length">1956</property>
  <property name="eof">pause</property>
  <property name="resource">C:/dev/workspace/indy/dist/room/intro/data/intro.kdenlive</property>
  <property name="mlt_service">xml</property>
  <property name="kdenlive:projectTractor">1</property>
  <property name="xml">was here</property>
  <property name="seekable">1</property>
  <property name="kdenlive:clipname"/>
  <property name="kdenlive:folderid">-1</property>
  <property name="kdenlive:id">5</property>
  <property name="kdenlive:clip_type">0</property>
  <property name="kdenlive:file_size">84683</property>
  <property name="kdenlive:file_hash">1dcbf7937f84a9f67d23df1ca58cea7c</property>
  <property name="kdenlive:audio_max0">214</property>
 </producer>
 <chain id="chain2" out="04:19:50.000">
  <property name="length">374161</property>
  <property name="eof">pause</property>
  <property name="resource">content/indy.mp4</property>
  <property name="mlt_service">avformat-novalidate</property>
  <property name="meta.media.nb_streams">2</property>
  <property name="meta.media.0.stream.type">video</property>
  <property name="meta.media.0.stream.frame_rate">60</property>
  <property name="meta.media.0.stream.sample_aspect_ratio">1</property>
  <property name="meta.media.0.codec.width">1152</property>
  <property name="meta.media.0.codec.height">720</property>
  <property name="meta.media.0.codec.rotate">0</property>
  <property name="meta.media.0.codec.pix_fmt">yuv420p</property>
  <property name="meta.media.0.codec.sample_aspect_ratio">1</property>
  <property name="meta.media.0.codec.colorspace">709</property>
  <property name="meta.media.0.codec.color_trc">1</property>
  <property name="meta.media.0.codec.name">h264</property>
  <property name="meta.media.0.codec.long_name">H.264 / AVC / MPEG-4 AVC / MPEG-4 part 10</property>
  <property name="meta.media.0.codec.bit_rate">293490</property>
  <property name="meta.attr.0.stream.handler_name.markup">ISO Media file produced by Google Inc.</property>
  <property name="meta.attr.0.stream.vendor_id.markup">[0][0][0][0]</property>
  <property name="meta.media.1.stream.type">audio</property>
  <property name="meta.media.1.codec.sample_fmt">fltp</property>
  <property name="meta.media.1.codec.sample_rate">48000</property>
  <property name="meta.media.1.codec.channels">2</property>
  <property name="meta.media.1.codec.name">opus</property>
  <property name="meta.media.1.codec.long_name">Opus</property>
  <property name="meta.media.1.codec.bit_rate">123183</property>
  <property name="meta.attr.1.stream.language.markup">eng</property>
  <property name="meta.attr.1.stream.handler_name.markup">SoundHandler</property>
  <property name="meta.attr.1.stream.vendor_id.markup">[0][0][0][0]</property>
  <property name="meta.attr.major_brand.markup">isom</property>
  <property name="meta.attr.minor_version.markup">512</property>
  <property name="meta.attr.compatible_brands.markup">isomiso2avc1mp41</property>
  <property name="meta.attr.encoder.markup">Lavf59.27.100</property>
  <property name="seekable">1</property>
  <property name="meta.media.sample_aspect_num">1</property>
  <property name="meta.media.sample_aspect_den">1</property>
  <property name="audio_index">1</property>
  <property name="video_index">0</property>
  <property name="vstream">0</property>
  <property name="meta.media.frame_rate_num">60</property>
  <property name="meta.media.frame_rate_den">1</property>
  <property name="meta.media.colorspace">709</property>
  <property name="meta.media.color_trc">1</property>
  <property name="meta.media.has_b_frames">1</property>
  <property name="meta.media.width">1152</property>
  <property name="meta.media.height">720</property>
  <property name="meta.media.color_range">mpeg</property>
  <property name="astream">0</property>
  <property name="meta.media.top_field_first">0</property>
  <property name="meta.media.progressive">1</property>
  <property name="kdenlive:folderid">-1</property>
  <property name="kdenlive:id">6</property>
  <property name="mute_on_pause">0</property>
  <property name="kdenlive:clip_type">0</property>
  <property name="kdenlive:file_size">834279841</property>
  <property name="kdenlive:file_hash">8057547cc1bc3d59e35a5d23ff25cabe</property>
  <property name="kdenlive:audio_max1">254</property>
 </chain>
 <producer id="producer0" in="00:00:00.000" out="00:22:18.042">
  <property name="length">2147483647</property>
  <property name="eof">continue</property>
  <property name="resource">black</property>
  <property name="aspect_ratio">1</property>
  <property name="mlt_service">color</property>
  <property name="kdenlive:playlistid">black_track</property>
  <property name="mlt_image_format">rgba</property>
  <property name="set.test_audio">0</property>
 </producer>
 <playlist id="playlist0">
  <property name="kdenlive:audio_track">1</property>
 </playlist>
 <playlist id="playlist1">
  <property name="kdenlive:audio_track">1</property>
 </playlist>
 <tractor id="tractor0" in="00:00:00.000">
  <property name="kdenlive:audio_track">1</property>
  <property name="kdenlive:trackheight">67</property>
  <property name="kdenlive:timeline_active">1</property>
  <property name="kdenlive:collapsed">0</property>
  <property name="kdenlive:thumbs_format"/>
  <property name="kdenlive:audio_rec"/>
  <track hide="video" producer="playlist0"/>
  <track hide="video" producer="playlist1"/>
  <filter id="filter0">
   <property name="window">75</property>
   <property name="max_gain">20dB</property>
   <property name="mlt_service">volume</property>
   <property name="internal_added">237</property>
   <property name="disable">1</property>
  </filter>
  <filter id="filter1">
   <property name="channel">-1</property>
   <property name="mlt_service">panner</property>
   <property name="internal_added">237</property>
   <property name="start">0.5</property>
   <property name="disable">1</property>
  </filter>
  <filter id="filter2">
   <property name="iec_scale">0</property>
   <property name="mlt_service">audiolevel</property>
   <property name="dbpeak">1</property>
   <property name="disable">1</property>
  </filter>
 </tractor>
 <chain id="chain0" out="04:19:50.000">
  <property name="length">374161</property>
  <property name="eof">pause</property>
  <property name="resource">content/indy.mp4</property>
  <property name="mlt_service">avformat-novalidate</property>
  <property name="seekable">1</property>
  <property name="audio_index">1</property>
  <property name="video_index">0</property>
  <property name="vstream">0</property>
  <property name="astream">0</property>
  <property name="kdenlive:folderid">-1</property>
  <property name="kdenlive:id">6</property>
  <property name="mute_on_pause">0</property>
  <property name="kdenlive:clip_type">0</property>
  <property name="kdenlive:file_size">834279841</property>
  <property name="kdenlive:file_hash">8057547cc1bc3d59e35a5d23ff25cabe</property>
  <property name="kdenlive:audio_max1">213</property>
  <property name="meta.media.nb_streams">2</property>
  <property name="meta.media.0.stream.type">video</property>
  <property name="meta.media.0.stream.frame_rate">60</property>
  <property name="meta.media.0.stream.sample_aspect_ratio">1</property>
  <property name="meta.media.0.codec.width">1152</property>
  <property name="meta.media.0.codec.height">720</property>
  <property name="meta.media.0.codec.rotate">0</property>
  <property name="meta.media.0.codec.pix_fmt">yuv420p</property>
  <property name="meta.media.0.codec.sample_aspect_ratio">1</property>
  <property name="meta.media.0.codec.colorspace">709</property>
  <property name="meta.media.0.codec.color_trc">1</property>
  <property name="meta.media.0.codec.name">h264</property>
  <property name="meta.media.0.codec.long_name">H.264 / AVC / MPEG-4 AVC / MPEG-4 part 10</property>
  <property name="meta.media.0.codec.bit_rate">293490</property>
  <property name="meta.attr.0.stream.handler_name.markup">ISO Media file produced by Google Inc.</property>
  <property name="meta.attr.0.stream.vendor_id.markup">[0][0][0][0]</property>
  <property name="meta.media.1.stream.type">audio</property>
  <property name="meta.media.1.codec.sample_fmt">fltp</property>
  <property name="meta.media.1.codec.sample_rate">48000</property>
  <property name="meta.media.1.codec.channels">2</property>
  <property name="meta.media.1.codec.name">opus</property>
  <property name="meta.media.1.codec.long_name">Opus</property>
  <property name="meta.media.1.codec.bit_rate">123183</property>
  <property name="meta.attr.1.stream.language.markup">eng</property>
  <property name="meta.attr.1.stream.handler_name.markup">SoundHandler</property>
  <property name="meta.attr.1.stream.vendor_id.markup">[0][0][0][0]</property>
  <property name="meta.attr.major_brand.markup">isom</property>
  <property name="meta.attr.minor_version.markup">512</property>
  <property name="meta.attr.compatible_brands.markup">isomiso2avc1mp41</property>
  <property name="meta.attr.encoder.markup">Lavf59.27.100</property>
  <property name="meta.media.sample_aspect_num">1</property>
  <property name="meta.media.sample_aspect_den">1</property>
  <property name="meta.media.frame_rate_num">60</property>
  <property name="meta.media.frame_rate_den">1</property>
  <property name="meta.media.colorspace">709</property>
  <property name="meta.media.color_trc">1</property>
  <property name="meta.media.has_b_frames">1</property>
  <property name="meta.media.width">1152</property>
  <property name="meta.media.height">720</property>
  <property name="meta.media.color_range">mpeg</property>
  <property name="xml">was here</property>
  <property name="meta.media.top_field_first">0</property>
  <property name="meta.media.progressive">1</property>
  <property name="set.test_audio">0</property>
  <property name="set.test_image">1</property>
 </chain>
 <producer id="producer1" in="00:00:00.000" out="00:01:21.458">
  <property name="length">1956</property>
  <property name="eof">pause</property>
  <property name="resource">C:/dev/workspace/indy/dist/room/intro/data/intro.kdenlive</property>
  <property name="mlt_service">xml</property>
  <property name="kdenlive:projectTractor">1</property>
  <property name="xml">was here</property>
  <property name="seekable">1</property>
  <property name="kdenlive:clipname"/>
  <property name="kdenlive:folderid">-1</property>
  <property name="kdenlive:id">5</property>
  <property name="kdenlive:clip_type">0</property>
  <property name="kdenlive:file_size">84683</property>
  <property name="kdenlive:file_hash">1dcbf7937f84a9f67d23df1ca58cea7c</property>
  <property name="kdenlive:audio_max0">214</property>
  <property name="set.test_audio">0</property>
  <property name="set.test_image">1</property>
  <property name="audio_index">0</property>
  <property name="astream">0</property>
 </producer>
 <producer id="producer2" in="00:00:00.000" out="00:00:28.750">
  <property name="length">691</property>
  <property name="eof">pause</property>
  <property name="resource">C:/dev/workspace/indy/dist/room/attic/data/attic.kdenlive</property>
  <property name="mlt_service">xml</property>
  <property name="kdenlive:projectTractor">1</property>
  <property name="xml">was here</property>
  <property name="seekable">1</property>
  <property name="kdenlive:clipname"/>
  <property name="kdenlive:folderid">-1</property>
  <property name="kdenlive:id">4</property>
  <property name="kdenlive:clip_type">0</property>
  <property name="kdenlive:file_size">109035</property>
  <property name="kdenlive:file_hash">2edd0d0d835e98da73ae785b05882104</property>
  <property name="kdenlive:audio_max0">205</property>
  <property name="set.test_audio">0</property>
  <property name="set.test_image">1</property>
  <property name="audio_index">0</property>
  <property name="astream">0</property>
 </producer>
 <playlist id="playlist2">
  <property name="kdenlive:audio_track">1</property>
  <blank length="00:00:02.000"/>
  <entry producer="chain0" in="00:00:30.083" out="00:00:49.792">
   <property name="kdenlive:id">6</property>
   <filter id="filter3" in="00:00:49.375" out="00:00:49.792">
    <property name="window">75</property>
    <property name="max_gain">20dB</property>
    <property name="mlt_service">volume</property>
    <property name="kdenlive_id">fadeout</property>
    <property name="gain">1</property>
    <property name="end">0</property>
    <property name="kdenlive:collapsed">0</property>
   </filter>
   <filter id="filter4">
    <property name="window">75</property>
    <property name="max_gain">20dB</property>
    <property name="level">00:00:30.083=5</property>
    <property name="mlt_service">volume</property>
    <property name="kdenlive_id">volume</property>
    <property name="kdenlive:collapsed">0</property>
   </filter>
  </entry>
  <entry producer="chain0" in="00:01:15.250" out="00:01:24.292">
   <property name="kdenlive:id">6</property>
   <property name="kdenlive:activeeffect">2</property>
   <filter id="filter5" in="00:01:15.250" out="00:01:15.667">
    <property name="window">75</property>
    <property name="max_gain">20dB</property>
    <property name="mlt_service">volume</property>
    <property name="kdenlive_id">fadein</property>
    <property name="gain">0</property>
    <property name="end">1</property>
    <property name="kdenlive:collapsed">0</property>
   </filter>
   <filter id="filter6" in="00:01:23.875" out="00:01:24.292">
    <property name="window">75</property>
    <property name="max_gain">20dB</property>
    <property name="mlt_service">volume</property>
    <property name="kdenlive_id">fadeout</property>
    <property name="gain">1</property>
    <property name="end">0</property>
    <property name="kdenlive:collapsed">0</property>
   </filter>
   <filter id="filter7">
    <property name="window">75</property>
    <property name="max_gain">20dB</property>
    <property name="level">00:01:15.250=5</property>
    <property name="mlt_service">volume</property>
    <property name="kdenlive_id">volume</property>
    <property name="kdenlive:collapsed">0</property>
   </filter>
  </entry>
  <blank length="00:00:02.000"/>
  <entry producer="producer1" in="00:00:00.000" out="00:00:26.375">
   <property name="kdenlive:id">5</property>
   <filter id="filter8" in="00:00:25.542" out="00:00:26.375">
    <property name="window">75</property>
    <property name="max_gain">20dB</property>
    <property name="mlt_service">volume</property>
    <property name="kdenlive_id">fadeout</property>
    <property name="gain">1</property>
    <property name="end">0</property>
   </filter>
  </entry>
  <entry producer="producer2" in="00:00:00.000" out="00:00:28.750">
   <property name="kdenlive:id">4</property>
  </entry>
 </playlist>
 <playlist id="playlist3">
  <property name="kdenlive:audio_track">1</property>
 </playlist>
 <tractor id="tractor1" in="00:00:00.000" out="00:01:28.000">
  <property name="kdenlive:audio_track">1</property>
  <property name="kdenlive:trackheight">67</property>
  <property name="kdenlive:timeline_active">1</property>
  <property name="kdenlive:collapsed">0</property>
  <property name="kdenlive:thumbs_format"/>
  <property name="kdenlive:audio_rec"/>
  <track hide="video" producer="playlist2"/>
  <track hide="video" producer="playlist3"/>
  <filter id="filter9">
   <property name="window">75</property>
   <property name="max_gain">20dB</property>
   <property name="mlt_service">volume</property>
   <property name="internal_added">237</property>
   <property name="disable">1</property>
  </filter>
  <filter id="filter10">
   <property name="channel">-1</property>
   <property name="mlt_service">panner</property>
   <property name="internal_added">237</property>
   <property name="start">0.5</property>
   <property name="disable">1</property>
  </filter>
  <filter id="filter11">
   <property name="iec_scale">0</property>
   <property name="mlt_service">audiolevel</property>
   <property name="dbpeak">1</property>
   <property name="disable">1</property>
  </filter>
 </tractor>
 <producer id="producer3" in="00:00:00.000" out="00:00:04.958">
  <property name="length">120</property>
  <property name="eof">pause</property>
  <property name="resource"/>
  <property name="meta.media.progressive">1</property>
  <property name="aspect_ratio">1</property>
  <property name="seekable">1</property>
  <property name="mlt_service">kdenlivetitle</property>
  <property name="kdenlive:duration">00:00:05:00</property>
  <property name="kdenlive:clipname">1992</property>
  <property name="xmldata">&lt;kdenlivetitle duration="120" LC_NUMERIC="C" width="2816" height="1536" out="119">
 &lt;item type="QGraphicsTextItem" z-index="0">
  &lt;position x="1030" y="550">
   &lt;transform>1,0,0,0,1,0,0,0,1&lt;/transform>
  &lt;/position>
  &lt;content line-spacing="0" shadow="0;#64000000;3;3;3" font-underline="0" box-height="437" font-outline-color="0,0,0,255" font="Times New Roman" letter-spacing="0" font-pixel-size="380" font-italic="0" typewriter="0;2;1;0;0" alignment="1" font-weight="50" font-outline="0" box-width="760" font-color="255,255,255,255">1992&lt;/content>
 &lt;/item>
 &lt;startviewport rect="0,0,2816,1536"/>
 &lt;endviewport rect="0,0,2816,1536"/>
 &lt;background color="0,0,0,255"/>
&lt;/kdenlivetitle>
</property>
  <property name="xml">was here</property>
  <property name="kdenlive:folderid">-1</property>
  <property name="kdenlive:id">7</property>
  <property name="kdenlive:clip_type">2</property>
  <property name="kdenlive:file_hash">654cd0c54b4b1e27c6187d1e9e04229f</property>
  <property name="force_reload">0</property>
  <property name="meta.media.width">2816</property>
  <property name="meta.media.height">1536</property>
 </producer>
 <chain id="chain1" out="04:19:50.000">
  <property name="length">374161</property>
  <property name="eof">pause</property>
  <property name="resource">content/indy.mp4</property>
  <property name="mlt_service">avformat-novalidate</property>
  <property name="seekable">1</property>
  <property name="audio_index">1</property>
  <property name="video_index">0</property>
  <property name="vstream">0</property>
  <property name="astream">0</property>
  <property name="kdenlive:folderid">-1</property>
  <property name="kdenlive:id">6</property>
  <property name="mute_on_pause">0</property>
  <property name="kdenlive:clip_type">0</property>
  <property name="kdenlive:file_size">834279841</property>
  <property name="kdenlive:file_hash">8057547cc1bc3d59e35a5d23ff25cabe</property>
  <property name="kdenlive:audio_max1">213</property>
  <property name="meta.media.nb_streams">2</property>
  <property name="meta.media.0.stream.type">video</property>
  <property name="meta.media.0.stream.frame_rate">60</property>
  <property name="meta.media.0.stream.sample_aspect_ratio">1</property>
  <property name="meta.media.0.codec.width">1152</property>
  <property name="meta.media.0.codec.height">720</property>
  <property name="meta.media.0.codec.rotate">0</property>
  <property name="meta.media.0.codec.pix_fmt">yuv420p</property>
  <property name="meta.media.0.codec.sample_aspect_ratio">1</property>
  <property name="meta.media.0.codec.colorspace">709</property>
  <property name="meta.media.0.codec.color_trc">1</property>
  <property name="meta.media.0.codec.name">h264</property>
  <property name="meta.media.0.codec.long_name">H.264 / AVC / MPEG-4 AVC / MPEG-4 part 10</property>
  <property name="meta.media.0.codec.bit_rate">293490</property>
  <property name="meta.attr.0.stream.handler_name.markup">ISO Media file produced by Google Inc.</property>
  <property name="meta.attr.0.stream.vendor_id.markup">[0][0][0][0]</property>
  <property name="meta.media.1.stream.type">audio</property>
  <property name="meta.media.1.codec.sample_fmt">fltp</property>
  <property name="meta.media.1.codec.sample_rate">48000</property>
  <property name="meta.media.1.codec.channels">2</property>
  <property name="meta.media.1.codec.name">opus</property>
  <property name="meta.media.1.codec.long_name">Opus</property>
  <property name="meta.media.1.codec.bit_rate">123183</property>
  <property name="meta.attr.1.stream.language.markup">eng</property>
  <property name="meta.attr.1.stream.handler_name.markup">SoundHandler</property>
  <property name="meta.attr.1.stream.vendor_id.markup">[0][0][0][0]</property>
  <property name="meta.attr.major_brand.markup">isom</property>
  <property name="meta.attr.minor_version.markup">512</property>
  <property name="meta.attr.compatible_brands.markup">isomiso2avc1mp41</property>
  <property name="meta.attr.encoder.markup">Lavf59.27.100</property>
  <property name="meta.media.sample_aspect_num">1</property>
  <property name="meta.media.sample_aspect_den">1</property>
  <property name="meta.media.frame_rate_num">60</property>
  <property name="meta.media.frame_rate_den">1</property>
  <property name="meta.media.colorspace">709</property>
  <property name="meta.media.color_trc">1</property>
  <property name="meta.media.has_b_frames">1</property>
  <property name="meta.media.width">1152</property>
  <property name="meta.media.height">720</property>
  <property name="meta.media.color_range">mpeg</property>
  <property name="xml">was here</property>
  <property name="meta.media.top_field_first">0</property>
  <property name="meta.media.progressive">1</property>
  <property name="set.test_audio">1</property>
  <property name="set.test_image">0</property>
 </chain>
 <producer id="producer4" in="00:00:00.000" out="00:00:04.958">
  <property name="length">120</property>
  <property name="eof">pause</property>
  <property name="resource"/>
  <property name="meta.media.progressive">1</property>
  <property name="aspect_ratio">1</property>
  <property name="seekable">1</property>
  <property name="mlt_service">kdenlivetitle</property>
  <property name="kdenlive:duration">00:00:05:00</property>
  <property name="kdenlive:clipname">2024</property>
  <property name="xmldata">&lt;kdenlivetitle duration="120" LC_NUMERIC="C" width="2816" height="1536" out="119">
 &lt;item type="QGraphicsTextItem" z-index="0">
  &lt;position x="1030" y="550">
   &lt;transform>1,0,0,0,1,0,0,0,1&lt;/transform>
  &lt;/position>
  &lt;content line-spacing="0" shadow="0;#64000000;3;3;3" font-underline="0" box-height="437" font="Times New Roman" letter-spacing="0" font-pixel-size="380" font-italic="0" typewriter="0;2;1;0;0" alignment="1" font-weight="50" box-width="760" font-color="255,255,255,255">2024&lt;/content>
 &lt;/item>
 &lt;startviewport rect="0,0,2816,1536"/>
 &lt;endviewport rect="0,0,2816,1536"/>
 &lt;background color="0,0,0,255"/>
&lt;/kdenlivetitle>
</property>
  <property name="xml">was here</property>
  <property name="kdenlive:folderid">-1</property>
  <property name="kdenlive:id">8</property>
  <property name="kdenlive:clip_type">2</property>
  <property name="kdenlive:file_hash">654cd0c54b4b1e27c6187d1e9e04229f</property>
  <property name="force_reload">0</property>
  <property name="meta.media.width">2816</property>
  <property name="meta.media.height">1536</property>
 </producer>
 <producer id="producer5" in="00:00:00.000" out="00:01:21.458">
  <property name="length">1956</property>
  <property name="eof">pause</property>
  <property name="resource">C:/dev/workspace/indy/dist/room/intro/data/intro.kdenlive</property>
  <property name="mlt_service">xml</property>
  <property name="kdenlive:projectTractor">1</property>
  <property name="xml">was here</property>
  <property name="seekable">1</property>
  <property name="kdenlive:clipname"/>
  <property name="kdenlive:folderid">-1</property>
  <property name="kdenlive:id">5</property>
  <property name="kdenlive:clip_type">0</property>
  <property name="kdenlive:file_size">84683</property>
  <property name="kdenlive:file_hash">1dcbf7937f84a9f67d23df1ca58cea7c</property>
  <property name="kdenlive:audio_max0">214</property>
  <property name="set.test_audio">1</property>
  <property name="set.test_image">0</property>
 </producer>
 <producer id="producer6" in="00:00:00.000" out="00:00:28.750">
  <property name="length">691</property>
  <property name="eof">pause</property>
  <property name="resource">C:/dev/workspace/indy/dist/room/attic/data/attic.kdenlive</property>
  <property name="mlt_service">xml</property>
  <property name="kdenlive:projectTractor">1</property>
  <property name="xml">was here</property>
  <property name="seekable">1</property>
  <property name="kdenlive:clipname"/>
  <property name="kdenlive:folderid">-1</property>
  <property name="kdenlive:id">4</property>
  <property name="kdenlive:clip_type">0</property>
  <property name="kdenlive:file_size">109035</property>
  <property name="kdenlive:file_hash">2edd0d0d835e98da73ae785b05882104</property>
  <property name="kdenlive:audio_max0">205</property>
  <property name="set.test_audio">1</property>
  <property name="set.test_image">0</property>
 </producer>
 <playlist id="playlist4">
  <entry producer="producer3" in="00:00:00.000" out="00:00:01.958">
   <property name="kdenlive:id">7</property>
   <filter id="filter12" in="00:00:01.750" out="00:00:01.958">
    <property name="start">1</property>
    <property name="level">1</property>
    <property name="mlt_service">brightness</property>
    <property name="kdenlive_id">fade_to_black</property>
    <property name="alpha">00:00:00.000=1;00:00:00.208=0</property>
    <property name="kdenlive:collapsed">0</property>
   </filter>
  </entry>
  <entry producer="chain1" in="00:00:30.083" out="00:00:49.792">
   <property name="kdenlive:id">6</property>
   <filter id="filter13" in="00:00:49.375" out="00:00:49.792">
    <property name="start">1</property>
    <property name="level">1</property>
    <property name="mlt_service">brightness</property>
    <property name="kdenlive_id">fade_to_black</property>
    <property name="alpha">00:00:00.000=1;00:00:00.417=0</property>
    <property name="kdenlive:collapsed">0</property>
   </filter>
  </entry>
  <entry producer="chain1" in="00:01:15.250" out="00:01:24.292">
   <property name="kdenlive:id">6</property>
   <filter id="filter14" in="00:01:15.250" out="00:01:15.667">
    <property name="start">1</property>
    <property name="level">1</property>
    <property name="mlt_service">brightness</property>
    <property name="kdenlive_id">fade_from_black</property>
    <property name="alpha">00:00:00.000=0;00:00:00.417=1</property>
    <property name="kdenlive:collapsed">0</property>
   </filter>
   <filter id="filter15" in="00:01:23.875" out="00:01:24.292">
    <property name="start">1</property>
    <property name="level">1</property>
    <property name="mlt_service">brightness</property>
    <property name="kdenlive_id">fade_to_black</property>
    <property name="alpha">00:00:00.000=1;00:00:00.417=0</property>
   </filter>
  </entry>
  <entry producer="producer4" in="00:00:00.000" out="00:00:01.958">
   <property name="kdenlive:id">8</property>
   <filter id="filter16" in="00:00:01.750" out="00:00:01.958">
    <property name="start">1</property>
    <property name="level">1</property>
    <property name="mlt_service">brightness</property>
    <property name="kdenlive_id">fade_to_black</property>
    <property name="alpha">00:00:00.000=1;00:00:00.208=0</property>
    <property name="kdenlive:collapsed">0</property>
   </filter>
  </entry>
  <entry producer="producer5" in="00:00:00.000" out="00:00:26.375">
   <property name="kdenlive:id">5</property>
   <filter id="filter17" in="00:00:25.542" out="00:00:26.375">
    <property name="start">1</property>
    <property name="level">1</property>
    <property name="mlt_service">brightness</property>
    <property name="kdenlive_id">fade_to_black</property>
    <property name="alpha">00:00:00.000=1;00:00:00.833=0</property>
    <property name="kdenlive:collapsed">0</property>
   </filter>
  </entry>
  <entry producer="producer6" in="00:00:00.000" out="00:00:28.750">
   <property name="kdenlive:id">4</property>
   <filter id="filter18" out="00:00:00.208">
    <property name="start">1</property>
    <property name="level">1</property>
    <property name="mlt_service">brightness</property>
    <property name="kdenlive_id">fade_from_black</property>
    <property name="alpha">00:00:00.000=0;00:00:00.208=1</property>
   </filter>
  </entry>
 </playlist>
 <playlist id="playlist5"/>
 <tractor id="tractor2" in="00:00:00.000" out="00:01:28.000">
  <property name="kdenlive:trackheight">67</property>
  <property name="kdenlive:timeline_active">1</property>
  <property name="kdenlive:collapsed">0</property>
  <property name="kdenlive:thumbs_format"/>
  <property name="kdenlive:audio_rec"/>
  <track hide="audio" producer="playlist4"/>
  <track hide="audio" producer="playlist5"/>
 </tractor>
 <playlist id="playlist6"/>
 <playlist id="playlist7"/>
 <tractor id="tractor3" in="00:00:00.000">
  <property name="kdenlive:trackheight">67</property>
  <property name="kdenlive:timeline_active">1</property>
  <property name="kdenlive:collapsed">0</property>
  <property name="kdenlive:thumbs_format"/>
  <property name="kdenlive:audio_rec"/>
  <track hide="audio" producer="playlist6"/>
  <track hide="audio" producer="playlist7"/>
 </tractor>
 <tractor id="tractor5" in="00:00:00.000" out="00:22:18.042">
  <property name="kdenlive:duration">00:01:28:01</property>
  <property name="kdenlive:maxduration">2113</property>
  <property name="kdenlive:clipname">Sequence 1</property>
  <property name="kdenlive:description"/>
  <property name="kdenlive:uuid">{d0e20e5a-ef12-465f-94d8-e7826ea95d2f}</property>
  <property name="kdenlive:producer_type">17</property>
  <property name="kdenlive:id">3</property>
  <property name="kdenlive:clip_type">0</property>
  <property name="kdenlive:file_hash">06d590cc02ccaf629381072283f2729f</property>
  <property name="kdenlive:folderid">2</property>
  <property name="kdenlive:sequenceproperties.activeTrack">1</property>
  <property name="kdenlive:sequenceproperties.audioTarget">1</property>
  <property name="kdenlive:sequenceproperties.disablepreview">0</property>
  <property name="kdenlive:sequenceproperties.documentuuid">{d0e20e5a-ef12-465f-94d8-e7826ea95d2f}</property>
  <property name="kdenlive:sequenceproperties.hasAudio">1</property>
  <property name="kdenlive:sequenceproperties.hasVideo">1</property>
  <property name="kdenlive:sequenceproperties.position">499</property>
  <property name="kdenlive:sequenceproperties.scrollPos">0</property>
  <property name="kdenlive:sequenceproperties.tracks">4</property>
  <property name="kdenlive:sequenceproperties.tracksCount">4</property>
  <property name="kdenlive:sequenceproperties.verticalzoom">1</property>
  <property name="kdenlive:sequenceproperties.videoTarget">2</property>
  <property name="kdenlive:sequenceproperties.zonein">0</property>
  <property name="kdenlive:sequenceproperties.zoneout">75</property>
  <property name="kdenlive:sequenceproperties.zoom">8</property>
  <property name="kdenlive:sequenceproperties.groups">[
    {
        "children": [
            {
                "data": "2:1422",
                "leaf": "clip",
                "type": "Leaf"
            },
            {
                "data": "1:1422",
                "leaf": "clip",
                "type": "Leaf"
            }
        ],
        "type": "AVSplit"
    },
    {
        "children": [
            {
                "data": "2:48",
                "leaf": "clip",
                "type": "Leaf"
            },
            {
                "data": "1:48",
                "leaf": "clip",
                "type": "Leaf"
            }
        ],
        "type": "AVSplit"
    },
    {
        "children": [
            {
                "data": "1:788",
                "leaf": "clip",
                "type": "Leaf"
            },
            {
                "data": "2:788",
                "leaf": "clip",
                "type": "Leaf"
            }
        ],
        "type": "AVSplit"
    },
    {
        "children": [
            {
                "data": "1:522",
                "leaf": "clip",
                "type": "Leaf"
            },
            {
                "data": "2:522",
                "leaf": "clip",
                "type": "Leaf"
            }
        ],
        "type": "AVSplit"
    }
]
</property>
  <property name="kdenlive:sequenceproperties.guides">[
]
</property>
  <track producer="producer0"/>
  <track producer="tractor0"/>
  <track producer="tractor1"/>
  <track producer="tractor2"/>
  <track producer="tractor3"/>
  <transition id="transition0">
   <property name="a_track">0</property>
   <property name="b_track">1</property>
   <property name="mlt_service">mix</property>
   <property name="kdenlive_id">mix</property>
   <property name="internal_added">237</property>
   <property name="always_active">1</property>
   <property name="accepts_blanks">1</property>
   <property name="sum">1</property>
  </transition>
  <transition id="transition1">
   <property name="a_track">0</property>
   <property name="b_track">2</property>
   <property name="mlt_service">mix</property>
   <property name="kdenlive_id">mix</property>
   <property name="internal_added">237</property>
   <property name="always_active">1</property>
   <property name="accepts_blanks">1</property>
   <property name="sum">1</property>
  </transition>
  <transition id="transition2">
   <property name="a_track">0</property>
   <property name="b_track">3</property>
   <property name="compositing">0</property>
   <property name="distort">0</property>
   <property name="rotate_center">0</property>
   <property name="mlt_service">qtblend</property>
   <property name="always_active">1</property>
   <property name="internal_added">237</property>
  </transition>
  <transition id="transition3">
   <property name="a_track">0</property>
   <property name="b_track">4</property>
   <property name="compositing">0</property>
   <property name="distort">0</property>
   <property name="rotate_center">0</property>
   <property name="mlt_service">qtblend</property>
   <property name="always_active">1</property>
   <property name="internal_added">237</property>
  </transition>
  <filter id="filter19">
   <property name="window">75</property>
   <property name="max_gain">20dB</property>
   <property name="mlt_service">volume</property>
   <property name="internal_added">237</property>
   <property name="disable">1</property>
  </filter>
  <filter id="filter20">
   <property name="channel">-1</property>
   <property name="mlt_service">panner</property>
   <property name="internal_added">237</property>
   <property name="start">0.5</property>
   <property name="disable">1</property>
  </filter>
 </tractor>
 <playlist id="main_bin">
  <property name="kdenlive:folder.-1.2">Sequences</property>
  <property name="kdenlive:docproperties.activetimeline">{d0e20e5a-ef12-465f-94d8-e7826ea95d2f}</property>
  <property name="kdenlive:docproperties.audioChannels">2</property>
  <property name="kdenlive:docproperties.browserurl">C:/Users/bunjee/Videos/</property>
  <property name="kdenlive:docproperties.compositing">1</property>
  <property name="kdenlive:docproperties.documentid">1704036115342</property>
  <property name="kdenlive:docproperties.enableTimelineZone">0</property>
  <property name="kdenlive:docproperties.enableexternalproxy">0</property>
  <property name="kdenlive:docproperties.enableproxy">0</property>
  <property name="kdenlive:docproperties.externalproxyparams"/>
  <property name="kdenlive:docproperties.generateimageproxy">0</property>
  <property name="kdenlive:docproperties.generateproxy">0</property>
  <property name="kdenlive:docproperties.guidesCategories">[&#xd;&#xd;&#xd;&#xd;&#xd;
    {&#xd;&#xd;&#xd;&#xd;&#xd;
        "color": "#9b59b6",&#xd;&#xd;&#xd;&#xd;&#xd;
        "comment": "Category 1",&#xd;&#xd;&#xd;&#xd;&#xd;
        "index": 0&#xd;&#xd;&#xd;&#xd;&#xd;
    },&#xd;&#xd;&#xd;&#xd;&#xd;
    {&#xd;&#xd;&#xd;&#xd;&#xd;
        "color": "#3daee9",&#xd;&#xd;&#xd;&#xd;&#xd;
        "comment": "Category 2",&#xd;&#xd;&#xd;&#xd;&#xd;
        "index": 1&#xd;&#xd;&#xd;&#xd;&#xd;
    },&#xd;&#xd;&#xd;&#xd;&#xd;
    {&#xd;&#xd;&#xd;&#xd;&#xd;
        "color": "#1abc9c",&#xd;&#xd;&#xd;&#xd;&#xd;
        "comment": "Category 3",&#xd;&#xd;&#xd;&#xd;&#xd;
        "index": 2&#xd;&#xd;&#xd;&#xd;&#xd;
    },&#xd;&#xd;&#xd;&#xd;&#xd;
    {&#xd;&#xd;&#xd;&#xd;&#xd;
        "color": "#1cdc9a",&#xd;&#xd;&#xd;&#xd;&#xd;
        "comment": "Category 4",&#xd;&#xd;&#xd;&#xd;&#xd;
        "index": 3&#xd;&#xd;&#xd;&#xd;&#xd;
    },&#xd;&#xd;&#xd;&#xd;&#xd;
    {&#xd;&#xd;&#xd;&#xd;&#xd;
        "color": "#c9ce3b",&#xd;&#xd;&#xd;&#xd;&#xd;
        "comment": "Category 5",&#xd;&#xd;&#xd;&#xd;&#xd;
        "index": 4&#xd;&#xd;&#xd;&#xd;&#xd;
    },&#xd;&#xd;&#xd;&#xd;&#xd;
    {&#xd;&#xd;&#xd;&#xd;&#xd;
        "color": "#fdbc4b",&#xd;&#xd;&#xd;&#xd;&#xd;
        "comment": "Category 6",&#xd;&#xd;&#xd;&#xd;&#xd;
        "index": 5&#xd;&#xd;&#xd;&#xd;&#xd;
    },&#xd;&#xd;&#xd;&#xd;&#xd;
    {&#xd;&#xd;&#xd;&#xd;&#xd;
        "color": "#f39c1f",&#xd;&#xd;&#xd;&#xd;&#xd;
        "comment": "Category 7",&#xd;&#xd;&#xd;&#xd;&#xd;
        "index": 6&#xd;&#xd;&#xd;&#xd;&#xd;
    },&#xd;&#xd;&#xd;&#xd;&#xd;
    {&#xd;&#xd;&#xd;&#xd;&#xd;
        "color": "#f47750",&#xd;&#xd;&#xd;&#xd;&#xd;
        "comment": "Category 8",&#xd;&#xd;&#xd;&#xd;&#xd;
        "index": 7&#xd;&#xd;&#xd;&#xd;&#xd;
    },&#xd;&#xd;&#xd;&#xd;&#xd;
    {&#xd;&#xd;&#xd;&#xd;&#xd;
        "color": "#da4453",&#xd;&#xd;&#xd;&#xd;&#xd;
        "comment": "Category 9",&#xd;&#xd;&#xd;&#xd;&#xd;
        "index": 8&#xd;&#xd;&#xd;&#xd;&#xd;
    }&#xd;&#xd;&#xd;&#xd;&#xd;
]&#xd;&#xd;&#xd;&#xd;&#xd;
</property>
  <property name="kdenlive:docproperties.kdenliveversion">23.08.4</property>
  <property name="kdenlive:docproperties.opensequences">{d0e20e5a-ef12-465f-94d8-e7826ea95d2f}</property>
  <property name="kdenlive:docproperties.previewextension"/>
  <property name="kdenlive:docproperties.previewparameters"/>
  <property name="kdenlive:docproperties.profile">C:/Users/bunjee/AppData/Roaming/kdenlive/profiles/customprofile10</property>
  <property name="kdenlive:docproperties.proxyextension"/>
  <property name="kdenlive:docproperties.proxyimageminsize">2000</property>
  <property name="kdenlive:docproperties.proxyimagesize">800</property>
  <property name="kdenlive:docproperties.proxyminsize">1000</property>
  <property name="kdenlive:docproperties.proxyparams"/>
  <property name="kdenlive:docproperties.proxyresize">640</property>
  <property name="kdenlive:docproperties.rendercategory">Generic (HD for web, mobile devices...)</property>
  <property name="kdenlive:docproperties.rendercustomquality">90</property>
  <property name="kdenlive:docproperties.renderendguide">-1</property>
  <property name="kdenlive:docproperties.renderexportaudio">0</property>
  <property name="kdenlive:docproperties.renderfullcolorrange">0</property>
  <property name="kdenlive:docproperties.rendermode">0</property>
  <property name="kdenlive:docproperties.renderplay">0</property>
  <property name="kdenlive:docproperties.renderpreview">0</property>
  <property name="kdenlive:docproperties.renderprofile">MP4-H264/AAC</property>
  <property name="kdenlive:docproperties.renderrescale">0</property>
  <property name="kdenlive:docproperties.renderrescaleheight">768</property>
  <property name="kdenlive:docproperties.renderrescalewidth">1408</property>
  <property name="kdenlive:docproperties.renderspeed">6</property>
  <property name="kdenlive:docproperties.renderstartguide">-1</property>
  <property name="kdenlive:docproperties.rendertcoverlay">0</property>
  <property name="kdenlive:docproperties.rendertctype">-1</property>
  <property name="kdenlive:docproperties.rendertwopass">0</property>
  <property name="kdenlive:docproperties.seekOffset">30000</property>
  <property name="kdenlive:docproperties.uuid">{d0e20e5a-ef12-465f-94d8-e7826ea95d2f}</property>
  <property name="kdenlive:docproperties.version">1.1</property>
  <property name="kdenlive:expandedFolders"/>
  <property name="kdenlive:binZoom">4</property>
  <property name="kdenlive:documentnotes"/>
  <property name="kdenlive:docproperties.renderurl">C:/dev/workspace/indy/deploy/trailer2.mp4</property>
  <property name="xml_retain">1</property>
  <entry producer="tractor6" in="00:00:00.000" out="00:00:28.750"/>
  <entry producer="tractor4" in="00:00:00.000" out="00:01:21.458"/>
  <entry producer="chain2" in="00:00:00.000" out="04:19:50.000"/>
  <entry producer="tractor5" in="00:00:00.000" out="00:01:24.000"/>
  <entry producer="producer3" in="00:00:00.000" out="00:00:04.958"/>
  <entry producer="producer4" in="00:00:00.000" out="00:00:04.958"/>
 </playlist>
 <tractor id="tractor7" in="00:00:00.000" out="00:01:28.042">
  <property name="kdenlive:projectTractor">1</property>
  <track producer="tractor5" in="00:00:00.000" out="00:01:28.042"/>
 </tractor>
</mlt>
