<?xml version='1.0' encoding='utf-8'?>
<mlt LC_NUMERIC="en_US.UTF-8" producer="main_bin" version="7.21.0" root="C:/dev/workspace/indy/dist/character/indy/data">
 <profile frame_rate_num="25" sample_aspect_num="1" display_aspect_den="9" colorspace="709" progressive="1" description="HD 1080p 25 fps" display_aspect_num="16" frame_rate_den="1" width="1920" height="1080" sample_aspect_den="1"/>
 <producer id="producer0" in="00:00:00.000" out="00:25:19.600">
  <property name="length">2147483647</property>
  <property name="eof">continue</property>
  <property name="resource">black</property>
  <property name="aspect_ratio">1</property>
  <property name="mlt_service">color</property>
  <property name="kdenlive:playlistid">black_track</property>
  <property name="mlt_image_format">rgba</property>
  <property name="set.test_audio">0</property>
 </producer>
 <playlist id="playlist0">
  <property name="kdenlive:audio_track">1</property>
 </playlist>
 <playlist id="playlist1">
  <property name="kdenlive:audio_track">1</property>
 </playlist>
 <tractor id="tractor0" in="00:00:00.000">
  <property name="kdenlive:audio_track">1</property>
  <property name="kdenlive:trackheight">67</property>
  <property name="kdenlive:timeline_active">1</property>
  <property name="kdenlive:collapsed">0</property>
  <property name="kdenlive:thumbs_format"/>
  <property name="kdenlive:audio_rec"/>
  <track hide="video" producer="playlist0"/>
  <track hide="video" producer="playlist1"/>
  <filter id="filter0">
   <property name="window">75</property>
   <property name="max_gain">20dB</property>
   <property name="mlt_service">volume</property>
   <property name="internal_added">237</property>
   <property name="disable">1</property>
  </filter>
  <filter id="filter1">
   <property name="channel">-1</property>
   <property name="mlt_service">panner</property>
   <property name="internal_added">237</property>
   <property name="start">0.5</property>
   <property name="disable">1</property>
  </filter>
  <filter id="filter2">
   <property name="iec_scale">0</property>
   <property name="mlt_service">audiolevel</property>
   <property name="dbpeak">1</property>
   <property name="disable">1</property>
  </filter>
 </tractor>
 <chain id="chain0" out="02:06:53.400">
  <property name="length">190336</property>
  <property name="eof">pause</property>
  <property name="resource">C:/dev/workspace/indy/dist/movie/content/extra/indy3.mp4</property>
  <property name="mlt_service">avformat-novalidate</property>
  <property name="seekable">1</property>
  <property name="audio_index">1</property>
  <property name="video_index">0</property>
  <property name="vstream">0</property>
  <property name="astream">0</property>
  <property name="kdenlive:folderid">-1</property>
  <property name="kdenlive:id">4</property>
  <property name="mute_on_pause">0</property>
  <property name="kdenlive:clip_type">0</property>
  <property name="kdenlive:file_size">1938671996</property>
  <property name="kdenlive:file_hash">a1529c5af1d373bc5a933cc7a6d426d2</property>
  <property name="kdenlive:audio_max1">229</property>
  <property name="meta.media.nb_streams">2</property>
  <property name="meta.media.0.stream.type">video</property>
  <property name="meta.media.0.stream.frame_rate">23.976</property>
  <property name="meta.media.0.stream.sample_aspect_ratio">0</property>
  <property name="meta.media.0.codec.width">1920</property>
  <property name="meta.media.0.codec.height">816</property>
  <property name="meta.media.0.codec.rotate">0</property>
  <property name="meta.media.0.codec.pix_fmt">yuv420p</property>
  <property name="meta.media.0.codec.sample_aspect_ratio">1</property>
  <property name="meta.media.0.codec.colorspace">709</property>
  <property name="meta.media.0.codec.name">h264</property>
  <property name="meta.media.0.codec.long_name">H.264 / AVC / MPEG-4 AVC / MPEG-4 part 10</property>
  <property name="meta.media.0.codec.bit_rate">1941061</property>
  <property name="meta.attr.0.stream.creation_time.markup">2012-09-11T13:17:07.000000Z</property>
  <property name="meta.attr.0.stream.vendor_id.markup">[0][0][0][0]</property>
  <property name="meta.media.1.stream.type">audio</property>
  <property name="meta.media.1.codec.sample_fmt">fltp</property>
  <property name="meta.media.1.codec.sample_rate">48000</property>
  <property name="meta.media.1.codec.channels">2</property>
  <property name="meta.media.1.codec.name">aac</property>
  <property name="meta.media.1.codec.long_name">AAC (Advanced Audio Coding)</property>
  <property name="meta.media.1.codec.bit_rate">92000</property>
  <property name="meta.attr.1.stream.creation_time.markup">2012-09-11T13:17:18.000000Z</property>
  <property name="meta.attr.1.stream.handler_name.markup">GPAC ISO Audio Handler</property>
  <property name="meta.attr.1.stream.vendor_id.markup">[0][0][0][0]</property>
  <property name="meta.attr.major_brand.markup">isom</property>
  <property name="meta.attr.minor_version.markup">1</property>
  <property name="meta.attr.compatible_brands.markup">isomavc1</property>
  <property name="meta.attr.creation_time.markup">2012-09-11T13:17:07.000000Z</property>
  <property name="meta.media.sample_aspect_num">1</property>
  <property name="meta.media.sample_aspect_den">1</property>
  <property name="meta.media.frame_rate_num">24000</property>
  <property name="meta.media.frame_rate_den">1001</property>
  <property name="meta.media.colorspace">709</property>
  <property name="meta.media.color_trc">2</property>
  <property name="meta.media.has_b_frames">2</property>
  <property name="meta.media.width">1920</property>
  <property name="meta.media.height">816</property>
  <property name="meta.media.color_range">mpeg</property>
  <property name="xml">was here</property>
  <property name="meta.media.top_field_first">0</property>
  <property name="meta.media.progressive">1</property>
  <property name="set.test_audio">0</property>
  <property name="set.test_image">1</property>
 </chain>
 <playlist id="playlist2">
  <property name="kdenlive:audio_track">1</property>
  <entry producer="chain0" in="00:14:26.920" out="00:14:31.120">
   <property name="kdenlive:id">4</property>
  </entry>
  <entry producer="chain0" in="00:14:32.200" out="00:14:42.200">
   <property name="kdenlive:id">4</property>
  </entry>
  <entry producer="chain0" in="00:14:53.320" out="00:14:56.280">
   <property name="kdenlive:id">4</property>
  </entry>
  <entry producer="chain0" in="00:14:59.480" out="00:15:08.680">
   <property name="kdenlive:id">4</property>
  </entry>
  <entry producer="chain0" in="00:15:14.480" out="00:15:17.080">
   <property name="kdenlive:id">4</property>
  </entry>
  <entry producer="chain0" in="00:15:28.800" out="00:15:31.520">
   <property name="kdenlive:id">4</property>
  </entry>
  <entry producer="chain0" in="00:15:33.640" out="00:15:34.520">
   <property name="kdenlive:id">4</property>
  </entry>
  <entry producer="chain0" in="00:15:41.240" out="00:15:46.600">
   <property name="kdenlive:id">4</property>
  </entry>
  <entry producer="chain0" in="00:17:37.880" out="00:17:44.920">
   <property name="kdenlive:id">4</property>
  </entry>
  <entry producer="chain0" in="00:17:57.520" out="00:18:05.680">
   <property name="kdenlive:id">4</property>
  </entry>
  <entry producer="chain0" in="00:18:07.920" out="00:18:08.960">
   <property name="kdenlive:id">4</property>
  </entry>
  <entry producer="chain0" in="00:18:17.920" out="00:18:44.880">
   <property name="kdenlive:id">4</property>
  </entry>
  <entry producer="chain0" in="00:19:53.040" out="00:20:05.640">
   <property name="kdenlive:id">4</property>
  </entry>
  <entry producer="chain0" in="00:20:26.560" out="00:20:46.360">
   <property name="kdenlive:id">4</property>
  </entry>
  <entry producer="chain0" in="00:21:31.440" out="00:21:34.960">
   <property name="kdenlive:id">4</property>
  </entry>
  <entry producer="chain0" in="00:22:01.720" out="00:22:08.280">
   <property name="kdenlive:id">4</property>
  </entry>
  <entry producer="chain0" in="00:18:48.880" out="00:18:53.520">
   <property name="kdenlive:id">4</property>
  </entry>
  <entry producer="chain0" in="00:19:09.960" out="00:19:14.120">
   <property name="kdenlive:id">4</property>
  </entry>
  <entry producer="chain0" in="00:19:21.320" out="00:19:22.640">
   <property name="kdenlive:id">4</property>
  </entry>
  <entry producer="chain0" in="00:19:30.160" out="00:19:35.920">
   <property name="kdenlive:id">4</property>
  </entry>
  <entry producer="chain0" in="00:23:17.160" out="00:23:29.240">
   <property name="kdenlive:id">4</property>
  </entry>
  <entry producer="chain0" in="00:23:58.240" out="00:24:00.680">
   <property name="kdenlive:id">4</property>
  </entry>
  <entry producer="chain0" in="00:24:20.480" out="00:24:23.880">
   <property name="kdenlive:id">4</property>
  </entry>
  <entry producer="chain0" in="00:25:42.200" out="00:25:44.880">
   <property name="kdenlive:id">4</property>
  </entry>
  <entry producer="chain0" in="00:25:56.120" out="00:25:59.720">
   <property name="kdenlive:id">4</property>
  </entry>
  <entry producer="chain0" in="00:26:19.640" out="00:26:25.160">
   <property name="kdenlive:id">4</property>
  </entry>
  <entry producer="chain0" in="00:27:21.120" out="00:27:24.960">
   <property name="kdenlive:id">4</property>
  </entry>
  <entry producer="chain0" in="00:27:25.800" out="00:27:28.080">
   <property name="kdenlive:id">4</property>
  </entry>
  <entry producer="chain0" in="00:27:47.280" out="00:27:51.680">
   <property name="kdenlive:id">4</property>
  </entry>
  <entry producer="chain0" in="00:41:23.440" out="00:41:50.800">
   <property name="kdenlive:id">4</property>
  </entry>
  <entry producer="chain0" in="00:42:19.760" out="00:42:21.480">
   <property name="kdenlive:id">4</property>
  </entry>
  <entry producer="chain0" in="00:42:24.160" out="00:42:26.840">
   <property name="kdenlive:id">4</property>
  </entry>
  <entry producer="chain0" in="00:43:48.240" out="00:44:05.600">
   <property name="kdenlive:id">4</property>
  </entry>
  <entry producer="chain0" in="00:54:28.880" out="00:54:46.800">
   <property name="kdenlive:id">4</property>
  </entry>
  <entry producer="chain0" in="01:05:55.880" out="01:05:57.760">
   <property name="kdenlive:id">4</property>
  </entry>
  <entry producer="chain0" in="01:06:30.520" out="01:06:35.400">
   <property name="kdenlive:id">4</property>
  </entry>
  <entry producer="chain0" in="01:06:38.360" out="01:06:39.640">
   <property name="kdenlive:id">4</property>
  </entry>
  <entry producer="chain0" in="01:06:42.400" out="01:06:45.640">
   <property name="kdenlive:id">4</property>
  </entry>
  <entry producer="chain0" in="01:13:43.280" out="01:13:49.320">
   <property name="kdenlive:id">4</property>
  </entry>
  <entry producer="chain0" in="01:13:51.200" out="01:13:53.400">
   <property name="kdenlive:id">4</property>
  </entry>
  <entry producer="chain0" in="01:14:00.000" out="01:14:06.760">
   <property name="kdenlive:id">4</property>
  </entry>
  <entry producer="chain0" in="01:14:23.440" out="01:14:31.480">
   <property name="kdenlive:id">4</property>
  </entry>
  <entry producer="chain0" in="01:14:45.640" out="01:14:56.320">
   <property name="kdenlive:id">4</property>
  </entry>
  <entry producer="chain0" in="01:44:18.840" out="01:44:28.600">
   <property name="kdenlive:id">4</property>
  </entry>
  <entry producer="chain0" in="01:45:39.920" out="01:45:46.880">
   <property name="kdenlive:id">4</property>
  </entry>
  <entry producer="chain0" in="01:46:40.240" out="01:46:45.920">
   <property name="kdenlive:id">4</property>
  </entry>
  <entry producer="chain0" in="01:47:36.800" out="01:47:40.360">
   <property name="kdenlive:id">4</property>
  </entry>
 </playlist>
 <playlist id="playlist3">
  <property name="kdenlive:audio_track">1</property>
 </playlist>
 <tractor id="tractor1" in="00:00:00.000" out="00:05:19.560">
  <property name="kdenlive:audio_track">1</property>
  <property name="kdenlive:trackheight">67</property>
  <property name="kdenlive:timeline_active">1</property>
  <property name="kdenlive:collapsed">0</property>
  <property name="kdenlive:thumbs_format"/>
  <property name="kdenlive:audio_rec"/>
  <track hide="video" producer="playlist2"/>
  <track hide="video" producer="playlist3"/>
  <filter id="filter3">
   <property name="window">75</property>
   <property name="max_gain">20dB</property>
   <property name="mlt_service">volume</property>
   <property name="internal_added">237</property>
   <property name="disable">1</property>
  </filter>
  <filter id="filter4">
   <property name="channel">-1</property>
   <property name="mlt_service">panner</property>
   <property name="internal_added">237</property>
   <property name="start">0.5</property>
   <property name="disable">1</property>
  </filter>
  <filter id="filter5">
   <property name="iec_scale">0</property>
   <property name="mlt_service">audiolevel</property>
   <property name="dbpeak">1</property>
   <property name="disable">1</property>
  </filter>
 </tractor>
 <chain id="chain1" out="02:06:53.400">
  <property name="length">190336</property>
  <property name="eof">pause</property>
  <property name="resource">C:/dev/workspace/indy/dist/movie/content/extra/indy3.mp4</property>
  <property name="mlt_service">avformat-novalidate</property>
  <property name="seekable">1</property>
  <property name="audio_index">1</property>
  <property name="video_index">0</property>
  <property name="vstream">0</property>
  <property name="astream">0</property>
  <property name="kdenlive:folderid">-1</property>
  <property name="kdenlive:id">4</property>
  <property name="mute_on_pause">0</property>
  <property name="kdenlive:clip_type">0</property>
  <property name="kdenlive:file_size">1938671996</property>
  <property name="kdenlive:file_hash">a1529c5af1d373bc5a933cc7a6d426d2</property>
  <property name="kdenlive:audio_max1">229</property>
  <property name="meta.media.nb_streams">2</property>
  <property name="meta.media.0.stream.type">video</property>
  <property name="meta.media.0.stream.frame_rate">23.976</property>
  <property name="meta.media.0.stream.sample_aspect_ratio">0</property>
  <property name="meta.media.0.codec.width">1920</property>
  <property name="meta.media.0.codec.height">816</property>
  <property name="meta.media.0.codec.rotate">0</property>
  <property name="meta.media.0.codec.pix_fmt">yuv420p</property>
  <property name="meta.media.0.codec.sample_aspect_ratio">1</property>
  <property name="meta.media.0.codec.colorspace">709</property>
  <property name="meta.media.0.codec.name">h264</property>
  <property name="meta.media.0.codec.long_name">H.264 / AVC / MPEG-4 AVC / MPEG-4 part 10</property>
  <property name="meta.media.0.codec.bit_rate">1941061</property>
  <property name="meta.attr.0.stream.creation_time.markup">2012-09-11T13:17:07.000000Z</property>
  <property name="meta.attr.0.stream.vendor_id.markup">[0][0][0][0]</property>
  <property name="meta.media.1.stream.type">audio</property>
  <property name="meta.media.1.codec.sample_fmt">fltp</property>
  <property name="meta.media.1.codec.sample_rate">48000</property>
  <property name="meta.media.1.codec.channels">2</property>
  <property name="meta.media.1.codec.name">aac</property>
  <property name="meta.media.1.codec.long_name">AAC (Advanced Audio Coding)</property>
  <property name="meta.media.1.codec.bit_rate">92000</property>
  <property name="meta.attr.1.stream.creation_time.markup">2012-09-11T13:17:18.000000Z</property>
  <property name="meta.attr.1.stream.handler_name.markup">GPAC ISO Audio Handler</property>
  <property name="meta.attr.1.stream.vendor_id.markup">[0][0][0][0]</property>
  <property name="meta.attr.major_brand.markup">isom</property>
  <property name="meta.attr.minor_version.markup">1</property>
  <property name="meta.attr.compatible_brands.markup">isomavc1</property>
  <property name="meta.attr.creation_time.markup">2012-09-11T13:17:07.000000Z</property>
  <property name="meta.media.sample_aspect_num">1</property>
  <property name="meta.media.sample_aspect_den">1</property>
  <property name="meta.media.frame_rate_num">24000</property>
  <property name="meta.media.frame_rate_den">1001</property>
  <property name="meta.media.colorspace">709</property>
  <property name="meta.media.color_trc">2</property>
  <property name="meta.media.has_b_frames">2</property>
  <property name="meta.media.width">1920</property>
  <property name="meta.media.height">816</property>
  <property name="meta.media.color_range">mpeg</property>
  <property name="xml">was here</property>
  <property name="meta.media.top_field_first">0</property>
  <property name="meta.media.progressive">1</property>
  <property name="set.test_audio">1</property>
  <property name="set.test_image">0</property>
 </chain>
 <playlist id="playlist4">
  <entry producer="chain1" in="00:14:26.920" out="00:14:31.120">
   <property name="kdenlive:id">4</property>
  </entry>
  <entry producer="chain1" in="00:14:32.200" out="00:14:42.200">
   <property name="kdenlive:id">4</property>
  </entry>
  <entry producer="chain1" in="00:14:53.320" out="00:14:56.280">
   <property name="kdenlive:id">4</property>
  </entry>
  <entry producer="chain1" in="00:14:59.480" out="00:15:08.680">
   <property name="kdenlive:id">4</property>
  </entry>
  <entry producer="chain1" in="00:15:14.480" out="00:15:17.080">
   <property name="kdenlive:id">4</property>
  </entry>
  <entry producer="chain1" in="00:15:28.800" out="00:15:31.520">
   <property name="kdenlive:id">4</property>
  </entry>
  <entry producer="chain1" in="00:15:33.640" out="00:15:34.520">
   <property name="kdenlive:id">4</property>
  </entry>
  <entry producer="chain1" in="00:15:41.240" out="00:15:46.600">
   <property name="kdenlive:id">4</property>
  </entry>
  <entry producer="chain1" in="00:17:37.880" out="00:17:44.920">
   <property name="kdenlive:id">4</property>
  </entry>
  <entry producer="chain1" in="00:17:57.520" out="00:18:05.680">
   <property name="kdenlive:id">4</property>
  </entry>
  <entry producer="chain1" in="00:18:07.920" out="00:18:08.960">
   <property name="kdenlive:id">4</property>
  </entry>
  <entry producer="chain1" in="00:18:17.920" out="00:18:44.880">
   <property name="kdenlive:id">4</property>
  </entry>
  <entry producer="chain1" in="00:19:53.040" out="00:20:05.640">
   <property name="kdenlive:id">4</property>
  </entry>
  <entry producer="chain1" in="00:20:26.560" out="00:20:46.360">
   <property name="kdenlive:id">4</property>
  </entry>
  <entry producer="chain1" in="00:21:31.440" out="00:21:34.960">
   <property name="kdenlive:id">4</property>
  </entry>
  <entry producer="chain1" in="00:22:01.720" out="00:22:08.280">
   <property name="kdenlive:id">4</property>
  </entry>
  <entry producer="chain1" in="00:18:48.880" out="00:18:53.520">
   <property name="kdenlive:id">4</property>
  </entry>
  <entry producer="chain1" in="00:19:09.960" out="00:19:14.120">
   <property name="kdenlive:id">4</property>
  </entry>
  <entry producer="chain1" in="00:19:21.320" out="00:19:22.640">
   <property name="kdenlive:id">4</property>
  </entry>
  <entry producer="chain1" in="00:19:30.160" out="00:19:35.920">
   <property name="kdenlive:id">4</property>
  </entry>
  <entry producer="chain1" in="00:23:17.160" out="00:23:29.240">
   <property name="kdenlive:id">4</property>
  </entry>
  <entry producer="chain1" in="00:23:58.240" out="00:24:00.680">
   <property name="kdenlive:id">4</property>
  </entry>
  <entry producer="chain1" in="00:24:20.480" out="00:24:23.880">
   <property name="kdenlive:id">4</property>
  </entry>
  <entry producer="chain1" in="00:25:42.200" out="00:25:44.880">
   <property name="kdenlive:id">4</property>
  </entry>
  <entry producer="chain1" in="00:25:56.120" out="00:25:59.720">
   <property name="kdenlive:id">4</property>
  </entry>
  <entry producer="chain1" in="00:26:19.640" out="00:26:25.160">
   <property name="kdenlive:id">4</property>
  </entry>
  <entry producer="chain1" in="00:27:21.120" out="00:27:24.960">
   <property name="kdenlive:id">4</property>
  </entry>
  <entry producer="chain1" in="00:27:25.800" out="00:27:28.080">
   <property name="kdenlive:id">4</property>
  </entry>
  <entry producer="chain1" in="00:27:47.280" out="00:27:51.680">
   <property name="kdenlive:id">4</property>
  </entry>
  <entry producer="chain1" in="00:41:23.440" out="00:41:50.800">
   <property name="kdenlive:id">4</property>
  </entry>
  <entry producer="chain1" in="00:42:19.760" out="00:42:21.480">
   <property name="kdenlive:id">4</property>
  </entry>
  <entry producer="chain1" in="00:42:24.160" out="00:42:26.840">
   <property name="kdenlive:id">4</property>
  </entry>
  <entry producer="chain1" in="00:43:48.240" out="00:44:05.600">
   <property name="kdenlive:id">4</property>
  </entry>
  <entry producer="chain1" in="00:54:28.880" out="00:54:46.800">
   <property name="kdenlive:id">4</property>
  </entry>
  <entry producer="chain1" in="01:05:55.880" out="01:05:57.760">
   <property name="kdenlive:id">4</property>
  </entry>
  <entry producer="chain1" in="01:06:30.520" out="01:06:35.400">
   <property name="kdenlive:id">4</property>
  </entry>
  <entry producer="chain1" in="01:06:38.360" out="01:06:39.640">
   <property name="kdenlive:id">4</property>
  </entry>
  <entry producer="chain1" in="01:06:42.400" out="01:06:45.640">
   <property name="kdenlive:id">4</property>
  </entry>
  <entry producer="chain1" in="01:13:43.280" out="01:13:49.320">
   <property name="kdenlive:id">4</property>
  </entry>
  <entry producer="chain1" in="01:13:51.200" out="01:13:53.400">
   <property name="kdenlive:id">4</property>
  </entry>
  <entry producer="chain1" in="01:14:00.000" out="01:14:06.760">
   <property name="kdenlive:id">4</property>
  </entry>
  <entry producer="chain1" in="01:14:23.440" out="01:14:31.480">
   <property name="kdenlive:id">4</property>
  </entry>
  <entry producer="chain1" in="01:14:45.640" out="01:14:56.320">
   <property name="kdenlive:id">4</property>
  </entry>
  <entry producer="chain1" in="01:44:18.840" out="01:44:28.600">
   <property name="kdenlive:id">4</property>
  </entry>
  <entry producer="chain1" in="01:45:39.920" out="01:45:46.880">
   <property name="kdenlive:id">4</property>
  </entry>
  <entry producer="chain1" in="01:46:40.240" out="01:46:45.920">
   <property name="kdenlive:id">4</property>
  </entry>
  <entry producer="chain1" in="01:47:36.800" out="01:47:40.360">
   <property name="kdenlive:id">4</property>
  </entry>
 </playlist>
 <playlist id="playlist5"/>
 <tractor id="tractor2" in="00:00:00.000" out="00:05:19.560">
  <property name="kdenlive:trackheight">67</property>
  <property name="kdenlive:timeline_active">1</property>
  <property name="kdenlive:collapsed">0</property>
  <property name="kdenlive:thumbs_format"/>
  <property name="kdenlive:audio_rec"/>
  <track hide="audio" producer="playlist4"/>
  <track hide="audio" producer="playlist5"/>
 </tractor>
 <playlist id="playlist6"/>
 <playlist id="playlist7"/>
 <tractor id="tractor3" in="00:00:00.000">
  <property name="kdenlive:trackheight">67</property>
  <property name="kdenlive:timeline_active">1</property>
  <property name="kdenlive:collapsed">0</property>
  <property name="kdenlive:thumbs_format"/>
  <property name="kdenlive:audio_rec"/>
  <track hide="audio" producer="playlist6"/>
  <track hide="audio" producer="playlist7"/>
 </tractor>
 <tractor id="tractor4" in="00:00:00.000" out="00:05:19.560">
  <property name="kdenlive:duration">00:05:19:15</property>
  <property name="kdenlive:maxduration">7990</property>
  <property name="kdenlive:clipname">Sequence 1</property>
  <property name="kdenlive:description"/>
  <property name="kdenlive:uuid">{9aab6845-b13a-43dc-abdc-d5efe7d5df86}</property>
  <property name="kdenlive:producer_type">17</property>
  <property name="kdenlive:id">3</property>
  <property name="kdenlive:clip_type">0</property>
  <property name="kdenlive:file_hash">af60b591e6badeffcd78f09e9738ceca</property>
  <property name="kdenlive:folderid">2</property>
  <property name="kdenlive:sequenceproperties.activeTrack">2</property>
  <property name="kdenlive:sequenceproperties.audioTarget">1</property>
  <property name="kdenlive:sequenceproperties.disablepreview">0</property>
  <property name="kdenlive:sequenceproperties.documentuuid">{9aab6845-b13a-43dc-abdc-d5efe7d5df86}</property>
  <property name="kdenlive:sequenceproperties.hasAudio">1</property>
  <property name="kdenlive:sequenceproperties.hasVideo">1</property>
  <property name="kdenlive:sequenceproperties.position">3120</property>
  <property name="kdenlive:sequenceproperties.scrollPos">725</property>
  <property name="kdenlive:sequenceproperties.tracks">4</property>
  <property name="kdenlive:sequenceproperties.tracksCount">4</property>
  <property name="kdenlive:sequenceproperties.verticalzoom">1</property>
  <property name="kdenlive:sequenceproperties.videoTarget">2</property>
  <property name="kdenlive:sequenceproperties.zonein">956</property>
  <property name="kdenlive:sequenceproperties.zoneout">3106</property>
  <property name="kdenlive:sequenceproperties.zoom">8</property>
  <property name="kdenlive:sequenceproperties.groups">[
    {
        "children": [
            {
                "data": "2:4117",
                "leaf": "clip",
                "type": "Leaf"
            },
            {
                "data": "1:4117",
                "leaf": "clip",
                "type": "Leaf"
            }
        ],
        "type": "AVSplit"
    },
    {
        "children": [
            {
                "data": "2:4026",
                "leaf": "clip",
                "type": "Leaf"
            },
            {
                "data": "1:4026",
                "leaf": "clip",
                "type": "Leaf"
            }
        ],
        "type": "AVSplit"
    },
    {
        "children": [
            {
                "data": "2:3507",
                "leaf": "clip",
                "type": "Leaf"
            },
            {
                "data": "1:3507",
                "leaf": "clip",
                "type": "Leaf"
            }
        ],
        "type": "AVSplit"
    },
    {
        "children": [
            {
                "data": "2:2941",
                "leaf": "clip",
                "type": "Leaf"
            },
            {
                "data": "1:2941",
                "leaf": "clip",
                "type": "Leaf"
            }
        ],
        "type": "AVSplit"
    },
    {
        "children": [
            {
                "data": "1:3362",
                "leaf": "clip",
                "type": "Leaf"
            },
            {
                "data": "2:3362",
                "leaf": "clip",
                "type": "Leaf"
            }
        ],
        "type": "AVSplit"
    },
    {
        "children": [
            {
                "data": "1:7069",
                "leaf": "clip",
                "type": "Leaf"
            },
            {
                "data": "2:7069",
                "leaf": "clip",
                "type": "Leaf"
            }
        ],
        "type": "AVSplit"
    },
    {
        "children": [
            {
                "data": "1:3328",
                "leaf": "clip",
                "type": "Leaf"
            },
            {
                "data": "2:3328",
                "leaf": "clip",
                "type": "Leaf"
            }
        ],
        "type": "AVSplit"
    },
    {
        "children": [
            {
                "data": "1:6867",
                "leaf": "clip",
                "type": "Leaf"
            },
            {
                "data": "2:6867",
                "leaf": "clip",
                "type": "Leaf"
            }
        ],
        "type": "AVSplit"
    },
    {
        "children": [
            {
                "data": "2:4256",
                "leaf": "clip",
                "type": "Leaf"
            },
            {
                "data": "1:4256",
                "leaf": "clip",
                "type": "Leaf"
            }
        ],
        "type": "AVSplit"
    },
    {
        "children": [
            {
                "data": "1:0",
                "leaf": "clip",
                "type": "Leaf"
            },
            {
                "data": "2:0",
                "leaf": "clip",
                "type": "Leaf"
            }
        ],
        "type": "AVSplit"
    },
    {
        "children": [
            {
                "data": "1:3223",
                "leaf": "clip",
                "type": "Leaf"
            },
            {
                "data": "2:3223",
                "leaf": "clip",
                "type": "Leaf"
            }
        ],
        "type": "AVSplit"
    },
    {
        "children": [
            {
                "data": "1:6697",
                "leaf": "clip",
                "type": "Leaf"
            },
            {
                "data": "2:6697",
                "leaf": "clip",
                "type": "Leaf"
            }
        ],
        "type": "AVSplit"
    },
    {
        "children": [
            {
                "data": "1:3106",
                "leaf": "clip",
                "type": "Leaf"
            },
            {
                "data": "2:3106",
                "leaf": "clip",
                "type": "Leaf"
            }
        ],
        "type": "AVSplit"
    },
    {
        "children": [
            {
                "data": "2:3958",
                "leaf": "clip",
                "type": "Leaf"
            },
            {
                "data": "1:3958",
                "leaf": "clip",
                "type": "Leaf"
            }
        ],
        "type": "AVSplit"
    },
    {
        "children": [
            {
                "data": "2:5207",
                "leaf": "clip",
                "type": "Leaf"
            },
            {
                "data": "1:5207",
                "leaf": "clip",
                "type": "Leaf"
            }
        ],
        "type": "AVSplit"
    },
    {
        "children": [
            {
                "data": "2:1338",
                "leaf": "clip",
                "type": "Leaf"
            },
            {
                "data": "1:1338",
                "leaf": "clip",
                "type": "Leaf"
            }
        ],
        "type": "AVSplit"
    },
    {
        "children": [
            {
                "data": "2:2852",
                "leaf": "clip",
                "type": "Leaf"
            },
            {
                "data": "1:2852",
                "leaf": "clip",
                "type": "Leaf"
            }
        ],
        "type": "AVSplit"
    },
    {
        "children": [
            {
                "data": "2:798",
                "leaf": "clip",
                "type": "Leaf"
            },
            {
                "data": "1:798",
                "leaf": "clip",
                "type": "Leaf"
            }
        ],
        "type": "AVSplit"
    },
    {
        "children": [
            {
                "data": "2:4522",
                "leaf": "clip",
                "type": "Leaf"
            },
            {
                "data": "1:4522",
                "leaf": "clip",
                "type": "Leaf"
            }
        ],
        "type": "AVSplit"
    },
    {
        "children": [
            {
                "data": "2:432",
                "leaf": "clip",
                "type": "Leaf"
            },
            {
                "data": "1:432",
                "leaf": "clip",
                "type": "Leaf"
            }
        ],
        "type": "AVSplit"
    },
    {
        "children": [
            {
                "data": "2:6251",
                "leaf": "clip",
                "type": "Leaf"
            },
            {
                "data": "1:6251",
                "leaf": "clip",
                "type": "Leaf"
            }
        ],
        "type": "AVSplit"
    },
    {
        "children": [
            {
                "data": "1:956",
                "leaf": "clip",
                "type": "Leaf"
            },
            {
                "data": "2:956",
                "leaf": "clip",
                "type": "Leaf"
            }
        ],
        "type": "AVSplit"
    },
    {
        "children": [
            {
                "data": "2:3810",
                "leaf": "clip",
                "type": "Leaf"
            },
            {
                "data": "1:3810",
                "leaf": "clip",
                "type": "Leaf"
            }
        ],
        "type": "AVSplit"
    },
    {
        "children": [
            {
                "data": "2:6374",
                "leaf": "clip",
                "type": "Leaf"
            },
            {
                "data": "1:6374",
                "leaf": "clip",
                "type": "Leaf"
            }
        ],
        "type": "AVSplit"
    },
    {
        "children": [
            {
                "data": "1:1133",
                "leaf": "clip",
                "type": "Leaf"
            },
            {
                "data": "2:1133",
                "leaf": "clip",
                "type": "Leaf"
            }
        ],
        "type": "AVSplit"
    },
    {
        "children": [
            {
                "data": "2:3872",
                "leaf": "clip",
                "type": "Leaf"
            },
            {
                "data": "1:3872",
                "leaf": "clip",
                "type": "Leaf"
            }
        ],
        "type": "AVSplit"
    },
    {
        "children": [
            {
                "data": "2:6407",
                "leaf": "clip",
                "type": "Leaf"
            },
            {
                "data": "1:6407",
                "leaf": "clip",
                "type": "Leaf"
            }
        ],
        "type": "AVSplit"
    },
    {
        "children": [
            {
                "data": "2:5319",
                "leaf": "clip",
                "type": "Leaf"
            },
            {
                "data": "1:5319",
                "leaf": "clip",
                "type": "Leaf"
            }
        ],
        "type": "AVSplit"
    },
    {
        "children": [
            {
                "data": "2:7757",
                "leaf": "clip",
                "type": "Leaf"
            },
            {
                "data": "1:7757",
                "leaf": "clip",
                "type": "Leaf"
            }
        ],
        "type": "AVSplit"
    },
    {
        "children": [
            {
                "data": "1:6489",
                "leaf": "clip",
                "type": "Leaf"
            },
            {
                "data": "2:6489",
                "leaf": "clip",
                "type": "Leaf"
            }
        ],
        "type": "AVSplit"
    },
    {
        "children": [
            {
                "data": "1:1365",
                "leaf": "clip",
                "type": "Leaf"
            },
            {
                "data": "2:1365",
                "leaf": "clip",
                "type": "Leaf"
            }
        ],
        "type": "AVSplit"
    },
    {
        "children": [
            {
                "data": "2:5754",
                "leaf": "clip",
                "type": "Leaf"
            },
            {
                "data": "1:5754",
                "leaf": "clip",
                "type": "Leaf"
            }
        ],
        "type": "AVSplit"
    },
    {
        "children": [
            {
                "data": "2:7900",
                "leaf": "clip",
                "type": "Leaf"
            },
            {
                "data": "1:7900",
                "leaf": "clip",
                "type": "Leaf"
            }
        ],
        "type": "AVSplit"
    },
    {
        "children": [
            {
                "data": "1:6641",
                "leaf": "clip",
                "type": "Leaf"
            },
            {
                "data": "2:6641",
                "leaf": "clip",
                "type": "Leaf"
            }
        ],
        "type": "AVSplit"
    },
    {
        "children": [
            {
                "data": "2:5251",
                "leaf": "clip",
                "type": "Leaf"
            },
            {
                "data": "1:5251",
                "leaf": "clip",
                "type": "Leaf"
            }
        ],
        "type": "AVSplit"
    },
    {
        "children": [
            {
                "data": "2:7582",
                "leaf": "clip",
                "type": "Leaf"
            },
            {
                "data": "1:7582",
                "leaf": "clip",
                "type": "Leaf"
            }
        ],
        "type": "AVSplit"
    },
    {
        "children": [
            {
                "data": "2:729",
                "leaf": "clip",
                "type": "Leaf"
            },
            {
                "data": "1:729",
                "leaf": "clip",
                "type": "Leaf"
            }
        ],
        "type": "AVSplit"
    },
    {
        "children": [
            {
                "data": "2:2356",
                "leaf": "clip",
                "type": "Leaf"
            },
            {
                "data": "1:2356",
                "leaf": "clip",
                "type": "Leaf"
            }
        ],
        "type": "AVSplit"
    },
    {
        "children": [
            {
                "data": "1:7337",
                "leaf": "clip",
                "type": "Leaf"
            },
            {
                "data": "2:7337",
                "leaf": "clip",
                "type": "Leaf"
            }
        ],
        "type": "AVSplit"
    },
    {
        "children": [
            {
                "data": "2:6203",
                "leaf": "clip",
                "type": "Leaf"
            },
            {
                "data": "1:6203",
                "leaf": "clip",
                "type": "Leaf"
            }
        ],
        "type": "AVSplit"
    },
    {
        "children": [
            {
                "data": "1:821",
                "leaf": "clip",
                "type": "Leaf"
            },
            {
                "data": "2:821",
                "leaf": "clip",
                "type": "Leaf"
            }
        ],
        "type": "AVSplit"
    },
    {
        "children": [
            {
                "data": "2:663",
                "leaf": "clip",
                "type": "Leaf"
            },
            {
                "data": "1:663",
                "leaf": "clip",
                "type": "Leaf"
            }
        ],
        "type": "AVSplit"
    },
    {
        "children": [
            {
                "data": "1:2040",
                "leaf": "clip",
                "type": "Leaf"
            },
            {
                "data": "2:2040",
                "leaf": "clip",
                "type": "Leaf"
            }
        ],
        "type": "AVSplit"
    },
    {
        "children": [
            {
                "data": "2:4411",
                "leaf": "clip",
                "type": "Leaf"
            },
            {
                "data": "1:4411",
                "leaf": "clip",
                "type": "Leaf"
            }
        ],
        "type": "AVSplit"
    },
    {
        "children": [
            {
                "data": "1:357",
                "leaf": "clip",
                "type": "Leaf"
            },
            {
                "data": "2:357",
                "leaf": "clip",
                "type": "Leaf"
            }
        ],
        "type": "AVSplit"
    },
    {
        "children": [
            {
                "data": "2:4353",
                "leaf": "clip",
                "type": "Leaf"
            },
            {
                "data": "1:4353",
                "leaf": "clip",
                "type": "Leaf"
            }
        ],
        "type": "AVSplit"
    },
    {
        "children": [
            {
                "data": "1:106",
                "leaf": "clip",
                "type": "Leaf"
            },
            {
                "data": "2:106",
                "leaf": "clip",
                "type": "Leaf"
            }
        ],
        "type": "AVSplit"
    }
]
</property>
  <property name="kdenlive:sequenceproperties.guides">[
]
</property>
  <track producer="producer0"/>
  <track producer="tractor0"/>
  <track producer="tractor1"/>
  <track producer="tractor2"/>
  <track producer="tractor3"/>
  <transition id="transition0">
   <property name="a_track">0</property>
   <property name="b_track">1</property>
   <property name="mlt_service">mix</property>
   <property name="kdenlive_id">mix</property>
   <property name="internal_added">237</property>
   <property name="always_active">1</property>
   <property name="accepts_blanks">1</property>
   <property name="sum">1</property>
  </transition>
  <transition id="transition1">
   <property name="a_track">0</property>
   <property name="b_track">2</property>
   <property name="mlt_service">mix</property>
   <property name="kdenlive_id">mix</property>
   <property name="internal_added">237</property>
   <property name="always_active">1</property>
   <property name="accepts_blanks">1</property>
   <property name="sum">1</property>
  </transition>
  <transition id="transition2">
   <property name="a_track">0</property>
   <property name="b_track">3</property>
   <property name="compositing">0</property>
   <property name="distort">0</property>
   <property name="rotate_center">0</property>
   <property name="mlt_service">qtblend</property>
   <property name="always_active">1</property>
   <property name="internal_added">237</property>
  </transition>
  <transition id="transition3">
   <property name="a_track">0</property>
   <property name="b_track">4</property>
   <property name="compositing">0</property>
   <property name="distort">0</property>
   <property name="rotate_center">0</property>
   <property name="mlt_service">qtblend</property>
   <property name="always_active">1</property>
   <property name="internal_added">237</property>
  </transition>
  <filter id="filter6">
   <property name="window">75</property>
   <property name="max_gain">20dB</property>
   <property name="mlt_service">volume</property>
   <property name="internal_added">237</property>
   <property name="disable">1</property>
  </filter>
  <filter id="filter7">
   <property name="channel">-1</property>
   <property name="mlt_service">panner</property>
   <property name="internal_added">237</property>
   <property name="start">0.5</property>
   <property name="disable">1</property>
  </filter>
 </tractor>
 <chain id="chain2" out="02:06:53.400">
  <property name="length">190336</property>
  <property name="eof">pause</property>
  <property name="resource">C:/dev/workspace/indy/dist/movie/content/extra/indy3.mp4</property>
  <property name="mlt_service">avformat-novalidate</property>
  <property name="meta.media.nb_streams">2</property>
  <property name="meta.media.0.stream.type">video</property>
  <property name="meta.media.0.stream.frame_rate">23.976</property>
  <property name="meta.media.0.stream.sample_aspect_ratio">0</property>
  <property name="meta.media.0.codec.width">1920</property>
  <property name="meta.media.0.codec.height">816</property>
  <property name="meta.media.0.codec.rotate">0</property>
  <property name="meta.media.0.codec.pix_fmt">yuv420p</property>
  <property name="meta.media.0.codec.sample_aspect_ratio">1</property>
  <property name="meta.media.0.codec.colorspace">709</property>
  <property name="meta.media.0.codec.name">h264</property>
  <property name="meta.media.0.codec.long_name">H.264 / AVC / MPEG-4 AVC / MPEG-4 part 10</property>
  <property name="meta.media.0.codec.bit_rate">1941061</property>
  <property name="meta.attr.0.stream.creation_time.markup">2012-09-11T13:17:07.000000Z</property>
  <property name="meta.attr.0.stream.vendor_id.markup">[0][0][0][0]</property>
  <property name="meta.media.1.stream.type">audio</property>
  <property name="meta.media.1.codec.sample_fmt">fltp</property>
  <property name="meta.media.1.codec.sample_rate">48000</property>
  <property name="meta.media.1.codec.channels">2</property>
  <property name="meta.media.1.codec.name">aac</property>
  <property name="meta.media.1.codec.long_name">AAC (Advanced Audio Coding)</property>
  <property name="meta.media.1.codec.bit_rate">92000</property>
  <property name="meta.attr.1.stream.creation_time.markup">2012-09-11T13:17:18.000000Z</property>
  <property name="meta.attr.1.stream.handler_name.markup">GPAC ISO Audio Handler</property>
  <property name="meta.attr.1.stream.vendor_id.markup">[0][0][0][0]</property>
  <property name="meta.attr.major_brand.markup">isom</property>
  <property name="meta.attr.minor_version.markup">1</property>
  <property name="meta.attr.compatible_brands.markup">isomavc1</property>
  <property name="meta.attr.creation_time.markup">2012-09-11T13:17:07.000000Z</property>
  <property name="seekable">1</property>
  <property name="meta.media.sample_aspect_num">1</property>
  <property name="meta.media.sample_aspect_den">1</property>
  <property name="audio_index">1</property>
  <property name="video_index">0</property>
  <property name="vstream">0</property>
  <property name="meta.media.frame_rate_num">24000</property>
  <property name="meta.media.frame_rate_den">1001</property>
  <property name="meta.media.colorspace">709</property>
  <property name="meta.media.color_trc">2</property>
  <property name="meta.media.has_b_frames">2</property>
  <property name="meta.media.width">1920</property>
  <property name="meta.media.height">816</property>
  <property name="meta.media.color_range">mpeg</property>
  <property name="astream">0</property>
  <property name="meta.media.top_field_first">0</property>
  <property name="meta.media.progressive">1</property>
  <property name="kdenlive:folderid">-1</property>
  <property name="kdenlive:id">4</property>
  <property name="mute_on_pause">0</property>
  <property name="kdenlive:clip_type">0</property>
  <property name="kdenlive:file_size">1938671996</property>
  <property name="kdenlive:file_hash">a1529c5af1d373bc5a933cc7a6d426d2</property>
  <property name="kdenlive:audio_max1">229</property>
 </chain>
 <playlist id="main_bin">
  <property name="kdenlive:folder.-1.2">Sequences</property>
  <property name="kdenlive:sequenceFolder">2</property>
  <property name="kdenlive:docproperties.activetimeline">{9aab6845-b13a-43dc-abdc-d5efe7d5df86}</property>
  <property name="kdenlive:docproperties.audioChannels">2</property>
  <property name="kdenlive:docproperties.browserurl">C:/Users/barnaud/Videos/</property>
  <property name="kdenlive:docproperties.compositing">1</property>
  <property name="kdenlive:docproperties.documentid">1729784266033</property>
  <property name="kdenlive:docproperties.enableTimelineZone">0</property>
  <property name="kdenlive:docproperties.enableexternalproxy">0</property>
  <property name="kdenlive:docproperties.enableproxy">0</property>
  <property name="kdenlive:docproperties.externalproxyparams"/>
  <property name="kdenlive:docproperties.generateimageproxy">0</property>
  <property name="kdenlive:docproperties.generateproxy">0</property>
  <property name="kdenlive:docproperties.guidesCategories">[&#xd;
    {&#xd;
        "color": "#9b59b6",&#xd;
        "comment": "Category 1",&#xd;
        "index": 0&#xd;
    },&#xd;
    {&#xd;
        "color": "#3daee9",&#xd;
        "comment": "Category 2",&#xd;
        "index": 1&#xd;
    },&#xd;
    {&#xd;
        "color": "#1abc9c",&#xd;
        "comment": "Category 3",&#xd;
        "index": 2&#xd;
    },&#xd;
    {&#xd;
        "color": "#1cdc9a",&#xd;
        "comment": "Category 4",&#xd;
        "index": 3&#xd;
    },&#xd;
    {&#xd;
        "color": "#c9ce3b",&#xd;
        "comment": "Category 5",&#xd;
        "index": 4&#xd;
    },&#xd;
    {&#xd;
        "color": "#fdbc4b",&#xd;
        "comment": "Category 6",&#xd;
        "index": 5&#xd;
    },&#xd;
    {&#xd;
        "color": "#f39c1f",&#xd;
        "comment": "Category 7",&#xd;
        "index": 6&#xd;
    },&#xd;
    {&#xd;
        "color": "#f47750",&#xd;
        "comment": "Category 8",&#xd;
        "index": 7&#xd;
    },&#xd;
    {&#xd;
        "color": "#da4453",&#xd;
        "comment": "Category 9",&#xd;
        "index": 8&#xd;
    }&#xd;
]&#xd;
</property>
  <property name="kdenlive:docproperties.kdenliveversion">23.08.5</property>
  <property name="kdenlive:docproperties.opensequences">{9aab6845-b13a-43dc-abdc-d5efe7d5df86}</property>
  <property name="kdenlive:docproperties.previewextension"/>
  <property name="kdenlive:docproperties.previewparameters"/>
  <property name="kdenlive:docproperties.profile">atsc_1080p_25</property>
  <property name="kdenlive:docproperties.proxyextension"/>
  <property name="kdenlive:docproperties.proxyimageminsize">2000</property>
  <property name="kdenlive:docproperties.proxyimagesize">800</property>
  <property name="kdenlive:docproperties.proxyminsize">1000</property>
  <property name="kdenlive:docproperties.proxyparams"/>
  <property name="kdenlive:docproperties.proxyresize">640</property>
  <property name="kdenlive:docproperties.seekOffset">30000</property>
  <property name="kdenlive:docproperties.uuid">{9aab6845-b13a-43dc-abdc-d5efe7d5df86}</property>
  <property name="kdenlive:docproperties.version">1.1</property>
  <property name="kdenlive:expandedFolders"/>
  <property name="kdenlive:binZoom">4</property>
  <property name="kdenlive:documentnotes"/>
  <property name="kdenlive:docproperties.rendercategory">Audio only</property>
  <property name="kdenlive:docproperties.rendercustomquality">-1</property>
  <property name="kdenlive:docproperties.renderendguide">-1</property>
  <property name="kdenlive:docproperties.renderexportaudio">0</property>
  <property name="kdenlive:docproperties.renderfullcolorrange">0</property>
  <property name="kdenlive:docproperties.rendermode">1</property>
  <property name="kdenlive:docproperties.renderplay">0</property>
  <property name="kdenlive:docproperties.renderpreview">0</property>
  <property name="kdenlive:docproperties.renderprofile">MP3</property>
  <property name="kdenlive:docproperties.renderrescale">0</property>
  <property name="kdenlive:docproperties.renderrescaleheight">540</property>
  <property name="kdenlive:docproperties.renderrescalewidth">960</property>
  <property name="kdenlive:docproperties.renderspeed">1</property>
  <property name="kdenlive:docproperties.renderstartguide">-1</property>
  <property name="kdenlive:docproperties.rendertcoverlay">0</property>
  <property name="kdenlive:docproperties.rendertctype">-1</property>
  <property name="kdenlive:docproperties.rendertwopass">0</property>
  <property name="kdenlive:docproperties.renderurl">voice/neutral2.mp3</property>
  <property name="xml_retain">1</property>
  <entry producer="tractor4" in="00:00:00.000" out="00:00:00.000"/>
  <entry producer="chain2" in="00:00:00.000" out="02:06:53.400"/>
 </playlist>
 <tractor id="tractor5" in="00:00:00.000" out="00:05:19.560">
  <property name="kdenlive:projectTractor">1</property>
  <track producer="tractor4" in="00:00:00.000" out="00:05:19.560"/>
 </tractor>
</mlt>
