<?xml version='1.0' encoding='utf-8'?>
<mlt LC_NUMERIC="en_US.UTF-8" producer="main_bin" root="C:/dev/workspace/indy/dist/movie/data" version="7.32.0">
 <profile colorspace="709" description="Cinemascope 2160p 24 fps" display_aspect_den="18" display_aspect_num="43" frame_rate_den="1" frame_rate_num="24" height="2160" progressive="1" sample_aspect_den="1" sample_aspect_num="1" width="5160"/>
 <chain id="chain178" out="00:01:44.333">
  <property name="length">2505</property>
  <property name="eof">pause</property>
  <property name="resource">C:/dev/workspace/indy/dist/room/intro/content/audio/rain.mp3</property>
  <property name="mlt_service">avformat</property>
  <property name="meta.media.nb_streams">1</property>
  <property name="meta.media.0.stream.type">audio</property>
  <property name="meta.media.0.codec.sample_fmt">fltp</property>
  <property name="meta.media.0.codec.sample_rate">44100</property>
  <property name="meta.media.0.codec.channels">2</property>
  <property name="meta.media.0.codec.layout">stereo</property>
  <property name="meta.media.0.codec.name">mp3float</property>
  <property name="meta.media.0.codec.long_name">MP3 (MPEG audio layer 3)</property>
  <property name="meta.media.0.codec.bit_rate">256000</property>
  <property name="seekable">1</property>
  <property name="audio_index">0</property>
  <property name="video_index">-1</property>
  <property name="astream">0</property>
  <property name="kdenlive:control_uuid">{41a4f9d8-296e-4001-994e-cbcc059c7e21}</property>
  <property name="kdenlive:id">4</property>
  <property name="kdenlive:clip_type">1</property>
  <property name="kdenlive:file_size">3339493</property>
  <property name="kdenlive:file_hash">88c51648872e5e4a4a4e5d3f220a7d84</property>
  <property name="kdenlive:folderid">-1</property>
  <property name="kdenlive:monitorPosition">0</property>
 </chain>
 <chain id="chain182" out="00:00:05.042">
  <property name="length">122</property>
  <property name="eof">pause</property>
  <property name="resource">C:/dev/workspace/indy/dist/room/attic/content/upscale/splash3.mp4</property>
  <property name="mlt_service">avformat-novalidate</property>
  <property name="meta.media.nb_streams">1</property>
  <property name="meta.media.0.stream.type">video</property>
  <property name="meta.media.0.stream.frame_rate">60</property>
  <property name="meta.media.0.stream.sample_aspect_ratio">0</property>
  <property name="meta.media.0.codec.width">3840</property>
  <property name="meta.media.0.codec.height">2160</property>
  <property name="meta.media.0.codec.rotate">0</property>
  <property name="meta.media.0.codec.pix_fmt">yuv444p</property>
  <property name="meta.media.0.codec.sample_aspect_ratio">0</property>
  <property name="meta.media.0.codec.colorspace">709</property>
  <property name="meta.media.0.codec.name">h264</property>
  <property name="meta.media.0.codec.long_name">H.264 / AVC / MPEG-4 AVC / MPEG-4 part 10</property>
  <property name="meta.media.0.codec.bit_rate">20663921</property>
  <property name="meta.attr.0.stream.handler_name.markup">VideoHandler</property>
  <property name="meta.attr.0.stream.vendor_id.markup">[0][0][0][0]</property>
  <property name="meta.attr.0.stream.encoder.markup">Lavc61.19.101 libx264</property>
  <property name="meta.attr.minor_version.markup">512</property>
  <property name="meta.attr.major_brand.markup">isom</property>
  <property name="meta.attr.compatible_brands.markup">isomiso2avc1mp41</property>
  <property name="meta.attr.encoder.markup">Lavf61.9.100</property>
  <property name="seekable">1</property>
  <property name="meta.media.sample_aspect_num">1</property>
  <property name="meta.media.sample_aspect_den">1</property>
  <property name="audio_index">-1</property>
  <property name="video_index">0</property>
  <property name="vstream">0</property>
  <property name="meta.media.frame_rate_num">60</property>
  <property name="meta.media.frame_rate_den">1</property>
  <property name="meta.media.colorspace">709</property>
  <property name="meta.media.color_trc">2</property>
  <property name="meta.media.has_b_frames">2</property>
  <property name="meta.media.width">3840</property>
  <property name="meta.media.height">2160</property>
  <property name="meta.media.aspect_ratio">1</property>
  <property name="meta.media.color_range">mpeg</property>
  <property name="meta.media.top_field_first">0</property>
  <property name="meta.media.progressive">1</property>
  <property name="kdenlive:control_uuid">{12881b2c-ffa9-4d90-8ed0-0884967af2a3}</property>
  <property name="kdenlive:id">5</property>
  <property name="kdenlive:clip_type">2</property>
  <property name="kdenlive:file_size">13178089</property>
  <property name="kdenlive:file_hash">b3c8d8006b85fdde4229ecd99517e18a</property>
  <property name="kdenlive:folderid">-1</property>
  <property name="mute_on_pause">0</property>
  <property name="kdenlive:monitorPosition">0</property>
 </chain>
 <chain id="chain180" out="00:00:03.000">
  <property name="length">73</property>
  <property name="eof">pause</property>
  <property name="resource">C:/dev/workspace/indy/dist/room/attic/content/audio/splash2.mp3</property>
  <property name="mlt_service">avformat</property>
  <property name="meta.media.nb_streams">1</property>
  <property name="meta.media.0.stream.type">audio</property>
  <property name="meta.media.0.codec.sample_fmt">fltp</property>
  <property name="meta.media.0.codec.sample_rate">44100</property>
  <property name="meta.media.0.codec.channels">2</property>
  <property name="meta.media.0.codec.layout">stereo</property>
  <property name="meta.media.0.codec.name">mp3float</property>
  <property name="meta.media.0.codec.long_name">MP3 (MPEG audio layer 3)</property>
  <property name="meta.media.0.codec.bit_rate">320000</property>
  <property name="seekable">1</property>
  <property name="audio_index">0</property>
  <property name="video_index">-1</property>
  <property name="astream">0</property>
  <property name="kdenlive:control_uuid">{70d2989b-d674-41b3-885e-f43c0f3e5042}</property>
  <property name="kdenlive:id">6</property>
  <property name="kdenlive:clip_type">1</property>
  <property name="kdenlive:file_size">122253</property>
  <property name="kdenlive:file_hash">8a78e8a526a6dee69ddf8924eac22dce</property>
  <property name="kdenlive:folderid">-1</property>
  <property name="kdenlive:monitorPosition">0</property>
 </chain>
 <chain id="chain32" out="00:00:05.042">
  <property name="length">122</property>
  <property name="eof">pause</property>
  <property name="resource">C:/dev/workspace/indy/dist/room/attic/content/upscale/indy4.mp4</property>
  <property name="mlt_service">avformat-novalidate</property>
  <property name="meta.media.nb_streams">1</property>
  <property name="meta.media.0.stream.type">video</property>
  <property name="meta.media.0.stream.frame_rate">60</property>
  <property name="meta.media.0.stream.sample_aspect_ratio">0</property>
  <property name="meta.media.0.codec.width">3840</property>
  <property name="meta.media.0.codec.height">2160</property>
  <property name="meta.media.0.codec.rotate">0</property>
  <property name="meta.media.0.codec.pix_fmt">yuv444p</property>
  <property name="meta.media.0.codec.sample_aspect_ratio">0</property>
  <property name="meta.media.0.codec.colorspace">709</property>
  <property name="meta.media.0.codec.name">h264</property>
  <property name="meta.media.0.codec.long_name">H.264 / AVC / MPEG-4 AVC / MPEG-4 part 10</property>
  <property name="meta.media.0.codec.bit_rate">25151217</property>
  <property name="meta.attr.0.stream.handler_name.markup">VideoHandler</property>
  <property name="meta.attr.0.stream.vendor_id.markup">[0][0][0][0]</property>
  <property name="meta.attr.0.stream.encoder.markup">Lavc61.19.101 libx264</property>
  <property name="meta.attr.minor_version.markup">512</property>
  <property name="meta.attr.major_brand.markup">isom</property>
  <property name="meta.attr.compatible_brands.markup">isomiso2avc1mp41</property>
  <property name="meta.attr.encoder.markup">Lavf61.9.100</property>
  <property name="seekable">1</property>
  <property name="meta.media.sample_aspect_num">1</property>
  <property name="meta.media.sample_aspect_den">1</property>
  <property name="audio_index">-1</property>
  <property name="video_index">0</property>
  <property name="vstream">0</property>
  <property name="meta.media.frame_rate_num">60</property>
  <property name="meta.media.frame_rate_den">1</property>
  <property name="meta.media.colorspace">709</property>
  <property name="meta.media.color_trc">2</property>
  <property name="meta.media.has_b_frames">2</property>
  <property name="meta.media.width">3840</property>
  <property name="meta.media.height">2160</property>
  <property name="meta.media.aspect_ratio">1</property>
  <property name="meta.media.color_range">mpeg</property>
  <property name="meta.media.top_field_first">0</property>
  <property name="meta.media.progressive">1</property>
  <property name="kdenlive:control_uuid">{ce655b94-4300-4aac-bd7a-4dd698a98a9e}</property>
  <property name="kdenlive:id">7</property>
  <property name="kdenlive:clip_type">2</property>
  <property name="kdenlive:file_size">16038816</property>
  <property name="kdenlive:file_hash">af91ed30e01f89cbe98ae653e1570e59</property>
  <property name="kdenlive:folderid">-1</property>
  <property name="kdenlive:monitorPosition">1</property>
  <property name="mute_on_pause">0</property>
 </chain>
 <chain id="chain184" out="00:00:05.125">
  <property name="length">124</property>
  <property name="eof">pause</property>
  <property name="resource">C:/dev/workspace/indy/dist/room/attic/content/audio/step.mp4</property>
  <property name="mlt_service">avformat-novalidate</property>
  <property name="meta.media.nb_streams">2</property>
  <property name="meta.media.0.stream.type">video</property>
  <property name="meta.media.0.stream.frame_rate">30</property>
  <property name="meta.media.0.stream.sample_aspect_ratio">0</property>
  <property name="meta.media.0.codec.width">1344</property>
  <property name="meta.media.0.codec.height">704</property>
  <property name="meta.media.0.codec.rotate">0</property>
  <property name="meta.media.0.codec.pix_fmt">yuv420p</property>
  <property name="meta.media.0.codec.sample_aspect_ratio">0</property>
  <property name="meta.media.0.codec.colorspace">709</property>
  <property name="meta.media.0.codec.name">h264</property>
  <property name="meta.media.0.codec.long_name">H.264 / AVC / MPEG-4 AVC / MPEG-4 part 10</property>
  <property name="meta.media.0.codec.bit_rate">1551651</property>
  <property name="meta.attr.0.stream.handler_name.markup">VideoHandler</property>
  <property name="meta.attr.0.stream.vendor_id.markup">[0][0][0][0]</property>
  <property name="meta.attr.0.stream.encoder.markup">Lavc59.37.100 libx264</property>
  <property name="meta.media.1.stream.type">audio</property>
  <property name="meta.media.1.codec.sample_fmt">fltp</property>
  <property name="meta.media.1.codec.sample_rate">44100</property>
  <property name="meta.media.1.codec.channels">2</property>
  <property name="meta.media.1.codec.layout">stereo</property>
  <property name="meta.media.1.codec.name">aac</property>
  <property name="meta.media.1.codec.long_name">AAC (Advanced Audio Coding)</property>
  <property name="meta.media.1.codec.bit_rate">127768</property>
  <property name="meta.attr.1.stream.handler_name.markup">SoundHandler</property>
  <property name="meta.attr.1.stream.vendor_id.markup">[0][0][0][0]</property>
  <property name="meta.attr.major_brand.markup">isom</property>
  <property name="meta.attr.minor_version.markup">512</property>
  <property name="meta.attr.compatible_brands.markup">isomiso2avc1mp41</property>
  <property name="meta.attr.encoder.markup">Lavf59.27.100</property>
  <property name="seekable">1</property>
  <property name="meta.media.sample_aspect_num">1</property>
  <property name="meta.media.sample_aspect_den">1</property>
  <property name="audio_index">1</property>
  <property name="video_index">0</property>
  <property name="vstream">0</property>
  <property name="meta.media.frame_rate_num">30</property>
  <property name="meta.media.frame_rate_den">1</property>
  <property name="meta.media.colorspace">709</property>
  <property name="meta.media.color_trc">2</property>
  <property name="meta.media.has_b_frames">2</property>
  <property name="meta.media.width">1344</property>
  <property name="meta.media.height">704</property>
  <property name="meta.media.aspect_ratio">1</property>
  <property name="meta.media.color_range">mpeg</property>
  <property name="astream">0</property>
  <property name="meta.media.top_field_first">0</property>
  <property name="meta.media.progressive">1</property>
  <property name="kdenlive:control_uuid">{63f6c619-4b36-4593-bba8-f8d992bf690a}</property>
  <property name="kdenlive:id">8</property>
  <property name="kdenlive:clip_type">0</property>
  <property name="kdenlive:file_size">1078682</property>
  <property name="kdenlive:file_hash">3c52f0f3046ecfdec5ff1e0103da3929</property>
  <property name="kdenlive:folderid">-1</property>
  <property name="mute_on_pause">0</property>
  <property name="kdenlive:monitorPosition">0</property>
 </chain>
 <chain id="chain87" out="00:03:11.125">
  <property name="length">4588</property>
  <property name="eof">pause</property>
  <property name="resource">C:/dev/workspace/indy/dist/room/attic/content/music/extra/attic.webm</property>
  <property name="mlt_service">avformat</property>
  <property name="meta.media.nb_streams">1</property>
  <property name="meta.media.0.stream.type">audio</property>
  <property name="meta.media.0.codec.sample_fmt">fltp</property>
  <property name="meta.media.0.codec.sample_rate">48000</property>
  <property name="meta.media.0.codec.channels">2</property>
  <property name="meta.media.0.codec.layout">stereo</property>
  <property name="meta.media.0.codec.name">opus</property>
  <property name="meta.media.0.codec.long_name">Opus</property>
  <property name="meta.media.0.codec.bit_rate">0</property>
  <property name="meta.attr.0.stream.language.markup">eng</property>
  <property name="meta.attr.encoder.markup">google/video-file</property>
  <property name="seekable">1</property>
  <property name="audio_index">0</property>
  <property name="video_index">-1</property>
  <property name="astream">0</property>
  <property name="kdenlive:control_uuid">{22fe6f39-d0dd-4b45-8ebb-baad72f54cbe}</property>
  <property name="kdenlive:id">9</property>
  <property name="kdenlive:clip_type">1</property>
  <property name="kdenlive:file_size">3420074</property>
  <property name="kdenlive:file_hash">029e4f8308d83085556e81b95e7c3d37</property>
  <property name="kdenlive:folderid">-1</property>
  <property name="kdenlive:monitorPosition">0</property>
 </chain>
 <chain id="chain86" out="00:00:04.625">
  <property name="length">112</property>
  <property name="eof">pause</property>
  <property name="resource">C:/dev/workspace/indy/dist/room/attic/content/voice/attic.mp3</property>
  <property name="mlt_service">avformat</property>
  <property name="meta.media.nb_streams">1</property>
  <property name="meta.media.0.stream.type">audio</property>
  <property name="meta.media.0.codec.sample_fmt">fltp</property>
  <property name="meta.media.0.codec.sample_rate">44100</property>
  <property name="meta.media.0.codec.channels">1</property>
  <property name="meta.media.0.codec.layout">mono</property>
  <property name="meta.media.0.codec.name">mp3float</property>
  <property name="meta.media.0.codec.long_name">MP3 (MPEG audio layer 3)</property>
  <property name="meta.media.0.codec.bit_rate">64000</property>
  <property name="meta.attr.encoder.markup">Lavf61.1.100</property>
  <property name="seekable">1</property>
  <property name="audio_index">0</property>
  <property name="video_index">-1</property>
  <property name="astream">0</property>
  <property name="kdenlive:control_uuid">{57672c5f-1023-45b1-8937-57b0b6ad316f}</property>
  <property name="kdenlive:id">10</property>
  <property name="kdenlive:clip_type">1</property>
  <property name="kdenlive:file_size">37424</property>
  <property name="kdenlive:file_hash">c4fd485530845196267c27f7a6e84346</property>
  <property name="kdenlive:folderid">-1</property>
  <property name="kdenlive:monitorPosition">0</property>
 </chain>
 <chain id="chain89" out="00:00:03.417">
  <property name="length">83</property>
  <property name="eof">pause</property>
  <property name="resource">C:/dev/workspace/indy/dist/room/attic/content/voice/attic2.mp3</property>
  <property name="mlt_service">avformat</property>
  <property name="meta.media.nb_streams">1</property>
  <property name="meta.media.0.stream.type">audio</property>
  <property name="meta.media.0.codec.sample_fmt">fltp</property>
  <property name="meta.media.0.codec.sample_rate">44100</property>
  <property name="meta.media.0.codec.channels">1</property>
  <property name="meta.media.0.codec.layout">mono</property>
  <property name="meta.media.0.codec.name">mp3float</property>
  <property name="meta.media.0.codec.long_name">MP3 (MPEG audio layer 3)</property>
  <property name="meta.media.0.codec.bit_rate">64000</property>
  <property name="meta.attr.encoder.markup">Lavf61.1.100</property>
  <property name="seekable">1</property>
  <property name="audio_index">0</property>
  <property name="video_index">-1</property>
  <property name="astream">0</property>
  <property name="kdenlive:control_uuid">{904963ca-6fda-4734-a78a-965d1bf42d52}</property>
  <property name="kdenlive:id">11</property>
  <property name="kdenlive:clip_type">1</property>
  <property name="kdenlive:file_size">27811</property>
  <property name="kdenlive:file_hash">b23fa849adfde6ceac045a8e3aa2ce0f</property>
  <property name="kdenlive:folderid">-1</property>
  <property name="kdenlive:monitorPosition">0</property>
 </chain>
 <chain id="chain91" out="00:00:03.708">
  <property name="length">90</property>
  <property name="eof">pause</property>
  <property name="resource">C:/dev/workspace/indy/dist/room/attic/content/voice/attic3.mp3</property>
  <property name="mlt_service">avformat</property>
  <property name="meta.media.nb_streams">1</property>
  <property name="meta.media.0.stream.type">audio</property>
  <property name="meta.media.0.codec.sample_fmt">fltp</property>
  <property name="meta.media.0.codec.sample_rate">44100</property>
  <property name="meta.media.0.codec.channels">1</property>
  <property name="meta.media.0.codec.layout">mono</property>
  <property name="meta.media.0.codec.name">mp3float</property>
  <property name="meta.media.0.codec.long_name">MP3 (MPEG audio layer 3)</property>
  <property name="meta.media.0.codec.bit_rate">64000</property>
  <property name="meta.attr.encoder.markup">Lavf61.1.100</property>
  <property name="seekable">1</property>
  <property name="audio_index">0</property>
  <property name="video_index">-1</property>
  <property name="astream">0</property>
  <property name="kdenlive:control_uuid">{a3a68f41-6486-4180-baf7-bed4aa651dbd}</property>
  <property name="kdenlive:id">12</property>
  <property name="kdenlive:clip_type">1</property>
  <property name="kdenlive:file_size">30110</property>
  <property name="kdenlive:file_hash">d99e44b030c09d8fe5fe79faa02827b1</property>
  <property name="kdenlive:folderid">-1</property>
  <property name="kdenlive:monitorPosition">0</property>
 </chain>
 <chain id="chain117" out="00:00:05.042">
  <property name="length">122</property>
  <property name="eof">pause</property>
  <property name="resource">C:/dev/workspace/indy/dist/room/attic/content/upscale/attic18.mp4</property>
  <property name="mlt_service">avformat-novalidate</property>
  <property name="meta.media.nb_streams">1</property>
  <property name="meta.media.0.stream.type">video</property>
  <property name="meta.media.0.stream.frame_rate">60</property>
  <property name="meta.media.0.stream.sample_aspect_ratio">0</property>
  <property name="meta.media.0.codec.width">3840</property>
  <property name="meta.media.0.codec.height">2160</property>
  <property name="meta.media.0.codec.rotate">0</property>
  <property name="meta.media.0.codec.pix_fmt">yuv444p</property>
  <property name="meta.media.0.codec.sample_aspect_ratio">0</property>
  <property name="meta.media.0.codec.colorspace">709</property>
  <property name="meta.media.0.codec.name">h264</property>
  <property name="meta.media.0.codec.long_name">H.264 / AVC / MPEG-4 AVC / MPEG-4 part 10</property>
  <property name="meta.media.0.codec.bit_rate">26114563</property>
  <property name="meta.attr.0.stream.handler_name.markup">VideoHandler</property>
  <property name="meta.attr.0.stream.vendor_id.markup">[0][0][0][0]</property>
  <property name="meta.attr.0.stream.encoder.markup">Lavc61.19.101 libx264</property>
  <property name="meta.attr.minor_version.markup">512</property>
  <property name="meta.attr.major_brand.markup">isom</property>
  <property name="meta.attr.compatible_brands.markup">isomiso2avc1mp41</property>
  <property name="meta.attr.encoder.markup">Lavf61.9.100</property>
  <property name="seekable">1</property>
  <property name="meta.media.sample_aspect_num">1</property>
  <property name="meta.media.sample_aspect_den">1</property>
  <property name="audio_index">-1</property>
  <property name="video_index">0</property>
  <property name="vstream">0</property>
  <property name="meta.media.frame_rate_num">60</property>
  <property name="meta.media.frame_rate_den">1</property>
  <property name="meta.media.colorspace">709</property>
  <property name="meta.media.color_trc">2</property>
  <property name="meta.media.has_b_frames">2</property>
  <property name="meta.media.width">3840</property>
  <property name="meta.media.height">2160</property>
  <property name="meta.media.aspect_ratio">1</property>
  <property name="meta.media.color_range">mpeg</property>
  <property name="meta.media.top_field_first">0</property>
  <property name="meta.media.progressive">1</property>
  <property name="kdenlive:control_uuid">{50f09233-90df-4901-b134-7a199c391e5a}</property>
  <property name="kdenlive:id">13</property>
  <property name="kdenlive:clip_type">2</property>
  <property name="kdenlive:file_size">16652665</property>
  <property name="kdenlive:file_hash">95c1c9ec09ef16387bd31c5197bf3082</property>
  <property name="kdenlive:folderid">-1</property>
  <property name="mute_on_pause">0</property>
  <property name="kdenlive:monitorPosition">0</property>
 </chain>
 <chain id="chain142" out="00:00:05.042">
  <property name="length">122</property>
  <property name="eof">pause</property>
  <property name="resource">C:/dev/workspace/indy/dist/room/attic/content/upscale/cross6.mp4</property>
  <property name="mlt_service">avformat-novalidate</property>
  <property name="meta.media.nb_streams">1</property>
  <property name="meta.media.0.stream.type">video</property>
  <property name="meta.media.0.stream.frame_rate">60</property>
  <property name="meta.media.0.stream.sample_aspect_ratio">0</property>
  <property name="meta.media.0.codec.width">3840</property>
  <property name="meta.media.0.codec.height">2160</property>
  <property name="meta.media.0.codec.rotate">0</property>
  <property name="meta.media.0.codec.pix_fmt">yuv444p</property>
  <property name="meta.media.0.codec.sample_aspect_ratio">0</property>
  <property name="meta.media.0.codec.colorspace">709</property>
  <property name="meta.media.0.codec.name">h264</property>
  <property name="meta.media.0.codec.long_name">H.264 / AVC / MPEG-4 AVC / MPEG-4 part 10</property>
  <property name="meta.media.0.codec.bit_rate">22586272</property>
  <property name="meta.attr.0.stream.handler_name.markup">VideoHandler</property>
  <property name="meta.attr.0.stream.vendor_id.markup">[0][0][0][0]</property>
  <property name="meta.attr.0.stream.encoder.markup">Lavc61.19.101 libx264</property>
  <property name="meta.attr.minor_version.markup">512</property>
  <property name="meta.attr.major_brand.markup">isom</property>
  <property name="meta.attr.compatible_brands.markup">isomiso2avc1mp41</property>
  <property name="meta.attr.encoder.markup">Lavf61.9.100</property>
  <property name="seekable">1</property>
  <property name="meta.media.sample_aspect_num">1</property>
  <property name="meta.media.sample_aspect_den">1</property>
  <property name="audio_index">-1</property>
  <property name="video_index">0</property>
  <property name="vstream">0</property>
  <property name="meta.media.frame_rate_num">60</property>
  <property name="meta.media.frame_rate_den">1</property>
  <property name="meta.media.colorspace">709</property>
  <property name="meta.media.color_trc">2</property>
  <property name="meta.media.has_b_frames">2</property>
  <property name="meta.media.width">3840</property>
  <property name="meta.media.height">2160</property>
  <property name="meta.media.aspect_ratio">1</property>
  <property name="meta.media.color_range">mpeg</property>
  <property name="meta.media.top_field_first">0</property>
  <property name="meta.media.progressive">1</property>
  <property name="kdenlive:control_uuid">{f7029f89-0dfc-44c9-89b6-2f417d4af4e6}</property>
  <property name="kdenlive:id">14</property>
  <property name="kdenlive:clip_type">2</property>
  <property name="kdenlive:file_size">14403656</property>
  <property name="kdenlive:file_hash">b68cc720e2341624139bf3cdf9553d19</property>
  <property name="kdenlive:folderid">-1</property>
  <property name="mute_on_pause">0</property>
  <property name="kdenlive:monitorPosition">0</property>
 </chain>
 <chain id="chain90" out="00:12:00.000">
  <property name="length">17281</property>
  <property name="eof">pause</property>
  <property name="resource">C:/dev/workspace/indy/dist/room/attic/content/music/extra/attic2.webm</property>
  <property name="mlt_service">avformat</property>
  <property name="meta.media.nb_streams">1</property>
  <property name="meta.media.0.stream.type">audio</property>
  <property name="meta.media.0.codec.sample_fmt">fltp</property>
  <property name="meta.media.0.codec.sample_rate">48000</property>
  <property name="meta.media.0.codec.channels">2</property>
  <property name="meta.media.0.codec.layout">stereo</property>
  <property name="meta.media.0.codec.name">opus</property>
  <property name="meta.media.0.codec.long_name">Opus</property>
  <property name="meta.media.0.codec.bit_rate">0</property>
  <property name="meta.attr.0.stream.language.markup">eng</property>
  <property name="meta.attr.encoder.markup">google/video-file</property>
  <property name="seekable">1</property>
  <property name="audio_index">0</property>
  <property name="video_index">-1</property>
  <property name="astream">0</property>
  <property name="kdenlive:control_uuid">{cb36d456-d42b-471c-b810-227aeddaf3d2}</property>
  <property name="kdenlive:id">15</property>
  <property name="kdenlive:clip_type">1</property>
  <property name="kdenlive:file_size">12295707</property>
  <property name="kdenlive:file_hash">946749c6ed27e31476ade9621df76e60</property>
  <property name="kdenlive:folderid">-1</property>
  <property name="kdenlive:monitorPosition">0</property>
 </chain>
 <chain id="chain143" out="00:00:05.042">
  <property name="length">122</property>
  <property name="eof">pause</property>
  <property name="resource">C:/dev/workspace/indy/dist/room/attic/content/upscale/cross7.mp4</property>
  <property name="mlt_service">avformat-novalidate</property>
  <property name="meta.media.nb_streams">1</property>
  <property name="meta.media.0.stream.type">video</property>
  <property name="meta.media.0.stream.frame_rate">60</property>
  <property name="meta.media.0.stream.sample_aspect_ratio">0</property>
  <property name="meta.media.0.codec.width">3840</property>
  <property name="meta.media.0.codec.height">2160</property>
  <property name="meta.media.0.codec.rotate">0</property>
  <property name="meta.media.0.codec.pix_fmt">yuv444p</property>
  <property name="meta.media.0.codec.sample_aspect_ratio">0</property>
  <property name="meta.media.0.codec.colorspace">709</property>
  <property name="meta.media.0.codec.name">h264</property>
  <property name="meta.media.0.codec.long_name">H.264 / AVC / MPEG-4 AVC / MPEG-4 part 10</property>
  <property name="meta.media.0.codec.bit_rate">26151796</property>
  <property name="meta.attr.0.stream.handler_name.markup">VideoHandler</property>
  <property name="meta.attr.0.stream.vendor_id.markup">[0][0][0][0]</property>
  <property name="meta.attr.0.stream.encoder.markup">Lavc61.19.101 libx264</property>
  <property name="meta.attr.minor_version.markup">512</property>
  <property name="meta.attr.major_brand.markup">isom</property>
  <property name="meta.attr.compatible_brands.markup">isomiso2avc1mp41</property>
  <property name="meta.attr.encoder.markup">Lavf61.9.100</property>
  <property name="seekable">1</property>
  <property name="meta.media.sample_aspect_num">1</property>
  <property name="meta.media.sample_aspect_den">1</property>
  <property name="audio_index">-1</property>
  <property name="video_index">0</property>
  <property name="vstream">0</property>
  <property name="meta.media.frame_rate_num">60</property>
  <property name="meta.media.frame_rate_den">1</property>
  <property name="meta.media.colorspace">709</property>
  <property name="meta.media.color_trc">2</property>
  <property name="meta.media.has_b_frames">2</property>
  <property name="meta.media.width">3840</property>
  <property name="meta.media.height">2160</property>
  <property name="meta.media.aspect_ratio">1</property>
  <property name="meta.media.color_range">mpeg</property>
  <property name="meta.media.top_field_first">0</property>
  <property name="meta.media.progressive">1</property>
  <property name="kdenlive:control_uuid">{06521672-071e-4e93-a702-f6c7c1b17064}</property>
  <property name="kdenlive:id">16</property>
  <property name="kdenlive:clip_type">2</property>
  <property name="kdenlive:file_size">16676721</property>
  <property name="kdenlive:file_hash">b8f228d4f20ce1c83f77733bab4a687c</property>
  <property name="kdenlive:folderid">-1</property>
  <property name="mute_on_pause">0</property>
  <property name="kdenlive:monitorPosition">0</property>
 </chain>
 <chain id="chain136" out="00:00:02.083">
  <property name="length">51</property>
  <property name="eof">pause</property>
  <property name="resource">C:/dev/workspace/indy/dist/room/attic/content/voice/cross.mp3</property>
  <property name="mlt_service">avformat</property>
  <property name="meta.media.nb_streams">1</property>
  <property name="meta.media.0.stream.type">audio</property>
  <property name="meta.media.0.codec.sample_fmt">fltp</property>
  <property name="meta.media.0.codec.sample_rate">44100</property>
  <property name="meta.media.0.codec.channels">1</property>
  <property name="meta.media.0.codec.layout">mono</property>
  <property name="meta.media.0.codec.name">mp3float</property>
  <property name="meta.media.0.codec.long_name">MP3 (MPEG audio layer 3)</property>
  <property name="meta.media.0.codec.bit_rate">64000</property>
  <property name="meta.attr.encoder.markup">Lavf61.1.100</property>
  <property name="seekable">1</property>
  <property name="audio_index">0</property>
  <property name="video_index">-1</property>
  <property name="astream">0</property>
  <property name="kdenlive:control_uuid">{3450b425-c595-4e48-9ea1-9e30e869b583}</property>
  <property name="kdenlive:id">17</property>
  <property name="kdenlive:clip_type">1</property>
  <property name="kdenlive:file_size">17362</property>
  <property name="kdenlive:file_hash">2a7a560848dc1125e3cbd4c2e405cca8</property>
  <property name="kdenlive:folderid">-1</property>
  <property name="kdenlive:monitorPosition">0</property>
 </chain>
 <chain id="chain137" out="00:00:03.333">
  <property name="length">81</property>
  <property name="eof">pause</property>
  <property name="resource">C:/dev/workspace/indy/dist/room/attic/content/voice/cross2.mp3</property>
  <property name="mlt_service">avformat</property>
  <property name="meta.media.nb_streams">1</property>
  <property name="meta.media.0.stream.type">audio</property>
  <property name="meta.media.0.codec.sample_fmt">fltp</property>
  <property name="meta.media.0.codec.sample_rate">44100</property>
  <property name="meta.media.0.codec.channels">1</property>
  <property name="meta.media.0.codec.layout">mono</property>
  <property name="meta.media.0.codec.name">mp3float</property>
  <property name="meta.media.0.codec.long_name">MP3 (MPEG audio layer 3)</property>
  <property name="meta.media.0.codec.bit_rate">64000</property>
  <property name="meta.attr.encoder.markup">Lavf61.1.100</property>
  <property name="seekable">1</property>
  <property name="audio_index">0</property>
  <property name="video_index">-1</property>
  <property name="astream">0</property>
  <property name="kdenlive:control_uuid">{808eb7bb-72df-4c74-a107-6af3f2fd53a6}</property>
  <property name="kdenlive:id">18</property>
  <property name="kdenlive:clip_type">1</property>
  <property name="kdenlive:file_size">27184</property>
  <property name="kdenlive:file_hash">7ad3dd2b81ee01c24d4654efa8d919f5</property>
  <property name="kdenlive:folderid">-1</property>
  <property name="kdenlive:monitorPosition">0</property>
 </chain>
 <chain id="chain138" out="00:00:04.208">
  <property name="length">102</property>
  <property name="eof">pause</property>
  <property name="resource">C:/dev/workspace/indy/dist/room/attic/content/voice/cross3.mp3</property>
  <property name="mlt_service">avformat</property>
  <property name="meta.media.nb_streams">1</property>
  <property name="meta.media.0.stream.type">audio</property>
  <property name="meta.media.0.codec.sample_fmt">fltp</property>
  <property name="meta.media.0.codec.sample_rate">44100</property>
  <property name="meta.media.0.codec.channels">1</property>
  <property name="meta.media.0.codec.layout">mono</property>
  <property name="meta.media.0.codec.name">mp3float</property>
  <property name="meta.media.0.codec.long_name">MP3 (MPEG audio layer 3)</property>
  <property name="meta.media.0.codec.bit_rate">64000</property>
  <property name="meta.attr.encoder.markup">Lavf61.1.100</property>
  <property name="seekable">1</property>
  <property name="audio_index">0</property>
  <property name="video_index">-1</property>
  <property name="astream">0</property>
  <property name="kdenlive:control_uuid">{9093c126-59d8-48d4-8e2f-bc455c57424e}</property>
  <property name="kdenlive:id">19</property>
  <property name="kdenlive:clip_type">1</property>
  <property name="kdenlive:file_size">34080</property>
  <property name="kdenlive:file_hash">feee882d69c1faeb7e18e49403338d00</property>
  <property name="kdenlive:folderid">-1</property>
  <property name="kdenlive:monitorPosition">0</property>
 </chain>
 <chain id="chain118" out="00:00:05.042">
  <property name="length">122</property>
  <property name="eof">pause</property>
  <property name="resource">C:/dev/workspace/indy/dist/room/attic/content/upscale/attic19.mp4</property>
  <property name="mlt_service">avformat-novalidate</property>
  <property name="meta.media.nb_streams">1</property>
  <property name="meta.media.0.stream.type">video</property>
  <property name="meta.media.0.stream.frame_rate">60</property>
  <property name="meta.media.0.stream.sample_aspect_ratio">0</property>
  <property name="meta.media.0.codec.width">3840</property>
  <property name="meta.media.0.codec.height">2160</property>
  <property name="meta.media.0.codec.rotate">0</property>
  <property name="meta.media.0.codec.pix_fmt">yuv444p</property>
  <property name="meta.media.0.codec.sample_aspect_ratio">0</property>
  <property name="meta.media.0.codec.colorspace">709</property>
  <property name="meta.media.0.codec.name">h264</property>
  <property name="meta.media.0.codec.long_name">H.264 / AVC / MPEG-4 AVC / MPEG-4 part 10</property>
  <property name="meta.media.0.codec.bit_rate">28394227</property>
  <property name="meta.attr.0.stream.handler_name.markup">VideoHandler</property>
  <property name="meta.attr.0.stream.vendor_id.markup">[0][0][0][0]</property>
  <property name="meta.attr.0.stream.encoder.markup">Lavc61.19.101 libx264</property>
  <property name="meta.attr.minor_version.markup">512</property>
  <property name="meta.attr.major_brand.markup">isom</property>
  <property name="meta.attr.compatible_brands.markup">isomiso2avc1mp41</property>
  <property name="meta.attr.encoder.markup">Lavf61.9.100</property>
  <property name="seekable">1</property>
  <property name="meta.media.sample_aspect_num">1</property>
  <property name="meta.media.sample_aspect_den">1</property>
  <property name="audio_index">-1</property>
  <property name="video_index">0</property>
  <property name="vstream">0</property>
  <property name="meta.media.frame_rate_num">60</property>
  <property name="meta.media.frame_rate_den">1</property>
  <property name="meta.media.colorspace">709</property>
  <property name="meta.media.color_trc">2</property>
  <property name="meta.media.has_b_frames">2</property>
  <property name="meta.media.width">3840</property>
  <property name="meta.media.height">2160</property>
  <property name="meta.media.aspect_ratio">1</property>
  <property name="meta.media.color_range">mpeg</property>
  <property name="meta.media.top_field_first">0</property>
  <property name="meta.media.progressive">1</property>
  <property name="kdenlive:control_uuid">{1b4902ff-a44a-4d35-944e-f32b5a577178}</property>
  <property name="kdenlive:id">20</property>
  <property name="kdenlive:clip_type">2</property>
  <property name="kdenlive:file_size">18106255</property>
  <property name="kdenlive:file_hash">fef4e5a65cf154643b050c1237297df4</property>
  <property name="kdenlive:folderid">-1</property>
  <property name="mute_on_pause">0</property>
  <property name="kdenlive:monitorPosition">0</property>
 </chain>
 <chain id="chain155" out="00:00:09.542">
  <property name="length">230</property>
  <property name="eof">pause</property>
  <property name="resource">C:/dev/workspace/indy/dist/room/attic/content/upscale/gargoyle6.mp4</property>
  <property name="mlt_service">avformat-novalidate</property>
  <property name="meta.media.nb_streams">1</property>
  <property name="meta.media.0.stream.type">video</property>
  <property name="meta.media.0.stream.frame_rate">60</property>
  <property name="meta.media.0.stream.sample_aspect_ratio">0</property>
  <property name="meta.media.0.codec.width">3840</property>
  <property name="meta.media.0.codec.height">2160</property>
  <property name="meta.media.0.codec.rotate">0</property>
  <property name="meta.media.0.codec.pix_fmt">yuv444p</property>
  <property name="meta.media.0.codec.sample_aspect_ratio">0</property>
  <property name="meta.media.0.codec.colorspace">709</property>
  <property name="meta.media.0.codec.name">h264</property>
  <property name="meta.media.0.codec.long_name">H.264 / AVC / MPEG-4 AVC / MPEG-4 part 10</property>
  <property name="meta.media.0.codec.bit_rate">22371146</property>
  <property name="meta.attr.0.stream.handler_name.markup">VideoHandler</property>
  <property name="meta.attr.0.stream.vendor_id.markup">[0][0][0][0]</property>
  <property name="meta.attr.0.stream.encoder.markup">Lavc61.19.101 libx264</property>
  <property name="meta.attr.minor_version.markup">512</property>
  <property name="meta.attr.major_brand.markup">isom</property>
  <property name="meta.attr.compatible_brands.markup">isomiso2avc1mp41</property>
  <property name="meta.attr.encoder.markup">Lavf61.9.100</property>
  <property name="seekable">1</property>
  <property name="meta.media.sample_aspect_num">1</property>
  <property name="meta.media.sample_aspect_den">1</property>
  <property name="audio_index">-1</property>
  <property name="video_index">0</property>
  <property name="vstream">0</property>
  <property name="meta.media.frame_rate_num">60</property>
  <property name="meta.media.frame_rate_den">1</property>
  <property name="meta.media.colorspace">709</property>
  <property name="meta.media.color_trc">2</property>
  <property name="meta.media.has_b_frames">2</property>
  <property name="meta.media.width">3840</property>
  <property name="meta.media.height">2160</property>
  <property name="meta.media.aspect_ratio">1</property>
  <property name="meta.media.color_range">mpeg</property>
  <property name="meta.media.top_field_first">0</property>
  <property name="meta.media.progressive">1</property>
  <property name="kdenlive:control_uuid">{d8175f0e-ab4e-4ede-a59e-79bf94ab578f}</property>
  <property name="kdenlive:id">21</property>
  <property name="kdenlive:clip_type">2</property>
  <property name="kdenlive:file_size">26853679</property>
  <property name="kdenlive:file_hash">1df128bca4125b45d93fd95b2353299e</property>
  <property name="kdenlive:folderid">-1</property>
  <property name="mute_on_pause">0</property>
  <property name="kdenlive:monitorPosition">0</property>
 </chain>
 <chain id="chain151" out="00:00:03.083">
  <property name="length">75</property>
  <property name="eof">pause</property>
  <property name="resource">C:/dev/workspace/indy/dist/room/attic/content/voice/gargoyle.mp3</property>
  <property name="mlt_service">avformat</property>
  <property name="meta.media.nb_streams">1</property>
  <property name="meta.media.0.stream.type">audio</property>
  <property name="meta.media.0.codec.sample_fmt">fltp</property>
  <property name="meta.media.0.codec.sample_rate">44100</property>
  <property name="meta.media.0.codec.channels">1</property>
  <property name="meta.media.0.codec.layout">mono</property>
  <property name="meta.media.0.codec.name">mp3float</property>
  <property name="meta.media.0.codec.long_name">MP3 (MPEG audio layer 3)</property>
  <property name="meta.media.0.codec.bit_rate">64000</property>
  <property name="meta.attr.encoder.markup">Lavf61.1.100</property>
  <property name="seekable">1</property>
  <property name="audio_index">0</property>
  <property name="video_index">-1</property>
  <property name="astream">0</property>
  <property name="kdenlive:control_uuid">{6a41b534-46c1-4c22-b800-d4973ee802ce}</property>
  <property name="kdenlive:id">22</property>
  <property name="kdenlive:clip_type">1</property>
  <property name="kdenlive:file_size">25303</property>
  <property name="kdenlive:file_hash">48d628cbc1d2b53830f59744b1147215</property>
  <property name="kdenlive:folderid">-1</property>
  <property name="kdenlive:monitorPosition">0</property>
 </chain>
 <chain id="chain152" out="00:00:04.333">
  <property name="length">105</property>
  <property name="eof">pause</property>
  <property name="resource">C:/dev/workspace/indy/dist/room/attic/content/voice/gargoyle2.mp3</property>
  <property name="mlt_service">avformat</property>
  <property name="meta.media.nb_streams">1</property>
  <property name="meta.media.0.stream.type">audio</property>
  <property name="meta.media.0.codec.sample_fmt">fltp</property>
  <property name="meta.media.0.codec.sample_rate">44100</property>
  <property name="meta.media.0.codec.channels">1</property>
  <property name="meta.media.0.codec.layout">mono</property>
  <property name="meta.media.0.codec.name">mp3float</property>
  <property name="meta.media.0.codec.long_name">MP3 (MPEG audio layer 3)</property>
  <property name="meta.media.0.codec.bit_rate">64000</property>
  <property name="meta.attr.encoder.markup">Lavf61.1.100</property>
  <property name="seekable">1</property>
  <property name="audio_index">0</property>
  <property name="video_index">-1</property>
  <property name="astream">0</property>
  <property name="kdenlive:control_uuid">{af399fd3-2076-4df9-96a6-a00d7030a3b3}</property>
  <property name="kdenlive:id">23</property>
  <property name="kdenlive:clip_type">1</property>
  <property name="kdenlive:file_size">35334</property>
  <property name="kdenlive:file_hash">6b61d9b126cb60405e4bff345f1bea97</property>
  <property name="kdenlive:folderid">-1</property>
  <property name="kdenlive:monitorPosition">0</property>
 </chain>
 <chain id="chain153" out="00:00:02.083">
  <property name="length">51</property>
  <property name="eof">pause</property>
  <property name="resource">C:/dev/workspace/indy/dist/room/attic/content/voice/gargoyle3.mp3</property>
  <property name="mlt_service">avformat</property>
  <property name="meta.media.nb_streams">1</property>
  <property name="meta.media.0.stream.type">audio</property>
  <property name="meta.media.0.codec.sample_fmt">fltp</property>
  <property name="meta.media.0.codec.sample_rate">44100</property>
  <property name="meta.media.0.codec.channels">1</property>
  <property name="meta.media.0.codec.layout">mono</property>
  <property name="meta.media.0.codec.name">mp3float</property>
  <property name="meta.media.0.codec.long_name">MP3 (MPEG audio layer 3)</property>
  <property name="meta.media.0.codec.bit_rate">64000</property>
  <property name="meta.attr.encoder.markup">Lavf61.1.100</property>
  <property name="seekable">1</property>
  <property name="audio_index">0</property>
  <property name="video_index">-1</property>
  <property name="astream">0</property>
  <property name="kdenlive:control_uuid">{39fb1ce5-a88b-4c8d-ba6d-9536ec9b9c06}</property>
  <property name="kdenlive:id">24</property>
  <property name="kdenlive:clip_type">1</property>
  <property name="kdenlive:file_size">17153</property>
  <property name="kdenlive:file_hash">4eb65d3e7161baaa02daa2b4c9a72551</property>
  <property name="kdenlive:folderid">-1</property>
  <property name="kdenlive:monitorPosition">0</property>
 </chain>
 <chain id="chain120" out="00:00:05.042">
  <property name="length">122</property>
  <property name="eof">pause</property>
  <property name="resource">C:/dev/workspace/indy/dist/room/attic/content/upscale/attic20.mp4</property>
  <property name="mlt_service">avformat-novalidate</property>
  <property name="meta.media.nb_streams">1</property>
  <property name="meta.media.0.stream.type">video</property>
  <property name="meta.media.0.stream.frame_rate">60</property>
  <property name="meta.media.0.stream.sample_aspect_ratio">0</property>
  <property name="meta.media.0.codec.width">3840</property>
  <property name="meta.media.0.codec.height">2160</property>
  <property name="meta.media.0.codec.rotate">0</property>
  <property name="meta.media.0.codec.pix_fmt">yuv444p</property>
  <property name="meta.media.0.codec.sample_aspect_ratio">0</property>
  <property name="meta.media.0.codec.colorspace">709</property>
  <property name="meta.media.0.codec.name">h264</property>
  <property name="meta.media.0.codec.long_name">H.264 / AVC / MPEG-4 AVC / MPEG-4 part 10</property>
  <property name="meta.media.0.codec.bit_rate">28719658</property>
  <property name="meta.attr.0.stream.handler_name.markup">VideoHandler</property>
  <property name="meta.attr.0.stream.vendor_id.markup">[0][0][0][0]</property>
  <property name="meta.attr.0.stream.encoder.markup">Lavc61.19.101 libx264</property>
  <property name="meta.attr.minor_version.markup">512</property>
  <property name="meta.attr.major_brand.markup">isom</property>
  <property name="meta.attr.compatible_brands.markup">isomiso2avc1mp41</property>
  <property name="meta.attr.encoder.markup">Lavf61.9.100</property>
  <property name="seekable">1</property>
  <property name="meta.media.sample_aspect_num">1</property>
  <property name="meta.media.sample_aspect_den">1</property>
  <property name="audio_index">-1</property>
  <property name="video_index">0</property>
  <property name="vstream">0</property>
  <property name="meta.media.frame_rate_num">60</property>
  <property name="meta.media.frame_rate_den">1</property>
  <property name="meta.media.colorspace">709</property>
  <property name="meta.media.color_trc">2</property>
  <property name="meta.media.has_b_frames">2</property>
  <property name="meta.media.width">3840</property>
  <property name="meta.media.height">2160</property>
  <property name="meta.media.aspect_ratio">1</property>
  <property name="meta.media.color_range">mpeg</property>
  <property name="meta.media.top_field_first">0</property>
  <property name="meta.media.progressive">1</property>
  <property name="kdenlive:control_uuid">{800ace3f-1ac6-4346-8ff8-28b5c5c92197}</property>
  <property name="kdenlive:id">25</property>
  <property name="kdenlive:clip_type">2</property>
  <property name="kdenlive:file_size">18313745</property>
  <property name="kdenlive:file_hash">2b52ff0a8760bb68787e98a4f18023c4</property>
  <property name="kdenlive:folderid">-1</property>
  <property name="mute_on_pause">0</property>
  <property name="kdenlive:monitorPosition">0</property>
 </chain>
 <chain id="chain111" out="00:00:14.042">
  <property name="length">338</property>
  <property name="eof">pause</property>
  <property name="resource">C:/dev/workspace/indy/dist/room/attic/content/upscale/attic11.mp4</property>
  <property name="mlt_service">avformat-novalidate</property>
  <property name="meta.media.nb_streams">1</property>
  <property name="meta.media.0.stream.type">video</property>
  <property name="meta.media.0.stream.frame_rate">60</property>
  <property name="meta.media.0.stream.sample_aspect_ratio">0</property>
  <property name="meta.media.0.codec.width">3840</property>
  <property name="meta.media.0.codec.height">2160</property>
  <property name="meta.media.0.codec.rotate">0</property>
  <property name="meta.media.0.codec.pix_fmt">yuv444p</property>
  <property name="meta.media.0.codec.sample_aspect_ratio">0</property>
  <property name="meta.media.0.codec.colorspace">709</property>
  <property name="meta.media.0.codec.name">h264</property>
  <property name="meta.media.0.codec.long_name">H.264 / AVC / MPEG-4 AVC / MPEG-4 part 10</property>
  <property name="meta.media.0.codec.bit_rate">31321946</property>
  <property name="meta.attr.0.stream.handler_name.markup">VideoHandler</property>
  <property name="meta.attr.0.stream.vendor_id.markup">[0][0][0][0]</property>
  <property name="meta.attr.0.stream.encoder.markup">Lavc61.19.101 libx264</property>
  <property name="meta.attr.minor_version.markup">512</property>
  <property name="meta.attr.major_brand.markup">isom</property>
  <property name="meta.attr.compatible_brands.markup">isomiso2avc1mp41</property>
  <property name="meta.attr.encoder.markup">Lavf61.9.100</property>
  <property name="seekable">1</property>
  <property name="meta.media.sample_aspect_num">1</property>
  <property name="meta.media.sample_aspect_den">1</property>
  <property name="audio_index">-1</property>
  <property name="video_index">0</property>
  <property name="vstream">0</property>
  <property name="meta.media.frame_rate_num">60</property>
  <property name="meta.media.frame_rate_den">1</property>
  <property name="meta.media.colorspace">709</property>
  <property name="meta.media.color_trc">2</property>
  <property name="meta.media.has_b_frames">2</property>
  <property name="meta.media.width">3840</property>
  <property name="meta.media.height">2160</property>
  <property name="meta.media.aspect_ratio">1</property>
  <property name="meta.media.color_range">mpeg</property>
  <property name="meta.media.top_field_first">0</property>
  <property name="meta.media.progressive">1</property>
  <property name="kdenlive:control_uuid">{37a105fe-6fc8-40dc-8c5f-f4bece1c4c10}</property>
  <property name="kdenlive:id">26</property>
  <property name="kdenlive:clip_type">2</property>
  <property name="kdenlive:file_size">55216801</property>
  <property name="kdenlive:file_hash">5319e5f3c47dc9a4333f63e6743ac73b</property>
  <property name="kdenlive:folderid">-1</property>
  <property name="mute_on_pause">0</property>
  <property name="kdenlive:monitorPosition">0</property>
 </chain>
 <chain id="chain112" out="00:00:05.042">
  <property name="length">122</property>
  <property name="eof">pause</property>
  <property name="resource">C:/dev/workspace/indy/dist/room/attic/content/upscale/attic12.mp4</property>
  <property name="mlt_service">avformat-novalidate</property>
  <property name="meta.media.nb_streams">1</property>
  <property name="meta.media.0.stream.type">video</property>
  <property name="meta.media.0.stream.frame_rate">60</property>
  <property name="meta.media.0.stream.sample_aspect_ratio">0</property>
  <property name="meta.media.0.codec.width">3840</property>
  <property name="meta.media.0.codec.height">2160</property>
  <property name="meta.media.0.codec.rotate">0</property>
  <property name="meta.media.0.codec.pix_fmt">yuv444p</property>
  <property name="meta.media.0.codec.sample_aspect_ratio">0</property>
  <property name="meta.media.0.codec.colorspace">709</property>
  <property name="meta.media.0.codec.name">h264</property>
  <property name="meta.media.0.codec.long_name">H.264 / AVC / MPEG-4 AVC / MPEG-4 part 10</property>
  <property name="meta.media.0.codec.bit_rate">19149596</property>
  <property name="meta.attr.0.stream.handler_name.markup">VideoHandler</property>
  <property name="meta.attr.0.stream.vendor_id.markup">[0][0][0][0]</property>
  <property name="meta.attr.0.stream.encoder.markup">Lavc61.19.101 libx264</property>
  <property name="meta.attr.minor_version.markup">512</property>
  <property name="meta.attr.major_brand.markup">isom</property>
  <property name="meta.attr.compatible_brands.markup">isomiso2avc1mp41</property>
  <property name="meta.attr.encoder.markup">Lavf61.9.100</property>
  <property name="seekable">1</property>
  <property name="meta.media.sample_aspect_num">1</property>
  <property name="meta.media.sample_aspect_den">1</property>
  <property name="audio_index">-1</property>
  <property name="video_index">0</property>
  <property name="vstream">0</property>
  <property name="meta.media.frame_rate_num">60</property>
  <property name="meta.media.frame_rate_den">1</property>
  <property name="meta.media.colorspace">709</property>
  <property name="meta.media.color_trc">2</property>
  <property name="meta.media.has_b_frames">2</property>
  <property name="meta.media.width">3840</property>
  <property name="meta.media.height">2160</property>
  <property name="meta.media.aspect_ratio">1</property>
  <property name="meta.media.color_range">mpeg</property>
  <property name="meta.media.top_field_first">0</property>
  <property name="meta.media.progressive">1</property>
  <property name="kdenlive:control_uuid">{3d1f0e8c-f2b0-4e52-8b1c-fdc3180900cd}</property>
  <property name="kdenlive:id">27</property>
  <property name="kdenlive:clip_type">2</property>
  <property name="kdenlive:file_size">12212751</property>
  <property name="kdenlive:file_hash">65ec6cfb5f2e104a4576ed5c11718406</property>
  <property name="kdenlive:folderid">-1</property>
  <property name="mute_on_pause">0</property>
  <property name="kdenlive:monitorPosition">0</property>
 </chain>
 <chain id="chain94" out="00:00:01.375">
  <property name="length">34</property>
  <property name="eof">pause</property>
  <property name="resource">C:/dev/workspace/indy/dist/room/attic/content/voice/attic4.mp3</property>
  <property name="mlt_service">avformat</property>
  <property name="meta.media.nb_streams">1</property>
  <property name="meta.media.0.stream.type">audio</property>
  <property name="meta.media.0.codec.sample_fmt">fltp</property>
  <property name="meta.media.0.codec.sample_rate">44100</property>
  <property name="meta.media.0.codec.channels">1</property>
  <property name="meta.media.0.codec.layout">mono</property>
  <property name="meta.media.0.codec.name">mp3float</property>
  <property name="meta.media.0.codec.long_name">MP3 (MPEG audio layer 3)</property>
  <property name="meta.media.0.codec.bit_rate">64000</property>
  <property name="meta.attr.encoder.markup">Lavf61.1.100</property>
  <property name="seekable">1</property>
  <property name="audio_index">0</property>
  <property name="video_index">-1</property>
  <property name="astream">0</property>
  <property name="kdenlive:control_uuid">{e8afd77d-fc82-4b57-8666-20f6121d473d}</property>
  <property name="kdenlive:id">28</property>
  <property name="kdenlive:clip_type">1</property>
  <property name="kdenlive:file_size">11510</property>
  <property name="kdenlive:file_hash">7478bfa857c8529c6c9d3a3cbb770699</property>
  <property name="kdenlive:folderid">-1</property>
  <property name="kdenlive:monitorPosition">0</property>
 </chain>
 <chain id="chain98" out="00:00:01.792">
  <property name="length">44</property>
  <property name="eof">pause</property>
  <property name="resource">C:/dev/workspace/indy/dist/room/attic/content/voice/attic5.mp3</property>
  <property name="mlt_service">avformat</property>
  <property name="meta.media.nb_streams">1</property>
  <property name="meta.media.0.stream.type">audio</property>
  <property name="meta.media.0.codec.sample_fmt">fltp</property>
  <property name="meta.media.0.codec.sample_rate">44100</property>
  <property name="meta.media.0.codec.channels">1</property>
  <property name="meta.media.0.codec.layout">mono</property>
  <property name="meta.media.0.codec.name">mp3float</property>
  <property name="meta.media.0.codec.long_name">MP3 (MPEG audio layer 3)</property>
  <property name="meta.media.0.codec.bit_rate">64000</property>
  <property name="meta.attr.encoder.markup">Lavf61.1.100</property>
  <property name="seekable">1</property>
  <property name="audio_index">0</property>
  <property name="video_index">-1</property>
  <property name="astream">0</property>
  <property name="kdenlive:control_uuid">{4d120234-6fd4-4f71-a98f-8907e247727a}</property>
  <property name="kdenlive:id">29</property>
  <property name="kdenlive:clip_type">1</property>
  <property name="kdenlive:file_size">14854</property>
  <property name="kdenlive:file_hash">9f73a4f28f66141839383d3d02ae8459</property>
  <property name="kdenlive:folderid">-1</property>
  <property name="kdenlive:monitorPosition">0</property>
 </chain>
 <chain id="chain187" out="00:00:14.042">
  <property name="length">338</property>
  <property name="eof">pause</property>
  <property name="resource">C:/dev/workspace/indy/dist/room/attic/content/audio/step2.mp4</property>
  <property name="mlt_service">avformat-novalidate</property>
  <property name="meta.media.nb_streams">2</property>
  <property name="meta.media.0.stream.type">video</property>
  <property name="meta.media.0.stream.frame_rate">30</property>
  <property name="meta.media.0.stream.sample_aspect_ratio">0</property>
  <property name="meta.media.0.codec.width">1280</property>
  <property name="meta.media.0.codec.height">720</property>
  <property name="meta.media.0.codec.rotate">0</property>
  <property name="meta.media.0.codec.pix_fmt">yuv420p</property>
  <property name="meta.media.0.codec.sample_aspect_ratio">0</property>
  <property name="meta.media.0.codec.colorspace">709</property>
  <property name="meta.media.0.codec.name">h264</property>
  <property name="meta.media.0.codec.long_name">H.264 / AVC / MPEG-4 AVC / MPEG-4 part 10</property>
  <property name="meta.media.0.codec.bit_rate">1952151</property>
  <property name="meta.attr.0.stream.handler_name.markup">VideoHandler</property>
  <property name="meta.attr.0.stream.vendor_id.markup">[0][0][0][0]</property>
  <property name="meta.attr.0.stream.encoder.markup">Lavc59.37.100 libx264</property>
  <property name="meta.media.1.stream.type">audio</property>
  <property name="meta.media.1.codec.sample_fmt">fltp</property>
  <property name="meta.media.1.codec.sample_rate">44100</property>
  <property name="meta.media.1.codec.channels">2</property>
  <property name="meta.media.1.codec.layout">stereo</property>
  <property name="meta.media.1.codec.name">aac</property>
  <property name="meta.media.1.codec.long_name">AAC (Advanced Audio Coding)</property>
  <property name="meta.media.1.codec.bit_rate">127730</property>
  <property name="meta.attr.1.stream.handler_name.markup">SoundHandler</property>
  <property name="meta.attr.1.stream.vendor_id.markup">[0][0][0][0]</property>
  <property name="meta.attr.major_brand.markup">isom</property>
  <property name="meta.attr.minor_version.markup">512</property>
  <property name="meta.attr.compatible_brands.markup">isomiso2avc1mp41</property>
  <property name="meta.attr.encoder.markup">Lavf59.27.100</property>
  <property name="seekable">1</property>
  <property name="meta.media.sample_aspect_num">1</property>
  <property name="meta.media.sample_aspect_den">1</property>
  <property name="audio_index">1</property>
  <property name="video_index">0</property>
  <property name="vstream">0</property>
  <property name="meta.media.frame_rate_num">30</property>
  <property name="meta.media.frame_rate_den">1</property>
  <property name="meta.media.colorspace">709</property>
  <property name="meta.media.color_trc">2</property>
  <property name="meta.media.has_b_frames">2</property>
  <property name="meta.media.width">1280</property>
  <property name="meta.media.height">720</property>
  <property name="meta.media.aspect_ratio">1</property>
  <property name="meta.media.color_range">mpeg</property>
  <property name="astream">0</property>
  <property name="meta.media.top_field_first">0</property>
  <property name="meta.media.progressive">1</property>
  <property name="kdenlive:control_uuid">{864e4b7a-1956-4de8-b6cd-6649bc6cb894}</property>
  <property name="kdenlive:id">30</property>
  <property name="kdenlive:clip_type">0</property>
  <property name="kdenlive:file_size">3631982</property>
  <property name="kdenlive:file_hash">c1c55660fe4c92c03ffeecc1ef93ab83</property>
  <property name="kdenlive:folderid">-1</property>
  <property name="mute_on_pause">0</property>
  <property name="kdenlive:monitorPosition">0</property>
 </chain>
 <chain id="chain88" out="00:03:11.125">
  <property name="length">4588</property>
  <property name="eof">pause</property>
  <property name="resource">C:/dev/workspace/indy/dist/room/attic/content/music/extra/attic.webm</property>
  <property name="mlt_service">avformat</property>
  <property name="meta.media.nb_streams">1</property>
  <property name="meta.media.0.stream.type">audio</property>
  <property name="meta.media.0.codec.sample_fmt">fltp</property>
  <property name="meta.media.0.codec.sample_rate">48000</property>
  <property name="meta.media.0.codec.channels">2</property>
  <property name="meta.media.0.codec.layout">stereo</property>
  <property name="meta.media.0.codec.name">opus</property>
  <property name="meta.media.0.codec.long_name">Opus</property>
  <property name="meta.media.0.codec.bit_rate">0</property>
  <property name="meta.attr.0.stream.language.markup">eng</property>
  <property name="meta.attr.encoder.markup">google/video-file</property>
  <property name="seekable">1</property>
  <property name="audio_index">0</property>
  <property name="video_index">-1</property>
  <property name="astream">0</property>
  <property name="kdenlive:control_uuid">{010af2f9-5e9f-4990-be48-d539128550c0}</property>
  <property name="kdenlive:id">31</property>
  <property name="kdenlive:clip_type">1</property>
  <property name="kdenlive:file_size">3420074</property>
  <property name="kdenlive:file_hash">029e4f8308d83085556e81b95e7c3d37</property>
  <property name="kdenlive:folderid">-1</property>
  <property name="kdenlive:monitorPosition">0</property>
 </chain>
 <chain id="chain160" out="00:00:05.042">
  <property name="length">122</property>
  <property name="eof">pause</property>
  <property name="resource">C:/dev/workspace/indy/dist/room/attic2/content/upscale/indy.mp4</property>
  <property name="mlt_service">avformat-novalidate</property>
  <property name="meta.media.nb_streams">1</property>
  <property name="meta.media.0.stream.type">video</property>
  <property name="meta.media.0.stream.frame_rate">60</property>
  <property name="meta.media.0.stream.sample_aspect_ratio">0</property>
  <property name="meta.media.0.codec.width">3840</property>
  <property name="meta.media.0.codec.height">2160</property>
  <property name="meta.media.0.codec.rotate">0</property>
  <property name="meta.media.0.codec.pix_fmt">yuv444p</property>
  <property name="meta.media.0.codec.sample_aspect_ratio">0</property>
  <property name="meta.media.0.codec.colorspace">709</property>
  <property name="meta.media.0.codec.name">h264</property>
  <property name="meta.media.0.codec.long_name">H.264 / AVC / MPEG-4 AVC / MPEG-4 part 10</property>
  <property name="meta.media.0.codec.bit_rate">24088795</property>
  <property name="meta.attr.0.stream.handler_name.markup">VideoHandler</property>
  <property name="meta.attr.0.stream.vendor_id.markup">[0][0][0][0]</property>
  <property name="meta.attr.0.stream.encoder.markup">Lavc61.19.101 libx264</property>
  <property name="meta.attr.minor_version.markup">512</property>
  <property name="meta.attr.major_brand.markup">isom</property>
  <property name="meta.attr.compatible_brands.markup">isomiso2avc1mp41</property>
  <property name="meta.attr.encoder.markup">Lavf61.9.100</property>
  <property name="seekable">1</property>
  <property name="meta.media.sample_aspect_num">1</property>
  <property name="meta.media.sample_aspect_den">1</property>
  <property name="audio_index">-1</property>
  <property name="video_index">0</property>
  <property name="vstream">0</property>
  <property name="meta.media.frame_rate_num">60</property>
  <property name="meta.media.frame_rate_den">1</property>
  <property name="meta.media.colorspace">709</property>
  <property name="meta.media.color_trc">2</property>
  <property name="meta.media.has_b_frames">2</property>
  <property name="meta.media.width">3840</property>
  <property name="meta.media.height">2160</property>
  <property name="meta.media.aspect_ratio">1</property>
  <property name="meta.media.color_range">mpeg</property>
  <property name="meta.media.top_field_first">0</property>
  <property name="meta.media.progressive">1</property>
  <property name="kdenlive:control_uuid">{e88f9709-3353-4026-bc2f-282fcf84ce26}</property>
  <property name="kdenlive:id">32</property>
  <property name="kdenlive:clip_type">2</property>
  <property name="kdenlive:file_size">15361542</property>
  <property name="kdenlive:file_hash">56ca686ab9ca25016bdd3a6b935f41b0</property>
  <property name="kdenlive:folderid">-1</property>
  <property name="mute_on_pause">0</property>
  <property name="kdenlive:monitorPosition">0</property>
 </chain>
 <chain id="chain164" out="00:00:04.625">
  <property name="length">112</property>
  <property name="eof">pause</property>
  <property name="resource">C:/dev/workspace/indy/dist/room/attic2/content/upscale/indy2.mp4</property>
  <property name="mlt_service">avformat-novalidate</property>
  <property name="meta.media.nb_streams">1</property>
  <property name="meta.media.0.stream.type">video</property>
  <property name="meta.media.0.stream.frame_rate">60</property>
  <property name="meta.media.0.stream.sample_aspect_ratio">0</property>
  <property name="meta.media.0.codec.width">3840</property>
  <property name="meta.media.0.codec.height">2160</property>
  <property name="meta.media.0.codec.rotate">0</property>
  <property name="meta.media.0.codec.pix_fmt">yuv444p</property>
  <property name="meta.media.0.codec.sample_aspect_ratio">0</property>
  <property name="meta.media.0.codec.colorspace">709</property>
  <property name="meta.media.0.codec.name">h264</property>
  <property name="meta.media.0.codec.long_name">H.264 / AVC / MPEG-4 AVC / MPEG-4 part 10</property>
  <property name="meta.media.0.codec.bit_rate">36027102</property>
  <property name="meta.attr.0.stream.handler_name.markup">VideoHandler</property>
  <property name="meta.attr.0.stream.vendor_id.markup">[0][0][0][0]</property>
  <property name="meta.attr.0.stream.encoder.markup">Lavc61.19.101 libx264</property>
  <property name="meta.attr.minor_version.markup">512</property>
  <property name="meta.attr.major_brand.markup">isom</property>
  <property name="meta.attr.compatible_brands.markup">isomiso2avc1mp41</property>
  <property name="meta.attr.encoder.markup">Lavf61.9.100</property>
  <property name="seekable">1</property>
  <property name="meta.media.sample_aspect_num">1</property>
  <property name="meta.media.sample_aspect_den">1</property>
  <property name="audio_index">-1</property>
  <property name="video_index">0</property>
  <property name="vstream">0</property>
  <property name="meta.media.frame_rate_num">60</property>
  <property name="meta.media.frame_rate_den">1</property>
  <property name="meta.media.colorspace">709</property>
  <property name="meta.media.color_trc">2</property>
  <property name="meta.media.has_b_frames">2</property>
  <property name="meta.media.width">3840</property>
  <property name="meta.media.height">2160</property>
  <property name="meta.media.aspect_ratio">1</property>
  <property name="meta.media.color_range">mpeg</property>
  <property name="meta.media.top_field_first">0</property>
  <property name="meta.media.progressive">1</property>
  <property name="kdenlive:control_uuid">{b1915c0a-8994-4a2c-a542-d60ccca5c0d4}</property>
  <property name="kdenlive:id">33</property>
  <property name="kdenlive:clip_type">2</property>
  <property name="kdenlive:file_size">15593957</property>
  <property name="kdenlive:folderid">-1</property>
  <property name="mute_on_pause">0</property>
  <property name="kdenlive:monitorPosition">0</property>
  <property name="kdenlive:file_hash">26525b2ce77d996ab1963f54a4afae0d</property>
 </chain>
 <chain id="chain177" out="00:00:05.042">
  <property name="length">122</property>
  <property name="eof">pause</property>
  <property name="resource">C:/dev/workspace/indy/dist/room/attic2/content/upscale/indy6.mp4</property>
  <property name="mlt_service">avformat-novalidate</property>
  <property name="meta.media.nb_streams">1</property>
  <property name="meta.media.0.stream.type">video</property>
  <property name="meta.media.0.stream.frame_rate">60</property>
  <property name="meta.media.0.stream.sample_aspect_ratio">0</property>
  <property name="meta.media.0.codec.width">3840</property>
  <property name="meta.media.0.codec.height">2160</property>
  <property name="meta.media.0.codec.rotate">0</property>
  <property name="meta.media.0.codec.pix_fmt">yuv444p</property>
  <property name="meta.media.0.codec.sample_aspect_ratio">0</property>
  <property name="meta.media.0.codec.colorspace">709</property>
  <property name="meta.media.0.codec.name">h264</property>
  <property name="meta.media.0.codec.long_name">H.264 / AVC / MPEG-4 AVC / MPEG-4 part 10</property>
  <property name="meta.media.0.codec.bit_rate">27310988</property>
  <property name="meta.attr.0.stream.handler_name.markup">VideoHandler</property>
  <property name="meta.attr.0.stream.vendor_id.markup">[0][0][0][0]</property>
  <property name="meta.attr.0.stream.encoder.markup">Lavc61.19.101 libx264</property>
  <property name="meta.attr.minor_version.markup">512</property>
  <property name="meta.attr.major_brand.markup">isom</property>
  <property name="meta.attr.compatible_brands.markup">isomiso2avc1mp41</property>
  <property name="meta.attr.encoder.markup">Lavf61.9.100</property>
  <property name="seekable">1</property>
  <property name="meta.media.sample_aspect_num">1</property>
  <property name="meta.media.sample_aspect_den">1</property>
  <property name="audio_index">-1</property>
  <property name="video_index">0</property>
  <property name="vstream">0</property>
  <property name="meta.media.frame_rate_num">60</property>
  <property name="meta.media.frame_rate_den">1</property>
  <property name="meta.media.colorspace">709</property>
  <property name="meta.media.color_trc">2</property>
  <property name="meta.media.has_b_frames">2</property>
  <property name="meta.media.width">3840</property>
  <property name="meta.media.height">2160</property>
  <property name="meta.media.aspect_ratio">1</property>
  <property name="meta.media.color_range">mpeg</property>
  <property name="meta.media.top_field_first">0</property>
  <property name="meta.media.progressive">1</property>
  <property name="kdenlive:control_uuid">{7ac1dbec-6925-481d-b72f-a677d990fc0a}</property>
  <property name="kdenlive:id">34</property>
  <property name="kdenlive:clip_type">2</property>
  <property name="kdenlive:file_size">17415702</property>
  <property name="kdenlive:folderid">-1</property>
  <property name="mute_on_pause">0</property>
  <property name="kdenlive:monitorPosition">0</property>
  <property name="kdenlive:file_hash">a1a412bfe87c16032ef81d4dd3b19154</property>
 </chain>
 <chain id="chain119" out="00:00:05.042">
  <property name="length">122</property>
  <property name="eof">pause</property>
  <property name="resource">C:/dev/workspace/indy/dist/room/attic/content/upscale/wide/attic18.mp4</property>
  <property name="mlt_service">avformat-novalidate</property>
  <property name="meta.media.nb_streams">2</property>
  <property name="meta.media.0.stream.type">video</property>
  <property name="meta.media.0.stream.frame_rate">60</property>
  <property name="meta.media.0.stream.sample_aspect_ratio">0</property>
  <property name="meta.media.0.codec.width">5110</property>
  <property name="meta.media.0.codec.height">2160</property>
  <property name="meta.media.0.codec.rotate">0</property>
  <property name="meta.media.0.codec.pix_fmt">yuv444p</property>
  <property name="meta.media.0.codec.sample_aspect_ratio">0</property>
  <property name="meta.media.0.codec.colorspace">709</property>
  <property name="meta.media.0.codec.name">h264</property>
  <property name="meta.media.0.codec.long_name">H.264 / AVC / MPEG-4 AVC / MPEG-4 part 10</property>
  <property name="meta.media.0.codec.bit_rate">25268026</property>
  <property name="meta.attr.0.stream.handler_name.markup">VideoHandler</property>
  <property name="meta.attr.0.stream.vendor_id.markup">[0][0][0][0]</property>
  <property name="meta.attr.0.stream.encoder.markup">Lavc61.19.101 libx264</property>
  <property name="meta.media.1.stream.type">audio</property>
  <property name="meta.media.1.codec.sample_fmt">fltp</property>
  <property name="meta.media.1.codec.sample_rate">48000</property>
  <property name="meta.media.1.codec.channels">2</property>
  <property name="meta.media.1.codec.layout">stereo</property>
  <property name="meta.media.1.codec.name">aac</property>
  <property name="meta.media.1.codec.long_name">AAC (Advanced Audio Coding)</property>
  <property name="meta.media.1.codec.bit_rate">2276</property>
  <property name="meta.attr.1.stream.handler_name.markup">SoundHandler</property>
  <property name="meta.attr.1.stream.vendor_id.markup">[0][0][0][0]</property>
  <property name="meta.attr.minor_version.markup">512</property>
  <property name="meta.attr.major_brand.markup">isom</property>
  <property name="meta.attr.compatible_brands.markup">isomiso2avc1mp41</property>
  <property name="meta.attr.encoder.markup">Lavf61.9.100</property>
  <property name="seekable">1</property>
  <property name="meta.media.sample_aspect_num">1</property>
  <property name="meta.media.sample_aspect_den">1</property>
  <property name="audio_index">1</property>
  <property name="video_index">0</property>
  <property name="vstream">0</property>
  <property name="meta.media.frame_rate_num">60</property>
  <property name="meta.media.frame_rate_den">1</property>
  <property name="meta.media.colorspace">709</property>
  <property name="meta.media.color_trc">2</property>
  <property name="meta.media.has_b_frames">2</property>
  <property name="meta.media.width">5110</property>
  <property name="meta.media.height">2160</property>
  <property name="meta.media.aspect_ratio">1</property>
  <property name="meta.media.color_range">mpeg</property>
  <property name="astream">0</property>
  <property name="meta.media.top_field_first">0</property>
  <property name="meta.media.progressive">1</property>
  <property name="kdenlive:control_uuid">{333cea33-7fa6-4e9a-9fdf-a228b4fde037}</property>
  <property name="kdenlive:id">35</property>
  <property name="kdenlive:clip_type">0</property>
  <property name="kdenlive:file_size">16119395</property>
  <property name="kdenlive:file_hash">2b79bd5b056fbf149cced8df9dc9a57d</property>
  <property name="kdenlive:folderid">-1</property>
  <property name="mute_on_pause">0</property>
  <property name="kdenlive:monitorPosition">0</property>
 </chain>
 <chain id="chain122" out="00:00:05.042">
  <property name="length">122</property>
  <property name="eof">pause</property>
  <property name="resource">C:/dev/workspace/indy/dist/room/attic/content/upscale/wide/attic19.mp4</property>
  <property name="mlt_service">avformat-novalidate</property>
  <property name="meta.media.nb_streams">2</property>
  <property name="meta.media.0.stream.type">video</property>
  <property name="meta.media.0.stream.frame_rate">60</property>
  <property name="meta.media.0.stream.sample_aspect_ratio">0</property>
  <property name="meta.media.0.codec.width">5110</property>
  <property name="meta.media.0.codec.height">2160</property>
  <property name="meta.media.0.codec.rotate">0</property>
  <property name="meta.media.0.codec.pix_fmt">yuv444p</property>
  <property name="meta.media.0.codec.sample_aspect_ratio">0</property>
  <property name="meta.media.0.codec.colorspace">709</property>
  <property name="meta.media.0.codec.name">h264</property>
  <property name="meta.media.0.codec.long_name">H.264 / AVC / MPEG-4 AVC / MPEG-4 part 10</property>
  <property name="meta.media.0.codec.bit_rate">29272117</property>
  <property name="meta.attr.0.stream.handler_name.markup">VideoHandler</property>
  <property name="meta.attr.0.stream.vendor_id.markup">[0][0][0][0]</property>
  <property name="meta.attr.0.stream.encoder.markup">Lavc61.19.101 libx264</property>
  <property name="meta.media.1.stream.type">audio</property>
  <property name="meta.media.1.codec.sample_fmt">fltp</property>
  <property name="meta.media.1.codec.sample_rate">48000</property>
  <property name="meta.media.1.codec.channels">2</property>
  <property name="meta.media.1.codec.layout">stereo</property>
  <property name="meta.media.1.codec.name">aac</property>
  <property name="meta.media.1.codec.long_name">AAC (Advanced Audio Coding)</property>
  <property name="meta.media.1.codec.bit_rate">2276</property>
  <property name="meta.attr.1.stream.handler_name.markup">SoundHandler</property>
  <property name="meta.attr.1.stream.vendor_id.markup">[0][0][0][0]</property>
  <property name="meta.attr.minor_version.markup">512</property>
  <property name="meta.attr.major_brand.markup">isom</property>
  <property name="meta.attr.compatible_brands.markup">isomiso2avc1mp41</property>
  <property name="meta.attr.encoder.markup">Lavf61.9.100</property>
  <property name="seekable">1</property>
  <property name="meta.media.sample_aspect_num">1</property>
  <property name="meta.media.sample_aspect_den">1</property>
  <property name="audio_index">1</property>
  <property name="video_index">0</property>
  <property name="vstream">0</property>
  <property name="meta.media.frame_rate_num">60</property>
  <property name="meta.media.frame_rate_den">1</property>
  <property name="meta.media.colorspace">709</property>
  <property name="meta.media.color_trc">2</property>
  <property name="meta.media.has_b_frames">2</property>
  <property name="meta.media.width">5110</property>
  <property name="meta.media.height">2160</property>
  <property name="meta.media.aspect_ratio">1</property>
  <property name="meta.media.color_range">mpeg</property>
  <property name="astream">0</property>
  <property name="meta.media.top_field_first">0</property>
  <property name="meta.media.progressive">1</property>
  <property name="kdenlive:control_uuid">{ad9a9cd9-5c3c-4f3a-a737-5fd279a8a81a}</property>
  <property name="kdenlive:id">36</property>
  <property name="kdenlive:clip_type">0</property>
  <property name="kdenlive:file_size">18672179</property>
  <property name="kdenlive:file_hash">7634a9872301afc558aef5434b21af5a</property>
  <property name="kdenlive:folderid">-1</property>
  <property name="mute_on_pause">0</property>
  <property name="kdenlive:monitorPosition">0</property>
 </chain>
 <chain id="chain129" out="00:00:05.000">
  <property name="length">121</property>
  <property name="eof">pause</property>
  <property name="resource">C:/dev/workspace/indy/dist/room/attic/content/upscale/wide/attic24.mp4</property>
  <property name="mlt_service">avformat-novalidate</property>
  <property name="meta.media.nb_streams">2</property>
  <property name="meta.media.0.stream.type">video</property>
  <property name="meta.media.0.stream.frame_rate">60</property>
  <property name="meta.media.0.stream.sample_aspect_ratio">0</property>
  <property name="meta.media.0.codec.width">5110</property>
  <property name="meta.media.0.codec.height">2160</property>
  <property name="meta.media.0.codec.rotate">0</property>
  <property name="meta.media.0.codec.pix_fmt">yuv444p</property>
  <property name="meta.media.0.codec.sample_aspect_ratio">0</property>
  <property name="meta.media.0.codec.colorspace">709</property>
  <property name="meta.media.0.codec.name">h264</property>
  <property name="meta.media.0.codec.long_name">H.264 / AVC / MPEG-4 AVC / MPEG-4 part 10</property>
  <property name="meta.media.0.codec.bit_rate">28970734</property>
  <property name="meta.attr.0.stream.handler_name.markup">VideoHandler</property>
  <property name="meta.attr.0.stream.vendor_id.markup">[0][0][0][0]</property>
  <property name="meta.attr.0.stream.encoder.markup">Lavc61.19.101 libx264</property>
  <property name="meta.media.1.stream.type">audio</property>
  <property name="meta.media.1.codec.sample_fmt">fltp</property>
  <property name="meta.media.1.codec.sample_rate">48000</property>
  <property name="meta.media.1.codec.channels">2</property>
  <property name="meta.media.1.codec.layout">stereo</property>
  <property name="meta.media.1.codec.name">aac</property>
  <property name="meta.media.1.codec.long_name">AAC (Advanced Audio Coding)</property>
  <property name="meta.media.1.codec.bit_rate">2277</property>
  <property name="meta.attr.1.stream.handler_name.markup">SoundHandler</property>
  <property name="meta.attr.1.stream.vendor_id.markup">[0][0][0][0]</property>
  <property name="meta.attr.minor_version.markup">512</property>
  <property name="meta.attr.major_brand.markup">isom</property>
  <property name="meta.attr.compatible_brands.markup">isomiso2avc1mp41</property>
  <property name="meta.attr.encoder.markup">Lavf61.9.100</property>
  <property name="seekable">1</property>
  <property name="meta.media.sample_aspect_num">1</property>
  <property name="meta.media.sample_aspect_den">1</property>
  <property name="audio_index">1</property>
  <property name="video_index">0</property>
  <property name="vstream">0</property>
  <property name="meta.media.frame_rate_num">60</property>
  <property name="meta.media.frame_rate_den">1</property>
  <property name="meta.media.colorspace">709</property>
  <property name="meta.media.color_trc">2</property>
  <property name="meta.media.has_b_frames">2</property>
  <property name="meta.media.width">5110</property>
  <property name="meta.media.height">2160</property>
  <property name="meta.media.aspect_ratio">1</property>
  <property name="meta.media.color_range">mpeg</property>
  <property name="astream">0</property>
  <property name="meta.media.top_field_first">0</property>
  <property name="meta.media.progressive">1</property>
  <property name="kdenlive:control_uuid">{bbed0c97-6cbb-4f98-a573-3d8b78434db9}</property>
  <property name="kdenlive:id">37</property>
  <property name="kdenlive:clip_type">0</property>
  <property name="kdenlive:file_size">18298892</property>
  <property name="kdenlive:file_hash">3fb53e4269bdb406d58062e47f252d66</property>
  <property name="kdenlive:folderid">-1</property>
  <property name="mute_on_pause">0</property>
  <property name="kdenlive:monitorPosition">0</property>
 </chain>
 <chain id="chain144" out="00:00:05.042">
  <property name="length">122</property>
  <property name="eof">pause</property>
  <property name="resource">C:/dev/workspace/indy/dist/room/attic/content/upscale/wide/cross6.mp4</property>
  <property name="mlt_service">avformat-novalidate</property>
  <property name="meta.media.nb_streams">2</property>
  <property name="meta.media.0.stream.type">video</property>
  <property name="meta.media.0.stream.frame_rate">60</property>
  <property name="meta.media.0.stream.sample_aspect_ratio">0</property>
  <property name="meta.media.0.codec.width">5110</property>
  <property name="meta.media.0.codec.height">2160</property>
  <property name="meta.media.0.codec.rotate">0</property>
  <property name="meta.media.0.codec.pix_fmt">yuv444p</property>
  <property name="meta.media.0.codec.sample_aspect_ratio">0</property>
  <property name="meta.media.0.codec.colorspace">709</property>
  <property name="meta.media.0.codec.name">h264</property>
  <property name="meta.media.0.codec.long_name">H.264 / AVC / MPEG-4 AVC / MPEG-4 part 10</property>
  <property name="meta.media.0.codec.bit_rate">24986674</property>
  <property name="meta.attr.0.stream.handler_name.markup">VideoHandler</property>
  <property name="meta.attr.0.stream.vendor_id.markup">[0][0][0][0]</property>
  <property name="meta.attr.0.stream.encoder.markup">Lavc61.19.101 libx264</property>
  <property name="meta.media.1.stream.type">audio</property>
  <property name="meta.media.1.codec.sample_fmt">fltp</property>
  <property name="meta.media.1.codec.sample_rate">48000</property>
  <property name="meta.media.1.codec.channels">2</property>
  <property name="meta.media.1.codec.layout">stereo</property>
  <property name="meta.media.1.codec.name">aac</property>
  <property name="meta.media.1.codec.long_name">AAC (Advanced Audio Coding)</property>
  <property name="meta.media.1.codec.bit_rate">2276</property>
  <property name="meta.attr.1.stream.handler_name.markup">SoundHandler</property>
  <property name="meta.attr.1.stream.vendor_id.markup">[0][0][0][0]</property>
  <property name="meta.attr.minor_version.markup">512</property>
  <property name="meta.attr.major_brand.markup">isom</property>
  <property name="meta.attr.compatible_brands.markup">isomiso2avc1mp41</property>
  <property name="meta.attr.encoder.markup">Lavf61.9.100</property>
  <property name="seekable">1</property>
  <property name="meta.media.sample_aspect_num">1</property>
  <property name="meta.media.sample_aspect_den">1</property>
  <property name="audio_index">1</property>
  <property name="video_index">0</property>
  <property name="vstream">0</property>
  <property name="meta.media.frame_rate_num">60</property>
  <property name="meta.media.frame_rate_den">1</property>
  <property name="meta.media.colorspace">709</property>
  <property name="meta.media.color_trc">2</property>
  <property name="meta.media.has_b_frames">2</property>
  <property name="meta.media.width">5110</property>
  <property name="meta.media.height">2160</property>
  <property name="meta.media.aspect_ratio">1</property>
  <property name="meta.media.color_range">mpeg</property>
  <property name="astream">0</property>
  <property name="meta.media.top_field_first">0</property>
  <property name="meta.media.progressive">1</property>
  <property name="kdenlive:control_uuid">{47a7e1a7-c41e-4aa1-850b-18f1b5b94d22}</property>
  <property name="kdenlive:id">38</property>
  <property name="kdenlive:clip_type">0</property>
  <property name="kdenlive:file_size">15940209</property>
  <property name="kdenlive:file_hash">eac8c128fcc7a1eecde7fc2951b7b320</property>
  <property name="kdenlive:folderid">-1</property>
  <property name="mute_on_pause">0</property>
  <property name="kdenlive:monitorPosition">0</property>
 </chain>
 <chain id="chain146" out="00:00:05.042">
  <property name="length">122</property>
  <property name="eof">pause</property>
  <property name="resource">C:/dev/workspace/indy/dist/room/attic/content/upscale/wide/cross7.mp4</property>
  <property name="mlt_service">avformat-novalidate</property>
  <property name="meta.media.nb_streams">2</property>
  <property name="meta.media.0.stream.type">video</property>
  <property name="meta.media.0.stream.frame_rate">60</property>
  <property name="meta.media.0.stream.sample_aspect_ratio">0</property>
  <property name="meta.media.0.codec.width">5110</property>
  <property name="meta.media.0.codec.height">2160</property>
  <property name="meta.media.0.codec.rotate">0</property>
  <property name="meta.media.0.codec.pix_fmt">yuv444p</property>
  <property name="meta.media.0.codec.sample_aspect_ratio">0</property>
  <property name="meta.media.0.codec.colorspace">709</property>
  <property name="meta.media.0.codec.name">h264</property>
  <property name="meta.media.0.codec.long_name">H.264 / AVC / MPEG-4 AVC / MPEG-4 part 10</property>
  <property name="meta.media.0.codec.bit_rate">28125686</property>
  <property name="meta.attr.0.stream.handler_name.markup">VideoHandler</property>
  <property name="meta.attr.0.stream.vendor_id.markup">[0][0][0][0]</property>
  <property name="meta.attr.0.stream.encoder.markup">Lavc61.19.101 libx264</property>
  <property name="meta.media.1.stream.type">audio</property>
  <property name="meta.media.1.codec.sample_fmt">fltp</property>
  <property name="meta.media.1.codec.sample_rate">48000</property>
  <property name="meta.media.1.codec.channels">2</property>
  <property name="meta.media.1.codec.layout">stereo</property>
  <property name="meta.media.1.codec.name">aac</property>
  <property name="meta.media.1.codec.long_name">AAC (Advanced Audio Coding)</property>
  <property name="meta.media.1.codec.bit_rate">2276</property>
  <property name="meta.attr.1.stream.handler_name.markup">SoundHandler</property>
  <property name="meta.attr.1.stream.vendor_id.markup">[0][0][0][0]</property>
  <property name="meta.attr.minor_version.markup">512</property>
  <property name="meta.attr.major_brand.markup">isom</property>
  <property name="meta.attr.compatible_brands.markup">isomiso2avc1mp41</property>
  <property name="meta.attr.encoder.markup">Lavf61.9.100</property>
  <property name="seekable">1</property>
  <property name="meta.media.sample_aspect_num">1</property>
  <property name="meta.media.sample_aspect_den">1</property>
  <property name="audio_index">1</property>
  <property name="video_index">0</property>
  <property name="vstream">0</property>
  <property name="meta.media.frame_rate_num">60</property>
  <property name="meta.media.frame_rate_den">1</property>
  <property name="meta.media.colorspace">709</property>
  <property name="meta.media.color_trc">2</property>
  <property name="meta.media.has_b_frames">2</property>
  <property name="meta.media.width">5110</property>
  <property name="meta.media.height">2160</property>
  <property name="meta.media.aspect_ratio">1</property>
  <property name="meta.media.color_range">mpeg</property>
  <property name="astream">0</property>
  <property name="meta.media.top_field_first">0</property>
  <property name="meta.media.progressive">1</property>
  <property name="kdenlive:control_uuid">{8e15228f-f78b-42a4-9046-7efba275a0c6}</property>
  <property name="kdenlive:id">39</property>
  <property name="kdenlive:clip_type">0</property>
  <property name="kdenlive:file_size">17941329</property>
  <property name="kdenlive:file_hash">ab5528177f60addadf31b3764906cfca</property>
  <property name="kdenlive:folderid">-1</property>
  <property name="mute_on_pause">0</property>
  <property name="kdenlive:monitorPosition">0</property>
 </chain>
 <chain id="chain148" out="00:00:03.958">
  <property name="length">96</property>
  <property name="eof">pause</property>
  <property name="resource">C:/dev/workspace/indy/dist/room/attic/content/upscale/wide/dialog2.mp4</property>
  <property name="mlt_service">avformat-novalidate</property>
  <property name="meta.media.nb_streams">2</property>
  <property name="meta.media.0.stream.type">video</property>
  <property name="meta.media.0.stream.frame_rate">60</property>
  <property name="meta.media.0.stream.sample_aspect_ratio">0</property>
  <property name="meta.media.0.codec.width">5110</property>
  <property name="meta.media.0.codec.height">2160</property>
  <property name="meta.media.0.codec.rotate">0</property>
  <property name="meta.media.0.codec.pix_fmt">yuv444p</property>
  <property name="meta.media.0.codec.sample_aspect_ratio">0</property>
  <property name="meta.media.0.codec.colorspace">709</property>
  <property name="meta.media.0.codec.name">h264</property>
  <property name="meta.media.0.codec.long_name">H.264 / AVC / MPEG-4 AVC / MPEG-4 part 10</property>
  <property name="meta.media.0.codec.bit_rate">29717736</property>
  <property name="meta.attr.0.stream.handler_name.markup">VideoHandler</property>
  <property name="meta.attr.0.stream.vendor_id.markup">[0][0][0][0]</property>
  <property name="meta.attr.0.stream.encoder.markup">Lavc61.19.101 libx264</property>
  <property name="meta.media.1.stream.type">audio</property>
  <property name="meta.media.1.codec.sample_fmt">fltp</property>
  <property name="meta.media.1.codec.sample_rate">48000</property>
  <property name="meta.media.1.codec.channels">2</property>
  <property name="meta.media.1.codec.layout">stereo</property>
  <property name="meta.media.1.codec.name">aac</property>
  <property name="meta.media.1.codec.long_name">AAC (Advanced Audio Coding)</property>
  <property name="meta.media.1.codec.bit_rate">2250</property>
  <property name="meta.attr.1.stream.handler_name.markup">SoundHandler</property>
  <property name="meta.attr.1.stream.vendor_id.markup">[0][0][0][0]</property>
  <property name="meta.attr.minor_version.markup">512</property>
  <property name="meta.attr.major_brand.markup">isom</property>
  <property name="meta.attr.compatible_brands.markup">isomiso2avc1mp41</property>
  <property name="meta.attr.encoder.markup">Lavf61.9.100</property>
  <property name="seekable">1</property>
  <property name="meta.media.sample_aspect_num">1</property>
  <property name="meta.media.sample_aspect_den">1</property>
  <property name="audio_index">1</property>
  <property name="video_index">0</property>
  <property name="vstream">0</property>
  <property name="meta.media.frame_rate_num">60</property>
  <property name="meta.media.frame_rate_den">1</property>
  <property name="meta.media.colorspace">709</property>
  <property name="meta.media.color_trc">2</property>
  <property name="meta.media.has_b_frames">2</property>
  <property name="meta.media.width">5110</property>
  <property name="meta.media.height">2160</property>
  <property name="meta.media.aspect_ratio">1</property>
  <property name="meta.media.color_range">mpeg</property>
  <property name="astream">0</property>
  <property name="meta.media.top_field_first">0</property>
  <property name="meta.media.progressive">1</property>
  <property name="kdenlive:control_uuid">{5e3cc123-1bc0-48b1-b4f0-95a228062a74}</property>
  <property name="kdenlive:id">40</property>
  <property name="kdenlive:clip_type">0</property>
  <property name="kdenlive:file_size">14929173</property>
  <property name="kdenlive:folderid">-1</property>
  <property name="mute_on_pause">0</property>
  <property name="kdenlive:file_hash">1f69f92d53d1c28efe7472adadf5b85f</property>
  <property name="kdenlive:monitorPosition">0</property>
 </chain>
 <chain id="chain154" out="00:00:04.958">
  <property name="length">120</property>
  <property name="eof">pause</property>
  <property name="resource">C:/dev/workspace/indy/dist/room/attic/content/upscale/wide/dialog3-1.mp4</property>
  <property name="mlt_service">avformat-novalidate</property>
  <property name="meta.media.nb_streams">2</property>
  <property name="meta.media.0.stream.type">video</property>
  <property name="meta.media.0.stream.frame_rate">24</property>
  <property name="meta.media.0.stream.sample_aspect_ratio">0</property>
  <property name="meta.media.0.codec.width">5110</property>
  <property name="meta.media.0.codec.height">2160</property>
  <property name="meta.media.0.codec.rotate">0</property>
  <property name="meta.media.0.codec.pix_fmt">yuv444p</property>
  <property name="meta.media.0.codec.sample_aspect_ratio">0</property>
  <property name="meta.media.0.codec.colorspace">709</property>
  <property name="meta.media.0.codec.name">h264</property>
  <property name="meta.media.0.codec.long_name">H.264 / AVC / MPEG-4 AVC / MPEG-4 part 10</property>
  <property name="meta.media.0.codec.bit_rate">21318844</property>
  <property name="meta.attr.0.stream.handler_name.markup">VideoHandler</property>
  <property name="meta.attr.0.stream.vendor_id.markup">[0][0][0][0]</property>
  <property name="meta.attr.0.stream.encoder.markup">Lavc61.19.101 libx264</property>
  <property name="meta.media.1.stream.type">audio</property>
  <property name="meta.media.1.codec.sample_fmt">fltp</property>
  <property name="meta.media.1.codec.sample_rate">48000</property>
  <property name="meta.media.1.codec.channels">2</property>
  <property name="meta.media.1.codec.layout">stereo</property>
  <property name="meta.media.1.codec.name">aac</property>
  <property name="meta.media.1.codec.long_name">AAC (Advanced Audio Coding)</property>
  <property name="meta.media.1.codec.bit_rate">2277</property>
  <property name="meta.attr.1.stream.handler_name.markup">SoundHandler</property>
  <property name="meta.attr.1.stream.vendor_id.markup">[0][0][0][0]</property>
  <property name="meta.attr.minor_version.markup">512</property>
  <property name="meta.attr.major_brand.markup">isom</property>
  <property name="meta.attr.compatible_brands.markup">isomiso2avc1mp41</property>
  <property name="meta.attr.encoder.markup">Lavf61.9.100</property>
  <property name="seekable">1</property>
  <property name="meta.media.sample_aspect_num">1</property>
  <property name="meta.media.sample_aspect_den">1</property>
  <property name="audio_index">1</property>
  <property name="video_index">0</property>
  <property name="vstream">0</property>
  <property name="meta.media.frame_rate_num">24</property>
  <property name="meta.media.frame_rate_den">1</property>
  <property name="meta.media.colorspace">709</property>
  <property name="meta.media.color_trc">2</property>
  <property name="meta.media.has_b_frames">2</property>
  <property name="meta.media.width">5110</property>
  <property name="meta.media.height">2160</property>
  <property name="meta.media.aspect_ratio">1</property>
  <property name="meta.media.color_range">mpeg</property>
  <property name="astream">0</property>
  <property name="meta.media.top_field_first">0</property>
  <property name="meta.media.progressive">1</property>
  <property name="kdenlive:control_uuid">{f5bc5ac5-6d35-4708-82d0-dffe3f17d8a1}</property>
  <property name="kdenlive:id">41</property>
  <property name="kdenlive:clip_type">0</property>
  <property name="kdenlive:file_size">13330782</property>
  <property name="kdenlive:folderid">-1</property>
  <property name="mute_on_pause">0</property>
  <property name="kdenlive:file_hash">0ceeabacfcee5a7e255661ff02dcfd95</property>
  <property name="kdenlive:monitorPosition">0</property>
 </chain>
 <chain id="chain157" out="00:00:05.250">
  <property name="length">127</property>
  <property name="eof">pause</property>
  <property name="resource">C:/dev/workspace/indy/dist/room/attic/content/upscale/wide/dialog3-2.mp4</property>
  <property name="mlt_service">avformat-novalidate</property>
  <property name="meta.media.nb_streams">2</property>
  <property name="meta.media.0.stream.type">video</property>
  <property name="meta.media.0.stream.frame_rate">24</property>
  <property name="meta.media.0.stream.sample_aspect_ratio">0</property>
  <property name="meta.media.0.codec.width">5110</property>
  <property name="meta.media.0.codec.height">2160</property>
  <property name="meta.media.0.codec.rotate">0</property>
  <property name="meta.media.0.codec.pix_fmt">yuv444p</property>
  <property name="meta.media.0.codec.sample_aspect_ratio">0</property>
  <property name="meta.media.0.codec.colorspace">709</property>
  <property name="meta.media.0.codec.name">h264</property>
  <property name="meta.media.0.codec.long_name">H.264 / AVC / MPEG-4 AVC / MPEG-4 part 10</property>
  <property name="meta.media.0.codec.bit_rate">23961534</property>
  <property name="meta.attr.0.stream.handler_name.markup">VideoHandler</property>
  <property name="meta.attr.0.stream.vendor_id.markup">[0][0][0][0]</property>
  <property name="meta.attr.0.stream.encoder.markup">Lavc61.19.101 libx264</property>
  <property name="meta.media.1.stream.type">audio</property>
  <property name="meta.media.1.codec.sample_fmt">fltp</property>
  <property name="meta.media.1.codec.sample_rate">48000</property>
  <property name="meta.media.1.codec.channels">2</property>
  <property name="meta.media.1.codec.layout">stereo</property>
  <property name="meta.media.1.codec.name">aac</property>
  <property name="meta.media.1.codec.long_name">AAC (Advanced Audio Coding)</property>
  <property name="meta.media.1.codec.bit_rate">2275</property>
  <property name="meta.attr.1.stream.handler_name.markup">SoundHandler</property>
  <property name="meta.attr.1.stream.vendor_id.markup">[0][0][0][0]</property>
  <property name="meta.attr.minor_version.markup">512</property>
  <property name="meta.attr.major_brand.markup">isom</property>
  <property name="meta.attr.compatible_brands.markup">isomiso2avc1mp41</property>
  <property name="meta.attr.encoder.markup">Lavf61.9.100</property>
  <property name="seekable">1</property>
  <property name="meta.media.sample_aspect_num">1</property>
  <property name="meta.media.sample_aspect_den">1</property>
  <property name="audio_index">1</property>
  <property name="video_index">0</property>
  <property name="vstream">0</property>
  <property name="meta.media.frame_rate_num">24</property>
  <property name="meta.media.frame_rate_den">1</property>
  <property name="meta.media.colorspace">709</property>
  <property name="meta.media.color_trc">2</property>
  <property name="meta.media.has_b_frames">2</property>
  <property name="meta.media.width">5110</property>
  <property name="meta.media.height">2160</property>
  <property name="meta.media.aspect_ratio">1</property>
  <property name="meta.media.color_range">mpeg</property>
  <property name="astream">0</property>
  <property name="meta.media.top_field_first">0</property>
  <property name="meta.media.progressive">1</property>
  <property name="kdenlive:control_uuid">{af5d09ed-3a97-4ef9-a204-b29a0cc28eb9}</property>
  <property name="kdenlive:id">42</property>
  <property name="kdenlive:clip_type">0</property>
  <property name="kdenlive:file_size">15856327</property>
  <property name="kdenlive:folderid">-1</property>
  <property name="mute_on_pause">0</property>
  <property name="kdenlive:file_hash">9da1a223391d26924559c80741751bef</property>
  <property name="kdenlive:monitorPosition">0</property>
 </chain>
 <chain id="chain159" out="00:00:09.542">
  <property name="length">230</property>
  <property name="eof">pause</property>
  <property name="resource">C:/dev/workspace/indy/dist/room/attic/content/upscale/wide/gargoyle6.mp4</property>
  <property name="mlt_service">avformat-novalidate</property>
  <property name="meta.media.nb_streams">2</property>
  <property name="meta.media.0.stream.type">video</property>
  <property name="meta.media.0.stream.frame_rate">60</property>
  <property name="meta.media.0.stream.sample_aspect_ratio">0</property>
  <property name="meta.media.0.codec.width">5110</property>
  <property name="meta.media.0.codec.height">2160</property>
  <property name="meta.media.0.codec.rotate">0</property>
  <property name="meta.media.0.codec.pix_fmt">yuv444p</property>
  <property name="meta.media.0.codec.sample_aspect_ratio">0</property>
  <property name="meta.media.0.codec.colorspace">709</property>
  <property name="meta.media.0.codec.name">h264</property>
  <property name="meta.media.0.codec.long_name">H.264 / AVC / MPEG-4 AVC / MPEG-4 part 10</property>
  <property name="meta.media.0.codec.bit_rate">25958618</property>
  <property name="meta.attr.0.stream.handler_name.markup">VideoHandler</property>
  <property name="meta.attr.0.stream.vendor_id.markup">[0][0][0][0]</property>
  <property name="meta.attr.0.stream.encoder.markup">Lavc61.19.101 libx264</property>
  <property name="meta.media.1.stream.type">audio</property>
  <property name="meta.media.1.codec.sample_fmt">fltp</property>
  <property name="meta.media.1.codec.sample_rate">48000</property>
  <property name="meta.media.1.codec.channels">2</property>
  <property name="meta.media.1.codec.layout">stereo</property>
  <property name="meta.media.1.codec.name">aac</property>
  <property name="meta.media.1.codec.long_name">AAC (Advanced Audio Coding)</property>
  <property name="meta.media.1.codec.bit_rate">2265</property>
  <property name="meta.attr.1.stream.handler_name.markup">SoundHandler</property>
  <property name="meta.attr.1.stream.vendor_id.markup">[0][0][0][0]</property>
  <property name="meta.attr.minor_version.markup">512</property>
  <property name="meta.attr.major_brand.markup">isom</property>
  <property name="meta.attr.compatible_brands.markup">isomiso2avc1mp41</property>
  <property name="meta.attr.encoder.markup">Lavf61.9.100</property>
  <property name="seekable">1</property>
  <property name="meta.media.sample_aspect_num">1</property>
  <property name="meta.media.sample_aspect_den">1</property>
  <property name="audio_index">1</property>
  <property name="video_index">0</property>
  <property name="vstream">0</property>
  <property name="meta.media.frame_rate_num">60</property>
  <property name="meta.media.frame_rate_den">1</property>
  <property name="meta.media.colorspace">709</property>
  <property name="meta.media.color_trc">2</property>
  <property name="meta.media.has_b_frames">2</property>
  <property name="meta.media.width">5110</property>
  <property name="meta.media.height">2160</property>
  <property name="meta.media.aspect_ratio">1</property>
  <property name="meta.media.color_range">mpeg</property>
  <property name="astream">0</property>
  <property name="meta.media.top_field_first">0</property>
  <property name="meta.media.progressive">1</property>
  <property name="kdenlive:control_uuid">{3eea0f3a-37f2-4538-a49c-9055fb1c853e}</property>
  <property name="kdenlive:id">43</property>
  <property name="kdenlive:clip_type">0</property>
  <property name="kdenlive:file_size">31115216</property>
  <property name="kdenlive:file_hash">baeabd4779e011ee91135c1d5b7cdb8a</property>
  <property name="kdenlive:folderid">-1</property>
  <property name="mute_on_pause">0</property>
  <property name="kdenlive:monitorPosition">0</property>
 </chain>
 <chain id="chain171" out="00:00:05.042">
  <property name="length">122</property>
  <property name="eof">pause</property>
  <property name="resource">C:/dev/workspace/indy/dist/room/attic/content/upscale/wide/indy4.mp4</property>
  <property name="mlt_service">avformat-novalidate</property>
  <property name="meta.media.nb_streams">2</property>
  <property name="meta.media.0.stream.type">video</property>
  <property name="meta.media.0.stream.frame_rate">60</property>
  <property name="meta.media.0.stream.sample_aspect_ratio">0</property>
  <property name="meta.media.0.codec.width">5110</property>
  <property name="meta.media.0.codec.height">2160</property>
  <property name="meta.media.0.codec.rotate">0</property>
  <property name="meta.media.0.codec.pix_fmt">yuv444p</property>
  <property name="meta.media.0.codec.sample_aspect_ratio">0</property>
  <property name="meta.media.0.codec.colorspace">709</property>
  <property name="meta.media.0.codec.name">h264</property>
  <property name="meta.media.0.codec.long_name">H.264 / AVC / MPEG-4 AVC / MPEG-4 part 10</property>
  <property name="meta.media.0.codec.bit_rate">26422622</property>
  <property name="meta.attr.0.stream.handler_name.markup">VideoHandler</property>
  <property name="meta.attr.0.stream.vendor_id.markup">[0][0][0][0]</property>
  <property name="meta.attr.0.stream.encoder.markup">Lavc61.19.101 libx264</property>
  <property name="meta.media.1.stream.type">audio</property>
  <property name="meta.media.1.codec.sample_fmt">fltp</property>
  <property name="meta.media.1.codec.sample_rate">48000</property>
  <property name="meta.media.1.codec.channels">2</property>
  <property name="meta.media.1.codec.layout">stereo</property>
  <property name="meta.media.1.codec.name">aac</property>
  <property name="meta.media.1.codec.long_name">AAC (Advanced Audio Coding)</property>
  <property name="meta.media.1.codec.bit_rate">2276</property>
  <property name="meta.attr.1.stream.handler_name.markup">SoundHandler</property>
  <property name="meta.attr.1.stream.vendor_id.markup">[0][0][0][0]</property>
  <property name="meta.attr.minor_version.markup">512</property>
  <property name="meta.attr.major_brand.markup">isom</property>
  <property name="meta.attr.compatible_brands.markup">isomiso2avc1mp41</property>
  <property name="meta.attr.encoder.markup">Lavf61.9.100</property>
  <property name="seekable">1</property>
  <property name="meta.media.sample_aspect_num">1</property>
  <property name="meta.media.sample_aspect_den">1</property>
  <property name="audio_index">1</property>
  <property name="video_index">0</property>
  <property name="vstream">0</property>
  <property name="meta.media.frame_rate_num">60</property>
  <property name="meta.media.frame_rate_den">1</property>
  <property name="meta.media.colorspace">709</property>
  <property name="meta.media.color_trc">2</property>
  <property name="meta.media.has_b_frames">2</property>
  <property name="meta.media.width">5110</property>
  <property name="meta.media.height">2160</property>
  <property name="meta.media.aspect_ratio">1</property>
  <property name="meta.media.color_range">mpeg</property>
  <property name="astream">0</property>
  <property name="meta.media.top_field_first">0</property>
  <property name="meta.media.progressive">1</property>
  <property name="kdenlive:control_uuid">{1bde86aa-81a4-4ae4-80e8-5af50e3d0079}</property>
  <property name="kdenlive:id">44</property>
  <property name="kdenlive:clip_type">0</property>
  <property name="kdenlive:file_size">16855626</property>
  <property name="kdenlive:file_hash">78414966b9fc9421ff747b21a490658e</property>
  <property name="kdenlive:folderid">-1</property>
  <property name="mute_on_pause">0</property>
  <property name="kdenlive:monitorPosition">0</property>
 </chain>
 <chain id="chain188" out="00:00:05.042">
  <property name="length">122</property>
  <property name="eof">pause</property>
  <property name="resource">C:/dev/workspace/indy/dist/room/attic/content/upscale/wide/splash3.mp4</property>
  <property name="mlt_service">avformat-novalidate</property>
  <property name="meta.media.nb_streams">2</property>
  <property name="meta.media.0.stream.type">video</property>
  <property name="meta.media.0.stream.frame_rate">60</property>
  <property name="meta.media.0.stream.sample_aspect_ratio">0</property>
  <property name="meta.media.0.codec.width">5110</property>
  <property name="meta.media.0.codec.height">2160</property>
  <property name="meta.media.0.codec.rotate">0</property>
  <property name="meta.media.0.codec.pix_fmt">yuv444p</property>
  <property name="meta.media.0.codec.sample_aspect_ratio">0</property>
  <property name="meta.media.0.codec.colorspace">709</property>
  <property name="meta.media.0.codec.name">h264</property>
  <property name="meta.media.0.codec.long_name">H.264 / AVC / MPEG-4 AVC / MPEG-4 part 10</property>
  <property name="meta.media.0.codec.bit_rate">23845686</property>
  <property name="meta.attr.0.stream.handler_name.markup">VideoHandler</property>
  <property name="meta.attr.0.stream.vendor_id.markup">[0][0][0][0]</property>
  <property name="meta.attr.0.stream.encoder.markup">Lavc61.19.101 libx264</property>
  <property name="meta.media.1.stream.type">audio</property>
  <property name="meta.media.1.codec.sample_fmt">fltp</property>
  <property name="meta.media.1.codec.sample_rate">48000</property>
  <property name="meta.media.1.codec.channels">2</property>
  <property name="meta.media.1.codec.layout">stereo</property>
  <property name="meta.media.1.codec.name">aac</property>
  <property name="meta.media.1.codec.long_name">AAC (Advanced Audio Coding)</property>
  <property name="meta.media.1.codec.bit_rate">2276</property>
  <property name="meta.attr.1.stream.handler_name.markup">SoundHandler</property>
  <property name="meta.attr.1.stream.vendor_id.markup">[0][0][0][0]</property>
  <property name="meta.attr.minor_version.markup">512</property>
  <property name="meta.attr.major_brand.markup">isom</property>
  <property name="meta.attr.compatible_brands.markup">isomiso2avc1mp41</property>
  <property name="meta.attr.encoder.markup">Lavf61.9.100</property>
  <property name="seekable">1</property>
  <property name="meta.media.sample_aspect_num">1</property>
  <property name="meta.media.sample_aspect_den">1</property>
  <property name="audio_index">1</property>
  <property name="video_index">0</property>
  <property name="vstream">0</property>
  <property name="meta.media.frame_rate_num">60</property>
  <property name="meta.media.frame_rate_den">1</property>
  <property name="meta.media.colorspace">709</property>
  <property name="meta.media.color_trc">2</property>
  <property name="meta.media.has_b_frames">2</property>
  <property name="meta.media.width">5110</property>
  <property name="meta.media.height">2160</property>
  <property name="meta.media.aspect_ratio">1</property>
  <property name="meta.media.color_range">mpeg</property>
  <property name="astream">0</property>
  <property name="meta.media.top_field_first">0</property>
  <property name="meta.media.progressive">1</property>
  <property name="kdenlive:control_uuid">{d396c311-fc1b-40df-8de5-65c0823479bd}</property>
  <property name="kdenlive:id">45</property>
  <property name="kdenlive:clip_type">0</property>
  <property name="kdenlive:file_size">15212829</property>
  <property name="kdenlive:file_hash">289799bd83a46f4bbfd9d3209106b84e</property>
  <property name="kdenlive:folderid">-1</property>
  <property name="mute_on_pause">0</property>
  <property name="kdenlive:monitorPosition">0</property>
 </chain>
 <chain id="chain145" out="00:00:10.208">
  <property name="length">246</property>
  <property name="eof">pause</property>
  <property name="resource">C:/dev/workspace/indy/dist/room/attic/content/upscale/dialog.mp4</property>
  <property name="mlt_service">avformat-novalidate</property>
  <property name="meta.media.nb_streams">2</property>
  <property name="meta.media.0.stream.type">video</property>
  <property name="meta.media.0.stream.frame_rate">30</property>
  <property name="meta.media.0.stream.sample_aspect_ratio">0</property>
  <property name="meta.media.0.codec.width">3840</property>
  <property name="meta.media.0.codec.height">2160</property>
  <property name="meta.media.0.codec.rotate">0</property>
  <property name="meta.media.0.codec.pix_fmt">yuv444p</property>
  <property name="meta.media.0.codec.sample_aspect_ratio">0</property>
  <property name="meta.media.0.codec.colorspace">709</property>
  <property name="meta.media.0.codec.name">h264</property>
  <property name="meta.media.0.codec.long_name">H.264 / AVC / MPEG-4 AVC / MPEG-4 part 10</property>
  <property name="meta.media.0.codec.bit_rate">19904928</property>
  <property name="meta.attr.0.stream.handler_name.markup">VideoHandler</property>
  <property name="meta.attr.0.stream.vendor_id.markup">[0][0][0][0]</property>
  <property name="meta.attr.0.stream.encoder.markup">Lavc61.19.101 libx264</property>
  <property name="meta.media.1.stream.type">audio</property>
  <property name="meta.media.1.codec.sample_fmt">fltp</property>
  <property name="meta.media.1.codec.sample_rate">48000</property>
  <property name="meta.media.1.codec.channels">2</property>
  <property name="meta.media.1.codec.layout">stereo</property>
  <property name="meta.media.1.codec.name">aac</property>
  <property name="meta.media.1.codec.long_name">AAC (Advanced Audio Coding)</property>
  <property name="meta.media.1.codec.bit_rate">103120</property>
  <property name="meta.attr.1.stream.handler_name.markup">SoundHandler</property>
  <property name="meta.attr.1.stream.vendor_id.markup">[0][0][0][0]</property>
  <property name="meta.attr.minor_version.markup">512</property>
  <property name="meta.attr.major_brand.markup">isom</property>
  <property name="meta.attr.compatible_brands.markup">isomiso2avc1mp41</property>
  <property name="meta.attr.encoder.markup">Lavf61.9.100</property>
  <property name="seekable">1</property>
  <property name="meta.media.sample_aspect_num">1</property>
  <property name="meta.media.sample_aspect_den">1</property>
  <property name="audio_index">1</property>
  <property name="video_index">0</property>
  <property name="vstream">0</property>
  <property name="meta.media.frame_rate_num">30</property>
  <property name="meta.media.frame_rate_den">1</property>
  <property name="meta.media.colorspace">709</property>
  <property name="meta.media.color_trc">2</property>
  <property name="meta.media.has_b_frames">2</property>
  <property name="meta.media.width">3840</property>
  <property name="meta.media.height">2160</property>
  <property name="meta.media.aspect_ratio">1</property>
  <property name="meta.media.color_range">mpeg</property>
  <property name="astream">0</property>
  <property name="meta.media.top_field_first">0</property>
  <property name="meta.media.progressive">1</property>
  <property name="kdenlive:control_uuid">{94453abe-6dc7-456f-8ad2-e79f6eb1f138}</property>
  <property name="kdenlive:id">46</property>
  <property name="kdenlive:clip_type">0</property>
  <property name="kdenlive:file_size">25690118</property>
  <property name="kdenlive:folderid">-1</property>
  <property name="mute_on_pause">0</property>
  <property name="kdenlive:file_hash">451569796ecd459e09945325320434a5</property>
  <property name="kdenlive:monitorPosition">0</property>
 </chain>
 <chain id="chain156" out="00:00:10.250">
  <property name="length">247</property>
  <property name="eof">pause</property>
  <property name="resource">C:/dev/workspace/indy/dist/room/attic/content/upscale/dialog3.mp4</property>
  <property name="mlt_service">avformat-novalidate</property>
  <property name="meta.media.nb_streams">2</property>
  <property name="meta.media.0.stream.type">video</property>
  <property name="meta.media.0.stream.frame_rate">24</property>
  <property name="meta.media.0.stream.sample_aspect_ratio">0</property>
  <property name="meta.media.0.codec.width">3840</property>
  <property name="meta.media.0.codec.height">2160</property>
  <property name="meta.media.0.codec.rotate">0</property>
  <property name="meta.media.0.codec.pix_fmt">yuv444p</property>
  <property name="meta.media.0.codec.sample_aspect_ratio">0</property>
  <property name="meta.media.0.codec.colorspace">709</property>
  <property name="meta.media.0.codec.name">h264</property>
  <property name="meta.media.0.codec.long_name">H.264 / AVC / MPEG-4 AVC / MPEG-4 part 10</property>
  <property name="meta.media.0.codec.bit_rate">20525812</property>
  <property name="meta.attr.0.stream.handler_name.markup">VideoHandler</property>
  <property name="meta.attr.0.stream.vendor_id.markup">[0][0][0][0]</property>
  <property name="meta.attr.0.stream.encoder.markup">Lavc61.19.101 libx264</property>
  <property name="meta.media.1.stream.type">audio</property>
  <property name="meta.media.1.codec.sample_fmt">fltp</property>
  <property name="meta.media.1.codec.sample_rate">48000</property>
  <property name="meta.media.1.codec.channels">2</property>
  <property name="meta.media.1.codec.layout">stereo</property>
  <property name="meta.media.1.codec.name">aac</property>
  <property name="meta.media.1.codec.long_name">AAC (Advanced Audio Coding)</property>
  <property name="meta.media.1.codec.bit_rate">103350</property>
  <property name="meta.attr.1.stream.handler_name.markup">SoundHandler</property>
  <property name="meta.attr.1.stream.vendor_id.markup">[0][0][0][0]</property>
  <property name="meta.attr.minor_version.markup">512</property>
  <property name="meta.attr.major_brand.markup">isom</property>
  <property name="meta.attr.compatible_brands.markup">isomiso2avc1mp41</property>
  <property name="meta.attr.encoder.markup">Lavf61.9.100</property>
  <property name="seekable">1</property>
  <property name="meta.media.sample_aspect_num">1</property>
  <property name="meta.media.sample_aspect_den">1</property>
  <property name="audio_index">1</property>
  <property name="video_index">0</property>
  <property name="vstream">0</property>
  <property name="meta.media.frame_rate_num">24</property>
  <property name="meta.media.frame_rate_den">1</property>
  <property name="meta.media.colorspace">709</property>
  <property name="meta.media.color_trc">2</property>
  <property name="meta.media.has_b_frames">2</property>
  <property name="meta.media.width">3840</property>
  <property name="meta.media.height">2160</property>
  <property name="meta.media.aspect_ratio">1</property>
  <property name="meta.media.color_range">mpeg</property>
  <property name="astream">0</property>
  <property name="meta.media.top_field_first">0</property>
  <property name="meta.media.progressive">1</property>
  <property name="kdenlive:control_uuid">{fbb7c544-bbaa-4b87-8401-e8c9da2aebd6}</property>
  <property name="kdenlive:id">47</property>
  <property name="kdenlive:clip_type">0</property>
  <property name="kdenlive:file_size">26547258</property>
  <property name="kdenlive:file_hash">6f6126996a70616b1ab317f54b5d811b</property>
  <property name="kdenlive:folderid">-1</property>
  <property name="mute_on_pause">0</property>
  <property name="kdenlive:monitorPosition">0</property>
 </chain>
 <producer id="producer25" in="00:00:00.000" out="00:00:04.958">
  <property name="length">00:00:05.000</property>
  <property name="eof">pause</property>
  <property name="resource">C:/dev/workspace/indy/dist/room/attic/content/cross6-wide.png</property>
  <property name="ttl">25</property>
  <property name="aspect_ratio">1</property>
  <property name="meta.media.progressive">1</property>
  <property name="seekable">1</property>
  <property name="format">2</property>
  <property name="meta.media.width">5160</property>
  <property name="meta.media.height">2160</property>
  <property name="mlt_service">qimage</property>
  <property name="kdenlive:duration">00:00:05.000</property>
  <property name="xml">was here</property>
  <property name="kdenlive:folderid">-1</property>
  <property name="kdenlive:id">48</property>
  <property name="kdenlive:control_uuid">{48ab99d4-8e50-447b-8aa5-9ca2b58d45d8}</property>
  <property name="kdenlive:clip_type">2</property>
  <property name="kdenlive:file_size">8766104</property>
  <property name="kdenlive:file_hash">631cc3052f3780d2acdd3256b07ac562</property>
  <property name="kdenlive:monitorPosition">0</property>
 </producer>
 <producer id="producer26" in="00:00:00.000" out="00:00:04.958">
  <property name="length">00:00:05.000</property>
  <property name="eof">pause</property>
  <property name="resource">C:/dev/workspace/indy/dist/room/attic/content/cross7-wide.png</property>
  <property name="ttl">25</property>
  <property name="aspect_ratio">1</property>
  <property name="meta.media.progressive">1</property>
  <property name="seekable">1</property>
  <property name="format">2</property>
  <property name="meta.media.width">5160</property>
  <property name="meta.media.height">2160</property>
  <property name="mlt_service">qimage</property>
  <property name="kdenlive:duration">00:00:05.000</property>
  <property name="xml">was here</property>
  <property name="kdenlive:folderid">-1</property>
  <property name="kdenlive:id">49</property>
  <property name="kdenlive:control_uuid">{91623ed9-523a-47bf-bdaf-170040a5316c}</property>
  <property name="kdenlive:clip_type">2</property>
  <property name="kdenlive:file_size">8836840</property>
  <property name="kdenlive:file_hash">df5136801f491f8ea25af2bf6be9b92a</property>
  <property name="kdenlive:monitorPosition">0</property>
 </producer>
 <producer id="producer21" in="00:00:00.000" out="00:00:04.958">
  <property name="length">00:00:05.000</property>
  <property name="eof">pause</property>
  <property name="resource">C:/dev/workspace/indy/dist/room/attic/content/dialog2-wide.png</property>
  <property name="ttl">25</property>
  <property name="aspect_ratio">1</property>
  <property name="meta.media.progressive">1</property>
  <property name="seekable">1</property>
  <property name="format">2</property>
  <property name="meta.media.width">5160</property>
  <property name="meta.media.height">2160</property>
  <property name="mlt_service">qimage</property>
  <property name="kdenlive:duration">00:00:05.000</property>
  <property name="xml">was here</property>
  <property name="kdenlive:folderid">-1</property>
  <property name="kdenlive:id">50</property>
  <property name="kdenlive:control_uuid">{1ac4f0e2-fd25-4ef7-9093-8959d0e0705c}</property>
  <property name="kdenlive:clip_type">2</property>
  <property name="kdenlive:file_size">7109633</property>
  <property name="kdenlive:file_hash">b317aecfa1015b39949e13f610ab1d0c</property>
  <property name="kdenlive:monitorPosition">0</property>
 </producer>
 <producer id="producer24" in="00:00:00.000" out="00:00:04.958">
  <property name="length">00:00:05.000</property>
  <property name="eof">pause</property>
  <property name="resource">C:/dev/workspace/indy/dist/room/attic/content/indy4-wide.png</property>
  <property name="ttl">25</property>
  <property name="aspect_ratio">1</property>
  <property name="meta.media.progressive">1</property>
  <property name="seekable">1</property>
  <property name="format">2</property>
  <property name="meta.media.width">5160</property>
  <property name="meta.media.height">2160</property>
  <property name="mlt_service">qimage</property>
  <property name="kdenlive:duration">00:00:05.000</property>
  <property name="xml">was here</property>
  <property name="kdenlive:folderid">-1</property>
  <property name="kdenlive:id">51</property>
  <property name="kdenlive:control_uuid">{3c75d0db-72ca-4d06-ad1f-058af4e5bad8}</property>
  <property name="kdenlive:clip_type">2</property>
  <property name="kdenlive:file_size">9347502</property>
  <property name="kdenlive:file_hash">e7d0301d2b7dff3b49d489e7ddc34873</property>
  <property name="kdenlive:monitorPosition">0</property>
 </producer>
 <chain id="chain92" out="00:02:27.583">
  <property name="length">3543</property>
  <property name="eof">pause</property>
  <property name="resource">C:/dev/workspace/indy/dist/room/attic/content/music/extra/attic3.webm</property>
  <property name="mlt_service">avformat</property>
  <property name="meta.media.nb_streams">1</property>
  <property name="meta.media.0.stream.type">audio</property>
  <property name="meta.media.0.codec.sample_fmt">fltp</property>
  <property name="meta.media.0.codec.sample_rate">48000</property>
  <property name="meta.media.0.codec.channels">2</property>
  <property name="meta.media.0.codec.layout">stereo</property>
  <property name="meta.media.0.codec.name">opus</property>
  <property name="meta.media.0.codec.long_name">Opus</property>
  <property name="meta.media.0.codec.bit_rate">0</property>
  <property name="meta.attr.0.stream.language.markup">eng</property>
  <property name="meta.attr.encoder.markup">google/video-file</property>
  <property name="seekable">1</property>
  <property name="audio_index">0</property>
  <property name="video_index">-1</property>
  <property name="astream">0</property>
  <property name="kdenlive:control_uuid">{c2c01782-f1c4-4939-8295-43ff2112f5d8}</property>
  <property name="kdenlive:id">52</property>
  <property name="kdenlive:clip_type">1</property>
  <property name="kdenlive:file_size">2438707</property>
  <property name="kdenlive:file_hash">cff1cc386ea28017d31ce98bfbfe2b63</property>
  <property name="kdenlive:folderid">-1</property>
  <property name="kdenlive:monitorPosition">0</property>
 </chain>
 <chain id="chain126" out="00:00:05.000">
  <property name="length">121</property>
  <property name="eof">pause</property>
  <property name="resource">C:/dev/workspace/indy/dist/room/attic/content/upscale/attic24.mp4</property>
  <property name="mlt_service">avformat-novalidate</property>
  <property name="meta.media.nb_streams">1</property>
  <property name="meta.media.0.stream.type">video</property>
  <property name="meta.media.0.stream.frame_rate">60</property>
  <property name="meta.media.0.stream.sample_aspect_ratio">0</property>
  <property name="meta.media.0.codec.width">3840</property>
  <property name="meta.media.0.codec.height">2160</property>
  <property name="meta.media.0.codec.rotate">0</property>
  <property name="meta.media.0.codec.pix_fmt">yuv444p</property>
  <property name="meta.media.0.codec.sample_aspect_ratio">0</property>
  <property name="meta.media.0.codec.colorspace">709</property>
  <property name="meta.media.0.codec.name">h264</property>
  <property name="meta.media.0.codec.long_name">H.264 / AVC / MPEG-4 AVC / MPEG-4 part 10</property>
  <property name="meta.media.0.codec.bit_rate">26973779</property>
  <property name="meta.attr.0.stream.handler_name.markup">VideoHandler</property>
  <property name="meta.attr.0.stream.vendor_id.markup">[0][0][0][0]</property>
  <property name="meta.attr.0.stream.encoder.markup">Lavc61.19.101 libx264</property>
  <property name="meta.attr.minor_version.markup">512</property>
  <property name="meta.attr.major_brand.markup">isom</property>
  <property name="meta.attr.compatible_brands.markup">isomiso2avc1mp41</property>
  <property name="meta.attr.encoder.markup">Lavf61.9.100</property>
  <property name="seekable">1</property>
  <property name="meta.media.sample_aspect_num">1</property>
  <property name="meta.media.sample_aspect_den">1</property>
  <property name="audio_index">-1</property>
  <property name="video_index">0</property>
  <property name="vstream">0</property>
  <property name="meta.media.frame_rate_num">60</property>
  <property name="meta.media.frame_rate_den">1</property>
  <property name="meta.media.colorspace">709</property>
  <property name="meta.media.color_trc">2</property>
  <property name="meta.media.has_b_frames">2</property>
  <property name="meta.media.width">3840</property>
  <property name="meta.media.height">2160</property>
  <property name="meta.media.aspect_ratio">1</property>
  <property name="meta.media.color_range">mpeg</property>
  <property name="meta.media.top_field_first">0</property>
  <property name="meta.media.progressive">1</property>
  <property name="kdenlive:control_uuid">{4fde58ab-8829-42bb-881a-49d95735ba05}</property>
  <property name="kdenlive:id">53</property>
  <property name="kdenlive:clip_type">2</property>
  <property name="kdenlive:file_size">17032129</property>
  <property name="kdenlive:file_hash">02a3622e2d8a7435e18a065cc29fb2a4</property>
  <property name="kdenlive:folderid">-1</property>
  <property name="mute_on_pause">0</property>
  <property name="kdenlive:monitorPosition">0</property>
 </chain>
 <producer id="producer27" in="00:00:00.000" out="00:00:13.208">
  <property name="length">00:00:13.250</property>
  <property name="eof">pause</property>
  <property name="resource">0x800000ff</property>
  <property name="aspect_ratio">1</property>
  <property name="mlt_service">color</property>
  <property name="kdenlive:clipname">Color Clip</property>
  <property name="kdenlive:duration">00:00:05.000</property>
  <property name="xml">was here</property>
  <property name="seekable">1</property>
  <property name="kdenlive:folderid">-1</property>
  <property name="kdenlive:id">54</property>
  <property name="kdenlive:control_uuid">{484dd929-70b9-494e-845b-dfc521058a7e}</property>
  <property name="mlt_image_format">rgb</property>
  <property name="kdenlive:clip_type">2</property>
  <property name="kdenlive:file_hash">eff7bdad9c0d1b4cba6acf0859812dfa</property>
  <property name="kdenlive:monitorPosition">0</property>
 </producer>
 <chain id="chain147" out="00:00:03.958">
  <property name="length">96</property>
  <property name="eof">pause</property>
  <property name="resource">C:/dev/workspace/indy/dist/room/attic/content/upscale/dialog2.mp4</property>
  <property name="mlt_service">avformat-novalidate</property>
  <property name="meta.media.nb_streams">2</property>
  <property name="meta.media.0.stream.type">video</property>
  <property name="meta.media.0.stream.frame_rate">60</property>
  <property name="meta.media.0.stream.sample_aspect_ratio">0</property>
  <property name="meta.media.0.codec.width">3840</property>
  <property name="meta.media.0.codec.height">2160</property>
  <property name="meta.media.0.codec.rotate">0</property>
  <property name="meta.media.0.codec.pix_fmt">yuv444p</property>
  <property name="meta.media.0.codec.sample_aspect_ratio">0</property>
  <property name="meta.media.0.codec.colorspace">709</property>
  <property name="meta.media.0.codec.name">h264</property>
  <property name="meta.media.0.codec.long_name">H.264 / AVC / MPEG-4 AVC / MPEG-4 part 10</property>
  <property name="meta.media.0.codec.bit_rate">25060128</property>
  <property name="meta.attr.0.stream.handler_name.markup">VideoHandler</property>
  <property name="meta.attr.0.stream.vendor_id.markup">[0][0][0][0]</property>
  <property name="meta.attr.0.stream.encoder.markup">Lavc61.19.101 libx264</property>
  <property name="meta.media.1.stream.type">audio</property>
  <property name="meta.media.1.codec.sample_fmt">fltp</property>
  <property name="meta.media.1.codec.sample_rate">48000</property>
  <property name="meta.media.1.codec.channels">2</property>
  <property name="meta.media.1.codec.layout">stereo</property>
  <property name="meta.media.1.codec.name">aac</property>
  <property name="meta.media.1.codec.long_name">AAC (Advanced Audio Coding)</property>
  <property name="meta.media.1.codec.bit_rate">70438</property>
  <property name="meta.attr.1.stream.handler_name.markup">SoundHandler</property>
  <property name="meta.attr.1.stream.vendor_id.markup">[0][0][0][0]</property>
  <property name="meta.attr.minor_version.markup">512</property>
  <property name="meta.attr.major_brand.markup">isom</property>
  <property name="meta.attr.compatible_brands.markup">isomiso2avc1mp41</property>
  <property name="meta.attr.encoder.markup">Lavf61.9.100</property>
  <property name="seekable">1</property>
  <property name="meta.media.sample_aspect_num">1</property>
  <property name="meta.media.sample_aspect_den">1</property>
  <property name="audio_index">1</property>
  <property name="video_index">0</property>
  <property name="vstream">0</property>
  <property name="meta.media.frame_rate_num">60</property>
  <property name="meta.media.frame_rate_den">1</property>
  <property name="meta.media.colorspace">709</property>
  <property name="meta.media.color_trc">2</property>
  <property name="meta.media.has_b_frames">2</property>
  <property name="meta.media.width">3840</property>
  <property name="meta.media.height">2160</property>
  <property name="meta.media.aspect_ratio">1</property>
  <property name="meta.media.color_range">mpeg</property>
  <property name="astream">0</property>
  <property name="meta.media.top_field_first">0</property>
  <property name="meta.media.progressive">1</property>
  <property name="kdenlive:control_uuid">{8a1d1a51-3b09-487f-b7e9-f124a871366a}</property>
  <property name="kdenlive:id">55</property>
  <property name="kdenlive:clip_type">0</property>
  <property name="kdenlive:file_size">12573357</property>
  <property name="kdenlive:folderid">-1</property>
  <property name="mute_on_pause">0</property>
  <property name="kdenlive:file_hash">a066089dc084b7ab69cd37717149b966</property>
  <property name="kdenlive:monitorPosition">0</property>
 </chain>
 <chain id="chain106" out="00:00:08.958">
  <property name="length">216</property>
  <property name="eof">pause</property>
  <property name="resource">C:/dev/workspace/indy/dist/room/attic/content/upscale/wide/attic11-1.mp4</property>
  <property name="mlt_service">avformat-novalidate</property>
  <property name="meta.media.nb_streams">2</property>
  <property name="meta.media.0.stream.type">video</property>
  <property name="meta.media.0.stream.frame_rate">60</property>
  <property name="meta.media.0.stream.sample_aspect_ratio">0</property>
  <property name="meta.media.0.codec.width">5110</property>
  <property name="meta.media.0.codec.height">2160</property>
  <property name="meta.media.0.codec.rotate">0</property>
  <property name="meta.media.0.codec.pix_fmt">yuv444p</property>
  <property name="meta.media.0.codec.sample_aspect_ratio">0</property>
  <property name="meta.media.0.codec.colorspace">709</property>
  <property name="meta.media.0.codec.name">h264</property>
  <property name="meta.media.0.codec.long_name">H.264 / AVC / MPEG-4 AVC / MPEG-4 part 10</property>
  <property name="meta.media.0.codec.bit_rate">33598611</property>
  <property name="meta.attr.0.stream.handler_name.markup">VideoHandler</property>
  <property name="meta.attr.0.stream.vendor_id.markup">[0][0][0][0]</property>
  <property name="meta.attr.0.stream.encoder.markup">Lavc61.19.101 libx264</property>
  <property name="meta.media.1.stream.type">audio</property>
  <property name="meta.media.1.codec.sample_fmt">fltp</property>
  <property name="meta.media.1.codec.sample_rate">48000</property>
  <property name="meta.media.1.codec.channels">2</property>
  <property name="meta.media.1.codec.layout">stereo</property>
  <property name="meta.media.1.codec.name">aac</property>
  <property name="meta.media.1.codec.long_name">AAC (Advanced Audio Coding)</property>
  <property name="meta.media.1.codec.bit_rate">2265</property>
  <property name="meta.attr.1.stream.handler_name.markup">SoundHandler</property>
  <property name="meta.attr.1.stream.vendor_id.markup">[0][0][0][0]</property>
  <property name="meta.attr.minor_version.markup">512</property>
  <property name="meta.attr.major_brand.markup">isom</property>
  <property name="meta.attr.compatible_brands.markup">isomiso2avc1mp41</property>
  <property name="meta.attr.encoder.markup">Lavf61.9.100</property>
  <property name="seekable">1</property>
  <property name="meta.media.sample_aspect_num">1</property>
  <property name="meta.media.sample_aspect_den">1</property>
  <property name="audio_index">1</property>
  <property name="video_index">0</property>
  <property name="vstream">0</property>
  <property name="meta.media.frame_rate_num">60</property>
  <property name="meta.media.frame_rate_den">1</property>
  <property name="meta.media.colorspace">709</property>
  <property name="meta.media.color_trc">2</property>
  <property name="meta.media.has_b_frames">2</property>
  <property name="meta.media.width">5110</property>
  <property name="meta.media.height">2160</property>
  <property name="meta.media.aspect_ratio">1</property>
  <property name="meta.media.color_range">mpeg</property>
  <property name="astream">0</property>
  <property name="meta.media.top_field_first">0</property>
  <property name="meta.media.progressive">1</property>
  <property name="kdenlive:control_uuid">{017a4357-fc50-4b3f-b1f9-76c667b28b9b}</property>
  <property name="kdenlive:id">56</property>
  <property name="kdenlive:clip_type">0</property>
  <property name="kdenlive:file_size">37816964</property>
  <property name="kdenlive:file_hash">71db133abe27e5eaddbc13430c96b570</property>
  <property name="kdenlive:folderid">-1</property>
  <property name="mute_on_pause">0</property>
  <property name="kdenlive:monitorPosition">0</property>
 </chain>
 <chain id="chain108" out="00:00:05.042">
  <property name="length">122</property>
  <property name="eof">pause</property>
  <property name="resource">C:/dev/workspace/indy/dist/room/attic/content/upscale/wide/attic11-2.mp4</property>
  <property name="mlt_service">avformat-novalidate</property>
  <property name="meta.media.nb_streams">2</property>
  <property name="meta.media.0.stream.type">video</property>
  <property name="meta.media.0.stream.frame_rate">60</property>
  <property name="meta.media.0.stream.sample_aspect_ratio">0</property>
  <property name="meta.media.0.codec.width">5110</property>
  <property name="meta.media.0.codec.height">2160</property>
  <property name="meta.media.0.codec.rotate">0</property>
  <property name="meta.media.0.codec.pix_fmt">yuv444p</property>
  <property name="meta.media.0.codec.sample_aspect_ratio">0</property>
  <property name="meta.media.0.codec.colorspace">709</property>
  <property name="meta.media.0.codec.name">h264</property>
  <property name="meta.media.0.codec.long_name">H.264 / AVC / MPEG-4 AVC / MPEG-4 part 10</property>
  <property name="meta.media.0.codec.bit_rate">30474836</property>
  <property name="meta.attr.0.stream.handler_name.markup">VideoHandler</property>
  <property name="meta.attr.0.stream.vendor_id.markup">[0][0][0][0]</property>
  <property name="meta.attr.0.stream.encoder.markup">Lavc61.19.101 libx264</property>
  <property name="meta.media.1.stream.type">audio</property>
  <property name="meta.media.1.codec.sample_fmt">fltp</property>
  <property name="meta.media.1.codec.sample_rate">48000</property>
  <property name="meta.media.1.codec.channels">2</property>
  <property name="meta.media.1.codec.layout">stereo</property>
  <property name="meta.media.1.codec.name">aac</property>
  <property name="meta.media.1.codec.long_name">AAC (Advanced Audio Coding)</property>
  <property name="meta.media.1.codec.bit_rate">2276</property>
  <property name="meta.attr.1.stream.handler_name.markup">SoundHandler</property>
  <property name="meta.attr.1.stream.vendor_id.markup">[0][0][0][0]</property>
  <property name="meta.attr.minor_version.markup">512</property>
  <property name="meta.attr.major_brand.markup">isom</property>
  <property name="meta.attr.compatible_brands.markup">isomiso2avc1mp41</property>
  <property name="meta.attr.encoder.markup">Lavf61.9.100</property>
  <property name="seekable">1</property>
  <property name="meta.media.sample_aspect_num">1</property>
  <property name="meta.media.sample_aspect_den">1</property>
  <property name="audio_index">1</property>
  <property name="video_index">0</property>
  <property name="vstream">0</property>
  <property name="meta.media.frame_rate_num">60</property>
  <property name="meta.media.frame_rate_den">1</property>
  <property name="meta.media.colorspace">709</property>
  <property name="meta.media.color_trc">2</property>
  <property name="meta.media.has_b_frames">2</property>
  <property name="meta.media.width">5110</property>
  <property name="meta.media.height">2160</property>
  <property name="meta.media.aspect_ratio">1</property>
  <property name="meta.media.color_range">mpeg</property>
  <property name="astream">0</property>
  <property name="meta.media.top_field_first">0</property>
  <property name="meta.media.progressive">1</property>
  <property name="kdenlive:control_uuid">{3c5fdc43-550a-4800-b8ca-fa6cce16a6d6}</property>
  <property name="kdenlive:id">57</property>
  <property name="kdenlive:clip_type">0</property>
  <property name="kdenlive:file_size">19438912</property>
  <property name="kdenlive:file_hash">0e9b7dac07d3bc9992b5f41d71b7e373</property>
  <property name="kdenlive:folderid">-1</property>
  <property name="mute_on_pause">0</property>
  <property name="kdenlive:monitorPosition">0</property>
 </chain>
 <chain id="chain114" out="00:00:05.042">
  <property name="length">122</property>
  <property name="eof">pause</property>
  <property name="resource">C:/dev/workspace/indy/dist/room/attic/content/upscale/wide/attic12.mp4</property>
  <property name="mlt_service">avformat-novalidate</property>
  <property name="meta.media.nb_streams">2</property>
  <property name="meta.media.0.stream.type">video</property>
  <property name="meta.media.0.stream.frame_rate">60</property>
  <property name="meta.media.0.stream.sample_aspect_ratio">0</property>
  <property name="meta.media.0.codec.width">5110</property>
  <property name="meta.media.0.codec.height">2160</property>
  <property name="meta.media.0.codec.rotate">0</property>
  <property name="meta.media.0.codec.pix_fmt">yuv444p</property>
  <property name="meta.media.0.codec.sample_aspect_ratio">0</property>
  <property name="meta.media.0.codec.colorspace">709</property>
  <property name="meta.media.0.codec.name">h264</property>
  <property name="meta.media.0.codec.long_name">H.264 / AVC / MPEG-4 AVC / MPEG-4 part 10</property>
  <property name="meta.media.0.codec.bit_rate">23749145</property>
  <property name="meta.attr.0.stream.handler_name.markup">VideoHandler</property>
  <property name="meta.attr.0.stream.vendor_id.markup">[0][0][0][0]</property>
  <property name="meta.attr.0.stream.encoder.markup">Lavc61.19.101 libx264</property>
  <property name="meta.media.1.stream.type">audio</property>
  <property name="meta.media.1.codec.sample_fmt">fltp</property>
  <property name="meta.media.1.codec.sample_rate">48000</property>
  <property name="meta.media.1.codec.channels">2</property>
  <property name="meta.media.1.codec.layout">stereo</property>
  <property name="meta.media.1.codec.name">aac</property>
  <property name="meta.media.1.codec.long_name">AAC (Advanced Audio Coding)</property>
  <property name="meta.media.1.codec.bit_rate">2276</property>
  <property name="meta.attr.1.stream.handler_name.markup">SoundHandler</property>
  <property name="meta.attr.1.stream.vendor_id.markup">[0][0][0][0]</property>
  <property name="meta.attr.minor_version.markup">512</property>
  <property name="meta.attr.major_brand.markup">isom</property>
  <property name="meta.attr.compatible_brands.markup">isomiso2avc1mp41</property>
  <property name="meta.attr.encoder.markup">Lavf61.9.100</property>
  <property name="seekable">1</property>
  <property name="meta.media.sample_aspect_num">1</property>
  <property name="meta.media.sample_aspect_den">1</property>
  <property name="audio_index">1</property>
  <property name="video_index">0</property>
  <property name="vstream">0</property>
  <property name="meta.media.frame_rate_num">60</property>
  <property name="meta.media.frame_rate_den">1</property>
  <property name="meta.media.colorspace">709</property>
  <property name="meta.media.color_trc">2</property>
  <property name="meta.media.has_b_frames">2</property>
  <property name="meta.media.width">5110</property>
  <property name="meta.media.height">2160</property>
  <property name="meta.media.aspect_ratio">1</property>
  <property name="meta.media.color_range">mpeg</property>
  <property name="astream">0</property>
  <property name="meta.media.top_field_first">0</property>
  <property name="meta.media.progressive">1</property>
  <property name="kdenlive:control_uuid">{99033c3d-8dfc-4a46-8477-1c02f7bb170e}</property>
  <property name="kdenlive:id">58</property>
  <property name="kdenlive:clip_type">0</property>
  <property name="kdenlive:file_size">15151268</property>
  <property name="kdenlive:file_hash">53d0917b6f0926f1f31822cbef76a541</property>
  <property name="kdenlive:folderid">-1</property>
  <property name="mute_on_pause">0</property>
  <property name="kdenlive:monitorPosition">0</property>
 </chain>
 <chain id="chain161" out="00:00:05.042">
  <property name="length">122</property>
  <property name="eof">pause</property>
  <property name="resource">C:/dev/workspace/indy/dist/room/attic2/content/upscale/wide/indy.mp4</property>
  <property name="mlt_service">avformat-novalidate</property>
  <property name="meta.media.nb_streams">1</property>
  <property name="meta.media.0.stream.type">video</property>
  <property name="meta.media.0.stream.frame_rate">60</property>
  <property name="meta.media.0.stream.sample_aspect_ratio">0</property>
  <property name="meta.media.0.codec.width">5110</property>
  <property name="meta.media.0.codec.height">2160</property>
  <property name="meta.media.0.codec.rotate">0</property>
  <property name="meta.media.0.codec.pix_fmt">yuv444p</property>
  <property name="meta.media.0.codec.sample_aspect_ratio">0</property>
  <property name="meta.media.0.codec.colorspace">709</property>
  <property name="meta.media.0.codec.name">h264</property>
  <property name="meta.media.0.codec.long_name">H.264 / AVC / MPEG-4 AVC / MPEG-4 part 10</property>
  <property name="meta.media.0.codec.bit_rate">29868321</property>
  <property name="meta.attr.0.stream.handler_name.markup">VideoHandler</property>
  <property name="meta.attr.0.stream.vendor_id.markup">[0][0][0][0]</property>
  <property name="meta.attr.0.stream.encoder.markup">Lavc61.19.101 libx264</property>
  <property name="meta.attr.minor_version.markup">512</property>
  <property name="meta.attr.major_brand.markup">isom</property>
  <property name="meta.attr.compatible_brands.markup">isomiso2avc1mp41</property>
  <property name="meta.attr.encoder.markup">Lavf61.9.100</property>
  <property name="seekable">1</property>
  <property name="meta.media.sample_aspect_num">1</property>
  <property name="meta.media.sample_aspect_den">1</property>
  <property name="audio_index">-1</property>
  <property name="video_index">0</property>
  <property name="vstream">0</property>
  <property name="meta.media.frame_rate_num">60</property>
  <property name="meta.media.frame_rate_den">1</property>
  <property name="meta.media.colorspace">709</property>
  <property name="meta.media.color_trc">2</property>
  <property name="meta.media.has_b_frames">2</property>
  <property name="meta.media.width">5110</property>
  <property name="meta.media.height">2160</property>
  <property name="meta.media.aspect_ratio">1</property>
  <property name="meta.media.color_range">mpeg</property>
  <property name="meta.media.top_field_first">0</property>
  <property name="meta.media.progressive">1</property>
  <property name="kdenlive:control_uuid">{0bf7c8a8-76e0-4d93-8782-da6eb447392c}</property>
  <property name="kdenlive:id">59</property>
  <property name="kdenlive:clip_type">2</property>
  <property name="kdenlive:file_size">18983805</property>
  <property name="kdenlive:folderid">-1</property>
  <property name="mute_on_pause">0</property>
  <property name="kdenlive:file_hash">0c81387f12e4d4328f91b2299e955657</property>
  <property name="kdenlive:monitorPosition">0</property>
 </chain>
 <chain id="chain169" out="00:00:04.625">
  <property name="length">112</property>
  <property name="eof">pause</property>
  <property name="resource">C:/dev/workspace/indy/dist/room/attic2/content/upscale/wide/indy2.mp4</property>
  <property name="mlt_service">avformat-novalidate</property>
  <property name="meta.media.nb_streams">2</property>
  <property name="meta.media.0.stream.type">video</property>
  <property name="meta.media.0.stream.frame_rate">24</property>
  <property name="meta.media.0.stream.sample_aspect_ratio">0</property>
  <property name="meta.media.0.codec.width">1552</property>
  <property name="meta.media.0.codec.height">656</property>
  <property name="meta.media.0.codec.rotate">0</property>
  <property name="meta.media.0.codec.pix_fmt">yuv420p</property>
  <property name="meta.media.0.codec.sample_aspect_ratio">0</property>
  <property name="meta.media.0.codec.colorspace">709</property>
  <property name="meta.media.0.codec.name">h264</property>
  <property name="meta.media.0.codec.long_name">H.264 / AVC / MPEG-4 AVC / MPEG-4 part 10</property>
  <property name="meta.media.0.codec.bit_rate">5384240</property>
  <property name="meta.attr.0.stream.handler_name.markup">VideoHandler</property>
  <property name="meta.attr.0.stream.vendor_id.markup">[0][0][0][0]</property>
  <property name="meta.attr.0.stream.encoder.markup">Lavc61.19.101 libx264</property>
  <property name="meta.media.1.stream.type">audio</property>
  <property name="meta.media.1.codec.sample_fmt">fltp</property>
  <property name="meta.media.1.codec.sample_rate">48000</property>
  <property name="meta.media.1.codec.channels">2</property>
  <property name="meta.media.1.codec.layout">stereo</property>
  <property name="meta.media.1.codec.name">aac</property>
  <property name="meta.media.1.codec.long_name">AAC (Advanced Audio Coding)</property>
  <property name="meta.media.1.codec.bit_rate">2279</property>
  <property name="meta.attr.1.stream.handler_name.markup">SoundHandler</property>
  <property name="meta.attr.1.stream.vendor_id.markup">[0][0][0][0]</property>
  <property name="meta.attr.minor_version.markup">512</property>
  <property name="meta.attr.major_brand.markup">isom</property>
  <property name="meta.attr.compatible_brands.markup">isomiso2avc1mp41</property>
  <property name="meta.attr.encoder.markup">Lavf61.7.100</property>
  <property name="seekable">1</property>
  <property name="meta.media.sample_aspect_num">1</property>
  <property name="meta.media.sample_aspect_den">1</property>
  <property name="audio_index">1</property>
  <property name="video_index">0</property>
  <property name="vstream">0</property>
  <property name="meta.media.frame_rate_num">24</property>
  <property name="meta.media.frame_rate_den">1</property>
  <property name="meta.media.colorspace">709</property>
  <property name="meta.media.color_trc">2</property>
  <property name="meta.media.has_b_frames">2</property>
  <property name="meta.media.width">1552</property>
  <property name="meta.media.height">656</property>
  <property name="meta.media.aspect_ratio">1</property>
  <property name="meta.media.color_range">mpeg</property>
  <property name="astream">0</property>
  <property name="meta.media.top_field_first">0</property>
  <property name="meta.media.progressive">1</property>
  <property name="kdenlive:control_uuid">{64c3a609-5d20-4645-93c5-c0de008f3e25}</property>
  <property name="kdenlive:id">60</property>
  <property name="kdenlive:clip_type">0</property>
  <property name="kdenlive:file_size">21712118</property>
  <property name="kdenlive:folderid">-1</property>
  <property name="mute_on_pause">0</property>
  <property name="kdenlive:monitorPosition">0</property>
  <property name="kdenlive:file_hash">07dad9216eb890ff6daf16cbe91f14b1</property>
 </chain>
 <chain id="chain163" out="00:00:05.042">
  <property name="length">122</property>
  <property name="eof">pause</property>
  <property name="resource">C:/dev/workspace/indy/dist/room/attic2/content/upscale/indy.mp4</property>
  <property name="mlt_service">avformat-novalidate</property>
  <property name="meta.media.nb_streams">1</property>
  <property name="meta.media.0.stream.type">video</property>
  <property name="meta.media.0.stream.frame_rate">60</property>
  <property name="meta.media.0.stream.sample_aspect_ratio">0</property>
  <property name="meta.media.0.codec.width">3840</property>
  <property name="meta.media.0.codec.height">2160</property>
  <property name="meta.media.0.codec.rotate">0</property>
  <property name="meta.media.0.codec.pix_fmt">yuv444p</property>
  <property name="meta.media.0.codec.sample_aspect_ratio">0</property>
  <property name="meta.media.0.codec.colorspace">709</property>
  <property name="meta.media.0.codec.name">h264</property>
  <property name="meta.media.0.codec.long_name">H.264 / AVC / MPEG-4 AVC / MPEG-4 part 10</property>
  <property name="meta.media.0.codec.bit_rate">24088795</property>
  <property name="meta.attr.0.stream.handler_name.markup">VideoHandler</property>
  <property name="meta.attr.0.stream.vendor_id.markup">[0][0][0][0]</property>
  <property name="meta.attr.0.stream.encoder.markup">Lavc61.19.101 libx264</property>
  <property name="meta.attr.minor_version.markup">512</property>
  <property name="meta.attr.major_brand.markup">isom</property>
  <property name="meta.attr.compatible_brands.markup">isomiso2avc1mp41</property>
  <property name="meta.attr.encoder.markup">Lavf61.9.100</property>
  <property name="seekable">1</property>
  <property name="meta.media.sample_aspect_num">1</property>
  <property name="meta.media.sample_aspect_den">1</property>
  <property name="audio_index">-1</property>
  <property name="video_index">0</property>
  <property name="vstream">0</property>
  <property name="meta.media.frame_rate_num">60</property>
  <property name="meta.media.frame_rate_den">1</property>
  <property name="meta.media.colorspace">709</property>
  <property name="meta.media.color_trc">2</property>
  <property name="meta.media.has_b_frames">2</property>
  <property name="meta.media.width">3840</property>
  <property name="meta.media.height">2160</property>
  <property name="meta.media.aspect_ratio">1</property>
  <property name="meta.media.color_range">mpeg</property>
  <property name="meta.media.top_field_first">0</property>
  <property name="meta.media.progressive">1</property>
  <property name="kdenlive:control_uuid">{3e68eeae-8bfb-420b-bbf3-2a39b8083e25}</property>
  <property name="kdenlive:id">61</property>
  <property name="kdenlive:clip_type">2</property>
  <property name="kdenlive:file_size">15361542</property>
  <property name="kdenlive:file_hash">56ca686ab9ca25016bdd3a6b935f41b0</property>
  <property name="kdenlive:folderid">-1</property>
  <property name="mute_on_pause">0</property>
  <property name="kdenlive:monitorPosition">0</property>
 </chain>
 <chain id="chain175" out="00:00:04.625">
  <property name="length">112</property>
  <property name="eof">pause</property>
  <property name="resource">C:/dev/workspace/indy/dist/room/attic2/content/upscale/wide/indy4.mp4</property>
  <property name="mlt_service">avformat-novalidate</property>
  <property name="meta.media.nb_streams">2</property>
  <property name="meta.media.0.stream.type">video</property>
  <property name="meta.media.0.stream.frame_rate">24</property>
  <property name="meta.media.0.stream.sample_aspect_ratio">0</property>
  <property name="meta.media.0.codec.width">1552</property>
  <property name="meta.media.0.codec.height">656</property>
  <property name="meta.media.0.codec.rotate">0</property>
  <property name="meta.media.0.codec.pix_fmt">yuv420p</property>
  <property name="meta.media.0.codec.sample_aspect_ratio">0</property>
  <property name="meta.media.0.codec.colorspace">709</property>
  <property name="meta.media.0.codec.name">h264</property>
  <property name="meta.media.0.codec.long_name">H.264 / AVC / MPEG-4 AVC / MPEG-4 part 10</property>
  <property name="meta.media.0.codec.bit_rate">5837821</property>
  <property name="meta.attr.0.stream.handler_name.markup">VideoHandler</property>
  <property name="meta.attr.0.stream.vendor_id.markup">[0][0][0][0]</property>
  <property name="meta.attr.0.stream.encoder.markup">Lavc61.19.101 libx264</property>
  <property name="meta.media.1.stream.type">audio</property>
  <property name="meta.media.1.codec.sample_fmt">fltp</property>
  <property name="meta.media.1.codec.sample_rate">48000</property>
  <property name="meta.media.1.codec.channels">2</property>
  <property name="meta.media.1.codec.layout">stereo</property>
  <property name="meta.media.1.codec.name">aac</property>
  <property name="meta.media.1.codec.long_name">AAC (Advanced Audio Coding)</property>
  <property name="meta.media.1.codec.bit_rate">2279</property>
  <property name="meta.attr.1.stream.handler_name.markup">SoundHandler</property>
  <property name="meta.attr.1.stream.vendor_id.markup">[0][0][0][0]</property>
  <property name="meta.attr.minor_version.markup">512</property>
  <property name="meta.attr.major_brand.markup">isom</property>
  <property name="meta.attr.compatible_brands.markup">isomiso2avc1mp41</property>
  <property name="meta.attr.encoder.markup">Lavf61.7.100</property>
  <property name="seekable">1</property>
  <property name="meta.media.sample_aspect_num">1</property>
  <property name="meta.media.sample_aspect_den">1</property>
  <property name="audio_index">1</property>
  <property name="video_index">0</property>
  <property name="vstream">0</property>
  <property name="meta.media.frame_rate_num">24</property>
  <property name="meta.media.frame_rate_den">1</property>
  <property name="meta.media.colorspace">709</property>
  <property name="meta.media.color_trc">2</property>
  <property name="meta.media.has_b_frames">2</property>
  <property name="meta.media.width">1552</property>
  <property name="meta.media.height">656</property>
  <property name="meta.media.aspect_ratio">1</property>
  <property name="meta.media.color_range">mpeg</property>
  <property name="astream">0</property>
  <property name="meta.media.top_field_first">0</property>
  <property name="meta.media.progressive">1</property>
  <property name="kdenlive:control_uuid">{0ec0567e-2b79-4a68-8520-02c5e24bd8c7}</property>
  <property name="kdenlive:id">62</property>
  <property name="kdenlive:clip_type">0</property>
  <property name="kdenlive:file_size">21710765</property>
  <property name="kdenlive:folderid">-1</property>
  <property name="mute_on_pause">0</property>
  <property name="kdenlive:monitorPosition">0</property>
  <property name="kdenlive:file_hash">5dbefe1db74819feb26dc9f79dd0860d</property>
 </chain>
 <chain id="chain172" out="00:00:04.625">
  <property name="length">112</property>
  <property name="eof">pause</property>
  <property name="resource">C:/dev/workspace/indy/dist/room/attic2/content/upscale/indy4.mp4</property>
  <property name="mlt_service">avformat-novalidate</property>
  <property name="meta.media.nb_streams">1</property>
  <property name="meta.media.0.stream.type">video</property>
  <property name="meta.media.0.stream.frame_rate">60</property>
  <property name="meta.media.0.stream.sample_aspect_ratio">0</property>
  <property name="meta.media.0.codec.width">3840</property>
  <property name="meta.media.0.codec.height">2160</property>
  <property name="meta.media.0.codec.rotate">0</property>
  <property name="meta.media.0.codec.pix_fmt">yuv444p</property>
  <property name="meta.media.0.codec.sample_aspect_ratio">0</property>
  <property name="meta.media.0.codec.colorspace">709</property>
  <property name="meta.media.0.codec.name">h264</property>
  <property name="meta.media.0.codec.long_name">H.264 / AVC / MPEG-4 AVC / MPEG-4 part 10</property>
  <property name="meta.media.0.codec.bit_rate">47298920</property>
  <property name="meta.attr.0.stream.handler_name.markup">VideoHandler</property>
  <property name="meta.attr.0.stream.vendor_id.markup">[0][0][0][0]</property>
  <property name="meta.attr.0.stream.encoder.markup">Lavc61.19.101 libx264</property>
  <property name="meta.attr.minor_version.markup">512</property>
  <property name="meta.attr.major_brand.markup">isom</property>
  <property name="meta.attr.compatible_brands.markup">isomiso2avc1mp41</property>
  <property name="meta.attr.encoder.markup">Lavf61.9.100</property>
  <property name="seekable">1</property>
  <property name="meta.media.sample_aspect_num">1</property>
  <property name="meta.media.sample_aspect_den">1</property>
  <property name="audio_index">-1</property>
  <property name="video_index">0</property>
  <property name="vstream">0</property>
  <property name="meta.media.frame_rate_num">60</property>
  <property name="meta.media.frame_rate_den">1</property>
  <property name="meta.media.colorspace">709</property>
  <property name="meta.media.color_trc">2</property>
  <property name="meta.media.has_b_frames">2</property>
  <property name="meta.media.width">3840</property>
  <property name="meta.media.height">2160</property>
  <property name="meta.media.aspect_ratio">1</property>
  <property name="meta.media.color_range">mpeg</property>
  <property name="meta.media.top_field_first">0</property>
  <property name="meta.media.progressive">1</property>
  <property name="kdenlive:control_uuid">{8b1621ca-8633-4196-b981-2cd151857227}</property>
  <property name="kdenlive:id">63</property>
  <property name="kdenlive:clip_type">2</property>
  <property name="kdenlive:file_size">18871698</property>
  <property name="kdenlive:folderid">-1</property>
  <property name="mute_on_pause">0</property>
  <property name="kdenlive:monitorPosition">0</property>
  <property name="kdenlive:file_hash">44daaf40df765719f3c39475c46dbe77</property>
 </chain>
 <chain id="chain13" out="00:05:24.042">
  <property name="length">7778</property>
  <property name="eof">pause</property>
  <property name="resource">C:/dev/workspace/indy/dist/movie/content/music/extra/indy-80.webm</property>
  <property name="mlt_service">avformat</property>
  <property name="meta.media.nb_streams">1</property>
  <property name="meta.media.0.stream.type">audio</property>
  <property name="meta.media.0.codec.sample_fmt">fltp</property>
  <property name="meta.media.0.codec.sample_rate">48000</property>
  <property name="meta.media.0.codec.channels">2</property>
  <property name="meta.media.0.codec.layout">stereo</property>
  <property name="meta.media.0.codec.name">opus</property>
  <property name="meta.media.0.codec.long_name">Opus</property>
  <property name="meta.media.0.codec.bit_rate">0</property>
  <property name="meta.attr.0.stream.language.markup">eng</property>
  <property name="meta.attr.0.stream.ENCODER.markup">Lavc61.19.101 libopus</property>
  <property name="meta.attr.0.stream.DURATION.markup">00:05:24.090000000</property>
  <property name="meta.attr.ENCODER.markup">Lavf61.7.100</property>
  <property name="seekable">1</property>
  <property name="audio_index">0</property>
  <property name="video_index">-1</property>
  <property name="astream">0</property>
  <property name="kdenlive:control_uuid">{e6d8f899-7697-4ec1-b560-e98e0ccb82a3}</property>
  <property name="kdenlive:proxy">-</property>
  <property name="kdenlive:originalurl">C:/dev/workspace/indy/dist/movie/content/music/extra/indy-80.webm</property>
  <property name="kdenlive:id">64</property>
  <property name="kdenlive:clip_type">1</property>
  <property name="kdenlive:file_size">3941938</property>
  <property name="kdenlive:file_hash">5345198042797ddc29c8bb2b71c12c87</property>
  <property name="kdenlive:folderid">-1</property>
  <property name="kdenlive:monitorPosition">0</property>
 </chain>
 <producer id="producer39" in="00:00:00.000" out="00:00:07.417">
  <property name="length">179</property>
  <property name="eof">pause</property>
  <property name="resource"/>
  <property name="meta.media.progressive">1</property>
  <property name="aspect_ratio">1</property>
  <property name="seekable">1</property>
  <property name="mlt_service">kdenlivetitle</property>
  <property name="kdenlive:duration">00:00:05:00</property>
  <property name="kdenlive:clipname">Kerner STOLE...</property>
  <property name="xmldata">&lt;kdenlivetitle LC_NUMERIC="C" duration="120" height="2160" out="119" width="3840">
 &lt;item type="QGraphicsTextItem" z-index="0">
  &lt;position x="890" y="1045">
   &lt;transform>1,0,0,0,1,0,0,0,1&lt;/transform>
  &lt;/position>
  &lt;content alignment="4" box-height="70" box-width="2059" font="Microgramma" font-color="255,255,255,255" font-italic="0" font-pixel-size="76" font-underline="0" font-weight="400" letter-spacing="0" line-spacing="0" shadow="0;#64000000;3;3;3" tab-width="80" typewriter="0;2;1;0;0">Kerner STOLE A MYSTERIOUS STATUE&lt;/content>
 &lt;/item>
 &lt;startviewport rect="0,0,3840,2160"/>
 &lt;endviewport rect="0,0,3840,2160"/>
 &lt;background color="0,0,0,0"/>
&lt;/kdenlivetitle>
</property>
  <property name="xml">was here</property>
  <property name="kdenlive:folderid">-1</property>
  <property name="kdenlive:id">65</property>
  <property name="kdenlive:clip_type">2</property>
  <property name="kdenlive:file_hash">44fc629a46f5b87b8f5306b5d9f193ba</property>
  <property name="force_reload">0</property>
  <property name="kdenlive:monitorPosition">1</property>
  <property name="kdenlive:control_uuid">{b6baecbf-49c8-4e00-b4a9-9b04e083d357}</property>
  <property name="kdenlive:uniqueId">{24065428-ddfe-41b5-b0cc-78c300bcf0f8}</property>
  <property name="meta.media.width">3840</property>
  <property name="meta.media.height">2160</property>
 </producer>
 <chain id="chain179" out="00:01:44.333">
  <property name="length">2505</property>
  <property name="eof">pause</property>
  <property name="resource">C:/dev/workspace/indy/dist/room/intro/content/audio/rain.mp3</property>
  <property name="mlt_service">avformat</property>
  <property name="meta.media.nb_streams">1</property>
  <property name="meta.media.0.stream.type">audio</property>
  <property name="meta.media.0.codec.sample_fmt">fltp</property>
  <property name="meta.media.0.codec.sample_rate">44100</property>
  <property name="meta.media.0.codec.channels">2</property>
  <property name="meta.media.0.codec.layout">stereo</property>
  <property name="meta.media.0.codec.name">mp3float</property>
  <property name="meta.media.0.codec.long_name">MP3 (MPEG audio layer 3)</property>
  <property name="meta.media.0.codec.bit_rate">256000</property>
  <property name="seekable">1</property>
  <property name="audio_index">0</property>
  <property name="video_index">-1</property>
  <property name="astream">0</property>
  <property name="kdenlive:control_uuid">{38ce72ba-2d78-48ac-a2d0-cdcf350f0e62}</property>
  <property name="kdenlive:id">66</property>
  <property name="kdenlive:clip_type">1</property>
  <property name="kdenlive:file_size">3339493</property>
  <property name="kdenlive:file_hash">88c51648872e5e4a4a4e5d3f220a7d84</property>
  <property name="kdenlive:folderid">-1</property>
  <property name="kdenlive:monitorPosition">0</property>
 </chain>
 <chain id="chain150" out="00:00:15.167">
  <property name="length">365</property>
  <property name="eof">pause</property>
  <property name="resource">C:/dev/workspace/indy/dist/room/chase/content/audio/fire.mp3</property>
  <property name="mlt_service">avformat</property>
  <property name="meta.media.nb_streams">1</property>
  <property name="meta.media.0.stream.type">audio</property>
  <property name="meta.media.0.codec.sample_fmt">fltp</property>
  <property name="meta.media.0.codec.sample_rate">44100</property>
  <property name="meta.media.0.codec.channels">2</property>
  <property name="meta.media.0.codec.layout">stereo</property>
  <property name="meta.media.0.codec.name">mp3float</property>
  <property name="meta.media.0.codec.long_name">MP3 (MPEG audio layer 3)</property>
  <property name="meta.media.0.codec.bit_rate">256000</property>
  <property name="seekable">1</property>
  <property name="audio_index">0</property>
  <property name="video_index">-1</property>
  <property name="astream">0</property>
  <property name="kdenlive:control_uuid">{95e2e9bc-8547-46ba-a5e3-7d1755ee0ebd}</property>
  <property name="kdenlive:id">67</property>
  <property name="kdenlive:clip_type">1</property>
  <property name="kdenlive:file_size">486504</property>
  <property name="kdenlive:file_hash">ad89feba011006b7f4b7a2d2799aec1b</property>
  <property name="kdenlive:folderid">-1</property>
  <property name="kdenlive:monitorPosition">0</property>
 </chain>
 <producer id="producer40" in="00:00:00.000" out="00:00:07.417">
  <property name="length">179</property>
  <property name="eof">pause</property>
  <property name="resource"/>
  <property name="meta.media.progressive">1</property>
  <property name="aspect_ratio">1</property>
  <property name="seekable">1</property>
  <property name="mlt_service">kdenlivetitle</property>
  <property name="kdenlive:duration">00:00:05:00</property>
  <property name="kdenlive:clipname">AND TOOK MAR...</property>
  <property name="xmldata">&lt;kdenlivetitle LC_NUMERIC="C" duration="120" height="2160" out="119" width="3840">
 &lt;item type="QGraphicsTextItem" z-index="0">
  &lt;position x="988" y="1045">
   &lt;transform>1,0,0,0,1,0,0,0,1&lt;/transform>
  &lt;/position>
  &lt;content alignment="4" box-height="70" box-width="1863" font="Microgramma" font-color="255,255,255,255" font-italic="0" font-pixel-size="76" font-underline="0" font-weight="400" letter-spacing="0" line-spacing="0" shadow="0;#64000000;3;3;3" tab-width="80" typewriter="0;2;1;0;0">AND TOOK MARCUS INTO CUSTODY&lt;/content>
 &lt;/item>
 &lt;startviewport rect="0,0,3840,2160"/>
 &lt;endviewport rect="0,0,3840,2160"/>
 &lt;background color="0,0,0,0"/>
&lt;/kdenlivetitle>
</property>
  <property name="xml">was here</property>
  <property name="kdenlive:folderid">-1</property>
  <property name="kdenlive:id">68</property>
  <property name="kdenlive:clip_type">2</property>
  <property name="kdenlive:file_hash">9012b3eaa20d7cb1e35dbe14c0c2427c</property>
  <property name="force_reload">0</property>
  <property name="kdenlive:monitorPosition">0</property>
  <property name="kdenlive:control_uuid">{16f306a6-a2b4-4eae-bc15-b4672fe58a3c}</property>
  <property name="kdenlive:uniqueId">{fa1fe97f-04e5-40dd-bc80-5cd9e00a89ca}</property>
  <property name="meta.media.width">3840</property>
  <property name="meta.media.height">2160</property>
 </producer>
 <producer id="producer29" in="00:00:00.000" out="00:00:04.958">
  <property name="length">00:00:05.000</property>
  <property name="eof">pause</property>
  <property name="resource">C:/dev/workspace/indy/dist/room/attic/content/attic22-wide.png</property>
  <property name="ttl">25</property>
  <property name="aspect_ratio">1</property>
  <property name="meta.media.progressive">1</property>
  <property name="seekable">1</property>
  <property name="format">2</property>
  <property name="meta.media.width">5160</property>
  <property name="meta.media.height">2160</property>
  <property name="mlt_service">qimage</property>
  <property name="kdenlive:duration">00:00:05:00</property>
  <property name="xml">was here</property>
  <property name="kdenlive:folderid">-1</property>
  <property name="kdenlive:id">69</property>
  <property name="kdenlive:control_uuid">{71029224-ca1a-49c0-86d4-82aa55451782}</property>
  <property name="kdenlive:clip_type">2</property>
  <property name="kdenlive:file_size">2807813</property>
  <property name="kdenlive:file_hash">7d4064801fbed6442962b06e22b87c80</property>
  <property name="kdenlive:monitorPosition">0</property>
 </producer>
 <chain id="chain35" out="00:00:05.042">
  <property name="length">122</property>
  <property name="eof">pause</property>
  <property name="resource">C:/dev/workspace/indy/dist/room/attic2/content/upscale/wide/indy6.mp4</property>
  <property name="mlt_service">avformat-novalidate</property>
  <property name="meta.media.nb_streams">2</property>
  <property name="meta.media.0.stream.type">video</property>
  <property name="meta.media.0.stream.frame_rate">60</property>
  <property name="meta.media.0.stream.sample_aspect_ratio">0</property>
  <property name="meta.media.0.codec.width">5110</property>
  <property name="meta.media.0.codec.height">2160</property>
  <property name="meta.media.0.codec.rotate">0</property>
  <property name="meta.media.0.codec.pix_fmt">yuv444p</property>
  <property name="meta.media.0.codec.sample_aspect_ratio">0</property>
  <property name="meta.media.0.codec.colorspace">709</property>
  <property name="meta.media.0.codec.name">h264</property>
  <property name="meta.media.0.codec.long_name">H.264 / AVC / MPEG-4 AVC / MPEG-4 part 10</property>
  <property name="meta.media.0.codec.bit_rate">26503725</property>
  <property name="meta.attr.0.stream.handler_name.markup">VideoHandler</property>
  <property name="meta.attr.0.stream.vendor_id.markup">[0][0][0][0]</property>
  <property name="meta.attr.0.stream.encoder.markup">Lavc61.19.101 libx264</property>
  <property name="meta.media.1.stream.type">audio</property>
  <property name="meta.media.1.codec.sample_fmt">fltp</property>
  <property name="meta.media.1.codec.sample_rate">48000</property>
  <property name="meta.media.1.codec.channels">2</property>
  <property name="meta.media.1.codec.layout">stereo</property>
  <property name="meta.media.1.codec.name">aac</property>
  <property name="meta.media.1.codec.long_name">AAC (Advanced Audio Coding)</property>
  <property name="meta.media.1.codec.bit_rate">2276</property>
  <property name="meta.attr.1.stream.handler_name.markup">SoundHandler</property>
  <property name="meta.attr.1.stream.vendor_id.markup">[0][0][0][0]</property>
  <property name="meta.attr.major_brand.markup">isom</property>
  <property name="meta.attr.minor_version.markup">512</property>
  <property name="meta.attr.compatible_brands.markup">isomiso2avc1mp41</property>
  <property name="meta.attr.encoder.markup">Lavf61.9.100</property>
  <property name="seekable">1</property>
  <property name="meta.media.sample_aspect_num">1</property>
  <property name="meta.media.sample_aspect_den">1</property>
  <property name="audio_index">1</property>
  <property name="video_index">0</property>
  <property name="vstream">0</property>
  <property name="meta.media.frame_rate_num">60</property>
  <property name="meta.media.frame_rate_den">1</property>
  <property name="meta.media.colorspace">709</property>
  <property name="meta.media.color_trc">2</property>
  <property name="meta.media.has_b_frames">2</property>
  <property name="meta.media.width">5110</property>
  <property name="meta.media.height">2160</property>
  <property name="meta.media.aspect_ratio">1</property>
  <property name="meta.media.color_range">mpeg</property>
  <property name="astream">0</property>
  <property name="meta.media.top_field_first">0</property>
  <property name="meta.media.progressive">1</property>
  <property name="kdenlive:folderid">-1</property>
  <property name="kdenlive:id">70</property>
  <property name="kdenlive:control_uuid">{7ebad5ea-c89a-4078-8d49-c906b1ff91a7}</property>
  <property name="mute_on_pause">0</property>
  <property name="kdenlive:clip_type">0</property>
  <property name="kdenlive:file_size">16907329</property>
  <property name="kdenlive:monitorPosition">0</property>
  <property name="kdenlive:file_hash">fdea86e8fc2ebfa232d9dfc982fd4a0c</property>
 </chain>
 <producer id="producer33" in="00:00:00.000" out="00:00:04.958">
  <property name="length">00:00:05.000</property>
  <property name="eof">pause</property>
  <property name="resource">C:/dev/workspace/indy/dist/room/attic2/data/indy2-wide.png</property>
  <property name="ttl">25</property>
  <property name="aspect_ratio">1</property>
  <property name="meta.media.progressive">1</property>
  <property name="seekable">1</property>
  <property name="format">2</property>
  <property name="meta.media.width">5160</property>
  <property name="meta.media.height">2160</property>
  <property name="mlt_service">qimage</property>
  <property name="kdenlive:duration">00:00:05.000</property>
  <property name="xml">was here</property>
  <property name="kdenlive:folderid">-1</property>
  <property name="kdenlive:id">71</property>
  <property name="kdenlive:control_uuid">{0f27442f-5547-4314-9dd9-d5c027df24ab}</property>
  <property name="kdenlive:clip_type">2</property>
  <property name="kdenlive:file_size">10946422</property>
  <property name="kdenlive:file_hash">9d75e59cb97f47ce5bfa311d3ba930c2</property>
  <property name="kdenlive:monitorPosition">18</property>
 </producer>
 <producer id="producer32" in="00:00:00.000" out="00:00:04.958">
  <property name="length">00:00:05.000</property>
  <property name="eof">pause</property>
  <property name="resource">C:/dev/workspace/indy/dist/room/attic/content/attic24-wide.png</property>
  <property name="ttl">25</property>
  <property name="aspect_ratio">1</property>
  <property name="meta.media.progressive">1</property>
  <property name="seekable">1</property>
  <property name="format">2</property>
  <property name="meta.media.width">5160</property>
  <property name="meta.media.height">2160</property>
  <property name="mlt_service">qimage</property>
  <property name="kdenlive:duration">00:00:05.000</property>
  <property name="xml">was here</property>
  <property name="kdenlive:folderid">-1</property>
  <property name="kdenlive:id">72</property>
  <property name="kdenlive:control_uuid">{339c5b36-a45b-4e73-971c-ed264a686c53}</property>
  <property name="kdenlive:clip_type">2</property>
  <property name="kdenlive:file_size">9327723</property>
  <property name="kdenlive:file_hash">73ceaa1547213412c33d827cb13e759a</property>
  <property name="kdenlive:monitorPosition">0</property>
 </producer>
 <chain id="chain53" out="00:00:05.000">
  <property name="length">121</property>
  <property name="eof">pause</property>
  <property name="resource">C:/dev/workspace/indy/dist/room/attic/content/upscale/attic22.mp4</property>
  <property name="mlt_service">avformat-novalidate</property>
  <property name="meta.media.nb_streams">1</property>
  <property name="meta.media.0.stream.type">video</property>
  <property name="meta.media.0.stream.frame_rate">24</property>
  <property name="meta.media.0.stream.sample_aspect_ratio">0</property>
  <property name="meta.media.0.codec.width">3840</property>
  <property name="meta.media.0.codec.height">2160</property>
  <property name="meta.media.0.codec.rotate">0</property>
  <property name="meta.media.0.codec.pix_fmt">yuv444p</property>
  <property name="meta.media.0.codec.sample_aspect_ratio">0</property>
  <property name="meta.media.0.codec.colorspace">709</property>
  <property name="meta.media.0.codec.name">h264</property>
  <property name="meta.media.0.codec.long_name">H.264 / AVC / MPEG-4 AVC / MPEG-4 part 10</property>
  <property name="meta.media.0.codec.bit_rate">24191105</property>
  <property name="meta.attr.0.stream.handler_name.markup">VideoHandler</property>
  <property name="meta.attr.0.stream.vendor_id.markup">[0][0][0][0]</property>
  <property name="meta.attr.0.stream.encoder.markup">Lavc61.19.101 libx264</property>
  <property name="meta.attr.minor_version.markup">512</property>
  <property name="meta.attr.major_brand.markup">isom</property>
  <property name="meta.attr.compatible_brands.markup">isomiso2avc1mp41</property>
  <property name="meta.attr.encoder.markup">Lavf61.9.100</property>
  <property name="seekable">1</property>
  <property name="meta.media.sample_aspect_num">1</property>
  <property name="meta.media.sample_aspect_den">1</property>
  <property name="audio_index">-1</property>
  <property name="video_index">0</property>
  <property name="vstream">0</property>
  <property name="meta.media.frame_rate_num">24</property>
  <property name="meta.media.frame_rate_den">1</property>
  <property name="meta.media.colorspace">709</property>
  <property name="meta.media.color_trc">2</property>
  <property name="meta.media.has_b_frames">2</property>
  <property name="meta.media.width">3840</property>
  <property name="meta.media.height">2160</property>
  <property name="meta.media.aspect_ratio">1</property>
  <property name="meta.media.color_range">mpeg</property>
  <property name="meta.media.top_field_first">0</property>
  <property name="meta.media.progressive">1</property>
  <property name="kdenlive:folderid">-1</property>
  <property name="kdenlive:id">73</property>
  <property name="kdenlive:control_uuid">{310de7b7-88c9-4a4a-b2cc-c247a3c9d3e0}</property>
  <property name="mute_on_pause">0</property>
  <property name="kdenlive:clip_type">2</property>
  <property name="kdenlive:file_size">15248071</property>
  <property name="kdenlive:file_hash">8aba2557e9db3355c76e558f76aaad37</property>
  <property name="kdenlive:monitorPosition">0</property>
 </chain>
 <chain id="chain67" out="00:00:05.000">
  <property name="length">121</property>
  <property name="eof">pause</property>
  <property name="resource">C:/dev/workspace/indy/dist/room/attic/content/upscale/wide/attic22.mp4</property>
  <property name="mlt_service">avformat-novalidate</property>
  <property name="meta.media.nb_streams">2</property>
  <property name="meta.media.0.stream.type">video</property>
  <property name="meta.media.0.stream.frame_rate">24</property>
  <property name="meta.media.0.stream.sample_aspect_ratio">0</property>
  <property name="meta.media.0.codec.width">5110</property>
  <property name="meta.media.0.codec.height">2160</property>
  <property name="meta.media.0.codec.rotate">0</property>
  <property name="meta.media.0.codec.pix_fmt">yuv444p</property>
  <property name="meta.media.0.codec.sample_aspect_ratio">0</property>
  <property name="meta.media.0.codec.colorspace">709</property>
  <property name="meta.media.0.codec.name">h264</property>
  <property name="meta.media.0.codec.long_name">H.264 / AVC / MPEG-4 AVC / MPEG-4 part 10</property>
  <property name="meta.media.0.codec.bit_rate">24316914</property>
  <property name="meta.attr.0.stream.handler_name.markup">VideoHandler</property>
  <property name="meta.attr.0.stream.vendor_id.markup">[0][0][0][0]</property>
  <property name="meta.attr.0.stream.encoder.markup">Lavc61.19.101 libx264</property>
  <property name="meta.media.1.stream.type">audio</property>
  <property name="meta.media.1.codec.sample_fmt">fltp</property>
  <property name="meta.media.1.codec.sample_rate">48000</property>
  <property name="meta.media.1.codec.channels">2</property>
  <property name="meta.media.1.codec.layout">stereo</property>
  <property name="meta.media.1.codec.name">aac</property>
  <property name="meta.media.1.codec.long_name">AAC (Advanced Audio Coding)</property>
  <property name="meta.media.1.codec.bit_rate">2277</property>
  <property name="meta.attr.1.stream.handler_name.markup">SoundHandler</property>
  <property name="meta.attr.1.stream.vendor_id.markup">[0][0][0][0]</property>
  <property name="meta.attr.minor_version.markup">512</property>
  <property name="meta.attr.major_brand.markup">isom</property>
  <property name="meta.attr.compatible_brands.markup">isomiso2avc1mp41</property>
  <property name="meta.attr.encoder.markup">Lavf61.9.100</property>
  <property name="seekable">1</property>
  <property name="meta.media.sample_aspect_num">1</property>
  <property name="meta.media.sample_aspect_den">1</property>
  <property name="audio_index">1</property>
  <property name="video_index">0</property>
  <property name="vstream">0</property>
  <property name="meta.media.frame_rate_num">24</property>
  <property name="meta.media.frame_rate_den">1</property>
  <property name="meta.media.colorspace">709</property>
  <property name="meta.media.color_trc">2</property>
  <property name="meta.media.has_b_frames">2</property>
  <property name="meta.media.width">5110</property>
  <property name="meta.media.height">2160</property>
  <property name="meta.media.aspect_ratio">1</property>
  <property name="meta.media.color_range">mpeg</property>
  <property name="astream">0</property>
  <property name="meta.media.top_field_first">0</property>
  <property name="meta.media.progressive">1</property>
  <property name="kdenlive:folderid">-1</property>
  <property name="kdenlive:id">74</property>
  <property name="kdenlive:control_uuid">{63a84f15-402a-417c-80a7-c179a9f6a623}</property>
  <property name="mute_on_pause">0</property>
  <property name="kdenlive:clip_type">0</property>
  <property name="kdenlive:file_size">15331282</property>
  <property name="kdenlive:file_hash">7fe12b06d8e28bf0738cb4603027d779</property>
  <property name="kdenlive:monitorPosition">0</property>
 </chain>
 <chain id="chain5" out="00:00:05.000">
  <property name="length">121</property>
  <property name="eof">pause</property>
  <property name="resource">C:/dev/workspace/indy/dist/room/attic/content/upscale/attic25.mp4</property>
  <property name="mlt_service">avformat-novalidate</property>
  <property name="meta.media.nb_streams">1</property>
  <property name="meta.media.0.stream.type">video</property>
  <property name="meta.media.0.stream.frame_rate">60</property>
  <property name="meta.media.0.stream.sample_aspect_ratio">0</property>
  <property name="meta.media.0.codec.width">3840</property>
  <property name="meta.media.0.codec.height">2160</property>
  <property name="meta.media.0.codec.rotate">0</property>
  <property name="meta.media.0.codec.pix_fmt">yuv444p</property>
  <property name="meta.media.0.codec.sample_aspect_ratio">0</property>
  <property name="meta.media.0.codec.colorspace">709</property>
  <property name="meta.media.0.codec.name">h264</property>
  <property name="meta.media.0.codec.long_name">H.264 / AVC / MPEG-4 AVC / MPEG-4 part 10</property>
  <property name="meta.media.0.codec.bit_rate">28170271</property>
  <property name="meta.attr.0.stream.handler_name.markup">VideoHandler</property>
  <property name="meta.attr.0.stream.vendor_id.markup">[0][0][0][0]</property>
  <property name="meta.attr.0.stream.encoder.markup">Lavc61.19.101 libx264</property>
  <property name="meta.attr.minor_version.markup">512</property>
  <property name="meta.attr.major_brand.markup">isom</property>
  <property name="meta.attr.compatible_brands.markup">isomiso2avc1mp41</property>
  <property name="meta.attr.encoder.markup">Lavf61.9.100</property>
  <property name="seekable">1</property>
  <property name="meta.media.sample_aspect_num">1</property>
  <property name="meta.media.sample_aspect_den">1</property>
  <property name="audio_index">-1</property>
  <property name="video_index">0</property>
  <property name="vstream">0</property>
  <property name="meta.media.frame_rate_num">60</property>
  <property name="meta.media.frame_rate_den">1</property>
  <property name="meta.media.colorspace">709</property>
  <property name="meta.media.color_trc">2</property>
  <property name="meta.media.has_b_frames">2</property>
  <property name="meta.media.width">3840</property>
  <property name="meta.media.height">2160</property>
  <property name="meta.media.aspect_ratio">1</property>
  <property name="meta.media.color_range">mpeg</property>
  <property name="meta.media.top_field_first">0</property>
  <property name="meta.media.progressive">1</property>
  <property name="kdenlive:folderid">-1</property>
  <property name="kdenlive:id">75</property>
  <property name="kdenlive:control_uuid">{5f702e3e-6ded-4d9b-aa11-1a8eb00ba870}</property>
  <property name="mute_on_pause">0</property>
  <property name="kdenlive:clip_type">2</property>
  <property name="kdenlive:file_size">17787367</property>
  <property name="kdenlive:file_hash">4fcda16f05a0257b9fb38a631db124c8</property>
  <property name="kdenlive:monitorPosition">0</property>
 </chain>
 <chain id="chain14" out="00:00:05.000">
  <property name="length">121</property>
  <property name="eof">pause</property>
  <property name="resource">C:/dev/workspace/indy/dist/room/attic/content/upscale/wide/attic25.mp4</property>
  <property name="mlt_service">avformat-novalidate</property>
  <property name="meta.media.nb_streams">2</property>
  <property name="meta.media.0.stream.type">video</property>
  <property name="meta.media.0.stream.frame_rate">60</property>
  <property name="meta.media.0.stream.sample_aspect_ratio">0</property>
  <property name="meta.media.0.codec.width">5110</property>
  <property name="meta.media.0.codec.height">2160</property>
  <property name="meta.media.0.codec.rotate">0</property>
  <property name="meta.media.0.codec.pix_fmt">yuv444p</property>
  <property name="meta.media.0.codec.sample_aspect_ratio">0</property>
  <property name="meta.media.0.codec.colorspace">709</property>
  <property name="meta.media.0.codec.name">h264</property>
  <property name="meta.media.0.codec.long_name">H.264 / AVC / MPEG-4 AVC / MPEG-4 part 10</property>
  <property name="meta.media.0.codec.bit_rate">33198661</property>
  <property name="meta.attr.0.stream.handler_name.markup">VideoHandler</property>
  <property name="meta.attr.0.stream.vendor_id.markup">[0][0][0][0]</property>
  <property name="meta.attr.0.stream.encoder.markup">Lavc61.19.101 libx264</property>
  <property name="meta.media.1.stream.type">audio</property>
  <property name="meta.media.1.codec.sample_fmt">fltp</property>
  <property name="meta.media.1.codec.sample_rate">48000</property>
  <property name="meta.media.1.codec.channels">2</property>
  <property name="meta.media.1.codec.layout">stereo</property>
  <property name="meta.media.1.codec.name">aac</property>
  <property name="meta.media.1.codec.long_name">AAC (Advanced Audio Coding)</property>
  <property name="meta.media.1.codec.bit_rate">2277</property>
  <property name="meta.attr.1.stream.handler_name.markup">SoundHandler</property>
  <property name="meta.attr.1.stream.vendor_id.markup">[0][0][0][0]</property>
  <property name="meta.attr.minor_version.markup">512</property>
  <property name="meta.attr.major_brand.markup">isom</property>
  <property name="meta.attr.compatible_brands.markup">isomiso2avc1mp41</property>
  <property name="meta.attr.encoder.markup">Lavf61.9.100</property>
  <property name="seekable">1</property>
  <property name="meta.media.sample_aspect_num">1</property>
  <property name="meta.media.sample_aspect_den">1</property>
  <property name="audio_index">1</property>
  <property name="video_index">0</property>
  <property name="vstream">0</property>
  <property name="meta.media.frame_rate_num">60</property>
  <property name="meta.media.frame_rate_den">1</property>
  <property name="meta.media.colorspace">709</property>
  <property name="meta.media.color_trc">2</property>
  <property name="meta.media.has_b_frames">2</property>
  <property name="meta.media.width">5110</property>
  <property name="meta.media.height">2160</property>
  <property name="meta.media.aspect_ratio">1</property>
  <property name="meta.media.color_range">mpeg</property>
  <property name="astream">0</property>
  <property name="meta.media.top_field_first">0</property>
  <property name="meta.media.progressive">1</property>
  <property name="kdenlive:folderid">-1</property>
  <property name="kdenlive:id">76</property>
  <property name="kdenlive:control_uuid">{d1915721-d9a6-48ab-8948-c1096f8834b4}</property>
  <property name="mute_on_pause">0</property>
  <property name="kdenlive:clip_type">0</property>
  <property name="kdenlive:file_size">20967771</property>
  <property name="kdenlive:file_hash">17b3814239e9ca65462ff9702f2f100e</property>
  <property name="kdenlive:monitorPosition">0</property>
 </chain>
 <producer id="producer16" in="00:00:00.000" out="00:00:04.958">
  <property name="length">00:00:05.000</property>
  <property name="eof">pause</property>
  <property name="resource">C:/dev/workspace/indy/dist/room/attic2/data/indy2-wide2.png</property>
  <property name="ttl">25</property>
  <property name="aspect_ratio">1</property>
  <property name="meta.media.progressive">1</property>
  <property name="seekable">1</property>
  <property name="format">2</property>
  <property name="meta.media.width">5160</property>
  <property name="meta.media.height">2160</property>
  <property name="mlt_service">qimage</property>
  <property name="kdenlive:duration">00:00:05:00</property>
  <property name="xml">was here</property>
  <property name="kdenlive:folderid">-1</property>
  <property name="kdenlive:id">77</property>
  <property name="kdenlive:control_uuid">{dbe42877-b79a-4c66-9d14-8feb5441bc92}</property>
  <property name="kdenlive:clip_type">2</property>
  <property name="kdenlive:file_size">9720127</property>
  <property name="kdenlive:file_hash">5291101c627a86e94129fdd8c28f8a15</property>
 </producer>
 <producer id="producer0" in="00:00:00.000" out="00:06:44.000">
  <property name="length">2147483647</property>
  <property name="eof">continue</property>
  <property name="resource">black</property>
  <property name="aspect_ratio">1</property>
  <property name="mlt_service">color</property>
  <property name="kdenlive:playlistid">black_track</property>
  <property name="mlt_image_format">rgba</property>
  <property name="set.test_audio">0</property>
 </producer>
 <chain id="chain0" out="00:05:24.042">
  <property name="length">7778</property>
  <property name="eof">pause</property>
  <property name="resource">C:/dev/workspace/indy/dist/movie/content/music/extra/indy-80.webm</property>
  <property name="mlt_service">avformat-novalidate</property>
  <property name="seekable">1</property>
  <property name="audio_index">0</property>
  <property name="video_index">-1</property>
  <property name="astream">0</property>
  <property name="kdenlive:control_uuid">{e6d8f899-7697-4ec1-b560-e98e0ccb82a3}</property>
  <property name="kdenlive:proxy">-</property>
  <property name="kdenlive:originalurl">content/music/extra/indy-80.webm</property>
  <property name="kdenlive:id">64</property>
  <property name="kdenlive:clip_type">1</property>
  <property name="kdenlive:file_size">3941938</property>
  <property name="kdenlive:file_hash">5345198042797ddc29c8bb2b71c12c87</property>
  <property name="kdenlive:folderid">-1</property>
  <property name="meta.media.nb_streams">1</property>
  <property name="meta.media.0.stream.type">audio</property>
  <property name="meta.media.0.codec.sample_fmt">fltp</property>
  <property name="meta.media.0.codec.sample_rate">48000</property>
  <property name="meta.media.0.codec.channels">2</property>
  <property name="meta.media.0.codec.layout">stereo</property>
  <property name="meta.media.0.codec.name">opus</property>
  <property name="meta.media.0.codec.long_name">Opus</property>
  <property name="meta.media.0.codec.bit_rate">0</property>
  <property name="meta.attr.0.stream.language.markup">eng</property>
  <property name="meta.attr.0.stream.ENCODER.markup">Lavc61.19.101 libopus</property>
  <property name="meta.attr.0.stream.DURATION.markup">00:05:24.090000000</property>
  <property name="meta.attr.ENCODER.markup">Lavf61.7.100</property>
  <property name="xml">was here</property>
  <property name="mute_on_pause">0</property>
  <property name="set.test_audio">0</property>
  <property name="set.test_image">1</property>
 </chain>
 <playlist id="playlist0">
  <property name="kdenlive:audio_track">1</property>
  <blank length="00:01:35.042"/>
  <entry in="00:00:03.208" out="00:00:06.583" producer="chain0">
   <property name="kdenlive:id">64</property>
   <filter id="filter0">
    <property name="window">75</property>
    <property name="max_gain">20dB</property>
    <property name="level">77=6</property>
    <property name="mlt_service">volume</property>
    <property name="kdenlive_id">volume</property>
    <property name="kdenlive:collapsed">0</property>
   </filter>
   <filter id="filter1" in="00:00:03.208" out="00:00:03.417">
    <property name="window">75</property>
    <property name="max_gain">20dB</property>
    <property name="mlt_service">volume</property>
    <property name="kdenlive_id">fadein</property>
    <property name="gain">0</property>
    <property name="end">1</property>
    <property name="kdenlive:collapsed">0</property>
   </filter>
   <filter id="filter2" in="00:00:05.750" out="00:00:06.583">
    <property name="window">75</property>
    <property name="max_gain">20dB</property>
    <property name="mlt_service">volume</property>
    <property name="kdenlive_id">fadeout</property>
    <property name="gain">1</property>
    <property name="end">0</property>
    <property name="kdenlive:collapsed">0</property>
   </filter>
  </entry>
 </playlist>
 <playlist id="playlist1">
  <property name="kdenlive:audio_track">1</property>
 </playlist>
 <tractor id="tractor0" in="00:00:00.000" out="00:01:38.417">
  <property name="kdenlive:audio_track">1</property>
  <property name="kdenlive:trackheight">67</property>
  <property name="kdenlive:timeline_active">1</property>
  <property name="kdenlive:collapsed">0</property>
  <property name="kdenlive:thumbs_format"/>
  <property name="kdenlive:audio_rec"/>
  <track hide="both" producer="playlist0"/>
  <track hide="both" producer="playlist1"/>
  <filter id="filter3">
   <property name="window">75</property>
   <property name="max_gain">20dB</property>
   <property name="mlt_service">volume</property>
   <property name="internal_added">237</property>
   <property name="disable">1</property>
  </filter>
  <filter id="filter4">
   <property name="channel">-1</property>
   <property name="mlt_service">panner</property>
   <property name="internal_added">237</property>
   <property name="start">0.5</property>
   <property name="disable">1</property>
  </filter>
  <filter id="filter5">
   <property name="iec_scale">0</property>
   <property name="mlt_service">audiolevel</property>
   <property name="dbpeak">1</property>
   <property name="disable">1</property>
  </filter>
 </tractor>
 <chain id="chain1" out="00:00:15.167">
  <property name="length">365</property>
  <property name="eof">pause</property>
  <property name="resource">C:/dev/workspace/indy/dist/room/chase/content/audio/fire.mp3</property>
  <property name="mlt_service">avformat-novalidate</property>
  <property name="seekable">1</property>
  <property name="audio_index">0</property>
  <property name="video_index">-1</property>
  <property name="astream">0</property>
  <property name="kdenlive:control_uuid">{95e2e9bc-8547-46ba-a5e3-7d1755ee0ebd}</property>
  <property name="kdenlive:id">67</property>
  <property name="kdenlive:clip_type">1</property>
  <property name="kdenlive:file_size">486504</property>
  <property name="kdenlive:file_hash">ad89feba011006b7f4b7a2d2799aec1b</property>
  <property name="kdenlive:folderid">-1</property>
  <property name="meta.media.nb_streams">1</property>
  <property name="meta.media.0.stream.type">audio</property>
  <property name="meta.media.0.codec.sample_fmt">fltp</property>
  <property name="meta.media.0.codec.sample_rate">44100</property>
  <property name="meta.media.0.codec.channels">2</property>
  <property name="meta.media.0.codec.layout">stereo</property>
  <property name="meta.media.0.codec.name">mp3float</property>
  <property name="meta.media.0.codec.long_name">MP3 (MPEG audio layer 3)</property>
  <property name="meta.media.0.codec.bit_rate">256000</property>
  <property name="xml">was here</property>
  <property name="mute_on_pause">0</property>
  <property name="set.test_audio">0</property>
  <property name="set.test_image">1</property>
 </chain>
 <playlist id="playlist2">
  <property name="kdenlive:audio_track">1</property>
  <blank length="00:01:42.000"/>
  <entry in="00:00:00.000" out="00:00:01.958" producer="chain1">
   <property name="kdenlive:id">67</property>
   <filter id="filter6">
    <property name="window">75</property>
    <property name="max_gain">20dB</property>
    <property name="level">00:00:00.000=-8</property>
    <property name="mlt_service">volume</property>
    <property name="kdenlive_id">volume</property>
    <property name="kdenlive:collapsed">0</property>
   </filter>
   <filter id="filter7" out="00:00:01.958">
    <property name="window">75</property>
    <property name="max_gain">20dB</property>
    <property name="mlt_service">volume</property>
    <property name="kdenlive_id">fadein</property>
    <property name="gain">0</property>
    <property name="end">1</property>
    <property name="kdenlive:collapsed">0</property>
   </filter>
  </entry>
 </playlist>
 <playlist id="playlist3">
  <property name="kdenlive:audio_track">1</property>
 </playlist>
 <tractor id="tractor1" in="00:00:00.000" out="00:01:43.958">
  <property name="kdenlive:audio_track">1</property>
  <property name="kdenlive:trackheight">67</property>
  <property name="kdenlive:timeline_active">1</property>
  <property name="kdenlive:collapsed">0</property>
  <property name="kdenlive:thumbs_format"/>
  <property name="kdenlive:audio_rec"/>
  <track hide="video" producer="playlist2"/>
  <track hide="video" producer="playlist3"/>
  <filter id="filter10">
   <property name="window">75</property>
   <property name="max_gain">20dB</property>
   <property name="mlt_service">volume</property>
   <property name="internal_added">237</property>
   <property name="disable">1</property>
  </filter>
  <filter id="filter11">
   <property name="channel">-1</property>
   <property name="mlt_service">panner</property>
   <property name="internal_added">237</property>
   <property name="start">0.5</property>
   <property name="disable">1</property>
  </filter>
  <filter id="filter8">
   <property name="iec_scale">0</property>
   <property name="mlt_service">audiolevel</property>
   <property name="dbpeak">1</property>
   <property name="disable">1</property>
  </filter>
 </tractor>
 <chain id="chain2" out="00:03:11.125">
  <property name="length">4588</property>
  <property name="eof">pause</property>
  <property name="resource">C:/dev/workspace/indy/dist/room/attic/content/music/extra/attic.webm</property>
  <property name="mlt_service">avformat-novalidate</property>
  <property name="seekable">1</property>
  <property name="audio_index">0</property>
  <property name="video_index">-1</property>
  <property name="astream">0</property>
  <property name="kdenlive:control_uuid">{22fe6f39-d0dd-4b45-8ebb-baad72f54cbe}</property>
  <property name="kdenlive:id">9</property>
  <property name="kdenlive:clip_type">1</property>
  <property name="kdenlive:file_size">3420074</property>
  <property name="kdenlive:file_hash">029e4f8308d83085556e81b95e7c3d37</property>
  <property name="kdenlive:folderid">-1</property>
  <property name="meta.media.nb_streams">1</property>
  <property name="meta.media.0.stream.type">audio</property>
  <property name="meta.media.0.codec.sample_fmt">fltp</property>
  <property name="meta.media.0.codec.sample_rate">48000</property>
  <property name="meta.media.0.codec.channels">2</property>
  <property name="meta.media.0.codec.layout">stereo</property>
  <property name="meta.media.0.codec.name">opus</property>
  <property name="meta.media.0.codec.long_name">Opus</property>
  <property name="meta.media.0.codec.bit_rate">0</property>
  <property name="meta.attr.0.stream.language.markup">eng</property>
  <property name="meta.attr.encoder.markup">google/video-file</property>
  <property name="xml">was here</property>
  <property name="mute_on_pause">0</property>
  <property name="set.test_audio">0</property>
  <property name="set.test_image">1</property>
 </chain>
 <chain id="chain3" out="00:05:24.042">
  <property name="length">7778</property>
  <property name="eof">pause</property>
  <property name="resource">C:/dev/workspace/indy/dist/movie/content/music/extra/indy-80.webm</property>
  <property name="mlt_service">avformat-novalidate</property>
  <property name="seekable">1</property>
  <property name="audio_index">0</property>
  <property name="video_index">-1</property>
  <property name="astream">0</property>
  <property name="kdenlive:control_uuid">{e6d8f899-7697-4ec1-b560-e98e0ccb82a3}</property>
  <property name="kdenlive:proxy">-</property>
  <property name="kdenlive:originalurl">content/music/extra/indy-80.webm</property>
  <property name="kdenlive:id">64</property>
  <property name="kdenlive:clip_type">1</property>
  <property name="kdenlive:file_size">3941938</property>
  <property name="kdenlive:file_hash">5345198042797ddc29c8bb2b71c12c87</property>
  <property name="kdenlive:folderid">-1</property>
  <property name="meta.media.nb_streams">1</property>
  <property name="meta.media.0.stream.type">audio</property>
  <property name="meta.media.0.codec.sample_fmt">fltp</property>
  <property name="meta.media.0.codec.sample_rate">48000</property>
  <property name="meta.media.0.codec.channels">2</property>
  <property name="meta.media.0.codec.layout">stereo</property>
  <property name="meta.media.0.codec.name">opus</property>
  <property name="meta.media.0.codec.long_name">Opus</property>
  <property name="meta.media.0.codec.bit_rate">0</property>
  <property name="meta.attr.0.stream.language.markup">eng</property>
  <property name="meta.attr.0.stream.ENCODER.markup">Lavc61.19.101 libopus</property>
  <property name="meta.attr.0.stream.DURATION.markup">00:05:24.090000000</property>
  <property name="meta.attr.ENCODER.markup">Lavf61.7.100</property>
  <property name="xml">was here</property>
  <property name="mute_on_pause">0</property>
  <property name="set.test_audio">0</property>
  <property name="set.test_image">1</property>
 </chain>
 <chain id="chain4" out="00:01:44.333">
  <property name="length">2505</property>
  <property name="eof">pause</property>
  <property name="resource">C:/dev/workspace/indy/dist/room/intro/content/audio/rain.mp3</property>
  <property name="mlt_service">avformat-novalidate</property>
  <property name="seekable">1</property>
  <property name="audio_index">0</property>
  <property name="video_index">-1</property>
  <property name="astream">0</property>
  <property name="kdenlive:control_uuid">{38ce72ba-2d78-48ac-a2d0-cdcf350f0e62}</property>
  <property name="kdenlive:id">66</property>
  <property name="kdenlive:clip_type">1</property>
  <property name="kdenlive:file_size">3339493</property>
  <property name="kdenlive:file_hash">88c51648872e5e4a4a4e5d3f220a7d84</property>
  <property name="kdenlive:folderid">-1</property>
  <property name="meta.media.nb_streams">1</property>
  <property name="meta.media.0.stream.type">audio</property>
  <property name="meta.media.0.codec.sample_fmt">fltp</property>
  <property name="meta.media.0.codec.sample_rate">44100</property>
  <property name="meta.media.0.codec.channels">2</property>
  <property name="meta.media.0.codec.layout">stereo</property>
  <property name="meta.media.0.codec.name">mp3float</property>
  <property name="meta.media.0.codec.long_name">MP3 (MPEG audio layer 3)</property>
  <property name="meta.media.0.codec.bit_rate">256000</property>
  <property name="xml">was here</property>
  <property name="mute_on_pause">0</property>
  <property name="set.test_audio">0</property>
  <property name="set.test_image">1</property>
 </chain>
 <playlist id="playlist4">
  <property name="kdenlive:audio_track">1</property>
  <blank length="00:00:21.000"/>
  <entry in="00:01:14.500" out="00:01:22.458" producer="chain2">
   <property name="kdenlive:id">9</property>
   <filter id="filter14" in="00:01:14.500" out="00:01:16.500">
    <property name="window">75</property>
    <property name="max_gain">20dB</property>
    <property name="mlt_service">volume</property>
    <property name="kdenlive_id">fadein</property>
    <property name="gain">0</property>
    <property name="end">1</property>
    <property name="kdenlive:collapsed">0</property>
   </filter>
   <filter id="filter9" in="00:01:21.625" out="00:01:22.458">
    <property name="window">75</property>
    <property name="max_gain">20dB</property>
    <property name="mlt_service">volume</property>
    <property name="kdenlive_id">fadeout</property>
    <property name="gain">1</property>
    <property name="end">0</property>
   </filter>
  </entry>
  <blank length="00:01:06.250"/>
  <entry in="00:00:04.083" out="00:00:07.625" producer="chain3">
   <property name="kdenlive:id">64</property>
   <filter id="filter12">
    <property name="window">75</property>
    <property name="max_gain">20dB</property>
    <property name="level">00:00:04.083=4</property>
    <property name="mlt_service">volume</property>
    <property name="kdenlive_id">volume</property>
    <property name="kdenlive:collapsed">0</property>
   </filter>
   <filter id="filter13" in="00:00:07.208" out="00:00:07.625">
    <property name="window">75</property>
    <property name="max_gain">20dB</property>
    <property name="mlt_service">volume</property>
    <property name="kdenlive_id">fadeout</property>
    <property name="gain">1</property>
    <property name="end">0</property>
    <property name="kdenlive:collapsed">0</property>
   </filter>
   <filter id="filter15" in="00:00:04.083" out="00:00:04.292">
    <property name="window">75</property>
    <property name="max_gain">20dB</property>
    <property name="mlt_service">volume</property>
    <property name="kdenlive_id">fadein</property>
    <property name="gain">0</property>
    <property name="end">1</property>
    <property name="kdenlive:collapsed">0</property>
   </filter>
  </entry>
  <blank length="00:00:03.167"/>
  <entry in="00:00:00.000" out="00:00:01.958" producer="chain4">
   <property name="kdenlive:id">66</property>
   <filter id="filter18">
    <property name="window">75</property>
    <property name="max_gain">20dB</property>
    <property name="level">00:00:00.000=0;00:00:01.958=-0.00665524</property>
    <property name="mlt_service">volume</property>
    <property name="kdenlive_id">volume</property>
    <property name="kdenlive:collapsed">0</property>
    <property name="disable">1</property>
   </filter>
   <filter id="filter19" out="00:00:02.000">
    <property name="window">75</property>
    <property name="max_gain">20dB</property>
    <property name="mlt_service">volume</property>
    <property name="kdenlive_id">fadein</property>
    <property name="gain">0</property>
    <property name="end">1</property>
    <property name="kdenlive:collapsed">0</property>
   </filter>
  </entry>
 </playlist>
 <playlist id="playlist5">
  <property name="kdenlive:audio_track">1</property>
 </playlist>
 <tractor id="tractor2" in="00:00:00.000" out="00:01:43.958">
  <property name="kdenlive:audio_track">1</property>
  <property name="kdenlive:trackheight">67</property>
  <property name="kdenlive:timeline_active">1</property>
  <property name="kdenlive:collapsed">0</property>
  <property name="kdenlive:thumbs_format"/>
  <property name="kdenlive:audio_rec"/>
  <track hide="video" producer="playlist4"/>
  <track hide="video" producer="playlist5"/>
  <filter id="filter21">
   <property name="window">75</property>
   <property name="max_gain">20dB</property>
   <property name="mlt_service">volume</property>
   <property name="internal_added">237</property>
   <property name="disable">1</property>
  </filter>
  <filter id="filter22">
   <property name="channel">-1</property>
   <property name="mlt_service">panner</property>
   <property name="internal_added">237</property>
   <property name="start">0.5</property>
   <property name="disable">1</property>
  </filter>
  <filter id="filter16">
   <property name="iec_scale">0</property>
   <property name="mlt_service">audiolevel</property>
   <property name="dbpeak">1</property>
   <property name="disable">1</property>
  </filter>
 </tractor>
 <chain id="chain6" out="00:02:27.583">
  <property name="length">3543</property>
  <property name="eof">pause</property>
  <property name="resource">C:/dev/workspace/indy/dist/room/attic/content/music/extra/attic3.webm</property>
  <property name="mlt_service">avformat-novalidate</property>
  <property name="seekable">1</property>
  <property name="audio_index">0</property>
  <property name="video_index">-1</property>
  <property name="astream">0</property>
  <property name="kdenlive:control_uuid">{c2c01782-f1c4-4939-8295-43ff2112f5d8}</property>
  <property name="kdenlive:id">52</property>
  <property name="kdenlive:clip_type">1</property>
  <property name="kdenlive:file_size">2438707</property>
  <property name="kdenlive:file_hash">cff1cc386ea28017d31ce98bfbfe2b63</property>
  <property name="kdenlive:folderid">-1</property>
  <property name="meta.media.nb_streams">1</property>
  <property name="meta.media.0.stream.type">audio</property>
  <property name="meta.media.0.codec.sample_fmt">fltp</property>
  <property name="meta.media.0.codec.sample_rate">48000</property>
  <property name="meta.media.0.codec.channels">2</property>
  <property name="meta.media.0.codec.layout">stereo</property>
  <property name="meta.media.0.codec.name">opus</property>
  <property name="meta.media.0.codec.long_name">Opus</property>
  <property name="meta.media.0.codec.bit_rate">0</property>
  <property name="meta.attr.0.stream.language.markup">eng</property>
  <property name="meta.attr.encoder.markup">google/video-file</property>
  <property name="xml">was here</property>
  <property name="mute_on_pause">0</property>
  <property name="set.test_audio">0</property>
  <property name="set.test_image">1</property>
 </chain>
 <chain id="chain7" out="00:03:11.125">
  <property name="length">4588</property>
  <property name="eof">pause</property>
  <property name="resource">C:/dev/workspace/indy/dist/room/attic/content/music/extra/attic.webm</property>
  <property name="mlt_service">avformat-novalidate</property>
  <property name="seekable">1</property>
  <property name="audio_index">0</property>
  <property name="video_index">-1</property>
  <property name="astream">0</property>
  <property name="kdenlive:control_uuid">{22fe6f39-d0dd-4b45-8ebb-baad72f54cbe}</property>
  <property name="kdenlive:id">9</property>
  <property name="kdenlive:clip_type">1</property>
  <property name="kdenlive:file_size">3420074</property>
  <property name="kdenlive:file_hash">029e4f8308d83085556e81b95e7c3d37</property>
  <property name="kdenlive:folderid">-1</property>
  <property name="meta.media.nb_streams">1</property>
  <property name="meta.media.0.stream.type">audio</property>
  <property name="meta.media.0.codec.sample_fmt">fltp</property>
  <property name="meta.media.0.codec.sample_rate">48000</property>
  <property name="meta.media.0.codec.channels">2</property>
  <property name="meta.media.0.codec.layout">stereo</property>
  <property name="meta.media.0.codec.name">opus</property>
  <property name="meta.media.0.codec.long_name">Opus</property>
  <property name="meta.media.0.codec.bit_rate">0</property>
  <property name="meta.attr.0.stream.language.markup">eng</property>
  <property name="meta.attr.encoder.markup">google/video-file</property>
  <property name="xml">was here</property>
  <property name="mute_on_pause">0</property>
  <property name="set.test_audio">0</property>
  <property name="set.test_image">1</property>
 </chain>
 <chain id="chain8" out="00:03:11.125">
  <property name="length">4588</property>
  <property name="eof">pause</property>
  <property name="resource">C:/dev/workspace/indy/dist/room/attic/content/music/extra/attic.webm</property>
  <property name="mlt_service">avformat-novalidate</property>
  <property name="seekable">1</property>
  <property name="audio_index">0</property>
  <property name="video_index">-1</property>
  <property name="astream">0</property>
  <property name="kdenlive:control_uuid">{010af2f9-5e9f-4990-be48-d539128550c0}</property>
  <property name="kdenlive:id">31</property>
  <property name="kdenlive:clip_type">1</property>
  <property name="kdenlive:file_size">3420074</property>
  <property name="kdenlive:file_hash">029e4f8308d83085556e81b95e7c3d37</property>
  <property name="kdenlive:folderid">-1</property>
  <property name="meta.media.nb_streams">1</property>
  <property name="meta.media.0.stream.type">audio</property>
  <property name="meta.media.0.codec.sample_fmt">fltp</property>
  <property name="meta.media.0.codec.sample_rate">48000</property>
  <property name="meta.media.0.codec.channels">2</property>
  <property name="meta.media.0.codec.layout">stereo</property>
  <property name="meta.media.0.codec.name">opus</property>
  <property name="meta.media.0.codec.long_name">Opus</property>
  <property name="meta.media.0.codec.bit_rate">0</property>
  <property name="meta.attr.0.stream.language.markup">eng</property>
  <property name="meta.attr.encoder.markup">google/video-file</property>
  <property name="xml">was here</property>
  <property name="mute_on_pause">0</property>
  <property name="set.test_audio">0</property>
  <property name="set.test_image">1</property>
 </chain>
 <chain id="chain9" out="00:05:24.042">
  <property name="length">7778</property>
  <property name="eof">pause</property>
  <property name="resource">C:/dev/workspace/indy/dist/movie/content/music/extra/indy-80.webm</property>
  <property name="mlt_service">avformat-novalidate</property>
  <property name="seekable">1</property>
  <property name="audio_index">0</property>
  <property name="video_index">-1</property>
  <property name="astream">0</property>
  <property name="kdenlive:control_uuid">{e6d8f899-7697-4ec1-b560-e98e0ccb82a3}</property>
  <property name="kdenlive:proxy">-</property>
  <property name="kdenlive:originalurl">content/music/extra/indy-80.webm</property>
  <property name="kdenlive:id">64</property>
  <property name="kdenlive:clip_type">1</property>
  <property name="kdenlive:file_size">3941938</property>
  <property name="kdenlive:file_hash">5345198042797ddc29c8bb2b71c12c87</property>
  <property name="kdenlive:folderid">-1</property>
  <property name="meta.media.nb_streams">1</property>
  <property name="meta.media.0.stream.type">audio</property>
  <property name="meta.media.0.codec.sample_fmt">fltp</property>
  <property name="meta.media.0.codec.sample_rate">48000</property>
  <property name="meta.media.0.codec.channels">2</property>
  <property name="meta.media.0.codec.layout">stereo</property>
  <property name="meta.media.0.codec.name">opus</property>
  <property name="meta.media.0.codec.long_name">Opus</property>
  <property name="meta.media.0.codec.bit_rate">0</property>
  <property name="meta.attr.0.stream.language.markup">eng</property>
  <property name="meta.attr.0.stream.ENCODER.markup">Lavc61.19.101 libopus</property>
  <property name="meta.attr.0.stream.DURATION.markup">00:05:24.090000000</property>
  <property name="meta.attr.ENCODER.markup">Lavf61.7.100</property>
  <property name="xml">was here</property>
  <property name="mute_on_pause">0</property>
  <property name="set.test_audio">0</property>
  <property name="set.test_image">1</property>
 </chain>
 <playlist id="playlist6">
  <property name="kdenlive:audio_track">1</property>
  <entry in="00:01:00.000" out="00:01:22.958" producer="chain6">
   <property name="kdenlive:id">52</property>
   <filter id="filter25" in="00:01:17.958" out="00:01:22.958">
    <property name="window">75</property>
    <property name="max_gain">20dB</property>
    <property name="mlt_service">volume</property>
    <property name="kdenlive_id">fadeout</property>
    <property name="gain">1</property>
    <property name="end">0</property>
    <property name="kdenlive:collapsed">0</property>
   </filter>
   <filter id="filter26">
    <property name="window">75</property>
    <property name="max_gain">20dB</property>
    <property name="level">00:01:00.000=4</property>
    <property name="mlt_service">volume</property>
    <property name="kdenlive_id">volume</property>
    <property name="kdenlive:collapsed">0</property>
   </filter>
   <filter id="filter17" in="00:01:00.000" out="00:01:00.833">
    <property name="window">75</property>
    <property name="max_gain">20dB</property>
    <property name="mlt_service">volume</property>
    <property name="kdenlive_id">fadein</property>
    <property name="gain">0</property>
    <property name="end">1</property>
    <property name="kdenlive:collapsed">0</property>
   </filter>
  </entry>
  <blank length="00:00:26.583"/>
  <entry in="00:01:44.083" out="00:02:00.458" producer="chain7">
   <property name="kdenlive:id">9</property>
   <filter id="filter27" in="00:01:59.375" out="00:02:00.458">
    <property name="window">75</property>
    <property name="max_gain">20dB</property>
    <property name="mlt_service">volume</property>
    <property name="kdenlive_id">fadeout</property>
    <property name="gain">1</property>
    <property name="end">0</property>
    <property name="kdenlive:collapsed">0</property>
   </filter>
   <filter id="filter28" in="00:01:44.083" out="00:01:44.917">
    <property name="window">75</property>
    <property name="max_gain">20dB</property>
    <property name="mlt_service">volume</property>
    <property name="kdenlive_id">fadein</property>
    <property name="gain">0</property>
    <property name="end">1</property>
   </filter>
  </entry>
  <entry in="00:02:07.083" out="00:02:22.042" producer="chain8">
   <property name="kdenlive:id">31</property>
   <filter id="filter29" in="00:02:07.083" out="00:02:07.500">
    <property name="window">75</property>
    <property name="max_gain">20dB</property>
    <property name="mlt_service">volume</property>
    <property name="kdenlive_id">fadein</property>
    <property name="gain">0</property>
    <property name="end">1</property>
   </filter>
  </entry>
  <entry in="00:02:22.000" out="00:02:36.417" producer="chain8">
   <property name="kdenlive:id">31</property>
   <filter id="filter30">
    <property name="window">75</property>
    <property name="max_gain">20dB</property>
    <property name="level">00:02:22.000=0</property>
    <property name="mlt_service">volume</property>
    <property name="kdenlive_id">volume</property>
    <property name="kdenlive:collapsed">0</property>
   </filter>
   <filter id="filter31" in="00:02:36.000" out="00:02:36.417">
    <property name="window">75</property>
    <property name="max_gain">20dB</property>
    <property name="mlt_service">volume</property>
    <property name="kdenlive_id">fadeout</property>
    <property name="gain">1</property>
    <property name="end">0</property>
    <property name="kdenlive:collapsed">0</property>
   </filter>
  </entry>
  <blank length="00:00:02.958"/>
  <entry in="00:00:02.958" out="00:00:08.500" producer="chain9">
   <property name="kdenlive:id">64</property>
   <property name="kdenlive:activeeffect">2</property>
   <filter id="filter34" in="00:00:06.500" out="00:00:08.500">
    <property name="window">75</property>
    <property name="max_gain">20dB</property>
    <property name="mlt_service">volume</property>
    <property name="kdenlive_id">fadeout</property>
    <property name="gain">1</property>
    <property name="end">0</property>
    <property name="kdenlive:collapsed">0</property>
   </filter>
   <filter id="filter33" in="00:00:02.958" out="00:00:03.375">
    <property name="window">75</property>
    <property name="max_gain">20dB</property>
    <property name="mlt_service">volume</property>
    <property name="kdenlive_id">fadein</property>
    <property name="gain">0</property>
    <property name="end">1</property>
    <property name="kdenlive:collapsed">0</property>
   </filter>
   <filter id="filter32">
    <property name="window">75</property>
    <property name="max_gain">20dB</property>
    <property name="level">00:00:02.958=4</property>
    <property name="mlt_service">volume</property>
    <property name="kdenlive_id">volume</property>
    <property name="kdenlive:collapsed">0</property>
   </filter>
  </entry>
 </playlist>
 <playlist id="playlist7">
  <property name="kdenlive:audio_track">1</property>
 </playlist>
 <tractor id="tractor3" in="00:00:00.000" out="00:01:43.958">
  <property name="kdenlive:audio_track">1</property>
  <property name="kdenlive:trackheight">67</property>
  <property name="kdenlive:timeline_active">1</property>
  <property name="kdenlive:collapsed">0</property>
  <property name="kdenlive:thumbs_format"/>
  <property name="kdenlive:audio_rec"/>
  <track hide="video" producer="playlist6"/>
  <track hide="video" producer="playlist7"/>
  <filter id="filter36">
   <property name="window">75</property>
   <property name="max_gain">20dB</property>
   <property name="mlt_service">volume</property>
   <property name="internal_added">237</property>
   <property name="disable">1</property>
  </filter>
  <filter id="filter37">
   <property name="channel">-1</property>
   <property name="mlt_service">panner</property>
   <property name="internal_added">237</property>
   <property name="start">0.5</property>
   <property name="disable">1</property>
  </filter>
  <filter id="filter20">
   <property name="iec_scale">0</property>
   <property name="mlt_service">audiolevel</property>
   <property name="dbpeak">1</property>
   <property name="disable">1</property>
  </filter>
 </tractor>
 <chain id="chain10" out="00:01:44.333">
  <property name="length">2505</property>
  <property name="eof">pause</property>
  <property name="resource">C:/dev/workspace/indy/dist/room/intro/content/audio/rain.mp3</property>
  <property name="mlt_service">avformat-novalidate</property>
  <property name="seekable">1</property>
  <property name="audio_index">0</property>
  <property name="video_index">-1</property>
  <property name="astream">0</property>
  <property name="kdenlive:control_uuid">{41a4f9d8-296e-4001-994e-cbcc059c7e21}</property>
  <property name="kdenlive:id">4</property>
  <property name="kdenlive:clip_type">1</property>
  <property name="kdenlive:file_size">3339493</property>
  <property name="kdenlive:file_hash">88c51648872e5e4a4a4e5d3f220a7d84</property>
  <property name="kdenlive:folderid">-1</property>
  <property name="meta.media.nb_streams">1</property>
  <property name="meta.media.0.stream.type">audio</property>
  <property name="meta.media.0.codec.sample_fmt">fltp</property>
  <property name="meta.media.0.codec.sample_rate">44100</property>
  <property name="meta.media.0.codec.channels">2</property>
  <property name="meta.media.0.codec.layout">stereo</property>
  <property name="meta.media.0.codec.name">mp3float</property>
  <property name="meta.media.0.codec.long_name">MP3 (MPEG audio layer 3)</property>
  <property name="meta.media.0.codec.bit_rate">256000</property>
  <property name="xml">was here</property>
  <property name="mute_on_pause">0</property>
  <property name="set.test_audio">0</property>
  <property name="set.test_image">1</property>
 </chain>
 <chain id="chain11" out="00:12:00.000">
  <property name="length">17281</property>
  <property name="eof">pause</property>
  <property name="resource">C:/dev/workspace/indy/dist/room/attic/content/music/extra/attic2.webm</property>
  <property name="mlt_service">avformat-novalidate</property>
  <property name="seekable">1</property>
  <property name="audio_index">0</property>
  <property name="video_index">-1</property>
  <property name="astream">0</property>
  <property name="kdenlive:control_uuid">{cb36d456-d42b-471c-b810-227aeddaf3d2}</property>
  <property name="kdenlive:id">15</property>
  <property name="kdenlive:clip_type">1</property>
  <property name="kdenlive:file_size">12295707</property>
  <property name="kdenlive:file_hash">946749c6ed27e31476ade9621df76e60</property>
  <property name="kdenlive:folderid">-1</property>
  <property name="meta.media.nb_streams">1</property>
  <property name="meta.media.0.stream.type">audio</property>
  <property name="meta.media.0.codec.sample_fmt">fltp</property>
  <property name="meta.media.0.codec.sample_rate">48000</property>
  <property name="meta.media.0.codec.channels">2</property>
  <property name="meta.media.0.codec.layout">stereo</property>
  <property name="meta.media.0.codec.name">opus</property>
  <property name="meta.media.0.codec.long_name">Opus</property>
  <property name="meta.media.0.codec.bit_rate">0</property>
  <property name="meta.attr.0.stream.language.markup">eng</property>
  <property name="meta.attr.encoder.markup">google/video-file</property>
  <property name="xml">was here</property>
  <property name="mute_on_pause">0</property>
  <property name="set.test_audio">0</property>
  <property name="set.test_image">1</property>
 </chain>
 <chain id="chain12" out="00:00:14.042">
  <property name="length">338</property>
  <property name="eof">pause</property>
  <property name="resource">C:/dev/workspace/indy/dist/room/attic/content/audio/step2.mp4</property>
  <property name="mlt_service">avformat-novalidate</property>
  <property name="seekable">1</property>
  <property name="audio_index">1</property>
  <property name="video_index">0</property>
  <property name="vstream">0</property>
  <property name="astream">0</property>
  <property name="kdenlive:control_uuid">{864e4b7a-1956-4de8-b6cd-6649bc6cb894}</property>
  <property name="kdenlive:id">30</property>
  <property name="kdenlive:clip_type">0</property>
  <property name="kdenlive:file_size">3631982</property>
  <property name="kdenlive:file_hash">c1c55660fe4c92c03ffeecc1ef93ab83</property>
  <property name="kdenlive:folderid">-1</property>
  <property name="meta.media.nb_streams">2</property>
  <property name="meta.media.0.stream.type">video</property>
  <property name="meta.media.0.stream.frame_rate">30</property>
  <property name="meta.media.0.stream.sample_aspect_ratio">0</property>
  <property name="meta.media.0.codec.width">1280</property>
  <property name="meta.media.0.codec.height">720</property>
  <property name="meta.media.0.codec.rotate">0</property>
  <property name="meta.media.0.codec.pix_fmt">yuv420p</property>
  <property name="meta.media.0.codec.sample_aspect_ratio">0</property>
  <property name="meta.media.0.codec.colorspace">709</property>
  <property name="meta.media.0.codec.name">h264</property>
  <property name="meta.media.0.codec.long_name">H.264 / AVC / MPEG-4 AVC / MPEG-4 part 10</property>
  <property name="meta.media.0.codec.bit_rate">1952151</property>
  <property name="meta.attr.0.stream.handler_name.markup">VideoHandler</property>
  <property name="meta.attr.0.stream.vendor_id.markup">[0][0][0][0]</property>
  <property name="meta.attr.0.stream.encoder.markup">Lavc59.37.100 libx264</property>
  <property name="meta.media.1.stream.type">audio</property>
  <property name="meta.media.1.codec.sample_fmt">fltp</property>
  <property name="meta.media.1.codec.sample_rate">44100</property>
  <property name="meta.media.1.codec.channels">2</property>
  <property name="meta.media.1.codec.layout">stereo</property>
  <property name="meta.media.1.codec.name">aac</property>
  <property name="meta.media.1.codec.long_name">AAC (Advanced Audio Coding)</property>
  <property name="meta.media.1.codec.bit_rate">127730</property>
  <property name="meta.attr.1.stream.handler_name.markup">SoundHandler</property>
  <property name="meta.attr.1.stream.vendor_id.markup">[0][0][0][0]</property>
  <property name="meta.attr.major_brand.markup">isom</property>
  <property name="meta.attr.minor_version.markup">512</property>
  <property name="meta.attr.compatible_brands.markup">isomiso2avc1mp41</property>
  <property name="meta.attr.encoder.markup">Lavf59.27.100</property>
  <property name="meta.media.sample_aspect_num">1</property>
  <property name="meta.media.sample_aspect_den">1</property>
  <property name="meta.media.frame_rate_num">30</property>
  <property name="meta.media.frame_rate_den">1</property>
  <property name="meta.media.colorspace">709</property>
  <property name="meta.media.color_trc">2</property>
  <property name="meta.media.has_b_frames">2</property>
  <property name="meta.media.width">1280</property>
  <property name="meta.media.height">720</property>
  <property name="meta.media.aspect_ratio">1</property>
  <property name="meta.media.color_range">mpeg</property>
  <property name="xml">was here</property>
  <property name="mute_on_pause">0</property>
  <property name="meta.media.top_field_first">0</property>
  <property name="meta.media.progressive">1</property>
  <property name="set.test_audio">0</property>
  <property name="set.test_image">1</property>
 </chain>
 <playlist id="playlist8">
  <property name="kdenlive:audio_track">1</property>
  <entry in="00:00:00.000" out="00:00:07.958" producer="chain10">
   <property name="kdenlive:id">4</property>
   <filter id="filter39" in="00:00:02.958" out="00:00:07.958">
    <property name="window">75</property>
    <property name="max_gain">20dB</property>
    <property name="mlt_service">volume</property>
    <property name="kdenlive_id">fadeout</property>
    <property name="gain">1</property>
    <property name="end">0</property>
    <property name="kdenlive:collapsed">0</property>
   </filter>
   <filter id="filter40">
    <property name="window">75</property>
    <property name="max_gain">20dB</property>
    <property name="level">00:00:00.000=-8</property>
    <property name="mlt_service">volume</property>
    <property name="kdenlive_id">volume</property>
    <property name="kdenlive:collapsed">0</property>
   </filter>
  </entry>
  <blank length="00:00:19.000"/>
  <entry in="00:03:27.750" out="00:03:50.708" producer="chain11">
   <property name="kdenlive:id">15</property>
   <filter id="filter41" in="00:03:27.750" out="00:03:28.583">
    <property name="window">75</property>
    <property name="max_gain">20dB</property>
    <property name="mlt_service">volume</property>
    <property name="kdenlive_id">fadein</property>
    <property name="gain">0</property>
    <property name="end">1</property>
    <property name="kdenlive:collapsed">0</property>
   </filter>
   <filter id="filter42">
    <property name="window">75</property>
    <property name="max_gain">20dB</property>
    <property name="level">00:03:27.750=-10</property>
    <property name="mlt_service">volume</property>
    <property name="kdenlive_id">volume</property>
    <property name="kdenlive:collapsed">0</property>
   </filter>
   <filter id="filter43" in="00:03:49.875" out="00:03:50.708">
    <property name="window">75</property>
    <property name="max_gain">20dB</property>
    <property name="mlt_service">volume</property>
    <property name="kdenlive_id">fadeout</property>
    <property name="gain">1</property>
    <property name="end">0</property>
    <property name="kdenlive:collapsed">0</property>
   </filter>
  </entry>
  <blank length="00:00:16.000"/>
  <entry in="00:00:00.000" out="00:00:09.958" producer="chain12">
   <property name="kdenlive:id">30</property>
  </entry>
  <entry in="00:00:04.917" out="00:00:09.875" producer="chain12">
   <property name="kdenlive:id">30</property>
  </entry>
  <entry in="00:00:00.000" out="00:00:07.958" producer="chain12">
   <property name="kdenlive:id">30</property>
  </entry>
  <entry in="00:00:00.000" out="00:00:06.417" producer="chain12">
   <property name="kdenlive:id">30</property>
  </entry>
 </playlist>
 <playlist id="playlist9">
  <property name="kdenlive:audio_track">1</property>
 </playlist>
 <tractor id="tractor4" in="00:00:00.000" out="00:01:35.417">
  <property name="kdenlive:audio_track">1</property>
  <property name="kdenlive:trackheight">67</property>
  <property name="kdenlive:timeline_active">1</property>
  <property name="kdenlive:collapsed">0</property>
  <property name="kdenlive:thumbs_format"/>
  <property name="kdenlive:audio_rec"/>
  <track hide="video" producer="playlist8"/>
  <track hide="video" producer="playlist9"/>
  <filter id="filter47">
   <property name="window">75</property>
   <property name="max_gain">20dB</property>
   <property name="mlt_service">volume</property>
   <property name="internal_added">237</property>
   <property name="disable">1</property>
  </filter>
  <filter id="filter48">
   <property name="channel">-1</property>
   <property name="mlt_service">panner</property>
   <property name="internal_added">237</property>
   <property name="start">0.5</property>
   <property name="disable">1</property>
  </filter>
  <filter id="filter23">
   <property name="iec_scale">0</property>
   <property name="mlt_service">audiolevel</property>
   <property name="dbpeak">1</property>
   <property name="disable">1</property>
  </filter>
 </tractor>
 <chain id="chain15" out="00:00:03.000">
  <property name="length">73</property>
  <property name="eof">pause</property>
  <property name="resource">C:/dev/workspace/indy/dist/room/attic/content/audio/splash2.mp3</property>
  <property name="mlt_service">avformat-novalidate</property>
  <property name="seekable">1</property>
  <property name="audio_index">0</property>
  <property name="video_index">-1</property>
  <property name="astream">0</property>
  <property name="kdenlive:control_uuid">{70d2989b-d674-41b3-885e-f43c0f3e5042}</property>
  <property name="kdenlive:id">6</property>
  <property name="kdenlive:clip_type">1</property>
  <property name="kdenlive:file_size">122253</property>
  <property name="kdenlive:file_hash">8a78e8a526a6dee69ddf8924eac22dce</property>
  <property name="kdenlive:folderid">-1</property>
  <property name="meta.media.nb_streams">1</property>
  <property name="meta.media.0.stream.type">audio</property>
  <property name="meta.media.0.codec.sample_fmt">fltp</property>
  <property name="meta.media.0.codec.sample_rate">44100</property>
  <property name="meta.media.0.codec.channels">2</property>
  <property name="meta.media.0.codec.layout">stereo</property>
  <property name="meta.media.0.codec.name">mp3float</property>
  <property name="meta.media.0.codec.long_name">MP3 (MPEG audio layer 3)</property>
  <property name="meta.media.0.codec.bit_rate">320000</property>
  <property name="xml">was here</property>
  <property name="mute_on_pause">0</property>
  <property name="set.test_audio">0</property>
  <property name="set.test_image">1</property>
 </chain>
 <chain id="chain16" out="00:00:05.125">
  <property name="length">124</property>
  <property name="eof">pause</property>
  <property name="resource">C:/dev/workspace/indy/dist/room/attic/content/audio/step.mp4</property>
  <property name="mlt_service">avformat-novalidate</property>
  <property name="seekable">1</property>
  <property name="audio_index">1</property>
  <property name="video_index">0</property>
  <property name="vstream">0</property>
  <property name="astream">0</property>
  <property name="kdenlive:control_uuid">{63f6c619-4b36-4593-bba8-f8d992bf690a}</property>
  <property name="kdenlive:id">8</property>
  <property name="kdenlive:clip_type">0</property>
  <property name="kdenlive:file_size">1078682</property>
  <property name="kdenlive:file_hash">3c52f0f3046ecfdec5ff1e0103da3929</property>
  <property name="kdenlive:folderid">-1</property>
  <property name="meta.media.nb_streams">2</property>
  <property name="meta.media.0.stream.type">video</property>
  <property name="meta.media.0.stream.frame_rate">30</property>
  <property name="meta.media.0.stream.sample_aspect_ratio">0</property>
  <property name="meta.media.0.codec.width">1344</property>
  <property name="meta.media.0.codec.height">704</property>
  <property name="meta.media.0.codec.rotate">0</property>
  <property name="meta.media.0.codec.pix_fmt">yuv420p</property>
  <property name="meta.media.0.codec.sample_aspect_ratio">0</property>
  <property name="meta.media.0.codec.colorspace">709</property>
  <property name="meta.media.0.codec.name">h264</property>
  <property name="meta.media.0.codec.long_name">H.264 / AVC / MPEG-4 AVC / MPEG-4 part 10</property>
  <property name="meta.media.0.codec.bit_rate">1551651</property>
  <property name="meta.attr.0.stream.handler_name.markup">VideoHandler</property>
  <property name="meta.attr.0.stream.vendor_id.markup">[0][0][0][0]</property>
  <property name="meta.attr.0.stream.encoder.markup">Lavc59.37.100 libx264</property>
  <property name="meta.media.1.stream.type">audio</property>
  <property name="meta.media.1.codec.sample_fmt">fltp</property>
  <property name="meta.media.1.codec.sample_rate">44100</property>
  <property name="meta.media.1.codec.channels">2</property>
  <property name="meta.media.1.codec.layout">stereo</property>
  <property name="meta.media.1.codec.name">aac</property>
  <property name="meta.media.1.codec.long_name">AAC (Advanced Audio Coding)</property>
  <property name="meta.media.1.codec.bit_rate">127768</property>
  <property name="meta.attr.1.stream.handler_name.markup">SoundHandler</property>
  <property name="meta.attr.1.stream.vendor_id.markup">[0][0][0][0]</property>
  <property name="meta.attr.major_brand.markup">isom</property>
  <property name="meta.attr.minor_version.markup">512</property>
  <property name="meta.attr.compatible_brands.markup">isomiso2avc1mp41</property>
  <property name="meta.attr.encoder.markup">Lavf59.27.100</property>
  <property name="meta.media.sample_aspect_num">1</property>
  <property name="meta.media.sample_aspect_den">1</property>
  <property name="meta.media.frame_rate_num">30</property>
  <property name="meta.media.frame_rate_den">1</property>
  <property name="meta.media.colorspace">709</property>
  <property name="meta.media.color_trc">2</property>
  <property name="meta.media.has_b_frames">2</property>
  <property name="meta.media.width">1344</property>
  <property name="meta.media.height">704</property>
  <property name="meta.media.aspect_ratio">1</property>
  <property name="meta.media.color_range">mpeg</property>
  <property name="xml">was here</property>
  <property name="mute_on_pause">0</property>
  <property name="meta.media.top_field_first">0</property>
  <property name="meta.media.progressive">1</property>
  <property name="set.test_audio">0</property>
  <property name="set.test_image">1</property>
 </chain>
 <chain id="chain17" out="00:00:04.625">
  <property name="length">112</property>
  <property name="eof">pause</property>
  <property name="resource">C:/dev/workspace/indy/dist/room/attic/content/voice/attic.mp3</property>
  <property name="mlt_service">avformat-novalidate</property>
  <property name="seekable">1</property>
  <property name="audio_index">0</property>
  <property name="video_index">-1</property>
  <property name="astream">0</property>
  <property name="kdenlive:control_uuid">{57672c5f-1023-45b1-8937-57b0b6ad316f}</property>
  <property name="kdenlive:id">10</property>
  <property name="kdenlive:clip_type">1</property>
  <property name="kdenlive:file_size">37424</property>
  <property name="kdenlive:file_hash">c4fd485530845196267c27f7a6e84346</property>
  <property name="kdenlive:folderid">-1</property>
  <property name="meta.media.nb_streams">1</property>
  <property name="meta.media.0.stream.type">audio</property>
  <property name="meta.media.0.codec.sample_fmt">fltp</property>
  <property name="meta.media.0.codec.sample_rate">44100</property>
  <property name="meta.media.0.codec.channels">1</property>
  <property name="meta.media.0.codec.layout">mono</property>
  <property name="meta.media.0.codec.name">mp3float</property>
  <property name="meta.media.0.codec.long_name">MP3 (MPEG audio layer 3)</property>
  <property name="meta.media.0.codec.bit_rate">64000</property>
  <property name="meta.attr.encoder.markup">Lavf61.1.100</property>
  <property name="xml">was here</property>
  <property name="mute_on_pause">0</property>
  <property name="set.test_audio">0</property>
  <property name="set.test_image">1</property>
 </chain>
 <chain id="chain18" out="00:00:03.417">
  <property name="length">83</property>
  <property name="eof">pause</property>
  <property name="resource">C:/dev/workspace/indy/dist/room/attic/content/voice/attic2.mp3</property>
  <property name="mlt_service">avformat-novalidate</property>
  <property name="seekable">1</property>
  <property name="audio_index">0</property>
  <property name="video_index">-1</property>
  <property name="astream">0</property>
  <property name="kdenlive:control_uuid">{904963ca-6fda-4734-a78a-965d1bf42d52}</property>
  <property name="kdenlive:id">11</property>
  <property name="kdenlive:clip_type">1</property>
  <property name="kdenlive:file_size">27811</property>
  <property name="kdenlive:file_hash">b23fa849adfde6ceac045a8e3aa2ce0f</property>
  <property name="kdenlive:folderid">-1</property>
  <property name="meta.media.nb_streams">1</property>
  <property name="meta.media.0.stream.type">audio</property>
  <property name="meta.media.0.codec.sample_fmt">fltp</property>
  <property name="meta.media.0.codec.sample_rate">44100</property>
  <property name="meta.media.0.codec.channels">1</property>
  <property name="meta.media.0.codec.layout">mono</property>
  <property name="meta.media.0.codec.name">mp3float</property>
  <property name="meta.media.0.codec.long_name">MP3 (MPEG audio layer 3)</property>
  <property name="meta.media.0.codec.bit_rate">64000</property>
  <property name="meta.attr.encoder.markup">Lavf61.1.100</property>
  <property name="xml">was here</property>
  <property name="mute_on_pause">0</property>
  <property name="set.test_audio">0</property>
  <property name="set.test_image">1</property>
 </chain>
 <chain id="chain19" out="00:00:03.708">
  <property name="length">90</property>
  <property name="eof">pause</property>
  <property name="resource">C:/dev/workspace/indy/dist/room/attic/content/voice/attic3.mp3</property>
  <property name="mlt_service">avformat-novalidate</property>
  <property name="seekable">1</property>
  <property name="audio_index">0</property>
  <property name="video_index">-1</property>
  <property name="astream">0</property>
  <property name="kdenlive:control_uuid">{a3a68f41-6486-4180-baf7-bed4aa651dbd}</property>
  <property name="kdenlive:id">12</property>
  <property name="kdenlive:clip_type">1</property>
  <property name="kdenlive:file_size">30110</property>
  <property name="kdenlive:file_hash">d99e44b030c09d8fe5fe79faa02827b1</property>
  <property name="kdenlive:folderid">-1</property>
  <property name="meta.media.nb_streams">1</property>
  <property name="meta.media.0.stream.type">audio</property>
  <property name="meta.media.0.codec.sample_fmt">fltp</property>
  <property name="meta.media.0.codec.sample_rate">44100</property>
  <property name="meta.media.0.codec.channels">1</property>
  <property name="meta.media.0.codec.layout">mono</property>
  <property name="meta.media.0.codec.name">mp3float</property>
  <property name="meta.media.0.codec.long_name">MP3 (MPEG audio layer 3)</property>
  <property name="meta.media.0.codec.bit_rate">64000</property>
  <property name="meta.attr.encoder.markup">Lavf61.1.100</property>
  <property name="xml">was here</property>
  <property name="mute_on_pause">0</property>
  <property name="set.test_audio">0</property>
  <property name="set.test_image">1</property>
 </chain>
 <chain id="chain20" out="00:00:02.083">
  <property name="length">51</property>
  <property name="eof">pause</property>
  <property name="resource">C:/dev/workspace/indy/dist/room/attic/content/voice/cross.mp3</property>
  <property name="mlt_service">avformat-novalidate</property>
  <property name="seekable">1</property>
  <property name="audio_index">0</property>
  <property name="video_index">-1</property>
  <property name="astream">0</property>
  <property name="kdenlive:control_uuid">{3450b425-c595-4e48-9ea1-9e30e869b583}</property>
  <property name="kdenlive:id">17</property>
  <property name="kdenlive:clip_type">1</property>
  <property name="kdenlive:file_size">17362</property>
  <property name="kdenlive:file_hash">2a7a560848dc1125e3cbd4c2e405cca8</property>
  <property name="kdenlive:folderid">-1</property>
  <property name="meta.media.nb_streams">1</property>
  <property name="meta.media.0.stream.type">audio</property>
  <property name="meta.media.0.codec.sample_fmt">fltp</property>
  <property name="meta.media.0.codec.sample_rate">44100</property>
  <property name="meta.media.0.codec.channels">1</property>
  <property name="meta.media.0.codec.layout">mono</property>
  <property name="meta.media.0.codec.name">mp3float</property>
  <property name="meta.media.0.codec.long_name">MP3 (MPEG audio layer 3)</property>
  <property name="meta.media.0.codec.bit_rate">64000</property>
  <property name="meta.attr.encoder.markup">Lavf61.1.100</property>
  <property name="xml">was here</property>
  <property name="mute_on_pause">0</property>
  <property name="set.test_audio">0</property>
  <property name="set.test_image">1</property>
 </chain>
 <chain id="chain21" out="00:00:03.333">
  <property name="length">81</property>
  <property name="eof">pause</property>
  <property name="resource">C:/dev/workspace/indy/dist/room/attic/content/voice/cross2.mp3</property>
  <property name="mlt_service">avformat-novalidate</property>
  <property name="seekable">1</property>
  <property name="audio_index">0</property>
  <property name="video_index">-1</property>
  <property name="astream">0</property>
  <property name="kdenlive:control_uuid">{808eb7bb-72df-4c74-a107-6af3f2fd53a6}</property>
  <property name="kdenlive:id">18</property>
  <property name="kdenlive:clip_type">1</property>
  <property name="kdenlive:file_size">27184</property>
  <property name="kdenlive:file_hash">7ad3dd2b81ee01c24d4654efa8d919f5</property>
  <property name="kdenlive:folderid">-1</property>
  <property name="meta.media.nb_streams">1</property>
  <property name="meta.media.0.stream.type">audio</property>
  <property name="meta.media.0.codec.sample_fmt">fltp</property>
  <property name="meta.media.0.codec.sample_rate">44100</property>
  <property name="meta.media.0.codec.channels">1</property>
  <property name="meta.media.0.codec.layout">mono</property>
  <property name="meta.media.0.codec.name">mp3float</property>
  <property name="meta.media.0.codec.long_name">MP3 (MPEG audio layer 3)</property>
  <property name="meta.media.0.codec.bit_rate">64000</property>
  <property name="meta.attr.encoder.markup">Lavf61.1.100</property>
  <property name="xml">was here</property>
  <property name="mute_on_pause">0</property>
  <property name="set.test_audio">0</property>
  <property name="set.test_image">1</property>
 </chain>
 <chain id="chain22" out="00:00:04.208">
  <property name="length">102</property>
  <property name="eof">pause</property>
  <property name="resource">C:/dev/workspace/indy/dist/room/attic/content/voice/cross3.mp3</property>
  <property name="mlt_service">avformat-novalidate</property>
  <property name="seekable">1</property>
  <property name="audio_index">0</property>
  <property name="video_index">-1</property>
  <property name="astream">0</property>
  <property name="kdenlive:control_uuid">{9093c126-59d8-48d4-8e2f-bc455c57424e}</property>
  <property name="kdenlive:id">19</property>
  <property name="kdenlive:clip_type">1</property>
  <property name="kdenlive:file_size">34080</property>
  <property name="kdenlive:file_hash">feee882d69c1faeb7e18e49403338d00</property>
  <property name="kdenlive:folderid">-1</property>
  <property name="meta.media.nb_streams">1</property>
  <property name="meta.media.0.stream.type">audio</property>
  <property name="meta.media.0.codec.sample_fmt">fltp</property>
  <property name="meta.media.0.codec.sample_rate">44100</property>
  <property name="meta.media.0.codec.channels">1</property>
  <property name="meta.media.0.codec.layout">mono</property>
  <property name="meta.media.0.codec.name">mp3float</property>
  <property name="meta.media.0.codec.long_name">MP3 (MPEG audio layer 3)</property>
  <property name="meta.media.0.codec.bit_rate">64000</property>
  <property name="meta.attr.encoder.markup">Lavf61.1.100</property>
  <property name="xml">was here</property>
  <property name="mute_on_pause">0</property>
  <property name="set.test_audio">0</property>
  <property name="set.test_image">1</property>
 </chain>
 <chain id="chain23" out="00:00:03.083">
  <property name="length">75</property>
  <property name="eof">pause</property>
  <property name="resource">C:/dev/workspace/indy/dist/room/attic/content/voice/gargoyle.mp3</property>
  <property name="mlt_service">avformat-novalidate</property>
  <property name="seekable">1</property>
  <property name="audio_index">0</property>
  <property name="video_index">-1</property>
  <property name="astream">0</property>
  <property name="kdenlive:control_uuid">{6a41b534-46c1-4c22-b800-d4973ee802ce}</property>
  <property name="kdenlive:id">22</property>
  <property name="kdenlive:clip_type">1</property>
  <property name="kdenlive:file_size">25303</property>
  <property name="kdenlive:file_hash">48d628cbc1d2b53830f59744b1147215</property>
  <property name="kdenlive:folderid">-1</property>
  <property name="meta.media.nb_streams">1</property>
  <property name="meta.media.0.stream.type">audio</property>
  <property name="meta.media.0.codec.sample_fmt">fltp</property>
  <property name="meta.media.0.codec.sample_rate">44100</property>
  <property name="meta.media.0.codec.channels">1</property>
  <property name="meta.media.0.codec.layout">mono</property>
  <property name="meta.media.0.codec.name">mp3float</property>
  <property name="meta.media.0.codec.long_name">MP3 (MPEG audio layer 3)</property>
  <property name="meta.media.0.codec.bit_rate">64000</property>
  <property name="meta.attr.encoder.markup">Lavf61.1.100</property>
  <property name="xml">was here</property>
  <property name="mute_on_pause">0</property>
  <property name="set.test_audio">0</property>
  <property name="set.test_image">1</property>
 </chain>
 <chain id="chain24" out="00:00:04.333">
  <property name="length">105</property>
  <property name="eof">pause</property>
  <property name="resource">C:/dev/workspace/indy/dist/room/attic/content/voice/gargoyle2.mp3</property>
  <property name="mlt_service">avformat-novalidate</property>
  <property name="seekable">1</property>
  <property name="audio_index">0</property>
  <property name="video_index">-1</property>
  <property name="astream">0</property>
  <property name="kdenlive:control_uuid">{af399fd3-2076-4df9-96a6-a00d7030a3b3}</property>
  <property name="kdenlive:id">23</property>
  <property name="kdenlive:clip_type">1</property>
  <property name="kdenlive:file_size">35334</property>
  <property name="kdenlive:file_hash">6b61d9b126cb60405e4bff345f1bea97</property>
  <property name="kdenlive:folderid">-1</property>
  <property name="meta.media.nb_streams">1</property>
  <property name="meta.media.0.stream.type">audio</property>
  <property name="meta.media.0.codec.sample_fmt">fltp</property>
  <property name="meta.media.0.codec.sample_rate">44100</property>
  <property name="meta.media.0.codec.channels">1</property>
  <property name="meta.media.0.codec.layout">mono</property>
  <property name="meta.media.0.codec.name">mp3float</property>
  <property name="meta.media.0.codec.long_name">MP3 (MPEG audio layer 3)</property>
  <property name="meta.media.0.codec.bit_rate">64000</property>
  <property name="meta.attr.encoder.markup">Lavf61.1.100</property>
  <property name="xml">was here</property>
  <property name="mute_on_pause">0</property>
  <property name="set.test_audio">0</property>
  <property name="set.test_image">1</property>
 </chain>
 <chain id="chain25" out="00:00:02.083">
  <property name="length">51</property>
  <property name="eof">pause</property>
  <property name="resource">C:/dev/workspace/indy/dist/room/attic/content/voice/gargoyle3.mp3</property>
  <property name="mlt_service">avformat-novalidate</property>
  <property name="seekable">1</property>
  <property name="audio_index">0</property>
  <property name="video_index">-1</property>
  <property name="astream">0</property>
  <property name="kdenlive:control_uuid">{39fb1ce5-a88b-4c8d-ba6d-9536ec9b9c06}</property>
  <property name="kdenlive:id">24</property>
  <property name="kdenlive:clip_type">1</property>
  <property name="kdenlive:file_size">17153</property>
  <property name="kdenlive:file_hash">4eb65d3e7161baaa02daa2b4c9a72551</property>
  <property name="kdenlive:folderid">-1</property>
  <property name="meta.media.nb_streams">1</property>
  <property name="meta.media.0.stream.type">audio</property>
  <property name="meta.media.0.codec.sample_fmt">fltp</property>
  <property name="meta.media.0.codec.sample_rate">44100</property>
  <property name="meta.media.0.codec.channels">1</property>
  <property name="meta.media.0.codec.layout">mono</property>
  <property name="meta.media.0.codec.name">mp3float</property>
  <property name="meta.media.0.codec.long_name">MP3 (MPEG audio layer 3)</property>
  <property name="meta.media.0.codec.bit_rate">64000</property>
  <property name="meta.attr.encoder.markup">Lavf61.1.100</property>
  <property name="xml">was here</property>
  <property name="mute_on_pause">0</property>
  <property name="set.test_audio">0</property>
  <property name="set.test_image">1</property>
 </chain>
 <chain id="chain26" out="00:00:01.375">
  <property name="length">34</property>
  <property name="eof">pause</property>
  <property name="resource">C:/dev/workspace/indy/dist/room/attic/content/voice/attic4.mp3</property>
  <property name="mlt_service">avformat-novalidate</property>
  <property name="seekable">1</property>
  <property name="audio_index">0</property>
  <property name="video_index">-1</property>
  <property name="astream">0</property>
  <property name="kdenlive:control_uuid">{e8afd77d-fc82-4b57-8666-20f6121d473d}</property>
  <property name="kdenlive:id">28</property>
  <property name="kdenlive:clip_type">1</property>
  <property name="kdenlive:file_size">11510</property>
  <property name="kdenlive:file_hash">7478bfa857c8529c6c9d3a3cbb770699</property>
  <property name="kdenlive:folderid">-1</property>
  <property name="meta.media.nb_streams">1</property>
  <property name="meta.media.0.stream.type">audio</property>
  <property name="meta.media.0.codec.sample_fmt">fltp</property>
  <property name="meta.media.0.codec.sample_rate">44100</property>
  <property name="meta.media.0.codec.channels">1</property>
  <property name="meta.media.0.codec.layout">mono</property>
  <property name="meta.media.0.codec.name">mp3float</property>
  <property name="meta.media.0.codec.long_name">MP3 (MPEG audio layer 3)</property>
  <property name="meta.media.0.codec.bit_rate">64000</property>
  <property name="meta.attr.encoder.markup">Lavf61.1.100</property>
  <property name="xml">was here</property>
  <property name="mute_on_pause">0</property>
  <property name="set.test_audio">0</property>
  <property name="set.test_image">1</property>
 </chain>
 <chain id="chain27" out="00:00:01.792">
  <property name="length">44</property>
  <property name="eof">pause</property>
  <property name="resource">C:/dev/workspace/indy/dist/room/attic/content/voice/attic5.mp3</property>
  <property name="mlt_service">avformat-novalidate</property>
  <property name="seekable">1</property>
  <property name="audio_index">0</property>
  <property name="video_index">-1</property>
  <property name="astream">0</property>
  <property name="kdenlive:control_uuid">{4d120234-6fd4-4f71-a98f-8907e247727a}</property>
  <property name="kdenlive:id">29</property>
  <property name="kdenlive:clip_type">1</property>
  <property name="kdenlive:file_size">14854</property>
  <property name="kdenlive:file_hash">9f73a4f28f66141839383d3d02ae8459</property>
  <property name="kdenlive:folderid">-1</property>
  <property name="meta.media.nb_streams">1</property>
  <property name="meta.media.0.stream.type">audio</property>
  <property name="meta.media.0.codec.sample_fmt">fltp</property>
  <property name="meta.media.0.codec.sample_rate">44100</property>
  <property name="meta.media.0.codec.channels">1</property>
  <property name="meta.media.0.codec.layout">mono</property>
  <property name="meta.media.0.codec.name">mp3float</property>
  <property name="meta.media.0.codec.long_name">MP3 (MPEG audio layer 3)</property>
  <property name="meta.media.0.codec.bit_rate">64000</property>
  <property name="meta.attr.encoder.markup">Lavf61.1.100</property>
  <property name="xml">was here</property>
  <property name="mute_on_pause">0</property>
  <property name="set.test_audio">0</property>
  <property name="set.test_image">1</property>
 </chain>
 <playlist id="playlist10">
  <property name="kdenlive:audio_track">1</property>
  <entry in="00:00:00.000" out="00:00:02.958" producer="chain15">
   <property name="kdenlive:id">6</property>
   <filter id="filter52">
    <property name="window">75</property>
    <property name="max_gain">20dB</property>
    <property name="level">00:00:00.000=-12;00:00:01.000=-12;00:00:02.958=-80</property>
    <property name="mlt_service">volume</property>
    <property name="kdenlive_id">volume</property>
    <property name="kdenlive:collapsed">0</property>
   </filter>
  </entry>
  <entry in="00:00:00.000" out="00:00:04.958" producer="chain16">
   <property name="kdenlive:id">8</property>
   <filter id="filter53" in="00:00:04.750" out="00:00:04.958">
    <property name="window">75</property>
    <property name="max_gain">20dB</property>
    <property name="mlt_service">volume</property>
    <property name="kdenlive_id">fadeout</property>
    <property name="gain">1</property>
    <property name="end">0</property>
   </filter>
  </entry>
  <blank length="00:00:00.958"/>
  <entry in="00:00:00.000" out="00:00:01.458" producer="chain17">
   <property name="kdenlive:id">10</property>
  </entry>
  <blank length="00:00:00.167"/>
  <entry in="00:00:01.375" out="00:00:04.625" producer="chain17">
   <property name="kdenlive:id">10</property>
  </entry>
  <blank length="00:00:00.458"/>
  <entry in="00:00:00.000" out="00:00:03.417" producer="chain18">
   <property name="kdenlive:id">11</property>
  </entry>
  <blank length="00:00:00.708"/>
  <entry in="00:00:00.000" out="00:00:03.708" producer="chain19">
   <property name="kdenlive:id">12</property>
  </entry>
  <blank length="00:00:00.708"/>
  <entry in="00:00:00.000" out="00:00:01.958" producer="chain16">
   <property name="kdenlive:id">8</property>
   <filter id="filter54" in="00:00:01.750" out="00:00:01.958">
    <property name="window">75</property>
    <property name="max_gain">20dB</property>
    <property name="mlt_service">volume</property>
    <property name="kdenlive_id">fadeout</property>
    <property name="gain">1</property>
    <property name="end">0</property>
    <property name="kdenlive:collapsed">0</property>
   </filter>
  </entry>
  <blank length="00:00:05.000"/>
  <entry in="00:00:00.000" out="00:00:02.083" producer="chain20">
   <property name="kdenlive:id">17</property>
  </entry>
  <blank length="00:00:00.875"/>
  <entry in="00:00:00.000" out="00:00:03.333" producer="chain21">
   <property name="kdenlive:id">18</property>
  </entry>
  <blank length="00:00:04.042"/>
  <entry in="00:00:00.000" out="00:00:04.208" producer="chain22">
   <property name="kdenlive:id">19</property>
  </entry>
  <blank length="00:00:08.333"/>
  <entry in="00:00:00.000" out="00:00:03.083" producer="chain23">
   <property name="kdenlive:id">22</property>
  </entry>
  <blank length="00:00:01.292"/>
  <entry in="00:00:00.000" out="00:00:04.333" producer="chain24">
   <property name="kdenlive:id">23</property>
  </entry>
  <blank length="00:00:00.625"/>
  <entry in="00:00:00.000" out="00:00:02.042" producer="chain25">
   <property name="kdenlive:id">24</property>
  </entry>
  <blank length="00:00:02.333"/>
  <entry in="00:00:00.000" out="00:00:01.375" producer="chain26">
   <property name="kdenlive:id">28</property>
  </entry>
  <blank length="00:00:01.167"/>
  <entry in="00:00:00.000" out="00:00:01.792" producer="chain27">
   <property name="kdenlive:id">29</property>
  </entry>
 </playlist>
 <playlist id="playlist11">
  <property name="kdenlive:audio_track">1</property>
 </playlist>
 <tractor id="tractor5" in="00:00:00.000" out="00:01:11.208">
  <property name="kdenlive:audio_track">1</property>
  <property name="kdenlive:trackheight">67</property>
  <property name="kdenlive:timeline_active">1</property>
  <property name="kdenlive:collapsed">0</property>
  <property name="kdenlive:thumbs_format"/>
  <property name="kdenlive:audio_rec"/>
  <track hide="video" producer="playlist10"/>
  <track hide="video" producer="playlist11"/>
  <filter id="filter55">
   <property name="window">75</property>
   <property name="max_gain">20dB</property>
   <property name="mlt_service">volume</property>
   <property name="internal_added">237</property>
   <property name="disable">1</property>
  </filter>
  <filter id="filter56">
   <property name="channel">-1</property>
   <property name="mlt_service">panner</property>
   <property name="internal_added">237</property>
   <property name="start">0.5</property>
   <property name="disable">1</property>
  </filter>
  <filter id="filter24">
   <property name="iec_scale">0</property>
   <property name="mlt_service">audiolevel</property>
   <property name="dbpeak">1</property>
   <property name="disable">1</property>
  </filter>
 </tractor>
 <chain id="chain31" out="00:00:05.042">
  <property name="length">122</property>
  <property name="eof">pause</property>
  <property name="resource">C:/dev/workspace/indy/dist/room/attic/content/upscale/wide/splash3.mp4</property>
  <property name="mlt_service">avformat-novalidate</property>
  <property name="seekable">1</property>
  <property name="audio_index">1</property>
  <property name="video_index">0</property>
  <property name="vstream">0</property>
  <property name="astream">0</property>
  <property name="kdenlive:control_uuid">{d396c311-fc1b-40df-8de5-65c0823479bd}</property>
  <property name="kdenlive:id">45</property>
  <property name="kdenlive:clip_type">0</property>
  <property name="kdenlive:file_size">15212829</property>
  <property name="kdenlive:file_hash">289799bd83a46f4bbfd9d3209106b84e</property>
  <property name="kdenlive:folderid">-1</property>
  <property name="meta.media.nb_streams">2</property>
  <property name="meta.media.0.stream.type">video</property>
  <property name="meta.media.0.stream.frame_rate">60</property>
  <property name="meta.media.0.stream.sample_aspect_ratio">0</property>
  <property name="meta.media.0.codec.width">5110</property>
  <property name="meta.media.0.codec.height">2160</property>
  <property name="meta.media.0.codec.rotate">0</property>
  <property name="meta.media.0.codec.pix_fmt">yuv444p</property>
  <property name="meta.media.0.codec.sample_aspect_ratio">0</property>
  <property name="meta.media.0.codec.colorspace">709</property>
  <property name="meta.media.0.codec.name">h264</property>
  <property name="meta.media.0.codec.long_name">H.264 / AVC / MPEG-4 AVC / MPEG-4 part 10</property>
  <property name="meta.media.0.codec.bit_rate">23845686</property>
  <property name="meta.attr.0.stream.handler_name.markup">VideoHandler</property>
  <property name="meta.attr.0.stream.vendor_id.markup">[0][0][0][0]</property>
  <property name="meta.attr.0.stream.encoder.markup">Lavc61.19.101 libx264</property>
  <property name="meta.media.1.stream.type">audio</property>
  <property name="meta.media.1.codec.sample_fmt">fltp</property>
  <property name="meta.media.1.codec.sample_rate">48000</property>
  <property name="meta.media.1.codec.channels">2</property>
  <property name="meta.media.1.codec.layout">stereo</property>
  <property name="meta.media.1.codec.name">aac</property>
  <property name="meta.media.1.codec.long_name">AAC (Advanced Audio Coding)</property>
  <property name="meta.media.1.codec.bit_rate">2276</property>
  <property name="meta.attr.1.stream.handler_name.markup">SoundHandler</property>
  <property name="meta.attr.1.stream.vendor_id.markup">[0][0][0][0]</property>
  <property name="meta.attr.minor_version.markup">512</property>
  <property name="meta.attr.major_brand.markup">isom</property>
  <property name="meta.attr.compatible_brands.markup">isomiso2avc1mp41</property>
  <property name="meta.attr.encoder.markup">Lavf61.9.100</property>
  <property name="meta.media.sample_aspect_num">1</property>
  <property name="meta.media.sample_aspect_den">1</property>
  <property name="meta.media.frame_rate_num">60</property>
  <property name="meta.media.frame_rate_den">1</property>
  <property name="meta.media.colorspace">709</property>
  <property name="meta.media.color_trc">2</property>
  <property name="meta.media.has_b_frames">2</property>
  <property name="meta.media.width">5110</property>
  <property name="meta.media.height">2160</property>
  <property name="meta.media.aspect_ratio">1</property>
  <property name="meta.media.color_range">mpeg</property>
  <property name="xml">was here</property>
  <property name="mute_on_pause">0</property>
  <property name="meta.media.top_field_first">0</property>
  <property name="meta.media.progressive">1</property>
  <property name="set.test_audio">1</property>
  <property name="set.test_image">0</property>
 </chain>
 <producer id="producer1" in="00:00:00.000" out="00:00:05.042">
  <property name="length">122</property>
  <property name="eof">pause</property>
  <property name="resource">-1.000000:C:/dev/workspace/indy/dist/room/attic/content/upscale/wide/indy4.mp4</property>
  <property name="aspect_ratio">1</property>
  <property name="meta.media.nb_streams">2</property>
  <property name="meta.media.0.stream.type">video</property>
  <property name="meta.media.0.stream.frame_rate">60</property>
  <property name="meta.media.0.stream.sample_aspect_ratio">0</property>
  <property name="meta.media.0.codec.width">5110</property>
  <property name="meta.media.0.codec.height">2160</property>
  <property name="meta.media.0.codec.rotate">0</property>
  <property name="meta.media.0.codec.pix_fmt">yuv444p</property>
  <property name="meta.media.0.codec.sample_aspect_ratio">0</property>
  <property name="meta.media.0.codec.colorspace">709</property>
  <property name="meta.media.0.codec.name">h264</property>
  <property name="meta.media.0.codec.long_name">H.264 / AVC / MPEG-4 AVC / MPEG-4 part 10</property>
  <property name="meta.media.0.codec.bit_rate">26422622</property>
  <property name="meta.attr.0.stream.handler_name.markup">VideoHandler</property>
  <property name="meta.attr.0.stream.vendor_id.markup">[0][0][0][0]</property>
  <property name="meta.attr.0.stream.encoder.markup">Lavc61.19.101 libx264</property>
  <property name="meta.media.1.stream.type">audio</property>
  <property name="meta.media.1.codec.sample_fmt">fltp</property>
  <property name="meta.media.1.codec.sample_rate">48000</property>
  <property name="meta.media.1.codec.channels">2</property>
  <property name="meta.media.1.codec.layout">stereo</property>
  <property name="meta.media.1.codec.name">aac</property>
  <property name="meta.media.1.codec.long_name">AAC (Advanced Audio Coding)</property>
  <property name="meta.media.1.codec.bit_rate">2276</property>
  <property name="meta.attr.1.stream.handler_name.markup">SoundHandler</property>
  <property name="meta.attr.1.stream.vendor_id.markup">[0][0][0][0]</property>
  <property name="meta.attr.minor_version.markup">512</property>
  <property name="meta.attr.major_brand.markup">isom</property>
  <property name="meta.attr.compatible_brands.markup">isomiso2avc1mp41</property>
  <property name="meta.attr.encoder.markup">Lavf61.9.100</property>
  <property name="seekable">1</property>
  <property name="meta.media.sample_aspect_num">1</property>
  <property name="meta.media.sample_aspect_den">1</property>
  <property name="audio_index">1</property>
  <property name="video_index">0</property>
  <property name="warp_speed">-1</property>
  <property name="warp_resource">C:/dev/workspace/indy/dist/room/attic/content/upscale/wide/indy4.mp4</property>
  <property name="mlt_service">timewarp</property>
  <property name="kdenlive:control_uuid">{1bde86aa-81a4-4ae4-80e8-5af50e3d0079}</property>
  <property name="vstream">0</property>
  <property name="astream">0</property>
  <property name="set.test_audio">1</property>
  <property name="set.test_image">0</property>
  <property name="kdenlive:id">44</property>
  <property name="warp_pitch">0</property>
  <property name="meta.media.frame_rate_num">60</property>
  <property name="meta.media.frame_rate_den">1</property>
  <property name="meta.media.colorspace">709</property>
  <property name="meta.media.color_trc">2</property>
  <property name="meta.media.has_b_frames">2</property>
  <property name="meta.media.width">5110</property>
  <property name="meta.media.height">2160</property>
  <property name="meta.media.aspect_ratio">1</property>
  <property name="meta.media.color_range">mpeg</property>
  <property name="meta.media.top_field_first">0</property>
  <property name="meta.media.progressive">1</property>
 </producer>
 <chain id="chain33" out="00:00:04.958">
  <property name="length">120</property>
  <property name="eof">pause</property>
  <property name="resource">C:/dev/workspace/indy/dist/room/attic/content/upscale/wide/dialog3-1.mp4</property>
  <property name="mlt_service">avformat-novalidate</property>
  <property name="seekable">1</property>
  <property name="audio_index">1</property>
  <property name="video_index">0</property>
  <property name="vstream">0</property>
  <property name="astream">0</property>
  <property name="kdenlive:control_uuid">{f5bc5ac5-6d35-4708-82d0-dffe3f17d8a1}</property>
  <property name="kdenlive:id">41</property>
  <property name="kdenlive:clip_type">0</property>
  <property name="kdenlive:file_size">13357276</property>
  <property name="kdenlive:file_hash">ff745686451d18be55580302b506c9ac</property>
  <property name="kdenlive:folderid">-1</property>
  <property name="meta.media.nb_streams">2</property>
  <property name="meta.media.0.stream.type">video</property>
  <property name="meta.media.0.stream.frame_rate">24</property>
  <property name="meta.media.0.stream.sample_aspect_ratio">0</property>
  <property name="meta.media.0.codec.width">5110</property>
  <property name="meta.media.0.codec.height">2160</property>
  <property name="meta.media.0.codec.rotate">0</property>
  <property name="meta.media.0.codec.pix_fmt">yuv444p</property>
  <property name="meta.media.0.codec.sample_aspect_ratio">0</property>
  <property name="meta.media.0.codec.colorspace">709</property>
  <property name="meta.media.0.codec.name">h264</property>
  <property name="meta.media.0.codec.long_name">H.264 / AVC / MPEG-4 AVC / MPEG-4 part 10</property>
  <property name="meta.media.0.codec.bit_rate">21318844</property>
  <property name="meta.attr.0.stream.handler_name.markup">VideoHandler</property>
  <property name="meta.attr.0.stream.vendor_id.markup">[0][0][0][0]</property>
  <property name="meta.attr.0.stream.encoder.markup">Lavc61.19.101 libx264</property>
  <property name="meta.media.1.stream.type">audio</property>
  <property name="meta.media.1.codec.sample_fmt">fltp</property>
  <property name="meta.media.1.codec.sample_rate">48000</property>
  <property name="meta.media.1.codec.channels">2</property>
  <property name="meta.media.1.codec.layout">stereo</property>
  <property name="meta.media.1.codec.name">aac</property>
  <property name="meta.media.1.codec.long_name">AAC (Advanced Audio Coding)</property>
  <property name="meta.media.1.codec.bit_rate">2277</property>
  <property name="meta.attr.1.stream.handler_name.markup">SoundHandler</property>
  <property name="meta.attr.1.stream.vendor_id.markup">[0][0][0][0]</property>
  <property name="meta.attr.minor_version.markup">512</property>
  <property name="meta.attr.major_brand.markup">isom</property>
  <property name="meta.attr.compatible_brands.markup">isomiso2avc1mp41</property>
  <property name="meta.attr.encoder.markup">Lavf61.9.100</property>
  <property name="meta.media.sample_aspect_num">1</property>
  <property name="meta.media.sample_aspect_den">1</property>
  <property name="meta.media.frame_rate_num">24</property>
  <property name="meta.media.frame_rate_den">1</property>
  <property name="meta.media.colorspace">709</property>
  <property name="meta.media.color_trc">2</property>
  <property name="meta.media.has_b_frames">2</property>
  <property name="meta.media.width">5110</property>
  <property name="meta.media.height">2160</property>
  <property name="meta.media.aspect_ratio">1</property>
  <property name="meta.media.color_range">mpeg</property>
  <property name="xml">was here</property>
  <property name="mute_on_pause">0</property>
  <property name="meta.media.top_field_first">0</property>
  <property name="meta.media.progressive">1</property>
  <property name="set.test_audio">1</property>
  <property name="set.test_image">0</property>
 </chain>
 <chain id="chain34" out="00:00:05.250">
  <property name="length">127</property>
  <property name="eof">pause</property>
  <property name="resource">C:/dev/workspace/indy/dist/room/attic/content/upscale/wide/dialog3-2.mp4</property>
  <property name="mlt_service">avformat-novalidate</property>
  <property name="seekable">1</property>
  <property name="audio_index">1</property>
  <property name="video_index">0</property>
  <property name="vstream">0</property>
  <property name="astream">0</property>
  <property name="kdenlive:control_uuid">{af5d09ed-3a97-4ef9-a204-b29a0cc28eb9}</property>
  <property name="kdenlive:id">42</property>
  <property name="kdenlive:clip_type">0</property>
  <property name="kdenlive:file_size">15859603</property>
  <property name="kdenlive:file_hash">587c69f6d982791208946c2ca749bc61</property>
  <property name="kdenlive:folderid">-1</property>
  <property name="meta.media.nb_streams">2</property>
  <property name="meta.media.0.stream.type">video</property>
  <property name="meta.media.0.stream.frame_rate">24</property>
  <property name="meta.media.0.stream.sample_aspect_ratio">0</property>
  <property name="meta.media.0.codec.width">5110</property>
  <property name="meta.media.0.codec.height">2160</property>
  <property name="meta.media.0.codec.rotate">0</property>
  <property name="meta.media.0.codec.pix_fmt">yuv444p</property>
  <property name="meta.media.0.codec.sample_aspect_ratio">0</property>
  <property name="meta.media.0.codec.colorspace">709</property>
  <property name="meta.media.0.codec.name">h264</property>
  <property name="meta.media.0.codec.long_name">H.264 / AVC / MPEG-4 AVC / MPEG-4 part 10</property>
  <property name="meta.media.0.codec.bit_rate">23961534</property>
  <property name="meta.attr.0.stream.handler_name.markup">VideoHandler</property>
  <property name="meta.attr.0.stream.vendor_id.markup">[0][0][0][0]</property>
  <property name="meta.attr.0.stream.encoder.markup">Lavc61.19.101 libx264</property>
  <property name="meta.media.1.stream.type">audio</property>
  <property name="meta.media.1.codec.sample_fmt">fltp</property>
  <property name="meta.media.1.codec.sample_rate">48000</property>
  <property name="meta.media.1.codec.channels">2</property>
  <property name="meta.media.1.codec.layout">stereo</property>
  <property name="meta.media.1.codec.name">aac</property>
  <property name="meta.media.1.codec.long_name">AAC (Advanced Audio Coding)</property>
  <property name="meta.media.1.codec.bit_rate">2275</property>
  <property name="meta.attr.1.stream.handler_name.markup">SoundHandler</property>
  <property name="meta.attr.1.stream.vendor_id.markup">[0][0][0][0]</property>
  <property name="meta.attr.minor_version.markup">512</property>
  <property name="meta.attr.major_brand.markup">isom</property>
  <property name="meta.attr.compatible_brands.markup">isomiso2avc1mp41</property>
  <property name="meta.attr.encoder.markup">Lavf61.9.100</property>
  <property name="meta.media.sample_aspect_num">1</property>
  <property name="meta.media.sample_aspect_den">1</property>
  <property name="meta.media.frame_rate_num">24</property>
  <property name="meta.media.frame_rate_den">1</property>
  <property name="meta.media.colorspace">709</property>
  <property name="meta.media.color_trc">2</property>
  <property name="meta.media.has_b_frames">2</property>
  <property name="meta.media.width">5110</property>
  <property name="meta.media.height">2160</property>
  <property name="meta.media.aspect_ratio">1</property>
  <property name="meta.media.color_range">mpeg</property>
  <property name="xml">was here</property>
  <property name="mute_on_pause">0</property>
  <property name="meta.media.top_field_first">0</property>
  <property name="meta.media.progressive">1</property>
  <property name="set.test_audio">1</property>
  <property name="set.test_image">0</property>
 </chain>
 <producer id="producer2" in="00:00:00.000" out="00:00:05.000">
  <property name="length">121</property>
  <property name="eof">pause</property>
  <property name="resource">-1.000000:C:/dev/workspace/indy/dist/room/attic/content/upscale/wide/attic22.mp4</property>
  <property name="aspect_ratio">1</property>
  <property name="meta.media.nb_streams">2</property>
  <property name="meta.media.0.stream.type">video</property>
  <property name="meta.media.0.stream.frame_rate">24</property>
  <property name="meta.media.0.stream.sample_aspect_ratio">0</property>
  <property name="meta.media.0.codec.width">5110</property>
  <property name="meta.media.0.codec.height">2160</property>
  <property name="meta.media.0.codec.rotate">0</property>
  <property name="meta.media.0.codec.pix_fmt">yuv444p</property>
  <property name="meta.media.0.codec.sample_aspect_ratio">0</property>
  <property name="meta.media.0.codec.colorspace">709</property>
  <property name="meta.media.0.codec.name">h264</property>
  <property name="meta.media.0.codec.long_name">H.264 / AVC / MPEG-4 AVC / MPEG-4 part 10</property>
  <property name="meta.media.0.codec.bit_rate">24316914</property>
  <property name="meta.attr.0.stream.handler_name.markup">VideoHandler</property>
  <property name="meta.attr.0.stream.vendor_id.markup">[0][0][0][0]</property>
  <property name="meta.attr.0.stream.encoder.markup">Lavc61.19.101 libx264</property>
  <property name="meta.media.1.stream.type">audio</property>
  <property name="meta.media.1.codec.sample_fmt">fltp</property>
  <property name="meta.media.1.codec.sample_rate">48000</property>
  <property name="meta.media.1.codec.channels">2</property>
  <property name="meta.media.1.codec.layout">stereo</property>
  <property name="meta.media.1.codec.name">aac</property>
  <property name="meta.media.1.codec.long_name">AAC (Advanced Audio Coding)</property>
  <property name="meta.media.1.codec.bit_rate">2277</property>
  <property name="meta.attr.1.stream.handler_name.markup">SoundHandler</property>
  <property name="meta.attr.1.stream.vendor_id.markup">[0][0][0][0]</property>
  <property name="meta.attr.minor_version.markup">512</property>
  <property name="meta.attr.major_brand.markup">isom</property>
  <property name="meta.attr.compatible_brands.markup">isomiso2avc1mp41</property>
  <property name="meta.attr.encoder.markup">Lavf61.9.100</property>
  <property name="seekable">1</property>
  <property name="meta.media.sample_aspect_num">1</property>
  <property name="meta.media.sample_aspect_den">1</property>
  <property name="audio_index">1</property>
  <property name="video_index">0</property>
  <property name="warp_speed">-1</property>
  <property name="warp_resource">C:/dev/workspace/indy/dist/room/attic/content/upscale/wide/attic22.mp4</property>
  <property name="mlt_service">timewarp</property>
  <property name="kdenlive:control_uuid">{63a84f15-402a-417c-80a7-c179a9f6a623}</property>
  <property name="vstream">0</property>
  <property name="astream">0</property>
  <property name="set.test_audio">1</property>
  <property name="set.test_image">0</property>
  <property name="kdenlive:id">74</property>
  <property name="warp_pitch">0</property>
  <property name="meta.media.frame_rate_num">24</property>
  <property name="meta.media.frame_rate_den">1</property>
  <property name="meta.media.colorspace">709</property>
  <property name="meta.media.color_trc">2</property>
  <property name="meta.media.has_b_frames">2</property>
  <property name="meta.media.width">5110</property>
  <property name="meta.media.height">2160</property>
  <property name="meta.media.aspect_ratio">1</property>
  <property name="meta.media.color_range">mpeg</property>
  <property name="meta.media.top_field_first">0</property>
  <property name="meta.media.progressive">1</property>
 </producer>
 <producer id="producer3" in="00:00:00.000" out="00:00:03.333">
  <property name="length">81</property>
  <property name="eof">pause</property>
  <property name="resource">1.500000:C:/dev/workspace/indy/dist/room/attic/content/upscale/wide/attic25.mp4</property>
  <property name="aspect_ratio">1</property>
  <property name="meta.media.nb_streams">2</property>
  <property name="meta.media.0.stream.type">video</property>
  <property name="meta.media.0.stream.frame_rate">60</property>
  <property name="meta.media.0.stream.sample_aspect_ratio">0</property>
  <property name="meta.media.0.codec.width">5110</property>
  <property name="meta.media.0.codec.height">2160</property>
  <property name="meta.media.0.codec.rotate">0</property>
  <property name="meta.media.0.codec.pix_fmt">yuv444p</property>
  <property name="meta.media.0.codec.sample_aspect_ratio">0</property>
  <property name="meta.media.0.codec.colorspace">709</property>
  <property name="meta.media.0.codec.name">h264</property>
  <property name="meta.media.0.codec.long_name">H.264 / AVC / MPEG-4 AVC / MPEG-4 part 10</property>
  <property name="meta.media.0.codec.bit_rate">33198661</property>
  <property name="meta.attr.0.stream.handler_name.markup">VideoHandler</property>
  <property name="meta.attr.0.stream.vendor_id.markup">[0][0][0][0]</property>
  <property name="meta.attr.0.stream.encoder.markup">Lavc61.19.101 libx264</property>
  <property name="meta.media.1.stream.type">audio</property>
  <property name="meta.media.1.codec.sample_fmt">fltp</property>
  <property name="meta.media.1.codec.sample_rate">48000</property>
  <property name="meta.media.1.codec.channels">2</property>
  <property name="meta.media.1.codec.layout">stereo</property>
  <property name="meta.media.1.codec.name">aac</property>
  <property name="meta.media.1.codec.long_name">AAC (Advanced Audio Coding)</property>
  <property name="meta.media.1.codec.bit_rate">2277</property>
  <property name="meta.attr.1.stream.handler_name.markup">SoundHandler</property>
  <property name="meta.attr.1.stream.vendor_id.markup">[0][0][0][0]</property>
  <property name="meta.attr.minor_version.markup">512</property>
  <property name="meta.attr.major_brand.markup">isom</property>
  <property name="meta.attr.compatible_brands.markup">isomiso2avc1mp41</property>
  <property name="meta.attr.encoder.markup">Lavf61.9.100</property>
  <property name="seekable">1</property>
  <property name="meta.media.sample_aspect_num">1</property>
  <property name="meta.media.sample_aspect_den">1</property>
  <property name="audio_index">1</property>
  <property name="video_index">0</property>
  <property name="warp_speed">1.5</property>
  <property name="warp_resource">C:/dev/workspace/indy/dist/room/attic/content/upscale/wide/attic25.mp4</property>
  <property name="mlt_service">timewarp</property>
  <property name="kdenlive:control_uuid">{d1915721-d9a6-48ab-8948-c1096f8834b4}</property>
  <property name="vstream">0</property>
  <property name="astream">0</property>
  <property name="set.test_audio">1</property>
  <property name="set.test_image">0</property>
  <property name="kdenlive:id">76</property>
  <property name="warp_pitch">0</property>
  <property name="meta.media.frame_rate_num">60</property>
  <property name="meta.media.frame_rate_den">1</property>
  <property name="meta.media.colorspace">709</property>
  <property name="meta.media.color_trc">2</property>
  <property name="meta.media.has_b_frames">2</property>
  <property name="meta.media.width">5110</property>
  <property name="meta.media.height">2160</property>
  <property name="meta.media.aspect_ratio">1</property>
  <property name="meta.media.color_range">mpeg</property>
  <property name="meta.media.top_field_first">0</property>
  <property name="meta.media.progressive">1</property>
 </producer>
 <producer id="producer6" in="00:00:00.000" out="00:00:01.958">
  <property name="length">48</property>
  <property name="eof">pause</property>
  <property name="resource">-2.500000:C:/dev/workspace/indy/dist/room/attic/content/upscale/wide/attic24.mp4</property>
  <property name="aspect_ratio">1</property>
  <property name="meta.media.nb_streams">2</property>
  <property name="meta.media.0.stream.type">video</property>
  <property name="meta.media.0.stream.frame_rate">60</property>
  <property name="meta.media.0.stream.sample_aspect_ratio">0</property>
  <property name="meta.media.0.codec.width">5110</property>
  <property name="meta.media.0.codec.height">2160</property>
  <property name="meta.media.0.codec.rotate">0</property>
  <property name="meta.media.0.codec.pix_fmt">yuv444p</property>
  <property name="meta.media.0.codec.sample_aspect_ratio">0</property>
  <property name="meta.media.0.codec.colorspace">709</property>
  <property name="meta.media.0.codec.name">h264</property>
  <property name="meta.media.0.codec.long_name">H.264 / AVC / MPEG-4 AVC / MPEG-4 part 10</property>
  <property name="meta.media.0.codec.bit_rate">28970734</property>
  <property name="meta.attr.0.stream.handler_name.markup">VideoHandler</property>
  <property name="meta.attr.0.stream.vendor_id.markup">[0][0][0][0]</property>
  <property name="meta.attr.0.stream.encoder.markup">Lavc61.19.101 libx264</property>
  <property name="meta.media.1.stream.type">audio</property>
  <property name="meta.media.1.codec.sample_fmt">fltp</property>
  <property name="meta.media.1.codec.sample_rate">48000</property>
  <property name="meta.media.1.codec.channels">2</property>
  <property name="meta.media.1.codec.layout">stereo</property>
  <property name="meta.media.1.codec.name">aac</property>
  <property name="meta.media.1.codec.long_name">AAC (Advanced Audio Coding)</property>
  <property name="meta.media.1.codec.bit_rate">2277</property>
  <property name="meta.attr.1.stream.handler_name.markup">SoundHandler</property>
  <property name="meta.attr.1.stream.vendor_id.markup">[0][0][0][0]</property>
  <property name="meta.attr.minor_version.markup">512</property>
  <property name="meta.attr.major_brand.markup">isom</property>
  <property name="meta.attr.compatible_brands.markup">isomiso2avc1mp41</property>
  <property name="meta.attr.encoder.markup">Lavf61.9.100</property>
  <property name="seekable">1</property>
  <property name="meta.media.sample_aspect_num">1</property>
  <property name="meta.media.sample_aspect_den">1</property>
  <property name="audio_index">1</property>
  <property name="video_index">0</property>
  <property name="warp_speed">-2.5</property>
  <property name="warp_resource">C:/dev/workspace/indy/dist/room/attic/content/upscale/wide/attic24.mp4</property>
  <property name="mlt_service">timewarp</property>
  <property name="kdenlive:control_uuid">{bbed0c97-6cbb-4f98-a573-3d8b78434db9}</property>
  <property name="vstream">0</property>
  <property name="astream">0</property>
  <property name="set.test_audio">1</property>
  <property name="set.test_image">0</property>
  <property name="kdenlive:id">37</property>
  <property name="warp_pitch">0</property>
  <property name="meta.media.frame_rate_num">60</property>
  <property name="meta.media.frame_rate_den">1</property>
  <property name="meta.media.colorspace">709</property>
  <property name="meta.media.color_trc">2</property>
  <property name="meta.media.has_b_frames">2</property>
  <property name="meta.media.width">5110</property>
  <property name="meta.media.height">2160</property>
  <property name="meta.media.aspect_ratio">1</property>
  <property name="meta.media.color_range">mpeg</property>
  <property name="meta.media.top_field_first">0</property>
  <property name="meta.media.progressive">1</property>
 </producer>
 <chain id="chain36" out="00:00:05.042">
  <property name="length">122</property>
  <property name="eof">pause</property>
  <property name="resource">C:/dev/workspace/indy/dist/room/attic/content/upscale/wide/attic18.mp4</property>
  <property name="mlt_service">avformat-novalidate</property>
  <property name="seekable">1</property>
  <property name="audio_index">1</property>
  <property name="video_index">0</property>
  <property name="vstream">0</property>
  <property name="astream">0</property>
  <property name="kdenlive:control_uuid">{333cea33-7fa6-4e9a-9fdf-a228b4fde037}</property>
  <property name="kdenlive:id">35</property>
  <property name="kdenlive:clip_type">0</property>
  <property name="kdenlive:file_size">16119395</property>
  <property name="kdenlive:file_hash">2b79bd5b056fbf149cced8df9dc9a57d</property>
  <property name="kdenlive:folderid">-1</property>
  <property name="meta.media.nb_streams">2</property>
  <property name="meta.media.0.stream.type">video</property>
  <property name="meta.media.0.stream.frame_rate">60</property>
  <property name="meta.media.0.stream.sample_aspect_ratio">0</property>
  <property name="meta.media.0.codec.width">5110</property>
  <property name="meta.media.0.codec.height">2160</property>
  <property name="meta.media.0.codec.rotate">0</property>
  <property name="meta.media.0.codec.pix_fmt">yuv444p</property>
  <property name="meta.media.0.codec.sample_aspect_ratio">0</property>
  <property name="meta.media.0.codec.colorspace">709</property>
  <property name="meta.media.0.codec.name">h264</property>
  <property name="meta.media.0.codec.long_name">H.264 / AVC / MPEG-4 AVC / MPEG-4 part 10</property>
  <property name="meta.media.0.codec.bit_rate">25268026</property>
  <property name="meta.attr.0.stream.handler_name.markup">VideoHandler</property>
  <property name="meta.attr.0.stream.vendor_id.markup">[0][0][0][0]</property>
  <property name="meta.attr.0.stream.encoder.markup">Lavc61.19.101 libx264</property>
  <property name="meta.media.1.stream.type">audio</property>
  <property name="meta.media.1.codec.sample_fmt">fltp</property>
  <property name="meta.media.1.codec.sample_rate">48000</property>
  <property name="meta.media.1.codec.channels">2</property>
  <property name="meta.media.1.codec.layout">stereo</property>
  <property name="meta.media.1.codec.name">aac</property>
  <property name="meta.media.1.codec.long_name">AAC (Advanced Audio Coding)</property>
  <property name="meta.media.1.codec.bit_rate">2276</property>
  <property name="meta.attr.1.stream.handler_name.markup">SoundHandler</property>
  <property name="meta.attr.1.stream.vendor_id.markup">[0][0][0][0]</property>
  <property name="meta.attr.minor_version.markup">512</property>
  <property name="meta.attr.major_brand.markup">isom</property>
  <property name="meta.attr.compatible_brands.markup">isomiso2avc1mp41</property>
  <property name="meta.attr.encoder.markup">Lavf61.9.100</property>
  <property name="meta.media.sample_aspect_num">1</property>
  <property name="meta.media.sample_aspect_den">1</property>
  <property name="meta.media.frame_rate_num">60</property>
  <property name="meta.media.frame_rate_den">1</property>
  <property name="meta.media.colorspace">709</property>
  <property name="meta.media.color_trc">2</property>
  <property name="meta.media.has_b_frames">2</property>
  <property name="meta.media.width">5110</property>
  <property name="meta.media.height">2160</property>
  <property name="meta.media.aspect_ratio">1</property>
  <property name="meta.media.color_range">mpeg</property>
  <property name="xml">was here</property>
  <property name="mute_on_pause">0</property>
  <property name="meta.media.top_field_first">0</property>
  <property name="meta.media.progressive">1</property>
  <property name="set.test_audio">1</property>
  <property name="set.test_image">0</property>
 </chain>
 <producer id="producer7" in="00:00:00.000" out="00:00:05.042">
  <property name="length">122</property>
  <property name="eof">pause</property>
  <property name="resource">-1.000000:C:/dev/workspace/indy/dist/room/attic/content/upscale/wide/cross6.mp4</property>
  <property name="aspect_ratio">1</property>
  <property name="meta.media.nb_streams">2</property>
  <property name="meta.media.0.stream.type">video</property>
  <property name="meta.media.0.stream.frame_rate">60</property>
  <property name="meta.media.0.stream.sample_aspect_ratio">0</property>
  <property name="meta.media.0.codec.width">5110</property>
  <property name="meta.media.0.codec.height">2160</property>
  <property name="meta.media.0.codec.rotate">0</property>
  <property name="meta.media.0.codec.pix_fmt">yuv444p</property>
  <property name="meta.media.0.codec.sample_aspect_ratio">0</property>
  <property name="meta.media.0.codec.colorspace">709</property>
  <property name="meta.media.0.codec.name">h264</property>
  <property name="meta.media.0.codec.long_name">H.264 / AVC / MPEG-4 AVC / MPEG-4 part 10</property>
  <property name="meta.media.0.codec.bit_rate">24986674</property>
  <property name="meta.attr.0.stream.handler_name.markup">VideoHandler</property>
  <property name="meta.attr.0.stream.vendor_id.markup">[0][0][0][0]</property>
  <property name="meta.attr.0.stream.encoder.markup">Lavc61.19.101 libx264</property>
  <property name="meta.media.1.stream.type">audio</property>
  <property name="meta.media.1.codec.sample_fmt">fltp</property>
  <property name="meta.media.1.codec.sample_rate">48000</property>
  <property name="meta.media.1.codec.channels">2</property>
  <property name="meta.media.1.codec.layout">stereo</property>
  <property name="meta.media.1.codec.name">aac</property>
  <property name="meta.media.1.codec.long_name">AAC (Advanced Audio Coding)</property>
  <property name="meta.media.1.codec.bit_rate">2276</property>
  <property name="meta.attr.1.stream.handler_name.markup">SoundHandler</property>
  <property name="meta.attr.1.stream.vendor_id.markup">[0][0][0][0]</property>
  <property name="meta.attr.minor_version.markup">512</property>
  <property name="meta.attr.major_brand.markup">isom</property>
  <property name="meta.attr.compatible_brands.markup">isomiso2avc1mp41</property>
  <property name="meta.attr.encoder.markup">Lavf61.9.100</property>
  <property name="seekable">1</property>
  <property name="meta.media.sample_aspect_num">1</property>
  <property name="meta.media.sample_aspect_den">1</property>
  <property name="audio_index">1</property>
  <property name="video_index">0</property>
  <property name="warp_speed">-1</property>
  <property name="warp_resource">C:/dev/workspace/indy/dist/room/attic/content/upscale/wide/cross6.mp4</property>
  <property name="mlt_service">timewarp</property>
  <property name="kdenlive:control_uuid">{47a7e1a7-c41e-4aa1-850b-18f1b5b94d22}</property>
  <property name="vstream">0</property>
  <property name="astream">0</property>
  <property name="set.test_audio">1</property>
  <property name="set.test_image">0</property>
  <property name="kdenlive:id">38</property>
  <property name="warp_pitch">0</property>
  <property name="meta.media.frame_rate_num">60</property>
  <property name="meta.media.frame_rate_den">1</property>
  <property name="meta.media.colorspace">709</property>
  <property name="meta.media.color_trc">2</property>
  <property name="meta.media.has_b_frames">2</property>
  <property name="meta.media.width">5110</property>
  <property name="meta.media.height">2160</property>
  <property name="meta.media.aspect_ratio">1</property>
  <property name="meta.media.color_range">mpeg</property>
  <property name="meta.media.top_field_first">0</property>
  <property name="meta.media.progressive">1</property>
 </producer>
 <chain id="chain37" out="00:00:05.042">
  <property name="length">122</property>
  <property name="eof">pause</property>
  <property name="resource">C:/dev/workspace/indy/dist/room/attic/content/upscale/wide/cross7.mp4</property>
  <property name="mlt_service">avformat-novalidate</property>
  <property name="seekable">1</property>
  <property name="audio_index">1</property>
  <property name="video_index">0</property>
  <property name="vstream">0</property>
  <property name="astream">0</property>
  <property name="kdenlive:control_uuid">{8e15228f-f78b-42a4-9046-7efba275a0c6}</property>
  <property name="kdenlive:id">39</property>
  <property name="kdenlive:clip_type">0</property>
  <property name="kdenlive:file_size">17941329</property>
  <property name="kdenlive:file_hash">ab5528177f60addadf31b3764906cfca</property>
  <property name="kdenlive:folderid">-1</property>
  <property name="meta.media.nb_streams">2</property>
  <property name="meta.media.0.stream.type">video</property>
  <property name="meta.media.0.stream.frame_rate">60</property>
  <property name="meta.media.0.stream.sample_aspect_ratio">0</property>
  <property name="meta.media.0.codec.width">5110</property>
  <property name="meta.media.0.codec.height">2160</property>
  <property name="meta.media.0.codec.rotate">0</property>
  <property name="meta.media.0.codec.pix_fmt">yuv444p</property>
  <property name="meta.media.0.codec.sample_aspect_ratio">0</property>
  <property name="meta.media.0.codec.colorspace">709</property>
  <property name="meta.media.0.codec.name">h264</property>
  <property name="meta.media.0.codec.long_name">H.264 / AVC / MPEG-4 AVC / MPEG-4 part 10</property>
  <property name="meta.media.0.codec.bit_rate">28125686</property>
  <property name="meta.attr.0.stream.handler_name.markup">VideoHandler</property>
  <property name="meta.attr.0.stream.vendor_id.markup">[0][0][0][0]</property>
  <property name="meta.attr.0.stream.encoder.markup">Lavc61.19.101 libx264</property>
  <property name="meta.media.1.stream.type">audio</property>
  <property name="meta.media.1.codec.sample_fmt">fltp</property>
  <property name="meta.media.1.codec.sample_rate">48000</property>
  <property name="meta.media.1.codec.channels">2</property>
  <property name="meta.media.1.codec.layout">stereo</property>
  <property name="meta.media.1.codec.name">aac</property>
  <property name="meta.media.1.codec.long_name">AAC (Advanced Audio Coding)</property>
  <property name="meta.media.1.codec.bit_rate">2276</property>
  <property name="meta.attr.1.stream.handler_name.markup">SoundHandler</property>
  <property name="meta.attr.1.stream.vendor_id.markup">[0][0][0][0]</property>
  <property name="meta.attr.minor_version.markup">512</property>
  <property name="meta.attr.major_brand.markup">isom</property>
  <property name="meta.attr.compatible_brands.markup">isomiso2avc1mp41</property>
  <property name="meta.attr.encoder.markup">Lavf61.9.100</property>
  <property name="meta.media.sample_aspect_num">1</property>
  <property name="meta.media.sample_aspect_den">1</property>
  <property name="meta.media.frame_rate_num">60</property>
  <property name="meta.media.frame_rate_den">1</property>
  <property name="meta.media.colorspace">709</property>
  <property name="meta.media.color_trc">2</property>
  <property name="meta.media.has_b_frames">2</property>
  <property name="meta.media.width">5110</property>
  <property name="meta.media.height">2160</property>
  <property name="meta.media.aspect_ratio">1</property>
  <property name="meta.media.color_range">mpeg</property>
  <property name="xml">was here</property>
  <property name="mute_on_pause">0</property>
  <property name="meta.media.top_field_first">0</property>
  <property name="meta.media.progressive">1</property>
  <property name="set.test_audio">1</property>
  <property name="set.test_image">0</property>
 </chain>
 <producer id="producer8" in="00:00:00.000" out="00:00:05.042">
  <property name="length">122</property>
  <property name="eof">pause</property>
  <property name="resource">-1.000000:C:/dev/workspace/indy/dist/room/attic/content/upscale/wide/cross7.mp4</property>
  <property name="aspect_ratio">1</property>
  <property name="meta.media.nb_streams">2</property>
  <property name="meta.media.0.stream.type">video</property>
  <property name="meta.media.0.stream.frame_rate">60</property>
  <property name="meta.media.0.stream.sample_aspect_ratio">0</property>
  <property name="meta.media.0.codec.width">5110</property>
  <property name="meta.media.0.codec.height">2160</property>
  <property name="meta.media.0.codec.rotate">0</property>
  <property name="meta.media.0.codec.pix_fmt">yuv444p</property>
  <property name="meta.media.0.codec.sample_aspect_ratio">0</property>
  <property name="meta.media.0.codec.colorspace">709</property>
  <property name="meta.media.0.codec.name">h264</property>
  <property name="meta.media.0.codec.long_name">H.264 / AVC / MPEG-4 AVC / MPEG-4 part 10</property>
  <property name="meta.media.0.codec.bit_rate">28125686</property>
  <property name="meta.attr.0.stream.handler_name.markup">VideoHandler</property>
  <property name="meta.attr.0.stream.vendor_id.markup">[0][0][0][0]</property>
  <property name="meta.attr.0.stream.encoder.markup">Lavc61.19.101 libx264</property>
  <property name="meta.media.1.stream.type">audio</property>
  <property name="meta.media.1.codec.sample_fmt">fltp</property>
  <property name="meta.media.1.codec.sample_rate">48000</property>
  <property name="meta.media.1.codec.channels">2</property>
  <property name="meta.media.1.codec.layout">stereo</property>
  <property name="meta.media.1.codec.name">aac</property>
  <property name="meta.media.1.codec.long_name">AAC (Advanced Audio Coding)</property>
  <property name="meta.media.1.codec.bit_rate">2276</property>
  <property name="meta.attr.1.stream.handler_name.markup">SoundHandler</property>
  <property name="meta.attr.1.stream.vendor_id.markup">[0][0][0][0]</property>
  <property name="meta.attr.minor_version.markup">512</property>
  <property name="meta.attr.major_brand.markup">isom</property>
  <property name="meta.attr.compatible_brands.markup">isomiso2avc1mp41</property>
  <property name="meta.attr.encoder.markup">Lavf61.9.100</property>
  <property name="seekable">1</property>
  <property name="meta.media.sample_aspect_num">1</property>
  <property name="meta.media.sample_aspect_den">1</property>
  <property name="audio_index">1</property>
  <property name="video_index">0</property>
  <property name="warp_speed">-1</property>
  <property name="warp_resource">C:/dev/workspace/indy/dist/room/attic/content/upscale/wide/cross7.mp4</property>
  <property name="mlt_service">timewarp</property>
  <property name="kdenlive:control_uuid">{8e15228f-f78b-42a4-9046-7efba275a0c6}</property>
  <property name="vstream">0</property>
  <property name="astream">0</property>
  <property name="set.test_audio">1</property>
  <property name="set.test_image">0</property>
  <property name="kdenlive:id">39</property>
  <property name="warp_pitch">0</property>
  <property name="meta.media.frame_rate_num">60</property>
  <property name="meta.media.frame_rate_den">1</property>
  <property name="meta.media.colorspace">709</property>
  <property name="meta.media.color_trc">2</property>
  <property name="meta.media.has_b_frames">2</property>
  <property name="meta.media.width">5110</property>
  <property name="meta.media.height">2160</property>
  <property name="meta.media.aspect_ratio">1</property>
  <property name="meta.media.color_range">mpeg</property>
  <property name="meta.media.top_field_first">0</property>
  <property name="meta.media.progressive">1</property>
 </producer>
 <chain id="chain38" out="00:00:05.042">
  <property name="length">122</property>
  <property name="eof">pause</property>
  <property name="resource">C:/dev/workspace/indy/dist/room/attic/content/upscale/wide/cross6.mp4</property>
  <property name="mlt_service">avformat-novalidate</property>
  <property name="seekable">1</property>
  <property name="audio_index">1</property>
  <property name="video_index">0</property>
  <property name="vstream">0</property>
  <property name="astream">0</property>
  <property name="kdenlive:control_uuid">{47a7e1a7-c41e-4aa1-850b-18f1b5b94d22}</property>
  <property name="kdenlive:id">38</property>
  <property name="kdenlive:clip_type">0</property>
  <property name="kdenlive:file_size">15940209</property>
  <property name="kdenlive:file_hash">eac8c128fcc7a1eecde7fc2951b7b320</property>
  <property name="kdenlive:folderid">-1</property>
  <property name="meta.media.nb_streams">2</property>
  <property name="meta.media.0.stream.type">video</property>
  <property name="meta.media.0.stream.frame_rate">60</property>
  <property name="meta.media.0.stream.sample_aspect_ratio">0</property>
  <property name="meta.media.0.codec.width">5110</property>
  <property name="meta.media.0.codec.height">2160</property>
  <property name="meta.media.0.codec.rotate">0</property>
  <property name="meta.media.0.codec.pix_fmt">yuv444p</property>
  <property name="meta.media.0.codec.sample_aspect_ratio">0</property>
  <property name="meta.media.0.codec.colorspace">709</property>
  <property name="meta.media.0.codec.name">h264</property>
  <property name="meta.media.0.codec.long_name">H.264 / AVC / MPEG-4 AVC / MPEG-4 part 10</property>
  <property name="meta.media.0.codec.bit_rate">24986674</property>
  <property name="meta.attr.0.stream.handler_name.markup">VideoHandler</property>
  <property name="meta.attr.0.stream.vendor_id.markup">[0][0][0][0]</property>
  <property name="meta.attr.0.stream.encoder.markup">Lavc61.19.101 libx264</property>
  <property name="meta.media.1.stream.type">audio</property>
  <property name="meta.media.1.codec.sample_fmt">fltp</property>
  <property name="meta.media.1.codec.sample_rate">48000</property>
  <property name="meta.media.1.codec.channels">2</property>
  <property name="meta.media.1.codec.layout">stereo</property>
  <property name="meta.media.1.codec.name">aac</property>
  <property name="meta.media.1.codec.long_name">AAC (Advanced Audio Coding)</property>
  <property name="meta.media.1.codec.bit_rate">2276</property>
  <property name="meta.attr.1.stream.handler_name.markup">SoundHandler</property>
  <property name="meta.attr.1.stream.vendor_id.markup">[0][0][0][0]</property>
  <property name="meta.attr.minor_version.markup">512</property>
  <property name="meta.attr.major_brand.markup">isom</property>
  <property name="meta.attr.compatible_brands.markup">isomiso2avc1mp41</property>
  <property name="meta.attr.encoder.markup">Lavf61.9.100</property>
  <property name="meta.media.sample_aspect_num">1</property>
  <property name="meta.media.sample_aspect_den">1</property>
  <property name="meta.media.frame_rate_num">60</property>
  <property name="meta.media.frame_rate_den">1</property>
  <property name="meta.media.colorspace">709</property>
  <property name="meta.media.color_trc">2</property>
  <property name="meta.media.has_b_frames">2</property>
  <property name="meta.media.width">5110</property>
  <property name="meta.media.height">2160</property>
  <property name="meta.media.aspect_ratio">1</property>
  <property name="meta.media.color_range">mpeg</property>
  <property name="xml">was here</property>
  <property name="mute_on_pause">0</property>
  <property name="meta.media.top_field_first">0</property>
  <property name="meta.media.progressive">1</property>
  <property name="set.test_audio">1</property>
  <property name="set.test_image">0</property>
 </chain>
 <producer id="producer5" in="00:00:00.000" out="00:00:05.042">
  <property name="length">122</property>
  <property name="eof">pause</property>
  <property name="resource">-1.000000:C:/dev/workspace/indy/dist/room/attic/content/upscale/wide/cross6.mp4</property>
  <property name="aspect_ratio">1</property>
  <property name="meta.media.nb_streams">2</property>
  <property name="meta.media.0.stream.type">video</property>
  <property name="meta.media.0.stream.frame_rate">60</property>
  <property name="meta.media.0.stream.sample_aspect_ratio">0</property>
  <property name="meta.media.0.codec.width">5110</property>
  <property name="meta.media.0.codec.height">2160</property>
  <property name="meta.media.0.codec.rotate">0</property>
  <property name="meta.media.0.codec.pix_fmt">yuv444p</property>
  <property name="meta.media.0.codec.sample_aspect_ratio">0</property>
  <property name="meta.media.0.codec.colorspace">709</property>
  <property name="meta.media.0.codec.name">h264</property>
  <property name="meta.media.0.codec.long_name">H.264 / AVC / MPEG-4 AVC / MPEG-4 part 10</property>
  <property name="meta.media.0.codec.bit_rate">24986674</property>
  <property name="meta.attr.0.stream.handler_name.markup">VideoHandler</property>
  <property name="meta.attr.0.stream.vendor_id.markup">[0][0][0][0]</property>
  <property name="meta.attr.0.stream.encoder.markup">Lavc61.19.101 libx264</property>
  <property name="meta.media.1.stream.type">audio</property>
  <property name="meta.media.1.codec.sample_fmt">fltp</property>
  <property name="meta.media.1.codec.sample_rate">48000</property>
  <property name="meta.media.1.codec.channels">2</property>
  <property name="meta.media.1.codec.layout">stereo</property>
  <property name="meta.media.1.codec.name">aac</property>
  <property name="meta.media.1.codec.long_name">AAC (Advanced Audio Coding)</property>
  <property name="meta.media.1.codec.bit_rate">2276</property>
  <property name="meta.attr.1.stream.handler_name.markup">SoundHandler</property>
  <property name="meta.attr.1.stream.vendor_id.markup">[0][0][0][0]</property>
  <property name="meta.attr.minor_version.markup">512</property>
  <property name="meta.attr.major_brand.markup">isom</property>
  <property name="meta.attr.compatible_brands.markup">isomiso2avc1mp41</property>
  <property name="meta.attr.encoder.markup">Lavf61.9.100</property>
  <property name="seekable">1</property>
  <property name="meta.media.sample_aspect_num">1</property>
  <property name="meta.media.sample_aspect_den">1</property>
  <property name="audio_index">1</property>
  <property name="video_index">0</property>
  <property name="warp_speed">-1</property>
  <property name="warp_resource">C:/dev/workspace/indy/dist/room/attic/content/upscale/wide/cross6.mp4</property>
  <property name="mlt_service">timewarp</property>
  <property name="kdenlive:control_uuid">{47a7e1a7-c41e-4aa1-850b-18f1b5b94d22}</property>
  <property name="vstream">0</property>
  <property name="astream">0</property>
  <property name="set.test_audio">1</property>
  <property name="set.test_image">0</property>
  <property name="kdenlive:id">38</property>
  <property name="warp_pitch">0</property>
  <property name="meta.media.frame_rate_num">60</property>
  <property name="meta.media.frame_rate_den">1</property>
  <property name="meta.media.colorspace">709</property>
  <property name="meta.media.color_trc">2</property>
  <property name="meta.media.has_b_frames">2</property>
  <property name="meta.media.width">5110</property>
  <property name="meta.media.height">2160</property>
  <property name="meta.media.aspect_ratio">1</property>
  <property name="meta.media.color_range">mpeg</property>
  <property name="meta.media.top_field_first">0</property>
  <property name="meta.media.progressive">1</property>
 </producer>
 <chain id="chain39" out="00:00:05.042">
  <property name="length">122</property>
  <property name="eof">pause</property>
  <property name="resource">C:/dev/workspace/indy/dist/room/attic/content/upscale/wide/attic19.mp4</property>
  <property name="mlt_service">avformat-novalidate</property>
  <property name="seekable">1</property>
  <property name="audio_index">1</property>
  <property name="video_index">0</property>
  <property name="vstream">0</property>
  <property name="astream">0</property>
  <property name="kdenlive:control_uuid">{ad9a9cd9-5c3c-4f3a-a737-5fd279a8a81a}</property>
  <property name="kdenlive:id">36</property>
  <property name="kdenlive:clip_type">0</property>
  <property name="kdenlive:file_size">18672179</property>
  <property name="kdenlive:file_hash">7634a9872301afc558aef5434b21af5a</property>
  <property name="kdenlive:folderid">-1</property>
  <property name="meta.media.nb_streams">2</property>
  <property name="meta.media.0.stream.type">video</property>
  <property name="meta.media.0.stream.frame_rate">60</property>
  <property name="meta.media.0.stream.sample_aspect_ratio">0</property>
  <property name="meta.media.0.codec.width">5110</property>
  <property name="meta.media.0.codec.height">2160</property>
  <property name="meta.media.0.codec.rotate">0</property>
  <property name="meta.media.0.codec.pix_fmt">yuv444p</property>
  <property name="meta.media.0.codec.sample_aspect_ratio">0</property>
  <property name="meta.media.0.codec.colorspace">709</property>
  <property name="meta.media.0.codec.name">h264</property>
  <property name="meta.media.0.codec.long_name">H.264 / AVC / MPEG-4 AVC / MPEG-4 part 10</property>
  <property name="meta.media.0.codec.bit_rate">29272117</property>
  <property name="meta.attr.0.stream.handler_name.markup">VideoHandler</property>
  <property name="meta.attr.0.stream.vendor_id.markup">[0][0][0][0]</property>
  <property name="meta.attr.0.stream.encoder.markup">Lavc61.19.101 libx264</property>
  <property name="meta.media.1.stream.type">audio</property>
  <property name="meta.media.1.codec.sample_fmt">fltp</property>
  <property name="meta.media.1.codec.sample_rate">48000</property>
  <property name="meta.media.1.codec.channels">2</property>
  <property name="meta.media.1.codec.layout">stereo</property>
  <property name="meta.media.1.codec.name">aac</property>
  <property name="meta.media.1.codec.long_name">AAC (Advanced Audio Coding)</property>
  <property name="meta.media.1.codec.bit_rate">2276</property>
  <property name="meta.attr.1.stream.handler_name.markup">SoundHandler</property>
  <property name="meta.attr.1.stream.vendor_id.markup">[0][0][0][0]</property>
  <property name="meta.attr.minor_version.markup">512</property>
  <property name="meta.attr.major_brand.markup">isom</property>
  <property name="meta.attr.compatible_brands.markup">isomiso2avc1mp41</property>
  <property name="meta.attr.encoder.markup">Lavf61.9.100</property>
  <property name="meta.media.sample_aspect_num">1</property>
  <property name="meta.media.sample_aspect_den">1</property>
  <property name="meta.media.frame_rate_num">60</property>
  <property name="meta.media.frame_rate_den">1</property>
  <property name="meta.media.colorspace">709</property>
  <property name="meta.media.color_trc">2</property>
  <property name="meta.media.has_b_frames">2</property>
  <property name="meta.media.width">5110</property>
  <property name="meta.media.height">2160</property>
  <property name="meta.media.aspect_ratio">1</property>
  <property name="meta.media.color_range">mpeg</property>
  <property name="xml">was here</property>
  <property name="mute_on_pause">0</property>
  <property name="meta.media.top_field_first">0</property>
  <property name="meta.media.progressive">1</property>
  <property name="set.test_audio">1</property>
  <property name="set.test_image">0</property>
 </chain>
 <chain id="chain40" out="00:00:09.542">
  <property name="length">230</property>
  <property name="eof">pause</property>
  <property name="resource">C:/dev/workspace/indy/dist/room/attic/content/upscale/wide/gargoyle6.mp4</property>
  <property name="mlt_service">avformat-novalidate</property>
  <property name="seekable">1</property>
  <property name="audio_index">1</property>
  <property name="video_index">0</property>
  <property name="vstream">0</property>
  <property name="astream">0</property>
  <property name="kdenlive:control_uuid">{3eea0f3a-37f2-4538-a49c-9055fb1c853e}</property>
  <property name="kdenlive:id">43</property>
  <property name="kdenlive:clip_type">0</property>
  <property name="kdenlive:file_size">31115216</property>
  <property name="kdenlive:file_hash">baeabd4779e011ee91135c1d5b7cdb8a</property>
  <property name="kdenlive:folderid">-1</property>
  <property name="meta.media.nb_streams">2</property>
  <property name="meta.media.0.stream.type">video</property>
  <property name="meta.media.0.stream.frame_rate">60</property>
  <property name="meta.media.0.stream.sample_aspect_ratio">0</property>
  <property name="meta.media.0.codec.width">5110</property>
  <property name="meta.media.0.codec.height">2160</property>
  <property name="meta.media.0.codec.rotate">0</property>
  <property name="meta.media.0.codec.pix_fmt">yuv444p</property>
  <property name="meta.media.0.codec.sample_aspect_ratio">0</property>
  <property name="meta.media.0.codec.colorspace">709</property>
  <property name="meta.media.0.codec.name">h264</property>
  <property name="meta.media.0.codec.long_name">H.264 / AVC / MPEG-4 AVC / MPEG-4 part 10</property>
  <property name="meta.media.0.codec.bit_rate">25958618</property>
  <property name="meta.attr.0.stream.handler_name.markup">VideoHandler</property>
  <property name="meta.attr.0.stream.vendor_id.markup">[0][0][0][0]</property>
  <property name="meta.attr.0.stream.encoder.markup">Lavc61.19.101 libx264</property>
  <property name="meta.media.1.stream.type">audio</property>
  <property name="meta.media.1.codec.sample_fmt">fltp</property>
  <property name="meta.media.1.codec.sample_rate">48000</property>
  <property name="meta.media.1.codec.channels">2</property>
  <property name="meta.media.1.codec.layout">stereo</property>
  <property name="meta.media.1.codec.name">aac</property>
  <property name="meta.media.1.codec.long_name">AAC (Advanced Audio Coding)</property>
  <property name="meta.media.1.codec.bit_rate">2265</property>
  <property name="meta.attr.1.stream.handler_name.markup">SoundHandler</property>
  <property name="meta.attr.1.stream.vendor_id.markup">[0][0][0][0]</property>
  <property name="meta.attr.minor_version.markup">512</property>
  <property name="meta.attr.major_brand.markup">isom</property>
  <property name="meta.attr.compatible_brands.markup">isomiso2avc1mp41</property>
  <property name="meta.attr.encoder.markup">Lavf61.9.100</property>
  <property name="meta.media.sample_aspect_num">1</property>
  <property name="meta.media.sample_aspect_den">1</property>
  <property name="meta.media.frame_rate_num">60</property>
  <property name="meta.media.frame_rate_den">1</property>
  <property name="meta.media.colorspace">709</property>
  <property name="meta.media.color_trc">2</property>
  <property name="meta.media.has_b_frames">2</property>
  <property name="meta.media.width">5110</property>
  <property name="meta.media.height">2160</property>
  <property name="meta.media.aspect_ratio">1</property>
  <property name="meta.media.color_range">mpeg</property>
  <property name="xml">was here</property>
  <property name="mute_on_pause">0</property>
  <property name="meta.media.top_field_first">0</property>
  <property name="meta.media.progressive">1</property>
  <property name="set.test_audio">1</property>
  <property name="set.test_image">0</property>
 </chain>
 <producer id="producer10" in="00:00:00.000" out="00:00:09.542">
  <property name="length">230</property>
  <property name="eof">pause</property>
  <property name="resource">-1.000000:C:/dev/workspace/indy/dist/room/attic/content/upscale/wide/gargoyle6.mp4</property>
  <property name="aspect_ratio">1</property>
  <property name="meta.media.nb_streams">2</property>
  <property name="meta.media.0.stream.type">video</property>
  <property name="meta.media.0.stream.frame_rate">60</property>
  <property name="meta.media.0.stream.sample_aspect_ratio">0</property>
  <property name="meta.media.0.codec.width">5110</property>
  <property name="meta.media.0.codec.height">2160</property>
  <property name="meta.media.0.codec.rotate">0</property>
  <property name="meta.media.0.codec.pix_fmt">yuv444p</property>
  <property name="meta.media.0.codec.sample_aspect_ratio">0</property>
  <property name="meta.media.0.codec.colorspace">709</property>
  <property name="meta.media.0.codec.name">h264</property>
  <property name="meta.media.0.codec.long_name">H.264 / AVC / MPEG-4 AVC / MPEG-4 part 10</property>
  <property name="meta.media.0.codec.bit_rate">25958618</property>
  <property name="meta.attr.0.stream.handler_name.markup">VideoHandler</property>
  <property name="meta.attr.0.stream.vendor_id.markup">[0][0][0][0]</property>
  <property name="meta.attr.0.stream.encoder.markup">Lavc61.19.101 libx264</property>
  <property name="meta.media.1.stream.type">audio</property>
  <property name="meta.media.1.codec.sample_fmt">fltp</property>
  <property name="meta.media.1.codec.sample_rate">48000</property>
  <property name="meta.media.1.codec.channels">2</property>
  <property name="meta.media.1.codec.layout">stereo</property>
  <property name="meta.media.1.codec.name">aac</property>
  <property name="meta.media.1.codec.long_name">AAC (Advanced Audio Coding)</property>
  <property name="meta.media.1.codec.bit_rate">2265</property>
  <property name="meta.attr.1.stream.handler_name.markup">SoundHandler</property>
  <property name="meta.attr.1.stream.vendor_id.markup">[0][0][0][0]</property>
  <property name="meta.attr.minor_version.markup">512</property>
  <property name="meta.attr.major_brand.markup">isom</property>
  <property name="meta.attr.compatible_brands.markup">isomiso2avc1mp41</property>
  <property name="meta.attr.encoder.markup">Lavf61.9.100</property>
  <property name="seekable">1</property>
  <property name="meta.media.sample_aspect_num">1</property>
  <property name="meta.media.sample_aspect_den">1</property>
  <property name="audio_index">1</property>
  <property name="video_index">0</property>
  <property name="warp_speed">-1</property>
  <property name="warp_resource">C:/dev/workspace/indy/dist/room/attic/content/upscale/wide/gargoyle6.mp4</property>
  <property name="mlt_service">timewarp</property>
  <property name="kdenlive:control_uuid">{3eea0f3a-37f2-4538-a49c-9055fb1c853e}</property>
  <property name="vstream">0</property>
  <property name="astream">0</property>
  <property name="set.test_audio">1</property>
  <property name="set.test_image">0</property>
  <property name="kdenlive:id">43</property>
  <property name="warp_pitch">0</property>
  <property name="meta.media.frame_rate_num">60</property>
  <property name="meta.media.frame_rate_den">1</property>
  <property name="meta.media.colorspace">709</property>
  <property name="meta.media.color_trc">2</property>
  <property name="meta.media.has_b_frames">2</property>
  <property name="meta.media.width">5110</property>
  <property name="meta.media.height">2160</property>
  <property name="meta.media.aspect_ratio">1</property>
  <property name="meta.media.color_range">mpeg</property>
  <property name="meta.media.top_field_first">0</property>
  <property name="meta.media.progressive">1</property>
 </producer>
 <chain id="chain41" out="00:00:03.958">
  <property name="length">96</property>
  <property name="eof">pause</property>
  <property name="resource">C:/dev/workspace/indy/dist/room/attic/content/upscale/wide/dialog2.mp4</property>
  <property name="mlt_service">avformat-novalidate</property>
  <property name="seekable">1</property>
  <property name="audio_index">1</property>
  <property name="video_index">0</property>
  <property name="vstream">0</property>
  <property name="astream">0</property>
  <property name="kdenlive:control_uuid">{5e3cc123-1bc0-48b1-b4f0-95a228062a74}</property>
  <property name="kdenlive:id">40</property>
  <property name="kdenlive:clip_type">0</property>
  <property name="kdenlive:file_size">14903078</property>
  <property name="kdenlive:file_hash">ad9b36e465a7ff9e361792370a9fb3bc</property>
  <property name="kdenlive:folderid">-1</property>
  <property name="meta.media.nb_streams">2</property>
  <property name="meta.media.0.stream.type">video</property>
  <property name="meta.media.0.stream.frame_rate">60</property>
  <property name="meta.media.0.stream.sample_aspect_ratio">0</property>
  <property name="meta.media.0.codec.width">5110</property>
  <property name="meta.media.0.codec.height">2160</property>
  <property name="meta.media.0.codec.rotate">0</property>
  <property name="meta.media.0.codec.pix_fmt">yuv444p</property>
  <property name="meta.media.0.codec.sample_aspect_ratio">0</property>
  <property name="meta.media.0.codec.colorspace">709</property>
  <property name="meta.media.0.codec.name">h264</property>
  <property name="meta.media.0.codec.long_name">H.264 / AVC / MPEG-4 AVC / MPEG-4 part 10</property>
  <property name="meta.media.0.codec.bit_rate">29717736</property>
  <property name="meta.attr.0.stream.handler_name.markup">VideoHandler</property>
  <property name="meta.attr.0.stream.vendor_id.markup">[0][0][0][0]</property>
  <property name="meta.attr.0.stream.encoder.markup">Lavc61.19.101 libx264</property>
  <property name="meta.media.1.stream.type">audio</property>
  <property name="meta.media.1.codec.sample_fmt">fltp</property>
  <property name="meta.media.1.codec.sample_rate">48000</property>
  <property name="meta.media.1.codec.channels">2</property>
  <property name="meta.media.1.codec.layout">stereo</property>
  <property name="meta.media.1.codec.name">aac</property>
  <property name="meta.media.1.codec.long_name">AAC (Advanced Audio Coding)</property>
  <property name="meta.media.1.codec.bit_rate">2250</property>
  <property name="meta.attr.1.stream.handler_name.markup">SoundHandler</property>
  <property name="meta.attr.1.stream.vendor_id.markup">[0][0][0][0]</property>
  <property name="meta.attr.minor_version.markup">512</property>
  <property name="meta.attr.major_brand.markup">isom</property>
  <property name="meta.attr.compatible_brands.markup">isomiso2avc1mp41</property>
  <property name="meta.attr.encoder.markup">Lavf61.9.100</property>
  <property name="meta.media.sample_aspect_num">1</property>
  <property name="meta.media.sample_aspect_den">1</property>
  <property name="meta.media.frame_rate_num">60</property>
  <property name="meta.media.frame_rate_den">1</property>
  <property name="meta.media.colorspace">709</property>
  <property name="meta.media.color_trc">2</property>
  <property name="meta.media.has_b_frames">2</property>
  <property name="meta.media.width">5110</property>
  <property name="meta.media.height">2160</property>
  <property name="meta.media.aspect_ratio">1</property>
  <property name="meta.media.color_range">mpeg</property>
  <property name="xml">was here</property>
  <property name="mute_on_pause">0</property>
  <property name="meta.media.top_field_first">0</property>
  <property name="meta.media.progressive">1</property>
  <property name="set.test_audio">1</property>
  <property name="set.test_image">0</property>
 </chain>
 <chain id="chain42" out="00:00:08.958">
  <property name="length">216</property>
  <property name="eof">pause</property>
  <property name="resource">C:/dev/workspace/indy/dist/room/attic/content/upscale/wide/attic11-1.mp4</property>
  <property name="mlt_service">avformat-novalidate</property>
  <property name="seekable">1</property>
  <property name="audio_index">1</property>
  <property name="video_index">0</property>
  <property name="vstream">0</property>
  <property name="astream">0</property>
  <property name="kdenlive:control_uuid">{017a4357-fc50-4b3f-b1f9-76c667b28b9b}</property>
  <property name="kdenlive:id">56</property>
  <property name="kdenlive:clip_type">0</property>
  <property name="kdenlive:file_size">37816964</property>
  <property name="kdenlive:file_hash">71db133abe27e5eaddbc13430c96b570</property>
  <property name="kdenlive:folderid">-1</property>
  <property name="meta.media.nb_streams">2</property>
  <property name="meta.media.0.stream.type">video</property>
  <property name="meta.media.0.stream.frame_rate">60</property>
  <property name="meta.media.0.stream.sample_aspect_ratio">0</property>
  <property name="meta.media.0.codec.width">5110</property>
  <property name="meta.media.0.codec.height">2160</property>
  <property name="meta.media.0.codec.rotate">0</property>
  <property name="meta.media.0.codec.pix_fmt">yuv444p</property>
  <property name="meta.media.0.codec.sample_aspect_ratio">0</property>
  <property name="meta.media.0.codec.colorspace">709</property>
  <property name="meta.media.0.codec.name">h264</property>
  <property name="meta.media.0.codec.long_name">H.264 / AVC / MPEG-4 AVC / MPEG-4 part 10</property>
  <property name="meta.media.0.codec.bit_rate">33598611</property>
  <property name="meta.attr.0.stream.handler_name.markup">VideoHandler</property>
  <property name="meta.attr.0.stream.vendor_id.markup">[0][0][0][0]</property>
  <property name="meta.attr.0.stream.encoder.markup">Lavc61.19.101 libx264</property>
  <property name="meta.media.1.stream.type">audio</property>
  <property name="meta.media.1.codec.sample_fmt">fltp</property>
  <property name="meta.media.1.codec.sample_rate">48000</property>
  <property name="meta.media.1.codec.channels">2</property>
  <property name="meta.media.1.codec.layout">stereo</property>
  <property name="meta.media.1.codec.name">aac</property>
  <property name="meta.media.1.codec.long_name">AAC (Advanced Audio Coding)</property>
  <property name="meta.media.1.codec.bit_rate">2265</property>
  <property name="meta.attr.1.stream.handler_name.markup">SoundHandler</property>
  <property name="meta.attr.1.stream.vendor_id.markup">[0][0][0][0]</property>
  <property name="meta.attr.minor_version.markup">512</property>
  <property name="meta.attr.major_brand.markup">isom</property>
  <property name="meta.attr.compatible_brands.markup">isomiso2avc1mp41</property>
  <property name="meta.attr.encoder.markup">Lavf61.9.100</property>
  <property name="meta.media.sample_aspect_num">1</property>
  <property name="meta.media.sample_aspect_den">1</property>
  <property name="meta.media.frame_rate_num">60</property>
  <property name="meta.media.frame_rate_den">1</property>
  <property name="meta.media.colorspace">709</property>
  <property name="meta.media.color_trc">2</property>
  <property name="meta.media.has_b_frames">2</property>
  <property name="meta.media.width">5110</property>
  <property name="meta.media.height">2160</property>
  <property name="meta.media.aspect_ratio">1</property>
  <property name="meta.media.color_range">mpeg</property>
  <property name="xml">was here</property>
  <property name="mute_on_pause">0</property>
  <property name="meta.media.top_field_first">0</property>
  <property name="meta.media.progressive">1</property>
  <property name="set.test_audio">1</property>
  <property name="set.test_image">0</property>
 </chain>
 <chain id="chain43" out="00:00:05.042">
  <property name="length">122</property>
  <property name="eof">pause</property>
  <property name="resource">C:/dev/workspace/indy/dist/room/attic/content/upscale/wide/attic11-2.mp4</property>
  <property name="mlt_service">avformat-novalidate</property>
  <property name="seekable">1</property>
  <property name="audio_index">1</property>
  <property name="video_index">0</property>
  <property name="vstream">0</property>
  <property name="astream">0</property>
  <property name="kdenlive:control_uuid">{3c5fdc43-550a-4800-b8ca-fa6cce16a6d6}</property>
  <property name="kdenlive:id">57</property>
  <property name="kdenlive:clip_type">0</property>
  <property name="kdenlive:file_size">19438912</property>
  <property name="kdenlive:file_hash">0e9b7dac07d3bc9992b5f41d71b7e373</property>
  <property name="kdenlive:folderid">-1</property>
  <property name="meta.media.nb_streams">2</property>
  <property name="meta.media.0.stream.type">video</property>
  <property name="meta.media.0.stream.frame_rate">60</property>
  <property name="meta.media.0.stream.sample_aspect_ratio">0</property>
  <property name="meta.media.0.codec.width">5110</property>
  <property name="meta.media.0.codec.height">2160</property>
  <property name="meta.media.0.codec.rotate">0</property>
  <property name="meta.media.0.codec.pix_fmt">yuv444p</property>
  <property name="meta.media.0.codec.sample_aspect_ratio">0</property>
  <property name="meta.media.0.codec.colorspace">709</property>
  <property name="meta.media.0.codec.name">h264</property>
  <property name="meta.media.0.codec.long_name">H.264 / AVC / MPEG-4 AVC / MPEG-4 part 10</property>
  <property name="meta.media.0.codec.bit_rate">30474836</property>
  <property name="meta.attr.0.stream.handler_name.markup">VideoHandler</property>
  <property name="meta.attr.0.stream.vendor_id.markup">[0][0][0][0]</property>
  <property name="meta.attr.0.stream.encoder.markup">Lavc61.19.101 libx264</property>
  <property name="meta.media.1.stream.type">audio</property>
  <property name="meta.media.1.codec.sample_fmt">fltp</property>
  <property name="meta.media.1.codec.sample_rate">48000</property>
  <property name="meta.media.1.codec.channels">2</property>
  <property name="meta.media.1.codec.layout">stereo</property>
  <property name="meta.media.1.codec.name">aac</property>
  <property name="meta.media.1.codec.long_name">AAC (Advanced Audio Coding)</property>
  <property name="meta.media.1.codec.bit_rate">2276</property>
  <property name="meta.attr.1.stream.handler_name.markup">SoundHandler</property>
  <property name="meta.attr.1.stream.vendor_id.markup">[0][0][0][0]</property>
  <property name="meta.attr.minor_version.markup">512</property>
  <property name="meta.attr.major_brand.markup">isom</property>
  <property name="meta.attr.compatible_brands.markup">isomiso2avc1mp41</property>
  <property name="meta.attr.encoder.markup">Lavf61.9.100</property>
  <property name="meta.media.sample_aspect_num">1</property>
  <property name="meta.media.sample_aspect_den">1</property>
  <property name="meta.media.frame_rate_num">60</property>
  <property name="meta.media.frame_rate_den">1</property>
  <property name="meta.media.colorspace">709</property>
  <property name="meta.media.color_trc">2</property>
  <property name="meta.media.has_b_frames">2</property>
  <property name="meta.media.width">5110</property>
  <property name="meta.media.height">2160</property>
  <property name="meta.media.aspect_ratio">1</property>
  <property name="meta.media.color_range">mpeg</property>
  <property name="xml">was here</property>
  <property name="mute_on_pause">0</property>
  <property name="meta.media.top_field_first">0</property>
  <property name="meta.media.progressive">1</property>
  <property name="set.test_audio">1</property>
  <property name="set.test_image">0</property>
 </chain>
 <chain id="chain44" out="00:00:05.042">
  <property name="length">122</property>
  <property name="eof">pause</property>
  <property name="resource">C:/dev/workspace/indy/dist/room/attic/content/upscale/wide/attic12.mp4</property>
  <property name="mlt_service">avformat-novalidate</property>
  <property name="seekable">1</property>
  <property name="audio_index">1</property>
  <property name="video_index">0</property>
  <property name="vstream">0</property>
  <property name="astream">0</property>
  <property name="kdenlive:control_uuid">{99033c3d-8dfc-4a46-8477-1c02f7bb170e}</property>
  <property name="kdenlive:id">58</property>
  <property name="kdenlive:clip_type">0</property>
  <property name="kdenlive:file_size">15151268</property>
  <property name="kdenlive:file_hash">53d0917b6f0926f1f31822cbef76a541</property>
  <property name="kdenlive:folderid">-1</property>
  <property name="meta.media.nb_streams">2</property>
  <property name="meta.media.0.stream.type">video</property>
  <property name="meta.media.0.stream.frame_rate">60</property>
  <property name="meta.media.0.stream.sample_aspect_ratio">0</property>
  <property name="meta.media.0.codec.width">5110</property>
  <property name="meta.media.0.codec.height">2160</property>
  <property name="meta.media.0.codec.rotate">0</property>
  <property name="meta.media.0.codec.pix_fmt">yuv444p</property>
  <property name="meta.media.0.codec.sample_aspect_ratio">0</property>
  <property name="meta.media.0.codec.colorspace">709</property>
  <property name="meta.media.0.codec.name">h264</property>
  <property name="meta.media.0.codec.long_name">H.264 / AVC / MPEG-4 AVC / MPEG-4 part 10</property>
  <property name="meta.media.0.codec.bit_rate">23749145</property>
  <property name="meta.attr.0.stream.handler_name.markup">VideoHandler</property>
  <property name="meta.attr.0.stream.vendor_id.markup">[0][0][0][0]</property>
  <property name="meta.attr.0.stream.encoder.markup">Lavc61.19.101 libx264</property>
  <property name="meta.media.1.stream.type">audio</property>
  <property name="meta.media.1.codec.sample_fmt">fltp</property>
  <property name="meta.media.1.codec.sample_rate">48000</property>
  <property name="meta.media.1.codec.channels">2</property>
  <property name="meta.media.1.codec.layout">stereo</property>
  <property name="meta.media.1.codec.name">aac</property>
  <property name="meta.media.1.codec.long_name">AAC (Advanced Audio Coding)</property>
  <property name="meta.media.1.codec.bit_rate">2276</property>
  <property name="meta.attr.1.stream.handler_name.markup">SoundHandler</property>
  <property name="meta.attr.1.stream.vendor_id.markup">[0][0][0][0]</property>
  <property name="meta.attr.minor_version.markup">512</property>
  <property name="meta.attr.major_brand.markup">isom</property>
  <property name="meta.attr.compatible_brands.markup">isomiso2avc1mp41</property>
  <property name="meta.attr.encoder.markup">Lavf61.9.100</property>
  <property name="meta.media.sample_aspect_num">1</property>
  <property name="meta.media.sample_aspect_den">1</property>
  <property name="meta.media.frame_rate_num">60</property>
  <property name="meta.media.frame_rate_den">1</property>
  <property name="meta.media.colorspace">709</property>
  <property name="meta.media.color_trc">2</property>
  <property name="meta.media.has_b_frames">2</property>
  <property name="meta.media.width">5110</property>
  <property name="meta.media.height">2160</property>
  <property name="meta.media.aspect_ratio">1</property>
  <property name="meta.media.color_range">mpeg</property>
  <property name="xml">was here</property>
  <property name="mute_on_pause">0</property>
  <property name="meta.media.top_field_first">0</property>
  <property name="meta.media.progressive">1</property>
  <property name="set.test_audio">1</property>
  <property name="set.test_image">0</property>
 </chain>
 <chain id="chain45" out="00:00:05.042">
  <property name="length">122</property>
  <property name="eof">pause</property>
  <property name="resource">C:/dev/workspace/indy/dist/room/attic2/content/upscale/wide/indy.mp4</property>
  <property name="mlt_service">avformat-novalidate</property>
  <property name="seekable">1</property>
  <property name="audio_index">-1</property>
  <property name="video_index">0</property>
  <property name="vstream">0</property>
  <property name="kdenlive:control_uuid">{0bf7c8a8-76e0-4d93-8782-da6eb447392c}</property>
  <property name="kdenlive:id">59</property>
  <property name="kdenlive:clip_type">2</property>
  <property name="kdenlive:file_size">19028042</property>
  <property name="kdenlive:file_hash">0675045958571130564f9339d061eeda</property>
  <property name="kdenlive:folderid">-1</property>
  <property name="meta.media.nb_streams">1</property>
  <property name="meta.media.0.stream.type">video</property>
  <property name="meta.media.0.stream.frame_rate">60</property>
  <property name="meta.media.0.stream.sample_aspect_ratio">0</property>
  <property name="meta.media.0.codec.width">5110</property>
  <property name="meta.media.0.codec.height">2160</property>
  <property name="meta.media.0.codec.rotate">0</property>
  <property name="meta.media.0.codec.pix_fmt">yuv444p</property>
  <property name="meta.media.0.codec.sample_aspect_ratio">0</property>
  <property name="meta.media.0.codec.colorspace">709</property>
  <property name="meta.media.0.codec.name">h264</property>
  <property name="meta.media.0.codec.long_name">H.264 / AVC / MPEG-4 AVC / MPEG-4 part 10</property>
  <property name="meta.media.0.codec.bit_rate">29937958</property>
  <property name="meta.attr.0.stream.handler_name.markup">VideoHandler</property>
  <property name="meta.attr.0.stream.vendor_id.markup">[0][0][0][0]</property>
  <property name="meta.attr.0.stream.encoder.markup">Lavc61.19.101 libx264</property>
  <property name="meta.attr.minor_version.markup">512</property>
  <property name="meta.attr.major_brand.markup">isom</property>
  <property name="meta.attr.compatible_brands.markup">isomiso2avc1mp41</property>
  <property name="meta.attr.encoder.markup">Lavf61.9.100</property>
  <property name="meta.media.sample_aspect_num">1</property>
  <property name="meta.media.sample_aspect_den">1</property>
  <property name="meta.media.frame_rate_num">60</property>
  <property name="meta.media.frame_rate_den">1</property>
  <property name="meta.media.colorspace">709</property>
  <property name="meta.media.color_trc">2</property>
  <property name="meta.media.has_b_frames">2</property>
  <property name="meta.media.width">5110</property>
  <property name="meta.media.height">2160</property>
  <property name="meta.media.aspect_ratio">1</property>
  <property name="meta.media.color_range">mpeg</property>
  <property name="xml">was here</property>
  <property name="mute_on_pause">0</property>
  <property name="meta.media.top_field_first">0</property>
  <property name="meta.media.progressive">1</property>
  <property name="set.test_audio">1</property>
  <property name="set.test_image">0</property>
 </chain>
 <producer id="producer11" in="00:00:00.000" out="00:00:04.625">
  <property name="length">112</property>
  <property name="eof">pause</property>
  <property name="resource">-1.000000:C:/dev/workspace/indy/dist/room/attic2/content/upscale/wide/indy2.mp4</property>
  <property name="aspect_ratio">1</property>
  <property name="meta.media.nb_streams">2</property>
  <property name="meta.media.0.stream.type">video</property>
  <property name="meta.media.0.stream.frame_rate">60</property>
  <property name="meta.media.0.stream.sample_aspect_ratio">0</property>
  <property name="meta.media.0.codec.width">5110</property>
  <property name="meta.media.0.codec.height">2160</property>
  <property name="meta.media.0.codec.rotate">0</property>
  <property name="meta.media.0.codec.pix_fmt">yuv444p</property>
  <property name="meta.media.0.codec.sample_aspect_ratio">0</property>
  <property name="meta.media.0.codec.colorspace">709</property>
  <property name="meta.media.0.codec.name">h264</property>
  <property name="meta.media.0.codec.long_name">H.264 / AVC / MPEG-4 AVC / MPEG-4 part 10</property>
  <property name="meta.media.0.codec.bit_rate">37204350</property>
  <property name="meta.attr.0.stream.handler_name.markup">VideoHandler</property>
  <property name="meta.attr.0.stream.vendor_id.markup">[0][0][0][0]</property>
  <property name="meta.attr.0.stream.encoder.markup">Lavc61.19.101 libx264</property>
  <property name="meta.media.1.stream.type">audio</property>
  <property name="meta.media.1.codec.sample_fmt">fltp</property>
  <property name="meta.media.1.codec.sample_rate">48000</property>
  <property name="meta.media.1.codec.channels">2</property>
  <property name="meta.media.1.codec.layout">stereo</property>
  <property name="meta.media.1.codec.name">aac</property>
  <property name="meta.media.1.codec.long_name">AAC (Advanced Audio Coding)</property>
  <property name="meta.media.1.codec.bit_rate">2279</property>
  <property name="meta.attr.1.stream.handler_name.markup">SoundHandler</property>
  <property name="meta.attr.1.stream.vendor_id.markup">[0][0][0][0]</property>
  <property name="meta.attr.minor_version.markup">512</property>
  <property name="meta.attr.major_brand.markup">isom</property>
  <property name="meta.attr.compatible_brands.markup">isomiso2avc1mp41</property>
  <property name="meta.attr.encoder.markup">Lavf61.9.100</property>
  <property name="seekable">1</property>
  <property name="meta.media.sample_aspect_num">1</property>
  <property name="meta.media.sample_aspect_den">1</property>
  <property name="audio_index">-1</property>
  <property name="video_index">0</property>
  <property name="warp_speed">-1</property>
  <property name="warp_resource">C:/dev/workspace/indy/dist/room/attic2/content/upscale/wide/indy2.mp4</property>
  <property name="mlt_service">timewarp</property>
  <property name="kdenlive:control_uuid">{64c3a609-5d20-4645-93c5-c0de008f3e25}</property>
  <property name="vstream">0</property>
  <property name="astream">-1</property>
  <property name="set.test_audio">1</property>
  <property name="set.test_image">0</property>
  <property name="kdenlive:id">60</property>
  <property name="warp_pitch">0</property>
  <property name="meta.media.frame_rate_num">60</property>
  <property name="meta.media.frame_rate_den">1</property>
  <property name="meta.media.colorspace">709</property>
  <property name="meta.media.color_trc">2</property>
  <property name="meta.media.has_b_frames">2</property>
  <property name="meta.media.width">5110</property>
  <property name="meta.media.height">2160</property>
  <property name="meta.media.aspect_ratio">1</property>
  <property name="meta.media.color_range">mpeg</property>
  <property name="meta.media.top_field_first">0</property>
  <property name="meta.media.progressive">1</property>
 </producer>
 <producer id="producer12" in="00:00:00.000" out="00:00:03.958">
  <property name="length">96</property>
  <property name="eof">pause</property>
  <property name="resource">1.162500:C:/dev/workspace/indy/dist/room/attic2/content/upscale/wide/indy4.mp4</property>
  <property name="aspect_ratio">1</property>
  <property name="meta.media.nb_streams">2</property>
  <property name="meta.media.0.stream.type">video</property>
  <property name="meta.media.0.stream.frame_rate">60</property>
  <property name="meta.media.0.stream.sample_aspect_ratio">0</property>
  <property name="meta.media.0.codec.width">5110</property>
  <property name="meta.media.0.codec.height">2160</property>
  <property name="meta.media.0.codec.rotate">0</property>
  <property name="meta.media.0.codec.pix_fmt">yuv444p</property>
  <property name="meta.media.0.codec.sample_aspect_ratio">0</property>
  <property name="meta.media.0.codec.colorspace">709</property>
  <property name="meta.media.0.codec.name">h264</property>
  <property name="meta.media.0.codec.long_name">H.264 / AVC / MPEG-4 AVC / MPEG-4 part 10</property>
  <property name="meta.media.0.codec.bit_rate">37200646</property>
  <property name="meta.attr.0.stream.handler_name.markup">VideoHandler</property>
  <property name="meta.attr.0.stream.vendor_id.markup">[0][0][0][0]</property>
  <property name="meta.attr.0.stream.encoder.markup">Lavc61.19.101 libx264</property>
  <property name="meta.media.1.stream.type">audio</property>
  <property name="meta.media.1.codec.sample_fmt">fltp</property>
  <property name="meta.media.1.codec.sample_rate">48000</property>
  <property name="meta.media.1.codec.channels">2</property>
  <property name="meta.media.1.codec.layout">stereo</property>
  <property name="meta.media.1.codec.name">aac</property>
  <property name="meta.media.1.codec.long_name">AAC (Advanced Audio Coding)</property>
  <property name="meta.media.1.codec.bit_rate">2279</property>
  <property name="meta.attr.1.stream.handler_name.markup">SoundHandler</property>
  <property name="meta.attr.1.stream.vendor_id.markup">[0][0][0][0]</property>
  <property name="meta.attr.minor_version.markup">512</property>
  <property name="meta.attr.major_brand.markup">isom</property>
  <property name="meta.attr.compatible_brands.markup">isomiso2avc1mp41</property>
  <property name="meta.attr.encoder.markup">Lavf61.9.100</property>
  <property name="seekable">1</property>
  <property name="meta.media.sample_aspect_num">1</property>
  <property name="meta.media.sample_aspect_den">1</property>
  <property name="audio_index">-1</property>
  <property name="video_index">0</property>
  <property name="warp_speed">1.1625</property>
  <property name="warp_resource">C:/dev/workspace/indy/dist/room/attic2/content/upscale/wide/indy4.mp4</property>
  <property name="mlt_service">timewarp</property>
  <property name="kdenlive:control_uuid">{0ec0567e-2b79-4a68-8520-02c5e24bd8c7}</property>
  <property name="vstream">0</property>
  <property name="astream">-1</property>
  <property name="set.test_audio">1</property>
  <property name="set.test_image">0</property>
  <property name="kdenlive:id">62</property>
  <property name="warp_pitch">0</property>
  <property name="meta.media.frame_rate_num">60</property>
  <property name="meta.media.frame_rate_den">1</property>
  <property name="meta.media.colorspace">709</property>
  <property name="meta.media.color_trc">2</property>
  <property name="meta.media.has_b_frames">2</property>
  <property name="meta.media.width">5110</property>
  <property name="meta.media.height">2160</property>
  <property name="meta.media.aspect_ratio">1</property>
  <property name="meta.media.color_range">mpeg</property>
  <property name="meta.media.top_field_first">0</property>
  <property name="meta.media.progressive">1</property>
 </producer>
 <producer id="producer9" in="00:00:00.000" out="00:00:05.042">
  <property name="length">122</property>
  <property name="eof">pause</property>
  <property name="resource">-1.000000:C:/dev/workspace/indy/dist/room/attic2/content/upscale/wide/indy6.mp4</property>
  <property name="aspect_ratio">1</property>
  <property name="meta.media.nb_streams">2</property>
  <property name="meta.media.0.stream.type">video</property>
  <property name="meta.media.0.stream.frame_rate">60</property>
  <property name="meta.media.0.stream.sample_aspect_ratio">0</property>
  <property name="meta.media.0.codec.width">5110</property>
  <property name="meta.media.0.codec.height">2160</property>
  <property name="meta.media.0.codec.rotate">0</property>
  <property name="meta.media.0.codec.pix_fmt">yuv444p</property>
  <property name="meta.media.0.codec.sample_aspect_ratio">0</property>
  <property name="meta.media.0.codec.colorspace">709</property>
  <property name="meta.media.0.codec.name">h264</property>
  <property name="meta.media.0.codec.long_name">H.264 / AVC / MPEG-4 AVC / MPEG-4 part 10</property>
  <property name="meta.media.0.codec.bit_rate">26503725</property>
  <property name="meta.attr.0.stream.handler_name.markup">VideoHandler</property>
  <property name="meta.attr.0.stream.vendor_id.markup">[0][0][0][0]</property>
  <property name="meta.attr.0.stream.encoder.markup">Lavc61.19.101 libx264</property>
  <property name="meta.media.1.stream.type">audio</property>
  <property name="meta.media.1.codec.sample_fmt">fltp</property>
  <property name="meta.media.1.codec.sample_rate">48000</property>
  <property name="meta.media.1.codec.channels">2</property>
  <property name="meta.media.1.codec.layout">stereo</property>
  <property name="meta.media.1.codec.name">aac</property>
  <property name="meta.media.1.codec.long_name">AAC (Advanced Audio Coding)</property>
  <property name="meta.media.1.codec.bit_rate">2276</property>
  <property name="meta.attr.1.stream.handler_name.markup">SoundHandler</property>
  <property name="meta.attr.1.stream.vendor_id.markup">[0][0][0][0]</property>
  <property name="meta.attr.minor_version.markup">512</property>
  <property name="meta.attr.major_brand.markup">isom</property>
  <property name="meta.attr.compatible_brands.markup">isomiso2avc1mp41</property>
  <property name="meta.attr.encoder.markup">Lavf61.9.100</property>
  <property name="seekable">1</property>
  <property name="meta.media.sample_aspect_num">1</property>
  <property name="meta.media.sample_aspect_den">1</property>
  <property name="audio_index">1</property>
  <property name="video_index">0</property>
  <property name="warp_speed">-1</property>
  <property name="warp_resource">C:/dev/workspace/indy/dist/room/attic2/content/upscale/wide/indy6.mp4</property>
  <property name="mlt_service">timewarp</property>
  <property name="kdenlive:control_uuid">{7ebad5ea-c89a-4078-8d49-c906b1ff91a7}</property>
  <property name="vstream">0</property>
  <property name="astream">0</property>
  <property name="set.test_audio">1</property>
  <property name="set.test_image">0</property>
  <property name="kdenlive:id">70</property>
  <property name="warp_pitch">0</property>
  <property name="meta.media.frame_rate_num">60</property>
  <property name="meta.media.frame_rate_den">1</property>
  <property name="meta.media.colorspace">709</property>
  <property name="meta.media.color_trc">2</property>
  <property name="meta.media.has_b_frames">2</property>
  <property name="meta.media.width">5110</property>
  <property name="meta.media.height">2160</property>
  <property name="meta.media.aspect_ratio">1</property>
  <property name="meta.media.color_range">mpeg</property>
  <property name="meta.media.top_field_first">0</property>
  <property name="meta.media.progressive">1</property>
 </producer>
 <playlist id="playlist12">
  <entry in="00:00:00.000" out="00:00:02.958" producer="chain31">
   <property name="kdenlive:id">45</property>
   <filter id="filter68">
    <property name="rotate_center">1</property>
    <property name="mlt_service">qtblend</property>
    <property name="kdenlive_id">qtblend</property>
    <property name="compositing">0</property>
    <property name="distort">0</property>
    <property name="rect">00:00:00.000=-148 0 5110 2160 1.000000</property>
    <property name="rotation">00:00:00.000=0</property>
    <property name="kdenlive:collapsed">0</property>
   </filter>
   <filter id="filter69">
    <property name="version">0.1</property>
    <property name="mlt_service">frei0r.scale0tilt</property>
    <property name="kdenlive_id">frei0r.scale0tilt</property>
    <property name="Clip left">00:00:00.000=0.838178</property>
    <property name="Clip right">00:00:00.000=0</property>
    <property name="Clip top">00:00:00.000=0</property>
    <property name="Clip bottom">00:00:00.000=0</property>
    <property name="Scale X">00:00:00.000=0.52</property>
    <property name="Scale Y">00:00:00.000=0.5</property>
    <property name="Tilt X">00:00:00.000=0.5</property>
    <property name="Tilt Y">00:00:00.000=0.5</property>
    <property name="kdenlive:collapsed">0</property>
   </filter>
   <filter id="filter70">
    <property name="version">0.2</property>
    <property name="mlt_service">frei0r.coloradj_RGB</property>
    <property name="kdenlive_id">frei0r.coloradj_RGB</property>
    <property name="R">00:00:00.000=0.4</property>
    <property name="G">00:00:00.000=0.7</property>
    <property name="B">00:00:00.000=0.8</property>
    <property name="Action">0.5</property>
    <property name="Keep luma">1</property>
    <property name="Alpha controlled">0</property>
    <property name="Luma formula">1</property>
    <property name="kdenlive:collapsed">0</property>
   </filter>
  </entry>
  <entry in="00:00:00.083" out="00:00:05.042" producer="producer1">
   <property name="kdenlive:id">44</property>
   <filter id="filter71">
    <property name="rotate_center">1</property>
    <property name="mlt_service">qtblend</property>
    <property name="kdenlive_id">qtblend</property>
    <property name="compositing">0</property>
    <property name="distort">1</property>
    <property name="rect">00:00:00.083=-148 -84 5110 2328 1.000000</property>
    <property name="rotation">00:00:00.083=0</property>
    <property name="kdenlive:collapsed">1</property>
   </filter>
   <filter id="filter72">
    <property name="version">0.1</property>
    <property name="mlt_service">frei0r.scale0tilt</property>
    <property name="kdenlive_id">frei0r.scale0tilt</property>
    <property name="Clip left">00:00:00.083=0.838178</property>
    <property name="Clip right">00:00:00.083=0</property>
    <property name="Clip top">00:00:00.083=0</property>
    <property name="Clip bottom">00:00:00.083=0</property>
    <property name="Scale X">00:00:00.083=0.52</property>
    <property name="Scale Y">00:00:00.083=0.5</property>
    <property name="Tilt X">00:00:00.083=0.5</property>
    <property name="Tilt Y">00:00:00.083=0.5</property>
    <property name="kdenlive:collapsed">1</property>
   </filter>
   <filter id="filter73">
    <property name="rotate_center">1</property>
    <property name="mlt_service">qtblend</property>
    <property name="kdenlive_id">qtblend</property>
    <property name="compositing">0</property>
    <property name="distort">0</property>
    <property name="rect">00:00:00.083=0 0 5160 2160 1.000000;00:00:04.083=0 0 5160 2160 1.000000;00:00:05.042=112 0 5160 2160 1.000000</property>
    <property name="rotation">00:00:00.083=0;00:00:04.083=0;00:00:05.042=0</property>
    <property name="kdenlive:collapsed">0</property>
   </filter>
  </entry>
  <entry in="00:00:00.000" out="00:00:04.958" producer="chain33">
   <property name="kdenlive:id">41</property>
   <filter id="filter74">
    <property name="rotate_center">1</property>
    <property name="mlt_service">qtblend</property>
    <property name="kdenlive_id">qtblend</property>
    <property name="compositing">0</property>
    <property name="distort">0</property>
    <property name="rect">00:00:00.000=-148 0 5110 2160 1.000000</property>
    <property name="rotation">00:00:00.000=0</property>
    <property name="kdenlive:collapsed">0</property>
   </filter>
   <filter id="filter75">
    <property name="version">0.1</property>
    <property name="mlt_service">frei0r.scale0tilt</property>
    <property name="kdenlive_id">frei0r.scale0tilt</property>
    <property name="Clip left">00:00:00.000=0.838178</property>
    <property name="Clip right">00:00:00.000=0</property>
    <property name="Clip top">00:00:00.000=0</property>
    <property name="Clip bottom">00:00:00.000=0</property>
    <property name="Scale X">00:00:00.000=0.52</property>
    <property name="Scale Y">00:00:00.000=0.5</property>
    <property name="Tilt X">00:00:00.000=0.5</property>
    <property name="Tilt Y">00:00:00.000=0.5</property>
    <property name="kdenlive:collapsed">0</property>
   </filter>
   <filter id="filter76">
    <property name="rotate_center">1</property>
    <property name="mlt_service">qtblend</property>
    <property name="kdenlive_id">qtblend</property>
    <property name="compositing">0</property>
    <property name="distort">0</property>
    <property name="rect">00:00:00.000=-172 0 5572 2332 1.000000;00:00:04.000=0 0 5160 2160 1.000000</property>
    <property name="rotation">00:00:00.000=0;00:00:04.000=0</property>
    <property name="kdenlive:collapsed">0</property>
   </filter>
  </entry>
  <entry in="00:00:00.000" out="00:00:04.958" producer="chain34">
   <property name="kdenlive:id">42</property>
   <filter id="filter77">
    <property name="rotate_center">1</property>
    <property name="mlt_service">qtblend</property>
    <property name="kdenlive_id">qtblend</property>
    <property name="compositing">0</property>
    <property name="distort">0</property>
    <property name="rect">00:00:00.000=-148 0 5110 2160 1.000000</property>
    <property name="rotation">00:00:00.000=0</property>
    <property name="kdenlive:collapsed">0</property>
   </filter>
   <filter id="filter78">
    <property name="version">0.1</property>
    <property name="mlt_service">frei0r.scale0tilt</property>
    <property name="kdenlive_id">frei0r.scale0tilt</property>
    <property name="Clip left">00:00:00.000=0.838178</property>
    <property name="Clip right">00:00:00.000=0</property>
    <property name="Clip top">00:00:00.000=0</property>
    <property name="Clip bottom">00:00:00.000=0</property>
    <property name="Scale X">00:00:00.000=0.52</property>
    <property name="Scale Y">00:00:00.000=0.5</property>
    <property name="Tilt X">00:00:00.000=0.5</property>
    <property name="Tilt Y">00:00:00.000=0.5</property>
    <property name="kdenlive:collapsed">0</property>
   </filter>
  </entry>
  <entry in="00:00:00.042" out="00:00:05.000" producer="producer2">
   <property name="kdenlive:id">74</property>
   <filter id="filter35">
    <property name="rotate_center">1</property>
    <property name="mlt_service">qtblend</property>
    <property name="kdenlive_id">qtblend</property>
    <property name="compositing">0</property>
    <property name="distort">0</property>
    <property name="rect">00:00:00.042=-148 0 5110 2160 1.000000</property>
    <property name="rotation">00:00:00.042=0</property>
    <property name="kdenlive:collapsed">1</property>
   </filter>
   <filter id="filter38">
    <property name="version">0.1</property>
    <property name="mlt_service">frei0r.scale0tilt</property>
    <property name="kdenlive_id">frei0r.scale0tilt</property>
    <property name="Clip left">00:00:00.042=0.838178</property>
    <property name="Clip right">00:00:00.042=0</property>
    <property name="Clip top">00:00:00.042=0</property>
    <property name="Clip bottom">00:00:00.042=0</property>
    <property name="Scale X">00:00:00.042=0.52</property>
    <property name="Scale Y">00:00:00.042=0.5</property>
    <property name="Tilt X">00:00:00.042=0.5</property>
    <property name="Tilt Y">00:00:00.042=0.5</property>
    <property name="kdenlive:collapsed">1</property>
   </filter>
   <filter id="filter44">
    <property name="version">0.2</property>
    <property name="mlt_service">frei0r.coloradj_RGB</property>
    <property name="kdenlive_id">frei0r.coloradj_RGB</property>
    <property name="R">00:00:00.042=0.5</property>
    <property name="G">00:00:00.042=0.6</property>
    <property name="B">00:00:00.042=0.5</property>
    <property name="Action">0.5</property>
    <property name="Keep luma">1</property>
    <property name="Alpha controlled">0</property>
    <property name="Luma formula">1</property>
   </filter>
  </entry>
  <entry in="00:00:00.000" out="00:00:01.958" producer="producer3">
   <property name="kdenlive:id">76</property>
   <filter id="filter45">
    <property name="rotate_center">1</property>
    <property name="mlt_service">qtblend</property>
    <property name="kdenlive_id">qtblend</property>
    <property name="compositing">0</property>
    <property name="distort">0</property>
    <property name="rect">00:00:00.000=-148 0 5110 2160 1.000000</property>
    <property name="rotation">00:00:00.000=0</property>
    <property name="kdenlive:collapsed">1</property>
   </filter>
   <filter id="filter46">
    <property name="version">0.1</property>
    <property name="mlt_service">frei0r.scale0tilt</property>
    <property name="kdenlive_id">frei0r.scale0tilt</property>
    <property name="Clip left">00:00:00.000=0.837984</property>
    <property name="Clip right">00:00:00.000=0</property>
    <property name="Clip top">00:00:00.000=0</property>
    <property name="Clip bottom">00:00:00.000=0</property>
    <property name="Scale X">00:00:00.000=0.52</property>
    <property name="Scale Y">00:00:00.000=0.5</property>
    <property name="Tilt X">00:00:00.000=0.5</property>
    <property name="Tilt Y">00:00:00.000=0.5</property>
    <property name="kdenlive:collapsed">1</property>
   </filter>
   <filter id="filter49">
    <property name="version">0.2</property>
    <property name="mlt_service">frei0r.coloradj_RGB</property>
    <property name="kdenlive_id">frei0r.coloradj_RGB</property>
    <property name="R">00:00:00.000=0.5</property>
    <property name="G">00:00:00.000=0.55</property>
    <property name="B">00:00:00.000=0.5</property>
    <property name="Action">0.5</property>
    <property name="Keep luma">1</property>
    <property name="Alpha controlled">0</property>
    <property name="Luma formula">1</property>
   </filter>
  </entry>
  <entry in="00:00:00.000" out="00:00:01.958" producer="producer6">
   <property name="kdenlive:id">37</property>
   <filter id="filter87">
    <property name="rotate_center">1</property>
    <property name="mlt_service">qtblend</property>
    <property name="kdenlive_id">qtblend</property>
    <property name="compositing">0</property>
    <property name="distort">0</property>
    <property name="rect">00:00:00.000=-148 0 5110 2160 1.000000</property>
    <property name="rotation">00:00:00.000=0</property>
    <property name="kdenlive:collapsed">1</property>
   </filter>
   <filter id="filter88">
    <property name="version">0.1</property>
    <property name="mlt_service">frei0r.scale0tilt</property>
    <property name="kdenlive_id">frei0r.scale0tilt</property>
    <property name="Clip left">00:00:00.000=0.838178</property>
    <property name="Clip right">00:00:00.000=0</property>
    <property name="Clip top">00:00:00.000=0</property>
    <property name="Clip bottom">00:00:00.000=0</property>
    <property name="Scale X">00:00:00.000=0.52</property>
    <property name="Scale Y">00:00:00.000=0.5</property>
    <property name="Tilt X">00:00:00.000=0.5</property>
    <property name="Tilt Y">00:00:00.000=0.5</property>
    <property name="kdenlive:collapsed">1</property>
   </filter>
   <filter id="filter89">
    <property name="version">0.2</property>
    <property name="mlt_service">frei0r.coloradj_RGB</property>
    <property name="kdenlive_id">frei0r.coloradj_RGB</property>
    <property name="R">00:00:00.000=0.5</property>
    <property name="G">00:00:00.000=0.55</property>
    <property name="B">00:00:00.000=0.5</property>
    <property name="Action">0.5</property>
    <property name="Keep luma">1</property>
    <property name="Alpha controlled">0</property>
    <property name="Luma formula">1</property>
    <property name="kdenlive:collapsed">0</property>
   </filter>
  </entry>
  <entry in="00:00:00.000" out="00:00:01.958" producer="chain36">
   <property name="kdenlive:id">35</property>
   <filter id="filter90">
    <property name="rotate_center">1</property>
    <property name="mlt_service">qtblend</property>
    <property name="kdenlive_id">qtblend</property>
    <property name="compositing">0</property>
    <property name="distort">0</property>
    <property name="rect">00:00:00.000=-148 0 5110 2160 1.000000</property>
    <property name="rotation">00:00:00.000=0</property>
    <property name="kdenlive:collapsed">0</property>
   </filter>
   <filter id="filter91">
    <property name="version">0.1</property>
    <property name="mlt_service">frei0r.scale0tilt</property>
    <property name="kdenlive_id">frei0r.scale0tilt</property>
    <property name="Clip left">00:00:00.000=0.838178</property>
    <property name="Clip right">00:00:00.000=0</property>
    <property name="Clip top">00:00:00.000=0</property>
    <property name="Clip bottom">00:00:00.000=0</property>
    <property name="Scale X">00:00:00.000=0.52</property>
    <property name="Scale Y">00:00:00.000=0.5</property>
    <property name="Tilt X">00:00:00.000=0.5</property>
    <property name="Tilt Y">00:00:00.000=0.5</property>
    <property name="kdenlive:collapsed">0</property>
   </filter>
   <filter id="filter92">
    <property name="version">0.2</property>
    <property name="mlt_service">frei0r.coloradj_RGB</property>
    <property name="kdenlive_id">frei0r.coloradj_RGB</property>
    <property name="R">00:00:00.000=0.5</property>
    <property name="G">00:00:00.000=0.55</property>
    <property name="B">00:00:00.000=0.5</property>
    <property name="Action">0.5</property>
    <property name="Keep luma">1</property>
    <property name="Alpha controlled">0</property>
    <property name="Luma formula">1</property>
    <property name="kdenlive:collapsed">0</property>
   </filter>
  </entry>
  <entry in="00:00:00.000" out="00:00:05.042" producer="producer7">
   <property name="kdenlive:id">38</property>
   <filter id="filter93">
    <property name="rotate_center">1</property>
    <property name="mlt_service">qtblend</property>
    <property name="kdenlive_id">qtblend</property>
    <property name="compositing">0</property>
    <property name="distort">0</property>
    <property name="rect">00:00:00.000=-148 0 5110 2160 1.000000</property>
    <property name="rotation">00:00:00.000=0</property>
    <property name="kdenlive:collapsed">1</property>
   </filter>
   <filter id="filter94">
    <property name="version">0.1</property>
    <property name="mlt_service">frei0r.scale0tilt</property>
    <property name="kdenlive_id">frei0r.scale0tilt</property>
    <property name="Clip left">00:00:00.000=0.838178</property>
    <property name="Clip right">00:00:00.000=0</property>
    <property name="Clip top">00:00:00.000=0</property>
    <property name="Clip bottom">00:00:00.000=0</property>
    <property name="Scale X">00:00:00.000=0.52</property>
    <property name="Scale Y">00:00:00.000=0.5</property>
    <property name="Tilt X">00:00:00.000=0.5</property>
    <property name="Tilt Y">00:00:00.000=0.5</property>
    <property name="kdenlive:collapsed">1</property>
   </filter>
   <filter id="filter95">
    <property name="version">0.2</property>
    <property name="mlt_service">frei0r.contrast0r</property>
    <property name="kdenlive_id">frei0r.contrast0r</property>
    <property name="Contrast">00:00:00.000=0.49</property>
    <property name="kdenlive:collapsed">0</property>
   </filter>
  </entry>
  <entry in="00:00:00.000" out="00:00:05.042" producer="chain37">
   <property name="kdenlive:id">39</property>
   <filter id="filter96">
    <property name="rotate_center">1</property>
    <property name="mlt_service">qtblend</property>
    <property name="kdenlive_id">qtblend</property>
    <property name="compositing">0</property>
    <property name="distort">0</property>
    <property name="rect">00:00:00.000=-148 0 5110 2160 1.000000</property>
    <property name="rotation">00:00:00.000=0</property>
    <property name="kdenlive:collapsed">0</property>
   </filter>
   <filter id="filter97">
    <property name="version">0.1</property>
    <property name="mlt_service">frei0r.scale0tilt</property>
    <property name="kdenlive_id">frei0r.scale0tilt</property>
    <property name="Clip left">00:00:00.000=0.838178</property>
    <property name="Clip right">00:00:00.000=0</property>
    <property name="Clip top">00:00:00.000=0</property>
    <property name="Clip bottom">00:00:00.000=0</property>
    <property name="Scale X">00:00:00.000=0.52</property>
    <property name="Scale Y">00:00:00.000=0.5</property>
    <property name="Tilt X">00:00:00.000=0.5</property>
    <property name="Tilt Y">00:00:00.000=0.5</property>
    <property name="kdenlive:collapsed">0</property>
   </filter>
   <filter id="filter98">
    <property name="version">0.2</property>
    <property name="mlt_service">frei0r.contrast0r</property>
    <property name="kdenlive_id">frei0r.contrast0r</property>
    <property name="Contrast">00:00:00.000=0.49</property>
    <property name="kdenlive:collapsed">0</property>
   </filter>
  </entry>
  <entry in="00:00:00.000" out="00:00:05.042" producer="producer8">
   <property name="kdenlive:id">39</property>
   <filter id="filter99">
    <property name="rotate_center">1</property>
    <property name="mlt_service">qtblend</property>
    <property name="kdenlive_id">qtblend</property>
    <property name="compositing">0</property>
    <property name="distort">0</property>
    <property name="rect">00:00:00.000=-148 0 5110 2160 1.000000</property>
    <property name="rotation">00:00:00.000=0</property>
    <property name="kdenlive:collapsed">0</property>
   </filter>
   <filter id="filter100">
    <property name="version">0.1</property>
    <property name="mlt_service">frei0r.scale0tilt</property>
    <property name="kdenlive_id">frei0r.scale0tilt</property>
    <property name="Clip left">00:00:00.000=0.838178</property>
    <property name="Clip right">00:00:00.000=0</property>
    <property name="Clip top">00:00:00.000=0</property>
    <property name="Clip bottom">00:00:00.000=0</property>
    <property name="Scale X">00:00:00.000=0.52</property>
    <property name="Scale Y">00:00:00.000=0.5</property>
    <property name="Tilt X">00:00:00.000=0.5</property>
    <property name="Tilt Y">00:00:00.000=0.5</property>
    <property name="kdenlive:collapsed">0</property>
   </filter>
   <filter id="filter101">
    <property name="version">0.2</property>
    <property name="mlt_service">frei0r.contrast0r</property>
    <property name="kdenlive_id">frei0r.contrast0r</property>
    <property name="Contrast">00:00:00.000=0.49</property>
    <property name="kdenlive:collapsed">0</property>
   </filter>
  </entry>
  <entry in="00:00:00.000" out="00:00:05.042" producer="chain38">
   <property name="kdenlive:id">38</property>
   <filter id="filter102">
    <property name="rotate_center">1</property>
    <property name="mlt_service">qtblend</property>
    <property name="kdenlive_id">qtblend</property>
    <property name="compositing">0</property>
    <property name="distort">0</property>
    <property name="rect">00:00:00.000=-148 0 5110 2160 1.000000</property>
    <property name="rotation">00:00:00.000=0</property>
    <property name="kdenlive:collapsed">1</property>
   </filter>
   <filter id="filter103">
    <property name="version">0.1</property>
    <property name="mlt_service">frei0r.scale0tilt</property>
    <property name="kdenlive_id">frei0r.scale0tilt</property>
    <property name="Clip left">00:00:00.000=0.838178</property>
    <property name="Clip right">00:00:00.000=0</property>
    <property name="Clip top">00:00:00.000=0</property>
    <property name="Clip bottom">00:00:00.000=0</property>
    <property name="Scale X">00:00:00.000=0.52</property>
    <property name="Scale Y">00:00:00.000=0.5</property>
    <property name="Tilt X">00:00:00.000=0.5</property>
    <property name="Tilt Y">00:00:00.000=0.5</property>
    <property name="kdenlive:collapsed">1</property>
   </filter>
   <filter id="filter104">
    <property name="version">0.2</property>
    <property name="mlt_service">frei0r.contrast0r</property>
    <property name="kdenlive_id">frei0r.contrast0r</property>
    <property name="Contrast">00:00:00.000=0.49</property>
    <property name="kdenlive:collapsed">0</property>
   </filter>
  </entry>
  <entry in="00:00:00.000" out="00:00:00.625" producer="producer5">
   <property name="kdenlive:id">38</property>
   <filter id="filter50">
    <property name="rotate_center">1</property>
    <property name="mlt_service">qtblend</property>
    <property name="kdenlive_id">qtblend</property>
    <property name="compositing">0</property>
    <property name="distort">0</property>
    <property name="rect">00:00:00.000=-148 0 5110 2160 1.000000</property>
    <property name="rotation">00:00:00.000=0</property>
    <property name="kdenlive:collapsed">1</property>
   </filter>
   <filter id="filter51">
    <property name="version">0.1</property>
    <property name="mlt_service">frei0r.scale0tilt</property>
    <property name="kdenlive_id">frei0r.scale0tilt</property>
    <property name="Clip left">00:00:00.000=0.838178</property>
    <property name="Clip right">00:00:00.000=0</property>
    <property name="Clip top">00:00:00.000=0</property>
    <property name="Clip bottom">00:00:00.000=0</property>
    <property name="Scale X">00:00:00.000=0.52</property>
    <property name="Scale Y">00:00:00.000=0.5</property>
    <property name="Tilt X">00:00:00.000=0.5</property>
    <property name="Tilt Y">00:00:00.000=0.5</property>
    <property name="kdenlive:collapsed">1</property>
   </filter>
   <filter id="filter57">
    <property name="version">0.2</property>
    <property name="mlt_service">frei0r.contrast0r</property>
    <property name="kdenlive_id">frei0r.contrast0r</property>
    <property name="Contrast">00:00:00.000=0.49</property>
    <property name="kdenlive:collapsed">0</property>
   </filter>
  </entry>
  <entry in="00:00:02.542" out="00:00:04.500" producer="chain39">
   <property name="kdenlive:id">36</property>
   <filter id="filter108">
    <property name="rotate_center">1</property>
    <property name="mlt_service">qtblend</property>
    <property name="kdenlive_id">qtblend</property>
    <property name="compositing">0</property>
    <property name="distort">0</property>
    <property name="rect">00:00:02.542=-148 0 5110 2160 1.000000</property>
    <property name="rotation">00:00:02.542=0</property>
    <property name="kdenlive:collapsed">0</property>
   </filter>
   <filter id="filter109">
    <property name="version">0.1</property>
    <property name="mlt_service">frei0r.scale0tilt</property>
    <property name="kdenlive_id">frei0r.scale0tilt</property>
    <property name="Clip left">00:00:02.542=0.838178</property>
    <property name="Clip right">00:00:02.542=0</property>
    <property name="Clip top">00:00:02.542=0</property>
    <property name="Clip bottom">00:00:02.542=0</property>
    <property name="Scale X">00:00:02.542=0.52</property>
    <property name="Scale Y">00:00:02.542=0.5</property>
    <property name="Tilt X">00:00:02.542=0.5</property>
    <property name="Tilt Y">00:00:02.542=0.5</property>
    <property name="kdenlive:collapsed">0</property>
   </filter>
   <filter id="filter110">
    <property name="version">0.2</property>
    <property name="mlt_service">frei0r.contrast0r</property>
    <property name="kdenlive_id">frei0r.contrast0r</property>
    <property name="Contrast">00:00:02.542=0.49</property>
    <property name="kdenlive:collapsed">0</property>
   </filter>
  </entry>
  <entry in="00:00:00.000" out="00:00:06.958" producer="chain40">
   <property name="kdenlive:id">43</property>
   <filter id="filter111">
    <property name="rotate_center">1</property>
    <property name="mlt_service">qtblend</property>
    <property name="kdenlive_id">qtblend</property>
    <property name="compositing">0</property>
    <property name="distort">0</property>
    <property name="rect">0=-148 0 5110 2160 1.000000</property>
    <property name="rotation">0=0</property>
    <property name="kdenlive:collapsed">0</property>
   </filter>
   <filter id="filter112">
    <property name="version">0.1</property>
    <property name="mlt_service">frei0r.scale0tilt</property>
    <property name="kdenlive_id">frei0r.scale0tilt</property>
    <property name="Clip left">0=0.838178</property>
    <property name="Clip right">0=0</property>
    <property name="Clip top">0=0</property>
    <property name="Clip bottom">0=0</property>
    <property name="Scale X">0=0.52</property>
    <property name="Scale Y">0=0.5</property>
    <property name="Tilt X">0=0.5</property>
    <property name="Tilt Y">0=0.5</property>
    <property name="kdenlive:collapsed">0</property>
   </filter>
  </entry>
  <entry in="00:00:02.542" out="00:00:05.500" producer="producer10">
   <property name="kdenlive:id">43</property>
   <filter id="filter113">
    <property name="rotate_center">1</property>
    <property name="mlt_service">qtblend</property>
    <property name="kdenlive_id">qtblend</property>
    <property name="compositing">0</property>
    <property name="distort">0</property>
    <property name="rect">00:00:02.542=-148 0 5110 2160 1.000000</property>
    <property name="rotation">00:00:02.542=0</property>
    <property name="kdenlive:collapsed">0</property>
   </filter>
   <filter id="filter114">
    <property name="version">0.1</property>
    <property name="mlt_service">frei0r.scale0tilt</property>
    <property name="kdenlive_id">frei0r.scale0tilt</property>
    <property name="Clip left">00:00:02.542=0.838178</property>
    <property name="Clip right">00:00:02.542=0</property>
    <property name="Clip top">00:00:02.542=0</property>
    <property name="Clip bottom">00:00:02.542=0</property>
    <property name="Scale X">00:00:02.542=0.52</property>
    <property name="Scale Y">00:00:02.542=0.5</property>
    <property name="Tilt X">00:00:02.542=0.5</property>
    <property name="Tilt Y">00:00:02.542=0.5</property>
    <property name="kdenlive:collapsed">0</property>
   </filter>
  </entry>
  <entry in="00:00:00.083" out="00:00:02.500" producer="chain41">
   <property name="kdenlive:id">40</property>
   <filter id="filter115">
    <property name="rotate_center">1</property>
    <property name="mlt_service">qtblend</property>
    <property name="kdenlive_id">qtblend</property>
    <property name="compositing">0</property>
    <property name="distort">0</property>
    <property name="rect">00:00:00.083=-148 0 5110 2160 1.000000</property>
    <property name="rotation">00:00:00.083=0</property>
    <property name="kdenlive:collapsed">1</property>
   </filter>
   <filter id="filter116">
    <property name="version">0.1</property>
    <property name="mlt_service">frei0r.scale0tilt</property>
    <property name="kdenlive_id">frei0r.scale0tilt</property>
    <property name="Clip left">00:00:00.083=0.838178</property>
    <property name="Clip right">00:00:00.083=0</property>
    <property name="Clip top">00:00:00.083=0</property>
    <property name="Clip bottom">00:00:00.083=0</property>
    <property name="Scale X">00:00:00.083=0.52</property>
    <property name="Scale Y">00:00:00.083=0.5</property>
    <property name="Tilt X">00:00:00.083=0.5</property>
    <property name="Tilt Y">00:00:00.083=0.5</property>
    <property name="kdenlive:collapsed">1</property>
   </filter>
  </entry>
  <entry in="00:00:02.542" out="00:00:03.958" producer="chain41">
   <property name="kdenlive:id">40</property>
   <filter id="filter117">
    <property name="rotate_center">1</property>
    <property name="mlt_service">qtblend</property>
    <property name="kdenlive_id">qtblend</property>
    <property name="compositing">0</property>
    <property name="distort">0</property>
    <property name="rect">00:00:02.542=-148 0 5110 2160 1.000000</property>
    <property name="rotation">00:00:02.542=0</property>
    <property name="kdenlive:collapsed">1</property>
   </filter>
   <filter id="filter118">
    <property name="version">0.1</property>
    <property name="mlt_service">frei0r.scale0tilt</property>
    <property name="kdenlive_id">frei0r.scale0tilt</property>
    <property name="Clip left">00:00:02.542=0.838178</property>
    <property name="Clip right">00:00:02.542=0</property>
    <property name="Clip top">00:00:02.542=0</property>
    <property name="Clip bottom">00:00:02.542=0</property>
    <property name="Scale X">00:00:02.542=0.52</property>
    <property name="Scale Y">00:00:02.542=0.5</property>
    <property name="Tilt X">00:00:02.542=0.5</property>
    <property name="Tilt Y">00:00:02.542=0.5</property>
    <property name="kdenlive:collapsed">1</property>
   </filter>
   <filter id="filter119">
    <property name="version">0.2</property>
    <property name="mlt_service">frei0r.coloradj_RGB</property>
    <property name="kdenlive_id">frei0r.coloradj_RGB</property>
    <property name="R">00:00:02.542=0.5</property>
    <property name="G">00:00:02.542=0.55</property>
    <property name="B">00:00:02.542=0.5</property>
    <property name="Action">0.5</property>
    <property name="Keep luma">1</property>
    <property name="Alpha controlled">0</property>
    <property name="Luma formula">1</property>
    <property name="kdenlive:collapsed">0</property>
   </filter>
   <filter id="filter120">
    <property name="version">0.2</property>
    <property name="mlt_service">frei0r.contrast0r</property>
    <property name="kdenlive_id">frei0r.contrast0r</property>
    <property name="Contrast">00:00:02.542=0.49</property>
    <property name="kdenlive:collapsed">0</property>
   </filter>
  </entry>
  <blank length="00:00:00.083"/>
  <entry in="00:00:00.000" out="00:00:08.958" producer="chain42">
   <property name="kdenlive:id">56</property>
   <filter id="filter121">
    <property name="rotate_center">1</property>
    <property name="mlt_service">qtblend</property>
    <property name="kdenlive_id">qtblend</property>
    <property name="compositing">0</property>
    <property name="distort">0</property>
    <property name="rect">00:00:00.000=-148 0 5110 2160 1.000000</property>
    <property name="rotation">00:00:00.000=0</property>
    <property name="kdenlive:collapsed">1</property>
   </filter>
   <filter id="filter122">
    <property name="version">0.1</property>
    <property name="mlt_service">frei0r.scale0tilt</property>
    <property name="kdenlive_id">frei0r.scale0tilt</property>
    <property name="Clip left">00:00:00.000=0.838178</property>
    <property name="Clip right">00:00:00.000=0</property>
    <property name="Clip top">00:00:00.000=0</property>
    <property name="Clip bottom">00:00:00.000=0</property>
    <property name="Scale X">00:00:00.000=0.52</property>
    <property name="Scale Y">00:00:00.000=0.5</property>
    <property name="Tilt X">00:00:00.000=0.5</property>
    <property name="Tilt Y">00:00:00.000=0.5</property>
    <property name="kdenlive:collapsed">1</property>
   </filter>
   <filter id="filter123">
    <property name="version">0.2</property>
    <property name="mlt_service">frei0r.coloradj_RGB</property>
    <property name="kdenlive_id">frei0r.coloradj_RGB</property>
    <property name="R">00:00:00.000=0.5</property>
    <property name="G">00:00:00.000=0.55</property>
    <property name="B">00:00:00.000=0.5</property>
    <property name="Action">0.5</property>
    <property name="Keep luma">1</property>
    <property name="Alpha controlled">0</property>
    <property name="Luma formula">1</property>
   </filter>
  </entry>
  <entry in="00:00:00.000" out="00:00:00.958" producer="chain43">
   <property name="kdenlive:id">57</property>
   <filter id="filter124">
    <property name="rotate_center">1</property>
    <property name="mlt_service">qtblend</property>
    <property name="kdenlive_id">qtblend</property>
    <property name="compositing">0</property>
    <property name="distort">0</property>
    <property name="rect">00:00:00.000=-148 0 5110 2160 1.000000</property>
    <property name="rotation">00:00:00.000=0</property>
    <property name="kdenlive:collapsed">1</property>
   </filter>
   <filter id="filter125">
    <property name="version">0.1</property>
    <property name="mlt_service">frei0r.scale0tilt</property>
    <property name="kdenlive_id">frei0r.scale0tilt</property>
    <property name="Clip left">00:00:00.000=0.838178</property>
    <property name="Clip right">00:00:00.000=0</property>
    <property name="Clip top">00:00:00.000=0</property>
    <property name="Clip bottom">00:00:00.000=0</property>
    <property name="Scale X">00:00:00.000=0.52</property>
    <property name="Scale Y">00:00:00.000=0.5</property>
    <property name="Tilt X">00:00:00.000=0.5</property>
    <property name="Tilt Y">00:00:00.000=0.5</property>
    <property name="kdenlive:collapsed">1</property>
   </filter>
   <filter id="filter126">
    <property name="filter">frei0r.select0r</property>
    <property name="mlt_service">mask_start</property>
    <property name="kdenlive_id">mask_start-frei0r.select0r</property>
    <property name="filter.Color to select">0=0x0078b4ff</property>
    <property name="filter.Invert selection">0</property>
    <property name="filter.Selection subspace">0</property>
    <property name="filter.Subspace shape">0.5</property>
    <property name="filter.Edge mode">0.9</property>
    <property name="filter.Delta R / A / Hue">0=0.2</property>
    <property name="filter.Delta G / B / Chroma">0=0.2</property>
    <property name="filter.Delta B / I / I">0=0.2</property>
    <property name="filter.Slope">0=0.5</property>
    <property name="filter.Operation">0</property>
    <property name="kdenlive:collapsed">1</property>
   </filter>
   <filter id="filter127">
    <property name="version">0.2</property>
    <property name="mlt_service">frei0r.coloradj_RGB</property>
    <property name="kdenlive_id">frei0r.coloradj_RGB</property>
    <property name="R">00:00:00.000=0.5</property>
    <property name="G">00:00:00.000=0.5</property>
    <property name="B">00:00:00.000=0.4</property>
    <property name="Action">0.5</property>
    <property name="Keep luma">1</property>
    <property name="Alpha controlled">0</property>
    <property name="Luma formula">1</property>
    <property name="kdenlive:collapsed">1</property>
   </filter>
   <filter id="filter128">
    <property name="transition">frei0r.composition</property>
    <property name="mlt_image_format">rgba</property>
    <property name="mlt_service">mask_apply</property>
    <property name="kdenlive_id">mask_apply</property>
   </filter>
  </entry>
  <entry in="00:00:00.000" out="00:00:04.958" producer="chain44">
   <property name="kdenlive:id">58</property>
   <filter id="filter129">
    <property name="rotate_center">1</property>
    <property name="mlt_service">qtblend</property>
    <property name="kdenlive_id">qtblend</property>
    <property name="compositing">0</property>
    <property name="distort">0</property>
    <property name="rect">00:00:00.000=-148 0 5110 2160 1.000000</property>
    <property name="rotation">00:00:00.000=0</property>
    <property name="kdenlive:collapsed">1</property>
   </filter>
   <filter id="filter130">
    <property name="version">0.1</property>
    <property name="mlt_service">frei0r.scale0tilt</property>
    <property name="kdenlive_id">frei0r.scale0tilt</property>
    <property name="Clip left">00:00:00.000=0.838178</property>
    <property name="Clip right">00:00:00.000=0</property>
    <property name="Clip top">00:00:00.000=0</property>
    <property name="Clip bottom">00:00:00.000=0</property>
    <property name="Scale X">00:00:00.000=0.52</property>
    <property name="Scale Y">00:00:00.000=0.5</property>
    <property name="Tilt X">00:00:00.000=0.5</property>
    <property name="Tilt Y">00:00:00.000=0.5</property>
    <property name="kdenlive:collapsed">1</property>
   </filter>
   <filter id="filter131">
    <property name="version">0.2</property>
    <property name="mlt_service">frei0r.coloradj_RGB</property>
    <property name="kdenlive_id">frei0r.coloradj_RGB</property>
    <property name="R">00:00:00.000=0.45</property>
    <property name="G">00:00:00.000=0.5</property>
    <property name="B">00:00:00.000=0.4</property>
    <property name="Action">0.5</property>
    <property name="Keep luma">1</property>
    <property name="Alpha controlled">0</property>
    <property name="Luma formula">1</property>
    <property name="kdenlive:collapsed">0</property>
   </filter>
  </entry>
  <entry in="00:00:00.000" out="00:00:04.958" producer="chain45">
   <property name="kdenlive:id">59</property>
   <filter id="filter132">
    <property name="rotate_center">1</property>
    <property name="mlt_service">qtblend</property>
    <property name="kdenlive_id">qtblend</property>
    <property name="compositing">0</property>
    <property name="distort">0</property>
    <property name="rect">00:00:00.000=-326 -64 5469 2289 1.000000</property>
    <property name="rotation">00:00:00.000=0</property>
    <property name="kdenlive:collapsed">1</property>
   </filter>
   <filter id="filter133">
    <property name="version">0.1</property>
    <property name="mlt_service">frei0r.scale0tilt</property>
    <property name="kdenlive_id">frei0r.scale0tilt</property>
    <property name="Clip left">00:00:00.000=0.838178</property>
    <property name="Clip right">00:00:00.000=0</property>
    <property name="Clip top">00:00:00.000=0</property>
    <property name="Clip bottom">00:00:00.000=0</property>
    <property name="Scale X">00:00:00.000=0.52</property>
    <property name="Scale Y">00:00:00.000=0.5</property>
    <property name="Tilt X">00:00:00.000=0.5</property>
    <property name="Tilt Y">00:00:00.000=0.5</property>
    <property name="kdenlive:collapsed">1</property>
   </filter>
   <filter id="filter134">
    <property name="version">0.2</property>
    <property name="mlt_service">frei0r.coloradj_RGB</property>
    <property name="kdenlive_id">frei0r.coloradj_RGB</property>
    <property name="R">00:00:00.000=0.4</property>
    <property name="G">00:00:00.000=0.6</property>
    <property name="B">00:00:00.000=0.6</property>
    <property name="Action">0.5</property>
    <property name="Keep luma">1</property>
    <property name="Alpha controlled">0</property>
    <property name="Luma formula">1</property>
   </filter>
  </entry>
  <entry in="00:00:01.667" out="00:00:04.625" producer="producer11">
   <property name="kdenlive:id">60</property>
   <filter id="filter135">
    <property name="rotate_center">1</property>
    <property name="mlt_service">qtblend</property>
    <property name="kdenlive_id">qtblend</property>
    <property name="compositing">0</property>
    <property name="distort">0</property>
    <property name="rect">00:00:01.667=-112 0 5110 2160 1.000000</property>
    <property name="rotation">00:00:01.667=0</property>
    <property name="kdenlive:collapsed">1</property>
   </filter>
   <filter id="filter136">
    <property name="version">0.1</property>
    <property name="mlt_service">frei0r.scale0tilt</property>
    <property name="kdenlive_id">frei0r.scale0tilt</property>
    <property name="Clip left">00:00:01.667=0.837597</property>
    <property name="Clip right">00:00:01.667=0</property>
    <property name="Clip top">00:00:01.667=0</property>
    <property name="Clip bottom">00:00:01.667=0</property>
    <property name="Scale X">00:00:01.667=0.52</property>
    <property name="Scale Y">00:00:01.667=0.5</property>
    <property name="Tilt X">00:00:01.667=0.5</property>
    <property name="Tilt Y">00:00:01.667=0.5</property>
    <property name="kdenlive:collapsed">1</property>
   </filter>
   <filter id="filter137">
    <property name="version">0.2</property>
    <property name="mlt_service">frei0r.brightness</property>
    <property name="kdenlive_id">frei0r.brightness</property>
    <property name="Brightness">00:00:01.667=0.46</property>
   </filter>
   <filter id="filter138">
    <property name="version">0.2</property>
    <property name="mlt_service">frei0r.coloradj_RGB</property>
    <property name="kdenlive_id">frei0r.coloradj_RGB</property>
    <property name="R">00:00:01.667=0.52</property>
    <property name="G">00:00:01.667=0.48</property>
    <property name="B">00:00:01.667=0.5</property>
    <property name="Action">0.5</property>
    <property name="Keep luma">1</property>
    <property name="Alpha controlled">0</property>
    <property name="Luma formula">1</property>
   </filter>
  </entry>
  <entry in="00:00:00.000" out="00:00:03.958" producer="producer12">
   <property name="kdenlive:id">62</property>
   <filter id="filter139">
    <property name="rotate_center">1</property>
    <property name="mlt_service">qtblend</property>
    <property name="kdenlive_id">qtblend</property>
    <property name="compositing">0</property>
    <property name="distort">0</property>
    <property name="rect">00:00:00.000=-112 0 5110 2160 1.000000</property>
    <property name="rotation">00:00:00.000=0</property>
    <property name="kdenlive:collapsed">0</property>
   </filter>
   <filter id="filter140">
    <property name="version">0.1</property>
    <property name="mlt_service">frei0r.scale0tilt</property>
    <property name="kdenlive_id">frei0r.scale0tilt</property>
    <property name="Clip left">00:00:00.000=0.837597</property>
    <property name="Clip right">00:00:00.000=0</property>
    <property name="Clip top">00:00:00.000=0</property>
    <property name="Clip bottom">00:00:00.000=0</property>
    <property name="Scale X">00:00:00.000=0.52</property>
    <property name="Scale Y">00:00:00.000=0.5</property>
    <property name="Tilt X">00:00:00.000=0.5</property>
    <property name="Tilt Y">00:00:00.000=0.5</property>
    <property name="kdenlive:collapsed">1</property>
   </filter>
   <filter id="filter141">
    <property name="version">0.2</property>
    <property name="mlt_service">frei0r.brightness</property>
    <property name="kdenlive_id">frei0r.brightness</property>
    <property name="Brightness">00:00:00.000=0.46</property>
    <property name="kdenlive:collapsed">1</property>
   </filter>
   <filter id="filter142">
    <property name="version">0.2</property>
    <property name="mlt_service">frei0r.coloradj_RGB</property>
    <property name="kdenlive_id">frei0r.coloradj_RGB</property>
    <property name="R">00:00:00.000=0.52</property>
    <property name="G">00:00:00.000=0.48</property>
    <property name="B">00:00:00.000=0.5</property>
    <property name="Action">0.5</property>
    <property name="Keep luma">1</property>
    <property name="Alpha controlled">0</property>
    <property name="Luma formula">1</property>
    <property name="kdenlive:collapsed">1</property>
   </filter>
  </entry>
  <entry in="00:00:01.000" out="00:00:03.417" producer="producer9">
   <property name="kdenlive:id">70</property>
   <filter id="filter58">
    <property name="rotate_center">1</property>
    <property name="mlt_service">qtblend</property>
    <property name="kdenlive_id">qtblend</property>
    <property name="compositing">0</property>
    <property name="distort">0</property>
    <property name="rect">00:00:01.000=-148 0 5110 2160 1.000000</property>
    <property name="rotation">00:00:01.000=0</property>
    <property name="kdenlive:collapsed">1</property>
   </filter>
   <filter id="filter79">
    <property name="version">0.1</property>
    <property name="mlt_service">frei0r.scale0tilt</property>
    <property name="kdenlive_id">frei0r.scale0tilt</property>
    <property name="Clip left">00:00:01.000=0.838178</property>
    <property name="Clip right">00:00:01.000=0</property>
    <property name="Clip top">00:00:01.000=0</property>
    <property name="Clip bottom">00:00:01.000=0</property>
    <property name="Scale X">00:00:01.000=0.52</property>
    <property name="Scale Y">00:00:01.000=0.5</property>
    <property name="Tilt X">00:00:01.000=0.5</property>
    <property name="Tilt Y">00:00:01.000=0.5</property>
    <property name="kdenlive:collapsed">1</property>
   </filter>
  </entry>
 </playlist>
 <playlist id="playlist13"/>
 <tractor id="tractor6" in="00:00:00.000" out="00:01:35.417">
  <property name="kdenlive:trackheight">67</property>
  <property name="kdenlive:timeline_active">1</property>
  <property name="kdenlive:collapsed">0</property>
  <property name="kdenlive:track_name">wide</property>
  <property name="kdenlive:thumbs_format"/>
  <property name="kdenlive:audio_rec"/>
  <track hide="audio" producer="playlist12"/>
  <track hide="audio" producer="playlist13"/>
 </tractor>
 <chain id="chain49" out="00:00:05.042">
  <property name="length">122</property>
  <property name="eof">pause</property>
  <property name="resource">C:/dev/workspace/indy/dist/room/attic/content/upscale/wide/splash3.mp4</property>
  <property name="mlt_service">avformat-novalidate</property>
  <property name="seekable">1</property>
  <property name="audio_index">1</property>
  <property name="video_index">0</property>
  <property name="vstream">0</property>
  <property name="astream">0</property>
  <property name="kdenlive:control_uuid">{d396c311-fc1b-40df-8de5-65c0823479bd}</property>
  <property name="kdenlive:id">45</property>
  <property name="kdenlive:clip_type">0</property>
  <property name="kdenlive:file_size">15212829</property>
  <property name="kdenlive:file_hash">289799bd83a46f4bbfd9d3209106b84e</property>
  <property name="kdenlive:folderid">-1</property>
  <property name="meta.media.nb_streams">2</property>
  <property name="meta.media.0.stream.type">video</property>
  <property name="meta.media.0.stream.frame_rate">60</property>
  <property name="meta.media.0.stream.sample_aspect_ratio">0</property>
  <property name="meta.media.0.codec.width">5110</property>
  <property name="meta.media.0.codec.height">2160</property>
  <property name="meta.media.0.codec.rotate">0</property>
  <property name="meta.media.0.codec.pix_fmt">yuv444p</property>
  <property name="meta.media.0.codec.sample_aspect_ratio">0</property>
  <property name="meta.media.0.codec.colorspace">709</property>
  <property name="meta.media.0.codec.name">h264</property>
  <property name="meta.media.0.codec.long_name">H.264 / AVC / MPEG-4 AVC / MPEG-4 part 10</property>
  <property name="meta.media.0.codec.bit_rate">23845686</property>
  <property name="meta.attr.0.stream.handler_name.markup">VideoHandler</property>
  <property name="meta.attr.0.stream.vendor_id.markup">[0][0][0][0]</property>
  <property name="meta.attr.0.stream.encoder.markup">Lavc61.19.101 libx264</property>
  <property name="meta.media.1.stream.type">audio</property>
  <property name="meta.media.1.codec.sample_fmt">fltp</property>
  <property name="meta.media.1.codec.sample_rate">48000</property>
  <property name="meta.media.1.codec.channels">2</property>
  <property name="meta.media.1.codec.layout">stereo</property>
  <property name="meta.media.1.codec.name">aac</property>
  <property name="meta.media.1.codec.long_name">AAC (Advanced Audio Coding)</property>
  <property name="meta.media.1.codec.bit_rate">2276</property>
  <property name="meta.attr.1.stream.handler_name.markup">SoundHandler</property>
  <property name="meta.attr.1.stream.vendor_id.markup">[0][0][0][0]</property>
  <property name="meta.attr.minor_version.markup">512</property>
  <property name="meta.attr.major_brand.markup">isom</property>
  <property name="meta.attr.compatible_brands.markup">isomiso2avc1mp41</property>
  <property name="meta.attr.encoder.markup">Lavf61.9.100</property>
  <property name="meta.media.sample_aspect_num">1</property>
  <property name="meta.media.sample_aspect_den">1</property>
  <property name="meta.media.frame_rate_num">60</property>
  <property name="meta.media.frame_rate_den">1</property>
  <property name="meta.media.colorspace">709</property>
  <property name="meta.media.color_trc">2</property>
  <property name="meta.media.has_b_frames">2</property>
  <property name="meta.media.width">5110</property>
  <property name="meta.media.height">2160</property>
  <property name="meta.media.aspect_ratio">1</property>
  <property name="meta.media.color_range">mpeg</property>
  <property name="xml">was here</property>
  <property name="mute_on_pause">0</property>
  <property name="meta.media.top_field_first">0</property>
  <property name="meta.media.progressive">1</property>
  <property name="set.test_audio">1</property>
  <property name="set.test_image">0</property>
 </chain>
 <producer id="producer14" in="00:00:00.000" out="00:00:05.042">
  <property name="length">122</property>
  <property name="eof">pause</property>
  <property name="resource">-1.000000:C:/dev/workspace/indy/dist/room/attic/content/upscale/wide/indy4.mp4</property>
  <property name="aspect_ratio">1</property>
  <property name="meta.media.nb_streams">2</property>
  <property name="meta.media.0.stream.type">video</property>
  <property name="meta.media.0.stream.frame_rate">60</property>
  <property name="meta.media.0.stream.sample_aspect_ratio">0</property>
  <property name="meta.media.0.codec.width">5110</property>
  <property name="meta.media.0.codec.height">2160</property>
  <property name="meta.media.0.codec.rotate">0</property>
  <property name="meta.media.0.codec.pix_fmt">yuv444p</property>
  <property name="meta.media.0.codec.sample_aspect_ratio">0</property>
  <property name="meta.media.0.codec.colorspace">709</property>
  <property name="meta.media.0.codec.name">h264</property>
  <property name="meta.media.0.codec.long_name">H.264 / AVC / MPEG-4 AVC / MPEG-4 part 10</property>
  <property name="meta.media.0.codec.bit_rate">26422622</property>
  <property name="meta.attr.0.stream.handler_name.markup">VideoHandler</property>
  <property name="meta.attr.0.stream.vendor_id.markup">[0][0][0][0]</property>
  <property name="meta.attr.0.stream.encoder.markup">Lavc61.19.101 libx264</property>
  <property name="meta.media.1.stream.type">audio</property>
  <property name="meta.media.1.codec.sample_fmt">fltp</property>
  <property name="meta.media.1.codec.sample_rate">48000</property>
  <property name="meta.media.1.codec.channels">2</property>
  <property name="meta.media.1.codec.layout">stereo</property>
  <property name="meta.media.1.codec.name">aac</property>
  <property name="meta.media.1.codec.long_name">AAC (Advanced Audio Coding)</property>
  <property name="meta.media.1.codec.bit_rate">2276</property>
  <property name="meta.attr.1.stream.handler_name.markup">SoundHandler</property>
  <property name="meta.attr.1.stream.vendor_id.markup">[0][0][0][0]</property>
  <property name="meta.attr.minor_version.markup">512</property>
  <property name="meta.attr.major_brand.markup">isom</property>
  <property name="meta.attr.compatible_brands.markup">isomiso2avc1mp41</property>
  <property name="meta.attr.encoder.markup">Lavf61.9.100</property>
  <property name="seekable">1</property>
  <property name="meta.media.sample_aspect_num">1</property>
  <property name="meta.media.sample_aspect_den">1</property>
  <property name="audio_index">1</property>
  <property name="video_index">0</property>
  <property name="warp_speed">-1</property>
  <property name="warp_resource">C:/dev/workspace/indy/dist/room/attic/content/upscale/wide/indy4.mp4</property>
  <property name="mlt_service">timewarp</property>
  <property name="kdenlive:control_uuid">{1bde86aa-81a4-4ae4-80e8-5af50e3d0079}</property>
  <property name="vstream">0</property>
  <property name="astream">0</property>
  <property name="set.test_audio">1</property>
  <property name="set.test_image">0</property>
  <property name="kdenlive:id">44</property>
  <property name="warp_pitch">0</property>
  <property name="meta.media.frame_rate_num">60</property>
  <property name="meta.media.frame_rate_den">1</property>
  <property name="meta.media.colorspace">709</property>
  <property name="meta.media.color_trc">2</property>
  <property name="meta.media.has_b_frames">2</property>
  <property name="meta.media.width">5110</property>
  <property name="meta.media.height">2160</property>
  <property name="meta.media.aspect_ratio">1</property>
  <property name="meta.media.color_range">mpeg</property>
  <property name="meta.media.top_field_first">0</property>
  <property name="meta.media.progressive">1</property>
 </producer>
 <chain id="chain51" out="00:00:04.958">
  <property name="length">120</property>
  <property name="eof">pause</property>
  <property name="resource">C:/dev/workspace/indy/dist/room/attic/content/upscale/wide/dialog3-1.mp4</property>
  <property name="mlt_service">avformat-novalidate</property>
  <property name="seekable">1</property>
  <property name="audio_index">1</property>
  <property name="video_index">0</property>
  <property name="vstream">0</property>
  <property name="astream">0</property>
  <property name="kdenlive:control_uuid">{f5bc5ac5-6d35-4708-82d0-dffe3f17d8a1}</property>
  <property name="kdenlive:id">41</property>
  <property name="kdenlive:clip_type">0</property>
  <property name="kdenlive:file_size">13357276</property>
  <property name="kdenlive:file_hash">ff745686451d18be55580302b506c9ac</property>
  <property name="kdenlive:folderid">-1</property>
  <property name="meta.media.nb_streams">2</property>
  <property name="meta.media.0.stream.type">video</property>
  <property name="meta.media.0.stream.frame_rate">24</property>
  <property name="meta.media.0.stream.sample_aspect_ratio">0</property>
  <property name="meta.media.0.codec.width">5110</property>
  <property name="meta.media.0.codec.height">2160</property>
  <property name="meta.media.0.codec.rotate">0</property>
  <property name="meta.media.0.codec.pix_fmt">yuv444p</property>
  <property name="meta.media.0.codec.sample_aspect_ratio">0</property>
  <property name="meta.media.0.codec.colorspace">709</property>
  <property name="meta.media.0.codec.name">h264</property>
  <property name="meta.media.0.codec.long_name">H.264 / AVC / MPEG-4 AVC / MPEG-4 part 10</property>
  <property name="meta.media.0.codec.bit_rate">21318844</property>
  <property name="meta.attr.0.stream.handler_name.markup">VideoHandler</property>
  <property name="meta.attr.0.stream.vendor_id.markup">[0][0][0][0]</property>
  <property name="meta.attr.0.stream.encoder.markup">Lavc61.19.101 libx264</property>
  <property name="meta.media.1.stream.type">audio</property>
  <property name="meta.media.1.codec.sample_fmt">fltp</property>
  <property name="meta.media.1.codec.sample_rate">48000</property>
  <property name="meta.media.1.codec.channels">2</property>
  <property name="meta.media.1.codec.layout">stereo</property>
  <property name="meta.media.1.codec.name">aac</property>
  <property name="meta.media.1.codec.long_name">AAC (Advanced Audio Coding)</property>
  <property name="meta.media.1.codec.bit_rate">2277</property>
  <property name="meta.attr.1.stream.handler_name.markup">SoundHandler</property>
  <property name="meta.attr.1.stream.vendor_id.markup">[0][0][0][0]</property>
  <property name="meta.attr.minor_version.markup">512</property>
  <property name="meta.attr.major_brand.markup">isom</property>
  <property name="meta.attr.compatible_brands.markup">isomiso2avc1mp41</property>
  <property name="meta.attr.encoder.markup">Lavf61.9.100</property>
  <property name="meta.media.sample_aspect_num">1</property>
  <property name="meta.media.sample_aspect_den">1</property>
  <property name="meta.media.frame_rate_num">24</property>
  <property name="meta.media.frame_rate_den">1</property>
  <property name="meta.media.colorspace">709</property>
  <property name="meta.media.color_trc">2</property>
  <property name="meta.media.has_b_frames">2</property>
  <property name="meta.media.width">5110</property>
  <property name="meta.media.height">2160</property>
  <property name="meta.media.aspect_ratio">1</property>
  <property name="meta.media.color_range">mpeg</property>
  <property name="xml">was here</property>
  <property name="mute_on_pause">0</property>
  <property name="meta.media.top_field_first">0</property>
  <property name="meta.media.progressive">1</property>
  <property name="set.test_audio">1</property>
  <property name="set.test_image">0</property>
 </chain>
 <chain id="chain52" out="00:00:05.250">
  <property name="length">127</property>
  <property name="eof">pause</property>
  <property name="resource">C:/dev/workspace/indy/dist/room/attic/content/upscale/wide/dialog3-2.mp4</property>
  <property name="mlt_service">avformat-novalidate</property>
  <property name="seekable">1</property>
  <property name="audio_index">1</property>
  <property name="video_index">0</property>
  <property name="vstream">0</property>
  <property name="astream">0</property>
  <property name="kdenlive:control_uuid">{af5d09ed-3a97-4ef9-a204-b29a0cc28eb9}</property>
  <property name="kdenlive:id">42</property>
  <property name="kdenlive:clip_type">0</property>
  <property name="kdenlive:file_size">15859603</property>
  <property name="kdenlive:file_hash">587c69f6d982791208946c2ca749bc61</property>
  <property name="kdenlive:folderid">-1</property>
  <property name="meta.media.nb_streams">2</property>
  <property name="meta.media.0.stream.type">video</property>
  <property name="meta.media.0.stream.frame_rate">24</property>
  <property name="meta.media.0.stream.sample_aspect_ratio">0</property>
  <property name="meta.media.0.codec.width">5110</property>
  <property name="meta.media.0.codec.height">2160</property>
  <property name="meta.media.0.codec.rotate">0</property>
  <property name="meta.media.0.codec.pix_fmt">yuv444p</property>
  <property name="meta.media.0.codec.sample_aspect_ratio">0</property>
  <property name="meta.media.0.codec.colorspace">709</property>
  <property name="meta.media.0.codec.name">h264</property>
  <property name="meta.media.0.codec.long_name">H.264 / AVC / MPEG-4 AVC / MPEG-4 part 10</property>
  <property name="meta.media.0.codec.bit_rate">23961534</property>
  <property name="meta.attr.0.stream.handler_name.markup">VideoHandler</property>
  <property name="meta.attr.0.stream.vendor_id.markup">[0][0][0][0]</property>
  <property name="meta.attr.0.stream.encoder.markup">Lavc61.19.101 libx264</property>
  <property name="meta.media.1.stream.type">audio</property>
  <property name="meta.media.1.codec.sample_fmt">fltp</property>
  <property name="meta.media.1.codec.sample_rate">48000</property>
  <property name="meta.media.1.codec.channels">2</property>
  <property name="meta.media.1.codec.layout">stereo</property>
  <property name="meta.media.1.codec.name">aac</property>
  <property name="meta.media.1.codec.long_name">AAC (Advanced Audio Coding)</property>
  <property name="meta.media.1.codec.bit_rate">2275</property>
  <property name="meta.attr.1.stream.handler_name.markup">SoundHandler</property>
  <property name="meta.attr.1.stream.vendor_id.markup">[0][0][0][0]</property>
  <property name="meta.attr.minor_version.markup">512</property>
  <property name="meta.attr.major_brand.markup">isom</property>
  <property name="meta.attr.compatible_brands.markup">isomiso2avc1mp41</property>
  <property name="meta.attr.encoder.markup">Lavf61.9.100</property>
  <property name="meta.media.sample_aspect_num">1</property>
  <property name="meta.media.sample_aspect_den">1</property>
  <property name="meta.media.frame_rate_num">24</property>
  <property name="meta.media.frame_rate_den">1</property>
  <property name="meta.media.colorspace">709</property>
  <property name="meta.media.color_trc">2</property>
  <property name="meta.media.has_b_frames">2</property>
  <property name="meta.media.width">5110</property>
  <property name="meta.media.height">2160</property>
  <property name="meta.media.aspect_ratio">1</property>
  <property name="meta.media.color_range">mpeg</property>
  <property name="xml">was here</property>
  <property name="mute_on_pause">0</property>
  <property name="meta.media.top_field_first">0</property>
  <property name="meta.media.progressive">1</property>
  <property name="set.test_audio">1</property>
  <property name="set.test_image">0</property>
 </chain>
 <producer id="producer15" in="00:00:00.000" out="00:00:05.000">
  <property name="length">121</property>
  <property name="eof">pause</property>
  <property name="resource">-1.000000:C:/dev/workspace/indy/dist/room/attic/content/upscale/wide/attic22.mp4</property>
  <property name="aspect_ratio">1</property>
  <property name="meta.media.nb_streams">2</property>
  <property name="meta.media.0.stream.type">video</property>
  <property name="meta.media.0.stream.frame_rate">24</property>
  <property name="meta.media.0.stream.sample_aspect_ratio">0</property>
  <property name="meta.media.0.codec.width">5110</property>
  <property name="meta.media.0.codec.height">2160</property>
  <property name="meta.media.0.codec.rotate">0</property>
  <property name="meta.media.0.codec.pix_fmt">yuv444p</property>
  <property name="meta.media.0.codec.sample_aspect_ratio">0</property>
  <property name="meta.media.0.codec.colorspace">709</property>
  <property name="meta.media.0.codec.name">h264</property>
  <property name="meta.media.0.codec.long_name">H.264 / AVC / MPEG-4 AVC / MPEG-4 part 10</property>
  <property name="meta.media.0.codec.bit_rate">24316914</property>
  <property name="meta.attr.0.stream.handler_name.markup">VideoHandler</property>
  <property name="meta.attr.0.stream.vendor_id.markup">[0][0][0][0]</property>
  <property name="meta.attr.0.stream.encoder.markup">Lavc61.19.101 libx264</property>
  <property name="meta.media.1.stream.type">audio</property>
  <property name="meta.media.1.codec.sample_fmt">fltp</property>
  <property name="meta.media.1.codec.sample_rate">48000</property>
  <property name="meta.media.1.codec.channels">2</property>
  <property name="meta.media.1.codec.layout">stereo</property>
  <property name="meta.media.1.codec.name">aac</property>
  <property name="meta.media.1.codec.long_name">AAC (Advanced Audio Coding)</property>
  <property name="meta.media.1.codec.bit_rate">2277</property>
  <property name="meta.attr.1.stream.handler_name.markup">SoundHandler</property>
  <property name="meta.attr.1.stream.vendor_id.markup">[0][0][0][0]</property>
  <property name="meta.attr.minor_version.markup">512</property>
  <property name="meta.attr.major_brand.markup">isom</property>
  <property name="meta.attr.compatible_brands.markup">isomiso2avc1mp41</property>
  <property name="meta.attr.encoder.markup">Lavf61.9.100</property>
  <property name="seekable">1</property>
  <property name="meta.media.sample_aspect_num">1</property>
  <property name="meta.media.sample_aspect_den">1</property>
  <property name="audio_index">1</property>
  <property name="video_index">0</property>
  <property name="warp_speed">-1</property>
  <property name="warp_resource">C:/dev/workspace/indy/dist/room/attic/content/upscale/wide/attic22.mp4</property>
  <property name="mlt_service">timewarp</property>
  <property name="kdenlive:control_uuid">{63a84f15-402a-417c-80a7-c179a9f6a623}</property>
  <property name="vstream">0</property>
  <property name="astream">0</property>
  <property name="set.test_audio">1</property>
  <property name="set.test_image">0</property>
  <property name="kdenlive:id">74</property>
  <property name="warp_pitch">0</property>
  <property name="meta.media.frame_rate_num">24</property>
  <property name="meta.media.frame_rate_den">1</property>
  <property name="meta.media.colorspace">709</property>
  <property name="meta.media.color_trc">2</property>
  <property name="meta.media.has_b_frames">2</property>
  <property name="meta.media.width">5110</property>
  <property name="meta.media.height">2160</property>
  <property name="meta.media.aspect_ratio">1</property>
  <property name="meta.media.color_range">mpeg</property>
  <property name="meta.media.top_field_first">0</property>
  <property name="meta.media.progressive">1</property>
 </producer>
 <producer id="producer4" in="00:00:00.000" out="00:00:03.333">
  <property name="length">81</property>
  <property name="eof">pause</property>
  <property name="resource">1.500000:C:/dev/workspace/indy/dist/room/attic/content/upscale/wide/attic25.mp4</property>
  <property name="aspect_ratio">1</property>
  <property name="meta.media.nb_streams">2</property>
  <property name="meta.media.0.stream.type">video</property>
  <property name="meta.media.0.stream.frame_rate">60</property>
  <property name="meta.media.0.stream.sample_aspect_ratio">0</property>
  <property name="meta.media.0.codec.width">5110</property>
  <property name="meta.media.0.codec.height">2160</property>
  <property name="meta.media.0.codec.rotate">0</property>
  <property name="meta.media.0.codec.pix_fmt">yuv444p</property>
  <property name="meta.media.0.codec.sample_aspect_ratio">0</property>
  <property name="meta.media.0.codec.colorspace">709</property>
  <property name="meta.media.0.codec.name">h264</property>
  <property name="meta.media.0.codec.long_name">H.264 / AVC / MPEG-4 AVC / MPEG-4 part 10</property>
  <property name="meta.media.0.codec.bit_rate">33198661</property>
  <property name="meta.attr.0.stream.handler_name.markup">VideoHandler</property>
  <property name="meta.attr.0.stream.vendor_id.markup">[0][0][0][0]</property>
  <property name="meta.attr.0.stream.encoder.markup">Lavc61.19.101 libx264</property>
  <property name="meta.media.1.stream.type">audio</property>
  <property name="meta.media.1.codec.sample_fmt">fltp</property>
  <property name="meta.media.1.codec.sample_rate">48000</property>
  <property name="meta.media.1.codec.channels">2</property>
  <property name="meta.media.1.codec.layout">stereo</property>
  <property name="meta.media.1.codec.name">aac</property>
  <property name="meta.media.1.codec.long_name">AAC (Advanced Audio Coding)</property>
  <property name="meta.media.1.codec.bit_rate">2277</property>
  <property name="meta.attr.1.stream.handler_name.markup">SoundHandler</property>
  <property name="meta.attr.1.stream.vendor_id.markup">[0][0][0][0]</property>
  <property name="meta.attr.minor_version.markup">512</property>
  <property name="meta.attr.major_brand.markup">isom</property>
  <property name="meta.attr.compatible_brands.markup">isomiso2avc1mp41</property>
  <property name="meta.attr.encoder.markup">Lavf61.9.100</property>
  <property name="seekable">1</property>
  <property name="meta.media.sample_aspect_num">1</property>
  <property name="meta.media.sample_aspect_den">1</property>
  <property name="audio_index">1</property>
  <property name="video_index">0</property>
  <property name="warp_speed">1.5</property>
  <property name="warp_resource">C:/dev/workspace/indy/dist/room/attic/content/upscale/wide/attic25.mp4</property>
  <property name="mlt_service">timewarp</property>
  <property name="kdenlive:control_uuid">{d1915721-d9a6-48ab-8948-c1096f8834b4}</property>
  <property name="vstream">0</property>
  <property name="astream">0</property>
  <property name="set.test_audio">1</property>
  <property name="set.test_image">0</property>
  <property name="kdenlive:id">76</property>
  <property name="warp_pitch">0</property>
  <property name="meta.media.frame_rate_num">60</property>
  <property name="meta.media.frame_rate_den">1</property>
  <property name="meta.media.colorspace">709</property>
  <property name="meta.media.color_trc">2</property>
  <property name="meta.media.has_b_frames">2</property>
  <property name="meta.media.width">5110</property>
  <property name="meta.media.height">2160</property>
  <property name="meta.media.aspect_ratio">1</property>
  <property name="meta.media.color_range">mpeg</property>
  <property name="meta.media.top_field_first">0</property>
  <property name="meta.media.progressive">1</property>
 </producer>
 <producer id="producer17" in="00:00:00.000" out="00:00:01.958">
  <property name="length">48</property>
  <property name="eof">pause</property>
  <property name="resource">-2.500000:C:/dev/workspace/indy/dist/room/attic/content/upscale/wide/attic24.mp4</property>
  <property name="aspect_ratio">1</property>
  <property name="meta.media.nb_streams">2</property>
  <property name="meta.media.0.stream.type">video</property>
  <property name="meta.media.0.stream.frame_rate">60</property>
  <property name="meta.media.0.stream.sample_aspect_ratio">0</property>
  <property name="meta.media.0.codec.width">5110</property>
  <property name="meta.media.0.codec.height">2160</property>
  <property name="meta.media.0.codec.rotate">0</property>
  <property name="meta.media.0.codec.pix_fmt">yuv444p</property>
  <property name="meta.media.0.codec.sample_aspect_ratio">0</property>
  <property name="meta.media.0.codec.colorspace">709</property>
  <property name="meta.media.0.codec.name">h264</property>
  <property name="meta.media.0.codec.long_name">H.264 / AVC / MPEG-4 AVC / MPEG-4 part 10</property>
  <property name="meta.media.0.codec.bit_rate">28970734</property>
  <property name="meta.attr.0.stream.handler_name.markup">VideoHandler</property>
  <property name="meta.attr.0.stream.vendor_id.markup">[0][0][0][0]</property>
  <property name="meta.attr.0.stream.encoder.markup">Lavc61.19.101 libx264</property>
  <property name="meta.media.1.stream.type">audio</property>
  <property name="meta.media.1.codec.sample_fmt">fltp</property>
  <property name="meta.media.1.codec.sample_rate">48000</property>
  <property name="meta.media.1.codec.channels">2</property>
  <property name="meta.media.1.codec.layout">stereo</property>
  <property name="meta.media.1.codec.name">aac</property>
  <property name="meta.media.1.codec.long_name">AAC (Advanced Audio Coding)</property>
  <property name="meta.media.1.codec.bit_rate">2277</property>
  <property name="meta.attr.1.stream.handler_name.markup">SoundHandler</property>
  <property name="meta.attr.1.stream.vendor_id.markup">[0][0][0][0]</property>
  <property name="meta.attr.minor_version.markup">512</property>
  <property name="meta.attr.major_brand.markup">isom</property>
  <property name="meta.attr.compatible_brands.markup">isomiso2avc1mp41</property>
  <property name="meta.attr.encoder.markup">Lavf61.9.100</property>
  <property name="seekable">1</property>
  <property name="meta.media.sample_aspect_num">1</property>
  <property name="meta.media.sample_aspect_den">1</property>
  <property name="audio_index">1</property>
  <property name="video_index">0</property>
  <property name="warp_speed">-2.5</property>
  <property name="warp_resource">C:/dev/workspace/indy/dist/room/attic/content/upscale/wide/attic24.mp4</property>
  <property name="mlt_service">timewarp</property>
  <property name="kdenlive:control_uuid">{bbed0c97-6cbb-4f98-a573-3d8b78434db9}</property>
  <property name="vstream">0</property>
  <property name="astream">0</property>
  <property name="set.test_audio">1</property>
  <property name="set.test_image">0</property>
  <property name="kdenlive:id">37</property>
  <property name="warp_pitch">0</property>
  <property name="meta.media.frame_rate_num">60</property>
  <property name="meta.media.frame_rate_den">1</property>
  <property name="meta.media.colorspace">709</property>
  <property name="meta.media.color_trc">2</property>
  <property name="meta.media.has_b_frames">2</property>
  <property name="meta.media.width">5110</property>
  <property name="meta.media.height">2160</property>
  <property name="meta.media.aspect_ratio">1</property>
  <property name="meta.media.color_range">mpeg</property>
  <property name="meta.media.top_field_first">0</property>
  <property name="meta.media.progressive">1</property>
 </producer>
 <chain id="chain54" out="00:00:05.042">
  <property name="length">122</property>
  <property name="eof">pause</property>
  <property name="resource">C:/dev/workspace/indy/dist/room/attic/content/upscale/wide/attic18.mp4</property>
  <property name="mlt_service">avformat-novalidate</property>
  <property name="seekable">1</property>
  <property name="audio_index">1</property>
  <property name="video_index">0</property>
  <property name="vstream">0</property>
  <property name="astream">0</property>
  <property name="kdenlive:control_uuid">{333cea33-7fa6-4e9a-9fdf-a228b4fde037}</property>
  <property name="kdenlive:id">35</property>
  <property name="kdenlive:clip_type">0</property>
  <property name="kdenlive:file_size">16119395</property>
  <property name="kdenlive:file_hash">2b79bd5b056fbf149cced8df9dc9a57d</property>
  <property name="kdenlive:folderid">-1</property>
  <property name="meta.media.nb_streams">2</property>
  <property name="meta.media.0.stream.type">video</property>
  <property name="meta.media.0.stream.frame_rate">60</property>
  <property name="meta.media.0.stream.sample_aspect_ratio">0</property>
  <property name="meta.media.0.codec.width">5110</property>
  <property name="meta.media.0.codec.height">2160</property>
  <property name="meta.media.0.codec.rotate">0</property>
  <property name="meta.media.0.codec.pix_fmt">yuv444p</property>
  <property name="meta.media.0.codec.sample_aspect_ratio">0</property>
  <property name="meta.media.0.codec.colorspace">709</property>
  <property name="meta.media.0.codec.name">h264</property>
  <property name="meta.media.0.codec.long_name">H.264 / AVC / MPEG-4 AVC / MPEG-4 part 10</property>
  <property name="meta.media.0.codec.bit_rate">25268026</property>
  <property name="meta.attr.0.stream.handler_name.markup">VideoHandler</property>
  <property name="meta.attr.0.stream.vendor_id.markup">[0][0][0][0]</property>
  <property name="meta.attr.0.stream.encoder.markup">Lavc61.19.101 libx264</property>
  <property name="meta.media.1.stream.type">audio</property>
  <property name="meta.media.1.codec.sample_fmt">fltp</property>
  <property name="meta.media.1.codec.sample_rate">48000</property>
  <property name="meta.media.1.codec.channels">2</property>
  <property name="meta.media.1.codec.layout">stereo</property>
  <property name="meta.media.1.codec.name">aac</property>
  <property name="meta.media.1.codec.long_name">AAC (Advanced Audio Coding)</property>
  <property name="meta.media.1.codec.bit_rate">2276</property>
  <property name="meta.attr.1.stream.handler_name.markup">SoundHandler</property>
  <property name="meta.attr.1.stream.vendor_id.markup">[0][0][0][0]</property>
  <property name="meta.attr.minor_version.markup">512</property>
  <property name="meta.attr.major_brand.markup">isom</property>
  <property name="meta.attr.compatible_brands.markup">isomiso2avc1mp41</property>
  <property name="meta.attr.encoder.markup">Lavf61.9.100</property>
  <property name="meta.media.sample_aspect_num">1</property>
  <property name="meta.media.sample_aspect_den">1</property>
  <property name="meta.media.frame_rate_num">60</property>
  <property name="meta.media.frame_rate_den">1</property>
  <property name="meta.media.colorspace">709</property>
  <property name="meta.media.color_trc">2</property>
  <property name="meta.media.has_b_frames">2</property>
  <property name="meta.media.width">5110</property>
  <property name="meta.media.height">2160</property>
  <property name="meta.media.aspect_ratio">1</property>
  <property name="meta.media.color_range">mpeg</property>
  <property name="xml">was here</property>
  <property name="mute_on_pause">0</property>
  <property name="meta.media.top_field_first">0</property>
  <property name="meta.media.progressive">1</property>
  <property name="set.test_audio">1</property>
  <property name="set.test_image">0</property>
 </chain>
 <producer id="producer18" in="00:00:00.000" out="00:00:05.042">
  <property name="length">122</property>
  <property name="eof">pause</property>
  <property name="resource">-1.000000:C:/dev/workspace/indy/dist/room/attic/content/upscale/wide/cross6.mp4</property>
  <property name="aspect_ratio">1</property>
  <property name="meta.media.nb_streams">2</property>
  <property name="meta.media.0.stream.type">video</property>
  <property name="meta.media.0.stream.frame_rate">60</property>
  <property name="meta.media.0.stream.sample_aspect_ratio">0</property>
  <property name="meta.media.0.codec.width">5110</property>
  <property name="meta.media.0.codec.height">2160</property>
  <property name="meta.media.0.codec.rotate">0</property>
  <property name="meta.media.0.codec.pix_fmt">yuv444p</property>
  <property name="meta.media.0.codec.sample_aspect_ratio">0</property>
  <property name="meta.media.0.codec.colorspace">709</property>
  <property name="meta.media.0.codec.name">h264</property>
  <property name="meta.media.0.codec.long_name">H.264 / AVC / MPEG-4 AVC / MPEG-4 part 10</property>
  <property name="meta.media.0.codec.bit_rate">24986674</property>
  <property name="meta.attr.0.stream.handler_name.markup">VideoHandler</property>
  <property name="meta.attr.0.stream.vendor_id.markup">[0][0][0][0]</property>
  <property name="meta.attr.0.stream.encoder.markup">Lavc61.19.101 libx264</property>
  <property name="meta.media.1.stream.type">audio</property>
  <property name="meta.media.1.codec.sample_fmt">fltp</property>
  <property name="meta.media.1.codec.sample_rate">48000</property>
  <property name="meta.media.1.codec.channels">2</property>
  <property name="meta.media.1.codec.layout">stereo</property>
  <property name="meta.media.1.codec.name">aac</property>
  <property name="meta.media.1.codec.long_name">AAC (Advanced Audio Coding)</property>
  <property name="meta.media.1.codec.bit_rate">2276</property>
  <property name="meta.attr.1.stream.handler_name.markup">SoundHandler</property>
  <property name="meta.attr.1.stream.vendor_id.markup">[0][0][0][0]</property>
  <property name="meta.attr.minor_version.markup">512</property>
  <property name="meta.attr.major_brand.markup">isom</property>
  <property name="meta.attr.compatible_brands.markup">isomiso2avc1mp41</property>
  <property name="meta.attr.encoder.markup">Lavf61.9.100</property>
  <property name="seekable">1</property>
  <property name="meta.media.sample_aspect_num">1</property>
  <property name="meta.media.sample_aspect_den">1</property>
  <property name="audio_index">1</property>
  <property name="video_index">0</property>
  <property name="warp_speed">-1</property>
  <property name="warp_resource">C:/dev/workspace/indy/dist/room/attic/content/upscale/wide/cross6.mp4</property>
  <property name="mlt_service">timewarp</property>
  <property name="kdenlive:control_uuid">{47a7e1a7-c41e-4aa1-850b-18f1b5b94d22}</property>
  <property name="vstream">0</property>
  <property name="astream">0</property>
  <property name="set.test_audio">1</property>
  <property name="set.test_image">0</property>
  <property name="kdenlive:id">38</property>
  <property name="warp_pitch">0</property>
  <property name="meta.media.frame_rate_num">60</property>
  <property name="meta.media.frame_rate_den">1</property>
  <property name="meta.media.colorspace">709</property>
  <property name="meta.media.color_trc">2</property>
  <property name="meta.media.has_b_frames">2</property>
  <property name="meta.media.width">5110</property>
  <property name="meta.media.height">2160</property>
  <property name="meta.media.aspect_ratio">1</property>
  <property name="meta.media.color_range">mpeg</property>
  <property name="meta.media.top_field_first">0</property>
  <property name="meta.media.progressive">1</property>
 </producer>
 <chain id="chain55" out="00:00:05.042">
  <property name="length">122</property>
  <property name="eof">pause</property>
  <property name="resource">C:/dev/workspace/indy/dist/room/attic/content/upscale/wide/cross7.mp4</property>
  <property name="mlt_service">avformat-novalidate</property>
  <property name="seekable">1</property>
  <property name="audio_index">1</property>
  <property name="video_index">0</property>
  <property name="vstream">0</property>
  <property name="astream">0</property>
  <property name="kdenlive:control_uuid">{8e15228f-f78b-42a4-9046-7efba275a0c6}</property>
  <property name="kdenlive:id">39</property>
  <property name="kdenlive:clip_type">0</property>
  <property name="kdenlive:file_size">17941329</property>
  <property name="kdenlive:file_hash">ab5528177f60addadf31b3764906cfca</property>
  <property name="kdenlive:folderid">-1</property>
  <property name="meta.media.nb_streams">2</property>
  <property name="meta.media.0.stream.type">video</property>
  <property name="meta.media.0.stream.frame_rate">60</property>
  <property name="meta.media.0.stream.sample_aspect_ratio">0</property>
  <property name="meta.media.0.codec.width">5110</property>
  <property name="meta.media.0.codec.height">2160</property>
  <property name="meta.media.0.codec.rotate">0</property>
  <property name="meta.media.0.codec.pix_fmt">yuv444p</property>
  <property name="meta.media.0.codec.sample_aspect_ratio">0</property>
  <property name="meta.media.0.codec.colorspace">709</property>
  <property name="meta.media.0.codec.name">h264</property>
  <property name="meta.media.0.codec.long_name">H.264 / AVC / MPEG-4 AVC / MPEG-4 part 10</property>
  <property name="meta.media.0.codec.bit_rate">28125686</property>
  <property name="meta.attr.0.stream.handler_name.markup">VideoHandler</property>
  <property name="meta.attr.0.stream.vendor_id.markup">[0][0][0][0]</property>
  <property name="meta.attr.0.stream.encoder.markup">Lavc61.19.101 libx264</property>
  <property name="meta.media.1.stream.type">audio</property>
  <property name="meta.media.1.codec.sample_fmt">fltp</property>
  <property name="meta.media.1.codec.sample_rate">48000</property>
  <property name="meta.media.1.codec.channels">2</property>
  <property name="meta.media.1.codec.layout">stereo</property>
  <property name="meta.media.1.codec.name">aac</property>
  <property name="meta.media.1.codec.long_name">AAC (Advanced Audio Coding)</property>
  <property name="meta.media.1.codec.bit_rate">2276</property>
  <property name="meta.attr.1.stream.handler_name.markup">SoundHandler</property>
  <property name="meta.attr.1.stream.vendor_id.markup">[0][0][0][0]</property>
  <property name="meta.attr.minor_version.markup">512</property>
  <property name="meta.attr.major_brand.markup">isom</property>
  <property name="meta.attr.compatible_brands.markup">isomiso2avc1mp41</property>
  <property name="meta.attr.encoder.markup">Lavf61.9.100</property>
  <property name="meta.media.sample_aspect_num">1</property>
  <property name="meta.media.sample_aspect_den">1</property>
  <property name="meta.media.frame_rate_num">60</property>
  <property name="meta.media.frame_rate_den">1</property>
  <property name="meta.media.colorspace">709</property>
  <property name="meta.media.color_trc">2</property>
  <property name="meta.media.has_b_frames">2</property>
  <property name="meta.media.width">5110</property>
  <property name="meta.media.height">2160</property>
  <property name="meta.media.aspect_ratio">1</property>
  <property name="meta.media.color_range">mpeg</property>
  <property name="xml">was here</property>
  <property name="mute_on_pause">0</property>
  <property name="meta.media.top_field_first">0</property>
  <property name="meta.media.progressive">1</property>
  <property name="set.test_audio">1</property>
  <property name="set.test_image">0</property>
 </chain>
 <producer id="producer19" in="00:00:00.000" out="00:00:05.042">
  <property name="length">122</property>
  <property name="eof">pause</property>
  <property name="resource">-1.000000:C:/dev/workspace/indy/dist/room/attic/content/upscale/wide/cross7.mp4</property>
  <property name="aspect_ratio">1</property>
  <property name="meta.media.nb_streams">2</property>
  <property name="meta.media.0.stream.type">video</property>
  <property name="meta.media.0.stream.frame_rate">60</property>
  <property name="meta.media.0.stream.sample_aspect_ratio">0</property>
  <property name="meta.media.0.codec.width">5110</property>
  <property name="meta.media.0.codec.height">2160</property>
  <property name="meta.media.0.codec.rotate">0</property>
  <property name="meta.media.0.codec.pix_fmt">yuv444p</property>
  <property name="meta.media.0.codec.sample_aspect_ratio">0</property>
  <property name="meta.media.0.codec.colorspace">709</property>
  <property name="meta.media.0.codec.name">h264</property>
  <property name="meta.media.0.codec.long_name">H.264 / AVC / MPEG-4 AVC / MPEG-4 part 10</property>
  <property name="meta.media.0.codec.bit_rate">28125686</property>
  <property name="meta.attr.0.stream.handler_name.markup">VideoHandler</property>
  <property name="meta.attr.0.stream.vendor_id.markup">[0][0][0][0]</property>
  <property name="meta.attr.0.stream.encoder.markup">Lavc61.19.101 libx264</property>
  <property name="meta.media.1.stream.type">audio</property>
  <property name="meta.media.1.codec.sample_fmt">fltp</property>
  <property name="meta.media.1.codec.sample_rate">48000</property>
  <property name="meta.media.1.codec.channels">2</property>
  <property name="meta.media.1.codec.layout">stereo</property>
  <property name="meta.media.1.codec.name">aac</property>
  <property name="meta.media.1.codec.long_name">AAC (Advanced Audio Coding)</property>
  <property name="meta.media.1.codec.bit_rate">2276</property>
  <property name="meta.attr.1.stream.handler_name.markup">SoundHandler</property>
  <property name="meta.attr.1.stream.vendor_id.markup">[0][0][0][0]</property>
  <property name="meta.attr.minor_version.markup">512</property>
  <property name="meta.attr.major_brand.markup">isom</property>
  <property name="meta.attr.compatible_brands.markup">isomiso2avc1mp41</property>
  <property name="meta.attr.encoder.markup">Lavf61.9.100</property>
  <property name="seekable">1</property>
  <property name="meta.media.sample_aspect_num">1</property>
  <property name="meta.media.sample_aspect_den">1</property>
  <property name="audio_index">1</property>
  <property name="video_index">0</property>
  <property name="warp_speed">-1</property>
  <property name="warp_resource">C:/dev/workspace/indy/dist/room/attic/content/upscale/wide/cross7.mp4</property>
  <property name="mlt_service">timewarp</property>
  <property name="kdenlive:control_uuid">{8e15228f-f78b-42a4-9046-7efba275a0c6}</property>
  <property name="vstream">0</property>
  <property name="astream">0</property>
  <property name="set.test_audio">1</property>
  <property name="set.test_image">0</property>
  <property name="kdenlive:id">39</property>
  <property name="warp_pitch">0</property>
  <property name="meta.media.frame_rate_num">60</property>
  <property name="meta.media.frame_rate_den">1</property>
  <property name="meta.media.colorspace">709</property>
  <property name="meta.media.color_trc">2</property>
  <property name="meta.media.has_b_frames">2</property>
  <property name="meta.media.width">5110</property>
  <property name="meta.media.height">2160</property>
  <property name="meta.media.aspect_ratio">1</property>
  <property name="meta.media.color_range">mpeg</property>
  <property name="meta.media.top_field_first">0</property>
  <property name="meta.media.progressive">1</property>
 </producer>
 <chain id="chain56" out="00:00:05.042">
  <property name="length">122</property>
  <property name="eof">pause</property>
  <property name="resource">C:/dev/workspace/indy/dist/room/attic/content/upscale/wide/cross6.mp4</property>
  <property name="mlt_service">avformat-novalidate</property>
  <property name="seekable">1</property>
  <property name="audio_index">1</property>
  <property name="video_index">0</property>
  <property name="vstream">0</property>
  <property name="astream">0</property>
  <property name="kdenlive:control_uuid">{47a7e1a7-c41e-4aa1-850b-18f1b5b94d22}</property>
  <property name="kdenlive:id">38</property>
  <property name="kdenlive:clip_type">0</property>
  <property name="kdenlive:file_size">15940209</property>
  <property name="kdenlive:file_hash">eac8c128fcc7a1eecde7fc2951b7b320</property>
  <property name="kdenlive:folderid">-1</property>
  <property name="meta.media.nb_streams">2</property>
  <property name="meta.media.0.stream.type">video</property>
  <property name="meta.media.0.stream.frame_rate">60</property>
  <property name="meta.media.0.stream.sample_aspect_ratio">0</property>
  <property name="meta.media.0.codec.width">5110</property>
  <property name="meta.media.0.codec.height">2160</property>
  <property name="meta.media.0.codec.rotate">0</property>
  <property name="meta.media.0.codec.pix_fmt">yuv444p</property>
  <property name="meta.media.0.codec.sample_aspect_ratio">0</property>
  <property name="meta.media.0.codec.colorspace">709</property>
  <property name="meta.media.0.codec.name">h264</property>
  <property name="meta.media.0.codec.long_name">H.264 / AVC / MPEG-4 AVC / MPEG-4 part 10</property>
  <property name="meta.media.0.codec.bit_rate">24986674</property>
  <property name="meta.attr.0.stream.handler_name.markup">VideoHandler</property>
  <property name="meta.attr.0.stream.vendor_id.markup">[0][0][0][0]</property>
  <property name="meta.attr.0.stream.encoder.markup">Lavc61.19.101 libx264</property>
  <property name="meta.media.1.stream.type">audio</property>
  <property name="meta.media.1.codec.sample_fmt">fltp</property>
  <property name="meta.media.1.codec.sample_rate">48000</property>
  <property name="meta.media.1.codec.channels">2</property>
  <property name="meta.media.1.codec.layout">stereo</property>
  <property name="meta.media.1.codec.name">aac</property>
  <property name="meta.media.1.codec.long_name">AAC (Advanced Audio Coding)</property>
  <property name="meta.media.1.codec.bit_rate">2276</property>
  <property name="meta.attr.1.stream.handler_name.markup">SoundHandler</property>
  <property name="meta.attr.1.stream.vendor_id.markup">[0][0][0][0]</property>
  <property name="meta.attr.minor_version.markup">512</property>
  <property name="meta.attr.major_brand.markup">isom</property>
  <property name="meta.attr.compatible_brands.markup">isomiso2avc1mp41</property>
  <property name="meta.attr.encoder.markup">Lavf61.9.100</property>
  <property name="meta.media.sample_aspect_num">1</property>
  <property name="meta.media.sample_aspect_den">1</property>
  <property name="meta.media.frame_rate_num">60</property>
  <property name="meta.media.frame_rate_den">1</property>
  <property name="meta.media.colorspace">709</property>
  <property name="meta.media.color_trc">2</property>
  <property name="meta.media.has_b_frames">2</property>
  <property name="meta.media.width">5110</property>
  <property name="meta.media.height">2160</property>
  <property name="meta.media.aspect_ratio">1</property>
  <property name="meta.media.color_range">mpeg</property>
  <property name="xml">was here</property>
  <property name="mute_on_pause">0</property>
  <property name="meta.media.top_field_first">0</property>
  <property name="meta.media.progressive">1</property>
  <property name="set.test_audio">1</property>
  <property name="set.test_image">0</property>
 </chain>
 <producer id="producer20" in="00:00:00.000" out="00:00:05.042">
  <property name="length">122</property>
  <property name="eof">pause</property>
  <property name="resource">-1.000000:C:/dev/workspace/indy/dist/room/attic/content/upscale/wide/cross6.mp4</property>
  <property name="aspect_ratio">1</property>
  <property name="meta.media.nb_streams">2</property>
  <property name="meta.media.0.stream.type">video</property>
  <property name="meta.media.0.stream.frame_rate">60</property>
  <property name="meta.media.0.stream.sample_aspect_ratio">0</property>
  <property name="meta.media.0.codec.width">5110</property>
  <property name="meta.media.0.codec.height">2160</property>
  <property name="meta.media.0.codec.rotate">0</property>
  <property name="meta.media.0.codec.pix_fmt">yuv444p</property>
  <property name="meta.media.0.codec.sample_aspect_ratio">0</property>
  <property name="meta.media.0.codec.colorspace">709</property>
  <property name="meta.media.0.codec.name">h264</property>
  <property name="meta.media.0.codec.long_name">H.264 / AVC / MPEG-4 AVC / MPEG-4 part 10</property>
  <property name="meta.media.0.codec.bit_rate">24986674</property>
  <property name="meta.attr.0.stream.handler_name.markup">VideoHandler</property>
  <property name="meta.attr.0.stream.vendor_id.markup">[0][0][0][0]</property>
  <property name="meta.attr.0.stream.encoder.markup">Lavc61.19.101 libx264</property>
  <property name="meta.media.1.stream.type">audio</property>
  <property name="meta.media.1.codec.sample_fmt">fltp</property>
  <property name="meta.media.1.codec.sample_rate">48000</property>
  <property name="meta.media.1.codec.channels">2</property>
  <property name="meta.media.1.codec.layout">stereo</property>
  <property name="meta.media.1.codec.name">aac</property>
  <property name="meta.media.1.codec.long_name">AAC (Advanced Audio Coding)</property>
  <property name="meta.media.1.codec.bit_rate">2276</property>
  <property name="meta.attr.1.stream.handler_name.markup">SoundHandler</property>
  <property name="meta.attr.1.stream.vendor_id.markup">[0][0][0][0]</property>
  <property name="meta.attr.minor_version.markup">512</property>
  <property name="meta.attr.major_brand.markup">isom</property>
  <property name="meta.attr.compatible_brands.markup">isomiso2avc1mp41</property>
  <property name="meta.attr.encoder.markup">Lavf61.9.100</property>
  <property name="seekable">1</property>
  <property name="meta.media.sample_aspect_num">1</property>
  <property name="meta.media.sample_aspect_den">1</property>
  <property name="audio_index">1</property>
  <property name="video_index">0</property>
  <property name="warp_speed">-1</property>
  <property name="warp_resource">C:/dev/workspace/indy/dist/room/attic/content/upscale/wide/cross6.mp4</property>
  <property name="mlt_service">timewarp</property>
  <property name="kdenlive:control_uuid">{47a7e1a7-c41e-4aa1-850b-18f1b5b94d22}</property>
  <property name="vstream">0</property>
  <property name="astream">0</property>
  <property name="set.test_audio">1</property>
  <property name="set.test_image">0</property>
  <property name="kdenlive:id">38</property>
  <property name="warp_pitch">0</property>
  <property name="meta.media.frame_rate_num">60</property>
  <property name="meta.media.frame_rate_den">1</property>
  <property name="meta.media.colorspace">709</property>
  <property name="meta.media.color_trc">2</property>
  <property name="meta.media.has_b_frames">2</property>
  <property name="meta.media.width">5110</property>
  <property name="meta.media.height">2160</property>
  <property name="meta.media.aspect_ratio">1</property>
  <property name="meta.media.color_range">mpeg</property>
  <property name="meta.media.top_field_first">0</property>
  <property name="meta.media.progressive">1</property>
 </producer>
 <chain id="chain57" out="00:00:05.042">
  <property name="length">122</property>
  <property name="eof">pause</property>
  <property name="resource">C:/dev/workspace/indy/dist/room/attic/content/upscale/wide/attic19.mp4</property>
  <property name="mlt_service">avformat-novalidate</property>
  <property name="seekable">1</property>
  <property name="audio_index">1</property>
  <property name="video_index">0</property>
  <property name="vstream">0</property>
  <property name="astream">0</property>
  <property name="kdenlive:control_uuid">{ad9a9cd9-5c3c-4f3a-a737-5fd279a8a81a}</property>
  <property name="kdenlive:id">36</property>
  <property name="kdenlive:clip_type">0</property>
  <property name="kdenlive:file_size">18672179</property>
  <property name="kdenlive:file_hash">7634a9872301afc558aef5434b21af5a</property>
  <property name="kdenlive:folderid">-1</property>
  <property name="meta.media.nb_streams">2</property>
  <property name="meta.media.0.stream.type">video</property>
  <property name="meta.media.0.stream.frame_rate">60</property>
  <property name="meta.media.0.stream.sample_aspect_ratio">0</property>
  <property name="meta.media.0.codec.width">5110</property>
  <property name="meta.media.0.codec.height">2160</property>
  <property name="meta.media.0.codec.rotate">0</property>
  <property name="meta.media.0.codec.pix_fmt">yuv444p</property>
  <property name="meta.media.0.codec.sample_aspect_ratio">0</property>
  <property name="meta.media.0.codec.colorspace">709</property>
  <property name="meta.media.0.codec.name">h264</property>
  <property name="meta.media.0.codec.long_name">H.264 / AVC / MPEG-4 AVC / MPEG-4 part 10</property>
  <property name="meta.media.0.codec.bit_rate">29272117</property>
  <property name="meta.attr.0.stream.handler_name.markup">VideoHandler</property>
  <property name="meta.attr.0.stream.vendor_id.markup">[0][0][0][0]</property>
  <property name="meta.attr.0.stream.encoder.markup">Lavc61.19.101 libx264</property>
  <property name="meta.media.1.stream.type">audio</property>
  <property name="meta.media.1.codec.sample_fmt">fltp</property>
  <property name="meta.media.1.codec.sample_rate">48000</property>
  <property name="meta.media.1.codec.channels">2</property>
  <property name="meta.media.1.codec.layout">stereo</property>
  <property name="meta.media.1.codec.name">aac</property>
  <property name="meta.media.1.codec.long_name">AAC (Advanced Audio Coding)</property>
  <property name="meta.media.1.codec.bit_rate">2276</property>
  <property name="meta.attr.1.stream.handler_name.markup">SoundHandler</property>
  <property name="meta.attr.1.stream.vendor_id.markup">[0][0][0][0]</property>
  <property name="meta.attr.minor_version.markup">512</property>
  <property name="meta.attr.major_brand.markup">isom</property>
  <property name="meta.attr.compatible_brands.markup">isomiso2avc1mp41</property>
  <property name="meta.attr.encoder.markup">Lavf61.9.100</property>
  <property name="meta.media.sample_aspect_num">1</property>
  <property name="meta.media.sample_aspect_den">1</property>
  <property name="meta.media.frame_rate_num">60</property>
  <property name="meta.media.frame_rate_den">1</property>
  <property name="meta.media.colorspace">709</property>
  <property name="meta.media.color_trc">2</property>
  <property name="meta.media.has_b_frames">2</property>
  <property name="meta.media.width">5110</property>
  <property name="meta.media.height">2160</property>
  <property name="meta.media.aspect_ratio">1</property>
  <property name="meta.media.color_range">mpeg</property>
  <property name="xml">was here</property>
  <property name="mute_on_pause">0</property>
  <property name="meta.media.top_field_first">0</property>
  <property name="meta.media.progressive">1</property>
  <property name="set.test_audio">1</property>
  <property name="set.test_image">0</property>
 </chain>
 <chain id="chain58" out="00:00:09.542">
  <property name="length">230</property>
  <property name="eof">pause</property>
  <property name="resource">C:/dev/workspace/indy/dist/room/attic/content/upscale/wide/gargoyle6.mp4</property>
  <property name="mlt_service">avformat-novalidate</property>
  <property name="seekable">1</property>
  <property name="audio_index">1</property>
  <property name="video_index">0</property>
  <property name="vstream">0</property>
  <property name="astream">0</property>
  <property name="kdenlive:control_uuid">{3eea0f3a-37f2-4538-a49c-9055fb1c853e}</property>
  <property name="kdenlive:id">43</property>
  <property name="kdenlive:clip_type">0</property>
  <property name="kdenlive:file_size">31115216</property>
  <property name="kdenlive:file_hash">baeabd4779e011ee91135c1d5b7cdb8a</property>
  <property name="kdenlive:folderid">-1</property>
  <property name="meta.media.nb_streams">2</property>
  <property name="meta.media.0.stream.type">video</property>
  <property name="meta.media.0.stream.frame_rate">60</property>
  <property name="meta.media.0.stream.sample_aspect_ratio">0</property>
  <property name="meta.media.0.codec.width">5110</property>
  <property name="meta.media.0.codec.height">2160</property>
  <property name="meta.media.0.codec.rotate">0</property>
  <property name="meta.media.0.codec.pix_fmt">yuv444p</property>
  <property name="meta.media.0.codec.sample_aspect_ratio">0</property>
  <property name="meta.media.0.codec.colorspace">709</property>
  <property name="meta.media.0.codec.name">h264</property>
  <property name="meta.media.0.codec.long_name">H.264 / AVC / MPEG-4 AVC / MPEG-4 part 10</property>
  <property name="meta.media.0.codec.bit_rate">25958618</property>
  <property name="meta.attr.0.stream.handler_name.markup">VideoHandler</property>
  <property name="meta.attr.0.stream.vendor_id.markup">[0][0][0][0]</property>
  <property name="meta.attr.0.stream.encoder.markup">Lavc61.19.101 libx264</property>
  <property name="meta.media.1.stream.type">audio</property>
  <property name="meta.media.1.codec.sample_fmt">fltp</property>
  <property name="meta.media.1.codec.sample_rate">48000</property>
  <property name="meta.media.1.codec.channels">2</property>
  <property name="meta.media.1.codec.layout">stereo</property>
  <property name="meta.media.1.codec.name">aac</property>
  <property name="meta.media.1.codec.long_name">AAC (Advanced Audio Coding)</property>
  <property name="meta.media.1.codec.bit_rate">2265</property>
  <property name="meta.attr.1.stream.handler_name.markup">SoundHandler</property>
  <property name="meta.attr.1.stream.vendor_id.markup">[0][0][0][0]</property>
  <property name="meta.attr.minor_version.markup">512</property>
  <property name="meta.attr.major_brand.markup">isom</property>
  <property name="meta.attr.compatible_brands.markup">isomiso2avc1mp41</property>
  <property name="meta.attr.encoder.markup">Lavf61.9.100</property>
  <property name="meta.media.sample_aspect_num">1</property>
  <property name="meta.media.sample_aspect_den">1</property>
  <property name="meta.media.frame_rate_num">60</property>
  <property name="meta.media.frame_rate_den">1</property>
  <property name="meta.media.colorspace">709</property>
  <property name="meta.media.color_trc">2</property>
  <property name="meta.media.has_b_frames">2</property>
  <property name="meta.media.width">5110</property>
  <property name="meta.media.height">2160</property>
  <property name="meta.media.aspect_ratio">1</property>
  <property name="meta.media.color_range">mpeg</property>
  <property name="xml">was here</property>
  <property name="mute_on_pause">0</property>
  <property name="meta.media.top_field_first">0</property>
  <property name="meta.media.progressive">1</property>
  <property name="set.test_audio">1</property>
  <property name="set.test_image">0</property>
 </chain>
 <producer id="producer22" in="00:00:00.000" out="00:00:09.542">
  <property name="length">230</property>
  <property name="eof">pause</property>
  <property name="resource">-1.000000:C:/dev/workspace/indy/dist/room/attic/content/upscale/wide/gargoyle6.mp4</property>
  <property name="aspect_ratio">1</property>
  <property name="meta.media.nb_streams">2</property>
  <property name="meta.media.0.stream.type">video</property>
  <property name="meta.media.0.stream.frame_rate">60</property>
  <property name="meta.media.0.stream.sample_aspect_ratio">0</property>
  <property name="meta.media.0.codec.width">5110</property>
  <property name="meta.media.0.codec.height">2160</property>
  <property name="meta.media.0.codec.rotate">0</property>
  <property name="meta.media.0.codec.pix_fmt">yuv444p</property>
  <property name="meta.media.0.codec.sample_aspect_ratio">0</property>
  <property name="meta.media.0.codec.colorspace">709</property>
  <property name="meta.media.0.codec.name">h264</property>
  <property name="meta.media.0.codec.long_name">H.264 / AVC / MPEG-4 AVC / MPEG-4 part 10</property>
  <property name="meta.media.0.codec.bit_rate">25958618</property>
  <property name="meta.attr.0.stream.handler_name.markup">VideoHandler</property>
  <property name="meta.attr.0.stream.vendor_id.markup">[0][0][0][0]</property>
  <property name="meta.attr.0.stream.encoder.markup">Lavc61.19.101 libx264</property>
  <property name="meta.media.1.stream.type">audio</property>
  <property name="meta.media.1.codec.sample_fmt">fltp</property>
  <property name="meta.media.1.codec.sample_rate">48000</property>
  <property name="meta.media.1.codec.channels">2</property>
  <property name="meta.media.1.codec.layout">stereo</property>
  <property name="meta.media.1.codec.name">aac</property>
  <property name="meta.media.1.codec.long_name">AAC (Advanced Audio Coding)</property>
  <property name="meta.media.1.codec.bit_rate">2265</property>
  <property name="meta.attr.1.stream.handler_name.markup">SoundHandler</property>
  <property name="meta.attr.1.stream.vendor_id.markup">[0][0][0][0]</property>
  <property name="meta.attr.minor_version.markup">512</property>
  <property name="meta.attr.major_brand.markup">isom</property>
  <property name="meta.attr.compatible_brands.markup">isomiso2avc1mp41</property>
  <property name="meta.attr.encoder.markup">Lavf61.9.100</property>
  <property name="seekable">1</property>
  <property name="meta.media.sample_aspect_num">1</property>
  <property name="meta.media.sample_aspect_den">1</property>
  <property name="audio_index">1</property>
  <property name="video_index">0</property>
  <property name="warp_speed">-1</property>
  <property name="warp_resource">C:/dev/workspace/indy/dist/room/attic/content/upscale/wide/gargoyle6.mp4</property>
  <property name="mlt_service">timewarp</property>
  <property name="kdenlive:control_uuid">{3eea0f3a-37f2-4538-a49c-9055fb1c853e}</property>
  <property name="vstream">0</property>
  <property name="astream">0</property>
  <property name="set.test_audio">1</property>
  <property name="set.test_image">0</property>
  <property name="kdenlive:id">43</property>
  <property name="warp_pitch">0</property>
  <property name="meta.media.frame_rate_num">60</property>
  <property name="meta.media.frame_rate_den">1</property>
  <property name="meta.media.colorspace">709</property>
  <property name="meta.media.color_trc">2</property>
  <property name="meta.media.has_b_frames">2</property>
  <property name="meta.media.width">5110</property>
  <property name="meta.media.height">2160</property>
  <property name="meta.media.aspect_ratio">1</property>
  <property name="meta.media.color_range">mpeg</property>
  <property name="meta.media.top_field_first">0</property>
  <property name="meta.media.progressive">1</property>
 </producer>
 <chain id="chain59" out="00:00:03.958">
  <property name="length">96</property>
  <property name="eof">pause</property>
  <property name="resource">C:/dev/workspace/indy/dist/room/attic/content/upscale/wide/dialog2.mp4</property>
  <property name="mlt_service">avformat-novalidate</property>
  <property name="seekable">1</property>
  <property name="audio_index">1</property>
  <property name="video_index">0</property>
  <property name="vstream">0</property>
  <property name="astream">0</property>
  <property name="kdenlive:control_uuid">{5e3cc123-1bc0-48b1-b4f0-95a228062a74}</property>
  <property name="kdenlive:id">40</property>
  <property name="kdenlive:clip_type">0</property>
  <property name="kdenlive:file_size">14903078</property>
  <property name="kdenlive:file_hash">ad9b36e465a7ff9e361792370a9fb3bc</property>
  <property name="kdenlive:folderid">-1</property>
  <property name="meta.media.nb_streams">2</property>
  <property name="meta.media.0.stream.type">video</property>
  <property name="meta.media.0.stream.frame_rate">60</property>
  <property name="meta.media.0.stream.sample_aspect_ratio">0</property>
  <property name="meta.media.0.codec.width">5110</property>
  <property name="meta.media.0.codec.height">2160</property>
  <property name="meta.media.0.codec.rotate">0</property>
  <property name="meta.media.0.codec.pix_fmt">yuv444p</property>
  <property name="meta.media.0.codec.sample_aspect_ratio">0</property>
  <property name="meta.media.0.codec.colorspace">709</property>
  <property name="meta.media.0.codec.name">h264</property>
  <property name="meta.media.0.codec.long_name">H.264 / AVC / MPEG-4 AVC / MPEG-4 part 10</property>
  <property name="meta.media.0.codec.bit_rate">29717736</property>
  <property name="meta.attr.0.stream.handler_name.markup">VideoHandler</property>
  <property name="meta.attr.0.stream.vendor_id.markup">[0][0][0][0]</property>
  <property name="meta.attr.0.stream.encoder.markup">Lavc61.19.101 libx264</property>
  <property name="meta.media.1.stream.type">audio</property>
  <property name="meta.media.1.codec.sample_fmt">fltp</property>
  <property name="meta.media.1.codec.sample_rate">48000</property>
  <property name="meta.media.1.codec.channels">2</property>
  <property name="meta.media.1.codec.layout">stereo</property>
  <property name="meta.media.1.codec.name">aac</property>
  <property name="meta.media.1.codec.long_name">AAC (Advanced Audio Coding)</property>
  <property name="meta.media.1.codec.bit_rate">2250</property>
  <property name="meta.attr.1.stream.handler_name.markup">SoundHandler</property>
  <property name="meta.attr.1.stream.vendor_id.markup">[0][0][0][0]</property>
  <property name="meta.attr.minor_version.markup">512</property>
  <property name="meta.attr.major_brand.markup">isom</property>
  <property name="meta.attr.compatible_brands.markup">isomiso2avc1mp41</property>
  <property name="meta.attr.encoder.markup">Lavf61.9.100</property>
  <property name="meta.media.sample_aspect_num">1</property>
  <property name="meta.media.sample_aspect_den">1</property>
  <property name="meta.media.frame_rate_num">60</property>
  <property name="meta.media.frame_rate_den">1</property>
  <property name="meta.media.colorspace">709</property>
  <property name="meta.media.color_trc">2</property>
  <property name="meta.media.has_b_frames">2</property>
  <property name="meta.media.width">5110</property>
  <property name="meta.media.height">2160</property>
  <property name="meta.media.aspect_ratio">1</property>
  <property name="meta.media.color_range">mpeg</property>
  <property name="xml">was here</property>
  <property name="mute_on_pause">0</property>
  <property name="meta.media.top_field_first">0</property>
  <property name="meta.media.progressive">1</property>
  <property name="set.test_audio">1</property>
  <property name="set.test_image">0</property>
 </chain>
 <chain id="chain60" out="00:00:08.958">
  <property name="length">216</property>
  <property name="eof">pause</property>
  <property name="resource">C:/dev/workspace/indy/dist/room/attic/content/upscale/wide/attic11-1.mp4</property>
  <property name="mlt_service">avformat-novalidate</property>
  <property name="seekable">1</property>
  <property name="audio_index">1</property>
  <property name="video_index">0</property>
  <property name="vstream">0</property>
  <property name="astream">0</property>
  <property name="kdenlive:control_uuid">{017a4357-fc50-4b3f-b1f9-76c667b28b9b}</property>
  <property name="kdenlive:id">56</property>
  <property name="kdenlive:clip_type">0</property>
  <property name="kdenlive:file_size">37816964</property>
  <property name="kdenlive:file_hash">71db133abe27e5eaddbc13430c96b570</property>
  <property name="kdenlive:folderid">-1</property>
  <property name="meta.media.nb_streams">2</property>
  <property name="meta.media.0.stream.type">video</property>
  <property name="meta.media.0.stream.frame_rate">60</property>
  <property name="meta.media.0.stream.sample_aspect_ratio">0</property>
  <property name="meta.media.0.codec.width">5110</property>
  <property name="meta.media.0.codec.height">2160</property>
  <property name="meta.media.0.codec.rotate">0</property>
  <property name="meta.media.0.codec.pix_fmt">yuv444p</property>
  <property name="meta.media.0.codec.sample_aspect_ratio">0</property>
  <property name="meta.media.0.codec.colorspace">709</property>
  <property name="meta.media.0.codec.name">h264</property>
  <property name="meta.media.0.codec.long_name">H.264 / AVC / MPEG-4 AVC / MPEG-4 part 10</property>
  <property name="meta.media.0.codec.bit_rate">33598611</property>
  <property name="meta.attr.0.stream.handler_name.markup">VideoHandler</property>
  <property name="meta.attr.0.stream.vendor_id.markup">[0][0][0][0]</property>
  <property name="meta.attr.0.stream.encoder.markup">Lavc61.19.101 libx264</property>
  <property name="meta.media.1.stream.type">audio</property>
  <property name="meta.media.1.codec.sample_fmt">fltp</property>
  <property name="meta.media.1.codec.sample_rate">48000</property>
  <property name="meta.media.1.codec.channels">2</property>
  <property name="meta.media.1.codec.layout">stereo</property>
  <property name="meta.media.1.codec.name">aac</property>
  <property name="meta.media.1.codec.long_name">AAC (Advanced Audio Coding)</property>
  <property name="meta.media.1.codec.bit_rate">2265</property>
  <property name="meta.attr.1.stream.handler_name.markup">SoundHandler</property>
  <property name="meta.attr.1.stream.vendor_id.markup">[0][0][0][0]</property>
  <property name="meta.attr.minor_version.markup">512</property>
  <property name="meta.attr.major_brand.markup">isom</property>
  <property name="meta.attr.compatible_brands.markup">isomiso2avc1mp41</property>
  <property name="meta.attr.encoder.markup">Lavf61.9.100</property>
  <property name="meta.media.sample_aspect_num">1</property>
  <property name="meta.media.sample_aspect_den">1</property>
  <property name="meta.media.frame_rate_num">60</property>
  <property name="meta.media.frame_rate_den">1</property>
  <property name="meta.media.colorspace">709</property>
  <property name="meta.media.color_trc">2</property>
  <property name="meta.media.has_b_frames">2</property>
  <property name="meta.media.width">5110</property>
  <property name="meta.media.height">2160</property>
  <property name="meta.media.aspect_ratio">1</property>
  <property name="meta.media.color_range">mpeg</property>
  <property name="xml">was here</property>
  <property name="mute_on_pause">0</property>
  <property name="meta.media.top_field_first">0</property>
  <property name="meta.media.progressive">1</property>
  <property name="set.test_audio">1</property>
  <property name="set.test_image">0</property>
 </chain>
 <chain id="chain61" out="00:00:05.042">
  <property name="length">122</property>
  <property name="eof">pause</property>
  <property name="resource">C:/dev/workspace/indy/dist/room/attic/content/upscale/wide/attic11-2.mp4</property>
  <property name="mlt_service">avformat-novalidate</property>
  <property name="seekable">1</property>
  <property name="audio_index">1</property>
  <property name="video_index">0</property>
  <property name="vstream">0</property>
  <property name="astream">0</property>
  <property name="kdenlive:control_uuid">{3c5fdc43-550a-4800-b8ca-fa6cce16a6d6}</property>
  <property name="kdenlive:id">57</property>
  <property name="kdenlive:clip_type">0</property>
  <property name="kdenlive:file_size">19438912</property>
  <property name="kdenlive:file_hash">0e9b7dac07d3bc9992b5f41d71b7e373</property>
  <property name="kdenlive:folderid">-1</property>
  <property name="meta.media.nb_streams">2</property>
  <property name="meta.media.0.stream.type">video</property>
  <property name="meta.media.0.stream.frame_rate">60</property>
  <property name="meta.media.0.stream.sample_aspect_ratio">0</property>
  <property name="meta.media.0.codec.width">5110</property>
  <property name="meta.media.0.codec.height">2160</property>
  <property name="meta.media.0.codec.rotate">0</property>
  <property name="meta.media.0.codec.pix_fmt">yuv444p</property>
  <property name="meta.media.0.codec.sample_aspect_ratio">0</property>
  <property name="meta.media.0.codec.colorspace">709</property>
  <property name="meta.media.0.codec.name">h264</property>
  <property name="meta.media.0.codec.long_name">H.264 / AVC / MPEG-4 AVC / MPEG-4 part 10</property>
  <property name="meta.media.0.codec.bit_rate">30474836</property>
  <property name="meta.attr.0.stream.handler_name.markup">VideoHandler</property>
  <property name="meta.attr.0.stream.vendor_id.markup">[0][0][0][0]</property>
  <property name="meta.attr.0.stream.encoder.markup">Lavc61.19.101 libx264</property>
  <property name="meta.media.1.stream.type">audio</property>
  <property name="meta.media.1.codec.sample_fmt">fltp</property>
  <property name="meta.media.1.codec.sample_rate">48000</property>
  <property name="meta.media.1.codec.channels">2</property>
  <property name="meta.media.1.codec.layout">stereo</property>
  <property name="meta.media.1.codec.name">aac</property>
  <property name="meta.media.1.codec.long_name">AAC (Advanced Audio Coding)</property>
  <property name="meta.media.1.codec.bit_rate">2276</property>
  <property name="meta.attr.1.stream.handler_name.markup">SoundHandler</property>
  <property name="meta.attr.1.stream.vendor_id.markup">[0][0][0][0]</property>
  <property name="meta.attr.minor_version.markup">512</property>
  <property name="meta.attr.major_brand.markup">isom</property>
  <property name="meta.attr.compatible_brands.markup">isomiso2avc1mp41</property>
  <property name="meta.attr.encoder.markup">Lavf61.9.100</property>
  <property name="meta.media.sample_aspect_num">1</property>
  <property name="meta.media.sample_aspect_den">1</property>
  <property name="meta.media.frame_rate_num">60</property>
  <property name="meta.media.frame_rate_den">1</property>
  <property name="meta.media.colorspace">709</property>
  <property name="meta.media.color_trc">2</property>
  <property name="meta.media.has_b_frames">2</property>
  <property name="meta.media.width">5110</property>
  <property name="meta.media.height">2160</property>
  <property name="meta.media.aspect_ratio">1</property>
  <property name="meta.media.color_range">mpeg</property>
  <property name="xml">was here</property>
  <property name="mute_on_pause">0</property>
  <property name="meta.media.top_field_first">0</property>
  <property name="meta.media.progressive">1</property>
  <property name="set.test_audio">1</property>
  <property name="set.test_image">0</property>
 </chain>
 <chain id="chain62" out="00:00:05.042">
  <property name="length">122</property>
  <property name="eof">pause</property>
  <property name="resource">C:/dev/workspace/indy/dist/room/attic/content/upscale/wide/attic12.mp4</property>
  <property name="mlt_service">avformat-novalidate</property>
  <property name="seekable">1</property>
  <property name="audio_index">1</property>
  <property name="video_index">0</property>
  <property name="vstream">0</property>
  <property name="astream">0</property>
  <property name="kdenlive:control_uuid">{99033c3d-8dfc-4a46-8477-1c02f7bb170e}</property>
  <property name="kdenlive:id">58</property>
  <property name="kdenlive:clip_type">0</property>
  <property name="kdenlive:file_size">15151268</property>
  <property name="kdenlive:file_hash">53d0917b6f0926f1f31822cbef76a541</property>
  <property name="kdenlive:folderid">-1</property>
  <property name="meta.media.nb_streams">2</property>
  <property name="meta.media.0.stream.type">video</property>
  <property name="meta.media.0.stream.frame_rate">60</property>
  <property name="meta.media.0.stream.sample_aspect_ratio">0</property>
  <property name="meta.media.0.codec.width">5110</property>
  <property name="meta.media.0.codec.height">2160</property>
  <property name="meta.media.0.codec.rotate">0</property>
  <property name="meta.media.0.codec.pix_fmt">yuv444p</property>
  <property name="meta.media.0.codec.sample_aspect_ratio">0</property>
  <property name="meta.media.0.codec.colorspace">709</property>
  <property name="meta.media.0.codec.name">h264</property>
  <property name="meta.media.0.codec.long_name">H.264 / AVC / MPEG-4 AVC / MPEG-4 part 10</property>
  <property name="meta.media.0.codec.bit_rate">23749145</property>
  <property name="meta.attr.0.stream.handler_name.markup">VideoHandler</property>
  <property name="meta.attr.0.stream.vendor_id.markup">[0][0][0][0]</property>
  <property name="meta.attr.0.stream.encoder.markup">Lavc61.19.101 libx264</property>
  <property name="meta.media.1.stream.type">audio</property>
  <property name="meta.media.1.codec.sample_fmt">fltp</property>
  <property name="meta.media.1.codec.sample_rate">48000</property>
  <property name="meta.media.1.codec.channels">2</property>
  <property name="meta.media.1.codec.layout">stereo</property>
  <property name="meta.media.1.codec.name">aac</property>
  <property name="meta.media.1.codec.long_name">AAC (Advanced Audio Coding)</property>
  <property name="meta.media.1.codec.bit_rate">2276</property>
  <property name="meta.attr.1.stream.handler_name.markup">SoundHandler</property>
  <property name="meta.attr.1.stream.vendor_id.markup">[0][0][0][0]</property>
  <property name="meta.attr.minor_version.markup">512</property>
  <property name="meta.attr.major_brand.markup">isom</property>
  <property name="meta.attr.compatible_brands.markup">isomiso2avc1mp41</property>
  <property name="meta.attr.encoder.markup">Lavf61.9.100</property>
  <property name="meta.media.sample_aspect_num">1</property>
  <property name="meta.media.sample_aspect_den">1</property>
  <property name="meta.media.frame_rate_num">60</property>
  <property name="meta.media.frame_rate_den">1</property>
  <property name="meta.media.colorspace">709</property>
  <property name="meta.media.color_trc">2</property>
  <property name="meta.media.has_b_frames">2</property>
  <property name="meta.media.width">5110</property>
  <property name="meta.media.height">2160</property>
  <property name="meta.media.aspect_ratio">1</property>
  <property name="meta.media.color_range">mpeg</property>
  <property name="xml">was here</property>
  <property name="mute_on_pause">0</property>
  <property name="meta.media.top_field_first">0</property>
  <property name="meta.media.progressive">1</property>
  <property name="set.test_audio">1</property>
  <property name="set.test_image">0</property>
 </chain>
 <chain id="chain63" out="00:00:05.042">
  <property name="length">122</property>
  <property name="eof">pause</property>
  <property name="resource">C:/dev/workspace/indy/dist/room/attic2/content/upscale/wide/indy.mp4</property>
  <property name="mlt_service">avformat-novalidate</property>
  <property name="seekable">1</property>
  <property name="audio_index">-1</property>
  <property name="video_index">0</property>
  <property name="vstream">0</property>
  <property name="kdenlive:control_uuid">{0bf7c8a8-76e0-4d93-8782-da6eb447392c}</property>
  <property name="kdenlive:id">59</property>
  <property name="kdenlive:clip_type">2</property>
  <property name="kdenlive:file_size">19028042</property>
  <property name="kdenlive:file_hash">0675045958571130564f9339d061eeda</property>
  <property name="kdenlive:folderid">-1</property>
  <property name="meta.media.nb_streams">1</property>
  <property name="meta.media.0.stream.type">video</property>
  <property name="meta.media.0.stream.frame_rate">60</property>
  <property name="meta.media.0.stream.sample_aspect_ratio">0</property>
  <property name="meta.media.0.codec.width">5110</property>
  <property name="meta.media.0.codec.height">2160</property>
  <property name="meta.media.0.codec.rotate">0</property>
  <property name="meta.media.0.codec.pix_fmt">yuv444p</property>
  <property name="meta.media.0.codec.sample_aspect_ratio">0</property>
  <property name="meta.media.0.codec.colorspace">709</property>
  <property name="meta.media.0.codec.name">h264</property>
  <property name="meta.media.0.codec.long_name">H.264 / AVC / MPEG-4 AVC / MPEG-4 part 10</property>
  <property name="meta.media.0.codec.bit_rate">29937958</property>
  <property name="meta.attr.0.stream.handler_name.markup">VideoHandler</property>
  <property name="meta.attr.0.stream.vendor_id.markup">[0][0][0][0]</property>
  <property name="meta.attr.0.stream.encoder.markup">Lavc61.19.101 libx264</property>
  <property name="meta.attr.minor_version.markup">512</property>
  <property name="meta.attr.major_brand.markup">isom</property>
  <property name="meta.attr.compatible_brands.markup">isomiso2avc1mp41</property>
  <property name="meta.attr.encoder.markup">Lavf61.9.100</property>
  <property name="meta.media.sample_aspect_num">1</property>
  <property name="meta.media.sample_aspect_den">1</property>
  <property name="meta.media.frame_rate_num">60</property>
  <property name="meta.media.frame_rate_den">1</property>
  <property name="meta.media.colorspace">709</property>
  <property name="meta.media.color_trc">2</property>
  <property name="meta.media.has_b_frames">2</property>
  <property name="meta.media.width">5110</property>
  <property name="meta.media.height">2160</property>
  <property name="meta.media.aspect_ratio">1</property>
  <property name="meta.media.color_range">mpeg</property>
  <property name="xml">was here</property>
  <property name="mute_on_pause">0</property>
  <property name="meta.media.top_field_first">0</property>
  <property name="meta.media.progressive">1</property>
  <property name="set.test_audio">1</property>
  <property name="set.test_image">0</property>
 </chain>
 <producer id="producer23" in="00:00:00.000" out="00:00:04.625">
  <property name="length">112</property>
  <property name="eof">pause</property>
  <property name="resource">-1.000000:C:/dev/workspace/indy/dist/room/attic2/content/upscale/wide/indy2.mp4</property>
  <property name="aspect_ratio">1</property>
  <property name="meta.media.nb_streams">2</property>
  <property name="meta.media.0.stream.type">video</property>
  <property name="meta.media.0.stream.frame_rate">60</property>
  <property name="meta.media.0.stream.sample_aspect_ratio">0</property>
  <property name="meta.media.0.codec.width">5110</property>
  <property name="meta.media.0.codec.height">2160</property>
  <property name="meta.media.0.codec.rotate">0</property>
  <property name="meta.media.0.codec.pix_fmt">yuv444p</property>
  <property name="meta.media.0.codec.sample_aspect_ratio">0</property>
  <property name="meta.media.0.codec.colorspace">709</property>
  <property name="meta.media.0.codec.name">h264</property>
  <property name="meta.media.0.codec.long_name">H.264 / AVC / MPEG-4 AVC / MPEG-4 part 10</property>
  <property name="meta.media.0.codec.bit_rate">37204350</property>
  <property name="meta.attr.0.stream.handler_name.markup">VideoHandler</property>
  <property name="meta.attr.0.stream.vendor_id.markup">[0][0][0][0]</property>
  <property name="meta.attr.0.stream.encoder.markup">Lavc61.19.101 libx264</property>
  <property name="meta.media.1.stream.type">audio</property>
  <property name="meta.media.1.codec.sample_fmt">fltp</property>
  <property name="meta.media.1.codec.sample_rate">48000</property>
  <property name="meta.media.1.codec.channels">2</property>
  <property name="meta.media.1.codec.layout">stereo</property>
  <property name="meta.media.1.codec.name">aac</property>
  <property name="meta.media.1.codec.long_name">AAC (Advanced Audio Coding)</property>
  <property name="meta.media.1.codec.bit_rate">2279</property>
  <property name="meta.attr.1.stream.handler_name.markup">SoundHandler</property>
  <property name="meta.attr.1.stream.vendor_id.markup">[0][0][0][0]</property>
  <property name="meta.attr.minor_version.markup">512</property>
  <property name="meta.attr.major_brand.markup">isom</property>
  <property name="meta.attr.compatible_brands.markup">isomiso2avc1mp41</property>
  <property name="meta.attr.encoder.markup">Lavf61.9.100</property>
  <property name="seekable">1</property>
  <property name="meta.media.sample_aspect_num">1</property>
  <property name="meta.media.sample_aspect_den">1</property>
  <property name="audio_index">-1</property>
  <property name="video_index">0</property>
  <property name="warp_speed">-1</property>
  <property name="warp_resource">C:/dev/workspace/indy/dist/room/attic2/content/upscale/wide/indy2.mp4</property>
  <property name="mlt_service">timewarp</property>
  <property name="kdenlive:control_uuid">{64c3a609-5d20-4645-93c5-c0de008f3e25}</property>
  <property name="vstream">0</property>
  <property name="astream">-1</property>
  <property name="set.test_audio">1</property>
  <property name="set.test_image">0</property>
  <property name="kdenlive:id">60</property>
  <property name="warp_pitch">0</property>
  <property name="meta.media.frame_rate_num">60</property>
  <property name="meta.media.frame_rate_den">1</property>
  <property name="meta.media.colorspace">709</property>
  <property name="meta.media.color_trc">2</property>
  <property name="meta.media.has_b_frames">2</property>
  <property name="meta.media.width">5110</property>
  <property name="meta.media.height">2160</property>
  <property name="meta.media.aspect_ratio">1</property>
  <property name="meta.media.color_range">mpeg</property>
  <property name="meta.media.top_field_first">0</property>
  <property name="meta.media.progressive">1</property>
 </producer>
 <producer id="producer30" in="00:00:00.000" out="00:00:03.958">
  <property name="length">96</property>
  <property name="eof">pause</property>
  <property name="resource">1.162500:C:/dev/workspace/indy/dist/room/attic2/content/upscale/wide/indy4.mp4</property>
  <property name="aspect_ratio">1</property>
  <property name="meta.media.nb_streams">2</property>
  <property name="meta.media.0.stream.type">video</property>
  <property name="meta.media.0.stream.frame_rate">60</property>
  <property name="meta.media.0.stream.sample_aspect_ratio">0</property>
  <property name="meta.media.0.codec.width">5110</property>
  <property name="meta.media.0.codec.height">2160</property>
  <property name="meta.media.0.codec.rotate">0</property>
  <property name="meta.media.0.codec.pix_fmt">yuv444p</property>
  <property name="meta.media.0.codec.sample_aspect_ratio">0</property>
  <property name="meta.media.0.codec.colorspace">709</property>
  <property name="meta.media.0.codec.name">h264</property>
  <property name="meta.media.0.codec.long_name">H.264 / AVC / MPEG-4 AVC / MPEG-4 part 10</property>
  <property name="meta.media.0.codec.bit_rate">37200646</property>
  <property name="meta.attr.0.stream.handler_name.markup">VideoHandler</property>
  <property name="meta.attr.0.stream.vendor_id.markup">[0][0][0][0]</property>
  <property name="meta.attr.0.stream.encoder.markup">Lavc61.19.101 libx264</property>
  <property name="meta.media.1.stream.type">audio</property>
  <property name="meta.media.1.codec.sample_fmt">fltp</property>
  <property name="meta.media.1.codec.sample_rate">48000</property>
  <property name="meta.media.1.codec.channels">2</property>
  <property name="meta.media.1.codec.layout">stereo</property>
  <property name="meta.media.1.codec.name">aac</property>
  <property name="meta.media.1.codec.long_name">AAC (Advanced Audio Coding)</property>
  <property name="meta.media.1.codec.bit_rate">2279</property>
  <property name="meta.attr.1.stream.handler_name.markup">SoundHandler</property>
  <property name="meta.attr.1.stream.vendor_id.markup">[0][0][0][0]</property>
  <property name="meta.attr.minor_version.markup">512</property>
  <property name="meta.attr.major_brand.markup">isom</property>
  <property name="meta.attr.compatible_brands.markup">isomiso2avc1mp41</property>
  <property name="meta.attr.encoder.markup">Lavf61.9.100</property>
  <property name="seekable">1</property>
  <property name="meta.media.sample_aspect_num">1</property>
  <property name="meta.media.sample_aspect_den">1</property>
  <property name="audio_index">-1</property>
  <property name="video_index">0</property>
  <property name="warp_speed">1.1625</property>
  <property name="warp_resource">C:/dev/workspace/indy/dist/room/attic2/content/upscale/wide/indy4.mp4</property>
  <property name="mlt_service">timewarp</property>
  <property name="kdenlive:control_uuid">{0ec0567e-2b79-4a68-8520-02c5e24bd8c7}</property>
  <property name="vstream">0</property>
  <property name="astream">-1</property>
  <property name="set.test_audio">1</property>
  <property name="set.test_image">0</property>
  <property name="kdenlive:id">62</property>
  <property name="warp_pitch">0</property>
  <property name="meta.media.frame_rate_num">60</property>
  <property name="meta.media.frame_rate_den">1</property>
  <property name="meta.media.colorspace">709</property>
  <property name="meta.media.color_trc">2</property>
  <property name="meta.media.has_b_frames">2</property>
  <property name="meta.media.width">5110</property>
  <property name="meta.media.height">2160</property>
  <property name="meta.media.aspect_ratio">1</property>
  <property name="meta.media.color_range">mpeg</property>
  <property name="meta.media.top_field_first">0</property>
  <property name="meta.media.progressive">1</property>
 </producer>
 <producer id="producer31" in="00:00:00.000" out="00:00:05.042">
  <property name="length">122</property>
  <property name="eof">pause</property>
  <property name="resource">-1.000000:C:/dev/workspace/indy/dist/room/attic2/content/upscale/wide/indy6.mp4</property>
  <property name="aspect_ratio">1</property>
  <property name="meta.media.nb_streams">2</property>
  <property name="meta.media.0.stream.type">video</property>
  <property name="meta.media.0.stream.frame_rate">60</property>
  <property name="meta.media.0.stream.sample_aspect_ratio">0</property>
  <property name="meta.media.0.codec.width">5110</property>
  <property name="meta.media.0.codec.height">2160</property>
  <property name="meta.media.0.codec.rotate">0</property>
  <property name="meta.media.0.codec.pix_fmt">yuv444p</property>
  <property name="meta.media.0.codec.sample_aspect_ratio">0</property>
  <property name="meta.media.0.codec.colorspace">709</property>
  <property name="meta.media.0.codec.name">h264</property>
  <property name="meta.media.0.codec.long_name">H.264 / AVC / MPEG-4 AVC / MPEG-4 part 10</property>
  <property name="meta.media.0.codec.bit_rate">26503725</property>
  <property name="meta.attr.0.stream.handler_name.markup">VideoHandler</property>
  <property name="meta.attr.0.stream.vendor_id.markup">[0][0][0][0]</property>
  <property name="meta.attr.0.stream.encoder.markup">Lavc61.19.101 libx264</property>
  <property name="meta.media.1.stream.type">audio</property>
  <property name="meta.media.1.codec.sample_fmt">fltp</property>
  <property name="meta.media.1.codec.sample_rate">48000</property>
  <property name="meta.media.1.codec.channels">2</property>
  <property name="meta.media.1.codec.layout">stereo</property>
  <property name="meta.media.1.codec.name">aac</property>
  <property name="meta.media.1.codec.long_name">AAC (Advanced Audio Coding)</property>
  <property name="meta.media.1.codec.bit_rate">2276</property>
  <property name="meta.attr.1.stream.handler_name.markup">SoundHandler</property>
  <property name="meta.attr.1.stream.vendor_id.markup">[0][0][0][0]</property>
  <property name="meta.attr.minor_version.markup">512</property>
  <property name="meta.attr.major_brand.markup">isom</property>
  <property name="meta.attr.compatible_brands.markup">isomiso2avc1mp41</property>
  <property name="meta.attr.encoder.markup">Lavf61.9.100</property>
  <property name="seekable">1</property>
  <property name="meta.media.sample_aspect_num">1</property>
  <property name="meta.media.sample_aspect_den">1</property>
  <property name="audio_index">1</property>
  <property name="video_index">0</property>
  <property name="warp_speed">-1</property>
  <property name="warp_resource">C:/dev/workspace/indy/dist/room/attic2/content/upscale/wide/indy6.mp4</property>
  <property name="mlt_service">timewarp</property>
  <property name="kdenlive:control_uuid">{7ebad5ea-c89a-4078-8d49-c906b1ff91a7}</property>
  <property name="vstream">0</property>
  <property name="astream">0</property>
  <property name="set.test_audio">1</property>
  <property name="set.test_image">0</property>
  <property name="kdenlive:id">70</property>
  <property name="warp_pitch">0</property>
  <property name="meta.media.frame_rate_num">60</property>
  <property name="meta.media.frame_rate_den">1</property>
  <property name="meta.media.colorspace">709</property>
  <property name="meta.media.color_trc">2</property>
  <property name="meta.media.has_b_frames">2</property>
  <property name="meta.media.width">5110</property>
  <property name="meta.media.height">2160</property>
  <property name="meta.media.aspect_ratio">1</property>
  <property name="meta.media.color_range">mpeg</property>
  <property name="meta.media.top_field_first">0</property>
  <property name="meta.media.progressive">1</property>
 </producer>
 <playlist id="playlist14">
  <entry in="00:00:00.000" out="00:00:02.958" producer="chain49">
   <property name="kdenlive:id">45</property>
   <filter id="filter153">
    <property name="rotate_center">1</property>
    <property name="mlt_service">qtblend</property>
    <property name="kdenlive_id">qtblend</property>
    <property name="compositing">0</property>
    <property name="distort">0</property>
    <property name="rect">00:00:00.000=0 0 5110 2160 1.000000</property>
    <property name="rotation">00:00:00.000=0</property>
    <property name="kdenlive:collapsed">0</property>
   </filter>
   <filter id="filter154">
    <property name="version">0.1</property>
    <property name="mlt_service">frei0r.scale0tilt</property>
    <property name="kdenlive_id">frei0r.scale0tilt</property>
    <property name="Clip left">00:00:00.000=0</property>
    <property name="Clip right">00:00:00.000=0.876938</property>
    <property name="Clip top">00:00:00.000=0</property>
    <property name="Clip bottom">00:00:00.000=0</property>
    <property name="Scale X">00:00:00.000=0.52</property>
    <property name="Scale Y">00:00:00.000=0.5</property>
    <property name="Tilt X">00:00:00.000=0.5</property>
    <property name="Tilt Y">00:00:00.000=0.5</property>
    <property name="kdenlive:collapsed">0</property>
   </filter>
   <filter id="filter155">
    <property name="version">0.2</property>
    <property name="mlt_service">frei0r.coloradj_RGB</property>
    <property name="kdenlive_id">frei0r.coloradj_RGB</property>
    <property name="R">00:00:00.000=0.4</property>
    <property name="G">00:00:00.000=0.7</property>
    <property name="B">00:00:00.000=0.8</property>
    <property name="Action">0.5</property>
    <property name="Keep luma">1</property>
    <property name="Alpha controlled">0</property>
    <property name="Luma formula">1</property>
    <property name="kdenlive:collapsed">0</property>
   </filter>
  </entry>
  <entry in="00:00:00.083" out="00:00:05.042" producer="producer14">
   <property name="kdenlive:id">44</property>
   <filter id="filter156">
    <property name="rotate_center">1</property>
    <property name="mlt_service">qtblend</property>
    <property name="kdenlive_id">qtblend</property>
    <property name="compositing">0</property>
    <property name="distort">1</property>
    <property name="rect">00:00:00.083=0 -80 5110 2320 1.000000</property>
    <property name="rotation">00:00:00.083=0</property>
    <property name="kdenlive:collapsed">1</property>
   </filter>
   <filter id="filter157">
    <property name="version">0.1</property>
    <property name="mlt_service">frei0r.scale0tilt</property>
    <property name="kdenlive_id">frei0r.scale0tilt</property>
    <property name="Clip left">00:00:00.083=0</property>
    <property name="Clip right">00:00:00.083=0.876938</property>
    <property name="Clip top">00:00:00.083=0</property>
    <property name="Clip bottom">00:00:00.083=0</property>
    <property name="Scale X">00:00:00.083=0.52</property>
    <property name="Scale Y">00:00:00.083=0.5</property>
    <property name="Tilt X">00:00:00.083=0.5</property>
    <property name="Tilt Y">00:00:00.083=0.5</property>
    <property name="kdenlive:collapsed">1</property>
   </filter>
   <filter id="filter158">
    <property name="rotate_center">1</property>
    <property name="mlt_service">qtblend</property>
    <property name="kdenlive_id">qtblend</property>
    <property name="compositing">0</property>
    <property name="distort">0</property>
    <property name="rect">00:00:00.083=0 0 5160 2160 1.000000;00:00:04.083=0 0 5160 2160 1.000000;00:00:05.042=-108 0 5160 2160 1.000000</property>
    <property name="rotation">00:00:00.083=0;00:00:04.083=0;00:00:05.042=0</property>
    <property name="kdenlive:collapsed">0</property>
   </filter>
  </entry>
  <entry in="00:00:00.000" out="00:00:04.958" producer="chain51">
   <property name="kdenlive:id">41</property>
   <filter id="filter159">
    <property name="rotate_center">1</property>
    <property name="mlt_service">qtblend</property>
    <property name="kdenlive_id">qtblend</property>
    <property name="compositing">0</property>
    <property name="distort">0</property>
    <property name="rect">00:00:00.000=0 0 5110 2160 1.000000</property>
    <property name="rotation">00:00:00.000=0</property>
    <property name="kdenlive:collapsed">0</property>
   </filter>
   <filter id="filter160">
    <property name="version">0.1</property>
    <property name="mlt_service">frei0r.scale0tilt</property>
    <property name="kdenlive_id">frei0r.scale0tilt</property>
    <property name="Clip left">00:00:00.000=0</property>
    <property name="Clip right">00:00:00.000=0.876938</property>
    <property name="Clip top">00:00:00.000=0</property>
    <property name="Clip bottom">00:00:00.000=0</property>
    <property name="Scale X">00:00:00.000=0.52</property>
    <property name="Scale Y">00:00:00.000=0.5</property>
    <property name="Tilt X">00:00:00.000=0.5</property>
    <property name="Tilt Y">00:00:00.000=0.5</property>
    <property name="kdenlive:collapsed">0</property>
   </filter>
   <filter id="filter161">
    <property name="rotate_center">1</property>
    <property name="mlt_service">qtblend</property>
    <property name="kdenlive_id">qtblend</property>
    <property name="compositing">0</property>
    <property name="distort">0</property>
    <property name="rect">00:00:00.000=-172 0 5572 2332 1.000000;00:00:04.000=0 0 5160 2160 1.000000</property>
    <property name="rotation">00:00:00.000=0;00:00:04.000=0</property>
    <property name="kdenlive:collapsed">0</property>
   </filter>
  </entry>
  <entry in="00:00:00.000" out="00:00:04.958" producer="chain52">
   <property name="kdenlive:id">42</property>
   <filter id="filter162">
    <property name="rotate_center">1</property>
    <property name="mlt_service">qtblend</property>
    <property name="kdenlive_id">qtblend</property>
    <property name="compositing">0</property>
    <property name="distort">0</property>
    <property name="rect">00:00:00.000=0 0 5110 2160 1.000000</property>
    <property name="rotation">00:00:00.000=0</property>
    <property name="kdenlive:collapsed">0</property>
   </filter>
   <filter id="filter163">
    <property name="version">0.1</property>
    <property name="mlt_service">frei0r.scale0tilt</property>
    <property name="kdenlive_id">frei0r.scale0tilt</property>
    <property name="Clip left">00:00:00.000=0</property>
    <property name="Clip right">00:00:00.000=0.876938</property>
    <property name="Clip top">00:00:00.000=0</property>
    <property name="Clip bottom">00:00:00.000=0</property>
    <property name="Scale X">00:00:00.000=0.52</property>
    <property name="Scale Y">00:00:00.000=0.5</property>
    <property name="Tilt X">00:00:00.000=0.5</property>
    <property name="Tilt Y">00:00:00.000=0.5</property>
    <property name="kdenlive:collapsed">0</property>
   </filter>
  </entry>
  <entry in="00:00:00.042" out="00:00:05.000" producer="producer15">
   <property name="kdenlive:id">74</property>
   <filter id="filter80">
    <property name="rotate_center">1</property>
    <property name="mlt_service">qtblend</property>
    <property name="kdenlive_id">qtblend</property>
    <property name="compositing">0</property>
    <property name="distort">0</property>
    <property name="rect">00:00:00.042=0 0 5110 2160 1.000000</property>
    <property name="rotation">00:00:00.042=0</property>
   </filter>
   <filter id="filter81">
    <property name="version">0.1</property>
    <property name="mlt_service">frei0r.scale0tilt</property>
    <property name="kdenlive_id">frei0r.scale0tilt</property>
    <property name="Clip left">00:00:00.042=0</property>
    <property name="Clip right">00:00:00.042=0.876938</property>
    <property name="Clip top">00:00:00.042=0</property>
    <property name="Clip bottom">00:00:00.042=0</property>
    <property name="Scale X">00:00:00.042=0.52</property>
    <property name="Scale Y">00:00:00.042=0.5</property>
    <property name="Tilt X">00:00:00.042=0.5</property>
    <property name="Tilt Y">00:00:00.042=0.5</property>
    <property name="kdenlive:collapsed">1</property>
   </filter>
   <filter id="filter82">
    <property name="version">0.2</property>
    <property name="mlt_service">frei0r.coloradj_RGB</property>
    <property name="kdenlive_id">frei0r.coloradj_RGB</property>
    <property name="R">00:00:00.042=0.5</property>
    <property name="G">00:00:00.042=0.6</property>
    <property name="B">00:00:00.042=0.5</property>
    <property name="Action">0.5</property>
    <property name="Keep luma">1</property>
    <property name="Alpha controlled">0</property>
    <property name="Luma formula">1</property>
   </filter>
  </entry>
  <entry in="00:00:00.000" out="00:00:01.958" producer="producer4">
   <property name="kdenlive:id">76</property>
   <filter id="filter59">
    <property name="rotate_center">1</property>
    <property name="mlt_service">qtblend</property>
    <property name="kdenlive_id">qtblend</property>
    <property name="compositing">0</property>
    <property name="distort">0</property>
    <property name="rect">00:00:00.000=0 0 5110 2160 1.000000</property>
    <property name="rotation">00:00:00.000=0</property>
    <property name="kdenlive:collapsed">1</property>
   </filter>
   <filter id="filter60">
    <property name="version">0.1</property>
    <property name="mlt_service">frei0r.scale0tilt</property>
    <property name="kdenlive_id">frei0r.scale0tilt</property>
    <property name="Clip left">00:00:00.000=0</property>
    <property name="Clip right">00:00:00.000=0.876938</property>
    <property name="Clip top">00:00:00.000=0</property>
    <property name="Clip bottom">00:00:00.000=0</property>
    <property name="Scale X">00:00:00.000=0.52</property>
    <property name="Scale Y">00:00:00.000=0.5</property>
    <property name="Tilt X">00:00:00.000=0.5</property>
    <property name="Tilt Y">00:00:00.000=0.5</property>
    <property name="kdenlive:collapsed">1</property>
   </filter>
   <filter id="filter61">
    <property name="version">0.2</property>
    <property name="mlt_service">frei0r.coloradj_RGB</property>
    <property name="kdenlive_id">frei0r.coloradj_RGB</property>
    <property name="R">00:00:00.000=0.5</property>
    <property name="G">00:00:00.000=0.55</property>
    <property name="B">00:00:00.000=0.5</property>
    <property name="Action">0.5</property>
    <property name="Keep luma">1</property>
    <property name="Alpha controlled">0</property>
    <property name="Luma formula">1</property>
   </filter>
  </entry>
  <entry in="00:00:00.000" out="00:00:01.958" producer="producer17">
   <property name="kdenlive:id">37</property>
   <filter id="filter172">
    <property name="rotate_center">1</property>
    <property name="mlt_service">qtblend</property>
    <property name="kdenlive_id">qtblend</property>
    <property name="compositing">0</property>
    <property name="distort">0</property>
    <property name="rect">00:00:00.000=0 0 5110 2160 1.000000</property>
    <property name="rotation">00:00:00.000=0</property>
    <property name="kdenlive:collapsed">1</property>
   </filter>
   <filter id="filter173">
    <property name="version">0.1</property>
    <property name="mlt_service">frei0r.scale0tilt</property>
    <property name="kdenlive_id">frei0r.scale0tilt</property>
    <property name="Clip left">00:00:00.000=0</property>
    <property name="Clip right">00:00:00.000=0.876938</property>
    <property name="Clip top">00:00:00.000=0</property>
    <property name="Clip bottom">00:00:00.000=0</property>
    <property name="Scale X">00:00:00.000=0.52</property>
    <property name="Scale Y">00:00:00.000=0.5</property>
    <property name="Tilt X">00:00:00.000=0.5</property>
    <property name="Tilt Y">00:00:00.000=0.5</property>
    <property name="kdenlive:collapsed">1</property>
   </filter>
   <filter id="filter174">
    <property name="version">0.2</property>
    <property name="mlt_service">frei0r.coloradj_RGB</property>
    <property name="kdenlive_id">frei0r.coloradj_RGB</property>
    <property name="R">00:00:00.000=0.5</property>
    <property name="G">00:00:00.000=0.55</property>
    <property name="B">00:00:00.000=0.5</property>
    <property name="Action">0.5</property>
    <property name="Keep luma">1</property>
    <property name="Alpha controlled">0</property>
    <property name="Luma formula">1</property>
    <property name="kdenlive:collapsed">0</property>
   </filter>
  </entry>
  <entry in="00:00:00.000" out="00:00:01.958" producer="chain54">
   <property name="kdenlive:id">35</property>
   <filter id="filter175">
    <property name="rotate_center">1</property>
    <property name="mlt_service">qtblend</property>
    <property name="kdenlive_id">qtblend</property>
    <property name="compositing">0</property>
    <property name="distort">0</property>
    <property name="rect">00:00:00.000=0 0 5110 2160 1.000000</property>
    <property name="rotation">00:00:00.000=0</property>
    <property name="kdenlive:collapsed">1</property>
   </filter>
   <filter id="filter176">
    <property name="version">0.1</property>
    <property name="mlt_service">frei0r.scale0tilt</property>
    <property name="kdenlive_id">frei0r.scale0tilt</property>
    <property name="Clip left">00:00:00.000=0</property>
    <property name="Clip right">00:00:00.000=0.876938</property>
    <property name="Clip top">00:00:00.000=0</property>
    <property name="Clip bottom">00:00:00.000=0</property>
    <property name="Scale X">00:00:00.000=0.52</property>
    <property name="Scale Y">00:00:00.000=0.5</property>
    <property name="Tilt X">00:00:00.000=0.5</property>
    <property name="Tilt Y">00:00:00.000=0.5</property>
    <property name="kdenlive:collapsed">1</property>
   </filter>
   <filter id="filter177">
    <property name="version">0.2</property>
    <property name="mlt_service">frei0r.coloradj_RGB</property>
    <property name="kdenlive_id">frei0r.coloradj_RGB</property>
    <property name="R">00:00:00.000=0.5</property>
    <property name="G">00:00:00.000=0.55</property>
    <property name="B">00:00:00.000=0.5</property>
    <property name="Action">0.5</property>
    <property name="Keep luma">1</property>
    <property name="Alpha controlled">0</property>
    <property name="Luma formula">1</property>
    <property name="kdenlive:collapsed">0</property>
   </filter>
  </entry>
  <entry in="00:00:00.000" out="00:00:05.042" producer="producer18">
   <property name="kdenlive:id">38</property>
   <filter id="filter178">
    <property name="rotate_center">1</property>
    <property name="mlt_service">qtblend</property>
    <property name="kdenlive_id">qtblend</property>
    <property name="compositing">0</property>
    <property name="distort">0</property>
    <property name="rect">00:00:00.000=0 0 5110 2160 1.000000</property>
    <property name="rotation">00:00:00.000=0</property>
    <property name="kdenlive:collapsed">1</property>
   </filter>
   <filter id="filter179">
    <property name="version">0.1</property>
    <property name="mlt_service">frei0r.scale0tilt</property>
    <property name="kdenlive_id">frei0r.scale0tilt</property>
    <property name="Clip left">00:00:00.000=0</property>
    <property name="Clip right">00:00:00.000=0.876938</property>
    <property name="Clip top">00:00:00.000=0</property>
    <property name="Clip bottom">00:00:00.000=0</property>
    <property name="Scale X">00:00:00.000=0.52</property>
    <property name="Scale Y">00:00:00.000=0.5</property>
    <property name="Tilt X">00:00:00.000=0.5</property>
    <property name="Tilt Y">00:00:00.000=0.5</property>
    <property name="kdenlive:collapsed">1</property>
   </filter>
   <filter id="filter180">
    <property name="version">0.2</property>
    <property name="mlt_service">frei0r.contrast0r</property>
    <property name="kdenlive_id">frei0r.contrast0r</property>
    <property name="Contrast">00:00:00.000=0.49</property>
    <property name="kdenlive:collapsed">0</property>
   </filter>
  </entry>
  <entry in="00:00:00.000" out="00:00:05.042" producer="chain55">
   <property name="kdenlive:id">39</property>
   <filter id="filter181">
    <property name="rotate_center">1</property>
    <property name="mlt_service">qtblend</property>
    <property name="kdenlive_id">qtblend</property>
    <property name="compositing">0</property>
    <property name="distort">0</property>
    <property name="rect">00:00:00.000=0 0 5110 2160 1.000000</property>
    <property name="rotation">00:00:00.000=0</property>
    <property name="kdenlive:collapsed">0</property>
   </filter>
   <filter id="filter182">
    <property name="version">0.1</property>
    <property name="mlt_service">frei0r.scale0tilt</property>
    <property name="kdenlive_id">frei0r.scale0tilt</property>
    <property name="Clip left">00:00:00.000=0</property>
    <property name="Clip right">00:00:00.000=0.876938</property>
    <property name="Clip top">00:00:00.000=0</property>
    <property name="Clip bottom">00:00:00.000=0</property>
    <property name="Scale X">00:00:00.000=0.52</property>
    <property name="Scale Y">00:00:00.000=0.5</property>
    <property name="Tilt X">00:00:00.000=0.5</property>
    <property name="Tilt Y">00:00:00.000=0.5</property>
    <property name="kdenlive:collapsed">0</property>
   </filter>
   <filter id="filter183">
    <property name="version">0.2</property>
    <property name="mlt_service">frei0r.contrast0r</property>
    <property name="kdenlive_id">frei0r.contrast0r</property>
    <property name="Contrast">00:00:00.000=0.49</property>
    <property name="kdenlive:collapsed">0</property>
   </filter>
  </entry>
  <entry in="00:00:00.000" out="00:00:05.042" producer="producer19">
   <property name="kdenlive:id">39</property>
   <filter id="filter184">
    <property name="rotate_center">1</property>
    <property name="mlt_service">qtblend</property>
    <property name="kdenlive_id">qtblend</property>
    <property name="compositing">0</property>
    <property name="distort">0</property>
    <property name="rect">00:00:00.000=0 0 5110 2160 1.000000</property>
    <property name="rotation">00:00:00.000=0</property>
    <property name="kdenlive:collapsed">0</property>
   </filter>
   <filter id="filter185">
    <property name="version">0.1</property>
    <property name="mlt_service">frei0r.scale0tilt</property>
    <property name="kdenlive_id">frei0r.scale0tilt</property>
    <property name="Clip left">00:00:00.000=0</property>
    <property name="Clip right">00:00:00.000=0.876938</property>
    <property name="Clip top">00:00:00.000=0</property>
    <property name="Clip bottom">00:00:00.000=0</property>
    <property name="Scale X">00:00:00.000=0.52</property>
    <property name="Scale Y">00:00:00.000=0.5</property>
    <property name="Tilt X">00:00:00.000=0.5</property>
    <property name="Tilt Y">00:00:00.000=0.5</property>
    <property name="kdenlive:collapsed">0</property>
   </filter>
   <filter id="filter186">
    <property name="version">0.2</property>
    <property name="mlt_service">frei0r.contrast0r</property>
    <property name="kdenlive_id">frei0r.contrast0r</property>
    <property name="Contrast">00:00:00.000=0.49</property>
    <property name="kdenlive:collapsed">0</property>
   </filter>
  </entry>
  <entry in="00:00:00.000" out="00:00:05.042" producer="chain56">
   <property name="kdenlive:id">38</property>
   <filter id="filter187">
    <property name="rotate_center">1</property>
    <property name="mlt_service">qtblend</property>
    <property name="kdenlive_id">qtblend</property>
    <property name="compositing">0</property>
    <property name="distort">0</property>
    <property name="rect">00:00:00.000=0 0 5110 2160 1.000000</property>
    <property name="rotation">00:00:00.000=0</property>
    <property name="kdenlive:collapsed">1</property>
   </filter>
   <filter id="filter188">
    <property name="version">0.1</property>
    <property name="mlt_service">frei0r.scale0tilt</property>
    <property name="kdenlive_id">frei0r.scale0tilt</property>
    <property name="Clip left">00:00:00.000=0</property>
    <property name="Clip right">00:00:00.000=0.876938</property>
    <property name="Clip top">00:00:00.000=0</property>
    <property name="Clip bottom">00:00:00.000=0</property>
    <property name="Scale X">00:00:00.000=0.52</property>
    <property name="Scale Y">00:00:00.000=0.5</property>
    <property name="Tilt X">00:00:00.000=0.5</property>
    <property name="Tilt Y">00:00:00.000=0.5</property>
    <property name="kdenlive:collapsed">1</property>
   </filter>
   <filter id="filter189">
    <property name="version">0.2</property>
    <property name="mlt_service">frei0r.contrast0r</property>
    <property name="kdenlive_id">frei0r.contrast0r</property>
    <property name="Contrast">00:00:00.000=0.49</property>
    <property name="kdenlive:collapsed">0</property>
   </filter>
  </entry>
  <entry in="00:00:00.000" out="00:00:00.625" producer="producer20">
   <property name="kdenlive:id">38</property>
   <filter id="filter83">
    <property name="rotate_center">1</property>
    <property name="mlt_service">qtblend</property>
    <property name="kdenlive_id">qtblend</property>
    <property name="compositing">0</property>
    <property name="distort">0</property>
    <property name="rect">00:00:00.000=0 0 5110 2160 1.000000</property>
    <property name="rotation">00:00:00.000=0</property>
    <property name="kdenlive:collapsed">1</property>
   </filter>
   <filter id="filter105">
    <property name="version">0.1</property>
    <property name="mlt_service">frei0r.scale0tilt</property>
    <property name="kdenlive_id">frei0r.scale0tilt</property>
    <property name="Clip left">00:00:00.000=0</property>
    <property name="Clip right">00:00:00.000=0.876938</property>
    <property name="Clip top">00:00:00.000=0</property>
    <property name="Clip bottom">00:00:00.000=0</property>
    <property name="Scale X">00:00:00.000=0.52</property>
    <property name="Scale Y">00:00:00.000=0.5</property>
    <property name="Tilt X">00:00:00.000=0.5</property>
    <property name="Tilt Y">00:00:00.000=0.5</property>
    <property name="kdenlive:collapsed">1</property>
   </filter>
   <filter id="filter106">
    <property name="version">0.2</property>
    <property name="mlt_service">frei0r.contrast0r</property>
    <property name="kdenlive_id">frei0r.contrast0r</property>
    <property name="Contrast">00:00:00.000=0.49</property>
    <property name="kdenlive:collapsed">0</property>
   </filter>
  </entry>
  <entry in="00:00:02.542" out="00:00:04.500" producer="chain57">
   <property name="kdenlive:id">36</property>
   <filter id="filter193">
    <property name="rotate_center">1</property>
    <property name="mlt_service">qtblend</property>
    <property name="kdenlive_id">qtblend</property>
    <property name="compositing">0</property>
    <property name="distort">0</property>
    <property name="rect">00:00:02.542=0 0 5110 2160 1.000000</property>
    <property name="rotation">00:00:02.542=0</property>
    <property name="kdenlive:collapsed">0</property>
   </filter>
   <filter id="filter194">
    <property name="version">0.1</property>
    <property name="mlt_service">frei0r.scale0tilt</property>
    <property name="kdenlive_id">frei0r.scale0tilt</property>
    <property name="Clip left">00:00:02.542=0</property>
    <property name="Clip right">00:00:02.542=0.876938</property>
    <property name="Clip top">00:00:02.542=0</property>
    <property name="Clip bottom">00:00:02.542=0</property>
    <property name="Scale X">00:00:02.542=0.52</property>
    <property name="Scale Y">00:00:02.542=0.5</property>
    <property name="Tilt X">00:00:02.542=0.5</property>
    <property name="Tilt Y">00:00:02.542=0.5</property>
    <property name="kdenlive:collapsed">1</property>
   </filter>
   <filter id="filter195">
    <property name="version">0.2</property>
    <property name="mlt_service">frei0r.contrast0r</property>
    <property name="kdenlive_id">frei0r.contrast0r</property>
    <property name="Contrast">00:00:02.542=0.49</property>
    <property name="kdenlive:collapsed">1</property>
   </filter>
  </entry>
  <entry in="00:00:00.000" out="00:00:06.958" producer="chain58">
   <property name="kdenlive:id">43</property>
   <filter id="filter196">
    <property name="rotate_center">1</property>
    <property name="mlt_service">qtblend</property>
    <property name="kdenlive_id">qtblend</property>
    <property name="compositing">0</property>
    <property name="distort">0</property>
    <property name="rect">0=0 0 5110 2160 1.000000</property>
    <property name="rotation">0=0</property>
    <property name="kdenlive:collapsed">0</property>
   </filter>
   <filter id="filter197">
    <property name="version">0.1</property>
    <property name="mlt_service">frei0r.scale0tilt</property>
    <property name="kdenlive_id">frei0r.scale0tilt</property>
    <property name="Clip left">0=0</property>
    <property name="Clip right">0=0.876938</property>
    <property name="Clip top">0=0</property>
    <property name="Clip bottom">0=0</property>
    <property name="Scale X">0=0.52</property>
    <property name="Scale Y">0=0.5</property>
    <property name="Tilt X">0=0.5</property>
    <property name="Tilt Y">0=0.5</property>
    <property name="kdenlive:collapsed">1</property>
   </filter>
  </entry>
  <entry in="00:00:02.542" out="00:00:05.500" producer="producer22">
   <property name="kdenlive:id">43</property>
   <filter id="filter198">
    <property name="rotate_center">1</property>
    <property name="mlt_service">qtblend</property>
    <property name="kdenlive_id">qtblend</property>
    <property name="compositing">0</property>
    <property name="distort">0</property>
    <property name="rect">00:00:02.542=0 0 5110 2160 1.000000</property>
    <property name="rotation">00:00:02.542=0</property>
    <property name="kdenlive:collapsed">0</property>
   </filter>
   <filter id="filter199">
    <property name="version">0.1</property>
    <property name="mlt_service">frei0r.scale0tilt</property>
    <property name="kdenlive_id">frei0r.scale0tilt</property>
    <property name="Clip left">00:00:02.542=0</property>
    <property name="Clip right">00:00:02.542=0.876938</property>
    <property name="Clip top">00:00:02.542=0</property>
    <property name="Clip bottom">00:00:02.542=0</property>
    <property name="Scale X">00:00:02.542=0.52</property>
    <property name="Scale Y">00:00:02.542=0.5</property>
    <property name="Tilt X">00:00:02.542=0.5</property>
    <property name="Tilt Y">00:00:02.542=0.5</property>
    <property name="kdenlive:collapsed">0</property>
   </filter>
  </entry>
  <entry in="00:00:00.083" out="00:00:02.500" producer="chain59">
   <property name="kdenlive:id">40</property>
   <filter id="filter200">
    <property name="rotate_center">1</property>
    <property name="mlt_service">qtblend</property>
    <property name="kdenlive_id">qtblend</property>
    <property name="compositing">0</property>
    <property name="distort">0</property>
    <property name="rect">00:00:00.083=0 0 5110 2160 1.000000</property>
    <property name="rotation">00:00:00.083=0</property>
    <property name="kdenlive:collapsed">1</property>
   </filter>
   <filter id="filter201">
    <property name="version">0.1</property>
    <property name="mlt_service">frei0r.scale0tilt</property>
    <property name="kdenlive_id">frei0r.scale0tilt</property>
    <property name="Clip left">00:00:00.083=0</property>
    <property name="Clip right">00:00:00.083=0.876938</property>
    <property name="Clip top">00:00:00.083=0</property>
    <property name="Clip bottom">00:00:00.083=0</property>
    <property name="Scale X">00:00:00.083=0.52</property>
    <property name="Scale Y">00:00:00.083=0.5</property>
    <property name="Tilt X">00:00:00.083=0.5</property>
    <property name="Tilt Y">00:00:00.083=0.5</property>
    <property name="kdenlive:collapsed">1</property>
   </filter>
  </entry>
  <entry in="00:00:02.542" out="00:00:03.958" producer="chain59">
   <property name="kdenlive:id">40</property>
   <filter id="filter202">
    <property name="rotate_center">1</property>
    <property name="mlt_service">qtblend</property>
    <property name="kdenlive_id">qtblend</property>
    <property name="compositing">0</property>
    <property name="distort">0</property>
    <property name="rect">00:00:02.542=0 0 5110 2160 1.000000</property>
    <property name="rotation">00:00:02.542=0</property>
    <property name="kdenlive:collapsed">1</property>
   </filter>
   <filter id="filter203">
    <property name="version">0.1</property>
    <property name="mlt_service">frei0r.scale0tilt</property>
    <property name="kdenlive_id">frei0r.scale0tilt</property>
    <property name="Clip left">00:00:02.542=0</property>
    <property name="Clip right">00:00:02.542=0.876938</property>
    <property name="Clip top">00:00:02.542=0</property>
    <property name="Clip bottom">00:00:02.542=0</property>
    <property name="Scale X">00:00:02.542=0.52</property>
    <property name="Scale Y">00:00:02.542=0.5</property>
    <property name="Tilt X">00:00:02.542=0.5</property>
    <property name="Tilt Y">00:00:02.542=0.5</property>
    <property name="kdenlive:collapsed">1</property>
   </filter>
   <filter id="filter204">
    <property name="version">0.2</property>
    <property name="mlt_service">frei0r.coloradj_RGB</property>
    <property name="kdenlive_id">frei0r.coloradj_RGB</property>
    <property name="R">00:00:02.542=0.5</property>
    <property name="G">00:00:02.542=0.55</property>
    <property name="B">00:00:02.542=0.5</property>
    <property name="Action">0.5</property>
    <property name="Keep luma">1</property>
    <property name="Alpha controlled">0</property>
    <property name="Luma formula">1</property>
    <property name="kdenlive:collapsed">0</property>
   </filter>
   <filter id="filter205">
    <property name="version">0.2</property>
    <property name="mlt_service">frei0r.contrast0r</property>
    <property name="kdenlive_id">frei0r.contrast0r</property>
    <property name="Contrast">00:00:02.542=0.49</property>
    <property name="kdenlive:collapsed">0</property>
   </filter>
  </entry>
  <entry in="00:00:00.000" out="00:00:00.042" producer="producer21">
   <property name="kdenlive:id">50</property>
  </entry>
  <entry in="00:00:00.000" out="00:00:08.958" producer="chain60">
   <property name="kdenlive:id">56</property>
   <filter id="filter206">
    <property name="rotate_center">1</property>
    <property name="mlt_service">qtblend</property>
    <property name="kdenlive_id">qtblend</property>
    <property name="compositing">0</property>
    <property name="distort">0</property>
    <property name="rect">00:00:00.000=0 0 5110 2160 1.000000</property>
    <property name="rotation">00:00:00.000=0</property>
    <property name="kdenlive:collapsed">1</property>
   </filter>
   <filter id="filter207">
    <property name="version">0.1</property>
    <property name="mlt_service">frei0r.scale0tilt</property>
    <property name="kdenlive_id">frei0r.scale0tilt</property>
    <property name="Clip left">00:00:00.000=0</property>
    <property name="Clip right">00:00:00.000=0.876938</property>
    <property name="Clip top">00:00:00.000=0</property>
    <property name="Clip bottom">00:00:00.000=0</property>
    <property name="Scale X">00:00:00.000=0.52</property>
    <property name="Scale Y">00:00:00.000=0.5</property>
    <property name="Tilt X">00:00:00.000=0.5</property>
    <property name="Tilt Y">00:00:00.000=0.5</property>
    <property name="kdenlive:collapsed">1</property>
   </filter>
   <filter id="filter208">
    <property name="version">0.2</property>
    <property name="mlt_service">frei0r.coloradj_RGB</property>
    <property name="kdenlive_id">frei0r.coloradj_RGB</property>
    <property name="R">00:00:00.000=0.5</property>
    <property name="G">00:00:00.000=0.55</property>
    <property name="B">00:00:00.000=0.5</property>
    <property name="Action">0.5</property>
    <property name="Keep luma">1</property>
    <property name="Alpha controlled">0</property>
    <property name="Luma formula">1</property>
   </filter>
  </entry>
  <entry in="00:00:00.000" out="00:00:00.958" producer="chain61">
   <property name="kdenlive:id">57</property>
   <filter id="filter209">
    <property name="rotate_center">1</property>
    <property name="mlt_service">qtblend</property>
    <property name="kdenlive_id">qtblend</property>
    <property name="compositing">0</property>
    <property name="distort">0</property>
    <property name="rect">00:00:00.000=0 0 5110 2160 1.000000</property>
    <property name="rotation">00:00:00.000=0</property>
    <property name="kdenlive:collapsed">1</property>
   </filter>
   <filter id="filter210">
    <property name="version">0.1</property>
    <property name="mlt_service">frei0r.scale0tilt</property>
    <property name="kdenlive_id">frei0r.scale0tilt</property>
    <property name="Clip left">00:00:00.000=0</property>
    <property name="Clip right">00:00:00.000=0.876938</property>
    <property name="Clip top">00:00:00.000=0</property>
    <property name="Clip bottom">00:00:00.000=0</property>
    <property name="Scale X">00:00:00.000=0.52</property>
    <property name="Scale Y">00:00:00.000=0.5</property>
    <property name="Tilt X">00:00:00.000=0.5</property>
    <property name="Tilt Y">00:00:00.000=0.5</property>
    <property name="kdenlive:collapsed">1</property>
   </filter>
   <filter id="filter211">
    <property name="filter">frei0r.select0r</property>
    <property name="mlt_service">mask_start</property>
    <property name="kdenlive_id">mask_start-frei0r.select0r</property>
    <property name="filter.Color to select">0=0x0078b4ff</property>
    <property name="filter.Invert selection">0</property>
    <property name="filter.Selection subspace">0</property>
    <property name="filter.Subspace shape">0.5</property>
    <property name="filter.Edge mode">0.9</property>
    <property name="filter.Delta R / A / Hue">0=0.2</property>
    <property name="filter.Delta G / B / Chroma">0=0.2</property>
    <property name="filter.Delta B / I / I">0=0.2</property>
    <property name="filter.Slope">0=0.5</property>
    <property name="filter.Operation">0</property>
    <property name="kdenlive:collapsed">1</property>
   </filter>
   <filter id="filter212">
    <property name="version">0.2</property>
    <property name="mlt_service">frei0r.coloradj_RGB</property>
    <property name="kdenlive_id">frei0r.coloradj_RGB</property>
    <property name="R">00:00:00.000=0.5</property>
    <property name="G">00:00:00.000=0.5</property>
    <property name="B">00:00:00.000=0.4</property>
    <property name="Action">0.5</property>
    <property name="Keep luma">1</property>
    <property name="Alpha controlled">0</property>
    <property name="Luma formula">1</property>
    <property name="kdenlive:collapsed">1</property>
   </filter>
   <filter id="filter213">
    <property name="transition">frei0r.composition</property>
    <property name="mlt_image_format">rgba</property>
    <property name="mlt_service">mask_apply</property>
    <property name="kdenlive_id">mask_apply</property>
   </filter>
  </entry>
  <entry in="00:00:00.000" out="00:00:04.958" producer="chain62">
   <property name="kdenlive:id">58</property>
   <filter id="filter214">
    <property name="rotate_center">1</property>
    <property name="mlt_service">qtblend</property>
    <property name="kdenlive_id">qtblend</property>
    <property name="compositing">0</property>
    <property name="distort">0</property>
    <property name="rect">00:00:00.000=0 0 5110 2160 1.000000</property>
    <property name="rotation">00:00:00.000=0</property>
    <property name="kdenlive:collapsed">1</property>
   </filter>
   <filter id="filter215">
    <property name="version">0.1</property>
    <property name="mlt_service">frei0r.scale0tilt</property>
    <property name="kdenlive_id">frei0r.scale0tilt</property>
    <property name="Clip left">00:00:00.000=0</property>
    <property name="Clip right">00:00:00.000=0.876938</property>
    <property name="Clip top">00:00:00.000=0</property>
    <property name="Clip bottom">00:00:00.000=0</property>
    <property name="Scale X">00:00:00.000=0.52</property>
    <property name="Scale Y">00:00:00.000=0.5</property>
    <property name="Tilt X">00:00:00.000=0.5</property>
    <property name="Tilt Y">00:00:00.000=0.5</property>
    <property name="kdenlive:collapsed">1</property>
   </filter>
   <filter id="filter216">
    <property name="version">0.2</property>
    <property name="mlt_service">frei0r.coloradj_RGB</property>
    <property name="kdenlive_id">frei0r.coloradj_RGB</property>
    <property name="R">00:00:00.000=0.45</property>
    <property name="G">00:00:00.000=0.5</property>
    <property name="B">00:00:00.000=0.4</property>
    <property name="Action">0.5</property>
    <property name="Keep luma">1</property>
    <property name="Alpha controlled">0</property>
    <property name="Luma formula">1</property>
    <property name="kdenlive:collapsed">0</property>
   </filter>
  </entry>
  <entry in="00:00:00.000" out="00:00:04.958" producer="chain63">
   <property name="kdenlive:id">59</property>
   <filter id="filter217">
    <property name="rotate_center">1</property>
    <property name="mlt_service">qtblend</property>
    <property name="kdenlive_id">qtblend</property>
    <property name="compositing">0</property>
    <property name="distort">0</property>
    <property name="rect">00:00:00.000=-179 -64 5469 2289 1.000000</property>
    <property name="rotation">00:00:00.000=0</property>
   </filter>
   <filter id="filter218">
    <property name="version">0.1</property>
    <property name="mlt_service">frei0r.scale0tilt</property>
    <property name="kdenlive_id">frei0r.scale0tilt</property>
    <property name="Clip left">00:00:00.000=0</property>
    <property name="Clip right">00:00:00.000=0.876938</property>
    <property name="Clip top">00:00:00.000=0</property>
    <property name="Clip bottom">00:00:00.000=0</property>
    <property name="Scale X">00:00:00.000=0.52</property>
    <property name="Scale Y">00:00:00.000=0.5</property>
    <property name="Tilt X">00:00:00.000=0.5</property>
    <property name="Tilt Y">00:00:00.000=0.5</property>
    <property name="kdenlive:collapsed">1</property>
   </filter>
   <filter id="filter219">
    <property name="version">0.2</property>
    <property name="mlt_service">frei0r.coloradj_RGB</property>
    <property name="kdenlive_id">frei0r.coloradj_RGB</property>
    <property name="R">00:00:00.000=0.4</property>
    <property name="G">00:00:00.000=0.6</property>
    <property name="B">00:00:00.000=0.6</property>
    <property name="Action">0.5</property>
    <property name="Keep luma">1</property>
    <property name="Alpha controlled">0</property>
    <property name="Luma formula">1</property>
   </filter>
  </entry>
  <entry in="00:00:01.667" out="00:00:04.625" producer="producer23">
   <property name="kdenlive:id">60</property>
   <filter id="filter220">
    <property name="rotate_center">1</property>
    <property name="mlt_service">qtblend</property>
    <property name="kdenlive_id">qtblend</property>
    <property name="compositing">0</property>
    <property name="distort">0</property>
    <property name="rect">00:00:01.667=-40 0 5110 2160 1.000000</property>
    <property name="rotation">00:00:01.667=0</property>
   </filter>
   <filter id="filter221">
    <property name="version">0.1</property>
    <property name="mlt_service">frei0r.scale0tilt</property>
    <property name="kdenlive_id">frei0r.scale0tilt</property>
    <property name="Clip left">00:00:01.667=0</property>
    <property name="Clip right">00:00:01.667=0.876357</property>
    <property name="Clip top">00:00:01.667=0</property>
    <property name="Clip bottom">00:00:01.667=0</property>
    <property name="Scale X">00:00:01.667=0.52</property>
    <property name="Scale Y">00:00:01.667=0.5</property>
    <property name="Tilt X">00:00:01.667=0.5</property>
    <property name="Tilt Y">00:00:01.667=0.5</property>
    <property name="kdenlive:collapsed">1</property>
   </filter>
   <filter id="filter222">
    <property name="version">0.2</property>
    <property name="mlt_service">frei0r.brightness</property>
    <property name="kdenlive_id">frei0r.brightness</property>
    <property name="Brightness">00:00:01.667=0.46</property>
   </filter>
   <filter id="filter223">
    <property name="version">0.2</property>
    <property name="mlt_service">frei0r.coloradj_RGB</property>
    <property name="kdenlive_id">frei0r.coloradj_RGB</property>
    <property name="R">00:00:01.667=0.52</property>
    <property name="G">00:00:01.667=0.48</property>
    <property name="B">00:00:01.667=0.5</property>
    <property name="Action">0.5</property>
    <property name="Keep luma">1</property>
    <property name="Alpha controlled">0</property>
    <property name="Luma formula">1</property>
    <property name="kdenlive:collapsed">1</property>
   </filter>
  </entry>
  <entry in="00:00:00.000" out="00:00:03.958" producer="producer30">
   <property name="kdenlive:id">62</property>
   <filter id="filter224">
    <property name="rotate_center">1</property>
    <property name="mlt_service">qtblend</property>
    <property name="kdenlive_id">qtblend</property>
    <property name="compositing">0</property>
    <property name="distort">0</property>
    <property name="rect">00:00:00.000=-40 0 5110 2160 1.000000</property>
    <property name="rotation">00:00:00.000=0</property>
    <property name="kdenlive:collapsed">1</property>
   </filter>
   <filter id="filter225">
    <property name="version">0.1</property>
    <property name="mlt_service">frei0r.scale0tilt</property>
    <property name="kdenlive_id">frei0r.scale0tilt</property>
    <property name="Clip left">00:00:00.000=0</property>
    <property name="Clip right">00:00:00.000=0.876938</property>
    <property name="Clip top">00:00:00.000=0</property>
    <property name="Clip bottom">00:00:00.000=0</property>
    <property name="Scale X">00:00:00.000=0.52</property>
    <property name="Scale Y">00:00:00.000=0.5</property>
    <property name="Tilt X">00:00:00.000=0.5</property>
    <property name="Tilt Y">00:00:00.000=0.5</property>
    <property name="kdenlive:collapsed">1</property>
   </filter>
   <filter id="filter226">
    <property name="version">0.2</property>
    <property name="mlt_service">frei0r.brightness</property>
    <property name="kdenlive_id">frei0r.brightness</property>
    <property name="Brightness">00:00:00.000=0.46</property>
    <property name="kdenlive:collapsed">0</property>
   </filter>
   <filter id="filter227">
    <property name="version">0.2</property>
    <property name="mlt_service">frei0r.coloradj_RGB</property>
    <property name="kdenlive_id">frei0r.coloradj_RGB</property>
    <property name="R">00:00:00.000=0.52</property>
    <property name="G">00:00:00.000=0.48</property>
    <property name="B">00:00:00.000=0.5</property>
    <property name="Action">0.5</property>
    <property name="Keep luma">1</property>
    <property name="Alpha controlled">0</property>
    <property name="Luma formula">1</property>
    <property name="kdenlive:collapsed">0</property>
   </filter>
  </entry>
  <entry in="00:00:01.000" out="00:00:03.417" producer="producer31">
   <property name="kdenlive:id">70</property>
   <filter id="filter107">
    <property name="rotate_center">1</property>
    <property name="mlt_service">qtblend</property>
    <property name="kdenlive_id">qtblend</property>
    <property name="compositing">0</property>
    <property name="distort">0</property>
    <property name="rect">00:00:01.000=0 0 5110 2160 1.000000</property>
    <property name="rotation">00:00:01.000=0</property>
    <property name="kdenlive:collapsed">1</property>
   </filter>
   <filter id="filter164">
    <property name="version">0.1</property>
    <property name="mlt_service">frei0r.scale0tilt</property>
    <property name="kdenlive_id">frei0r.scale0tilt</property>
    <property name="Clip left">00:00:01.000=0</property>
    <property name="Clip right">00:00:01.000=0.876938</property>
    <property name="Clip top">00:00:01.000=0</property>
    <property name="Clip bottom">00:00:01.000=0</property>
    <property name="Scale X">00:00:01.000=0.52</property>
    <property name="Scale Y">00:00:01.000=0.5</property>
    <property name="Tilt X">00:00:01.000=0.5</property>
    <property name="Tilt Y">00:00:01.000=0.5</property>
    <property name="kdenlive:collapsed">1</property>
   </filter>
  </entry>
 </playlist>
 <playlist id="playlist15"/>
 <tractor id="tractor7" in="00:00:00.000" out="00:01:35.417">
  <property name="kdenlive:trackheight">67</property>
  <property name="kdenlive:timeline_active">1</property>
  <property name="kdenlive:collapsed">0</property>
  <property name="kdenlive:track_name">wide</property>
  <property name="kdenlive:thumbs_format"/>
  <property name="kdenlive:audio_rec"/>
  <track hide="audio" producer="playlist14"/>
  <track hide="audio" producer="playlist15"/>
 </tractor>
 <playlist id="playlist16">
  <blank length="00:00:08.000"/>
  <entry in="00:00:00.000" out="00:00:00.375" producer="producer24">
   <property name="kdenlive:id">51</property>
   <filter id="filter228" in="00:00:-0.042" out="00:00:00.375">
    <property name="start">1</property>
    <property name="level">1</property>
    <property name="mlt_service">brightness</property>
    <property name="kdenlive_id">fade_to_black</property>
    <property name="alpha">00:00:00.000=1;00:00:00.417=0</property>
    <property name="kdenlive:collapsed">0</property>
   </filter>
   <filter id="filter165">
    <property name="rotate_center">1</property>
    <property name="mlt_service">qtblend</property>
    <property name="kdenlive_id">qtblend</property>
    <property name="compositing">0</property>
    <property name="distort">0</property>
    <property name="rect">00:00:00.000=0 16 5160 2160 1.000000</property>
    <property name="rotation">00:00:00.000=0</property>
    <property name="kdenlive:collapsed">0</property>
   </filter>
  </entry>
  <blank length="00:00:14.583"/>
  <entry in="00:00:00.000" out="00:00:00.375" producer="producer29">
   <property name="kdenlive:id">69</property>
   <filter id="filter166" in="00:00:-0.042" out="00:00:00.375">
    <property name="start">1</property>
    <property name="level">1</property>
    <property name="mlt_service">brightness</property>
    <property name="kdenlive_id">fade_to_black</property>
    <property name="alpha">00:00:00.000=1;00:00:00.417=0</property>
    <property name="kdenlive:collapsed">0</property>
   </filter>
  </entry>
  <blank length="00:00:03.583"/>
  <entry in="00:00:00.000" out="00:00:00.792" producer="producer32">
   <property name="kdenlive:id">72</property>
   <filter id="filter167" in="00:00:-0.042" out="00:00:00.792">
    <property name="start">1</property>
    <property name="level">1</property>
    <property name="mlt_service">brightness</property>
    <property name="kdenlive_id">fade_to_black</property>
    <property name="alpha">00:00:00.000=1;00:00:00.833=0</property>
    <property name="kdenlive:collapsed">0</property>
   </filter>
   <filter id="filter168">
    <property name="rotate_center">1</property>
    <property name="mlt_service">qtblend</property>
    <property name="kdenlive_id">qtblend</property>
    <property name="compositing">0</property>
    <property name="distort">1</property>
    <property name="rect">00:00:00.000=0 -20 5160 2200 1.000000</property>
    <property name="rotation">00:00:00.000=0</property>
    <property name="kdenlive:collapsed">0</property>
   </filter>
  </entry>
  <blank length="00:00:06.250"/>
  <entry in="00:00:00.000" out="00:00:00.792" producer="producer25">
   <property name="kdenlive:id">48</property>
   <filter id="filter229" in="00:00:-0.042" out="00:00:00.792">
    <property name="start">1</property>
    <property name="level">1</property>
    <property name="mlt_service">brightness</property>
    <property name="kdenlive_id">fade_to_black</property>
    <property name="alpha">00:00:00.000=1;00:00:00.833=0</property>
    <property name="kdenlive:collapsed">0</property>
   </filter>
  </entry>
  <blank length="00:00:09.333"/>
  <entry in="00:00:00.000" out="00:00:00.792" producer="producer26">
   <property name="kdenlive:id">49</property>
   <filter id="filter230" in="00:00:-0.042" out="00:00:00.792">
    <property name="start">1</property>
    <property name="level">1</property>
    <property name="mlt_service">brightness</property>
    <property name="kdenlive_id">fade_to_black</property>
    <property name="alpha">00:00:00.000=1;00:00:00.833=0</property>
    <property name="kdenlive:collapsed">0</property>
   </filter>
  </entry>
  <blank length="00:00:43.875"/>
  <entry in="00:00:00.000" out="00:00:00.208" producer="producer33">
   <property name="kdenlive:id">71</property>
   <filter id="filter190" in="00:00:-0.042" out="00:00:00.208">
    <property name="start">1</property>
    <property name="level">1</property>
    <property name="mlt_service">brightness</property>
    <property name="kdenlive_id">fade_to_black</property>
    <property name="alpha">00:00:00.000=1;00:00:00.250=0</property>
    <property name="kdenlive:collapsed">0</property>
   </filter>
  </entry>
 </playlist>
 <playlist id="playlist17"/>
 <tractor id="tractor8" in="00:00:00.000" out="00:01:29.167">
  <property name="kdenlive:trackheight">67</property>
  <property name="kdenlive:timeline_active">1</property>
  <property name="kdenlive:collapsed">0</property>
  <property name="kdenlive:track_name">wide</property>
  <property name="kdenlive:thumbs_format"/>
  <property name="kdenlive:audio_rec"/>
  <track hide="audio" producer="playlist16"/>
  <track hide="audio" producer="playlist17"/>
 </tractor>
 <playlist id="playlist18">
  <blank length="00:01:35.458"/>
  <entry in="00:00:00.000" out="00:00:03.958" producer="producer27">
   <property name="kdenlive:id">54</property>
  </entry>
  <entry in="00:00:00.000" out="00:00:04.500" producer="producer27">
   <property name="kdenlive:id">54</property>
  </entry>
 </playlist>
 <playlist id="playlist19"/>
 <tractor id="tractor9" in="00:00:00.000" out="00:01:43.958">
  <property name="kdenlive:trackheight">67</property>
  <property name="kdenlive:timeline_active">1</property>
  <property name="kdenlive:collapsed">0</property>
  <property name="kdenlive:thumbs_format"/>
  <property name="kdenlive:audio_rec"/>
  <track hide="both" producer="playlist18"/>
  <track hide="both" producer="playlist19"/>
 </tractor>
 <chain id="chain66" out="00:00:05.042">
  <property name="length">122</property>
  <property name="eof">pause</property>
  <property name="resource">C:/dev/workspace/indy/dist/room/attic/content/upscale/splash3.mp4</property>
  <property name="mlt_service">avformat-novalidate</property>
  <property name="seekable">1</property>
  <property name="audio_index">-1</property>
  <property name="video_index">0</property>
  <property name="vstream">0</property>
  <property name="kdenlive:control_uuid">{12881b2c-ffa9-4d90-8ed0-0884967af2a3}</property>
  <property name="kdenlive:id">5</property>
  <property name="kdenlive:clip_type">2</property>
  <property name="kdenlive:file_size">13178089</property>
  <property name="kdenlive:file_hash">b3c8d8006b85fdde4229ecd99517e18a</property>
  <property name="kdenlive:folderid">-1</property>
  <property name="meta.media.nb_streams">1</property>
  <property name="meta.media.0.stream.type">video</property>
  <property name="meta.media.0.stream.frame_rate">60</property>
  <property name="meta.media.0.stream.sample_aspect_ratio">0</property>
  <property name="meta.media.0.codec.width">3840</property>
  <property name="meta.media.0.codec.height">2160</property>
  <property name="meta.media.0.codec.rotate">0</property>
  <property name="meta.media.0.codec.pix_fmt">yuv444p</property>
  <property name="meta.media.0.codec.sample_aspect_ratio">0</property>
  <property name="meta.media.0.codec.colorspace">709</property>
  <property name="meta.media.0.codec.name">h264</property>
  <property name="meta.media.0.codec.long_name">H.264 / AVC / MPEG-4 AVC / MPEG-4 part 10</property>
  <property name="meta.media.0.codec.bit_rate">20663921</property>
  <property name="meta.attr.0.stream.handler_name.markup">VideoHandler</property>
  <property name="meta.attr.0.stream.vendor_id.markup">[0][0][0][0]</property>
  <property name="meta.attr.0.stream.encoder.markup">Lavc61.19.101 libx264</property>
  <property name="meta.attr.minor_version.markup">512</property>
  <property name="meta.attr.major_brand.markup">isom</property>
  <property name="meta.attr.compatible_brands.markup">isomiso2avc1mp41</property>
  <property name="meta.attr.encoder.markup">Lavf61.9.100</property>
  <property name="meta.media.sample_aspect_num">1</property>
  <property name="meta.media.sample_aspect_den">1</property>
  <property name="meta.media.frame_rate_num">60</property>
  <property name="meta.media.frame_rate_den">1</property>
  <property name="meta.media.colorspace">709</property>
  <property name="meta.media.color_trc">2</property>
  <property name="meta.media.has_b_frames">2</property>
  <property name="meta.media.width">3840</property>
  <property name="meta.media.height">2160</property>
  <property name="meta.media.aspect_ratio">1</property>
  <property name="meta.media.color_range">mpeg</property>
  <property name="xml">was here</property>
  <property name="mute_on_pause">0</property>
  <property name="meta.media.top_field_first">0</property>
  <property name="meta.media.progressive">1</property>
  <property name="set.test_audio">1</property>
  <property name="set.test_image">0</property>
 </chain>
 <producer id="producer35" in="00:00:00.000" out="00:00:05.000">
  <property name="length">121</property>
  <property name="eof">pause</property>
  <property name="resource">-1.000000:C:/dev/workspace/indy/dist/room/attic/content/upscale/attic22.mp4</property>
  <property name="aspect_ratio">1</property>
  <property name="meta.media.nb_streams">1</property>
  <property name="meta.media.0.stream.type">video</property>
  <property name="meta.media.0.stream.frame_rate">24</property>
  <property name="meta.media.0.stream.sample_aspect_ratio">0</property>
  <property name="meta.media.0.codec.width">3840</property>
  <property name="meta.media.0.codec.height">2160</property>
  <property name="meta.media.0.codec.rotate">0</property>
  <property name="meta.media.0.codec.pix_fmt">yuv444p</property>
  <property name="meta.media.0.codec.sample_aspect_ratio">0</property>
  <property name="meta.media.0.codec.colorspace">709</property>
  <property name="meta.media.0.codec.name">h264</property>
  <property name="meta.media.0.codec.long_name">H.264 / AVC / MPEG-4 AVC / MPEG-4 part 10</property>
  <property name="meta.media.0.codec.bit_rate">24191105</property>
  <property name="meta.attr.0.stream.handler_name.markup">VideoHandler</property>
  <property name="meta.attr.0.stream.vendor_id.markup">[0][0][0][0]</property>
  <property name="meta.attr.0.stream.encoder.markup">Lavc61.19.101 libx264</property>
  <property name="meta.attr.minor_version.markup">512</property>
  <property name="meta.attr.major_brand.markup">isom</property>
  <property name="meta.attr.compatible_brands.markup">isomiso2avc1mp41</property>
  <property name="meta.attr.encoder.markup">Lavf61.9.100</property>
  <property name="seekable">1</property>
  <property name="meta.media.sample_aspect_num">1</property>
  <property name="meta.media.sample_aspect_den">1</property>
  <property name="audio_index">-1</property>
  <property name="video_index">0</property>
  <property name="warp_speed">-1</property>
  <property name="warp_resource">C:/dev/workspace/indy/dist/room/attic/content/upscale/attic22.mp4</property>
  <property name="mlt_service">timewarp</property>
  <property name="kdenlive:control_uuid">{310de7b7-88c9-4a4a-b2cc-c247a3c9d3e0}</property>
  <property name="vstream">0</property>
  <property name="astream">-1</property>
  <property name="set.test_audio">1</property>
  <property name="set.test_image">0</property>
  <property name="kdenlive:id">73</property>
  <property name="warp_pitch">0</property>
  <property name="meta.media.frame_rate_num">24</property>
  <property name="meta.media.frame_rate_den">1</property>
  <property name="meta.media.colorspace">709</property>
  <property name="meta.media.color_trc">2</property>
  <property name="meta.media.has_b_frames">2</property>
  <property name="meta.media.width">3840</property>
  <property name="meta.media.height">2160</property>
  <property name="meta.media.aspect_ratio">1</property>
  <property name="meta.media.color_range">mpeg</property>
  <property name="meta.media.top_field_first">0</property>
  <property name="meta.media.progressive">1</property>
 </producer>
 <producer id="producer13" in="00:00:00.000" out="00:00:03.333">
  <property name="length">81</property>
  <property name="eof">pause</property>
  <property name="resource">1.500000:C:/dev/workspace/indy/dist/room/attic/content/upscale/attic25.mp4</property>
  <property name="aspect_ratio">1</property>
  <property name="meta.media.nb_streams">1</property>
  <property name="meta.media.0.stream.type">video</property>
  <property name="meta.media.0.stream.frame_rate">60</property>
  <property name="meta.media.0.stream.sample_aspect_ratio">0</property>
  <property name="meta.media.0.codec.width">3840</property>
  <property name="meta.media.0.codec.height">2160</property>
  <property name="meta.media.0.codec.rotate">0</property>
  <property name="meta.media.0.codec.pix_fmt">yuv444p</property>
  <property name="meta.media.0.codec.sample_aspect_ratio">0</property>
  <property name="meta.media.0.codec.colorspace">709</property>
  <property name="meta.media.0.codec.name">h264</property>
  <property name="meta.media.0.codec.long_name">H.264 / AVC / MPEG-4 AVC / MPEG-4 part 10</property>
  <property name="meta.media.0.codec.bit_rate">28170271</property>
  <property name="meta.attr.0.stream.handler_name.markup">VideoHandler</property>
  <property name="meta.attr.0.stream.vendor_id.markup">[0][0][0][0]</property>
  <property name="meta.attr.0.stream.encoder.markup">Lavc61.19.101 libx264</property>
  <property name="meta.attr.minor_version.markup">512</property>
  <property name="meta.attr.major_brand.markup">isom</property>
  <property name="meta.attr.compatible_brands.markup">isomiso2avc1mp41</property>
  <property name="meta.attr.encoder.markup">Lavf61.9.100</property>
  <property name="seekable">1</property>
  <property name="meta.media.sample_aspect_num">1</property>
  <property name="meta.media.sample_aspect_den">1</property>
  <property name="audio_index">-1</property>
  <property name="video_index">0</property>
  <property name="warp_speed">1.5</property>
  <property name="warp_resource">C:/dev/workspace/indy/dist/room/attic/content/upscale/attic25.mp4</property>
  <property name="mlt_service">timewarp</property>
  <property name="kdenlive:control_uuid">{5f702e3e-6ded-4d9b-aa11-1a8eb00ba870}</property>
  <property name="vstream">0</property>
  <property name="astream">-1</property>
  <property name="set.test_audio">1</property>
  <property name="set.test_image">0</property>
  <property name="kdenlive:id">75</property>
  <property name="warp_pitch">0</property>
  <property name="meta.media.frame_rate_num">60</property>
  <property name="meta.media.frame_rate_den">1</property>
  <property name="meta.media.colorspace">709</property>
  <property name="meta.media.color_trc">2</property>
  <property name="meta.media.has_b_frames">2</property>
  <property name="meta.media.width">3840</property>
  <property name="meta.media.height">2160</property>
  <property name="meta.media.aspect_ratio">1</property>
  <property name="meta.media.color_range">mpeg</property>
  <property name="meta.media.top_field_first">0</property>
  <property name="meta.media.progressive">1</property>
 </producer>
 <producer id="producer37" in="00:00:00.000" out="00:00:01.958">
  <property name="length">48</property>
  <property name="eof">pause</property>
  <property name="resource">-2.500000:C:/dev/workspace/indy/dist/room/attic/content/upscale/attic24.mp4</property>
  <property name="aspect_ratio">1</property>
  <property name="meta.media.nb_streams">1</property>
  <property name="meta.media.0.stream.type">video</property>
  <property name="meta.media.0.stream.frame_rate">60</property>
  <property name="meta.media.0.stream.sample_aspect_ratio">0</property>
  <property name="meta.media.0.codec.width">3840</property>
  <property name="meta.media.0.codec.height">2160</property>
  <property name="meta.media.0.codec.rotate">0</property>
  <property name="meta.media.0.codec.pix_fmt">yuv444p</property>
  <property name="meta.media.0.codec.sample_aspect_ratio">0</property>
  <property name="meta.media.0.codec.colorspace">709</property>
  <property name="meta.media.0.codec.name">h264</property>
  <property name="meta.media.0.codec.long_name">H.264 / AVC / MPEG-4 AVC / MPEG-4 part 10</property>
  <property name="meta.media.0.codec.bit_rate">26973779</property>
  <property name="meta.attr.0.stream.handler_name.markup">VideoHandler</property>
  <property name="meta.attr.0.stream.vendor_id.markup">[0][0][0][0]</property>
  <property name="meta.attr.0.stream.encoder.markup">Lavc61.19.101 libx264</property>
  <property name="meta.attr.minor_version.markup">512</property>
  <property name="meta.attr.major_brand.markup">isom</property>
  <property name="meta.attr.compatible_brands.markup">isomiso2avc1mp41</property>
  <property name="meta.attr.encoder.markup">Lavf61.9.100</property>
  <property name="seekable">1</property>
  <property name="meta.media.sample_aspect_num">1</property>
  <property name="meta.media.sample_aspect_den">1</property>
  <property name="audio_index">-1</property>
  <property name="video_index">0</property>
  <property name="warp_speed">-2.5</property>
  <property name="warp_resource">C:/dev/workspace/indy/dist/room/attic/content/upscale/attic24.mp4</property>
  <property name="mlt_service">timewarp</property>
  <property name="kdenlive:control_uuid">{4fde58ab-8829-42bb-881a-49d95735ba05}</property>
  <property name="vstream">0</property>
  <property name="astream">-1</property>
  <property name="set.test_audio">1</property>
  <property name="set.test_image">0</property>
  <property name="kdenlive:id">53</property>
  <property name="warp_pitch">0</property>
  <property name="meta.media.frame_rate_num">60</property>
  <property name="meta.media.frame_rate_den">1</property>
  <property name="meta.media.colorspace">709</property>
  <property name="meta.media.color_trc">2</property>
  <property name="meta.media.has_b_frames">2</property>
  <property name="meta.media.width">3840</property>
  <property name="meta.media.height">2160</property>
  <property name="meta.media.aspect_ratio">1</property>
  <property name="meta.media.color_range">mpeg</property>
  <property name="meta.media.top_field_first">0</property>
  <property name="meta.media.progressive">1</property>
 </producer>
 <chain id="chain68" out="00:00:05.042">
  <property name="length">122</property>
  <property name="eof">pause</property>
  <property name="resource">C:/dev/workspace/indy/dist/room/attic/content/upscale/attic18.mp4</property>
  <property name="mlt_service">avformat-novalidate</property>
  <property name="seekable">1</property>
  <property name="audio_index">-1</property>
  <property name="video_index">0</property>
  <property name="vstream">0</property>
  <property name="kdenlive:control_uuid">{50f09233-90df-4901-b134-7a199c391e5a}</property>
  <property name="kdenlive:id">13</property>
  <property name="kdenlive:clip_type">2</property>
  <property name="kdenlive:file_size">16652665</property>
  <property name="kdenlive:file_hash">95c1c9ec09ef16387bd31c5197bf3082</property>
  <property name="kdenlive:folderid">-1</property>
  <property name="meta.media.nb_streams">1</property>
  <property name="meta.media.0.stream.type">video</property>
  <property name="meta.media.0.stream.frame_rate">60</property>
  <property name="meta.media.0.stream.sample_aspect_ratio">0</property>
  <property name="meta.media.0.codec.width">3840</property>
  <property name="meta.media.0.codec.height">2160</property>
  <property name="meta.media.0.codec.rotate">0</property>
  <property name="meta.media.0.codec.pix_fmt">yuv444p</property>
  <property name="meta.media.0.codec.sample_aspect_ratio">0</property>
  <property name="meta.media.0.codec.colorspace">709</property>
  <property name="meta.media.0.codec.name">h264</property>
  <property name="meta.media.0.codec.long_name">H.264 / AVC / MPEG-4 AVC / MPEG-4 part 10</property>
  <property name="meta.media.0.codec.bit_rate">26114563</property>
  <property name="meta.attr.0.stream.handler_name.markup">VideoHandler</property>
  <property name="meta.attr.0.stream.vendor_id.markup">[0][0][0][0]</property>
  <property name="meta.attr.0.stream.encoder.markup">Lavc61.19.101 libx264</property>
  <property name="meta.attr.minor_version.markup">512</property>
  <property name="meta.attr.major_brand.markup">isom</property>
  <property name="meta.attr.compatible_brands.markup">isomiso2avc1mp41</property>
  <property name="meta.attr.encoder.markup">Lavf61.9.100</property>
  <property name="meta.media.sample_aspect_num">1</property>
  <property name="meta.media.sample_aspect_den">1</property>
  <property name="meta.media.frame_rate_num">60</property>
  <property name="meta.media.frame_rate_den">1</property>
  <property name="meta.media.colorspace">709</property>
  <property name="meta.media.color_trc">2</property>
  <property name="meta.media.has_b_frames">2</property>
  <property name="meta.media.width">3840</property>
  <property name="meta.media.height">2160</property>
  <property name="meta.media.aspect_ratio">1</property>
  <property name="meta.media.color_range">mpeg</property>
  <property name="xml">was here</property>
  <property name="mute_on_pause">0</property>
  <property name="meta.media.top_field_first">0</property>
  <property name="meta.media.progressive">1</property>
  <property name="set.test_audio">1</property>
  <property name="set.test_image">0</property>
 </chain>
 <producer id="producer38" in="00:00:00.000" out="00:00:05.042">
  <property name="length">122</property>
  <property name="eof">pause</property>
  <property name="resource">-1.000000:C:/dev/workspace/indy/dist/room/attic/content/upscale/cross6.mp4</property>
  <property name="aspect_ratio">1</property>
  <property name="meta.media.nb_streams">1</property>
  <property name="meta.media.0.stream.type">video</property>
  <property name="meta.media.0.stream.frame_rate">60</property>
  <property name="meta.media.0.stream.sample_aspect_ratio">0</property>
  <property name="meta.media.0.codec.width">3840</property>
  <property name="meta.media.0.codec.height">2160</property>
  <property name="meta.media.0.codec.rotate">0</property>
  <property name="meta.media.0.codec.pix_fmt">yuv444p</property>
  <property name="meta.media.0.codec.sample_aspect_ratio">0</property>
  <property name="meta.media.0.codec.colorspace">709</property>
  <property name="meta.media.0.codec.name">h264</property>
  <property name="meta.media.0.codec.long_name">H.264 / AVC / MPEG-4 AVC / MPEG-4 part 10</property>
  <property name="meta.media.0.codec.bit_rate">22586272</property>
  <property name="meta.attr.0.stream.handler_name.markup">VideoHandler</property>
  <property name="meta.attr.0.stream.vendor_id.markup">[0][0][0][0]</property>
  <property name="meta.attr.0.stream.encoder.markup">Lavc61.19.101 libx264</property>
  <property name="meta.attr.minor_version.markup">512</property>
  <property name="meta.attr.major_brand.markup">isom</property>
  <property name="meta.attr.compatible_brands.markup">isomiso2avc1mp41</property>
  <property name="meta.attr.encoder.markup">Lavf61.9.100</property>
  <property name="seekable">1</property>
  <property name="meta.media.sample_aspect_num">1</property>
  <property name="meta.media.sample_aspect_den">1</property>
  <property name="audio_index">-1</property>
  <property name="video_index">0</property>
  <property name="warp_speed">-1</property>
  <property name="warp_resource">C:/dev/workspace/indy/dist/room/attic/content/upscale/cross6.mp4</property>
  <property name="mlt_service">timewarp</property>
  <property name="kdenlive:control_uuid">{f7029f89-0dfc-44c9-89b6-2f417d4af4e6}</property>
  <property name="vstream">0</property>
  <property name="astream">-1</property>
  <property name="set.test_audio">1</property>
  <property name="set.test_image">0</property>
  <property name="kdenlive:id">14</property>
  <property name="warp_pitch">0</property>
  <property name="meta.media.frame_rate_num">60</property>
  <property name="meta.media.frame_rate_den">1</property>
  <property name="meta.media.colorspace">709</property>
  <property name="meta.media.color_trc">2</property>
  <property name="meta.media.has_b_frames">2</property>
  <property name="meta.media.width">3840</property>
  <property name="meta.media.height">2160</property>
  <property name="meta.media.aspect_ratio">1</property>
  <property name="meta.media.color_range">mpeg</property>
  <property name="meta.media.top_field_first">0</property>
  <property name="meta.media.progressive">1</property>
 </producer>
 <chain id="chain69" out="00:00:05.042">
  <property name="length">122</property>
  <property name="eof">pause</property>
  <property name="resource">C:/dev/workspace/indy/dist/room/attic/content/upscale/cross7.mp4</property>
  <property name="mlt_service">avformat-novalidate</property>
  <property name="seekable">1</property>
  <property name="audio_index">-1</property>
  <property name="video_index">0</property>
  <property name="vstream">0</property>
  <property name="kdenlive:control_uuid">{06521672-071e-4e93-a702-f6c7c1b17064}</property>
  <property name="kdenlive:id">16</property>
  <property name="kdenlive:clip_type">2</property>
  <property name="kdenlive:file_size">16676721</property>
  <property name="kdenlive:file_hash">b8f228d4f20ce1c83f77733bab4a687c</property>
  <property name="kdenlive:folderid">-1</property>
  <property name="meta.media.nb_streams">1</property>
  <property name="meta.media.0.stream.type">video</property>
  <property name="meta.media.0.stream.frame_rate">60</property>
  <property name="meta.media.0.stream.sample_aspect_ratio">0</property>
  <property name="meta.media.0.codec.width">3840</property>
  <property name="meta.media.0.codec.height">2160</property>
  <property name="meta.media.0.codec.rotate">0</property>
  <property name="meta.media.0.codec.pix_fmt">yuv444p</property>
  <property name="meta.media.0.codec.sample_aspect_ratio">0</property>
  <property name="meta.media.0.codec.colorspace">709</property>
  <property name="meta.media.0.codec.name">h264</property>
  <property name="meta.media.0.codec.long_name">H.264 / AVC / MPEG-4 AVC / MPEG-4 part 10</property>
  <property name="meta.media.0.codec.bit_rate">26151796</property>
  <property name="meta.attr.0.stream.handler_name.markup">VideoHandler</property>
  <property name="meta.attr.0.stream.vendor_id.markup">[0][0][0][0]</property>
  <property name="meta.attr.0.stream.encoder.markup">Lavc61.19.101 libx264</property>
  <property name="meta.attr.minor_version.markup">512</property>
  <property name="meta.attr.major_brand.markup">isom</property>
  <property name="meta.attr.compatible_brands.markup">isomiso2avc1mp41</property>
  <property name="meta.attr.encoder.markup">Lavf61.9.100</property>
  <property name="meta.media.sample_aspect_num">1</property>
  <property name="meta.media.sample_aspect_den">1</property>
  <property name="meta.media.frame_rate_num">60</property>
  <property name="meta.media.frame_rate_den">1</property>
  <property name="meta.media.colorspace">709</property>
  <property name="meta.media.color_trc">2</property>
  <property name="meta.media.has_b_frames">2</property>
  <property name="meta.media.width">3840</property>
  <property name="meta.media.height">2160</property>
  <property name="meta.media.aspect_ratio">1</property>
  <property name="meta.media.color_range">mpeg</property>
  <property name="xml">was here</property>
  <property name="mute_on_pause">0</property>
  <property name="meta.media.top_field_first">0</property>
  <property name="meta.media.progressive">1</property>
  <property name="set.test_audio">1</property>
  <property name="set.test_image">0</property>
 </chain>
 <producer id="producer41" in="00:00:00.000" out="00:00:05.042">
  <property name="length">122</property>
  <property name="eof">pause</property>
  <property name="resource">-1.000000:C:/dev/workspace/indy/dist/room/attic/content/upscale/cross7.mp4</property>
  <property name="aspect_ratio">1</property>
  <property name="meta.media.nb_streams">1</property>
  <property name="meta.media.0.stream.type">video</property>
  <property name="meta.media.0.stream.frame_rate">60</property>
  <property name="meta.media.0.stream.sample_aspect_ratio">0</property>
  <property name="meta.media.0.codec.width">3840</property>
  <property name="meta.media.0.codec.height">2160</property>
  <property name="meta.media.0.codec.rotate">0</property>
  <property name="meta.media.0.codec.pix_fmt">yuv444p</property>
  <property name="meta.media.0.codec.sample_aspect_ratio">0</property>
  <property name="meta.media.0.codec.colorspace">709</property>
  <property name="meta.media.0.codec.name">h264</property>
  <property name="meta.media.0.codec.long_name">H.264 / AVC / MPEG-4 AVC / MPEG-4 part 10</property>
  <property name="meta.media.0.codec.bit_rate">26151796</property>
  <property name="meta.attr.0.stream.handler_name.markup">VideoHandler</property>
  <property name="meta.attr.0.stream.vendor_id.markup">[0][0][0][0]</property>
  <property name="meta.attr.0.stream.encoder.markup">Lavc61.19.101 libx264</property>
  <property name="meta.attr.minor_version.markup">512</property>
  <property name="meta.attr.major_brand.markup">isom</property>
  <property name="meta.attr.compatible_brands.markup">isomiso2avc1mp41</property>
  <property name="meta.attr.encoder.markup">Lavf61.9.100</property>
  <property name="seekable">1</property>
  <property name="meta.media.sample_aspect_num">1</property>
  <property name="meta.media.sample_aspect_den">1</property>
  <property name="audio_index">-1</property>
  <property name="video_index">0</property>
  <property name="warp_speed">-1</property>
  <property name="warp_resource">C:/dev/workspace/indy/dist/room/attic/content/upscale/cross7.mp4</property>
  <property name="mlt_service">timewarp</property>
  <property name="kdenlive:control_uuid">{06521672-071e-4e93-a702-f6c7c1b17064}</property>
  <property name="vstream">0</property>
  <property name="astream">-1</property>
  <property name="set.test_audio">1</property>
  <property name="set.test_image">0</property>
  <property name="kdenlive:id">16</property>
  <property name="warp_pitch">0</property>
  <property name="meta.media.frame_rate_num">60</property>
  <property name="meta.media.frame_rate_den">1</property>
  <property name="meta.media.colorspace">709</property>
  <property name="meta.media.color_trc">2</property>
  <property name="meta.media.has_b_frames">2</property>
  <property name="meta.media.width">3840</property>
  <property name="meta.media.height">2160</property>
  <property name="meta.media.aspect_ratio">1</property>
  <property name="meta.media.color_range">mpeg</property>
  <property name="meta.media.top_field_first">0</property>
  <property name="meta.media.progressive">1</property>
 </producer>
 <chain id="chain70" out="00:00:05.042">
  <property name="length">122</property>
  <property name="eof">pause</property>
  <property name="resource">C:/dev/workspace/indy/dist/room/attic/content/upscale/cross6.mp4</property>
  <property name="mlt_service">avformat-novalidate</property>
  <property name="seekable">1</property>
  <property name="audio_index">-1</property>
  <property name="video_index">0</property>
  <property name="vstream">0</property>
  <property name="kdenlive:control_uuid">{f7029f89-0dfc-44c9-89b6-2f417d4af4e6}</property>
  <property name="kdenlive:id">14</property>
  <property name="kdenlive:clip_type">2</property>
  <property name="kdenlive:file_size">14403656</property>
  <property name="kdenlive:file_hash">b68cc720e2341624139bf3cdf9553d19</property>
  <property name="kdenlive:folderid">-1</property>
  <property name="meta.media.nb_streams">1</property>
  <property name="meta.media.0.stream.type">video</property>
  <property name="meta.media.0.stream.frame_rate">60</property>
  <property name="meta.media.0.stream.sample_aspect_ratio">0</property>
  <property name="meta.media.0.codec.width">3840</property>
  <property name="meta.media.0.codec.height">2160</property>
  <property name="meta.media.0.codec.rotate">0</property>
  <property name="meta.media.0.codec.pix_fmt">yuv444p</property>
  <property name="meta.media.0.codec.sample_aspect_ratio">0</property>
  <property name="meta.media.0.codec.colorspace">709</property>
  <property name="meta.media.0.codec.name">h264</property>
  <property name="meta.media.0.codec.long_name">H.264 / AVC / MPEG-4 AVC / MPEG-4 part 10</property>
  <property name="meta.media.0.codec.bit_rate">22586272</property>
  <property name="meta.attr.0.stream.handler_name.markup">VideoHandler</property>
  <property name="meta.attr.0.stream.vendor_id.markup">[0][0][0][0]</property>
  <property name="meta.attr.0.stream.encoder.markup">Lavc61.19.101 libx264</property>
  <property name="meta.attr.minor_version.markup">512</property>
  <property name="meta.attr.major_brand.markup">isom</property>
  <property name="meta.attr.compatible_brands.markup">isomiso2avc1mp41</property>
  <property name="meta.attr.encoder.markup">Lavf61.9.100</property>
  <property name="meta.media.sample_aspect_num">1</property>
  <property name="meta.media.sample_aspect_den">1</property>
  <property name="meta.media.frame_rate_num">60</property>
  <property name="meta.media.frame_rate_den">1</property>
  <property name="meta.media.colorspace">709</property>
  <property name="meta.media.color_trc">2</property>
  <property name="meta.media.has_b_frames">2</property>
  <property name="meta.media.width">3840</property>
  <property name="meta.media.height">2160</property>
  <property name="meta.media.aspect_ratio">1</property>
  <property name="meta.media.color_range">mpeg</property>
  <property name="xml">was here</property>
  <property name="mute_on_pause">0</property>
  <property name="meta.media.top_field_first">0</property>
  <property name="meta.media.progressive">1</property>
  <property name="set.test_audio">1</property>
  <property name="set.test_image">0</property>
 </chain>
 <producer id="producer42" in="00:00:00.000" out="00:00:05.042">
  <property name="length">122</property>
  <property name="eof">pause</property>
  <property name="resource">-1.000000:C:/dev/workspace/indy/dist/room/attic/content/upscale/cross6.mp4</property>
  <property name="aspect_ratio">1</property>
  <property name="meta.media.nb_streams">1</property>
  <property name="meta.media.0.stream.type">video</property>
  <property name="meta.media.0.stream.frame_rate">60</property>
  <property name="meta.media.0.stream.sample_aspect_ratio">0</property>
  <property name="meta.media.0.codec.width">3840</property>
  <property name="meta.media.0.codec.height">2160</property>
  <property name="meta.media.0.codec.rotate">0</property>
  <property name="meta.media.0.codec.pix_fmt">yuv444p</property>
  <property name="meta.media.0.codec.sample_aspect_ratio">0</property>
  <property name="meta.media.0.codec.colorspace">709</property>
  <property name="meta.media.0.codec.name">h264</property>
  <property name="meta.media.0.codec.long_name">H.264 / AVC / MPEG-4 AVC / MPEG-4 part 10</property>
  <property name="meta.media.0.codec.bit_rate">22586272</property>
  <property name="meta.attr.0.stream.handler_name.markup">VideoHandler</property>
  <property name="meta.attr.0.stream.vendor_id.markup">[0][0][0][0]</property>
  <property name="meta.attr.0.stream.encoder.markup">Lavc61.19.101 libx264</property>
  <property name="meta.attr.minor_version.markup">512</property>
  <property name="meta.attr.major_brand.markup">isom</property>
  <property name="meta.attr.compatible_brands.markup">isomiso2avc1mp41</property>
  <property name="meta.attr.encoder.markup">Lavf61.9.100</property>
  <property name="seekable">1</property>
  <property name="meta.media.sample_aspect_num">1</property>
  <property name="meta.media.sample_aspect_den">1</property>
  <property name="audio_index">-1</property>
  <property name="video_index">0</property>
  <property name="warp_speed">-1</property>
  <property name="warp_resource">C:/dev/workspace/indy/dist/room/attic/content/upscale/cross6.mp4</property>
  <property name="mlt_service">timewarp</property>
  <property name="kdenlive:control_uuid">{f7029f89-0dfc-44c9-89b6-2f417d4af4e6}</property>
  <property name="vstream">0</property>
  <property name="astream">-1</property>
  <property name="set.test_audio">1</property>
  <property name="set.test_image">0</property>
  <property name="kdenlive:id">14</property>
  <property name="warp_pitch">0</property>
  <property name="meta.media.frame_rate_num">60</property>
  <property name="meta.media.frame_rate_den">1</property>
  <property name="meta.media.colorspace">709</property>
  <property name="meta.media.color_trc">2</property>
  <property name="meta.media.has_b_frames">2</property>
  <property name="meta.media.width">3840</property>
  <property name="meta.media.height">2160</property>
  <property name="meta.media.aspect_ratio">1</property>
  <property name="meta.media.color_range">mpeg</property>
  <property name="meta.media.top_field_first">0</property>
  <property name="meta.media.progressive">1</property>
 </producer>
 <chain id="chain71" out="00:00:05.042">
  <property name="length">122</property>
  <property name="eof">pause</property>
  <property name="resource">C:/dev/workspace/indy/dist/room/attic/content/upscale/attic19.mp4</property>
  <property name="mlt_service">avformat-novalidate</property>
  <property name="seekable">1</property>
  <property name="audio_index">-1</property>
  <property name="video_index">0</property>
  <property name="vstream">0</property>
  <property name="kdenlive:control_uuid">{1b4902ff-a44a-4d35-944e-f32b5a577178}</property>
  <property name="kdenlive:id">20</property>
  <property name="kdenlive:clip_type">2</property>
  <property name="kdenlive:file_size">18106255</property>
  <property name="kdenlive:file_hash">fef4e5a65cf154643b050c1237297df4</property>
  <property name="kdenlive:folderid">-1</property>
  <property name="meta.media.nb_streams">1</property>
  <property name="meta.media.0.stream.type">video</property>
  <property name="meta.media.0.stream.frame_rate">60</property>
  <property name="meta.media.0.stream.sample_aspect_ratio">0</property>
  <property name="meta.media.0.codec.width">3840</property>
  <property name="meta.media.0.codec.height">2160</property>
  <property name="meta.media.0.codec.rotate">0</property>
  <property name="meta.media.0.codec.pix_fmt">yuv444p</property>
  <property name="meta.media.0.codec.sample_aspect_ratio">0</property>
  <property name="meta.media.0.codec.colorspace">709</property>
  <property name="meta.media.0.codec.name">h264</property>
  <property name="meta.media.0.codec.long_name">H.264 / AVC / MPEG-4 AVC / MPEG-4 part 10</property>
  <property name="meta.media.0.codec.bit_rate">28394227</property>
  <property name="meta.attr.0.stream.handler_name.markup">VideoHandler</property>
  <property name="meta.attr.0.stream.vendor_id.markup">[0][0][0][0]</property>
  <property name="meta.attr.0.stream.encoder.markup">Lavc61.19.101 libx264</property>
  <property name="meta.attr.minor_version.markup">512</property>
  <property name="meta.attr.major_brand.markup">isom</property>
  <property name="meta.attr.compatible_brands.markup">isomiso2avc1mp41</property>
  <property name="meta.attr.encoder.markup">Lavf61.9.100</property>
  <property name="meta.media.sample_aspect_num">1</property>
  <property name="meta.media.sample_aspect_den">1</property>
  <property name="meta.media.frame_rate_num">60</property>
  <property name="meta.media.frame_rate_den">1</property>
  <property name="meta.media.colorspace">709</property>
  <property name="meta.media.color_trc">2</property>
  <property name="meta.media.has_b_frames">2</property>
  <property name="meta.media.width">3840</property>
  <property name="meta.media.height">2160</property>
  <property name="meta.media.aspect_ratio">1</property>
  <property name="meta.media.color_range">mpeg</property>
  <property name="xml">was here</property>
  <property name="mute_on_pause">0</property>
  <property name="meta.media.top_field_first">0</property>
  <property name="meta.media.progressive">1</property>
  <property name="set.test_audio">1</property>
  <property name="set.test_image">0</property>
 </chain>
 <chain id="chain72" out="00:00:09.542">
  <property name="length">230</property>
  <property name="eof">pause</property>
  <property name="resource">C:/dev/workspace/indy/dist/room/attic/content/upscale/gargoyle6.mp4</property>
  <property name="mlt_service">avformat-novalidate</property>
  <property name="seekable">1</property>
  <property name="audio_index">-1</property>
  <property name="video_index">0</property>
  <property name="vstream">0</property>
  <property name="kdenlive:control_uuid">{d8175f0e-ab4e-4ede-a59e-79bf94ab578f}</property>
  <property name="kdenlive:id">21</property>
  <property name="kdenlive:clip_type">2</property>
  <property name="kdenlive:file_size">26853679</property>
  <property name="kdenlive:file_hash">1df128bca4125b45d93fd95b2353299e</property>
  <property name="kdenlive:folderid">-1</property>
  <property name="meta.media.nb_streams">1</property>
  <property name="meta.media.0.stream.type">video</property>
  <property name="meta.media.0.stream.frame_rate">60</property>
  <property name="meta.media.0.stream.sample_aspect_ratio">0</property>
  <property name="meta.media.0.codec.width">3840</property>
  <property name="meta.media.0.codec.height">2160</property>
  <property name="meta.media.0.codec.rotate">0</property>
  <property name="meta.media.0.codec.pix_fmt">yuv444p</property>
  <property name="meta.media.0.codec.sample_aspect_ratio">0</property>
  <property name="meta.media.0.codec.colorspace">709</property>
  <property name="meta.media.0.codec.name">h264</property>
  <property name="meta.media.0.codec.long_name">H.264 / AVC / MPEG-4 AVC / MPEG-4 part 10</property>
  <property name="meta.media.0.codec.bit_rate">22371146</property>
  <property name="meta.attr.0.stream.handler_name.markup">VideoHandler</property>
  <property name="meta.attr.0.stream.vendor_id.markup">[0][0][0][0]</property>
  <property name="meta.attr.0.stream.encoder.markup">Lavc61.19.101 libx264</property>
  <property name="meta.attr.minor_version.markup">512</property>
  <property name="meta.attr.major_brand.markup">isom</property>
  <property name="meta.attr.compatible_brands.markup">isomiso2avc1mp41</property>
  <property name="meta.attr.encoder.markup">Lavf61.9.100</property>
  <property name="meta.media.sample_aspect_num">1</property>
  <property name="meta.media.sample_aspect_den">1</property>
  <property name="meta.media.frame_rate_num">60</property>
  <property name="meta.media.frame_rate_den">1</property>
  <property name="meta.media.colorspace">709</property>
  <property name="meta.media.color_trc">2</property>
  <property name="meta.media.has_b_frames">2</property>
  <property name="meta.media.width">3840</property>
  <property name="meta.media.height">2160</property>
  <property name="meta.media.aspect_ratio">1</property>
  <property name="meta.media.color_range">mpeg</property>
  <property name="xml">was here</property>
  <property name="mute_on_pause">0</property>
  <property name="meta.media.top_field_first">0</property>
  <property name="meta.media.progressive">1</property>
  <property name="set.test_audio">1</property>
  <property name="set.test_image">0</property>
 </chain>
 <producer id="producer43" in="00:00:00.000" out="00:00:09.542">
  <property name="length">230</property>
  <property name="eof">pause</property>
  <property name="resource">-1.000000:C:/dev/workspace/indy/dist/room/attic/content/upscale/gargoyle6.mp4</property>
  <property name="aspect_ratio">1</property>
  <property name="meta.media.nb_streams">1</property>
  <property name="meta.media.0.stream.type">video</property>
  <property name="meta.media.0.stream.frame_rate">60</property>
  <property name="meta.media.0.stream.sample_aspect_ratio">0</property>
  <property name="meta.media.0.codec.width">3840</property>
  <property name="meta.media.0.codec.height">2160</property>
  <property name="meta.media.0.codec.rotate">0</property>
  <property name="meta.media.0.codec.pix_fmt">yuv444p</property>
  <property name="meta.media.0.codec.sample_aspect_ratio">0</property>
  <property name="meta.media.0.codec.colorspace">709</property>
  <property name="meta.media.0.codec.name">h264</property>
  <property name="meta.media.0.codec.long_name">H.264 / AVC / MPEG-4 AVC / MPEG-4 part 10</property>
  <property name="meta.media.0.codec.bit_rate">22371146</property>
  <property name="meta.attr.0.stream.handler_name.markup">VideoHandler</property>
  <property name="meta.attr.0.stream.vendor_id.markup">[0][0][0][0]</property>
  <property name="meta.attr.0.stream.encoder.markup">Lavc61.19.101 libx264</property>
  <property name="meta.attr.minor_version.markup">512</property>
  <property name="meta.attr.major_brand.markup">isom</property>
  <property name="meta.attr.compatible_brands.markup">isomiso2avc1mp41</property>
  <property name="meta.attr.encoder.markup">Lavf61.9.100</property>
  <property name="seekable">1</property>
  <property name="meta.media.sample_aspect_num">1</property>
  <property name="meta.media.sample_aspect_den">1</property>
  <property name="audio_index">-1</property>
  <property name="video_index">0</property>
  <property name="warp_speed">-1</property>
  <property name="warp_resource">C:/dev/workspace/indy/dist/room/attic/content/upscale/gargoyle6.mp4</property>
  <property name="mlt_service">timewarp</property>
  <property name="kdenlive:control_uuid">{d8175f0e-ab4e-4ede-a59e-79bf94ab578f}</property>
  <property name="vstream">0</property>
  <property name="astream">-1</property>
  <property name="set.test_audio">1</property>
  <property name="set.test_image">0</property>
  <property name="kdenlive:id">21</property>
  <property name="warp_pitch">0</property>
  <property name="meta.media.frame_rate_num">60</property>
  <property name="meta.media.frame_rate_den">1</property>
  <property name="meta.media.colorspace">709</property>
  <property name="meta.media.color_trc">2</property>
  <property name="meta.media.has_b_frames">2</property>
  <property name="meta.media.width">3840</property>
  <property name="meta.media.height">2160</property>
  <property name="meta.media.aspect_ratio">1</property>
  <property name="meta.media.color_range">mpeg</property>
  <property name="meta.media.top_field_first">0</property>
  <property name="meta.media.progressive">1</property>
 </producer>
 <chain id="chain73" out="00:00:05.042">
  <property name="length">122</property>
  <property name="eof">pause</property>
  <property name="resource">C:/dev/workspace/indy/dist/room/attic/content/upscale/attic20.mp4</property>
  <property name="mlt_service">avformat-novalidate</property>
  <property name="seekable">1</property>
  <property name="audio_index">-1</property>
  <property name="video_index">0</property>
  <property name="vstream">0</property>
  <property name="kdenlive:control_uuid">{800ace3f-1ac6-4346-8ff8-28b5c5c92197}</property>
  <property name="kdenlive:id">25</property>
  <property name="kdenlive:clip_type">2</property>
  <property name="kdenlive:file_size">18313745</property>
  <property name="kdenlive:file_hash">2b52ff0a8760bb68787e98a4f18023c4</property>
  <property name="kdenlive:folderid">-1</property>
  <property name="meta.media.nb_streams">1</property>
  <property name="meta.media.0.stream.type">video</property>
  <property name="meta.media.0.stream.frame_rate">60</property>
  <property name="meta.media.0.stream.sample_aspect_ratio">0</property>
  <property name="meta.media.0.codec.width">3840</property>
  <property name="meta.media.0.codec.height">2160</property>
  <property name="meta.media.0.codec.rotate">0</property>
  <property name="meta.media.0.codec.pix_fmt">yuv444p</property>
  <property name="meta.media.0.codec.sample_aspect_ratio">0</property>
  <property name="meta.media.0.codec.colorspace">709</property>
  <property name="meta.media.0.codec.name">h264</property>
  <property name="meta.media.0.codec.long_name">H.264 / AVC / MPEG-4 AVC / MPEG-4 part 10</property>
  <property name="meta.media.0.codec.bit_rate">28719658</property>
  <property name="meta.attr.0.stream.handler_name.markup">VideoHandler</property>
  <property name="meta.attr.0.stream.vendor_id.markup">[0][0][0][0]</property>
  <property name="meta.attr.0.stream.encoder.markup">Lavc61.19.101 libx264</property>
  <property name="meta.attr.minor_version.markup">512</property>
  <property name="meta.attr.major_brand.markup">isom</property>
  <property name="meta.attr.compatible_brands.markup">isomiso2avc1mp41</property>
  <property name="meta.attr.encoder.markup">Lavf61.9.100</property>
  <property name="meta.media.sample_aspect_num">1</property>
  <property name="meta.media.sample_aspect_den">1</property>
  <property name="meta.media.frame_rate_num">60</property>
  <property name="meta.media.frame_rate_den">1</property>
  <property name="meta.media.colorspace">709</property>
  <property name="meta.media.color_trc">2</property>
  <property name="meta.media.has_b_frames">2</property>
  <property name="meta.media.width">3840</property>
  <property name="meta.media.height">2160</property>
  <property name="meta.media.aspect_ratio">1</property>
  <property name="meta.media.color_range">mpeg</property>
  <property name="xml">was here</property>
  <property name="mute_on_pause">0</property>
  <property name="meta.media.top_field_first">0</property>
  <property name="meta.media.progressive">1</property>
  <property name="set.test_audio">1</property>
  <property name="set.test_image">0</property>
 </chain>
 <chain id="chain74" out="00:00:14.042">
  <property name="length">338</property>
  <property name="eof">pause</property>
  <property name="resource">C:/dev/workspace/indy/dist/room/attic/content/upscale/attic11.mp4</property>
  <property name="mlt_service">avformat-novalidate</property>
  <property name="seekable">1</property>
  <property name="audio_index">-1</property>
  <property name="video_index">0</property>
  <property name="vstream">0</property>
  <property name="kdenlive:control_uuid">{37a105fe-6fc8-40dc-8c5f-f4bece1c4c10}</property>
  <property name="kdenlive:id">26</property>
  <property name="kdenlive:clip_type">2</property>
  <property name="kdenlive:file_size">55216801</property>
  <property name="kdenlive:file_hash">5319e5f3c47dc9a4333f63e6743ac73b</property>
  <property name="kdenlive:folderid">-1</property>
  <property name="meta.media.nb_streams">1</property>
  <property name="meta.media.0.stream.type">video</property>
  <property name="meta.media.0.stream.frame_rate">60</property>
  <property name="meta.media.0.stream.sample_aspect_ratio">0</property>
  <property name="meta.media.0.codec.width">3840</property>
  <property name="meta.media.0.codec.height">2160</property>
  <property name="meta.media.0.codec.rotate">0</property>
  <property name="meta.media.0.codec.pix_fmt">yuv444p</property>
  <property name="meta.media.0.codec.sample_aspect_ratio">0</property>
  <property name="meta.media.0.codec.colorspace">709</property>
  <property name="meta.media.0.codec.name">h264</property>
  <property name="meta.media.0.codec.long_name">H.264 / AVC / MPEG-4 AVC / MPEG-4 part 10</property>
  <property name="meta.media.0.codec.bit_rate">31321946</property>
  <property name="meta.attr.0.stream.handler_name.markup">VideoHandler</property>
  <property name="meta.attr.0.stream.vendor_id.markup">[0][0][0][0]</property>
  <property name="meta.attr.0.stream.encoder.markup">Lavc61.19.101 libx264</property>
  <property name="meta.attr.minor_version.markup">512</property>
  <property name="meta.attr.major_brand.markup">isom</property>
  <property name="meta.attr.compatible_brands.markup">isomiso2avc1mp41</property>
  <property name="meta.attr.encoder.markup">Lavf61.9.100</property>
  <property name="meta.media.sample_aspect_num">1</property>
  <property name="meta.media.sample_aspect_den">1</property>
  <property name="meta.media.frame_rate_num">60</property>
  <property name="meta.media.frame_rate_den">1</property>
  <property name="meta.media.colorspace">709</property>
  <property name="meta.media.color_trc">2</property>
  <property name="meta.media.has_b_frames">2</property>
  <property name="meta.media.width">3840</property>
  <property name="meta.media.height">2160</property>
  <property name="meta.media.aspect_ratio">1</property>
  <property name="meta.media.color_range">mpeg</property>
  <property name="xml">was here</property>
  <property name="mute_on_pause">0</property>
  <property name="meta.media.top_field_first">0</property>
  <property name="meta.media.progressive">1</property>
  <property name="set.test_audio">1</property>
  <property name="set.test_image">0</property>
 </chain>
 <chain id="chain75" out="00:00:05.042">
  <property name="length">122</property>
  <property name="eof">pause</property>
  <property name="resource">C:/dev/workspace/indy/dist/room/attic/content/upscale/attic12.mp4</property>
  <property name="mlt_service">avformat-novalidate</property>
  <property name="seekable">1</property>
  <property name="audio_index">-1</property>
  <property name="video_index">0</property>
  <property name="vstream">0</property>
  <property name="kdenlive:control_uuid">{3d1f0e8c-f2b0-4e52-8b1c-fdc3180900cd}</property>
  <property name="kdenlive:id">27</property>
  <property name="kdenlive:clip_type">2</property>
  <property name="kdenlive:file_size">12212751</property>
  <property name="kdenlive:file_hash">65ec6cfb5f2e104a4576ed5c11718406</property>
  <property name="kdenlive:folderid">-1</property>
  <property name="meta.media.nb_streams">1</property>
  <property name="meta.media.0.stream.type">video</property>
  <property name="meta.media.0.stream.frame_rate">60</property>
  <property name="meta.media.0.stream.sample_aspect_ratio">0</property>
  <property name="meta.media.0.codec.width">3840</property>
  <property name="meta.media.0.codec.height">2160</property>
  <property name="meta.media.0.codec.rotate">0</property>
  <property name="meta.media.0.codec.pix_fmt">yuv444p</property>
  <property name="meta.media.0.codec.sample_aspect_ratio">0</property>
  <property name="meta.media.0.codec.colorspace">709</property>
  <property name="meta.media.0.codec.name">h264</property>
  <property name="meta.media.0.codec.long_name">H.264 / AVC / MPEG-4 AVC / MPEG-4 part 10</property>
  <property name="meta.media.0.codec.bit_rate">19149596</property>
  <property name="meta.attr.0.stream.handler_name.markup">VideoHandler</property>
  <property name="meta.attr.0.stream.vendor_id.markup">[0][0][0][0]</property>
  <property name="meta.attr.0.stream.encoder.markup">Lavc61.19.101 libx264</property>
  <property name="meta.attr.minor_version.markup">512</property>
  <property name="meta.attr.major_brand.markup">isom</property>
  <property name="meta.attr.compatible_brands.markup">isomiso2avc1mp41</property>
  <property name="meta.attr.encoder.markup">Lavf61.9.100</property>
  <property name="meta.media.sample_aspect_num">1</property>
  <property name="meta.media.sample_aspect_den">1</property>
  <property name="meta.media.frame_rate_num">60</property>
  <property name="meta.media.frame_rate_den">1</property>
  <property name="meta.media.colorspace">709</property>
  <property name="meta.media.color_trc">2</property>
  <property name="meta.media.has_b_frames">2</property>
  <property name="meta.media.width">3840</property>
  <property name="meta.media.height">2160</property>
  <property name="meta.media.aspect_ratio">1</property>
  <property name="meta.media.color_range">mpeg</property>
  <property name="xml">was here</property>
  <property name="mute_on_pause">0</property>
  <property name="meta.media.top_field_first">0</property>
  <property name="meta.media.progressive">1</property>
  <property name="set.test_audio">1</property>
  <property name="set.test_image">0</property>
 </chain>
 <chain id="chain76" out="00:00:04.625">
  <property name="length">112</property>
  <property name="eof">pause</property>
  <property name="resource">C:/dev/workspace/indy/dist/room/attic2/content/upscale/indy2.mp4</property>
  <property name="mlt_service">avformat-novalidate</property>
  <property name="seekable">1</property>
  <property name="audio_index">-1</property>
  <property name="video_index">0</property>
  <property name="vstream">0</property>
  <property name="kdenlive:control_uuid">{b1915c0a-8994-4a2c-a542-d60ccca5c0d4}</property>
  <property name="kdenlive:id">33</property>
  <property name="kdenlive:clip_type">2</property>
  <property name="kdenlive:file_size">20974494</property>
  <property name="kdenlive:file_hash">01892c86cbb4c4b5b59b997a16de63ce</property>
  <property name="kdenlive:folderid">-1</property>
  <property name="meta.media.nb_streams">1</property>
  <property name="meta.media.0.stream.type">video</property>
  <property name="meta.media.0.stream.frame_rate">60</property>
  <property name="meta.media.0.stream.sample_aspect_ratio">0</property>
  <property name="meta.media.0.codec.width">3840</property>
  <property name="meta.media.0.codec.height">2160</property>
  <property name="meta.media.0.codec.rotate">0</property>
  <property name="meta.media.0.codec.pix_fmt">yuv444p</property>
  <property name="meta.media.0.codec.sample_aspect_ratio">0</property>
  <property name="meta.media.0.codec.colorspace">709</property>
  <property name="meta.media.0.codec.name">h264</property>
  <property name="meta.media.0.codec.long_name">H.264 / AVC / MPEG-4 AVC / MPEG-4 part 10</property>
  <property name="meta.media.0.codec.bit_rate">26724606</property>
  <property name="meta.attr.0.stream.handler_name.markup">VideoHandler</property>
  <property name="meta.attr.0.stream.vendor_id.markup">[0][0][0][0]</property>
  <property name="meta.attr.0.stream.encoder.markup">Lavc61.19.101 libx264</property>
  <property name="meta.attr.minor_version.markup">512</property>
  <property name="meta.attr.major_brand.markup">isom</property>
  <property name="meta.attr.compatible_brands.markup">isomiso2avc1mp41</property>
  <property name="meta.attr.encoder.markup">Lavf61.9.100</property>
  <property name="meta.media.sample_aspect_num">1</property>
  <property name="meta.media.sample_aspect_den">1</property>
  <property name="meta.media.frame_rate_num">60</property>
  <property name="meta.media.frame_rate_den">1</property>
  <property name="meta.media.colorspace">709</property>
  <property name="meta.media.color_trc">2</property>
  <property name="meta.media.has_b_frames">2</property>
  <property name="meta.media.width">3840</property>
  <property name="meta.media.height">2160</property>
  <property name="meta.media.aspect_ratio">1</property>
  <property name="meta.media.color_range">mpeg</property>
  <property name="xml">was here</property>
  <property name="mute_on_pause">0</property>
  <property name="meta.media.top_field_first">0</property>
  <property name="meta.media.progressive">1</property>
  <property name="set.test_audio">1</property>
  <property name="set.test_image">0</property>
 </chain>
 <producer id="producer44" in="00:00:00.000" out="00:00:03.958">
  <property name="length">96</property>
  <property name="eof">pause</property>
  <property name="resource">1.162500:C:/dev/workspace/indy/dist/room/attic2/content/upscale/indy4.mp4</property>
  <property name="aspect_ratio">1</property>
  <property name="meta.media.nb_streams">1</property>
  <property name="meta.media.0.stream.type">video</property>
  <property name="meta.media.0.stream.frame_rate">60</property>
  <property name="meta.media.0.stream.sample_aspect_ratio">0</property>
  <property name="meta.media.0.codec.width">3840</property>
  <property name="meta.media.0.codec.height">2160</property>
  <property name="meta.media.0.codec.rotate">0</property>
  <property name="meta.media.0.codec.pix_fmt">yuv444p</property>
  <property name="meta.media.0.codec.sample_aspect_ratio">0</property>
  <property name="meta.media.0.codec.colorspace">709</property>
  <property name="meta.media.0.codec.name">h264</property>
  <property name="meta.media.0.codec.long_name">H.264 / AVC / MPEG-4 AVC / MPEG-4 part 10</property>
  <property name="meta.media.0.codec.bit_rate">32343522</property>
  <property name="meta.attr.0.stream.handler_name.markup">VideoHandler</property>
  <property name="meta.attr.0.stream.vendor_id.markup">[0][0][0][0]</property>
  <property name="meta.attr.0.stream.encoder.markup">Lavc61.19.101 libx264</property>
  <property name="meta.attr.minor_version.markup">512</property>
  <property name="meta.attr.major_brand.markup">isom</property>
  <property name="meta.attr.compatible_brands.markup">isomiso2avc1mp41</property>
  <property name="meta.attr.encoder.markup">Lavf61.9.100</property>
  <property name="seekable">1</property>
  <property name="meta.media.sample_aspect_num">1</property>
  <property name="meta.media.sample_aspect_den">1</property>
  <property name="audio_index">-1</property>
  <property name="video_index">0</property>
  <property name="warp_speed">1.1625</property>
  <property name="warp_resource">C:/dev/workspace/indy/dist/room/attic2/content/upscale/indy4.mp4</property>
  <property name="mlt_service">timewarp</property>
  <property name="kdenlive:control_uuid">{8b1621ca-8633-4196-b981-2cd151857227}</property>
  <property name="vstream">0</property>
  <property name="astream">-1</property>
  <property name="set.test_audio">1</property>
  <property name="set.test_image">0</property>
  <property name="kdenlive:id">63</property>
  <property name="warp_pitch">0</property>
  <property name="meta.media.frame_rate_num">60</property>
  <property name="meta.media.frame_rate_den">1</property>
  <property name="meta.media.colorspace">709</property>
  <property name="meta.media.color_trc">2</property>
  <property name="meta.media.has_b_frames">2</property>
  <property name="meta.media.width">3840</property>
  <property name="meta.media.height">2160</property>
  <property name="meta.media.aspect_ratio">1</property>
  <property name="meta.media.color_range">mpeg</property>
  <property name="meta.media.top_field_first">0</property>
  <property name="meta.media.progressive">1</property>
 </producer>
 <producer id="producer45" in="00:00:00.000" out="00:00:05.042">
  <property name="length">122</property>
  <property name="eof">pause</property>
  <property name="resource">-1.000000:C:/dev/workspace/indy/dist/room/attic2/content/upscale/indy6.mp4</property>
  <property name="aspect_ratio">1</property>
  <property name="meta.media.nb_streams">1</property>
  <property name="meta.media.0.stream.type">video</property>
  <property name="meta.media.0.stream.frame_rate">60</property>
  <property name="meta.media.0.stream.sample_aspect_ratio">0</property>
  <property name="meta.media.0.codec.width">3840</property>
  <property name="meta.media.0.codec.height">2160</property>
  <property name="meta.media.0.codec.rotate">0</property>
  <property name="meta.media.0.codec.pix_fmt">yuv444p</property>
  <property name="meta.media.0.codec.sample_aspect_ratio">0</property>
  <property name="meta.media.0.codec.colorspace">709</property>
  <property name="meta.media.0.codec.name">h264</property>
  <property name="meta.media.0.codec.long_name">H.264 / AVC / MPEG-4 AVC / MPEG-4 part 10</property>
  <property name="meta.media.0.codec.bit_rate">27310988</property>
  <property name="meta.attr.0.stream.handler_name.markup">VideoHandler</property>
  <property name="meta.attr.0.stream.vendor_id.markup">[0][0][0][0]</property>
  <property name="meta.attr.0.stream.encoder.markup">Lavc61.19.101 libx264</property>
  <property name="meta.attr.minor_version.markup">512</property>
  <property name="meta.attr.major_brand.markup">isom</property>
  <property name="meta.attr.compatible_brands.markup">isomiso2avc1mp41</property>
  <property name="meta.attr.encoder.markup">Lavf61.9.100</property>
  <property name="seekable">1</property>
  <property name="meta.media.sample_aspect_num">1</property>
  <property name="meta.media.sample_aspect_den">1</property>
  <property name="audio_index">-1</property>
  <property name="video_index">0</property>
  <property name="warp_speed">-1</property>
  <property name="warp_resource">C:/dev/workspace/indy/dist/room/attic2/content/upscale/indy6.mp4</property>
  <property name="mlt_service">timewarp</property>
  <property name="kdenlive:control_uuid">{7ac1dbec-6925-481d-b72f-a677d990fc0a}</property>
  <property name="vstream">0</property>
  <property name="astream">-1</property>
  <property name="set.test_audio">1</property>
  <property name="set.test_image">0</property>
  <property name="kdenlive:id">34</property>
  <property name="warp_pitch">0</property>
  <property name="meta.media.frame_rate_num">60</property>
  <property name="meta.media.frame_rate_den">1</property>
  <property name="meta.media.colorspace">709</property>
  <property name="meta.media.color_trc">2</property>
  <property name="meta.media.has_b_frames">2</property>
  <property name="meta.media.width">3840</property>
  <property name="meta.media.height">2160</property>
  <property name="meta.media.aspect_ratio">1</property>
  <property name="meta.media.color_range">mpeg</property>
  <property name="meta.media.top_field_first">0</property>
  <property name="meta.media.progressive">1</property>
 </producer>
 <playlist id="playlist20">
  <entry in="00:00:00.000" out="00:00:02.958" producer="chain66">
   <property name="kdenlive:id">5</property>
   <filter id="filter235">
    <property name="version">0.2</property>
    <property name="mlt_service">frei0r.coloradj_RGB</property>
    <property name="kdenlive_id">frei0r.coloradj_RGB</property>
    <property name="R">00:00:00.000=0.4</property>
    <property name="G">00:00:00.000=0.7</property>
    <property name="B">00:00:00.000=0.8</property>
    <property name="Action">0.5</property>
    <property name="Keep luma">1</property>
    <property name="Alpha controlled">0</property>
    <property name="Luma formula">1</property>
    <property name="kdenlive:collapsed">0</property>
   </filter>
  </entry>
  <blank length="00:00:15.000"/>
  <entry in="00:00:00.042" out="00:00:05.000" producer="producer35">
   <property name="kdenlive:id">73</property>
   <filter id="filter191">
    <property name="filter">frei0r.select0r</property>
    <property name="mlt_service">mask_start</property>
    <property name="kdenlive_id">mask_start-frei0r.select0r</property>
    <property name="filter.Color to select">1=0x0078b4ff</property>
    <property name="filter.Invert selection">0</property>
    <property name="filter.Selection subspace">0</property>
    <property name="filter.Subspace shape">0.5</property>
    <property name="filter.Edge mode">0.9</property>
    <property name="filter.Delta R / A / Hue">1=0.2</property>
    <property name="filter.Delta G / B / Chroma">1=0.2</property>
    <property name="filter.Delta B / I / I">1=0.2</property>
    <property name="filter.Slope">1=0.5</property>
    <property name="filter.Operation">0</property>
    <property name="kdenlive:collapsed">0</property>
   </filter>
   <filter id="filter192">
    <property name="version">0.2</property>
    <property name="mlt_service">frei0r.coloradj_RGB</property>
    <property name="kdenlive_id">frei0r.coloradj_RGB</property>
    <property name="R">00:00:00.042=0.5</property>
    <property name="G">00:00:00.042=0.5</property>
    <property name="B">00:00:00.042=0.4</property>
    <property name="Action">0.5</property>
    <property name="Keep luma">1</property>
    <property name="Alpha controlled">0</property>
    <property name="Luma formula">1</property>
    <property name="kdenlive:collapsed">1</property>
   </filter>
   <filter id="filter236">
    <property name="transition">frei0r.composition</property>
    <property name="mlt_image_format">rgba</property>
    <property name="mlt_service">mask_apply</property>
    <property name="kdenlive_id">mask_apply</property>
    <property name="kdenlive:collapsed">0</property>
   </filter>
  </entry>
  <entry in="00:00:00.000" out="00:00:01.958" producer="producer13">
   <property name="kdenlive:id">75</property>
   <filter id="filter62">
    <property name="filter">frei0r.select0r</property>
    <property name="mlt_service">mask_start</property>
    <property name="kdenlive_id">mask_start-frei0r.select0r</property>
    <property name="filter.Color to select">0=0x0078b4ff</property>
    <property name="filter.Invert selection">0</property>
    <property name="filter.Selection subspace">0</property>
    <property name="filter.Subspace shape">0.5</property>
    <property name="filter.Edge mode">0.9</property>
    <property name="filter.Delta R / A / Hue">0=0.2</property>
    <property name="filter.Delta G / B / Chroma">0=0.2</property>
    <property name="filter.Delta B / I / I">0=0.2</property>
    <property name="filter.Slope">0=0.5</property>
    <property name="filter.Operation">0</property>
    <property name="kdenlive:collapsed">1</property>
   </filter>
   <filter id="filter63">
    <property name="version">0.2</property>
    <property name="mlt_service">frei0r.coloradj_RGB</property>
    <property name="kdenlive_id">frei0r.coloradj_RGB</property>
    <property name="R">00:00:00.000=0.5</property>
    <property name="G">00:00:00.000=0.5</property>
    <property name="B">00:00:00.000=0.4</property>
    <property name="Action">0.5</property>
    <property name="Keep luma">1</property>
    <property name="Alpha controlled">0</property>
    <property name="Luma formula">1</property>
    <property name="kdenlive:collapsed">1</property>
   </filter>
   <filter id="filter64">
    <property name="transition">frei0r.composition</property>
    <property name="mlt_image_format">rgba</property>
    <property name="mlt_service">mask_apply</property>
    <property name="kdenlive_id">mask_apply</property>
   </filter>
  </entry>
  <entry in="00:00:00.000" out="00:00:01.958" producer="producer37">
   <property name="kdenlive:id">53</property>
   <filter id="filter242">
    <property name="filter">frei0r.select0r</property>
    <property name="mlt_service">mask_start</property>
    <property name="kdenlive_id">mask_start-frei0r.select0r</property>
    <property name="filter.Color to select">0=0x0078b4ff</property>
    <property name="filter.Invert selection">0</property>
    <property name="filter.Selection subspace">0</property>
    <property name="filter.Subspace shape">0.5</property>
    <property name="filter.Edge mode">0.9</property>
    <property name="filter.Delta R / A / Hue">0=0.2</property>
    <property name="filter.Delta G / B / Chroma">0=0.2</property>
    <property name="filter.Delta B / I / I">0=0.2</property>
    <property name="filter.Slope">0=0.5</property>
    <property name="filter.Operation">0</property>
    <property name="kdenlive:collapsed">1</property>
   </filter>
   <filter id="filter243">
    <property name="version">0.2</property>
    <property name="mlt_service">frei0r.coloradj_RGB</property>
    <property name="kdenlive_id">frei0r.coloradj_RGB</property>
    <property name="R">00:00:00.000=0.5</property>
    <property name="G">00:00:00.000=0.5</property>
    <property name="B">00:00:00.000=0.4</property>
    <property name="Action">0.5</property>
    <property name="Keep luma">1</property>
    <property name="Alpha controlled">0</property>
    <property name="Luma formula">1</property>
    <property name="kdenlive:collapsed">1</property>
   </filter>
   <filter id="filter244">
    <property name="transition">frei0r.composition</property>
    <property name="mlt_image_format">rgba</property>
    <property name="mlt_service">mask_apply</property>
    <property name="kdenlive_id">mask_apply</property>
    <property name="kdenlive:collapsed">0</property>
   </filter>
  </entry>
  <entry in="00:00:00.000" out="00:00:01.958" producer="chain68">
   <property name="kdenlive:id">13</property>
   <filter id="filter245">
    <property name="filter">frei0r.select0r</property>
    <property name="mlt_service">mask_start</property>
    <property name="kdenlive_id">mask_start-frei0r.select0r</property>
    <property name="filter.Color to select">0=0x0078b4ff</property>
    <property name="filter.Invert selection">0</property>
    <property name="filter.Selection subspace">0</property>
    <property name="filter.Subspace shape">0.5</property>
    <property name="filter.Edge mode">0.9</property>
    <property name="filter.Delta R / A / Hue">0=0.2</property>
    <property name="filter.Delta G / B / Chroma">0=0.2</property>
    <property name="filter.Delta B / I / I">0=0.2</property>
    <property name="filter.Slope">0=0.5</property>
    <property name="filter.Operation">0</property>
    <property name="kdenlive:collapsed">1</property>
   </filter>
   <filter id="filter246">
    <property name="version">0.2</property>
    <property name="mlt_service">frei0r.coloradj_RGB</property>
    <property name="kdenlive_id">frei0r.coloradj_RGB</property>
    <property name="R">00:00:00.000=0.5</property>
    <property name="G">00:00:00.000=0.5</property>
    <property name="B">00:00:00.000=0.4</property>
    <property name="Action">0.5</property>
    <property name="Keep luma">1</property>
    <property name="Alpha controlled">0</property>
    <property name="Luma formula">1</property>
    <property name="kdenlive:collapsed">1</property>
   </filter>
   <filter id="filter247">
    <property name="transition">frei0r.composition</property>
    <property name="mlt_image_format">rgba</property>
    <property name="mlt_service">mask_apply</property>
    <property name="kdenlive_id">mask_apply</property>
    <property name="kdenlive:collapsed">0</property>
    <property name="disable">0</property>
   </filter>
  </entry>
  <entry in="00:00:00.000" out="00:00:05.042" producer="producer38">
   <property name="kdenlive:id">14</property>
  </entry>
  <entry in="00:00:00.000" out="00:00:05.042" producer="chain69">
   <property name="kdenlive:id">16</property>
  </entry>
  <entry in="00:00:00.000" out="00:00:05.042" producer="producer41">
   <property name="kdenlive:id">16</property>
  </entry>
  <entry in="00:00:00.000" out="00:00:05.042" producer="chain70">
   <property name="kdenlive:id">14</property>
  </entry>
  <entry in="00:00:00.000" out="00:00:00.625" producer="producer42">
   <property name="kdenlive:id">14</property>
  </entry>
  <entry in="00:00:02.542" out="00:00:04.500" producer="chain71">
   <property name="kdenlive:id">20</property>
  </entry>
  <entry in="00:00:00.000" out="00:00:06.958" producer="chain72">
   <property name="kdenlive:id">21</property>
  </entry>
  <entry in="00:00:02.542" out="00:00:05.500" producer="producer43">
   <property name="kdenlive:id">21</property>
  </entry>
  <entry in="00:00:01.083" out="00:00:05.042" producer="chain73">
   <property name="kdenlive:id">25</property>
  </entry>
  <entry in="00:00:00.000" out="00:00:09.958" producer="chain74">
   <property name="kdenlive:id">26</property>
   <filter id="filter248">
    <property name="filter">frei0r.select0r</property>
    <property name="mlt_service">mask_start</property>
    <property name="kdenlive_id">mask_start-frei0r.select0r</property>
    <property name="filter.Color to select">0=0x0078b4ff</property>
    <property name="filter.Invert selection">0</property>
    <property name="filter.Selection subspace">0</property>
    <property name="filter.Subspace shape">0.5</property>
    <property name="filter.Edge mode">0.9</property>
    <property name="filter.Delta R / A / Hue">0=0.2</property>
    <property name="filter.Delta G / B / Chroma">0=0.2</property>
    <property name="filter.Delta B / I / I">0=0.2</property>
    <property name="filter.Slope">0=0.5</property>
    <property name="filter.Operation">0</property>
    <property name="kdenlive:collapsed">1</property>
   </filter>
   <filter id="filter249">
    <property name="version">0.2</property>
    <property name="mlt_service">frei0r.coloradj_RGB</property>
    <property name="kdenlive_id">frei0r.coloradj_RGB</property>
    <property name="R">00:00:00.000=0.5</property>
    <property name="G">00:00:00.000=0.5</property>
    <property name="B">00:00:00.000=0.4</property>
    <property name="Action">0.5</property>
    <property name="Keep luma">1</property>
    <property name="Alpha controlled">0</property>
    <property name="Luma formula">1</property>
    <property name="kdenlive:collapsed">1</property>
   </filter>
   <filter id="filter250">
    <property name="transition">frei0r.composition</property>
    <property name="mlt_image_format">rgba</property>
    <property name="mlt_service">mask_apply</property>
    <property name="kdenlive_id">mask_apply</property>
    <property name="kdenlive:collapsed">0</property>
   </filter>
  </entry>
  <entry in="00:00:00.000" out="00:00:04.958" producer="chain75">
   <property name="kdenlive:id">27</property>
   <filter id="filter251">
    <property name="filter">frei0r.select0r</property>
    <property name="mlt_service">mask_start</property>
    <property name="kdenlive_id">mask_start-frei0r.select0r</property>
    <property name="filter.Color to select">0=0x0078b4ff</property>
    <property name="filter.Invert selection">0</property>
    <property name="filter.Selection subspace">0</property>
    <property name="filter.Subspace shape">0.5</property>
    <property name="filter.Edge mode">0.9</property>
    <property name="filter.Delta R / A / Hue">0=0.2</property>
    <property name="filter.Delta G / B / Chroma">0=0.2</property>
    <property name="filter.Delta B / I / I">0=0.2</property>
    <property name="filter.Slope">0=0.5</property>
    <property name="filter.Operation">0</property>
    <property name="kdenlive:collapsed">1</property>
   </filter>
   <filter id="filter252">
    <property name="version">0.2</property>
    <property name="mlt_service">frei0r.coloradj_RGB</property>
    <property name="kdenlive_id">frei0r.coloradj_RGB</property>
    <property name="R">00:00:00.000=0.5</property>
    <property name="G">00:00:00.000=0.5</property>
    <property name="B">00:00:00.000=0.4</property>
    <property name="Action">0.5</property>
    <property name="Keep luma">1</property>
    <property name="Alpha controlled">0</property>
    <property name="Luma formula">1</property>
    <property name="kdenlive:collapsed">1</property>
   </filter>
   <filter id="filter253">
    <property name="transition">frei0r.composition</property>
    <property name="mlt_image_format">rgba</property>
    <property name="mlt_service">mask_apply</property>
    <property name="kdenlive_id">mask_apply</property>
    <property name="kdenlive:collapsed">0</property>
   </filter>
  </entry>
  <blank length="00:00:05.000"/>
  <entry in="00:00:01.667" out="00:00:04.625" producer="chain76">
   <property name="kdenlive:id">33</property>
   <filter id="filter254">
    <property name="version">0.2</property>
    <property name="mlt_service">frei0r.contrast0r</property>
    <property name="kdenlive_id">frei0r.contrast0r</property>
    <property name="Contrast">00:00:01.667=0.56;00:00:02.667=0.52</property>
    <property name="kdenlive:collapsed">0</property>
    <property name="disable">1</property>
   </filter>
  </entry>
  <entry in="00:00:00.000" out="00:00:03.958" producer="producer44">
   <property name="kdenlive:id">63</property>
   <filter id="filter255">
    <property name="version">0.2</property>
    <property name="mlt_service">frei0r.contrast0r</property>
    <property name="kdenlive_id">frei0r.contrast0r</property>
    <property name="Contrast">00:00:00.000=0.52</property>
    <property name="kdenlive:collapsed">0</property>
    <property name="disable">1</property>
   </filter>
  </entry>
  <entry in="00:00:01.000" out="00:00:03.417" producer="producer45">
   <property name="kdenlive:id">34</property>
  </entry>
  <entry in="00:00:00.000" out="00:00:04.250" producer="producer39">
   <property name="kdenlive:id">65</property>
   <filter id="filter256" out="00:00:02.000">
    <property name="start">1</property>
    <property name="level">1</property>
    <property name="mlt_service">brightness</property>
    <property name="kdenlive_id">fade_from_black</property>
    <property name="alpha">00:00:00.000=0;00:00:02.000=1</property>
    <property name="kdenlive:collapsed">0</property>
   </filter>
  </entry>
  <entry in="00:00:00.000" out="00:00:04.208" producer="producer40">
   <property name="kdenlive:id">68</property>
  </entry>
 </playlist>
 <playlist id="playlist21"/>
 <tractor id="tractor10" in="00:00:00.000" out="00:01:43.958">
  <property name="kdenlive:trackheight">67</property>
  <property name="kdenlive:timeline_active">1</property>
  <property name="kdenlive:collapsed">0</property>
  <property name="kdenlive:thumbs_format"/>
  <property name="kdenlive:audio_rec"/>
  <track hide="audio" producer="playlist20"/>
  <track hide="audio" producer="playlist21"/>
 </tractor>
 <producer id="producer56" in="00:00:00.000" out="00:00:05.042">
  <property name="length">122</property>
  <property name="eof">pause</property>
  <property name="resource">-1.000000:C:/dev/workspace/indy/dist/room/attic/content/upscale/indy4.mp4</property>
  <property name="aspect_ratio">1</property>
  <property name="meta.media.nb_streams">1</property>
  <property name="meta.media.0.stream.type">video</property>
  <property name="meta.media.0.stream.frame_rate">60</property>
  <property name="meta.media.0.stream.sample_aspect_ratio">0</property>
  <property name="meta.media.0.codec.width">3840</property>
  <property name="meta.media.0.codec.height">2160</property>
  <property name="meta.media.0.codec.rotate">0</property>
  <property name="meta.media.0.codec.pix_fmt">yuv444p</property>
  <property name="meta.media.0.codec.sample_aspect_ratio">0</property>
  <property name="meta.media.0.codec.colorspace">709</property>
  <property name="meta.media.0.codec.name">h264</property>
  <property name="meta.media.0.codec.long_name">H.264 / AVC / MPEG-4 AVC / MPEG-4 part 10</property>
  <property name="meta.media.0.codec.bit_rate">25151217</property>
  <property name="meta.attr.0.stream.handler_name.markup">VideoHandler</property>
  <property name="meta.attr.0.stream.vendor_id.markup">[0][0][0][0]</property>
  <property name="meta.attr.0.stream.encoder.markup">Lavc61.19.101 libx264</property>
  <property name="meta.attr.minor_version.markup">512</property>
  <property name="meta.attr.major_brand.markup">isom</property>
  <property name="meta.attr.compatible_brands.markup">isomiso2avc1mp41</property>
  <property name="meta.attr.encoder.markup">Lavf61.9.100</property>
  <property name="seekable">1</property>
  <property name="meta.media.sample_aspect_num">1</property>
  <property name="meta.media.sample_aspect_den">1</property>
  <property name="audio_index">-1</property>
  <property name="video_index">0</property>
  <property name="warp_speed">-1</property>
  <property name="warp_resource">C:/dev/workspace/indy/dist/room/attic/content/upscale/indy4.mp4</property>
  <property name="mlt_service">timewarp</property>
  <property name="kdenlive:control_uuid">{ce655b94-4300-4aac-bd7a-4dd698a98a9e}</property>
  <property name="vstream">0</property>
  <property name="astream">-1</property>
  <property name="set.test_audio">1</property>
  <property name="set.test_image">0</property>
  <property name="kdenlive:id">7</property>
  <property name="warp_pitch">0</property>
  <property name="meta.media.frame_rate_num">60</property>
  <property name="meta.media.frame_rate_den">1</property>
  <property name="meta.media.colorspace">709</property>
  <property name="meta.media.color_trc">2</property>
  <property name="meta.media.has_b_frames">2</property>
  <property name="meta.media.width">3840</property>
  <property name="meta.media.height">2160</property>
  <property name="meta.media.aspect_ratio">1</property>
  <property name="meta.media.color_range">mpeg</property>
  <property name="meta.media.top_field_first">0</property>
  <property name="meta.media.progressive">1</property>
 </producer>
 <chain id="chain78" out="00:00:10.208">
  <property name="length">246</property>
  <property name="eof">pause</property>
  <property name="resource">C:/dev/workspace/indy/dist/room/attic/content/upscale/dialog.mp4</property>
  <property name="mlt_service">avformat-novalidate</property>
  <property name="seekable">1</property>
  <property name="audio_index">1</property>
  <property name="video_index">0</property>
  <property name="vstream">0</property>
  <property name="astream">0</property>
  <property name="kdenlive:control_uuid">{94453abe-6dc7-456f-8ad2-e79f6eb1f138}</property>
  <property name="kdenlive:id">46</property>
  <property name="kdenlive:clip_type">0</property>
  <property name="kdenlive:file_size">27745039</property>
  <property name="kdenlive:file_hash">4bba1adba9629faa7e03b6d955426a50</property>
  <property name="kdenlive:folderid">-1</property>
  <property name="meta.media.nb_streams">2</property>
  <property name="meta.media.0.stream.type">video</property>
  <property name="meta.media.0.stream.frame_rate">30</property>
  <property name="meta.media.0.stream.sample_aspect_ratio">0</property>
  <property name="meta.media.0.codec.width">3840</property>
  <property name="meta.media.0.codec.height">2160</property>
  <property name="meta.media.0.codec.rotate">0</property>
  <property name="meta.media.0.codec.pix_fmt">yuv444p</property>
  <property name="meta.media.0.codec.sample_aspect_ratio">0</property>
  <property name="meta.media.0.codec.colorspace">709</property>
  <property name="meta.media.0.codec.name">h264</property>
  <property name="meta.media.0.codec.long_name">H.264 / AVC / MPEG-4 AVC / MPEG-4 part 10</property>
  <property name="meta.media.0.codec.bit_rate">19904928</property>
  <property name="meta.attr.0.stream.handler_name.markup">VideoHandler</property>
  <property name="meta.attr.0.stream.vendor_id.markup">[0][0][0][0]</property>
  <property name="meta.attr.0.stream.encoder.markup">Lavc61.19.101 libx264</property>
  <property name="meta.media.1.stream.type">audio</property>
  <property name="meta.media.1.codec.sample_fmt">fltp</property>
  <property name="meta.media.1.codec.sample_rate">48000</property>
  <property name="meta.media.1.codec.channels">2</property>
  <property name="meta.media.1.codec.layout">stereo</property>
  <property name="meta.media.1.codec.name">aac</property>
  <property name="meta.media.1.codec.long_name">AAC (Advanced Audio Coding)</property>
  <property name="meta.media.1.codec.bit_rate">103120</property>
  <property name="meta.attr.1.stream.handler_name.markup">SoundHandler</property>
  <property name="meta.attr.1.stream.vendor_id.markup">[0][0][0][0]</property>
  <property name="meta.attr.minor_version.markup">512</property>
  <property name="meta.attr.major_brand.markup">isom</property>
  <property name="meta.attr.compatible_brands.markup">isomiso2avc1mp41</property>
  <property name="meta.attr.encoder.markup">Lavf61.9.100</property>
  <property name="meta.media.sample_aspect_num">1</property>
  <property name="meta.media.sample_aspect_den">1</property>
  <property name="meta.media.frame_rate_num">30</property>
  <property name="meta.media.frame_rate_den">1</property>
  <property name="meta.media.colorspace">709</property>
  <property name="meta.media.color_trc">2</property>
  <property name="meta.media.has_b_frames">2</property>
  <property name="meta.media.width">3840</property>
  <property name="meta.media.height">2160</property>
  <property name="meta.media.aspect_ratio">1</property>
  <property name="meta.media.color_range">mpeg</property>
  <property name="xml">was here</property>
  <property name="mute_on_pause">0</property>
  <property name="meta.media.top_field_first">0</property>
  <property name="meta.media.progressive">1</property>
  <property name="set.test_audio">1</property>
  <property name="set.test_image">0</property>
 </chain>
 <chain id="chain79" out="00:00:03.958">
  <property name="length">96</property>
  <property name="eof">pause</property>
  <property name="resource">C:/dev/workspace/indy/dist/room/attic/content/upscale/dialog2.mp4</property>
  <property name="mlt_service">avformat-novalidate</property>
  <property name="seekable">1</property>
  <property name="audio_index">1</property>
  <property name="video_index">0</property>
  <property name="vstream">0</property>
  <property name="astream">0</property>
  <property name="kdenlive:control_uuid">{8a1d1a51-3b09-487f-b7e9-f124a871366a}</property>
  <property name="kdenlive:id">55</property>
  <property name="kdenlive:clip_type">0</property>
  <property name="kdenlive:file_size">12573357</property>
  <property name="kdenlive:file_hash">a066089dc084b7ab69cd37717149b966</property>
  <property name="kdenlive:folderid">-1</property>
  <property name="meta.media.nb_streams">2</property>
  <property name="meta.media.0.stream.type">video</property>
  <property name="meta.media.0.stream.frame_rate">60</property>
  <property name="meta.media.0.stream.sample_aspect_ratio">0</property>
  <property name="meta.media.0.codec.width">3840</property>
  <property name="meta.media.0.codec.height">2160</property>
  <property name="meta.media.0.codec.rotate">0</property>
  <property name="meta.media.0.codec.pix_fmt">yuv444p</property>
  <property name="meta.media.0.codec.sample_aspect_ratio">0</property>
  <property name="meta.media.0.codec.colorspace">709</property>
  <property name="meta.media.0.codec.name">h264</property>
  <property name="meta.media.0.codec.long_name">H.264 / AVC / MPEG-4 AVC / MPEG-4 part 10</property>
  <property name="meta.media.0.codec.bit_rate">25060128</property>
  <property name="meta.attr.0.stream.handler_name.markup">VideoHandler</property>
  <property name="meta.attr.0.stream.vendor_id.markup">[0][0][0][0]</property>
  <property name="meta.attr.0.stream.encoder.markup">Lavc61.19.101 libx264</property>
  <property name="meta.media.1.stream.type">audio</property>
  <property name="meta.media.1.codec.sample_fmt">fltp</property>
  <property name="meta.media.1.codec.sample_rate">48000</property>
  <property name="meta.media.1.codec.channels">2</property>
  <property name="meta.media.1.codec.layout">stereo</property>
  <property name="meta.media.1.codec.name">aac</property>
  <property name="meta.media.1.codec.long_name">AAC (Advanced Audio Coding)</property>
  <property name="meta.media.1.codec.bit_rate">70438</property>
  <property name="meta.attr.1.stream.handler_name.markup">SoundHandler</property>
  <property name="meta.attr.1.stream.vendor_id.markup">[0][0][0][0]</property>
  <property name="meta.attr.minor_version.markup">512</property>
  <property name="meta.attr.major_brand.markup">isom</property>
  <property name="meta.attr.compatible_brands.markup">isomiso2avc1mp41</property>
  <property name="meta.attr.encoder.markup">Lavf61.9.100</property>
  <property name="meta.media.sample_aspect_num">1</property>
  <property name="meta.media.sample_aspect_den">1</property>
  <property name="meta.media.frame_rate_num">60</property>
  <property name="meta.media.frame_rate_den">1</property>
  <property name="meta.media.colorspace">709</property>
  <property name="meta.media.color_trc">2</property>
  <property name="meta.media.has_b_frames">2</property>
  <property name="meta.media.width">3840</property>
  <property name="meta.media.height">2160</property>
  <property name="meta.media.aspect_ratio">1</property>
  <property name="meta.media.color_range">mpeg</property>
  <property name="xml">was here</property>
  <property name="mute_on_pause">0</property>
  <property name="meta.media.top_field_first">0</property>
  <property name="meta.media.progressive">1</property>
  <property name="set.test_audio">1</property>
  <property name="set.test_image">0</property>
 </chain>
 <chain id="chain80" out="00:00:05.042">
  <property name="length">122</property>
  <property name="eof">pause</property>
  <property name="resource">C:/dev/workspace/indy/dist/room/attic2/content/upscale/indy.mp4</property>
  <property name="mlt_service">avformat-novalidate</property>
  <property name="seekable">1</property>
  <property name="audio_index">-1</property>
  <property name="video_index">0</property>
  <property name="vstream">0</property>
  <property name="kdenlive:control_uuid">{e88f9709-3353-4026-bc2f-282fcf84ce26}</property>
  <property name="kdenlive:id">32</property>
  <property name="kdenlive:clip_type">2</property>
  <property name="kdenlive:file_size">15361542</property>
  <property name="kdenlive:file_hash">56ca686ab9ca25016bdd3a6b935f41b0</property>
  <property name="kdenlive:folderid">-1</property>
  <property name="meta.media.nb_streams">1</property>
  <property name="meta.media.0.stream.type">video</property>
  <property name="meta.media.0.stream.frame_rate">60</property>
  <property name="meta.media.0.stream.sample_aspect_ratio">0</property>
  <property name="meta.media.0.codec.width">3840</property>
  <property name="meta.media.0.codec.height">2160</property>
  <property name="meta.media.0.codec.rotate">0</property>
  <property name="meta.media.0.codec.pix_fmt">yuv444p</property>
  <property name="meta.media.0.codec.sample_aspect_ratio">0</property>
  <property name="meta.media.0.codec.colorspace">709</property>
  <property name="meta.media.0.codec.name">h264</property>
  <property name="meta.media.0.codec.long_name">H.264 / AVC / MPEG-4 AVC / MPEG-4 part 10</property>
  <property name="meta.media.0.codec.bit_rate">24088795</property>
  <property name="meta.attr.0.stream.handler_name.markup">VideoHandler</property>
  <property name="meta.attr.0.stream.vendor_id.markup">[0][0][0][0]</property>
  <property name="meta.attr.0.stream.encoder.markup">Lavc61.19.101 libx264</property>
  <property name="meta.attr.minor_version.markup">512</property>
  <property name="meta.attr.major_brand.markup">isom</property>
  <property name="meta.attr.compatible_brands.markup">isomiso2avc1mp41</property>
  <property name="meta.attr.encoder.markup">Lavf61.9.100</property>
  <property name="meta.media.sample_aspect_num">1</property>
  <property name="meta.media.sample_aspect_den">1</property>
  <property name="meta.media.frame_rate_num">60</property>
  <property name="meta.media.frame_rate_den">1</property>
  <property name="meta.media.colorspace">709</property>
  <property name="meta.media.color_trc">2</property>
  <property name="meta.media.has_b_frames">2</property>
  <property name="meta.media.width">3840</property>
  <property name="meta.media.height">2160</property>
  <property name="meta.media.aspect_ratio">1</property>
  <property name="meta.media.color_range">mpeg</property>
  <property name="xml">was here</property>
  <property name="mute_on_pause">0</property>
  <property name="meta.media.top_field_first">0</property>
  <property name="meta.media.progressive">1</property>
  <property name="set.test_audio">1</property>
  <property name="set.test_image">0</property>
 </chain>
 <playlist id="playlist22">
  <blank length="00:00:03.000"/>
  <entry in="00:00:00.083" out="00:00:05.042" producer="producer56">
   <property name="kdenlive:id">7</property>
   <filter id="filter262">
    <property name="rotate_center">1</property>
    <property name="mlt_service">qtblend</property>
    <property name="kdenlive_id">qtblend</property>
    <property name="compositing">0</property>
    <property name="distort">1</property>
    <property name="rect">00:00:00.083=660 0 3840 2160 1.000000;00:00:04.083=660 0 3840 2160 1.000000;00:00:05.042=550 0 4060 2160 1.000000</property>
    <property name="rotation">00:00:00.083=0;00:00:04.083=0;00:00:05.042=0</property>
    <property name="kdenlive:collapsed">0</property>
   </filter>
  </entry>
  <entry in="00:00:00.000" out="00:00:09.958" producer="chain78">
   <property name="kdenlive:id">46</property>
   <filter id="filter263">
    <property name="rotate_center">1</property>
    <property name="mlt_service">qtblend</property>
    <property name="kdenlive_id">qtblend</property>
    <property name="compositing">0</property>
    <property name="distort">0</property>
    <property name="rect">00:00:00.000=540 0 4148 2333 1.000000;00:00:04.000=660 0 3840 2160 1.000000</property>
    <property name="rotation">00:00:00.000=0;00:00:04.000=0</property>
    <property name="kdenlive:collapsed">0</property>
   </filter>
  </entry>
  <blank length="00:00:44.000"/>
  <entry in="00:00:00.000" out="00:00:02.417" producer="chain79">
   <property name="kdenlive:id">55</property>
   <filter id="filter264">
    <property name="filter">frei0r.select0r</property>
    <property name="mlt_service">mask_start</property>
    <property name="kdenlive_id">mask_start-frei0r.select0r</property>
    <property name="filter.Color to select">0=0x0078b4ff</property>
    <property name="filter.Invert selection">0</property>
    <property name="filter.Selection subspace">0</property>
    <property name="filter.Subspace shape">0.5</property>
    <property name="filter.Edge mode">0.9</property>
    <property name="filter.Delta R / A / Hue">0=0.2</property>
    <property name="filter.Delta G / B / Chroma">0=0.2</property>
    <property name="filter.Delta B / I / I">0=0.2</property>
    <property name="filter.Slope">0=0.5</property>
    <property name="filter.Operation">0</property>
    <property name="kdenlive:collapsed">1</property>
   </filter>
   <filter id="filter265">
    <property name="version">0.2</property>
    <property name="mlt_service">frei0r.coloradj_RGB</property>
    <property name="kdenlive_id">frei0r.coloradj_RGB</property>
    <property name="R">00:00:00.000=0.5</property>
    <property name="G">00:00:00.000=0.5</property>
    <property name="B">00:00:00.000=0.4</property>
    <property name="Action">0.5</property>
    <property name="Keep luma">1</property>
    <property name="Alpha controlled">0</property>
    <property name="Luma formula">1</property>
    <property name="kdenlive:collapsed">0</property>
   </filter>
   <filter id="filter266">
    <property name="transition">frei0r.composition</property>
    <property name="mlt_image_format">rgba</property>
    <property name="mlt_service">mask_apply</property>
    <property name="kdenlive_id">mask_apply</property>
    <property name="kdenlive:collapsed">0</property>
   </filter>
  </entry>
  <blank length="00:00:16.542"/>
  <entry in="00:00:00.000" out="00:00:04.958" producer="chain80">
   <property name="kdenlive:id">32</property>
   <filter id="filter267">
    <property name="version">0.2</property>
    <property name="mlt_service">frei0r.coloradj_RGB</property>
    <property name="kdenlive_id">frei0r.coloradj_RGB</property>
    <property name="R">00:00:00.000=0.4</property>
    <property name="G">00:00:00.000=0.6</property>
    <property name="B">00:00:00.000=0.6</property>
    <property name="Action">0.5</property>
    <property name="Keep luma">1</property>
    <property name="Alpha controlled">0</property>
    <property name="Luma formula">1</property>
    <property name="kdenlive:collapsed">0</property>
    <property name="disable">0</property>
   </filter>
   <filter id="filter268">
    <property name="version">0.2</property>
    <property name="mlt_service">frei0r.contrast0r</property>
    <property name="kdenlive_id">frei0r.contrast0r</property>
    <property name="Contrast">00:00:00.000=0.5</property>
    <property name="kdenlive:collapsed">0</property>
    <property name="disable">1</property>
   </filter>
   <filter id="filter269">
    <property name="rotate_center">1</property>
    <property name="mlt_service">qtblend</property>
    <property name="kdenlive_id">qtblend</property>
    <property name="rect">00:00:00.000=545 -64 4070 2289 1.000000</property>
    <property name="rotation">00:00:00.000=0</property>
    <property name="compositing">0</property>
    <property name="distort">0</property>
    <property name="kdenlive:collapsed">0</property>
    <property name="disable">0</property>
   </filter>
  </entry>
  <blank length="00:00:03.000"/>
  <entry in="00:00:00.000" out="00:00:00.167" producer="producer16">
   <property name="kdenlive:id">77</property>
   <filter id="filter65" in="00:00:-0.042" out="00:00:00.167">
    <property name="start">1</property>
    <property name="level">1</property>
    <property name="mlt_service">brightness</property>
    <property name="kdenlive_id">fade_to_black</property>
    <property name="alpha">00:00:00.000=1;00:00:00.208=0</property>
    <property name="kdenlive:collapsed">0</property>
   </filter>
  </entry>
 </playlist>
 <playlist id="playlist23"/>
 <tractor id="tractor11" in="00:00:00.000" out="00:01:29.167">
  <property name="kdenlive:trackheight">67</property>
  <property name="kdenlive:timeline_active">1</property>
  <property name="kdenlive:collapsed">0</property>
  <property name="kdenlive:track_name">wide</property>
  <property name="kdenlive:thumbs_format"/>
  <property name="kdenlive:audio_rec"/>
  <track hide="audio" producer="playlist22"/>
  <track hide="audio" producer="playlist23"/>
 </tractor>
 <chain id="chain81" out="00:00:10.250">
  <property name="length">247</property>
  <property name="eof">pause</property>
  <property name="resource">C:/dev/workspace/indy/dist/room/attic/content/upscale/dialog3.mp4</property>
  <property name="mlt_service">avformat-novalidate</property>
  <property name="seekable">1</property>
  <property name="audio_index">1</property>
  <property name="video_index">0</property>
  <property name="vstream">0</property>
  <property name="astream">0</property>
  <property name="kdenlive:control_uuid">{fbb7c544-bbaa-4b87-8401-e8c9da2aebd6}</property>
  <property name="kdenlive:id">47</property>
  <property name="kdenlive:clip_type">0</property>
  <property name="kdenlive:file_size">26547258</property>
  <property name="kdenlive:file_hash">6f6126996a70616b1ab317f54b5d811b</property>
  <property name="kdenlive:folderid">-1</property>
  <property name="meta.media.nb_streams">2</property>
  <property name="meta.media.0.stream.type">video</property>
  <property name="meta.media.0.stream.frame_rate">24</property>
  <property name="meta.media.0.stream.sample_aspect_ratio">0</property>
  <property name="meta.media.0.codec.width">3840</property>
  <property name="meta.media.0.codec.height">2160</property>
  <property name="meta.media.0.codec.rotate">0</property>
  <property name="meta.media.0.codec.pix_fmt">yuv444p</property>
  <property name="meta.media.0.codec.sample_aspect_ratio">0</property>
  <property name="meta.media.0.codec.colorspace">709</property>
  <property name="meta.media.0.codec.name">h264</property>
  <property name="meta.media.0.codec.long_name">H.264 / AVC / MPEG-4 AVC / MPEG-4 part 10</property>
  <property name="meta.media.0.codec.bit_rate">20525812</property>
  <property name="meta.attr.0.stream.handler_name.markup">VideoHandler</property>
  <property name="meta.attr.0.stream.vendor_id.markup">[0][0][0][0]</property>
  <property name="meta.attr.0.stream.encoder.markup">Lavc61.19.101 libx264</property>
  <property name="meta.media.1.stream.type">audio</property>
  <property name="meta.media.1.codec.sample_fmt">fltp</property>
  <property name="meta.media.1.codec.sample_rate">48000</property>
  <property name="meta.media.1.codec.channels">2</property>
  <property name="meta.media.1.codec.layout">stereo</property>
  <property name="meta.media.1.codec.name">aac</property>
  <property name="meta.media.1.codec.long_name">AAC (Advanced Audio Coding)</property>
  <property name="meta.media.1.codec.bit_rate">103350</property>
  <property name="meta.attr.1.stream.handler_name.markup">SoundHandler</property>
  <property name="meta.attr.1.stream.vendor_id.markup">[0][0][0][0]</property>
  <property name="meta.attr.minor_version.markup">512</property>
  <property name="meta.attr.major_brand.markup">isom</property>
  <property name="meta.attr.compatible_brands.markup">isomiso2avc1mp41</property>
  <property name="meta.attr.encoder.markup">Lavf61.9.100</property>
  <property name="meta.media.sample_aspect_num">1</property>
  <property name="meta.media.sample_aspect_den">1</property>
  <property name="meta.media.frame_rate_num">24</property>
  <property name="meta.media.frame_rate_den">1</property>
  <property name="meta.media.colorspace">709</property>
  <property name="meta.media.color_trc">2</property>
  <property name="meta.media.has_b_frames">2</property>
  <property name="meta.media.width">3840</property>
  <property name="meta.media.height">2160</property>
  <property name="meta.media.aspect_ratio">1</property>
  <property name="meta.media.color_range">mpeg</property>
  <property name="xml">was here</property>
  <property name="mute_on_pause">0</property>
  <property name="meta.media.top_field_first">0</property>
  <property name="meta.media.progressive">1</property>
  <property name="set.test_audio">1</property>
  <property name="set.test_image">0</property>
 </chain>
 <playlist id="playlist24">
  <blank length="00:00:13.000"/>
  <entry in="00:00:05.000" out="00:00:09.958" producer="chain81">
   <property name="kdenlive:id">47</property>
  </entry>
 </playlist>
 <playlist id="playlist25"/>
 <tractor id="tractor12" in="00:00:00.000" out="00:00:17.958">
  <property name="kdenlive:trackheight">67</property>
  <property name="kdenlive:timeline_active">1</property>
  <property name="kdenlive:collapsed">0</property>
  <property name="kdenlive:track_name">wide</property>
  <property name="kdenlive:thumbs_format"/>
  <property name="kdenlive:audio_rec"/>
  <track hide="audio" producer="playlist24"/>
  <track hide="audio" producer="playlist25"/>
 </tractor>
 <producer id="producer61" in="00:00:00.000" out="00:00:05.042">
  <property name="length">122</property>
  <property name="eof">pause</property>
  <property name="resource">-1.000000:C:/dev/workspace/indy/dist/room/attic/content/upscale/indy4.mp4</property>
  <property name="aspect_ratio">1</property>
  <property name="meta.media.nb_streams">1</property>
  <property name="meta.media.0.stream.type">video</property>
  <property name="meta.media.0.stream.frame_rate">60</property>
  <property name="meta.media.0.stream.sample_aspect_ratio">0</property>
  <property name="meta.media.0.codec.width">3840</property>
  <property name="meta.media.0.codec.height">2160</property>
  <property name="meta.media.0.codec.rotate">0</property>
  <property name="meta.media.0.codec.pix_fmt">yuv444p</property>
  <property name="meta.media.0.codec.sample_aspect_ratio">0</property>
  <property name="meta.media.0.codec.colorspace">709</property>
  <property name="meta.media.0.codec.name">h264</property>
  <property name="meta.media.0.codec.long_name">H.264 / AVC / MPEG-4 AVC / MPEG-4 part 10</property>
  <property name="meta.media.0.codec.bit_rate">25151217</property>
  <property name="meta.attr.0.stream.handler_name.markup">VideoHandler</property>
  <property name="meta.attr.0.stream.vendor_id.markup">[0][0][0][0]</property>
  <property name="meta.attr.0.stream.encoder.markup">Lavc61.19.101 libx264</property>
  <property name="meta.attr.minor_version.markup">512</property>
  <property name="meta.attr.major_brand.markup">isom</property>
  <property name="meta.attr.compatible_brands.markup">isomiso2avc1mp41</property>
  <property name="meta.attr.encoder.markup">Lavf61.9.100</property>
  <property name="seekable">1</property>
  <property name="meta.media.sample_aspect_num">1</property>
  <property name="meta.media.sample_aspect_den">1</property>
  <property name="audio_index">-1</property>
  <property name="video_index">0</property>
  <property name="warp_speed">-1</property>
  <property name="warp_resource">C:/dev/workspace/indy/dist/room/attic/content/upscale/indy4.mp4</property>
  <property name="mlt_service">timewarp</property>
  <property name="kdenlive:control_uuid">{ce655b94-4300-4aac-bd7a-4dd698a98a9e}</property>
  <property name="vstream">0</property>
  <property name="astream">-1</property>
  <property name="set.test_audio">1</property>
  <property name="set.test_image">0</property>
  <property name="kdenlive:id">7</property>
  <property name="warp_pitch">0</property>
 </producer>
 <chain id="chain83" out="00:00:10.208">
  <property name="length">246</property>
  <property name="eof">pause</property>
  <property name="resource">C:/dev/workspace/indy/dist/room/attic/content/upscale/dialog.mp4</property>
  <property name="mlt_service">avformat-novalidate</property>
  <property name="seekable">1</property>
  <property name="audio_index">1</property>
  <property name="video_index">0</property>
  <property name="vstream">0</property>
  <property name="astream">0</property>
  <property name="kdenlive:control_uuid">{94453abe-6dc7-456f-8ad2-e79f6eb1f138}</property>
  <property name="kdenlive:id">46</property>
  <property name="kdenlive:clip_type">0</property>
  <property name="kdenlive:file_size">27745039</property>
  <property name="kdenlive:file_hash">4bba1adba9629faa7e03b6d955426a50</property>
  <property name="kdenlive:folderid">-1</property>
  <property name="meta.media.nb_streams">2</property>
  <property name="meta.media.0.stream.type">video</property>
  <property name="meta.media.0.stream.frame_rate">60</property>
  <property name="meta.media.0.stream.sample_aspect_ratio">0</property>
  <property name="meta.media.0.codec.width">3840</property>
  <property name="meta.media.0.codec.height">2160</property>
  <property name="meta.media.0.codec.rotate">0</property>
  <property name="meta.media.0.codec.pix_fmt">yuv444p</property>
  <property name="meta.media.0.codec.sample_aspect_ratio">0</property>
  <property name="meta.media.0.codec.colorspace">709</property>
  <property name="meta.media.0.codec.name">h264</property>
  <property name="meta.media.0.codec.long_name">H.264 / AVC / MPEG-4 AVC / MPEG-4 part 10</property>
  <property name="meta.media.0.codec.bit_rate">21502194</property>
  <property name="meta.attr.0.stream.handler_name.markup">VideoHandler</property>
  <property name="meta.attr.0.stream.vendor_id.markup">[0][0][0][0]</property>
  <property name="meta.attr.0.stream.encoder.markup">Lavc61.19.101 libx264</property>
  <property name="meta.media.1.stream.type">audio</property>
  <property name="meta.media.1.codec.sample_fmt">fltp</property>
  <property name="meta.media.1.codec.sample_rate">48000</property>
  <property name="meta.media.1.codec.channels">2</property>
  <property name="meta.media.1.codec.layout">stereo</property>
  <property name="meta.media.1.codec.name">aac</property>
  <property name="meta.media.1.codec.long_name">AAC (Advanced Audio Coding)</property>
  <property name="meta.media.1.codec.bit_rate">103120</property>
  <property name="meta.attr.1.stream.handler_name.markup">SoundHandler</property>
  <property name="meta.attr.1.stream.vendor_id.markup">[0][0][0][0]</property>
  <property name="meta.attr.minor_version.markup">512</property>
  <property name="meta.attr.major_brand.markup">isom</property>
  <property name="meta.attr.compatible_brands.markup">isomiso2avc1mp41</property>
  <property name="meta.attr.encoder.markup">Lavf61.9.100</property>
  <property name="meta.media.sample_aspect_num">1</property>
  <property name="meta.media.sample_aspect_den">1</property>
  <property name="meta.media.frame_rate_num">60</property>
  <property name="meta.media.frame_rate_den">1</property>
  <property name="meta.media.colorspace">709</property>
  <property name="meta.media.color_trc">2</property>
  <property name="meta.media.has_b_frames">2</property>
  <property name="meta.media.width">3840</property>
  <property name="meta.media.height">2160</property>
  <property name="meta.media.aspect_ratio">1</property>
  <property name="meta.media.color_range">mpeg</property>
  <property name="xml">was here</property>
  <property name="mute_on_pause">0</property>
  <property name="meta.media.top_field_first">0</property>
  <property name="meta.media.progressive">1</property>
  <property name="set.test_audio">1</property>
  <property name="set.test_image">0</property>
 </chain>
 <chain id="chain84" out="00:00:05.042">
  <property name="length">122</property>
  <property name="eof">pause</property>
  <property name="resource">C:/dev/workspace/indy/dist/room/attic2/content/upscale/indy.mp4</property>
  <property name="mlt_service">avformat-novalidate</property>
  <property name="seekable">1</property>
  <property name="audio_index">-1</property>
  <property name="video_index">0</property>
  <property name="vstream">0</property>
  <property name="kdenlive:control_uuid">{3e68eeae-8bfb-420b-bbf3-2a39b8083e25}</property>
  <property name="kdenlive:id">61</property>
  <property name="kdenlive:clip_type">2</property>
  <property name="kdenlive:file_size">15361542</property>
  <property name="kdenlive:file_hash">56ca686ab9ca25016bdd3a6b935f41b0</property>
  <property name="kdenlive:folderid">-1</property>
  <property name="meta.media.nb_streams">1</property>
  <property name="meta.media.0.stream.type">video</property>
  <property name="meta.media.0.stream.frame_rate">60</property>
  <property name="meta.media.0.stream.sample_aspect_ratio">0</property>
  <property name="meta.media.0.codec.width">3840</property>
  <property name="meta.media.0.codec.height">2160</property>
  <property name="meta.media.0.codec.rotate">0</property>
  <property name="meta.media.0.codec.pix_fmt">yuv444p</property>
  <property name="meta.media.0.codec.sample_aspect_ratio">0</property>
  <property name="meta.media.0.codec.colorspace">709</property>
  <property name="meta.media.0.codec.name">h264</property>
  <property name="meta.media.0.codec.long_name">H.264 / AVC / MPEG-4 AVC / MPEG-4 part 10</property>
  <property name="meta.media.0.codec.bit_rate">24088795</property>
  <property name="meta.attr.0.stream.handler_name.markup">VideoHandler</property>
  <property name="meta.attr.0.stream.vendor_id.markup">[0][0][0][0]</property>
  <property name="meta.attr.0.stream.encoder.markup">Lavc61.19.101 libx264</property>
  <property name="meta.attr.minor_version.markup">512</property>
  <property name="meta.attr.major_brand.markup">isom</property>
  <property name="meta.attr.compatible_brands.markup">isomiso2avc1mp41</property>
  <property name="meta.attr.encoder.markup">Lavf61.9.100</property>
  <property name="meta.media.sample_aspect_num">1</property>
  <property name="meta.media.sample_aspect_den">1</property>
  <property name="meta.media.frame_rate_num">60</property>
  <property name="meta.media.frame_rate_den">1</property>
  <property name="meta.media.colorspace">709</property>
  <property name="meta.media.color_trc">2</property>
  <property name="meta.media.has_b_frames">2</property>
  <property name="meta.media.width">3840</property>
  <property name="meta.media.height">2160</property>
  <property name="meta.media.aspect_ratio">1</property>
  <property name="meta.media.color_range">mpeg</property>
  <property name="xml">was here</property>
  <property name="mute_on_pause">0</property>
  <property name="meta.media.top_field_first">0</property>
  <property name="meta.media.progressive">1</property>
  <property name="set.test_audio">1</property>
  <property name="set.test_image">0</property>
 </chain>
 <playlist id="playlist26">
  <blank length="00:00:03.000"/>
  <entry in="00:00:00.083" out="00:00:05.042" producer="producer61">
   <property name="kdenlive:id">7</property>
   <filter id="filter275">
    <property name="rotate_center">1</property>
    <property name="mlt_service">qtblend</property>
    <property name="kdenlive_id">qtblend</property>
    <property name="compositing">0</property>
    <property name="distort">1</property>
    <property name="rect">00:00:00.083=0 0 3840 2160 1.000000;00:00:04.083=0 0 3840 2160 1.000000;00:00:05.042=-110 0 4060 2160 1.000000</property>
    <property name="rotation">00:00:00.083=0;00:00:04.083=0;00:00:05.042=0</property>
    <property name="kdenlive:collapsed">0</property>
   </filter>
  </entry>
  <entry in="00:00:00.000" out="00:00:09.958" producer="chain83">
   <property name="kdenlive:id">46</property>
   <filter id="filter276">
    <property name="rotate_center">1</property>
    <property name="mlt_service">qtblend</property>
    <property name="kdenlive_id">qtblend</property>
    <property name="compositing">0</property>
    <property name="distort">0</property>
    <property name="rect">00:00:00.000=-120 0 4148 2333 1.000000;00:00:04.000=0 0 3840 2160 1.000000</property>
    <property name="rotation">0=0;96=0</property>
    <property name="kdenlive:collapsed">0</property>
   </filter>
  </entry>
  <blank length="00:01:03.000"/>
  <entry in="00:00:00.000" out="00:00:04.958" producer="chain84">
   <property name="kdenlive:id">61</property>
   <filter id="filter277">
    <property name="version">0.2</property>
    <property name="mlt_service">frei0r.coloradj_RGB</property>
    <property name="kdenlive_id">frei0r.coloradj_RGB</property>
    <property name="R">0=0.4</property>
    <property name="G">0=0.6</property>
    <property name="B">0=0.6</property>
    <property name="Action">0.5</property>
    <property name="Keep luma">1</property>
    <property name="Alpha controlled">0</property>
    <property name="Luma formula">1</property>
    <property name="kdenlive:collapsed">0</property>
   </filter>
   <filter id="filter278">
    <property name="version">0.2</property>
    <property name="mlt_service">frei0r.contrast0r</property>
    <property name="kdenlive_id">frei0r.contrast0r</property>
    <property name="Contrast">0=0.48</property>
    <property name="disable">1</property>
    <property name="kdenlive:collapsed">0</property>
   </filter>
   <filter id="filter279">
    <property name="rotate_center">1</property>
    <property name="mlt_service">qtblend</property>
    <property name="kdenlive_id">qtblend</property>
    <property name="compositing">0</property>
    <property name="distort">0</property>
    <property name="rect">0=0 -64 4070 2289 1.000000</property>
    <property name="rotation">0=0</property>
    <property name="kdenlive:collapsed">0</property>
   </filter>
  </entry>
 </playlist>
 <playlist id="playlist27"/>
 <tractor id="tractor13" in="00:00:00.000" out="00:01:25.958">
  <property name="kdenlive:trackheight">67</property>
  <property name="kdenlive:timeline_active">1</property>
  <property name="kdenlive:collapsed">0</property>
  <property name="kdenlive:track_name">16-9</property>
  <property name="kdenlive:thumbs_format"/>
  <property name="kdenlive:audio_rec"/>
  <track hide="both" producer="playlist26"/>
  <track hide="both" producer="playlist27"/>
 </tractor>
 <chain id="chain85" out="00:00:10.250">
  <property name="length">247</property>
  <property name="eof">pause</property>
  <property name="resource">C:/dev/workspace/indy/dist/room/attic/content/upscale/dialog3.mp4</property>
  <property name="mlt_service">avformat-novalidate</property>
  <property name="seekable">1</property>
  <property name="audio_index">1</property>
  <property name="video_index">0</property>
  <property name="vstream">0</property>
  <property name="astream">0</property>
  <property name="kdenlive:control_uuid">{fbb7c544-bbaa-4b87-8401-e8c9da2aebd6}</property>
  <property name="kdenlive:id">47</property>
  <property name="kdenlive:clip_type">0</property>
  <property name="kdenlive:file_size">26547258</property>
  <property name="kdenlive:file_hash">6f6126996a70616b1ab317f54b5d811b</property>
  <property name="kdenlive:folderid">-1</property>
  <property name="meta.media.nb_streams">2</property>
  <property name="meta.media.0.stream.type">video</property>
  <property name="meta.media.0.stream.frame_rate">24</property>
  <property name="meta.media.0.stream.sample_aspect_ratio">0</property>
  <property name="meta.media.0.codec.width">3840</property>
  <property name="meta.media.0.codec.height">2160</property>
  <property name="meta.media.0.codec.rotate">0</property>
  <property name="meta.media.0.codec.pix_fmt">yuv444p</property>
  <property name="meta.media.0.codec.sample_aspect_ratio">0</property>
  <property name="meta.media.0.codec.colorspace">709</property>
  <property name="meta.media.0.codec.name">h264</property>
  <property name="meta.media.0.codec.long_name">H.264 / AVC / MPEG-4 AVC / MPEG-4 part 10</property>
  <property name="meta.media.0.codec.bit_rate">20525812</property>
  <property name="meta.attr.0.stream.handler_name.markup">VideoHandler</property>
  <property name="meta.attr.0.stream.vendor_id.markup">[0][0][0][0]</property>
  <property name="meta.attr.0.stream.encoder.markup">Lavc61.19.101 libx264</property>
  <property name="meta.media.1.stream.type">audio</property>
  <property name="meta.media.1.codec.sample_fmt">fltp</property>
  <property name="meta.media.1.codec.sample_rate">48000</property>
  <property name="meta.media.1.codec.channels">2</property>
  <property name="meta.media.1.codec.layout">stereo</property>
  <property name="meta.media.1.codec.name">aac</property>
  <property name="meta.media.1.codec.long_name">AAC (Advanced Audio Coding)</property>
  <property name="meta.media.1.codec.bit_rate">103350</property>
  <property name="meta.attr.1.stream.handler_name.markup">SoundHandler</property>
  <property name="meta.attr.1.stream.vendor_id.markup">[0][0][0][0]</property>
  <property name="meta.attr.minor_version.markup">512</property>
  <property name="meta.attr.major_brand.markup">isom</property>
  <property name="meta.attr.compatible_brands.markup">isomiso2avc1mp41</property>
  <property name="meta.attr.encoder.markup">Lavf61.9.100</property>
  <property name="meta.media.sample_aspect_num">1</property>
  <property name="meta.media.sample_aspect_den">1</property>
  <property name="meta.media.frame_rate_num">24</property>
  <property name="meta.media.frame_rate_den">1</property>
  <property name="meta.media.colorspace">709</property>
  <property name="meta.media.color_trc">2</property>
  <property name="meta.media.has_b_frames">2</property>
  <property name="meta.media.width">3840</property>
  <property name="meta.media.height">2160</property>
  <property name="meta.media.aspect_ratio">1</property>
  <property name="meta.media.color_range">mpeg</property>
  <property name="xml">was here</property>
  <property name="mute_on_pause">0</property>
  <property name="meta.media.top_field_first">0</property>
  <property name="meta.media.progressive">1</property>
  <property name="set.test_audio">1</property>
  <property name="set.test_image">0</property>
 </chain>
 <playlist id="playlist28">
  <blank length="00:00:13.000"/>
  <entry in="00:00:05.000" out="00:00:09.958" producer="chain85">
   <property name="kdenlive:id">47</property>
  </entry>
 </playlist>
 <playlist id="playlist29"/>
 <tractor id="tractor14" in="00:00:00.000" out="00:00:17.958">
  <property name="kdenlive:trackheight">67</property>
  <property name="kdenlive:timeline_active">1</property>
  <property name="kdenlive:collapsed">0</property>
  <property name="kdenlive:track_name">16-9</property>
  <property name="kdenlive:thumbs_format"/>
  <property name="kdenlive:audio_rec"/>
  <track hide="both" producer="playlist28"/>
  <track hide="both" producer="playlist29"/>
 </tractor>
 <playlist id="playlist30"/>
 <playlist id="playlist31"/>
 <tractor id="tractor15" in="00:00:00.000">
  <property name="kdenlive:trackheight">67</property>
  <property name="kdenlive:timeline_active">1</property>
  <property name="kdenlive:collapsed">0</property>
  <property name="kdenlive:track_name">wide</property>
  <property name="kdenlive:thumbs_format"/>
  <property name="kdenlive:audio_rec"/>
  <track hide="audio" producer="playlist30"/>
  <track hide="audio" producer="playlist31"/>
 </tractor>
 <playlist id="playlist32"/>
 <playlist id="playlist33"/>
 <tractor id="tractor16" in="00:00:00.000">
  <property name="kdenlive:trackheight">67</property>
  <property name="kdenlive:timeline_active">1</property>
  <property name="kdenlive:collapsed">0</property>
  <property name="kdenlive:track_name">16-9</property>
  <property name="kdenlive:thumbs_format"/>
  <property name="kdenlive:audio_rec"/>
  <track hide="both" producer="playlist32"/>
  <track hide="both" producer="playlist33"/>
 </tractor>
 <playlist id="playlist34"/>
 <playlist id="playlist35"/>
 <tractor id="tractor17" in="00:00:00.000">
  <property name="kdenlive:trackheight">67</property>
  <property name="kdenlive:timeline_active">1</property>
  <property name="kdenlive:collapsed">0</property>
  <property name="kdenlive:thumbs_format"/>
  <property name="kdenlive:audio_rec"/>
  <track hide="audio" producer="playlist34"/>
  <track hide="audio" producer="playlist35"/>
 </tractor>
 <tractor id="tractor18" in="00:00:00.000" out="00:01:43.958">
  <property name="kdenlive:duration">00:01:44.000</property>
  <property name="kdenlive:maxduration">2496</property>
  <property name="kdenlive:clipname">Sequence 1</property>
  <property name="kdenlive:description"/>
  <property name="kdenlive:uuid">{e2856d23-19ee-42d4-8454-a30a4474724e}</property>
  <property name="kdenlive:producer_type">17</property>
  <property name="kdenlive:control_uuid">{627fd134-5619-4510-9435-819c2a5665eb}</property>
  <property name="kdenlive:id">3</property>
  <property name="kdenlive:clip_type">0</property>
  <property name="kdenlive:file_hash">f88498c2274988ac75573dfdb6c520d7</property>
  <property name="kdenlive:folderid">2</property>
  <property name="kdenlive:sequenceproperties.activeTrack">3</property>
  <property name="kdenlive:sequenceproperties.audioTarget">1</property>
  <property name="kdenlive:sequenceproperties.disablepreview">0</property>
  <property name="kdenlive:sequenceproperties.documentuuid">{e2856d23-19ee-42d4-8454-a30a4474724e}</property>
  <property name="kdenlive:sequenceproperties.globalSubtitleStyles">[
]
</property>
  <property name="kdenlive:sequenceproperties.hasAudio">1</property>
  <property name="kdenlive:sequenceproperties.hasVideo">1</property>
  <property name="kdenlive:sequenceproperties.hidesubtitle">0</property>
  <property name="kdenlive:sequenceproperties.position">2442</property>
  <property name="kdenlive:sequenceproperties.scrollPos">13148</property>
  <property name="kdenlive:sequenceproperties.subtitlesList">[
    {
        "file": "C:/dev/workspace/indy/dist/movie/movie.kdenlive.ass",
        "id": 0,
        "name": "Subtitles"
    }
]
</property>
  <property name="kdenlive:sequenceproperties.tracks">4</property>
  <property name="kdenlive:sequenceproperties.tracksCount">18</property>
  <property name="kdenlive:sequenceproperties.verticalzoom">1</property>
  <property name="kdenlive:sequenceproperties.videoTarget">2</property>
  <property name="kdenlive:sequenceproperties.zonein">2064</property>
  <property name="kdenlive:sequenceproperties.zoneout">2232</property>
  <property name="kdenlive:sequenceproperties.zoom">3</property>
  <property name="kdenlive:sequenceproperties.groups">[
]
</property>
  <property name="kdenlive:sequenceproperties.guides">[
]
</property>
  <track producer="producer0"/>
  <track producer="tractor0"/>
  <track producer="tractor1"/>
  <track producer="tractor2"/>
  <track producer="tractor3"/>
  <track producer="tractor4"/>
  <track producer="tractor5"/>
  <track producer="tractor6"/>
  <track producer="tractor7"/>
  <track producer="tractor8"/>
  <track producer="tractor9"/>
  <track producer="tractor10"/>
  <track producer="tractor11"/>
  <track producer="tractor12"/>
  <track producer="tractor13"/>
  <track producer="tractor14"/>
  <track producer="tractor15"/>
  <track producer="tractor16"/>
  <track producer="tractor17"/>
  <transition id="transition0">
   <property name="a_track">0</property>
   <property name="b_track">1</property>
   <property name="mlt_service">mix</property>
   <property name="kdenlive_id">mix</property>
   <property name="internal_added">237</property>
   <property name="always_active">1</property>
   <property name="accepts_blanks">1</property>
   <property name="sum">1</property>
  </transition>
  <transition id="transition1">
   <property name="a_track">0</property>
   <property name="b_track">2</property>
   <property name="mlt_service">mix</property>
   <property name="kdenlive_id">mix</property>
   <property name="internal_added">237</property>
   <property name="always_active">1</property>
   <property name="accepts_blanks">1</property>
   <property name="sum">1</property>
  </transition>
  <transition id="transition2">
   <property name="a_track">0</property>
   <property name="b_track">3</property>
   <property name="mlt_service">mix</property>
   <property name="kdenlive_id">mix</property>
   <property name="internal_added">237</property>
   <property name="always_active">1</property>
   <property name="accepts_blanks">1</property>
   <property name="sum">1</property>
  </transition>
  <transition id="transition3">
   <property name="a_track">0</property>
   <property name="b_track">4</property>
   <property name="mlt_service">mix</property>
   <property name="kdenlive_id">mix</property>
   <property name="internal_added">237</property>
   <property name="always_active">1</property>
   <property name="accepts_blanks">1</property>
   <property name="sum">1</property>
  </transition>
  <transition id="transition4">
   <property name="a_track">0</property>
   <property name="b_track">5</property>
   <property name="mlt_service">mix</property>
   <property name="kdenlive_id">mix</property>
   <property name="internal_added">237</property>
   <property name="always_active">1</property>
   <property name="accepts_blanks">1</property>
   <property name="sum">1</property>
  </transition>
  <transition id="transition5">
   <property name="a_track">0</property>
   <property name="b_track">6</property>
   <property name="mlt_service">mix</property>
   <property name="kdenlive_id">mix</property>
   <property name="internal_added">237</property>
   <property name="always_active">1</property>
   <property name="accepts_blanks">1</property>
   <property name="sum">1</property>
  </transition>
  <transition id="transition6">
   <property name="a_track">0</property>
   <property name="b_track">7</property>
   <property name="compositing">0</property>
   <property name="distort">0</property>
   <property name="rotate_center">0</property>
   <property name="mlt_service">qtblend</property>
   <property name="kdenlive_id">qtblend</property>
   <property name="internal_added">237</property>
   <property name="always_active">1</property>
  </transition>
  <transition id="transition7">
   <property name="a_track">0</property>
   <property name="b_track">8</property>
   <property name="compositing">0</property>
   <property name="distort">0</property>
   <property name="rotate_center">0</property>
   <property name="mlt_service">qtblend</property>
   <property name="kdenlive_id">qtblend</property>
   <property name="internal_added">237</property>
   <property name="always_active">1</property>
  </transition>
  <transition id="transition8">
   <property name="a_track">0</property>
   <property name="b_track">9</property>
   <property name="compositing">0</property>
   <property name="distort">0</property>
   <property name="rotate_center">0</property>
   <property name="mlt_service">qtblend</property>
   <property name="kdenlive_id">qtblend</property>
   <property name="internal_added">237</property>
   <property name="always_active">1</property>
  </transition>
  <transition id="transition9">
   <property name="a_track">0</property>
   <property name="b_track">10</property>
   <property name="compositing">0</property>
   <property name="distort">0</property>
   <property name="rotate_center">0</property>
   <property name="mlt_service">qtblend</property>
   <property name="kdenlive_id">qtblend</property>
   <property name="internal_added">237</property>
   <property name="always_active">1</property>
  </transition>
  <transition id="transition10">
   <property name="a_track">0</property>
   <property name="b_track">11</property>
   <property name="compositing">0</property>
   <property name="distort">0</property>
   <property name="rotate_center">0</property>
   <property name="mlt_service">qtblend</property>
   <property name="kdenlive_id">qtblend</property>
   <property name="internal_added">237</property>
   <property name="always_active">1</property>
  </transition>
  <transition id="transition11">
   <property name="a_track">0</property>
   <property name="b_track">12</property>
   <property name="compositing">0</property>
   <property name="distort">0</property>
   <property name="rotate_center">0</property>
   <property name="mlt_service">qtblend</property>
   <property name="kdenlive_id">qtblend</property>
   <property name="internal_added">237</property>
   <property name="always_active">1</property>
  </transition>
  <transition id="transition12">
   <property name="a_track">0</property>
   <property name="b_track">13</property>
   <property name="compositing">0</property>
   <property name="distort">0</property>
   <property name="rotate_center">0</property>
   <property name="mlt_service">qtblend</property>
   <property name="kdenlive_id">qtblend</property>
   <property name="internal_added">237</property>
   <property name="always_active">1</property>
  </transition>
  <transition id="transition13">
   <property name="a_track">0</property>
   <property name="b_track">14</property>
   <property name="compositing">0</property>
   <property name="distort">0</property>
   <property name="rotate_center">0</property>
   <property name="mlt_service">qtblend</property>
   <property name="kdenlive_id">qtblend</property>
   <property name="internal_added">237</property>
   <property name="always_active">1</property>
  </transition>
  <transition id="transition14">
   <property name="a_track">0</property>
   <property name="b_track">15</property>
   <property name="compositing">0</property>
   <property name="distort">0</property>
   <property name="rotate_center">0</property>
   <property name="mlt_service">qtblend</property>
   <property name="kdenlive_id">qtblend</property>
   <property name="internal_added">237</property>
   <property name="always_active">1</property>
  </transition>
  <transition id="transition15">
   <property name="a_track">0</property>
   <property name="b_track">16</property>
   <property name="compositing">0</property>
   <property name="distort">0</property>
   <property name="rotate_center">0</property>
   <property name="mlt_service">qtblend</property>
   <property name="kdenlive_id">qtblend</property>
   <property name="internal_added">237</property>
   <property name="always_active">1</property>
  </transition>
  <transition id="transition16">
   <property name="a_track">0</property>
   <property name="b_track">17</property>
   <property name="compositing">0</property>
   <property name="distort">0</property>
   <property name="rotate_center">0</property>
   <property name="mlt_service">qtblend</property>
   <property name="kdenlive_id">qtblend</property>
   <property name="internal_added">237</property>
   <property name="always_active">1</property>
  </transition>
  <transition id="transition17">
   <property name="a_track">0</property>
   <property name="b_track">18</property>
   <property name="compositing">0</property>
   <property name="distort">0</property>
   <property name="rotate_center">0</property>
   <property name="mlt_service">qtblend</property>
   <property name="kdenlive_id">qtblend</property>
   <property name="internal_added">237</property>
   <property name="always_active">1</property>
  </transition>
  <filter id="filter292">
   <property name="window">75</property>
   <property name="max_gain">20dB</property>
   <property name="mlt_service">volume</property>
   <property name="internal_added">237</property>
   <property name="disable">1</property>
  </filter>
  <filter id="filter293">
   <property name="channel">-1</property>
   <property name="mlt_service">panner</property>
   <property name="internal_added">237</property>
   <property name="start">0.5</property>
   <property name="disable">1</property>
  </filter>
  <filter id="filter66">
   <property name="mlt_service">avfilter.subtitles</property>
   <property name="av.alpha">1</property>
   <property name="internal_added">237</property>
   <property name="av.filename">movieAttic.kdenlive.ass</property>
   <property name="disable">1</property>
  </filter>
 </tractor>
 <playlist id="main_bin">
  <property name="kdenlive:folder.-1.2">Sequences</property>
  <property name="kdenlive:sequenceFolder">2</property>
  <property name="kdenlive:docproperties.activetimeline">{e2856d23-19ee-42d4-8454-a30a4474724e}</property>
  <property name="kdenlive:docproperties.audioChannels">2</property>
  <property name="kdenlive:docproperties.binsort">0</property>
  <property name="kdenlive:docproperties.browserurl">C:/Users/barnaud/Videos/</property>
  <property name="kdenlive:docproperties.compositing">1</property>
  <property name="kdenlive:docproperties.documentid">1725960854915</property>
  <property name="kdenlive:docproperties.enableTimelineZone">0</property>
  <property name="kdenlive:docproperties.enableexternalproxy">0</property>
  <property name="kdenlive:docproperties.enableproxy">0</property>
  <property name="kdenlive:docproperties.externalproxyparams"/>
  <property name="kdenlive:docproperties.generateimageproxy">0</property>
  <property name="kdenlive:docproperties.generateproxy">0</property>
  <property name="kdenlive:docproperties.guidesCategories">[&#xd;&#xd;&#xd;&#xd;&#xd;&#xd;&#xd;&#xd;&#xd;&#xd;&#xd;&#xd;&#xd;&#xd;&#xd;&#xd;&#xd;&#xd;&#xd;&#xd;&#xd;&#xd;&#xd;&#xd;&#xd;&#xd;&#xd;&#xd;&#xd;&#xd;&#xd;&#xd;&#xd;&#xd;&#xd;&#xd;&#xd;&#xd;&#xd;
    {&#xd;&#xd;&#xd;&#xd;&#xd;&#xd;&#xd;&#xd;&#xd;&#xd;&#xd;&#xd;&#xd;&#xd;&#xd;&#xd;&#xd;&#xd;&#xd;&#xd;&#xd;&#xd;&#xd;&#xd;&#xd;&#xd;&#xd;&#xd;&#xd;&#xd;&#xd;&#xd;&#xd;&#xd;&#xd;&#xd;&#xd;&#xd;&#xd;
        "color": "#9b59b6",&#xd;&#xd;&#xd;&#xd;&#xd;&#xd;&#xd;&#xd;&#xd;&#xd;&#xd;&#xd;&#xd;&#xd;&#xd;&#xd;&#xd;&#xd;&#xd;&#xd;&#xd;&#xd;&#xd;&#xd;&#xd;&#xd;&#xd;&#xd;&#xd;&#xd;&#xd;&#xd;&#xd;&#xd;&#xd;&#xd;&#xd;&#xd;&#xd;
        "comment": "Category 1",&#xd;&#xd;&#xd;&#xd;&#xd;&#xd;&#xd;&#xd;&#xd;&#xd;&#xd;&#xd;&#xd;&#xd;&#xd;&#xd;&#xd;&#xd;&#xd;&#xd;&#xd;&#xd;&#xd;&#xd;&#xd;&#xd;&#xd;&#xd;&#xd;&#xd;&#xd;&#xd;&#xd;&#xd;&#xd;&#xd;&#xd;&#xd;&#xd;
        "index": 0&#xd;&#xd;&#xd;&#xd;&#xd;&#xd;&#xd;&#xd;&#xd;&#xd;&#xd;&#xd;&#xd;&#xd;&#xd;&#xd;&#xd;&#xd;&#xd;&#xd;&#xd;&#xd;&#xd;&#xd;&#xd;&#xd;&#xd;&#xd;&#xd;&#xd;&#xd;&#xd;&#xd;&#xd;&#xd;&#xd;&#xd;&#xd;&#xd;
    },&#xd;&#xd;&#xd;&#xd;&#xd;&#xd;&#xd;&#xd;&#xd;&#xd;&#xd;&#xd;&#xd;&#xd;&#xd;&#xd;&#xd;&#xd;&#xd;&#xd;&#xd;&#xd;&#xd;&#xd;&#xd;&#xd;&#xd;&#xd;&#xd;&#xd;&#xd;&#xd;&#xd;&#xd;&#xd;&#xd;&#xd;&#xd;&#xd;
    {&#xd;&#xd;&#xd;&#xd;&#xd;&#xd;&#xd;&#xd;&#xd;&#xd;&#xd;&#xd;&#xd;&#xd;&#xd;&#xd;&#xd;&#xd;&#xd;&#xd;&#xd;&#xd;&#xd;&#xd;&#xd;&#xd;&#xd;&#xd;&#xd;&#xd;&#xd;&#xd;&#xd;&#xd;&#xd;&#xd;&#xd;&#xd;&#xd;
        "color": "#3daee9",&#xd;&#xd;&#xd;&#xd;&#xd;&#xd;&#xd;&#xd;&#xd;&#xd;&#xd;&#xd;&#xd;&#xd;&#xd;&#xd;&#xd;&#xd;&#xd;&#xd;&#xd;&#xd;&#xd;&#xd;&#xd;&#xd;&#xd;&#xd;&#xd;&#xd;&#xd;&#xd;&#xd;&#xd;&#xd;&#xd;&#xd;&#xd;&#xd;
        "comment": "Category 2",&#xd;&#xd;&#xd;&#xd;&#xd;&#xd;&#xd;&#xd;&#xd;&#xd;&#xd;&#xd;&#xd;&#xd;&#xd;&#xd;&#xd;&#xd;&#xd;&#xd;&#xd;&#xd;&#xd;&#xd;&#xd;&#xd;&#xd;&#xd;&#xd;&#xd;&#xd;&#xd;&#xd;&#xd;&#xd;&#xd;&#xd;&#xd;&#xd;
        "index": 1&#xd;&#xd;&#xd;&#xd;&#xd;&#xd;&#xd;&#xd;&#xd;&#xd;&#xd;&#xd;&#xd;&#xd;&#xd;&#xd;&#xd;&#xd;&#xd;&#xd;&#xd;&#xd;&#xd;&#xd;&#xd;&#xd;&#xd;&#xd;&#xd;&#xd;&#xd;&#xd;&#xd;&#xd;&#xd;&#xd;&#xd;&#xd;&#xd;
    },&#xd;&#xd;&#xd;&#xd;&#xd;&#xd;&#xd;&#xd;&#xd;&#xd;&#xd;&#xd;&#xd;&#xd;&#xd;&#xd;&#xd;&#xd;&#xd;&#xd;&#xd;&#xd;&#xd;&#xd;&#xd;&#xd;&#xd;&#xd;&#xd;&#xd;&#xd;&#xd;&#xd;&#xd;&#xd;&#xd;&#xd;&#xd;&#xd;
    {&#xd;&#xd;&#xd;&#xd;&#xd;&#xd;&#xd;&#xd;&#xd;&#xd;&#xd;&#xd;&#xd;&#xd;&#xd;&#xd;&#xd;&#xd;&#xd;&#xd;&#xd;&#xd;&#xd;&#xd;&#xd;&#xd;&#xd;&#xd;&#xd;&#xd;&#xd;&#xd;&#xd;&#xd;&#xd;&#xd;&#xd;&#xd;&#xd;
        "color": "#1abc9c",&#xd;&#xd;&#xd;&#xd;&#xd;&#xd;&#xd;&#xd;&#xd;&#xd;&#xd;&#xd;&#xd;&#xd;&#xd;&#xd;&#xd;&#xd;&#xd;&#xd;&#xd;&#xd;&#xd;&#xd;&#xd;&#xd;&#xd;&#xd;&#xd;&#xd;&#xd;&#xd;&#xd;&#xd;&#xd;&#xd;&#xd;&#xd;&#xd;
        "comment": "Category 3",&#xd;&#xd;&#xd;&#xd;&#xd;&#xd;&#xd;&#xd;&#xd;&#xd;&#xd;&#xd;&#xd;&#xd;&#xd;&#xd;&#xd;&#xd;&#xd;&#xd;&#xd;&#xd;&#xd;&#xd;&#xd;&#xd;&#xd;&#xd;&#xd;&#xd;&#xd;&#xd;&#xd;&#xd;&#xd;&#xd;&#xd;&#xd;&#xd;
        "index": 2&#xd;&#xd;&#xd;&#xd;&#xd;&#xd;&#xd;&#xd;&#xd;&#xd;&#xd;&#xd;&#xd;&#xd;&#xd;&#xd;&#xd;&#xd;&#xd;&#xd;&#xd;&#xd;&#xd;&#xd;&#xd;&#xd;&#xd;&#xd;&#xd;&#xd;&#xd;&#xd;&#xd;&#xd;&#xd;&#xd;&#xd;&#xd;&#xd;
    },&#xd;&#xd;&#xd;&#xd;&#xd;&#xd;&#xd;&#xd;&#xd;&#xd;&#xd;&#xd;&#xd;&#xd;&#xd;&#xd;&#xd;&#xd;&#xd;&#xd;&#xd;&#xd;&#xd;&#xd;&#xd;&#xd;&#xd;&#xd;&#xd;&#xd;&#xd;&#xd;&#xd;&#xd;&#xd;&#xd;&#xd;&#xd;&#xd;
    {&#xd;&#xd;&#xd;&#xd;&#xd;&#xd;&#xd;&#xd;&#xd;&#xd;&#xd;&#xd;&#xd;&#xd;&#xd;&#xd;&#xd;&#xd;&#xd;&#xd;&#xd;&#xd;&#xd;&#xd;&#xd;&#xd;&#xd;&#xd;&#xd;&#xd;&#xd;&#xd;&#xd;&#xd;&#xd;&#xd;&#xd;&#xd;&#xd;
        "color": "#1cdc9a",&#xd;&#xd;&#xd;&#xd;&#xd;&#xd;&#xd;&#xd;&#xd;&#xd;&#xd;&#xd;&#xd;&#xd;&#xd;&#xd;&#xd;&#xd;&#xd;&#xd;&#xd;&#xd;&#xd;&#xd;&#xd;&#xd;&#xd;&#xd;&#xd;&#xd;&#xd;&#xd;&#xd;&#xd;&#xd;&#xd;&#xd;&#xd;&#xd;
        "comment": "Category 4",&#xd;&#xd;&#xd;&#xd;&#xd;&#xd;&#xd;&#xd;&#xd;&#xd;&#xd;&#xd;&#xd;&#xd;&#xd;&#xd;&#xd;&#xd;&#xd;&#xd;&#xd;&#xd;&#xd;&#xd;&#xd;&#xd;&#xd;&#xd;&#xd;&#xd;&#xd;&#xd;&#xd;&#xd;&#xd;&#xd;&#xd;&#xd;&#xd;
        "index": 3&#xd;&#xd;&#xd;&#xd;&#xd;&#xd;&#xd;&#xd;&#xd;&#xd;&#xd;&#xd;&#xd;&#xd;&#xd;&#xd;&#xd;&#xd;&#xd;&#xd;&#xd;&#xd;&#xd;&#xd;&#xd;&#xd;&#xd;&#xd;&#xd;&#xd;&#xd;&#xd;&#xd;&#xd;&#xd;&#xd;&#xd;&#xd;&#xd;
    },&#xd;&#xd;&#xd;&#xd;&#xd;&#xd;&#xd;&#xd;&#xd;&#xd;&#xd;&#xd;&#xd;&#xd;&#xd;&#xd;&#xd;&#xd;&#xd;&#xd;&#xd;&#xd;&#xd;&#xd;&#xd;&#xd;&#xd;&#xd;&#xd;&#xd;&#xd;&#xd;&#xd;&#xd;&#xd;&#xd;&#xd;&#xd;&#xd;
    {&#xd;&#xd;&#xd;&#xd;&#xd;&#xd;&#xd;&#xd;&#xd;&#xd;&#xd;&#xd;&#xd;&#xd;&#xd;&#xd;&#xd;&#xd;&#xd;&#xd;&#xd;&#xd;&#xd;&#xd;&#xd;&#xd;&#xd;&#xd;&#xd;&#xd;&#xd;&#xd;&#xd;&#xd;&#xd;&#xd;&#xd;&#xd;&#xd;
        "color": "#c9ce3b",&#xd;&#xd;&#xd;&#xd;&#xd;&#xd;&#xd;&#xd;&#xd;&#xd;&#xd;&#xd;&#xd;&#xd;&#xd;&#xd;&#xd;&#xd;&#xd;&#xd;&#xd;&#xd;&#xd;&#xd;&#xd;&#xd;&#xd;&#xd;&#xd;&#xd;&#xd;&#xd;&#xd;&#xd;&#xd;&#xd;&#xd;&#xd;&#xd;
        "comment": "Category 5",&#xd;&#xd;&#xd;&#xd;&#xd;&#xd;&#xd;&#xd;&#xd;&#xd;&#xd;&#xd;&#xd;&#xd;&#xd;&#xd;&#xd;&#xd;&#xd;&#xd;&#xd;&#xd;&#xd;&#xd;&#xd;&#xd;&#xd;&#xd;&#xd;&#xd;&#xd;&#xd;&#xd;&#xd;&#xd;&#xd;&#xd;&#xd;&#xd;
        "index": 4&#xd;&#xd;&#xd;&#xd;&#xd;&#xd;&#xd;&#xd;&#xd;&#xd;&#xd;&#xd;&#xd;&#xd;&#xd;&#xd;&#xd;&#xd;&#xd;&#xd;&#xd;&#xd;&#xd;&#xd;&#xd;&#xd;&#xd;&#xd;&#xd;&#xd;&#xd;&#xd;&#xd;&#xd;&#xd;&#xd;&#xd;&#xd;&#xd;
    },&#xd;&#xd;&#xd;&#xd;&#xd;&#xd;&#xd;&#xd;&#xd;&#xd;&#xd;&#xd;&#xd;&#xd;&#xd;&#xd;&#xd;&#xd;&#xd;&#xd;&#xd;&#xd;&#xd;&#xd;&#xd;&#xd;&#xd;&#xd;&#xd;&#xd;&#xd;&#xd;&#xd;&#xd;&#xd;&#xd;&#xd;&#xd;&#xd;
    {&#xd;&#xd;&#xd;&#xd;&#xd;&#xd;&#xd;&#xd;&#xd;&#xd;&#xd;&#xd;&#xd;&#xd;&#xd;&#xd;&#xd;&#xd;&#xd;&#xd;&#xd;&#xd;&#xd;&#xd;&#xd;&#xd;&#xd;&#xd;&#xd;&#xd;&#xd;&#xd;&#xd;&#xd;&#xd;&#xd;&#xd;&#xd;&#xd;
        "color": "#fdbc4b",&#xd;&#xd;&#xd;&#xd;&#xd;&#xd;&#xd;&#xd;&#xd;&#xd;&#xd;&#xd;&#xd;&#xd;&#xd;&#xd;&#xd;&#xd;&#xd;&#xd;&#xd;&#xd;&#xd;&#xd;&#xd;&#xd;&#xd;&#xd;&#xd;&#xd;&#xd;&#xd;&#xd;&#xd;&#xd;&#xd;&#xd;&#xd;&#xd;
        "comment": "Category 6",&#xd;&#xd;&#xd;&#xd;&#xd;&#xd;&#xd;&#xd;&#xd;&#xd;&#xd;&#xd;&#xd;&#xd;&#xd;&#xd;&#xd;&#xd;&#xd;&#xd;&#xd;&#xd;&#xd;&#xd;&#xd;&#xd;&#xd;&#xd;&#xd;&#xd;&#xd;&#xd;&#xd;&#xd;&#xd;&#xd;&#xd;&#xd;&#xd;
        "index": 5&#xd;&#xd;&#xd;&#xd;&#xd;&#xd;&#xd;&#xd;&#xd;&#xd;&#xd;&#xd;&#xd;&#xd;&#xd;&#xd;&#xd;&#xd;&#xd;&#xd;&#xd;&#xd;&#xd;&#xd;&#xd;&#xd;&#xd;&#xd;&#xd;&#xd;&#xd;&#xd;&#xd;&#xd;&#xd;&#xd;&#xd;&#xd;&#xd;
    },&#xd;&#xd;&#xd;&#xd;&#xd;&#xd;&#xd;&#xd;&#xd;&#xd;&#xd;&#xd;&#xd;&#xd;&#xd;&#xd;&#xd;&#xd;&#xd;&#xd;&#xd;&#xd;&#xd;&#xd;&#xd;&#xd;&#xd;&#xd;&#xd;&#xd;&#xd;&#xd;&#xd;&#xd;&#xd;&#xd;&#xd;&#xd;&#xd;
    {&#xd;&#xd;&#xd;&#xd;&#xd;&#xd;&#xd;&#xd;&#xd;&#xd;&#xd;&#xd;&#xd;&#xd;&#xd;&#xd;&#xd;&#xd;&#xd;&#xd;&#xd;&#xd;&#xd;&#xd;&#xd;&#xd;&#xd;&#xd;&#xd;&#xd;&#xd;&#xd;&#xd;&#xd;&#xd;&#xd;&#xd;&#xd;&#xd;
        "color": "#f39c1f",&#xd;&#xd;&#xd;&#xd;&#xd;&#xd;&#xd;&#xd;&#xd;&#xd;&#xd;&#xd;&#xd;&#xd;&#xd;&#xd;&#xd;&#xd;&#xd;&#xd;&#xd;&#xd;&#xd;&#xd;&#xd;&#xd;&#xd;&#xd;&#xd;&#xd;&#xd;&#xd;&#xd;&#xd;&#xd;&#xd;&#xd;&#xd;&#xd;
        "comment": "Category 7",&#xd;&#xd;&#xd;&#xd;&#xd;&#xd;&#xd;&#xd;&#xd;&#xd;&#xd;&#xd;&#xd;&#xd;&#xd;&#xd;&#xd;&#xd;&#xd;&#xd;&#xd;&#xd;&#xd;&#xd;&#xd;&#xd;&#xd;&#xd;&#xd;&#xd;&#xd;&#xd;&#xd;&#xd;&#xd;&#xd;&#xd;&#xd;&#xd;
        "index": 6&#xd;&#xd;&#xd;&#xd;&#xd;&#xd;&#xd;&#xd;&#xd;&#xd;&#xd;&#xd;&#xd;&#xd;&#xd;&#xd;&#xd;&#xd;&#xd;&#xd;&#xd;&#xd;&#xd;&#xd;&#xd;&#xd;&#xd;&#xd;&#xd;&#xd;&#xd;&#xd;&#xd;&#xd;&#xd;&#xd;&#xd;&#xd;&#xd;
    },&#xd;&#xd;&#xd;&#xd;&#xd;&#xd;&#xd;&#xd;&#xd;&#xd;&#xd;&#xd;&#xd;&#xd;&#xd;&#xd;&#xd;&#xd;&#xd;&#xd;&#xd;&#xd;&#xd;&#xd;&#xd;&#xd;&#xd;&#xd;&#xd;&#xd;&#xd;&#xd;&#xd;&#xd;&#xd;&#xd;&#xd;&#xd;&#xd;
    {&#xd;&#xd;&#xd;&#xd;&#xd;&#xd;&#xd;&#xd;&#xd;&#xd;&#xd;&#xd;&#xd;&#xd;&#xd;&#xd;&#xd;&#xd;&#xd;&#xd;&#xd;&#xd;&#xd;&#xd;&#xd;&#xd;&#xd;&#xd;&#xd;&#xd;&#xd;&#xd;&#xd;&#xd;&#xd;&#xd;&#xd;&#xd;&#xd;
        "color": "#f47750",&#xd;&#xd;&#xd;&#xd;&#xd;&#xd;&#xd;&#xd;&#xd;&#xd;&#xd;&#xd;&#xd;&#xd;&#xd;&#xd;&#xd;&#xd;&#xd;&#xd;&#xd;&#xd;&#xd;&#xd;&#xd;&#xd;&#xd;&#xd;&#xd;&#xd;&#xd;&#xd;&#xd;&#xd;&#xd;&#xd;&#xd;&#xd;&#xd;
        "comment": "Category 8",&#xd;&#xd;&#xd;&#xd;&#xd;&#xd;&#xd;&#xd;&#xd;&#xd;&#xd;&#xd;&#xd;&#xd;&#xd;&#xd;&#xd;&#xd;&#xd;&#xd;&#xd;&#xd;&#xd;&#xd;&#xd;&#xd;&#xd;&#xd;&#xd;&#xd;&#xd;&#xd;&#xd;&#xd;&#xd;&#xd;&#xd;&#xd;&#xd;
        "index": 7&#xd;&#xd;&#xd;&#xd;&#xd;&#xd;&#xd;&#xd;&#xd;&#xd;&#xd;&#xd;&#xd;&#xd;&#xd;&#xd;&#xd;&#xd;&#xd;&#xd;&#xd;&#xd;&#xd;&#xd;&#xd;&#xd;&#xd;&#xd;&#xd;&#xd;&#xd;&#xd;&#xd;&#xd;&#xd;&#xd;&#xd;&#xd;&#xd;
    },&#xd;&#xd;&#xd;&#xd;&#xd;&#xd;&#xd;&#xd;&#xd;&#xd;&#xd;&#xd;&#xd;&#xd;&#xd;&#xd;&#xd;&#xd;&#xd;&#xd;&#xd;&#xd;&#xd;&#xd;&#xd;&#xd;&#xd;&#xd;&#xd;&#xd;&#xd;&#xd;&#xd;&#xd;&#xd;&#xd;&#xd;&#xd;&#xd;
    {&#xd;&#xd;&#xd;&#xd;&#xd;&#xd;&#xd;&#xd;&#xd;&#xd;&#xd;&#xd;&#xd;&#xd;&#xd;&#xd;&#xd;&#xd;&#xd;&#xd;&#xd;&#xd;&#xd;&#xd;&#xd;&#xd;&#xd;&#xd;&#xd;&#xd;&#xd;&#xd;&#xd;&#xd;&#xd;&#xd;&#xd;&#xd;&#xd;
        "color": "#da4453",&#xd;&#xd;&#xd;&#xd;&#xd;&#xd;&#xd;&#xd;&#xd;&#xd;&#xd;&#xd;&#xd;&#xd;&#xd;&#xd;&#xd;&#xd;&#xd;&#xd;&#xd;&#xd;&#xd;&#xd;&#xd;&#xd;&#xd;&#xd;&#xd;&#xd;&#xd;&#xd;&#xd;&#xd;&#xd;&#xd;&#xd;&#xd;&#xd;
        "comment": "Category 9",&#xd;&#xd;&#xd;&#xd;&#xd;&#xd;&#xd;&#xd;&#xd;&#xd;&#xd;&#xd;&#xd;&#xd;&#xd;&#xd;&#xd;&#xd;&#xd;&#xd;&#xd;&#xd;&#xd;&#xd;&#xd;&#xd;&#xd;&#xd;&#xd;&#xd;&#xd;&#xd;&#xd;&#xd;&#xd;&#xd;&#xd;&#xd;&#xd;
        "index": 8&#xd;&#xd;&#xd;&#xd;&#xd;&#xd;&#xd;&#xd;&#xd;&#xd;&#xd;&#xd;&#xd;&#xd;&#xd;&#xd;&#xd;&#xd;&#xd;&#xd;&#xd;&#xd;&#xd;&#xd;&#xd;&#xd;&#xd;&#xd;&#xd;&#xd;&#xd;&#xd;&#xd;&#xd;&#xd;&#xd;&#xd;&#xd;&#xd;
    }&#xd;&#xd;&#xd;&#xd;&#xd;&#xd;&#xd;&#xd;&#xd;&#xd;&#xd;&#xd;&#xd;&#xd;&#xd;&#xd;&#xd;&#xd;&#xd;&#xd;&#xd;&#xd;&#xd;&#xd;&#xd;&#xd;&#xd;&#xd;&#xd;&#xd;&#xd;&#xd;&#xd;&#xd;&#xd;&#xd;&#xd;&#xd;&#xd;
]&#xd;&#xd;&#xd;&#xd;&#xd;&#xd;&#xd;&#xd;&#xd;&#xd;&#xd;&#xd;&#xd;&#xd;&#xd;&#xd;&#xd;&#xd;&#xd;&#xd;&#xd;&#xd;&#xd;&#xd;&#xd;&#xd;&#xd;&#xd;&#xd;&#xd;&#xd;&#xd;&#xd;&#xd;&#xd;&#xd;&#xd;&#xd;&#xd;
</property>
  <property name="kdenlive:docproperties.kdenliveversion">25.04.1</property>
  <property name="kdenlive:docproperties.opensequences">{e2856d23-19ee-42d4-8454-a30a4474724e}</property>
  <property name="kdenlive:docproperties.previewextension"/>
  <property name="kdenlive:docproperties.previewparameters"/>
  <property name="kdenlive:docproperties.profile">C:/Users/barnaud/AppData/Roaming/kdenlive/profiles/customprofile16</property>
  <property name="kdenlive:docproperties.proxyextension"/>
  <property name="kdenlive:docproperties.proxyimageminsize">2000</property>
  <property name="kdenlive:docproperties.proxyimagesize">800</property>
  <property name="kdenlive:docproperties.proxyminsize">1000</property>
  <property name="kdenlive:docproperties.proxyparams"/>
  <property name="kdenlive:docproperties.proxyresize">640</property>
  <property name="kdenlive:docproperties.rendercategory">Generic (HD for web, mobile devices...)</property>
  <property name="kdenlive:docproperties.rendercustomquality">-1</property>
  <property name="kdenlive:docproperties.renderendguide">-1</property>
  <property name="kdenlive:docproperties.renderexportaudio">0</property>
  <property name="kdenlive:docproperties.renderfullcolorrange">0</property>
  <property name="kdenlive:docproperties.rendermode">1</property>
  <property name="kdenlive:docproperties.renderplay">0</property>
  <property name="kdenlive:docproperties.renderpreview">0</property>
  <property name="kdenlive:docproperties.renderprofile">MP4-H264/AAC</property>
  <property name="kdenlive:docproperties.renderrescale">0</property>
  <property name="kdenlive:docproperties.renderrescaleheight">1080</property>
  <property name="kdenlive:docproperties.renderrescalewidth">2580</property>
  <property name="kdenlive:docproperties.renderspeed">6</property>
  <property name="kdenlive:docproperties.renderstartguide">-1</property>
  <property name="kdenlive:docproperties.rendertcoverlay">0</property>
  <property name="kdenlive:docproperties.rendertctype">-1</property>
  <property name="kdenlive:docproperties.rendertwopass">0</property>
  <property name="kdenlive:docproperties.renderurl">C:/dev/workspace/indy/deploy/wide/movie-test13.mp4</property>
  <property name="kdenlive:docproperties.seekOffset">30000</property>
  <property name="kdenlive:docproperties.sessionid">{4f6dbc9e-21c9-42c8-9906-945d03545157}</property>
  <property name="kdenlive:docproperties.uuid">{e2856d23-19ee-42d4-8454-a30a4474724e}</property>
  <property name="kdenlive:docproperties.version">1.1</property>
  <property name="kdenlive:expandedFolders"/>
  <property name="kdenlive:binZoom">4</property>
  <property name="kdenlive:extraBins">project_bin:-1:0</property>
  <property name="kdenlive:documentnotes"/>
  <property name="kdenlive:documentnotesversion">2</property>
  <property name="xml_retain">1</property>
  <entry in="00:00:00.000" out="00:01:44.333" producer="chain178"/>
  <entry in="00:00:00.000" out="00:00:05.042" producer="chain182"/>
  <entry in="00:00:00.000" out="00:00:03.000" producer="chain180"/>
  <entry in="00:00:00.000" out="00:00:05.042" producer="chain32"/>
  <entry in="00:00:00.000" out="00:00:05.125" producer="chain184"/>
  <entry in="00:00:00.000" out="00:03:11.125" producer="chain87"/>
  <entry in="00:00:00.000" out="00:00:04.625" producer="chain86"/>
  <entry in="00:00:00.000" out="00:00:03.417" producer="chain89"/>
  <entry in="00:00:00.000" out="00:00:03.708" producer="chain91"/>
  <entry in="00:00:00.000" out="00:00:05.042" producer="chain117"/>
  <entry in="00:00:00.000" out="00:00:05.042" producer="chain142"/>
  <entry in="00:00:00.000" out="00:12:00.000" producer="chain90"/>
  <entry in="00:00:00.000" out="00:00:05.042" producer="chain143"/>
  <entry in="00:00:00.000" out="00:00:02.083" producer="chain136"/>
  <entry in="00:00:00.000" out="00:00:03.333" producer="chain137"/>
  <entry in="00:00:00.000" out="00:00:04.208" producer="chain138"/>
  <entry in="00:00:00.000" out="00:00:05.042" producer="chain118"/>
  <entry in="00:00:00.000" out="00:00:09.542" producer="chain155"/>
  <entry in="00:00:00.000" out="00:00:03.083" producer="chain151"/>
  <entry in="00:00:00.000" out="00:00:04.333" producer="chain152"/>
  <entry in="00:00:00.000" out="00:00:02.083" producer="chain153"/>
  <entry in="00:00:00.000" out="00:00:05.042" producer="chain120"/>
  <entry in="00:00:00.000" out="00:00:14.042" producer="chain111"/>
  <entry in="00:00:00.000" out="00:00:05.042" producer="chain112"/>
  <entry in="00:00:00.000" out="00:00:01.375" producer="chain94"/>
  <entry in="00:00:00.000" out="00:00:01.792" producer="chain98"/>
  <entry in="00:00:00.000" out="00:00:14.042" producer="chain187"/>
  <entry in="00:00:00.000" out="00:03:11.125" producer="chain88"/>
  <entry in="00:00:00.000" out="00:00:05.042" producer="chain160"/>
  <entry in="00:00:00.000" out="00:00:04.625" producer="chain164"/>
  <entry in="00:00:00.000" out="00:00:05.042" producer="chain177"/>
  <entry in="00:00:00.000" out="00:00:05.042" producer="chain119"/>
  <entry in="00:00:00.000" out="00:00:05.042" producer="chain122"/>
  <entry in="00:00:00.000" out="00:00:05.000" producer="chain129"/>
  <entry in="00:00:00.000" out="00:00:05.042" producer="chain144"/>
  <entry in="00:00:00.000" out="00:00:05.042" producer="chain146"/>
  <entry in="00:00:00.000" out="00:00:03.958" producer="chain148"/>
  <entry in="00:00:00.000" out="00:00:04.958" producer="chain154"/>
  <entry in="00:00:00.000" out="00:00:05.250" producer="chain157"/>
  <entry in="00:00:00.000" out="00:00:09.542" producer="chain159"/>
  <entry in="00:00:00.000" out="00:00:05.042" producer="chain171"/>
  <entry in="00:00:00.000" out="00:00:05.042" producer="chain188"/>
  <entry in="00:00:00.000" out="00:00:10.208" producer="chain145"/>
  <entry in="00:00:00.000" out="00:00:10.250" producer="chain156"/>
  <entry in="00:00:00.000" out="00:00:04.958" producer="producer25"/>
  <entry in="00:00:00.000" out="00:00:04.958" producer="producer26"/>
  <entry in="00:00:00.000" out="00:00:04.958" producer="producer21"/>
  <entry in="00:00:00.000" out="00:00:04.958" producer="producer24"/>
  <entry in="00:00:00.000" out="00:02:27.583" producer="chain92"/>
  <entry in="00:00:00.000" out="00:00:05.000" producer="chain126"/>
  <entry in="00:00:00.000" out="00:00:13.208" producer="producer27"/>
  <entry in="00:00:00.000" out="00:00:03.958" producer="chain147"/>
  <entry in="00:00:00.000" out="00:00:08.958" producer="chain106"/>
  <entry in="00:00:00.000" out="00:00:05.042" producer="chain108"/>
  <entry in="00:00:00.000" out="00:00:05.042" producer="chain114"/>
  <entry in="00:00:00.000" out="00:00:05.042" producer="chain161"/>
  <entry in="00:00:00.000" out="00:00:04.625" producer="chain169"/>
  <entry in="00:00:00.000" out="00:00:05.042" producer="chain163"/>
  <entry in="00:00:00.000" out="00:00:04.625" producer="chain175"/>
  <entry in="00:00:00.000" out="00:00:04.625" producer="chain172"/>
  <entry in="00:00:00.000" out="00:05:24.042" producer="chain13"/>
  <entry in="00:00:00.000" out="00:00:07.417" producer="producer39"/>
  <entry in="00:00:00.000" out="00:01:44.333" producer="chain179"/>
  <entry in="00:00:00.000" out="00:00:15.167" producer="chain150"/>
  <entry in="00:00:00.000" out="00:00:07.417" producer="producer40"/>
  <entry in="00:00:00.000" out="00:00:04.958" producer="producer29"/>
  <entry in="00:00:00.000" out="00:00:05.042" producer="chain35"/>
  <entry in="00:00:00.000" out="00:00:04.958" producer="producer33"/>
  <entry in="00:00:00.000" out="00:00:04.958" producer="producer32"/>
  <entry in="00:00:00.000" out="00:00:05.000" producer="chain53"/>
  <entry in="00:00:00.000" out="00:00:05.000" producer="chain67"/>
  <entry in="00:00:00.000" out="00:00:05.000" producer="chain5"/>
  <entry in="00:00:00.000" out="00:00:05.000" producer="chain14"/>
  <entry in="00:00:00.000" out="00:00:04.958" producer="producer16"/>
  <entry in="00:00:00.000" out="00:01:43.958" producer="tractor18"/>
 </playlist>
 <tractor id="tractor19" in="00:00:00.000" out="00:01:43.958">
  <property name="kdenlive:projectTractor">1</property>
  <track in="00:00:00.000" out="00:01:43.958" producer="tractor18"/>
 </tractor>
</mlt>
