<?xml version='1.0' encoding='utf-8'?>
<mlt LC_NUMERIC="en_US.UTF-8" producer="main_bin" root="C:/dev/workspace/indy/dist/trailer/data" version="7.32.0">
 <profile colorspace="709" description="Cinemascope 2160p 24 fps" display_aspect_den="18" display_aspect_num="43" frame_rate_den="1" frame_rate_num="24" height="2160" progressive="1" sample_aspect_den="1" sample_aspect_num="1" width="5160"/>
 <producer id="producer10" in="00:00:00.000" out="00:00:04.958">
  <property name="length">120</property>
  <property name="eof">pause</property>
  <property name="resource"/>
  <property name="meta.media.progressive">1</property>
  <property name="aspect_ratio">1</property>
  <property name="seekable">1</property>
  <property name="mlt_service">kdenlivetitle</property>
  <property name="kdenlive:duration">00:00:05:00</property>
  <property name="kdenlive:clipname">THIS PRODUCT...</property>
  <property name="xmldata">&lt;kdenlivetitle LC_NUMERIC="C" duration="120" height="2160" out="119" width="3840">
 &lt;item type="QGraphicsTextItem" z-index="0">
  &lt;position x="942" y="938">
   &lt;transform>1,0,0,0,1,0,0,0,1&lt;/transform>
  &lt;/position>
  &lt;content alignment="1" box-height="283" box-width="1956" font="Times New Roman" font-color="255,255,255,255" font-italic="0" font-outline="0" font-outline-color="0,0,0,255" font-pixel-size="256" font-underline="0" font-weight="400" letter-spacing="0" line-spacing="0" shadow="0;#64000000;3;3;3" tab-width="80" typewriter="0;2;1;0;0">C   I   N   E   M   A&lt;/content>
 &lt;/item>
 &lt;startviewport rect="0,0,3840,2160"/>
 &lt;endviewport rect="0,0,3840,2160"/>
 &lt;background color="0,0,0,0"/>
&lt;/kdenlivetitle>
</property>
  <property name="xml">was here</property>
  <property name="kdenlive:folderid">-1</property>
  <property name="kdenlive:id">5</property>
  <property name="kdenlive:clip_type">2</property>
  <property name="kdenlive:file_hash">4a2dd89e820242a3490bc5ff0f2f1762</property>
  <property name="force_reload">0</property>
  <property name="kdenlive:control_uuid">{76fb16bd-71bd-40b7-a2ca-5fb0feb0a8c0}</property>
  <property name="kdenlive:uniqueId">{55f9e756-cd4d-4cd3-b9cc-ed35ecbefd43}</property>
  <property name="meta.media.width">3840</property>
  <property name="meta.media.height">2160</property>
 </producer>
 <producer id="producer11" in="00:00:00.000" out="00:00:04.958">
  <property name="length">120</property>
  <property name="eof">pause</property>
  <property name="resource"/>
  <property name="meta.media.progressive">1</property>
  <property name="aspect_ratio">1</property>
  <property name="seekable">1</property>
  <property name="mlt_service">kdenlivetitle</property>
  <property name="kdenlive:duration">00:00:05:00</property>
  <property name="kdenlive:clipname">IS ABOUT BRE...</property>
  <property name="xmldata">&lt;kdenlivetitle LC_NUMERIC="C" duration="120" height="2160" out="119" width="3840">
 &lt;item type="QGraphicsTextItem" z-index="0">
  &lt;position x="832" y="1044">
   &lt;transform>1,0,0,0,1,0,0,0,1&lt;/transform>
  &lt;/position>
  &lt;content alignment="1" box-height="71" box-width="2176" font="Microgramma" font-color="255,255,255,255" font-italic="0" font-pixel-size="76" font-underline="0" font-weight="400" letter-spacing="0" line-spacing="0" shadow="0;#64000000;3;3;3" typewriter="0;2;1;0;0">IS ABOUT BREATHING LIFE INTO PICTURES&lt;/content>
 &lt;/item>
 &lt;startviewport rect="0,0,3840,2160"/>
 &lt;endviewport rect="0,0,3840,2160"/>
 &lt;background color="0,0,0,0"/>
&lt;/kdenlivetitle>
</property>
  <property name="xml">was here</property>
  <property name="kdenlive:folderid">-1</property>
  <property name="kdenlive:id">6</property>
  <property name="kdenlive:clip_type">2</property>
  <property name="kdenlive:file_hash">f5e75ed71c55ffe4211f6b58b0e94c19</property>
  <property name="force_reload">0</property>
  <property name="kdenlive:control_uuid">{9077ce3b-5d02-45f2-a24a-c324fc5cf12c}</property>
  <property name="kdenlive:uniqueId">{4e986a62-9454-4d45-95ad-54845c8430b9}</property>
  <property name="meta.media.width">3840</property>
  <property name="meta.media.height">2160</property>
 </producer>
 <chain id="chain97" out="00:05:15.500">
  <property name="length">7573</property>
  <property name="eof">pause</property>
  <property name="resource">C:/dev/workspace/indy/dist/trailer/content/extra/music.webm</property>
  <property name="mlt_service">avformat</property>
  <property name="meta.media.nb_streams">1</property>
  <property name="meta.media.0.stream.type">audio</property>
  <property name="meta.media.0.codec.sample_fmt">fltp</property>
  <property name="meta.media.0.codec.sample_rate">48000</property>
  <property name="meta.media.0.codec.channels">2</property>
  <property name="meta.media.0.codec.layout">stereo</property>
  <property name="meta.media.0.codec.name">opus</property>
  <property name="meta.media.0.codec.long_name">Opus</property>
  <property name="meta.media.0.codec.bit_rate">0</property>
  <property name="meta.attr.0.stream.language.markup">eng</property>
  <property name="meta.attr.encoder.markup">google/video-file</property>
  <property name="seekable">1</property>
  <property name="audio_index">0</property>
  <property name="video_index">-1</property>
  <property name="astream">0</property>
  <property name="kdenlive:control_uuid">{36c0b7dd-8df9-4ecd-9809-1684bd3b35a2}</property>
  <property name="kdenlive:id">7</property>
  <property name="kdenlive:clip_type">1</property>
  <property name="kdenlive:file_size">5791304</property>
  <property name="kdenlive:file_hash">dbabf8b963ebb091560d76bfc13b4942</property>
  <property name="kdenlive:folderid">-1</property>
 </chain>
 <producer id="producer12" in="00:00:00.000" out="00:00:04.958">
  <property name="length">00:00:05.000</property>
  <property name="eof">pause</property>
  <property name="resource">C:/dev/workspace/indy/dist/room/intro/data/upscale/college2.png</property>
  <property name="ttl">25</property>
  <property name="aspect_ratio">1</property>
  <property name="meta.media.progressive">1</property>
  <property name="seekable">1</property>
  <property name="format">1</property>
  <property name="meta.media.width">2912</property>
  <property name="meta.media.height">1632</property>
  <property name="mlt_service">qimage</property>
  <property name="kdenlive:clipname">college2.png</property>
  <property name="kdenlive:duration">00:00:05.000</property>
  <property name="xml">was here</property>
  <property name="kdenlive:folderid">-1</property>
  <property name="kdenlive:id">8</property>
  <property name="kdenlive:clip_type">2</property>
  <property name="kdenlive:file_size">9464253</property>
  <property name="kdenlive:control_uuid">{9b832564-7b0f-4129-965c-34487dee7276}</property>
  <property name="kdenlive:monitorPosition">15</property>
  <property name="kdenlive:originalurl">C:/dev/workspace/indy/dist/room/intro/data/upscale/college2.png</property>
  <property name="kdenlive:file_hash">986a92a06480e8cf99412425f1a9d538</property>
 </producer>
 <chain id="chain63" out="00:00:09.542">
  <property name="length">230</property>
  <property name="eof">pause</property>
  <property name="resource">C:/dev/workspace/indy/dist/room/intro/content/upscale/college.mp4</property>
  <property name="mlt_service">avformat-novalidate</property>
  <property name="meta.media.nb_streams">1</property>
  <property name="meta.media.0.stream.type">video</property>
  <property name="meta.media.0.stream.frame_rate">60</property>
  <property name="meta.media.0.stream.sample_aspect_ratio">0</property>
  <property name="meta.media.0.codec.width">3840</property>
  <property name="meta.media.0.codec.height">2160</property>
  <property name="meta.media.0.codec.rotate">0</property>
  <property name="meta.media.0.codec.pix_fmt">yuv420p</property>
  <property name="meta.media.0.codec.sample_aspect_ratio">0</property>
  <property name="meta.media.0.codec.colorspace">709</property>
  <property name="meta.media.0.codec.name">hevc</property>
  <property name="meta.media.0.codec.long_name">HEVC (High Efficiency Video Coding)</property>
  <property name="meta.media.0.codec.bit_rate">50445084</property>
  <property name="meta.attr.0.stream.handler_name.markup">VideoHandler</property>
  <property name="meta.attr.0.stream.vendor_id.markup">[0][0][0][0]</property>
  <property name="meta.attr.0.stream.encoder.markup">Lavc61.19.101 libx265</property>
  <property name="meta.attr.minor_version.markup">512</property>
  <property name="meta.attr.major_brand.markup">isom</property>
  <property name="meta.attr.compatible_brands.markup">isomiso2mp41</property>
  <property name="meta.attr.encoder.markup">Lavf62.0.102</property>
  <property name="seekable">1</property>
  <property name="meta.media.sample_aspect_num">1</property>
  <property name="meta.media.sample_aspect_den">1</property>
  <property name="audio_index">-1</property>
  <property name="video_index">0</property>
  <property name="vstream">0</property>
  <property name="meta.media.frame_rate_num">60</property>
  <property name="meta.media.frame_rate_den">1</property>
  <property name="meta.media.colorspace">709</property>
  <property name="meta.media.color_trc">2</property>
  <property name="meta.media.has_b_frames">2</property>
  <property name="meta.media.width">3840</property>
  <property name="meta.media.height">2160</property>
  <property name="meta.media.aspect_ratio">1</property>
  <property name="meta.media.color_range">mpeg</property>
  <property name="meta.media.top_field_first">0</property>
  <property name="meta.media.progressive">1</property>
  <property name="kdenlive:control_uuid">{350e073c-9b0a-4f0d-9454-c17930be46ca}</property>
  <property name="kdenlive:id">9</property>
  <property name="kdenlive:clip_type">2</property>
  <property name="kdenlive:file_size">60545575</property>
  <property name="kdenlive:file_hash">6fab5adb01b4b530cfd57ff860acce9f</property>
  <property name="kdenlive:folderid">4</property>
  <property name="mute_on_pause">0</property>
 </chain>
 <producer id="producer22" in="00:00:00.000" out="00:00:04.958">
  <property name="length">00:00:05.000</property>
  <property name="eof">pause</property>
  <property name="resource">C:/dev/workspace/indy/dist/room/intro/data/upscale/college4.png</property>
  <property name="ttl">25</property>
  <property name="aspect_ratio">1</property>
  <property name="meta.media.progressive">1</property>
  <property name="seekable">1</property>
  <property name="format">2</property>
  <property name="meta.media.width">2912</property>
  <property name="meta.media.height">1632</property>
  <property name="mlt_service">qimage</property>
  <property name="kdenlive:clipname"/>
  <property name="kdenlive:duration">00:00:05.000</property>
  <property name="xml">was here</property>
  <property name="kdenlive:folderid">-1</property>
  <property name="kdenlive:id">10</property>
  <property name="kdenlive:clip_type">2</property>
  <property name="kdenlive:file_size">6633163</property>
  <property name="kdenlive:file_hash">78fefb3ef9e5950dc70538ca86d59cdf</property>
  <property name="kdenlive:control_uuid">{867db2ee-baf4-4ccb-83f2-aaa3bfc8efc2}</property>
  <property name="kdenlive:monitorPosition">0</property>
 </producer>
 <producer id="producer24" in="00:00:00.000" out="00:00:04.958">
  <property name="length">00:00:05.000</property>
  <property name="eof">pause</property>
  <property name="resource">C:/dev/workspace/indy/dist/room/attic/data/upscale/splash.png</property>
  <property name="ttl">25</property>
  <property name="aspect_ratio">1</property>
  <property name="meta.media.progressive">1</property>
  <property name="seekable">1</property>
  <property name="format">1</property>
  <property name="meta.media.width">5824</property>
  <property name="meta.media.height">3264</property>
  <property name="mlt_service">qimage</property>
  <property name="kdenlive:clipname"/>
  <property name="kdenlive:duration">00:00:05.000</property>
  <property name="xml">was here</property>
  <property name="kdenlive:folderid">-1</property>
  <property name="kdenlive:id">11</property>
  <property name="kdenlive:clip_type">2</property>
  <property name="kdenlive:file_size">17655795</property>
  <property name="kdenlive:file_hash">dac3f97b76ae76818e61cd45b069544b</property>
  <property name="kdenlive:control_uuid">{c3b758b5-0e79-44a2-8092-1e698a3bad27}</property>
 </producer>
 <chain id="chain66" out="00:00:05.042">
  <property name="length">122</property>
  <property name="eof">pause</property>
  <property name="resource">C:/dev/workspace/indy/dist/room/attic/content/upscale/splash3.mp4</property>
  <property name="mlt_service">avformat-novalidate</property>
  <property name="meta.media.nb_streams">1</property>
  <property name="meta.media.0.stream.type">video</property>
  <property name="meta.media.0.stream.frame_rate">60</property>
  <property name="meta.media.0.stream.sample_aspect_ratio">0</property>
  <property name="meta.media.0.codec.width">3840</property>
  <property name="meta.media.0.codec.height">2160</property>
  <property name="meta.media.0.codec.rotate">0</property>
  <property name="meta.media.0.codec.pix_fmt">yuv444p</property>
  <property name="meta.media.0.codec.sample_aspect_ratio">0</property>
  <property name="meta.media.0.codec.colorspace">709</property>
  <property name="meta.media.0.codec.name">h264</property>
  <property name="meta.media.0.codec.long_name">H.264 / AVC / MPEG-4 AVC / MPEG-4 part 10</property>
  <property name="meta.media.0.codec.bit_rate">20663921</property>
  <property name="meta.attr.0.stream.handler_name.markup">VideoHandler</property>
  <property name="meta.attr.0.stream.vendor_id.markup">[0][0][0][0]</property>
  <property name="meta.attr.0.stream.encoder.markup">Lavc61.19.101 libx264</property>
  <property name="meta.attr.minor_version.markup">512</property>
  <property name="meta.attr.major_brand.markup">isom</property>
  <property name="meta.attr.compatible_brands.markup">isomiso2avc1mp41</property>
  <property name="meta.attr.encoder.markup">Lavf61.9.100</property>
  <property name="seekable">1</property>
  <property name="meta.media.sample_aspect_num">1</property>
  <property name="meta.media.sample_aspect_den">1</property>
  <property name="audio_index">-1</property>
  <property name="video_index">0</property>
  <property name="vstream">0</property>
  <property name="meta.media.frame_rate_num">60</property>
  <property name="meta.media.frame_rate_den">1</property>
  <property name="meta.media.colorspace">709</property>
  <property name="meta.media.color_trc">2</property>
  <property name="meta.media.has_b_frames">2</property>
  <property name="meta.media.width">3840</property>
  <property name="meta.media.height">2160</property>
  <property name="meta.media.aspect_ratio">1</property>
  <property name="meta.media.color_range">mpeg</property>
  <property name="meta.media.top_field_first">0</property>
  <property name="meta.media.progressive">1</property>
  <property name="kdenlive:control_uuid">{7e67cc9d-b056-4809-b3cc-26650cde1ffc}</property>
  <property name="kdenlive:id">12</property>
  <property name="kdenlive:clip_type">2</property>
  <property name="kdenlive:file_size">13178089</property>
  <property name="kdenlive:file_hash">b3c8d8006b85fdde4229ecd99517e18a</property>
  <property name="kdenlive:folderid">4</property>
  <property name="mute_on_pause">0</property>
 </chain>
 <producer id="producer23" in="00:00:00.000" out="00:00:04.958">
  <property name="length">00:00:05.000</property>
  <property name="eof">pause</property>
  <property name="resource">C:/dev/workspace/indy/dist/room/attic/content/indy3.png</property>
  <property name="ttl">25</property>
  <property name="aspect_ratio">1</property>
  <property name="meta.media.progressive">1</property>
  <property name="seekable">1</property>
  <property name="format">2</property>
  <property name="meta.media.width">5824</property>
  <property name="meta.media.height">3264</property>
  <property name="mlt_service">qimage</property>
  <property name="kdenlive:clipname"/>
  <property name="kdenlive:duration">00:00:05.000</property>
  <property name="xml">was here</property>
  <property name="kdenlive:folderid">-1</property>
  <property name="kdenlive:id">13</property>
  <property name="kdenlive:clip_type">2</property>
  <property name="kdenlive:file_size">16826013</property>
  <property name="kdenlive:file_hash">22e19c46cb9dc8f9c423bbdc6d206ca8</property>
  <property name="kdenlive:control_uuid">{1cefa096-81f5-4ac0-8f9f-28e4af7132f0}</property>
 </producer>
 <chain id="chain59" out="00:00:04.625">
  <property name="length">112</property>
  <property name="eof">pause</property>
  <property name="resource">C:/dev/workspace/indy/dist/room/attic/content/voice/attic.mp3</property>
  <property name="mlt_service">avformat</property>
  <property name="meta.media.nb_streams">1</property>
  <property name="meta.media.0.stream.type">audio</property>
  <property name="meta.media.0.codec.sample_fmt">fltp</property>
  <property name="meta.media.0.codec.sample_rate">44100</property>
  <property name="meta.media.0.codec.channels">1</property>
  <property name="meta.media.0.codec.layout">mono</property>
  <property name="meta.media.0.codec.name">mp3float</property>
  <property name="meta.media.0.codec.long_name">MP3 (MPEG audio layer 3)</property>
  <property name="meta.media.0.codec.bit_rate">64000</property>
  <property name="meta.attr.encoder.markup">Lavf61.1.100</property>
  <property name="seekable">1</property>
  <property name="audio_index">0</property>
  <property name="video_index">-1</property>
  <property name="astream">0</property>
  <property name="kdenlive:control_uuid">{08b2d8a6-cb94-4b5f-bed7-4b6f59ade682}</property>
  <property name="kdenlive:id">14</property>
  <property name="kdenlive:clip_type">1</property>
  <property name="kdenlive:file_size">37424</property>
  <property name="kdenlive:file_hash">c4fd485530845196267c27f7a6e84346</property>
  <property name="kdenlive:folderid">4</property>
 </chain>
 <chain id="chain65" out="00:00:14.042">
  <property name="length">338</property>
  <property name="eof">pause</property>
  <property name="resource">C:/dev/workspace/indy/dist/room/intro/content/upscale/college3.mp4</property>
  <property name="mlt_service">avformat-novalidate</property>
  <property name="meta.media.nb_streams">1</property>
  <property name="meta.media.0.stream.type">video</property>
  <property name="meta.media.0.stream.frame_rate">60</property>
  <property name="meta.media.0.stream.sample_aspect_ratio">0</property>
  <property name="meta.media.0.codec.width">3840</property>
  <property name="meta.media.0.codec.height">2160</property>
  <property name="meta.media.0.codec.rotate">0</property>
  <property name="meta.media.0.codec.pix_fmt">yuv420p</property>
  <property name="meta.media.0.codec.sample_aspect_ratio">0</property>
  <property name="meta.media.0.codec.colorspace">709</property>
  <property name="meta.media.0.codec.name">hevc</property>
  <property name="meta.media.0.codec.long_name">HEVC (High Efficiency Video Coding)</property>
  <property name="meta.media.0.codec.bit_rate">74617285</property>
  <property name="meta.attr.0.stream.handler_name.markup">VideoHandler</property>
  <property name="meta.attr.0.stream.vendor_id.markup">[0][0][0][0]</property>
  <property name="meta.attr.0.stream.encoder.markup">Lavc61.19.101 libx265</property>
  <property name="meta.attr.minor_version.markup">512</property>
  <property name="meta.attr.major_brand.markup">isom</property>
  <property name="meta.attr.compatible_brands.markup">isomiso2mp41</property>
  <property name="meta.attr.encoder.markup">Lavf62.0.102</property>
  <property name="seekable">1</property>
  <property name="meta.media.sample_aspect_num">1</property>
  <property name="meta.media.sample_aspect_den">1</property>
  <property name="audio_index">-1</property>
  <property name="video_index">0</property>
  <property name="vstream">0</property>
  <property name="meta.media.frame_rate_num">60</property>
  <property name="meta.media.frame_rate_den">1</property>
  <property name="meta.media.colorspace">709</property>
  <property name="meta.media.color_trc">2</property>
  <property name="meta.media.has_b_frames">2</property>
  <property name="meta.media.width">3840</property>
  <property name="meta.media.height">2160</property>
  <property name="meta.media.aspect_ratio">1</property>
  <property name="meta.media.color_range">mpeg</property>
  <property name="meta.media.top_field_first">0</property>
  <property name="meta.media.progressive">1</property>
  <property name="kdenlive:control_uuid">{4b4b3df4-e61e-40fc-81c7-0b0d71b1bd6f}</property>
  <property name="kdenlive:id">15</property>
  <property name="kdenlive:clip_type">2</property>
  <property name="kdenlive:file_size">131528758</property>
  <property name="kdenlive:file_hash">df4e9251f563eeac1c9c4aa9c7aa5b5e</property>
  <property name="kdenlive:folderid">4</property>
  <property name="mute_on_pause">0</property>
 </chain>
 <chain id="chain60" out="00:00:03.417">
  <property name="length">83</property>
  <property name="eof">pause</property>
  <property name="resource">C:/dev/workspace/indy/dist/room/attic/content/voice/attic2.mp3</property>
  <property name="mlt_service">avformat</property>
  <property name="meta.media.nb_streams">1</property>
  <property name="meta.media.0.stream.type">audio</property>
  <property name="meta.media.0.codec.sample_fmt">fltp</property>
  <property name="meta.media.0.codec.sample_rate">44100</property>
  <property name="meta.media.0.codec.channels">1</property>
  <property name="meta.media.0.codec.layout">mono</property>
  <property name="meta.media.0.codec.name">mp3float</property>
  <property name="meta.media.0.codec.long_name">MP3 (MPEG audio layer 3)</property>
  <property name="meta.media.0.codec.bit_rate">64000</property>
  <property name="meta.attr.encoder.markup">Lavf61.1.100</property>
  <property name="seekable">1</property>
  <property name="audio_index">0</property>
  <property name="video_index">-1</property>
  <property name="astream">0</property>
  <property name="kdenlive:control_uuid">{04a5a079-bec6-48cb-99d6-c7ed033501ac}</property>
  <property name="kdenlive:id">16</property>
  <property name="kdenlive:clip_type">1</property>
  <property name="kdenlive:file_size">27811</property>
  <property name="kdenlive:file_hash">b23fa849adfde6ceac045a8e3aa2ce0f</property>
  <property name="kdenlive:folderid">4</property>
 </chain>
 <producer id="producer26" in="00:00:00.000" out="00:00:04.958">
  <property name="length">00:00:05.000</property>
  <property name="eof">pause</property>
  <property name="resource">C:/dev/workspace/indy/dist/room/attic/data/upscale/attic5.png</property>
  <property name="ttl">25</property>
  <property name="aspect_ratio">1</property>
  <property name="meta.media.progressive">1</property>
  <property name="seekable">1</property>
  <property name="format">1</property>
  <property name="meta.media.width">5824</property>
  <property name="meta.media.height">3264</property>
  <property name="mlt_service">qimage</property>
  <property name="kdenlive:clipname"/>
  <property name="kdenlive:duration">00:00:05.000</property>
  <property name="xml">was here</property>
  <property name="kdenlive:folderid">-1</property>
  <property name="kdenlive:id">17</property>
  <property name="kdenlive:clip_type">2</property>
  <property name="kdenlive:file_size">32339917</property>
  <property name="kdenlive:file_hash">a6f70cc739d80626c09d1d4c4fcb2e14</property>
  <property name="kdenlive:control_uuid">{93dbb784-251d-4080-99c9-21b3a905598c}</property>
 </producer>
 <chain id="chain61" out="00:01:44.333">
  <property name="length">2505</property>
  <property name="eof">pause</property>
  <property name="resource">C:/dev/workspace/indy/dist/room/intro/content/audio/rain.mp3</property>
  <property name="mlt_service">avformat</property>
  <property name="meta.media.nb_streams">1</property>
  <property name="meta.media.0.stream.type">audio</property>
  <property name="meta.media.0.codec.sample_fmt">fltp</property>
  <property name="meta.media.0.codec.sample_rate">44100</property>
  <property name="meta.media.0.codec.channels">2</property>
  <property name="meta.media.0.codec.layout">stereo</property>
  <property name="meta.media.0.codec.name">mp3float</property>
  <property name="meta.media.0.codec.long_name">MP3 (MPEG audio layer 3)</property>
  <property name="meta.media.0.codec.bit_rate">256000</property>
  <property name="seekable">1</property>
  <property name="audio_index">0</property>
  <property name="video_index">-1</property>
  <property name="astream">0</property>
  <property name="kdenlive:control_uuid">{cdccd62d-19cb-4632-a130-dc27efc7aab3}</property>
  <property name="kdenlive:id">18</property>
  <property name="kdenlive:clip_type">1</property>
  <property name="kdenlive:file_size">3339493</property>
  <property name="kdenlive:file_hash">88c51648872e5e4a4a4e5d3f220a7d84</property>
  <property name="kdenlive:folderid">4</property>
 </chain>
 <producer id="producer25" in="00:00:00.000" out="00:00:04.958">
  <property name="length">00:00:05.000</property>
  <property name="eof">pause</property>
  <property name="resource">C:/dev/workspace/indy/dist/room/attic/data/upscale/cross2.png</property>
  <property name="ttl">25</property>
  <property name="aspect_ratio">1</property>
  <property name="meta.media.progressive">1</property>
  <property name="seekable">1</property>
  <property name="format">1</property>
  <property name="meta.media.width">5824</property>
  <property name="meta.media.height">3264</property>
  <property name="mlt_service">qimage</property>
  <property name="kdenlive:clipname"/>
  <property name="kdenlive:duration">00:00:05.000</property>
  <property name="xml">was here</property>
  <property name="kdenlive:folderid">-1</property>
  <property name="kdenlive:id">19</property>
  <property name="kdenlive:clip_type">2</property>
  <property name="kdenlive:file_size">17673332</property>
  <property name="kdenlive:file_hash">a519f5cb3ba40b7c564547b0d3791793</property>
  <property name="kdenlive:control_uuid">{ce72356b-9664-4bc7-abf9-c91f275b0a63}</property>
 </producer>
 <chain id="chain62" out="00:00:03.000">
  <property name="length">73</property>
  <property name="eof">pause</property>
  <property name="resource">C:/dev/workspace/indy/dist/room/attic/content/audio/splash2.mp3</property>
  <property name="mlt_service">avformat</property>
  <property name="meta.media.nb_streams">1</property>
  <property name="meta.media.0.stream.type">audio</property>
  <property name="meta.media.0.codec.sample_fmt">fltp</property>
  <property name="meta.media.0.codec.sample_rate">44100</property>
  <property name="meta.media.0.codec.channels">2</property>
  <property name="meta.media.0.codec.layout">stereo</property>
  <property name="meta.media.0.codec.name">mp3float</property>
  <property name="meta.media.0.codec.long_name">MP3 (MPEG audio layer 3)</property>
  <property name="meta.media.0.codec.bit_rate">320000</property>
  <property name="seekable">1</property>
  <property name="audio_index">0</property>
  <property name="video_index">-1</property>
  <property name="astream">0</property>
  <property name="kdenlive:control_uuid">{8cfed3c7-3f36-4365-9ce5-620d89654764}</property>
  <property name="kdenlive:id">20</property>
  <property name="kdenlive:clip_type">1</property>
  <property name="kdenlive:file_size">122253</property>
  <property name="kdenlive:file_hash">8a78e8a526a6dee69ddf8924eac22dce</property>
  <property name="kdenlive:folderid">4</property>
 </chain>
 <producer id="producer27" in="00:00:00.000" out="00:00:04.958">
  <property name="length">00:00:05.000</property>
  <property name="eof">pause</property>
  <property name="resource">C:/dev/workspace/indy/dist/room/attic/data/upscale/gargoyle3.png</property>
  <property name="ttl">25</property>
  <property name="aspect_ratio">1</property>
  <property name="meta.media.progressive">1</property>
  <property name="seekable">1</property>
  <property name="format">1</property>
  <property name="meta.media.width">5824</property>
  <property name="meta.media.height">3264</property>
  <property name="mlt_service">qimage</property>
  <property name="kdenlive:clipname"/>
  <property name="kdenlive:duration">00:00:05.000</property>
  <property name="xml">was here</property>
  <property name="kdenlive:folderid">-1</property>
  <property name="kdenlive:id">21</property>
  <property name="kdenlive:clip_type">2</property>
  <property name="kdenlive:file_size">15859650</property>
  <property name="kdenlive:file_hash">b18f899515b0f6bbb17625809194b4a9</property>
  <property name="kdenlive:control_uuid">{3247f34e-9b87-435f-8f72-d272b9733b22}</property>
 </producer>
 <producer id="producer28" in="00:00:00.000" out="00:00:04.958">
  <property name="length">00:00:05.000</property>
  <property name="eof">pause</property>
  <property name="resource">C:/dev/workspace/indy/dist/room/attic/data/upscale/attic.png</property>
  <property name="ttl">25</property>
  <property name="aspect_ratio">1</property>
  <property name="meta.media.progressive">1</property>
  <property name="seekable">1</property>
  <property name="format">1</property>
  <property name="meta.media.width">5824</property>
  <property name="meta.media.height">3264</property>
  <property name="mlt_service">qimage</property>
  <property name="kdenlive:clipname"/>
  <property name="kdenlive:duration">00:00:05.000</property>
  <property name="xml">was here</property>
  <property name="kdenlive:folderid">-1</property>
  <property name="kdenlive:id">22</property>
  <property name="kdenlive:clip_type">2</property>
  <property name="kdenlive:file_size">31139139</property>
  <property name="kdenlive:file_hash">2fce5a4d66ac1147ce0a08bdb5ffd2eb</property>
  <property name="kdenlive:control_uuid">{ec3f606d-592a-4121-8967-129369705f69}</property>
 </producer>
 <chain id="chain64" out="00:00:14.042">
  <property name="length">338</property>
  <property name="eof">pause</property>
  <property name="resource">C:/dev/workspace/indy/dist/room/attic/content/audio/step2.mp4</property>
  <property name="mlt_service">avformat-novalidate</property>
  <property name="meta.media.nb_streams">2</property>
  <property name="meta.media.0.stream.type">video</property>
  <property name="meta.media.0.stream.frame_rate">30</property>
  <property name="meta.media.0.stream.sample_aspect_ratio">0</property>
  <property name="meta.media.0.codec.width">1280</property>
  <property name="meta.media.0.codec.height">720</property>
  <property name="meta.media.0.codec.rotate">0</property>
  <property name="meta.media.0.codec.pix_fmt">yuv420p</property>
  <property name="meta.media.0.codec.sample_aspect_ratio">0</property>
  <property name="meta.media.0.codec.colorspace">709</property>
  <property name="meta.media.0.codec.name">h264</property>
  <property name="meta.media.0.codec.long_name">H.264 / AVC / MPEG-4 AVC / MPEG-4 part 10</property>
  <property name="meta.media.0.codec.bit_rate">1952151</property>
  <property name="meta.attr.0.stream.handler_name.markup">VideoHandler</property>
  <property name="meta.attr.0.stream.vendor_id.markup">[0][0][0][0]</property>
  <property name="meta.attr.0.stream.encoder.markup">Lavc59.37.100 libx264</property>
  <property name="meta.media.1.stream.type">audio</property>
  <property name="meta.media.1.codec.sample_fmt">fltp</property>
  <property name="meta.media.1.codec.sample_rate">44100</property>
  <property name="meta.media.1.codec.channels">2</property>
  <property name="meta.media.1.codec.layout">stereo</property>
  <property name="meta.media.1.codec.name">aac</property>
  <property name="meta.media.1.codec.long_name">AAC (Advanced Audio Coding)</property>
  <property name="meta.media.1.codec.bit_rate">127730</property>
  <property name="meta.attr.1.stream.handler_name.markup">SoundHandler</property>
  <property name="meta.attr.1.stream.vendor_id.markup">[0][0][0][0]</property>
  <property name="meta.attr.major_brand.markup">isom</property>
  <property name="meta.attr.minor_version.markup">512</property>
  <property name="meta.attr.compatible_brands.markup">isomiso2avc1mp41</property>
  <property name="meta.attr.encoder.markup">Lavf59.27.100</property>
  <property name="seekable">1</property>
  <property name="meta.media.sample_aspect_num">1</property>
  <property name="meta.media.sample_aspect_den">1</property>
  <property name="audio_index">1</property>
  <property name="video_index">0</property>
  <property name="vstream">0</property>
  <property name="meta.media.frame_rate_num">30</property>
  <property name="meta.media.frame_rate_den">1</property>
  <property name="meta.media.colorspace">709</property>
  <property name="meta.media.color_trc">2</property>
  <property name="meta.media.has_b_frames">2</property>
  <property name="meta.media.width">1280</property>
  <property name="meta.media.height">720</property>
  <property name="meta.media.aspect_ratio">1</property>
  <property name="meta.media.color_range">mpeg</property>
  <property name="astream">0</property>
  <property name="meta.media.top_field_first">0</property>
  <property name="meta.media.progressive">1</property>
  <property name="kdenlive:control_uuid">{05a85b7c-9aa7-491b-ba8b-0dccc44eb205}</property>
  <property name="kdenlive:id">23</property>
  <property name="kdenlive:clip_type">0</property>
  <property name="kdenlive:file_size">3631982</property>
  <property name="kdenlive:file_hash">c1c55660fe4c92c03ffeecc1ef93ab83</property>
  <property name="kdenlive:folderid">4</property>
  <property name="mute_on_pause">0</property>
 </chain>
 <chain id="chain67" out="00:00:14.042">
  <property name="length">338</property>
  <property name="eof">pause</property>
  <property name="resource">C:/dev/workspace/indy/dist/room/attic/content/upscale/attic11.mp4</property>
  <property name="mlt_service">avformat-novalidate</property>
  <property name="meta.media.nb_streams">1</property>
  <property name="meta.media.0.stream.type">video</property>
  <property name="meta.media.0.stream.frame_rate">60</property>
  <property name="meta.media.0.stream.sample_aspect_ratio">0</property>
  <property name="meta.media.0.codec.width">3840</property>
  <property name="meta.media.0.codec.height">2160</property>
  <property name="meta.media.0.codec.rotate">0</property>
  <property name="meta.media.0.codec.pix_fmt">yuv444p</property>
  <property name="meta.media.0.codec.sample_aspect_ratio">0</property>
  <property name="meta.media.0.codec.colorspace">709</property>
  <property name="meta.media.0.codec.name">h264</property>
  <property name="meta.media.0.codec.long_name">H.264 / AVC / MPEG-4 AVC / MPEG-4 part 10</property>
  <property name="meta.media.0.codec.bit_rate">31324053</property>
  <property name="meta.attr.0.stream.handler_name.markup">VideoHandler</property>
  <property name="meta.attr.0.stream.vendor_id.markup">[0][0][0][0]</property>
  <property name="meta.attr.0.stream.encoder.markup">Lavc61.19.101 libx264</property>
  <property name="meta.attr.minor_version.markup">512</property>
  <property name="meta.attr.major_brand.markup">isom</property>
  <property name="meta.attr.compatible_brands.markup">isomiso2avc1mp41</property>
  <property name="meta.attr.encoder.markup">Lavf61.9.100</property>
  <property name="seekable">1</property>
  <property name="meta.media.sample_aspect_num">1</property>
  <property name="meta.media.sample_aspect_den">1</property>
  <property name="audio_index">-1</property>
  <property name="video_index">0</property>
  <property name="vstream">0</property>
  <property name="meta.media.frame_rate_num">60</property>
  <property name="meta.media.frame_rate_den">1</property>
  <property name="meta.media.colorspace">709</property>
  <property name="meta.media.color_trc">2</property>
  <property name="meta.media.has_b_frames">2</property>
  <property name="meta.media.width">3840</property>
  <property name="meta.media.height">2160</property>
  <property name="meta.media.aspect_ratio">1</property>
  <property name="meta.media.color_range">mpeg</property>
  <property name="meta.media.top_field_first">0</property>
  <property name="meta.media.progressive">1</property>
  <property name="kdenlive:control_uuid">{39dbe2a6-41a1-4f0c-8d0f-71be3ea69946}</property>
  <property name="kdenlive:id">24</property>
  <property name="kdenlive:clip_type">2</property>
  <property name="kdenlive:file_size">55220516</property>
  <property name="kdenlive:file_hash">54379de5fb6d35007c3273e256f13538</property>
  <property name="kdenlive:folderid">4</property>
  <property name="mute_on_pause">0</property>
 </chain>
 <chain id="chain69" out="00:00:05.042">
  <property name="length">122</property>
  <property name="eof">pause</property>
  <property name="resource">C:/dev/workspace/indy/dist/room/attic/content/upscale/cross7.mp4</property>
  <property name="mlt_service">avformat-novalidate</property>
  <property name="meta.media.nb_streams">1</property>
  <property name="meta.media.0.stream.type">video</property>
  <property name="meta.media.0.stream.frame_rate">60</property>
  <property name="meta.media.0.stream.sample_aspect_ratio">0</property>
  <property name="meta.media.0.codec.width">3840</property>
  <property name="meta.media.0.codec.height">2160</property>
  <property name="meta.media.0.codec.rotate">0</property>
  <property name="meta.media.0.codec.pix_fmt">yuv444p</property>
  <property name="meta.media.0.codec.sample_aspect_ratio">0</property>
  <property name="meta.media.0.codec.colorspace">709</property>
  <property name="meta.media.0.codec.name">h264</property>
  <property name="meta.media.0.codec.long_name">H.264 / AVC / MPEG-4 AVC / MPEG-4 part 10</property>
  <property name="meta.media.0.codec.bit_rate">26151796</property>
  <property name="meta.attr.0.stream.handler_name.markup">VideoHandler</property>
  <property name="meta.attr.0.stream.vendor_id.markup">[0][0][0][0]</property>
  <property name="meta.attr.0.stream.encoder.markup">Lavc61.19.101 libx264</property>
  <property name="meta.attr.minor_version.markup">512</property>
  <property name="meta.attr.major_brand.markup">isom</property>
  <property name="meta.attr.compatible_brands.markup">isomiso2avc1mp41</property>
  <property name="meta.attr.encoder.markup">Lavf61.9.100</property>
  <property name="seekable">1</property>
  <property name="meta.media.sample_aspect_num">1</property>
  <property name="meta.media.sample_aspect_den">1</property>
  <property name="audio_index">-1</property>
  <property name="video_index">0</property>
  <property name="vstream">0</property>
  <property name="meta.media.frame_rate_num">60</property>
  <property name="meta.media.frame_rate_den">1</property>
  <property name="meta.media.colorspace">709</property>
  <property name="meta.media.color_trc">2</property>
  <property name="meta.media.has_b_frames">2</property>
  <property name="meta.media.width">3840</property>
  <property name="meta.media.height">2160</property>
  <property name="meta.media.aspect_ratio">1</property>
  <property name="meta.media.color_range">mpeg</property>
  <property name="meta.media.top_field_first">0</property>
  <property name="meta.media.progressive">1</property>
  <property name="kdenlive:control_uuid">{71594a7b-c502-4a08-a166-bf2224dd3e7a}</property>
  <property name="kdenlive:id">25</property>
  <property name="kdenlive:clip_type">2</property>
  <property name="kdenlive:file_size">16676721</property>
  <property name="kdenlive:file_hash">b8f228d4f20ce1c83f77733bab4a687c</property>
  <property name="kdenlive:folderid">4</property>
  <property name="mute_on_pause">0</property>
 </chain>
 <chain id="chain68" out="00:00:09.542">
  <property name="length">230</property>
  <property name="eof">pause</property>
  <property name="resource">C:/dev/workspace/indy/dist/room/attic/content/upscale/gargoyle6.mp4</property>
  <property name="mlt_service">avformat-novalidate</property>
  <property name="meta.media.nb_streams">1</property>
  <property name="meta.media.0.stream.type">video</property>
  <property name="meta.media.0.stream.frame_rate">60</property>
  <property name="meta.media.0.stream.sample_aspect_ratio">0</property>
  <property name="meta.media.0.codec.width">3840</property>
  <property name="meta.media.0.codec.height">2160</property>
  <property name="meta.media.0.codec.rotate">0</property>
  <property name="meta.media.0.codec.pix_fmt">yuv444p</property>
  <property name="meta.media.0.codec.sample_aspect_ratio">0</property>
  <property name="meta.media.0.codec.colorspace">709</property>
  <property name="meta.media.0.codec.name">h264</property>
  <property name="meta.media.0.codec.long_name">H.264 / AVC / MPEG-4 AVC / MPEG-4 part 10</property>
  <property name="meta.media.0.codec.bit_rate">22369630</property>
  <property name="meta.attr.0.stream.handler_name.markup">VideoHandler</property>
  <property name="meta.attr.0.stream.vendor_id.markup">[0][0][0][0]</property>
  <property name="meta.attr.0.stream.encoder.markup">Lavc61.19.101 libx264</property>
  <property name="meta.attr.minor_version.markup">512</property>
  <property name="meta.attr.major_brand.markup">isom</property>
  <property name="meta.attr.compatible_brands.markup">isomiso2avc1mp41</property>
  <property name="meta.attr.encoder.markup">Lavf61.9.100</property>
  <property name="seekable">1</property>
  <property name="meta.media.sample_aspect_num">1</property>
  <property name="meta.media.sample_aspect_den">1</property>
  <property name="audio_index">-1</property>
  <property name="video_index">0</property>
  <property name="vstream">0</property>
  <property name="meta.media.frame_rate_num">60</property>
  <property name="meta.media.frame_rate_den">1</property>
  <property name="meta.media.colorspace">709</property>
  <property name="meta.media.color_trc">2</property>
  <property name="meta.media.has_b_frames">2</property>
  <property name="meta.media.width">3840</property>
  <property name="meta.media.height">2160</property>
  <property name="meta.media.aspect_ratio">1</property>
  <property name="meta.media.color_range">mpeg</property>
  <property name="meta.media.top_field_first">0</property>
  <property name="meta.media.progressive">1</property>
  <property name="kdenlive:control_uuid">{13dbe6ca-4333-4e67-a088-fc0091b70fe6}</property>
  <property name="kdenlive:id">26</property>
  <property name="kdenlive:clip_type">2</property>
  <property name="kdenlive:file_size">26851860</property>
  <property name="kdenlive:file_hash">f393253d63bf724f621b21d28fb7c1d6</property>
  <property name="kdenlive:folderid">4</property>
  <property name="mute_on_pause">0</property>
 </chain>
 <producer id="producer29" in="00:00:00.000" out="00:00:04.958">
  <property name="length">00:00:05.000</property>
  <property name="eof">pause</property>
  <property name="resource">C:/dev/workspace/indy/dist/room/attic/data/upscale/indy7.png</property>
  <property name="ttl">25</property>
  <property name="aspect_ratio">1</property>
  <property name="meta.media.progressive">1</property>
  <property name="seekable">1</property>
  <property name="format">1</property>
  <property name="meta.media.width">5824</property>
  <property name="meta.media.height">3264</property>
  <property name="mlt_service">qimage</property>
  <property name="kdenlive:clipname"/>
  <property name="kdenlive:duration">00:00:05.000</property>
  <property name="xml">was here</property>
  <property name="kdenlive:folderid">-1</property>
  <property name="kdenlive:id">27</property>
  <property name="kdenlive:clip_type">2</property>
  <property name="kdenlive:file_size">28637564</property>
  <property name="kdenlive:file_hash">3e4c616397aaa88ac2ee2a9d8474e518</property>
  <property name="kdenlive:control_uuid">{ff6fb9e1-f839-474d-be8f-93900222bf8e}</property>
 </producer>
 <chain id="chain71" out="00:00:05.042">
  <property name="length">122</property>
  <property name="eof">pause</property>
  <property name="resource">C:/dev/workspace/indy/dist/room/attic/content/upscale/attic12.mp4</property>
  <property name="mlt_service">avformat-novalidate</property>
  <property name="meta.media.nb_streams">1</property>
  <property name="meta.media.0.stream.type">video</property>
  <property name="meta.media.0.stream.frame_rate">60</property>
  <property name="meta.media.0.stream.sample_aspect_ratio">0</property>
  <property name="meta.media.0.codec.width">3840</property>
  <property name="meta.media.0.codec.height">2160</property>
  <property name="meta.media.0.codec.rotate">0</property>
  <property name="meta.media.0.codec.pix_fmt">yuv444p</property>
  <property name="meta.media.0.codec.sample_aspect_ratio">0</property>
  <property name="meta.media.0.codec.colorspace">709</property>
  <property name="meta.media.0.codec.name">h264</property>
  <property name="meta.media.0.codec.long_name">H.264 / AVC / MPEG-4 AVC / MPEG-4 part 10</property>
  <property name="meta.media.0.codec.bit_rate">19149596</property>
  <property name="meta.attr.0.stream.handler_name.markup">VideoHandler</property>
  <property name="meta.attr.0.stream.vendor_id.markup">[0][0][0][0]</property>
  <property name="meta.attr.0.stream.encoder.markup">Lavc61.19.101 libx264</property>
  <property name="meta.attr.minor_version.markup">512</property>
  <property name="meta.attr.major_brand.markup">isom</property>
  <property name="meta.attr.compatible_brands.markup">isomiso2avc1mp41</property>
  <property name="meta.attr.encoder.markup">Lavf61.9.100</property>
  <property name="seekable">1</property>
  <property name="meta.media.sample_aspect_num">1</property>
  <property name="meta.media.sample_aspect_den">1</property>
  <property name="audio_index">-1</property>
  <property name="video_index">0</property>
  <property name="vstream">0</property>
  <property name="meta.media.frame_rate_num">60</property>
  <property name="meta.media.frame_rate_den">1</property>
  <property name="meta.media.colorspace">709</property>
  <property name="meta.media.color_trc">2</property>
  <property name="meta.media.has_b_frames">2</property>
  <property name="meta.media.width">3840</property>
  <property name="meta.media.height">2160</property>
  <property name="meta.media.aspect_ratio">1</property>
  <property name="meta.media.color_range">mpeg</property>
  <property name="meta.media.top_field_first">0</property>
  <property name="meta.media.progressive">1</property>
  <property name="kdenlive:control_uuid">{7572f282-183b-44fe-a9f2-a3db2cbd2775}</property>
  <property name="kdenlive:id">28</property>
  <property name="kdenlive:clip_type">2</property>
  <property name="kdenlive:file_size">12212751</property>
  <property name="kdenlive:file_hash">65ec6cfb5f2e104a4576ed5c11718406</property>
  <property name="kdenlive:folderid">4</property>
  <property name="mute_on_pause">0</property>
 </chain>
 <producer id="producer20" in="00:00:00.000" out="00:00:04.958">
  <property name="length">00:00:05.000</property>
  <property name="eof">pause</property>
  <property name="resource">C:/dev/workspace/indy/dist/room/attic2/data/upscale/indy2.png</property>
  <property name="ttl">25</property>
  <property name="aspect_ratio">1</property>
  <property name="meta.media.progressive">1</property>
  <property name="seekable">1</property>
  <property name="format">1</property>
  <property name="meta.media.width">5824</property>
  <property name="meta.media.height">3264</property>
  <property name="mlt_service">qimage</property>
  <property name="kdenlive:clipname"/>
  <property name="kdenlive:duration">00:00:05.000</property>
  <property name="xml">was here</property>
  <property name="kdenlive:folderid">4</property>
  <property name="kdenlive:id">29</property>
  <property name="kdenlive:clip_type">2</property>
  <property name="kdenlive:file_size">31521218</property>
  <property name="kdenlive:file_hash">84333b03f35b540ca066e665c6b4f03c</property>
  <property name="kdenlive:control_uuid">{c94509cc-42f1-40d5-8040-b586f9f2227e}</property>
 </producer>
 <chain id="chain72" out="00:00:05.042">
  <property name="length">122</property>
  <property name="eof">pause</property>
  <property name="resource">C:/dev/workspace/indy/dist/room/attic2/content/upscale/indy.mp4</property>
  <property name="mlt_service">avformat-novalidate</property>
  <property name="meta.media.nb_streams">1</property>
  <property name="meta.media.0.stream.type">video</property>
  <property name="meta.media.0.stream.frame_rate">60</property>
  <property name="meta.media.0.stream.sample_aspect_ratio">0</property>
  <property name="meta.media.0.codec.width">3840</property>
  <property name="meta.media.0.codec.height">2160</property>
  <property name="meta.media.0.codec.rotate">0</property>
  <property name="meta.media.0.codec.pix_fmt">yuv444p</property>
  <property name="meta.media.0.codec.sample_aspect_ratio">0</property>
  <property name="meta.media.0.codec.colorspace">709</property>
  <property name="meta.media.0.codec.name">h264</property>
  <property name="meta.media.0.codec.long_name">H.264 / AVC / MPEG-4 AVC / MPEG-4 part 10</property>
  <property name="meta.media.0.codec.bit_rate">24088795</property>
  <property name="meta.attr.0.stream.handler_name.markup">VideoHandler</property>
  <property name="meta.attr.0.stream.vendor_id.markup">[0][0][0][0]</property>
  <property name="meta.attr.0.stream.encoder.markup">Lavc61.19.101 libx264</property>
  <property name="meta.attr.minor_version.markup">512</property>
  <property name="meta.attr.major_brand.markup">isom</property>
  <property name="meta.attr.compatible_brands.markup">isomiso2avc1mp41</property>
  <property name="meta.attr.encoder.markup">Lavf61.9.100</property>
  <property name="seekable">1</property>
  <property name="meta.media.sample_aspect_num">1</property>
  <property name="meta.media.sample_aspect_den">1</property>
  <property name="audio_index">-1</property>
  <property name="video_index">0</property>
  <property name="vstream">0</property>
  <property name="meta.media.frame_rate_num">60</property>
  <property name="meta.media.frame_rate_den">1</property>
  <property name="meta.media.colorspace">709</property>
  <property name="meta.media.color_trc">2</property>
  <property name="meta.media.has_b_frames">2</property>
  <property name="meta.media.width">3840</property>
  <property name="meta.media.height">2160</property>
  <property name="meta.media.aspect_ratio">1</property>
  <property name="meta.media.color_range">mpeg</property>
  <property name="meta.media.top_field_first">0</property>
  <property name="meta.media.progressive">1</property>
  <property name="kdenlive:control_uuid">{95143fde-b306-4947-be1b-a56f8dd316f0}</property>
  <property name="kdenlive:id">30</property>
  <property name="kdenlive:clip_type">2</property>
  <property name="kdenlive:file_size">15361542</property>
  <property name="kdenlive:file_hash">56ca686ab9ca25016bdd3a6b935f41b0</property>
  <property name="kdenlive:folderid">4</property>
  <property name="mute_on_pause">0</property>
 </chain>
 <chain id="chain70" out="00:03:11.125">
  <property name="length">4588</property>
  <property name="eof">pause</property>
  <property name="resource">C:/dev/workspace/indy/dist/room/attic/content/music/extra/attic.webm</property>
  <property name="mlt_service">avformat</property>
  <property name="meta.media.nb_streams">1</property>
  <property name="meta.media.0.stream.type">audio</property>
  <property name="meta.media.0.codec.sample_fmt">fltp</property>
  <property name="meta.media.0.codec.sample_rate">48000</property>
  <property name="meta.media.0.codec.channels">2</property>
  <property name="meta.media.0.codec.layout">stereo</property>
  <property name="meta.media.0.codec.name">opus</property>
  <property name="meta.media.0.codec.long_name">Opus</property>
  <property name="meta.media.0.codec.bit_rate">0</property>
  <property name="meta.attr.0.stream.language.markup">eng</property>
  <property name="meta.attr.encoder.markup">google/video-file</property>
  <property name="seekable">1</property>
  <property name="audio_index">0</property>
  <property name="video_index">-1</property>
  <property name="astream">0</property>
  <property name="kdenlive:control_uuid">{fcab071a-b04e-4b7d-94fa-17fc28a6a1e1}</property>
  <property name="kdenlive:id">31</property>
  <property name="kdenlive:clip_type">1</property>
  <property name="kdenlive:file_size">3420074</property>
  <property name="kdenlive:file_hash">029e4f8308d83085556e81b95e7c3d37</property>
  <property name="kdenlive:folderid">4</property>
 </chain>
 <chain id="chain73" out="00:00:05.042">
  <property name="length">122</property>
  <property name="eof">pause</property>
  <property name="resource">C:/dev/workspace/indy/dist/room/attic/content/upscale/attic20.mp4</property>
  <property name="mlt_service">avformat-novalidate</property>
  <property name="meta.media.nb_streams">1</property>
  <property name="meta.media.0.stream.type">video</property>
  <property name="meta.media.0.stream.frame_rate">60</property>
  <property name="meta.media.0.stream.sample_aspect_ratio">0</property>
  <property name="meta.media.0.codec.width">3840</property>
  <property name="meta.media.0.codec.height">2160</property>
  <property name="meta.media.0.codec.rotate">0</property>
  <property name="meta.media.0.codec.pix_fmt">yuv444p</property>
  <property name="meta.media.0.codec.sample_aspect_ratio">0</property>
  <property name="meta.media.0.codec.colorspace">709</property>
  <property name="meta.media.0.codec.name">h264</property>
  <property name="meta.media.0.codec.long_name">H.264 / AVC / MPEG-4 AVC / MPEG-4 part 10</property>
  <property name="meta.media.0.codec.bit_rate">28719658</property>
  <property name="meta.attr.0.stream.handler_name.markup">VideoHandler</property>
  <property name="meta.attr.0.stream.vendor_id.markup">[0][0][0][0]</property>
  <property name="meta.attr.0.stream.encoder.markup">Lavc61.19.101 libx264</property>
  <property name="meta.attr.minor_version.markup">512</property>
  <property name="meta.attr.major_brand.markup">isom</property>
  <property name="meta.attr.compatible_brands.markup">isomiso2avc1mp41</property>
  <property name="meta.attr.encoder.markup">Lavf61.9.100</property>
  <property name="seekable">1</property>
  <property name="meta.media.sample_aspect_num">1</property>
  <property name="meta.media.sample_aspect_den">1</property>
  <property name="audio_index">-1</property>
  <property name="video_index">0</property>
  <property name="vstream">0</property>
  <property name="meta.media.frame_rate_num">60</property>
  <property name="meta.media.frame_rate_den">1</property>
  <property name="meta.media.colorspace">709</property>
  <property name="meta.media.color_trc">2</property>
  <property name="meta.media.has_b_frames">2</property>
  <property name="meta.media.width">3840</property>
  <property name="meta.media.height">2160</property>
  <property name="meta.media.aspect_ratio">1</property>
  <property name="meta.media.color_range">mpeg</property>
  <property name="meta.media.top_field_first">0</property>
  <property name="meta.media.progressive">1</property>
  <property name="kdenlive:control_uuid">{a7e7d69e-cdbe-44ac-a669-c29e195e17b8}</property>
  <property name="kdenlive:id">32</property>
  <property name="kdenlive:clip_type">2</property>
  <property name="kdenlive:file_size">18313745</property>
  <property name="kdenlive:file_hash">2b52ff0a8760bb68787e98a4f18023c4</property>
  <property name="kdenlive:folderid">4</property>
  <property name="mute_on_pause">0</property>
 </chain>
 <producer id="producer30" in="00:00:00.000" out="00:00:04.958">
  <property name="length">00:00:05.000</property>
  <property name="eof">pause</property>
  <property name="resource">C:/dev/workspace/indy/dist/room/attic2/data/upscale/attic.png</property>
  <property name="ttl">25</property>
  <property name="aspect_ratio">1</property>
  <property name="meta.media.progressive">1</property>
  <property name="seekable">1</property>
  <property name="format">1</property>
  <property name="meta.media.width">5824</property>
  <property name="meta.media.height">3264</property>
  <property name="mlt_service">qimage</property>
  <property name="kdenlive:clipname"/>
  <property name="kdenlive:duration">00:00:05.000</property>
  <property name="xml">was here</property>
  <property name="kdenlive:folderid">-1</property>
  <property name="kdenlive:id">33</property>
  <property name="kdenlive:clip_type">2</property>
  <property name="kdenlive:file_size">27380844</property>
  <property name="kdenlive:file_hash">de3c542765fcd8cac76117873710d50a</property>
  <property name="kdenlive:control_uuid">{0fc3a943-faef-49f0-8741-dbade69c1039}</property>
 </producer>
 <chain id="chain76" out="00:00:04.625">
  <property name="length">112</property>
  <property name="eof">pause</property>
  <property name="resource">C:/dev/workspace/indy/dist/room/attic2/content/upscale/indy4.mp4</property>
  <property name="mlt_service">avformat-novalidate</property>
  <property name="meta.media.nb_streams">1</property>
  <property name="meta.media.0.stream.type">video</property>
  <property name="meta.media.0.stream.frame_rate">48</property>
  <property name="meta.media.0.stream.sample_aspect_ratio">0</property>
  <property name="meta.media.0.codec.width">3840</property>
  <property name="meta.media.0.codec.height">2160</property>
  <property name="meta.media.0.codec.rotate">0</property>
  <property name="meta.media.0.codec.pix_fmt">yuv444p</property>
  <property name="meta.media.0.codec.sample_aspect_ratio">0</property>
  <property name="meta.media.0.codec.colorspace">709</property>
  <property name="meta.media.0.codec.name">h264</property>
  <property name="meta.media.0.codec.long_name">H.264 / AVC / MPEG-4 AVC / MPEG-4 part 10</property>
  <property name="meta.media.0.codec.bit_rate">41180501</property>
  <property name="meta.attr.0.stream.handler_name.markup">VideoHandler</property>
  <property name="meta.attr.0.stream.vendor_id.markup">[0][0][0][0]</property>
  <property name="meta.attr.0.stream.encoder.markup">Lavc61.19.101 libx264</property>
  <property name="meta.attr.minor_version.markup">512</property>
  <property name="meta.attr.major_brand.markup">isom</property>
  <property name="meta.attr.compatible_brands.markup">isomiso2avc1mp41</property>
  <property name="meta.attr.encoder.markup">Lavf61.9.100</property>
  <property name="seekable">1</property>
  <property name="meta.media.sample_aspect_num">1</property>
  <property name="meta.media.sample_aspect_den">1</property>
  <property name="audio_index">-1</property>
  <property name="video_index">0</property>
  <property name="vstream">0</property>
  <property name="meta.media.frame_rate_num">48</property>
  <property name="meta.media.frame_rate_den">1</property>
  <property name="meta.media.colorspace">709</property>
  <property name="meta.media.color_trc">2</property>
  <property name="meta.media.has_b_frames">2</property>
  <property name="meta.media.width">3840</property>
  <property name="meta.media.height">2160</property>
  <property name="meta.media.aspect_ratio">1</property>
  <property name="meta.media.color_range">mpeg</property>
  <property name="meta.media.top_field_first">0</property>
  <property name="meta.media.progressive">1</property>
  <property name="kdenlive:control_uuid">{aa77de68-239d-464d-8544-f8d3d47c7cf6}</property>
  <property name="kdenlive:id">34</property>
  <property name="kdenlive:clip_type">2</property>
  <property name="kdenlive:file_size">24025938</property>
  <property name="kdenlive:file_hash">f9508e783b0fad8e4c05673da9f22a40</property>
  <property name="kdenlive:folderid">4</property>
  <property name="mute_on_pause">0</property>
 </chain>
 <producer id="producer31" in="00:00:00.000" out="00:00:04.958">
  <property name="length">00:00:05.000</property>
  <property name="eof">pause</property>
  <property name="resource">C:/dev/workspace/indy/dist/room/attic2/data/upscale/indy3.png</property>
  <property name="ttl">25</property>
  <property name="aspect_ratio">1</property>
  <property name="meta.media.progressive">1</property>
  <property name="seekable">1</property>
  <property name="format">1</property>
  <property name="meta.media.width">5824</property>
  <property name="meta.media.height">3264</property>
  <property name="mlt_service">qimage</property>
  <property name="kdenlive:clipname"/>
  <property name="kdenlive:duration">00:00:05.000</property>
  <property name="xml">was here</property>
  <property name="kdenlive:folderid">-1</property>
  <property name="kdenlive:id">35</property>
  <property name="kdenlive:clip_type">2</property>
  <property name="kdenlive:file_size">27240362</property>
  <property name="kdenlive:file_hash">ec3f16cc48f8c03a64ee772451336dec</property>
  <property name="kdenlive:control_uuid">{7cf43924-acff-47aa-88d3-e1f2d5e1a9a7}</property>
 </producer>
 <chain id="chain98" out="00:00:05.042">
  <property name="length">122</property>
  <property name="eof">pause</property>
  <property name="resource">C:/dev/workspace/indy/dist/room/attic2/content/upscale/indy6.mp4</property>
  <property name="mlt_service">avformat-novalidate</property>
  <property name="meta.media.nb_streams">1</property>
  <property name="meta.media.0.stream.type">video</property>
  <property name="meta.media.0.stream.frame_rate">60</property>
  <property name="meta.media.0.stream.sample_aspect_ratio">0</property>
  <property name="meta.media.0.codec.width">3840</property>
  <property name="meta.media.0.codec.height">2160</property>
  <property name="meta.media.0.codec.rotate">0</property>
  <property name="meta.media.0.codec.pix_fmt">yuv444p</property>
  <property name="meta.media.0.codec.sample_aspect_ratio">0</property>
  <property name="meta.media.0.codec.colorspace">709</property>
  <property name="meta.media.0.codec.name">h264</property>
  <property name="meta.media.0.codec.long_name">H.264 / AVC / MPEG-4 AVC / MPEG-4 part 10</property>
  <property name="meta.media.0.codec.bit_rate">27302487</property>
  <property name="meta.attr.0.stream.handler_name.markup">VideoHandler</property>
  <property name="meta.attr.0.stream.vendor_id.markup">[0][0][0][0]</property>
  <property name="meta.attr.0.stream.encoder.markup">Lavc61.19.101 libx264</property>
  <property name="meta.attr.minor_version.markup">512</property>
  <property name="meta.attr.major_brand.markup">isom</property>
  <property name="meta.attr.compatible_brands.markup">isomiso2avc1mp41</property>
  <property name="meta.attr.encoder.markup">Lavf61.9.100</property>
  <property name="seekable">1</property>
  <property name="meta.media.sample_aspect_num">1</property>
  <property name="meta.media.sample_aspect_den">1</property>
  <property name="audio_index">-1</property>
  <property name="video_index">0</property>
  <property name="vstream">0</property>
  <property name="meta.media.frame_rate_num">60</property>
  <property name="meta.media.frame_rate_den">1</property>
  <property name="meta.media.colorspace">709</property>
  <property name="meta.media.color_trc">2</property>
  <property name="meta.media.has_b_frames">2</property>
  <property name="meta.media.width">3840</property>
  <property name="meta.media.height">2160</property>
  <property name="meta.media.aspect_ratio">1</property>
  <property name="meta.media.color_range">mpeg</property>
  <property name="meta.media.top_field_first">0</property>
  <property name="meta.media.progressive">1</property>
  <property name="kdenlive:control_uuid">{6e11a6a9-cb8a-4522-9645-f691d70b5e47}</property>
  <property name="kdenlive:id">36</property>
  <property name="kdenlive:clip_type">2</property>
  <property name="kdenlive:file_size">17410283</property>
  <property name="kdenlive:file_hash">e620a7cff7361829603e44380d0ee701</property>
  <property name="kdenlive:folderid">-1</property>
  <property name="mute_on_pause">0</property>
 </chain>
 <producer id="producer32" in="00:00:00.000" out="00:00:04.958">
  <property name="length">00:00:05.000</property>
  <property name="eof">pause</property>
  <property name="resource">C:/dev/workspace/indy/dist/room/chase/data/upscale/college2.png</property>
  <property name="ttl">25</property>
  <property name="aspect_ratio">1</property>
  <property name="meta.media.progressive">1</property>
  <property name="seekable">1</property>
  <property name="format">1</property>
  <property name="meta.media.width">5824</property>
  <property name="meta.media.height">3264</property>
  <property name="mlt_service">qimage</property>
  <property name="kdenlive:clipname"/>
  <property name="kdenlive:duration">00:00:05.000</property>
  <property name="xml">was here</property>
  <property name="kdenlive:folderid">-1</property>
  <property name="kdenlive:id">37</property>
  <property name="kdenlive:clip_type">2</property>
  <property name="kdenlive:file_size">34512541</property>
  <property name="kdenlive:file_hash">ab158eea0c351249832bfc9bca0062ba</property>
  <property name="kdenlive:control_uuid">{63436524-742f-42c1-a3d7-628336a1032a}</property>
  <property name="kdenlive:monitorPosition">0</property>
 </producer>
 <chain id="chain75" out="00:00:10.375">
  <property name="length">250</property>
  <property name="eof">pause</property>
  <property name="resource">C:/dev/workspace/indy/dist/room/chase/content/upscale/college4.mp4</property>
  <property name="mlt_service">avformat-novalidate</property>
  <property name="meta.media.nb_streams">1</property>
  <property name="meta.media.0.stream.type">video</property>
  <property name="meta.media.0.stream.frame_rate">60</property>
  <property name="meta.media.0.stream.sample_aspect_ratio">0</property>
  <property name="meta.media.0.codec.width">3840</property>
  <property name="meta.media.0.codec.height">2160</property>
  <property name="meta.media.0.codec.rotate">0</property>
  <property name="meta.media.0.codec.pix_fmt">yuv420p</property>
  <property name="meta.media.0.codec.sample_aspect_ratio">0</property>
  <property name="meta.media.0.codec.colorspace">709</property>
  <property name="meta.media.0.codec.name">hevc</property>
  <property name="meta.media.0.codec.long_name">HEVC (High Efficiency Video Coding)</property>
  <property name="meta.media.0.codec.bit_rate">69299527</property>
  <property name="meta.attr.0.stream.handler_name.markup">VideoHandler</property>
  <property name="meta.attr.0.stream.vendor_id.markup">[0][0][0][0]</property>
  <property name="meta.attr.0.stream.encoder.markup">Lavc61.19.101 libx265</property>
  <property name="meta.attr.minor_version.markup">512</property>
  <property name="meta.attr.major_brand.markup">isom</property>
  <property name="meta.attr.compatible_brands.markup">isomiso2mp41</property>
  <property name="meta.attr.encoder.markup">Lavf62.0.102</property>
  <property name="seekable">1</property>
  <property name="meta.media.sample_aspect_num">1</property>
  <property name="meta.media.sample_aspect_den">1</property>
  <property name="audio_index">-1</property>
  <property name="video_index">0</property>
  <property name="vstream">0</property>
  <property name="meta.media.frame_rate_num">60</property>
  <property name="meta.media.frame_rate_den">1</property>
  <property name="meta.media.colorspace">709</property>
  <property name="meta.media.color_trc">2</property>
  <property name="meta.media.has_b_frames">2</property>
  <property name="meta.media.width">3840</property>
  <property name="meta.media.height">2160</property>
  <property name="meta.media.aspect_ratio">1</property>
  <property name="meta.media.color_range">mpeg</property>
  <property name="meta.media.top_field_first">0</property>
  <property name="meta.media.progressive">1</property>
  <property name="kdenlive:control_uuid">{fea74bcb-f56a-414f-812a-fc621b1cec6a}</property>
  <property name="kdenlive:id">38</property>
  <property name="kdenlive:clip_type">2</property>
  <property name="kdenlive:file_size">90390650</property>
  <property name="kdenlive:file_hash">e8c4063801c8b1a9d8dd1846d769161b</property>
  <property name="kdenlive:folderid">4</property>
  <property name="mute_on_pause">0</property>
 </chain>
 <chain id="chain74" out="00:00:15.167">
  <property name="length">365</property>
  <property name="eof">pause</property>
  <property name="resource">C:/dev/workspace/indy/dist/room/chase/content/audio/fire.mp3</property>
  <property name="mlt_service">avformat</property>
  <property name="meta.media.nb_streams">1</property>
  <property name="meta.media.0.stream.type">audio</property>
  <property name="meta.media.0.codec.sample_fmt">fltp</property>
  <property name="meta.media.0.codec.sample_rate">44100</property>
  <property name="meta.media.0.codec.channels">2</property>
  <property name="meta.media.0.codec.layout">stereo</property>
  <property name="meta.media.0.codec.name">mp3float</property>
  <property name="meta.media.0.codec.long_name">MP3 (MPEG audio layer 3)</property>
  <property name="meta.media.0.codec.bit_rate">256000</property>
  <property name="seekable">1</property>
  <property name="audio_index">0</property>
  <property name="video_index">-1</property>
  <property name="astream">0</property>
  <property name="kdenlive:control_uuid">{89b58955-0f12-43c0-81d2-95fcf017f554}</property>
  <property name="kdenlive:id">39</property>
  <property name="kdenlive:clip_type">1</property>
  <property name="kdenlive:file_size">486504</property>
  <property name="kdenlive:file_hash">ad89feba011006b7f4b7a2d2799aec1b</property>
  <property name="kdenlive:folderid">4</property>
 </chain>
 <producer id="producer33" in="00:00:00.000" out="00:00:04.958">
  <property name="length">00:00:05.000</property>
  <property name="eof">pause</property>
  <property name="resource">C:/dev/workspace/indy/dist/room/chase/data/upscale/college.png</property>
  <property name="ttl">25</property>
  <property name="aspect_ratio">1</property>
  <property name="meta.media.progressive">1</property>
  <property name="seekable">1</property>
  <property name="format">1</property>
  <property name="meta.media.width">5824</property>
  <property name="meta.media.height">3264</property>
  <property name="mlt_service">qimage</property>
  <property name="kdenlive:clipname"/>
  <property name="kdenlive:duration">00:00:05.000</property>
  <property name="xml">was here</property>
  <property name="kdenlive:folderid">-1</property>
  <property name="kdenlive:id">40</property>
  <property name="kdenlive:clip_type">2</property>
  <property name="kdenlive:file_size">28866233</property>
  <property name="kdenlive:file_hash">e2b0ab62e85c774e94d2aeff5f350b2e</property>
  <property name="kdenlive:control_uuid">{afe5b706-1ad5-48fb-a87c-4aba0a9f398c}</property>
 </producer>
 <chain id="chain77" out="00:00:05.042">
  <property name="length">122</property>
  <property name="eof">pause</property>
  <property name="resource">C:/dev/workspace/indy/dist/room/chase/content/upscale/college2.mp4</property>
  <property name="mlt_service">avformat-novalidate</property>
  <property name="meta.media.nb_streams">1</property>
  <property name="meta.media.0.stream.type">video</property>
  <property name="meta.media.0.stream.frame_rate">60</property>
  <property name="meta.media.0.stream.sample_aspect_ratio">0</property>
  <property name="meta.media.0.codec.width">3840</property>
  <property name="meta.media.0.codec.height">2160</property>
  <property name="meta.media.0.codec.rotate">0</property>
  <property name="meta.media.0.codec.pix_fmt">yuv420p</property>
  <property name="meta.media.0.codec.sample_aspect_ratio">0</property>
  <property name="meta.media.0.codec.colorspace">709</property>
  <property name="meta.media.0.codec.name">hevc</property>
  <property name="meta.media.0.codec.long_name">HEVC (High Efficiency Video Coding)</property>
  <property name="meta.media.0.codec.bit_rate">90305882</property>
  <property name="meta.attr.0.stream.handler_name.markup">VideoHandler</property>
  <property name="meta.attr.0.stream.vendor_id.markup">[0][0][0][0]</property>
  <property name="meta.attr.0.stream.encoder.markup">Lavc61.19.101 libx265</property>
  <property name="meta.attr.minor_version.markup">512</property>
  <property name="meta.attr.major_brand.markup">isom</property>
  <property name="meta.attr.compatible_brands.markup">isomiso2mp41</property>
  <property name="meta.attr.encoder.markup">Lavf62.0.102</property>
  <property name="seekable">1</property>
  <property name="meta.media.sample_aspect_num">1</property>
  <property name="meta.media.sample_aspect_den">1</property>
  <property name="audio_index">-1</property>
  <property name="video_index">0</property>
  <property name="vstream">0</property>
  <property name="meta.media.frame_rate_num">60</property>
  <property name="meta.media.frame_rate_den">1</property>
  <property name="meta.media.colorspace">709</property>
  <property name="meta.media.color_trc">2</property>
  <property name="meta.media.has_b_frames">2</property>
  <property name="meta.media.width">3840</property>
  <property name="meta.media.height">2160</property>
  <property name="meta.media.aspect_ratio">1</property>
  <property name="meta.media.color_range">mpeg</property>
  <property name="meta.media.top_field_first">0</property>
  <property name="meta.media.progressive">1</property>
  <property name="kdenlive:control_uuid">{0fe66d87-af90-4a81-a90b-1455468bd608}</property>
  <property name="kdenlive:id">41</property>
  <property name="kdenlive:clip_type">2</property>
  <property name="kdenlive:file_size">57577840</property>
  <property name="kdenlive:file_hash">4fb034a6cdd5aa6e4e6666c87fee6470</property>
  <property name="kdenlive:folderid">4</property>
  <property name="mute_on_pause">0</property>
 </chain>
 <chain id="chain78" out="00:03:31.167">
  <property name="length">5069</property>
  <property name="eof">pause</property>
  <property name="resource">C:/dev/workspace/indy/dist/room/chase/content/audio/bike.mp3</property>
  <property name="mlt_service">avformat</property>
  <property name="meta.media.nb_streams">1</property>
  <property name="meta.media.0.stream.type">audio</property>
  <property name="meta.media.0.codec.sample_fmt">fltp</property>
  <property name="meta.media.0.codec.sample_rate">44100</property>
  <property name="meta.media.0.codec.channels">1</property>
  <property name="meta.media.0.codec.layout">mono</property>
  <property name="meta.media.0.codec.name">mp3float</property>
  <property name="meta.media.0.codec.long_name">MP3 (MPEG audio layer 3)</property>
  <property name="meta.media.0.codec.bit_rate">256000</property>
  <property name="seekable">1</property>
  <property name="audio_index">0</property>
  <property name="video_index">-1</property>
  <property name="astream">0</property>
  <property name="kdenlive:control_uuid">{df31d7e1-7a89-4643-9726-9f9ea5b81835}</property>
  <property name="kdenlive:id">42</property>
  <property name="kdenlive:clip_type">1</property>
  <property name="kdenlive:file_size">6759235</property>
  <property name="kdenlive:file_hash">c4664a841663605d56f66c1936bee735</property>
  <property name="kdenlive:folderid">4</property>
 </chain>
 <chain id="chain84" out="00:00:05.042">
  <property name="length">122</property>
  <property name="eof">pause</property>
  <property name="resource">C:/dev/workspace/indy/dist/room/chase/content/upscale/college3.mp4</property>
  <property name="mlt_service">avformat-novalidate</property>
  <property name="meta.media.nb_streams">1</property>
  <property name="meta.media.0.stream.type">video</property>
  <property name="meta.media.0.stream.frame_rate">60</property>
  <property name="meta.media.0.stream.sample_aspect_ratio">0</property>
  <property name="meta.media.0.codec.width">3840</property>
  <property name="meta.media.0.codec.height">2160</property>
  <property name="meta.media.0.codec.rotate">0</property>
  <property name="meta.media.0.codec.pix_fmt">yuv420p</property>
  <property name="meta.media.0.codec.sample_aspect_ratio">0</property>
  <property name="meta.media.0.codec.colorspace">709</property>
  <property name="meta.media.0.codec.name">hevc</property>
  <property name="meta.media.0.codec.long_name">HEVC (High Efficiency Video Coding)</property>
  <property name="meta.media.0.codec.bit_rate">88529879</property>
  <property name="meta.attr.0.stream.handler_name.markup">VideoHandler</property>
  <property name="meta.attr.0.stream.vendor_id.markup">[0][0][0][0]</property>
  <property name="meta.attr.0.stream.encoder.markup">Lavc61.19.101 libx265</property>
  <property name="meta.attr.minor_version.markup">512</property>
  <property name="meta.attr.major_brand.markup">isom</property>
  <property name="meta.attr.compatible_brands.markup">isomiso2mp41</property>
  <property name="meta.attr.encoder.markup">Lavf62.0.102</property>
  <property name="seekable">1</property>
  <property name="meta.media.sample_aspect_num">1</property>
  <property name="meta.media.sample_aspect_den">1</property>
  <property name="audio_index">-1</property>
  <property name="video_index">0</property>
  <property name="vstream">0</property>
  <property name="meta.media.frame_rate_num">60</property>
  <property name="meta.media.frame_rate_den">1</property>
  <property name="meta.media.colorspace">709</property>
  <property name="meta.media.color_trc">2</property>
  <property name="meta.media.has_b_frames">2</property>
  <property name="meta.media.width">3840</property>
  <property name="meta.media.height">2160</property>
  <property name="meta.media.aspect_ratio">1</property>
  <property name="meta.media.color_range">mpeg</property>
  <property name="meta.media.top_field_first">0</property>
  <property name="meta.media.progressive">1</property>
  <property name="kdenlive:control_uuid">{b2b7ff7c-f1a9-4b76-bf20-e6f53b30c451}</property>
  <property name="kdenlive:id">43</property>
  <property name="kdenlive:clip_type">2</property>
  <property name="kdenlive:file_size">56445630</property>
  <property name="kdenlive:file_hash">854db7abb753f438492de3dd77223215</property>
  <property name="kdenlive:folderid">4</property>
  <property name="mute_on_pause">0</property>
 </chain>
 <producer id="producer34" in="00:00:00.000" out="00:00:04.958">
  <property name="length">00:00:05.000</property>
  <property name="eof">pause</property>
  <property name="resource">C:/dev/workspace/indy/dist/room/chase/data/upscale/interior2.png</property>
  <property name="ttl">25</property>
  <property name="aspect_ratio">1</property>
  <property name="meta.media.progressive">1</property>
  <property name="seekable">1</property>
  <property name="format">1</property>
  <property name="meta.media.width">5824</property>
  <property name="meta.media.height">3264</property>
  <property name="mlt_service">qimage</property>
  <property name="kdenlive:clipname"/>
  <property name="kdenlive:duration">00:00:05.000</property>
  <property name="xml">was here</property>
  <property name="kdenlive:folderid">-1</property>
  <property name="kdenlive:id">44</property>
  <property name="kdenlive:clip_type">2</property>
  <property name="kdenlive:file_size">25271842</property>
  <property name="kdenlive:file_hash">d85a83072241e686c78439b327c83cf4</property>
  <property name="kdenlive:control_uuid">{f4de0602-4de4-4c7a-a26d-2c6efcdade43}</property>
 </producer>
 <chain id="chain83" out="00:00:08.292">
  <property name="length">200</property>
  <property name="eof">pause</property>
  <property name="resource">C:/dev/workspace/indy/dist/room/chase/content/upscale/dialog.mp4</property>
  <property name="mlt_service">avformat-novalidate</property>
  <property name="meta.media.nb_streams">2</property>
  <property name="meta.media.0.stream.type">video</property>
  <property name="meta.media.0.stream.frame_rate">30</property>
  <property name="meta.media.0.stream.sample_aspect_ratio">0</property>
  <property name="meta.media.0.codec.width">3840</property>
  <property name="meta.media.0.codec.height">2160</property>
  <property name="meta.media.0.codec.rotate">0</property>
  <property name="meta.media.0.codec.pix_fmt">yuv420p</property>
  <property name="meta.media.0.codec.sample_aspect_ratio">0</property>
  <property name="meta.media.0.codec.colorspace">709</property>
  <property name="meta.media.0.codec.name">hevc</property>
  <property name="meta.media.0.codec.long_name">HEVC (High Efficiency Video Coding)</property>
  <property name="meta.media.0.codec.bit_rate">30124176</property>
  <property name="meta.attr.0.stream.handler_name.markup">VideoHandler</property>
  <property name="meta.attr.0.stream.vendor_id.markup">[0][0][0][0]</property>
  <property name="meta.attr.0.stream.encoder.markup">Lavc61.19.101 libx265</property>
  <property name="meta.media.1.stream.type">audio</property>
  <property name="meta.media.1.codec.sample_fmt">fltp</property>
  <property name="meta.media.1.codec.sample_rate">48000</property>
  <property name="meta.media.1.codec.channels">2</property>
  <property name="meta.media.1.codec.layout">stereo</property>
  <property name="meta.media.1.codec.name">aac</property>
  <property name="meta.media.1.codec.long_name">AAC (Advanced Audio Coding)</property>
  <property name="meta.media.1.codec.bit_rate">130299</property>
  <property name="meta.attr.1.stream.handler_name.markup">SoundHandler</property>
  <property name="meta.attr.1.stream.vendor_id.markup">[0][0][0][0]</property>
  <property name="meta.attr.minor_version.markup">512</property>
  <property name="meta.attr.major_brand.markup">isom</property>
  <property name="meta.attr.compatible_brands.markup">isomiso2mp41</property>
  <property name="meta.attr.encoder.markup">Lavf62.0.102</property>
  <property name="seekable">1</property>
  <property name="meta.media.sample_aspect_num">1</property>
  <property name="meta.media.sample_aspect_den">1</property>
  <property name="audio_index">1</property>
  <property name="video_index">0</property>
  <property name="vstream">0</property>
  <property name="meta.media.frame_rate_num">30</property>
  <property name="meta.media.frame_rate_den">1</property>
  <property name="meta.media.colorspace">709</property>
  <property name="meta.media.color_trc">2</property>
  <property name="meta.media.has_b_frames">2</property>
  <property name="meta.media.width">3840</property>
  <property name="meta.media.height">2160</property>
  <property name="meta.media.aspect_ratio">1</property>
  <property name="meta.media.color_range">mpeg</property>
  <property name="astream">0</property>
  <property name="meta.media.top_field_first">0</property>
  <property name="meta.media.progressive">1</property>
  <property name="kdenlive:control_uuid">{3fd1eed3-c9f3-4e28-b226-f74d2b5144bb}</property>
  <property name="kdenlive:id">45</property>
  <property name="kdenlive:clip_type">2</property>
  <property name="kdenlive:file_size">31528630</property>
  <property name="kdenlive:file_hash">8cdd88a8d6684fb4ecf65ad8261dbcb8</property>
  <property name="kdenlive:folderid">4</property>
  <property name="mute_on_pause">0</property>
 </chain>
 <chain id="chain79" out="00:00:03.167">
  <property name="length">77</property>
  <property name="eof">pause</property>
  <property name="resource">C:/dev/workspace/indy/dist/room/chase/content/voice/chase2.mp3</property>
  <property name="mlt_service">avformat</property>
  <property name="meta.media.nb_streams">1</property>
  <property name="meta.media.0.stream.type">audio</property>
  <property name="meta.media.0.codec.sample_fmt">fltp</property>
  <property name="meta.media.0.codec.sample_rate">44100</property>
  <property name="meta.media.0.codec.channels">1</property>
  <property name="meta.media.0.codec.layout">mono</property>
  <property name="meta.media.0.codec.name">mp3float</property>
  <property name="meta.media.0.codec.long_name">MP3 (MPEG audio layer 3)</property>
  <property name="meta.media.0.codec.bit_rate">64000</property>
  <property name="meta.attr.encoder.markup">Lavf61.1.100</property>
  <property name="seekable">1</property>
  <property name="audio_index">0</property>
  <property name="video_index">-1</property>
  <property name="astream">0</property>
  <property name="kdenlive:control_uuid">{a65441ca-decd-417b-a5e5-2d74cba61ed2}</property>
  <property name="kdenlive:id">46</property>
  <property name="kdenlive:clip_type">1</property>
  <property name="kdenlive:file_size">25930</property>
  <property name="kdenlive:file_hash">d1f88924c9967e500dd2edb108a2a91c</property>
  <property name="kdenlive:folderid">4</property>
 </chain>
 <chain id="chain80" out="00:00:03.625">
  <property name="length">88</property>
  <property name="eof">pause</property>
  <property name="resource">C:/dev/workspace/indy/dist/room/chase/content/voice/chase.mp3</property>
  <property name="mlt_service">avformat</property>
  <property name="meta.media.nb_streams">1</property>
  <property name="meta.media.0.stream.type">audio</property>
  <property name="meta.media.0.codec.sample_fmt">fltp</property>
  <property name="meta.media.0.codec.sample_rate">44100</property>
  <property name="meta.media.0.codec.channels">1</property>
  <property name="meta.media.0.codec.layout">mono</property>
  <property name="meta.media.0.codec.name">mp3float</property>
  <property name="meta.media.0.codec.long_name">MP3 (MPEG audio layer 3)</property>
  <property name="meta.media.0.codec.bit_rate">64000</property>
  <property name="meta.attr.encoder.markup">Lavf61.1.100</property>
  <property name="seekable">1</property>
  <property name="audio_index">0</property>
  <property name="video_index">-1</property>
  <property name="astream">0</property>
  <property name="kdenlive:control_uuid">{0b1f3561-d4ee-4bfa-8c03-99bf54d9f4fb}</property>
  <property name="kdenlive:id">47</property>
  <property name="kdenlive:clip_type">1</property>
  <property name="kdenlive:file_size">29692</property>
  <property name="kdenlive:file_hash">f2f8011546584a0a3f788f0b94ab74a7</property>
  <property name="kdenlive:folderid">4</property>
 </chain>
 <chain id="chain99" out="00:00:05.042">
  <property name="length">122</property>
  <property name="eof">pause</property>
  <property name="resource">C:/dev/workspace/indy/dist/room/chase/content/upscale/interior.mp4</property>
  <property name="mlt_service">avformat-novalidate</property>
  <property name="meta.media.nb_streams">1</property>
  <property name="meta.media.0.stream.type">video</property>
  <property name="meta.media.0.stream.frame_rate">30</property>
  <property name="meta.media.0.stream.sample_aspect_ratio">0</property>
  <property name="meta.media.0.codec.width">3840</property>
  <property name="meta.media.0.codec.height">2160</property>
  <property name="meta.media.0.codec.rotate">0</property>
  <property name="meta.media.0.codec.pix_fmt">yuv420p</property>
  <property name="meta.media.0.codec.sample_aspect_ratio">0</property>
  <property name="meta.media.0.codec.colorspace">709</property>
  <property name="meta.media.0.codec.name">hevc</property>
  <property name="meta.media.0.codec.long_name">HEVC (High Efficiency Video Coding)</property>
  <property name="meta.media.0.codec.bit_rate">32434825</property>
  <property name="meta.attr.0.stream.handler_name.markup">VideoHandler</property>
  <property name="meta.attr.0.stream.vendor_id.markup">[0][0][0][0]</property>
  <property name="meta.attr.0.stream.encoder.markup">Lavc61.19.101 libx265</property>
  <property name="meta.attr.minor_version.markup">512</property>
  <property name="meta.attr.major_brand.markup">isom</property>
  <property name="meta.attr.compatible_brands.markup">isomiso2mp41</property>
  <property name="meta.attr.encoder.markup">Lavf62.0.102</property>
  <property name="seekable">1</property>
  <property name="meta.media.sample_aspect_num">1</property>
  <property name="meta.media.sample_aspect_den">1</property>
  <property name="audio_index">-1</property>
  <property name="video_index">0</property>
  <property name="vstream">0</property>
  <property name="meta.media.frame_rate_num">30</property>
  <property name="meta.media.frame_rate_den">1</property>
  <property name="meta.media.colorspace">709</property>
  <property name="meta.media.color_trc">2</property>
  <property name="meta.media.has_b_frames">2</property>
  <property name="meta.media.width">3840</property>
  <property name="meta.media.height">2160</property>
  <property name="meta.media.aspect_ratio">1</property>
  <property name="meta.media.color_range">mpeg</property>
  <property name="meta.media.top_field_first">0</property>
  <property name="meta.media.progressive">1</property>
  <property name="kdenlive:control_uuid">{2dfdcdf7-f531-4022-a73f-e17eea551990}</property>
  <property name="kdenlive:id">48</property>
  <property name="kdenlive:clip_type">2</property>
  <property name="kdenlive:file_size">20682900</property>
  <property name="kdenlive:file_hash">52f68ca9a46ecffa2d1d806c31258a48</property>
  <property name="kdenlive:folderid">-1</property>
  <property name="mute_on_pause">0</property>
 </chain>
 <producer id="producer35" in="00:00:00.000" out="00:00:04.958">
  <property name="length">00:00:05.000</property>
  <property name="eof">pause</property>
  <property name="resource">C:/dev/workspace/indy/dist/room/chase/data/upscale/interior3.png</property>
  <property name="ttl">25</property>
  <property name="aspect_ratio">1</property>
  <property name="meta.media.progressive">1</property>
  <property name="seekable">1</property>
  <property name="format">1</property>
  <property name="meta.media.width">5824</property>
  <property name="meta.media.height">3264</property>
  <property name="mlt_service">qimage</property>
  <property name="kdenlive:clipname"/>
  <property name="kdenlive:duration">00:00:05.000</property>
  <property name="xml">was here</property>
  <property name="kdenlive:folderid">-1</property>
  <property name="kdenlive:id">49</property>
  <property name="kdenlive:clip_type">2</property>
  <property name="kdenlive:file_size">19325168</property>
  <property name="kdenlive:file_hash">5df7465e2bca872ce5ea3326f1598d2f</property>
  <property name="kdenlive:control_uuid">{016f014a-d15e-4886-9101-980eff524418}</property>
 </producer>
 <chain id="chain85" out="00:00:03.958">
  <property name="length">96</property>
  <property name="eof">pause</property>
  <property name="resource">C:/dev/workspace/indy/dist/room/chase/content/upscale/dialog2.mp4</property>
  <property name="mlt_service">avformat-novalidate</property>
  <property name="meta.media.nb_streams">2</property>
  <property name="meta.media.0.stream.type">video</property>
  <property name="meta.media.0.stream.frame_rate">30</property>
  <property name="meta.media.0.stream.sample_aspect_ratio">0</property>
  <property name="meta.media.0.codec.width">3840</property>
  <property name="meta.media.0.codec.height">2160</property>
  <property name="meta.media.0.codec.rotate">0</property>
  <property name="meta.media.0.codec.pix_fmt">yuv420p</property>
  <property name="meta.media.0.codec.sample_aspect_ratio">0</property>
  <property name="meta.media.0.codec.colorspace">709</property>
  <property name="meta.media.0.codec.name">hevc</property>
  <property name="meta.media.0.codec.long_name">HEVC (High Efficiency Video Coding)</property>
  <property name="meta.media.0.codec.bit_rate">34818166</property>
  <property name="meta.attr.0.stream.handler_name.markup">VideoHandler</property>
  <property name="meta.attr.0.stream.vendor_id.markup">[0][0][0][0]</property>
  <property name="meta.attr.0.stream.encoder.markup">Lavc61.19.101 libx265</property>
  <property name="meta.media.1.stream.type">audio</property>
  <property name="meta.media.1.codec.sample_fmt">fltp</property>
  <property name="meta.media.1.codec.sample_rate">48000</property>
  <property name="meta.media.1.codec.channels">2</property>
  <property name="meta.media.1.codec.layout">stereo</property>
  <property name="meta.media.1.codec.name">aac</property>
  <property name="meta.media.1.codec.long_name">AAC (Advanced Audio Coding)</property>
  <property name="meta.media.1.codec.bit_rate">130157</property>
  <property name="meta.attr.1.stream.handler_name.markup">SoundHandler</property>
  <property name="meta.attr.1.stream.vendor_id.markup">[0][0][0][0]</property>
  <property name="meta.attr.minor_version.markup">512</property>
  <property name="meta.attr.major_brand.markup">isom</property>
  <property name="meta.attr.compatible_brands.markup">isomiso2mp41</property>
  <property name="meta.attr.encoder.markup">Lavf62.0.102</property>
  <property name="seekable">1</property>
  <property name="meta.media.sample_aspect_num">1</property>
  <property name="meta.media.sample_aspect_den">1</property>
  <property name="audio_index">1</property>
  <property name="video_index">0</property>
  <property name="vstream">0</property>
  <property name="meta.media.frame_rate_num">30</property>
  <property name="meta.media.frame_rate_den">1</property>
  <property name="meta.media.colorspace">709</property>
  <property name="meta.media.color_trc">2</property>
  <property name="meta.media.has_b_frames">2</property>
  <property name="meta.media.width">3840</property>
  <property name="meta.media.height">2160</property>
  <property name="meta.media.aspect_ratio">1</property>
  <property name="meta.media.color_range">mpeg</property>
  <property name="astream">0</property>
  <property name="meta.media.top_field_first">0</property>
  <property name="meta.media.progressive">1</property>
  <property name="kdenlive:control_uuid">{c69f94b3-4ec4-4316-88cb-86e027fca721}</property>
  <property name="kdenlive:id">50</property>
  <property name="kdenlive:clip_type">2</property>
  <property name="kdenlive:file_size">17482873</property>
  <property name="kdenlive:file_hash">35df3b5e6e41f17110d34eb312855ac3</property>
  <property name="kdenlive:folderid">4</property>
  <property name="mute_on_pause">0</property>
 </chain>
 <chain id="chain81" out="00:00:01.250">
  <property name="length">31</property>
  <property name="eof">pause</property>
  <property name="resource">C:/dev/workspace/indy/dist/room/chase/content/voice/chase4.mp3</property>
  <property name="mlt_service">avformat</property>
  <property name="meta.media.nb_streams">1</property>
  <property name="meta.media.0.stream.type">audio</property>
  <property name="meta.media.0.codec.sample_fmt">fltp</property>
  <property name="meta.media.0.codec.sample_rate">44100</property>
  <property name="meta.media.0.codec.channels">1</property>
  <property name="meta.media.0.codec.layout">mono</property>
  <property name="meta.media.0.codec.name">mp3float</property>
  <property name="meta.media.0.codec.long_name">MP3 (MPEG audio layer 3)</property>
  <property name="meta.media.0.codec.bit_rate">64000</property>
  <property name="meta.attr.encoder.markup">Lavf61.1.100</property>
  <property name="seekable">1</property>
  <property name="audio_index">0</property>
  <property name="video_index">-1</property>
  <property name="astream">0</property>
  <property name="kdenlive:control_uuid">{9aa422d9-51ee-4df3-88c2-b6ca5be934cf}</property>
  <property name="kdenlive:id">51</property>
  <property name="kdenlive:clip_type">1</property>
  <property name="kdenlive:file_size">10466</property>
  <property name="kdenlive:file_hash">743d2dabcd7c100180b76079562c6009</property>
  <property name="kdenlive:folderid">4</property>
 </chain>
 <chain id="chain82" out="00:00:01.833">
  <property name="length">45</property>
  <property name="eof">pause</property>
  <property name="resource">C:/dev/workspace/indy/dist/room/chase/content/voice/chase3.mp3</property>
  <property name="mlt_service">avformat</property>
  <property name="meta.media.nb_streams">1</property>
  <property name="meta.media.0.stream.type">audio</property>
  <property name="meta.media.0.codec.sample_fmt">fltp</property>
  <property name="meta.media.0.codec.sample_rate">44100</property>
  <property name="meta.media.0.codec.channels">1</property>
  <property name="meta.media.0.codec.layout">mono</property>
  <property name="meta.media.0.codec.name">mp3float</property>
  <property name="meta.media.0.codec.long_name">MP3 (MPEG audio layer 3)</property>
  <property name="meta.media.0.codec.bit_rate">64000</property>
  <property name="meta.attr.encoder.markup">Lavf61.1.100</property>
  <property name="seekable">1</property>
  <property name="audio_index">0</property>
  <property name="video_index">-1</property>
  <property name="astream">0</property>
  <property name="kdenlive:control_uuid">{b74e6306-c7c2-42c0-bb3c-79980bb3d6ea}</property>
  <property name="kdenlive:id">52</property>
  <property name="kdenlive:clip_type">1</property>
  <property name="kdenlive:file_size">15272</property>
  <property name="kdenlive:file_hash">4f3d4f9fa8b2e605f609b5dda1998eb8</property>
  <property name="kdenlive:folderid">4</property>
 </chain>
 <producer id="producer36" in="00:00:00.000" out="00:00:04.958">
  <property name="length">00:00:05.000</property>
  <property name="eof">pause</property>
  <property name="resource">C:/dev/workspace/indy/dist/room/chase/data/upscale/interior4.png</property>
  <property name="ttl">25</property>
  <property name="aspect_ratio">1</property>
  <property name="meta.media.progressive">1</property>
  <property name="seekable">1</property>
  <property name="format">1</property>
  <property name="meta.media.width">5824</property>
  <property name="meta.media.height">3264</property>
  <property name="mlt_service">qimage</property>
  <property name="kdenlive:clipname"/>
  <property name="kdenlive:duration">00:00:05.000</property>
  <property name="xml">was here</property>
  <property name="kdenlive:folderid">-1</property>
  <property name="kdenlive:id">53</property>
  <property name="kdenlive:clip_type">2</property>
  <property name="kdenlive:file_size">24218690</property>
  <property name="kdenlive:file_hash">2e02c8ff7c72c716fea1895b590be800</property>
  <property name="kdenlive:control_uuid">{15c5ad97-9ae1-4325-acc1-6a6bdb782978}</property>
 </producer>
 <chain id="chain86" out="00:00:05.958">
  <property name="length">144</property>
  <property name="eof">pause</property>
  <property name="resource">C:/dev/workspace/indy/dist/room/chase/content/upscale/dialog3.mp4</property>
  <property name="mlt_service">avformat-novalidate</property>
  <property name="meta.media.nb_streams">2</property>
  <property name="meta.media.0.stream.type">video</property>
  <property name="meta.media.0.stream.frame_rate">30</property>
  <property name="meta.media.0.stream.sample_aspect_ratio">0</property>
  <property name="meta.media.0.codec.width">3840</property>
  <property name="meta.media.0.codec.height">2160</property>
  <property name="meta.media.0.codec.rotate">0</property>
  <property name="meta.media.0.codec.pix_fmt">yuv420p</property>
  <property name="meta.media.0.codec.sample_aspect_ratio">0</property>
  <property name="meta.media.0.codec.colorspace">709</property>
  <property name="meta.media.0.codec.name">hevc</property>
  <property name="meta.media.0.codec.long_name">HEVC (High Efficiency Video Coding)</property>
  <property name="meta.media.0.codec.bit_rate">27439021</property>
  <property name="meta.attr.0.stream.handler_name.markup">VideoHandler</property>
  <property name="meta.attr.0.stream.vendor_id.markup">[0][0][0][0]</property>
  <property name="meta.attr.0.stream.encoder.markup">Lavc61.19.101 libx265</property>
  <property name="meta.media.1.stream.type">audio</property>
  <property name="meta.media.1.codec.sample_fmt">fltp</property>
  <property name="meta.media.1.codec.sample_rate">48000</property>
  <property name="meta.media.1.codec.channels">2</property>
  <property name="meta.media.1.codec.layout">stereo</property>
  <property name="meta.media.1.codec.name">aac</property>
  <property name="meta.media.1.codec.long_name">AAC (Advanced Audio Coding)</property>
  <property name="meta.media.1.codec.bit_rate">129650</property>
  <property name="meta.attr.1.stream.handler_name.markup">SoundHandler</property>
  <property name="meta.attr.1.stream.vendor_id.markup">[0][0][0][0]</property>
  <property name="meta.attr.minor_version.markup">512</property>
  <property name="meta.attr.major_brand.markup">isom</property>
  <property name="meta.attr.compatible_brands.markup">isomiso2mp41</property>
  <property name="meta.attr.encoder.markup">Lavf62.0.102</property>
  <property name="seekable">1</property>
  <property name="meta.media.sample_aspect_num">1</property>
  <property name="meta.media.sample_aspect_den">1</property>
  <property name="audio_index">1</property>
  <property name="video_index">0</property>
  <property name="vstream">0</property>
  <property name="meta.media.frame_rate_num">30</property>
  <property name="meta.media.frame_rate_den">1</property>
  <property name="meta.media.colorspace">709</property>
  <property name="meta.media.color_trc">2</property>
  <property name="meta.media.has_b_frames">2</property>
  <property name="meta.media.width">3840</property>
  <property name="meta.media.height">2160</property>
  <property name="meta.media.aspect_ratio">1</property>
  <property name="meta.media.color_range">mpeg</property>
  <property name="astream">0</property>
  <property name="meta.media.top_field_first">0</property>
  <property name="meta.media.progressive">1</property>
  <property name="kdenlive:control_uuid">{915d2845-d97f-47c8-8eee-2ceba1a9d8d0}</property>
  <property name="kdenlive:id">54</property>
  <property name="kdenlive:clip_type">2</property>
  <property name="kdenlive:file_size">20687559</property>
  <property name="kdenlive:file_hash">b9437859cb7b15356ec25fc569a7b6cd</property>
  <property name="kdenlive:folderid">4</property>
  <property name="mute_on_pause">0</property>
 </chain>
 <chain id="chain87" out="00:00:01.458">
  <property name="length">36</property>
  <property name="eof">pause</property>
  <property name="resource">C:/dev/workspace/indy/dist/room/chase/content/voice/chase5.mp3</property>
  <property name="mlt_service">avformat</property>
  <property name="meta.media.nb_streams">1</property>
  <property name="meta.media.0.stream.type">audio</property>
  <property name="meta.media.0.codec.sample_fmt">fltp</property>
  <property name="meta.media.0.codec.sample_rate">44100</property>
  <property name="meta.media.0.codec.channels">1</property>
  <property name="meta.media.0.codec.layout">mono</property>
  <property name="meta.media.0.codec.name">mp3float</property>
  <property name="meta.media.0.codec.long_name">MP3 (MPEG audio layer 3)</property>
  <property name="meta.media.0.codec.bit_rate">64000</property>
  <property name="meta.attr.encoder.markup">Lavf61.1.100</property>
  <property name="seekable">1</property>
  <property name="audio_index">0</property>
  <property name="video_index">-1</property>
  <property name="astream">0</property>
  <property name="kdenlive:control_uuid">{59a2b094-aa5f-4d6f-a67a-669b91fec5c4}</property>
  <property name="kdenlive:id">55</property>
  <property name="kdenlive:clip_type">1</property>
  <property name="kdenlive:file_size">12346</property>
  <property name="kdenlive:file_hash">9abc8227ae3e9697d5e76d97a9b17852</property>
  <property name="kdenlive:folderid">4</property>
 </chain>
 <chain id="chain88" out="00:00:03.333">
  <property name="length">81</property>
  <property name="eof">pause</property>
  <property name="resource">C:/dev/workspace/indy/dist/room/chase/content/voice/chase6.mp3</property>
  <property name="mlt_service">avformat</property>
  <property name="meta.media.nb_streams">1</property>
  <property name="meta.media.0.stream.type">audio</property>
  <property name="meta.media.0.codec.sample_fmt">fltp</property>
  <property name="meta.media.0.codec.sample_rate">44100</property>
  <property name="meta.media.0.codec.channels">1</property>
  <property name="meta.media.0.codec.layout">mono</property>
  <property name="meta.media.0.codec.name">mp3float</property>
  <property name="meta.media.0.codec.long_name">MP3 (MPEG audio layer 3)</property>
  <property name="meta.media.0.codec.bit_rate">64000</property>
  <property name="meta.attr.encoder.markup">Lavf61.1.100</property>
  <property name="seekable">1</property>
  <property name="audio_index">0</property>
  <property name="video_index">-1</property>
  <property name="astream">0</property>
  <property name="kdenlive:control_uuid">{8dc67b9f-43fe-4d0b-9194-b15e8895692a}</property>
  <property name="kdenlive:id">56</property>
  <property name="kdenlive:clip_type">1</property>
  <property name="kdenlive:file_size">27184</property>
  <property name="kdenlive:file_hash">b80047b1bed89dab6bbda0241f0bdfec</property>
  <property name="kdenlive:folderid">4</property>
 </chain>
 <chain id="chain94" out="00:00:04.958">
  <property name="length">120</property>
  <property name="eof">pause</property>
  <property name="resource">C:/dev/workspace/indy/dist/room/chase/content/upscale/dialog4.mp4</property>
  <property name="mlt_service">avformat-novalidate</property>
  <property name="meta.media.nb_streams">2</property>
  <property name="meta.media.0.stream.type">video</property>
  <property name="meta.media.0.stream.frame_rate">30</property>
  <property name="meta.media.0.stream.sample_aspect_ratio">0</property>
  <property name="meta.media.0.codec.width">3840</property>
  <property name="meta.media.0.codec.height">2160</property>
  <property name="meta.media.0.codec.rotate">0</property>
  <property name="meta.media.0.codec.pix_fmt">yuv420p</property>
  <property name="meta.media.0.codec.sample_aspect_ratio">0</property>
  <property name="meta.media.0.codec.colorspace">709</property>
  <property name="meta.media.0.codec.name">hevc</property>
  <property name="meta.media.0.codec.long_name">HEVC (High Efficiency Video Coding)</property>
  <property name="meta.media.0.codec.bit_rate">29869400</property>
  <property name="meta.attr.0.stream.handler_name.markup">VideoHandler</property>
  <property name="meta.attr.0.stream.vendor_id.markup">[0][0][0][0]</property>
  <property name="meta.attr.0.stream.encoder.markup">Lavc61.19.101 libx265</property>
  <property name="meta.media.1.stream.type">audio</property>
  <property name="meta.media.1.codec.sample_fmt">fltp</property>
  <property name="meta.media.1.codec.sample_rate">48000</property>
  <property name="meta.media.1.codec.channels">2</property>
  <property name="meta.media.1.codec.layout">stereo</property>
  <property name="meta.media.1.codec.name">aac</property>
  <property name="meta.media.1.codec.long_name">AAC (Advanced Audio Coding)</property>
  <property name="meta.media.1.codec.bit_rate">131618</property>
  <property name="meta.attr.1.stream.handler_name.markup">SoundHandler</property>
  <property name="meta.attr.1.stream.vendor_id.markup">[0][0][0][0]</property>
  <property name="meta.attr.minor_version.markup">512</property>
  <property name="meta.attr.major_brand.markup">isom</property>
  <property name="meta.attr.compatible_brands.markup">isomiso2mp41</property>
  <property name="meta.attr.encoder.markup">Lavf62.0.102</property>
  <property name="seekable">1</property>
  <property name="meta.media.sample_aspect_num">1</property>
  <property name="meta.media.sample_aspect_den">1</property>
  <property name="audio_index">1</property>
  <property name="video_index">0</property>
  <property name="vstream">0</property>
  <property name="meta.media.frame_rate_num">30</property>
  <property name="meta.media.frame_rate_den">1</property>
  <property name="meta.media.colorspace">709</property>
  <property name="meta.media.color_trc">2</property>
  <property name="meta.media.has_b_frames">2</property>
  <property name="meta.media.width">3840</property>
  <property name="meta.media.height">2160</property>
  <property name="meta.media.aspect_ratio">1</property>
  <property name="meta.media.color_range">mpeg</property>
  <property name="astream">0</property>
  <property name="meta.media.top_field_first">0</property>
  <property name="meta.media.progressive">1</property>
  <property name="kdenlive:control_uuid">{d20737bd-266e-4bcd-a8ca-612fe8a8d25f}</property>
  <property name="kdenlive:id">57</property>
  <property name="kdenlive:clip_type">2</property>
  <property name="kdenlive:file_size">18760353</property>
  <property name="kdenlive:file_hash">bfd939e69e72b1a73f7d785a9c47974d</property>
  <property name="kdenlive:folderid">4</property>
  <property name="mute_on_pause">0</property>
 </chain>
 <chain id="chain90" out="00:00:01.958">
  <property name="length">48</property>
  <property name="eof">pause</property>
  <property name="resource">C:/dev/workspace/indy/dist/room/chase/content/voice/chase7.mp3</property>
  <property name="mlt_service">avformat</property>
  <property name="meta.media.nb_streams">1</property>
  <property name="meta.media.0.stream.type">audio</property>
  <property name="meta.media.0.codec.sample_fmt">fltp</property>
  <property name="meta.media.0.codec.sample_rate">44100</property>
  <property name="meta.media.0.codec.channels">1</property>
  <property name="meta.media.0.codec.layout">mono</property>
  <property name="meta.media.0.codec.name">mp3float</property>
  <property name="meta.media.0.codec.long_name">MP3 (MPEG audio layer 3)</property>
  <property name="meta.media.0.codec.bit_rate">64000</property>
  <property name="meta.attr.encoder.markup">Lavf61.1.100</property>
  <property name="seekable">1</property>
  <property name="audio_index">0</property>
  <property name="video_index">-1</property>
  <property name="astream">0</property>
  <property name="kdenlive:control_uuid">{3930f476-df2d-4485-ba49-040fd5bbcfb1}</property>
  <property name="kdenlive:id">58</property>
  <property name="kdenlive:clip_type">1</property>
  <property name="kdenlive:file_size">16317</property>
  <property name="kdenlive:file_hash">9b5ab6bfb08f5b3779e8c20ef91fc22c</property>
  <property name="kdenlive:folderid">4</property>
 </chain>
 <chain id="chain89" out="00:00:01.750">
  <property name="length">43</property>
  <property name="eof">pause</property>
  <property name="resource">C:/dev/workspace/indy/dist/room/chase/content/voice/chase8.mp3</property>
  <property name="mlt_service">avformat</property>
  <property name="meta.media.nb_streams">1</property>
  <property name="meta.media.0.stream.type">audio</property>
  <property name="meta.media.0.codec.sample_fmt">fltp</property>
  <property name="meta.media.0.codec.sample_rate">44100</property>
  <property name="meta.media.0.codec.channels">1</property>
  <property name="meta.media.0.codec.layout">mono</property>
  <property name="meta.media.0.codec.name">mp3float</property>
  <property name="meta.media.0.codec.long_name">MP3 (MPEG audio layer 3)</property>
  <property name="meta.media.0.codec.bit_rate">64000</property>
  <property name="meta.attr.encoder.markup">Lavf61.1.100</property>
  <property name="seekable">1</property>
  <property name="audio_index">0</property>
  <property name="video_index">-1</property>
  <property name="astream">0</property>
  <property name="kdenlive:control_uuid">{48db584e-9b7e-46a5-8ab8-ec637272a309}</property>
  <property name="kdenlive:id">59</property>
  <property name="kdenlive:clip_type">1</property>
  <property name="kdenlive:file_size">14436</property>
  <property name="kdenlive:file_hash">0cf5d4d64dec56c1d47c337ae0a37227</property>
  <property name="kdenlive:folderid">4</property>
 </chain>
 <producer id="producer37" in="00:00:00.000" out="00:00:04.958">
  <property name="length">00:00:05.000</property>
  <property name="eof">pause</property>
  <property name="resource">C:/dev/workspace/indy/dist/room/chase/data/upscale/interior5.png</property>
  <property name="ttl">25</property>
  <property name="aspect_ratio">1</property>
  <property name="meta.media.progressive">1</property>
  <property name="seekable">1</property>
  <property name="format">1</property>
  <property name="meta.media.width">5824</property>
  <property name="meta.media.height">3264</property>
  <property name="mlt_service">qimage</property>
  <property name="kdenlive:clipname"/>
  <property name="kdenlive:duration">00:00:05.000</property>
  <property name="xml">was here</property>
  <property name="kdenlive:folderid">-1</property>
  <property name="kdenlive:id">60</property>
  <property name="kdenlive:clip_type">2</property>
  <property name="kdenlive:file_size">24130914</property>
  <property name="kdenlive:file_hash">918e707e7521bd73217210ab085ea95b</property>
  <property name="kdenlive:control_uuid">{f0c5c64e-f1f9-457a-814d-abc472e10903}</property>
 </producer>
 <chain id="chain93" out="00:00:04.958">
  <property name="length">120</property>
  <property name="eof">pause</property>
  <property name="resource">C:/dev/workspace/indy/dist/room/chase/content/upscale/dialog5.mp4</property>
  <property name="mlt_service">avformat-novalidate</property>
  <property name="meta.media.nb_streams">2</property>
  <property name="meta.media.0.stream.type">video</property>
  <property name="meta.media.0.stream.frame_rate">30</property>
  <property name="meta.media.0.stream.sample_aspect_ratio">0</property>
  <property name="meta.media.0.codec.width">3840</property>
  <property name="meta.media.0.codec.height">2160</property>
  <property name="meta.media.0.codec.rotate">0</property>
  <property name="meta.media.0.codec.pix_fmt">yuv420p</property>
  <property name="meta.media.0.codec.sample_aspect_ratio">0</property>
  <property name="meta.media.0.codec.colorspace">709</property>
  <property name="meta.media.0.codec.name">hevc</property>
  <property name="meta.media.0.codec.long_name">HEVC (High Efficiency Video Coding)</property>
  <property name="meta.media.0.codec.bit_rate">34856308</property>
  <property name="meta.attr.0.stream.handler_name.markup">VideoHandler</property>
  <property name="meta.attr.0.stream.vendor_id.markup">[0][0][0][0]</property>
  <property name="meta.attr.0.stream.encoder.markup">Lavc61.19.101 libx265</property>
  <property name="meta.media.1.stream.type">audio</property>
  <property name="meta.media.1.codec.sample_fmt">fltp</property>
  <property name="meta.media.1.codec.sample_rate">48000</property>
  <property name="meta.media.1.codec.channels">2</property>
  <property name="meta.media.1.codec.layout">stereo</property>
  <property name="meta.media.1.codec.name">aac</property>
  <property name="meta.media.1.codec.long_name">AAC (Advanced Audio Coding)</property>
  <property name="meta.media.1.codec.bit_rate">127657</property>
  <property name="meta.attr.1.stream.handler_name.markup">SoundHandler</property>
  <property name="meta.attr.1.stream.vendor_id.markup">[0][0][0][0]</property>
  <property name="meta.attr.minor_version.markup">512</property>
  <property name="meta.attr.major_brand.markup">isom</property>
  <property name="meta.attr.compatible_brands.markup">isomiso2mp41</property>
  <property name="meta.attr.encoder.markup">Lavf62.0.102</property>
  <property name="seekable">1</property>
  <property name="meta.media.sample_aspect_num">1</property>
  <property name="meta.media.sample_aspect_den">1</property>
  <property name="audio_index">1</property>
  <property name="video_index">0</property>
  <property name="vstream">0</property>
  <property name="meta.media.frame_rate_num">30</property>
  <property name="meta.media.frame_rate_den">1</property>
  <property name="meta.media.colorspace">709</property>
  <property name="meta.media.color_trc">2</property>
  <property name="meta.media.has_b_frames">2</property>
  <property name="meta.media.width">3840</property>
  <property name="meta.media.height">2160</property>
  <property name="meta.media.aspect_ratio">1</property>
  <property name="meta.media.color_range">mpeg</property>
  <property name="astream">0</property>
  <property name="meta.media.top_field_first">0</property>
  <property name="meta.media.progressive">1</property>
  <property name="kdenlive:control_uuid">{bf5712c3-b5fe-4d7a-8d95-a8193a4401bc}</property>
  <property name="kdenlive:id">61</property>
  <property name="kdenlive:clip_type">2</property>
  <property name="kdenlive:file_size">21874833</property>
  <property name="kdenlive:file_hash">6e00c650a645ffc18e0d0e0ea841b453</property>
  <property name="kdenlive:folderid">4</property>
  <property name="mute_on_pause">0</property>
 </chain>
 <chain id="chain91" out="00:00:01.375">
  <property name="length">34</property>
  <property name="eof">pause</property>
  <property name="resource">C:/dev/workspace/indy/dist/room/chase/content/voice/chase9.mp3</property>
  <property name="mlt_service">avformat</property>
  <property name="meta.media.nb_streams">1</property>
  <property name="meta.media.0.stream.type">audio</property>
  <property name="meta.media.0.codec.sample_fmt">fltp</property>
  <property name="meta.media.0.codec.sample_rate">44100</property>
  <property name="meta.media.0.codec.channels">1</property>
  <property name="meta.media.0.codec.layout">mono</property>
  <property name="meta.media.0.codec.name">mp3float</property>
  <property name="meta.media.0.codec.long_name">MP3 (MPEG audio layer 3)</property>
  <property name="meta.media.0.codec.bit_rate">64000</property>
  <property name="meta.attr.encoder.markup">Lavf61.1.100</property>
  <property name="seekable">1</property>
  <property name="audio_index">0</property>
  <property name="video_index">-1</property>
  <property name="astream">0</property>
  <property name="kdenlive:control_uuid">{cdff09b4-b36b-4955-baea-23556e9fbe8c}</property>
  <property name="kdenlive:id">62</property>
  <property name="kdenlive:clip_type">1</property>
  <property name="kdenlive:file_size">11510</property>
  <property name="kdenlive:file_hash">7eb2f7f55f35cb11506d1e6f1efc7bee</property>
  <property name="kdenlive:folderid">4</property>
 </chain>
 <chain id="chain92" out="00:00:01.125">
  <property name="length">28</property>
  <property name="eof">pause</property>
  <property name="resource">C:/dev/workspace/indy/dist/room/chase/content/voice/chase10.mp3</property>
  <property name="mlt_service">avformat</property>
  <property name="meta.media.nb_streams">1</property>
  <property name="meta.media.0.stream.type">audio</property>
  <property name="meta.media.0.codec.sample_fmt">fltp</property>
  <property name="meta.media.0.codec.sample_rate">44100</property>
  <property name="meta.media.0.codec.channels">1</property>
  <property name="meta.media.0.codec.layout">mono</property>
  <property name="meta.media.0.codec.name">mp3float</property>
  <property name="meta.media.0.codec.long_name">MP3 (MPEG audio layer 3)</property>
  <property name="meta.media.0.codec.bit_rate">64000</property>
  <property name="meta.attr.encoder.markup">Lavf61.1.100</property>
  <property name="seekable">1</property>
  <property name="audio_index">0</property>
  <property name="video_index">-1</property>
  <property name="astream">0</property>
  <property name="kdenlive:control_uuid">{4ea62fff-c52e-4c29-a500-17419863811b}</property>
  <property name="kdenlive:id">63</property>
  <property name="kdenlive:clip_type">1</property>
  <property name="kdenlive:file_size">9630</property>
  <property name="kdenlive:file_hash">bbc8b0fed0803bdf8bf39d1a7046f592</property>
  <property name="kdenlive:folderid">4</property>
 </chain>
 <producer id="producer38" in="00:00:00.000" out="00:00:04.958">
  <property name="length">00:00:05.000</property>
  <property name="eof">pause</property>
  <property name="resource">C:/dev/workspace/indy/dist/room/attic2/data/upscale/indy.png</property>
  <property name="ttl">25</property>
  <property name="aspect_ratio">1</property>
  <property name="meta.media.progressive">1</property>
  <property name="seekable">1</property>
  <property name="format">1</property>
  <property name="meta.media.width">5824</property>
  <property name="meta.media.height">3264</property>
  <property name="mlt_service">qimage</property>
  <property name="kdenlive:clipname"/>
  <property name="kdenlive:duration">00:00:05.000</property>
  <property name="xml">was here</property>
  <property name="kdenlive:folderid">-1</property>
  <property name="kdenlive:id">64</property>
  <property name="kdenlive:clip_type">2</property>
  <property name="kdenlive:file_size">28260458</property>
  <property name="kdenlive:file_hash">29128d8bd7c4cf7a143a4b25cf85d89c</property>
  <property name="kdenlive:control_uuid">{4852aa2d-2147-4fc6-88d0-52a14411ff8f}</property>
 </producer>
 <chain id="chain100" out="00:00:09.542">
  <property name="length">230</property>
  <property name="eof">pause</property>
  <property name="resource">C:/dev/workspace/indy/dist/room/attic2/content/upscale/indy5.mp4</property>
  <property name="mlt_service">avformat-novalidate</property>
  <property name="meta.media.nb_streams">1</property>
  <property name="meta.media.0.stream.type">video</property>
  <property name="meta.media.0.stream.frame_rate">60</property>
  <property name="meta.media.0.stream.sample_aspect_ratio">0</property>
  <property name="meta.media.0.codec.width">3840</property>
  <property name="meta.media.0.codec.height">2160</property>
  <property name="meta.media.0.codec.rotate">0</property>
  <property name="meta.media.0.codec.pix_fmt">yuv444p</property>
  <property name="meta.media.0.codec.sample_aspect_ratio">0</property>
  <property name="meta.media.0.codec.colorspace">709</property>
  <property name="meta.media.0.codec.name">h264</property>
  <property name="meta.media.0.codec.long_name">H.264 / AVC / MPEG-4 AVC / MPEG-4 part 10</property>
  <property name="meta.media.0.codec.bit_rate">20196336</property>
  <property name="meta.attr.0.stream.handler_name.markup">VideoHandler</property>
  <property name="meta.attr.0.stream.vendor_id.markup">[0][0][0][0]</property>
  <property name="meta.attr.0.stream.encoder.markup">Lavc61.19.101 libx264</property>
  <property name="meta.attr.minor_version.markup">512</property>
  <property name="meta.attr.major_brand.markup">isom</property>
  <property name="meta.attr.compatible_brands.markup">isomiso2avc1mp41</property>
  <property name="meta.attr.encoder.markup">Lavf61.9.100</property>
  <property name="seekable">1</property>
  <property name="meta.media.sample_aspect_num">1</property>
  <property name="meta.media.sample_aspect_den">1</property>
  <property name="audio_index">-1</property>
  <property name="video_index">0</property>
  <property name="vstream">0</property>
  <property name="meta.media.frame_rate_num">60</property>
  <property name="meta.media.frame_rate_den">1</property>
  <property name="meta.media.colorspace">709</property>
  <property name="meta.media.color_trc">2</property>
  <property name="meta.media.has_b_frames">2</property>
  <property name="meta.media.width">3840</property>
  <property name="meta.media.height">2160</property>
  <property name="meta.media.aspect_ratio">1</property>
  <property name="meta.media.color_range">mpeg</property>
  <property name="meta.media.top_field_first">0</property>
  <property name="meta.media.progressive">1</property>
  <property name="kdenlive:control_uuid">{fa6d5020-90c7-4cd0-b94b-d173171c8d05}</property>
  <property name="kdenlive:id">65</property>
  <property name="kdenlive:clip_type">2</property>
  <property name="kdenlive:file_size">24243831</property>
  <property name="kdenlive:file_hash">d13b0ecc0959c3fed37943396aac9de6</property>
  <property name="kdenlive:folderid">-1</property>
  <property name="mute_on_pause">0</property>
 </chain>
 <producer id="producer17" in="00:00:00.000" out="00:00:04.958">
  <property name="length">120</property>
  <property name="eof">pause</property>
  <property name="resource"/>
  <property name="meta.media.progressive">1</property>
  <property name="aspect_ratio">1</property>
  <property name="seekable">1</property>
  <property name="mlt_service">kdenlivetitle</property>
  <property name="kdenlive:duration">00:00:05:00</property>
  <property name="kdenlive:clipname">CINEMATOGRAPHY</property>
  <property name="xmldata">&lt;kdenlivetitle LC_NUMERIC="C" duration="120" height="2160" out="119" width="3840">
 &lt;item type="QGraphicsTextItem" z-index="0">
  &lt;position x="1517" y="1035">
   &lt;transform>1,0,0,0,1,0,0,0,1&lt;/transform>
  &lt;/position>
  &lt;content alignment="1" box-height="90" box-width="806" font="Microgramma" font-color="255,255,255,255" font-italic="0" font-pixel-size="96" font-underline="0" font-weight="400" letter-spacing="0" line-spacing="0" shadow="0;#64000000;3;3;3" typewriter="0;2;1;0;0">IS EVOLVING&lt;/content>
 &lt;/item>
 &lt;startviewport rect="0,0,3840,2160"/>
 &lt;endviewport rect="0,0,3840,2160"/>
 &lt;background color="0,0,0,0"/>
&lt;/kdenlivetitle>
</property>
  <property name="xml">was here</property>
  <property name="kdenlive:folderid">-1</property>
  <property name="kdenlive:id">66</property>
  <property name="kdenlive:clip_type">2</property>
  <property name="kdenlive:file_hash">84763d727e327223b10e561546d12ea5</property>
  <property name="force_reload">0</property>
  <property name="kdenlive:control_uuid">{49b1d054-97a3-4452-9924-a41a046f2df0}</property>
  <property name="kdenlive:uniqueId">{c9506e78-ec65-4855-9625-2b6661d8d7b9}</property>
  <property name="meta.media.width">3840</property>
  <property name="meta.media.height">2160</property>
 </producer>
 <producer id="producer21" in="00:00:00.000" out="00:00:04.958">
  <property name="length">120</property>
  <property name="eof">pause</property>
  <property name="resource"/>
  <property name="meta.media.progressive">1</property>
  <property name="aspect_ratio">1</property>
  <property name="seekable">1</property>
  <property name="mlt_service">kdenlivetitle</property>
  <property name="kdenlive:duration">00:00:05:00</property>
  <property name="kdenlive:clipname">BE A PART OF...</property>
  <property name="xmldata">&lt;kdenlivetitle LC_NUMERIC="C" duration="120" height="2160" out="119" width="3840">
 &lt;item type="QGraphicsTextItem" z-index="0">
  &lt;position x="1380" y="1035">
   &lt;transform>1,0,0,0,1,0,0,0,1&lt;/transform>
  &lt;/position>
  &lt;content alignment="0" box-height="90" box-width="1080" font="Microgramma" font-color="255,255,255,255" font-italic="0" font-outline="0" font-outline-color="0,0,0,255" font-pixel-size="96" font-underline="0" font-weight="400" letter-spacing="0" shadow="0;#64000000;3;3;3" typewriter="0;2;1;0;0">BE A PART OF IT&lt;/content>
 &lt;/item>
 &lt;startviewport rect="0,0,3840,2160"/>
 &lt;endviewport rect="0,0,3840,2160"/>
 &lt;background color="0,0,0,0"/>
&lt;/kdenlivetitle>
</property>
  <property name="xml">was here</property>
  <property name="kdenlive:folderid">4</property>
  <property name="kdenlive:id">67</property>
  <property name="kdenlive:clip_type">2</property>
  <property name="kdenlive:file_hash">baa2fe616fd933a26181745f26d401bb</property>
  <property name="force_reload">0</property>
  <property name="kdenlive:control_uuid">{f2a3a1d9-7c48-42c2-b91c-1d9190a695e5}</property>
  <property name="kdenlive:uniqueId">{8e8baaa7-1bce-481e-a310-43d39b403cc6}</property>
 </producer>
 <producer id="producer18" in="00:00:00.000" out="00:00:06.000">
  <property name="length">145</property>
  <property name="eof">pause</property>
  <property name="resource"/>
  <property name="meta.media.progressive">1</property>
  <property name="aspect_ratio">1</property>
  <property name="seekable">1</property>
  <property name="mlt_service">kdenlivetitle</property>
  <property name="kdenlive:duration">00:00:05:00</property>
  <property name="kdenlive:clipname">vox.omega.gg</property>
  <property name="xmldata">&lt;kdenlivetitle LC_NUMERIC="C" duration="120" height="2160" out="119" width="3840">
 &lt;item type="QGraphicsTextItem" z-index="0">
  &lt;position x="1517" y="1006">
   &lt;transform>1,0,0,0,1,0,0,0,1&lt;/transform>
  &lt;/position>
  &lt;content alignment="1" box-height="150" box-width="724" font="Times New Roman" font-color="255,255,255,255" font-italic="0" font-outline="0" font-outline-color="0,0,0,255" font-pixel-size="128" font-underline="0" font-weight="400" letter-spacing="0" line-spacing="0" shadow="0;#64000000;3;3;3" typewriter="0;2;1;0;0">vox.omega.gg&lt;/content>
 &lt;/item>
 &lt;startviewport rect="0,0,3840,2160"/>
 &lt;endviewport rect="0,0,3840,2160"/>
 &lt;background color="0,0,0,0"/>
&lt;/kdenlivetitle>
</property>
  <property name="xml">was here</property>
  <property name="kdenlive:folderid">4</property>
  <property name="kdenlive:id">68</property>
  <property name="kdenlive:clip_type">2</property>
  <property name="kdenlive:file_hash">d83137fd34d257d20d9603e9408c111a</property>
  <property name="force_reload">0</property>
  <property name="kdenlive:control_uuid">{406f8a84-0eb5-4778-8560-02f787b63cf9}</property>
  <property name="kdenlive:uniqueId">{3b8016fd-7fef-4f2b-b702-2b791bb4d796}</property>
  <property name="meta.media.width">3840</property>
  <property name="meta.media.height">2160</property>
 </producer>
 <chain id="chain96" out="00:03:36.708">
  <property name="length">5202</property>
  <property name="eof">pause</property>
  <property name="resource">C:/dev/workspace/indy/dist/trailer/content/extra/interview.mp4</property>
  <property name="mlt_service">avformat-novalidate</property>
  <property name="meta.media.nb_streams">2</property>
  <property name="meta.media.0.stream.type">video</property>
  <property name="meta.media.0.stream.frame_rate">29.97</property>
  <property name="meta.media.0.stream.sample_aspect_ratio">1</property>
  <property name="meta.media.0.codec.width">1920</property>
  <property name="meta.media.0.codec.height">1080</property>
  <property name="meta.media.0.codec.rotate">0</property>
  <property name="meta.media.0.codec.pix_fmt">yuv420p</property>
  <property name="meta.media.0.codec.sample_aspect_ratio">1</property>
  <property name="meta.media.0.codec.colorspace">709</property>
  <property name="meta.media.0.codec.color_trc">1</property>
  <property name="meta.media.0.codec.name">h264</property>
  <property name="meta.media.0.codec.long_name">H.264 / AVC / MPEG-4 AVC / MPEG-4 part 10</property>
  <property name="meta.media.0.codec.bit_rate">1011681</property>
  <property name="meta.attr.0.stream.handler_name.markup">ISO Media file produced by Google Inc.</property>
  <property name="meta.attr.0.stream.vendor_id.markup">[0][0][0][0]</property>
  <property name="meta.media.1.stream.type">audio</property>
  <property name="meta.media.1.codec.sample_fmt">fltp</property>
  <property name="meta.media.1.codec.sample_rate">48000</property>
  <property name="meta.media.1.codec.channels">2</property>
  <property name="meta.media.1.codec.layout">stereo</property>
  <property name="meta.media.1.codec.name">opus</property>
  <property name="meta.media.1.codec.long_name">Opus</property>
  <property name="meta.media.1.codec.bit_rate">113839</property>
  <property name="meta.attr.1.stream.language.markup">eng</property>
  <property name="meta.attr.1.stream.handler_name.markup">SoundHandler</property>
  <property name="meta.attr.1.stream.vendor_id.markup">[0][0][0][0]</property>
  <property name="meta.attr.major_brand.markup">isom</property>
  <property name="meta.attr.minor_version.markup">512</property>
  <property name="meta.attr.compatible_brands.markup">isomiso2avc1mp41</property>
  <property name="meta.attr.encoder.markup">Lavf61.1.100</property>
  <property name="seekable">1</property>
  <property name="meta.media.sample_aspect_num">1</property>
  <property name="meta.media.sample_aspect_den">1</property>
  <property name="audio_index">1</property>
  <property name="video_index">0</property>
  <property name="vstream">0</property>
  <property name="meta.media.frame_rate_num">30000</property>
  <property name="meta.media.frame_rate_den">1001</property>
  <property name="meta.media.colorspace">709</property>
  <property name="meta.media.color_trc">1</property>
  <property name="meta.media.has_b_frames">1</property>
  <property name="meta.media.width">1920</property>
  <property name="meta.media.height">1080</property>
  <property name="meta.media.aspect_ratio">1</property>
  <property name="meta.media.color_range">mpeg</property>
  <property name="astream">0</property>
  <property name="meta.media.top_field_first">0</property>
  <property name="meta.media.progressive">1</property>
  <property name="kdenlive:control_uuid">{93b15476-3e7c-4ac6-bb97-fa3639a25c08}</property>
  <property name="kdenlive:id">69</property>
  <property name="kdenlive:clip_type">0</property>
  <property name="kdenlive:file_size">30708458</property>
  <property name="kdenlive:file_hash">9317d79f07d77e43c649fd8cca85cda2</property>
  <property name="kdenlive:folderid">4</property>
  <property name="mute_on_pause">0</property>
 </chain>
 <chain id="chain95" out="00:00:38.333">
  <property name="length">921</property>
  <property name="eof">pause</property>
  <property name="resource">C:/dev/workspace/indy/dist/trailer/content/extra/interview2.mp4</property>
  <property name="mlt_service">avformat-novalidate</property>
  <property name="meta.media.nb_streams">2</property>
  <property name="meta.media.0.stream.type">video</property>
  <property name="meta.media.0.stream.frame_rate">30</property>
  <property name="meta.media.0.stream.sample_aspect_ratio">1</property>
  <property name="meta.media.0.codec.width">1920</property>
  <property name="meta.media.0.codec.height">1080</property>
  <property name="meta.media.0.codec.rotate">0</property>
  <property name="meta.media.0.codec.pix_fmt">yuv420p</property>
  <property name="meta.media.0.codec.sample_aspect_ratio">0</property>
  <property name="meta.media.0.codec.colorspace">709</property>
  <property name="meta.media.0.codec.color_trc">1</property>
  <property name="meta.media.0.codec.name">libvpx-vp9</property>
  <property name="meta.media.0.codec.long_name">libvpx VP9</property>
  <property name="meta.media.0.codec.bit_rate">636284</property>
  <property name="meta.attr.0.stream.language.markup">eng</property>
  <property name="meta.attr.0.stream.handler_name.markup">VideoHandler</property>
  <property name="meta.attr.0.stream.vendor_id.markup">[0][0][0][0]</property>
  <property name="meta.media.1.stream.type">audio</property>
  <property name="meta.media.1.codec.sample_fmt">fltp</property>
  <property name="meta.media.1.codec.sample_rate">48000</property>
  <property name="meta.media.1.codec.channels">2</property>
  <property name="meta.media.1.codec.layout">stereo</property>
  <property name="meta.media.1.codec.name">opus</property>
  <property name="meta.media.1.codec.long_name">Opus</property>
  <property name="meta.media.1.codec.bit_rate">104392</property>
  <property name="meta.attr.1.stream.language.markup">eng</property>
  <property name="meta.attr.1.stream.handler_name.markup">SoundHandler</property>
  <property name="meta.attr.1.stream.vendor_id.markup">[0][0][0][0]</property>
  <property name="meta.attr.major_brand.markup">isom</property>
  <property name="meta.attr.minor_version.markup">512</property>
  <property name="meta.attr.compatible_brands.markup">isomiso2mp41</property>
  <property name="meta.attr.encoder.markup">Lavf61.1.100</property>
  <property name="seekable">1</property>
  <property name="meta.media.sample_aspect_num">1</property>
  <property name="meta.media.sample_aspect_den">1</property>
  <property name="audio_index">1</property>
  <property name="video_index">0</property>
  <property name="vstream">0</property>
  <property name="meta.media.frame_rate_num">30</property>
  <property name="meta.media.frame_rate_den">1</property>
  <property name="meta.media.colorspace">709</property>
  <property name="meta.media.color_trc">1</property>
  <property name="meta.media.has_b_frames">0</property>
  <property name="meta.media.width">1920</property>
  <property name="meta.media.height">1080</property>
  <property name="meta.media.aspect_ratio">1</property>
  <property name="meta.media.color_range">mpeg</property>
  <property name="astream">0</property>
  <property name="meta.media.top_field_first">0</property>
  <property name="meta.media.progressive">1</property>
  <property name="kdenlive:control_uuid">{2af51a2d-8bed-4ce3-a2e3-e56625a48775}</property>
  <property name="kdenlive:id">70</property>
  <property name="kdenlive:clip_type">0</property>
  <property name="kdenlive:file_size">3584954</property>
  <property name="kdenlive:file_hash">657ab15ac7212c54c7a19dc85fd523b6</property>
  <property name="kdenlive:folderid">4</property>
  <property name="mute_on_pause">0</property>
 </chain>
 <producer id="producer1" in="00:00:00.000" out="00:00:04.958">
  <property name="length">00:00:05.000</property>
  <property name="eof">pause</property>
  <property name="resource">C:/dev/workspace/indy/dist/room/intro/data/wide/college2.png</property>
  <property name="ttl">25</property>
  <property name="aspect_ratio">1</property>
  <property name="meta.media.progressive">1</property>
  <property name="seekable">1</property>
  <property name="format">2</property>
  <property name="meta.media.width">3900</property>
  <property name="meta.media.height">1632</property>
  <property name="mlt_service">qimage</property>
  <property name="kdenlive:duration">00:00:05:00</property>
  <property name="xml">was here</property>
  <property name="kdenlive:folderid">-1</property>
  <property name="kdenlive:id">71</property>
  <property name="kdenlive:control_uuid">{4bd0e8b2-0673-4738-89c1-93844f84ea3d}</property>
  <property name="kdenlive:clip_type">2</property>
  <property name="kdenlive:file_size">11984372</property>
  <property name="kdenlive:file_hash">a0840d4e6eef4c8ffaefea0509c27c32</property>
  <property name="kdenlive:monitorPosition">0</property>
 </producer>
 <producer id="producer19" in="00:00:00.000" out="00:00:04.958">
  <property name="length">00:00:05.000</property>
  <property name="eof">pause</property>
  <property name="resource">0x000000ff</property>
  <property name="aspect_ratio">1</property>
  <property name="mlt_service">color</property>
  <property name="kdenlive:clipname">Color Clip</property>
  <property name="kdenlive:duration">00:00:05:00</property>
  <property name="xml">was here</property>
  <property name="seekable">1</property>
  <property name="kdenlive:folderid">-1</property>
  <property name="kdenlive:id">72</property>
  <property name="kdenlive:control_uuid">{d4b12692-3a5b-4264-842b-eb14cbdbbf81}</property>
  <property name="mlt_image_format">rgb</property>
  <property name="kdenlive:clip_type">2</property>
  <property name="kdenlive:file_hash">9196813120dc5c505072516b15baf414</property>
  <property name="kdenlive:monitorPosition">0</property>
 </producer>
 <chain id="chain101" out="00:00:09.542">
  <property name="length">230</property>
  <property name="eof">pause</property>
  <property name="resource">C:/dev/workspace/indy/dist/room/intro/content/upscale/wide/college.mp4</property>
  <property name="mlt_service">avformat-novalidate</property>
  <property name="meta.media.nb_streams">2</property>
  <property name="meta.media.0.stream.type">video</property>
  <property name="meta.media.0.stream.frame_rate">60</property>
  <property name="meta.media.0.stream.sample_aspect_ratio">0</property>
  <property name="meta.media.0.codec.width">5160</property>
  <property name="meta.media.0.codec.height">2160</property>
  <property name="meta.media.0.codec.rotate">0</property>
  <property name="meta.media.0.codec.pix_fmt">yuv420p</property>
  <property name="meta.media.0.codec.sample_aspect_ratio">0</property>
  <property name="meta.media.0.codec.colorspace">709</property>
  <property name="meta.media.0.codec.name">hevc</property>
  <property name="meta.media.0.codec.long_name">HEVC (High Efficiency Video Coding)</property>
  <property name="meta.media.0.codec.bit_rate">35226980</property>
  <property name="meta.attr.0.stream.handler_name.markup">VideoHandler</property>
  <property name="meta.attr.0.stream.vendor_id.markup">[0][0][0][0]</property>
  <property name="meta.attr.0.stream.encoder.markup">Lavc61.19.101 libx265</property>
  <property name="meta.media.1.stream.type">audio</property>
  <property name="meta.media.1.codec.sample_fmt">fltp</property>
  <property name="meta.media.1.codec.sample_rate">48000</property>
  <property name="meta.media.1.codec.channels">2</property>
  <property name="meta.media.1.codec.layout">stereo</property>
  <property name="meta.media.1.codec.name">aac</property>
  <property name="meta.media.1.codec.long_name">AAC (Advanced Audio Coding)</property>
  <property name="meta.media.1.codec.bit_rate">2265</property>
  <property name="meta.attr.1.stream.handler_name.markup">SoundHandler</property>
  <property name="meta.attr.1.stream.vendor_id.markup">[0][0][0][0]</property>
  <property name="meta.attr.minor_version.markup">512</property>
  <property name="meta.attr.major_brand.markup">isom</property>
  <property name="meta.attr.compatible_brands.markup">isomiso2mp41</property>
  <property name="meta.attr.encoder.markup">Lavf62.0.102</property>
  <property name="seekable">1</property>
  <property name="meta.media.sample_aspect_num">1</property>
  <property name="meta.media.sample_aspect_den">1</property>
  <property name="audio_index">1</property>
  <property name="video_index">0</property>
  <property name="vstream">0</property>
  <property name="meta.media.frame_rate_num">60</property>
  <property name="meta.media.frame_rate_den">1</property>
  <property name="meta.media.colorspace">709</property>
  <property name="meta.media.color_trc">2</property>
  <property name="meta.media.has_b_frames">2</property>
  <property name="meta.media.width">5160</property>
  <property name="meta.media.height">2160</property>
  <property name="meta.media.aspect_ratio">1</property>
  <property name="meta.media.color_range">mpeg</property>
  <property name="astream">0</property>
  <property name="meta.media.top_field_first">0</property>
  <property name="meta.media.progressive">1</property>
  <property name="kdenlive:folderid">4</property>
  <property name="kdenlive:id">73</property>
  <property name="kdenlive:control_uuid">{ddf0e512-1e62-42f7-a34f-a8314d5a08d9}</property>
  <property name="mute_on_pause">0</property>
  <property name="kdenlive:clip_type">0</property>
  <property name="kdenlive:file_size">42220288</property>
  <property name="kdenlive:file_hash">639daf801664993e6d6e024b25a56698</property>
 </chain>
 <chain id="chain102" out="00:00:08.958">
  <property name="length">216</property>
  <property name="eof">pause</property>
  <property name="resource">C:/dev/workspace/indy/dist/room/intro/content/upscale/wide/college3-1.mp4</property>
  <property name="mlt_service">avformat-novalidate</property>
  <property name="meta.media.nb_streams">2</property>
  <property name="meta.media.0.stream.type">video</property>
  <property name="meta.media.0.stream.frame_rate">60</property>
  <property name="meta.media.0.stream.sample_aspect_ratio">0</property>
  <property name="meta.media.0.codec.width">5160</property>
  <property name="meta.media.0.codec.height">2160</property>
  <property name="meta.media.0.codec.rotate">0</property>
  <property name="meta.media.0.codec.pix_fmt">yuv420p</property>
  <property name="meta.media.0.codec.sample_aspect_ratio">0</property>
  <property name="meta.media.0.codec.colorspace">709</property>
  <property name="meta.media.0.codec.name">hevc</property>
  <property name="meta.media.0.codec.long_name">HEVC (High Efficiency Video Coding)</property>
  <property name="meta.media.0.codec.bit_rate">79116459</property>
  <property name="meta.attr.0.stream.handler_name.markup">VideoHandler</property>
  <property name="meta.attr.0.stream.vendor_id.markup">[0][0][0][0]</property>
  <property name="meta.attr.0.stream.encoder.markup">Lavc61.19.101 libx265</property>
  <property name="meta.media.1.stream.type">audio</property>
  <property name="meta.media.1.codec.sample_fmt">fltp</property>
  <property name="meta.media.1.codec.sample_rate">48000</property>
  <property name="meta.media.1.codec.channels">2</property>
  <property name="meta.media.1.codec.layout">stereo</property>
  <property name="meta.media.1.codec.name">aac</property>
  <property name="meta.media.1.codec.long_name">AAC (Advanced Audio Coding)</property>
  <property name="meta.media.1.codec.bit_rate">2265</property>
  <property name="meta.attr.1.stream.handler_name.markup">SoundHandler</property>
  <property name="meta.attr.1.stream.vendor_id.markup">[0][0][0][0]</property>
  <property name="meta.attr.minor_version.markup">512</property>
  <property name="meta.attr.major_brand.markup">isom</property>
  <property name="meta.attr.compatible_brands.markup">isomiso2mp41</property>
  <property name="meta.attr.encoder.markup">Lavf62.0.102</property>
  <property name="seekable">1</property>
  <property name="meta.media.sample_aspect_num">1</property>
  <property name="meta.media.sample_aspect_den">1</property>
  <property name="audio_index">1</property>
  <property name="video_index">0</property>
  <property name="vstream">0</property>
  <property name="meta.media.frame_rate_num">60</property>
  <property name="meta.media.frame_rate_den">1</property>
  <property name="meta.media.colorspace">709</property>
  <property name="meta.media.color_trc">2</property>
  <property name="meta.media.has_b_frames">2</property>
  <property name="meta.media.width">5160</property>
  <property name="meta.media.height">2160</property>
  <property name="meta.media.aspect_ratio">1</property>
  <property name="meta.media.color_range">mpeg</property>
  <property name="astream">0</property>
  <property name="meta.media.top_field_first">0</property>
  <property name="meta.media.progressive">1</property>
  <property name="kdenlive:folderid">4</property>
  <property name="kdenlive:id">74</property>
  <property name="kdenlive:control_uuid">{7e27b817-1c99-4617-ba58-2e996b22b1ab}</property>
  <property name="mute_on_pause">0</property>
  <property name="kdenlive:clip_type">0</property>
  <property name="kdenlive:file_size">89027359</property>
  <property name="kdenlive:file_hash">69d01afd069bed5d1c9338a35e4b3d27</property>
 </chain>
 <chain id="chain103" out="00:00:05.042">
  <property name="length">122</property>
  <property name="eof">pause</property>
  <property name="resource">C:/dev/workspace/indy/dist/room/attic/content/upscale/wide/splash3.mp4</property>
  <property name="mlt_service">avformat-novalidate</property>
  <property name="meta.media.nb_streams">2</property>
  <property name="meta.media.0.stream.type">video</property>
  <property name="meta.media.0.stream.frame_rate">60</property>
  <property name="meta.media.0.stream.sample_aspect_ratio">0</property>
  <property name="meta.media.0.codec.width">5160</property>
  <property name="meta.media.0.codec.height">2160</property>
  <property name="meta.media.0.codec.rotate">0</property>
  <property name="meta.media.0.codec.pix_fmt">yuv444p</property>
  <property name="meta.media.0.codec.sample_aspect_ratio">0</property>
  <property name="meta.media.0.codec.colorspace">709</property>
  <property name="meta.media.0.codec.name">h264</property>
  <property name="meta.media.0.codec.long_name">H.264 / AVC / MPEG-4 AVC / MPEG-4 part 10</property>
  <property name="meta.media.0.codec.bit_rate">23837455</property>
  <property name="meta.attr.0.stream.handler_name.markup">VideoHandler</property>
  <property name="meta.attr.0.stream.vendor_id.markup">[0][0][0][0]</property>
  <property name="meta.attr.0.stream.encoder.markup">Lavc61.19.101 libx264</property>
  <property name="meta.media.1.stream.type">audio</property>
  <property name="meta.media.1.codec.sample_fmt">fltp</property>
  <property name="meta.media.1.codec.sample_rate">48000</property>
  <property name="meta.media.1.codec.channels">2</property>
  <property name="meta.media.1.codec.layout">stereo</property>
  <property name="meta.media.1.codec.name">aac</property>
  <property name="meta.media.1.codec.long_name">AAC (Advanced Audio Coding)</property>
  <property name="meta.media.1.codec.bit_rate">2276</property>
  <property name="meta.attr.1.stream.handler_name.markup">SoundHandler</property>
  <property name="meta.attr.1.stream.vendor_id.markup">[0][0][0][0]</property>
  <property name="meta.attr.minor_version.markup">512</property>
  <property name="meta.attr.major_brand.markup">isom</property>
  <property name="meta.attr.compatible_brands.markup">isomiso2avc1mp41</property>
  <property name="meta.attr.encoder.markup">Lavf61.9.100</property>
  <property name="seekable">1</property>
  <property name="meta.media.sample_aspect_num">1</property>
  <property name="meta.media.sample_aspect_den">1</property>
  <property name="audio_index">1</property>
  <property name="video_index">0</property>
  <property name="vstream">0</property>
  <property name="meta.media.frame_rate_num">60</property>
  <property name="meta.media.frame_rate_den">1</property>
  <property name="meta.media.colorspace">709</property>
  <property name="meta.media.color_trc">2</property>
  <property name="meta.media.has_b_frames">2</property>
  <property name="meta.media.width">5160</property>
  <property name="meta.media.height">2160</property>
  <property name="meta.media.aspect_ratio">1</property>
  <property name="meta.media.color_range">mpeg</property>
  <property name="astream">0</property>
  <property name="meta.media.top_field_first">0</property>
  <property name="meta.media.progressive">1</property>
  <property name="kdenlive:folderid">4</property>
  <property name="kdenlive:id">75</property>
  <property name="kdenlive:control_uuid">{9e1e0bc7-b12d-4925-90ed-751714542786}</property>
  <property name="mute_on_pause">0</property>
  <property name="kdenlive:clip_type">0</property>
  <property name="kdenlive:file_size">15207582</property>
  <property name="kdenlive:file_hash">f28883e5327ef3a372cb4cf5871760f1</property>
 </chain>
 <chain id="chain104" out="00:00:10.208">
  <property name="length">246</property>
  <property name="eof">pause</property>
  <property name="resource">C:/dev/workspace/indy/dist/room/attic/content/upscale/dialog.mp4</property>
  <property name="mlt_service">avformat-novalidate</property>
  <property name="meta.media.nb_streams">2</property>
  <property name="meta.media.0.stream.type">video</property>
  <property name="meta.media.0.stream.frame_rate">30</property>
  <property name="meta.media.0.stream.sample_aspect_ratio">0</property>
  <property name="meta.media.0.codec.width">3840</property>
  <property name="meta.media.0.codec.height">2160</property>
  <property name="meta.media.0.codec.rotate">0</property>
  <property name="meta.media.0.codec.pix_fmt">yuv420p</property>
  <property name="meta.media.0.codec.sample_aspect_ratio">0</property>
  <property name="meta.media.0.codec.colorspace">709</property>
  <property name="meta.media.0.codec.name">hevc</property>
  <property name="meta.media.0.codec.long_name">HEVC (High Efficiency Video Coding)</property>
  <property name="meta.media.0.codec.bit_rate">19672531</property>
  <property name="meta.attr.0.stream.handler_name.markup">VideoHandler</property>
  <property name="meta.attr.0.stream.vendor_id.markup">[0][0][0][0]</property>
  <property name="meta.attr.0.stream.encoder.markup">Lavc61.19.101 libx265</property>
  <property name="meta.media.1.stream.type">audio</property>
  <property name="meta.media.1.codec.sample_fmt">fltp</property>
  <property name="meta.media.1.codec.sample_rate">48000</property>
  <property name="meta.media.1.codec.channels">2</property>
  <property name="meta.media.1.codec.layout">stereo</property>
  <property name="meta.media.1.codec.name">aac</property>
  <property name="meta.media.1.codec.long_name">AAC (Advanced Audio Coding)</property>
  <property name="meta.media.1.codec.bit_rate">103123</property>
  <property name="meta.attr.1.stream.handler_name.markup">SoundHandler</property>
  <property name="meta.attr.1.stream.vendor_id.markup">[0][0][0][0]</property>
  <property name="meta.attr.minor_version.markup">512</property>
  <property name="meta.attr.major_brand.markup">isom</property>
  <property name="meta.attr.compatible_brands.markup">isomiso2mp41</property>
  <property name="meta.attr.encoder.markup">Lavf61.9.100</property>
  <property name="seekable">1</property>
  <property name="meta.media.sample_aspect_num">1</property>
  <property name="meta.media.sample_aspect_den">1</property>
  <property name="audio_index">1</property>
  <property name="video_index">0</property>
  <property name="vstream">0</property>
  <property name="meta.media.frame_rate_num">30</property>
  <property name="meta.media.frame_rate_den">1</property>
  <property name="meta.media.colorspace">709</property>
  <property name="meta.media.color_trc">2</property>
  <property name="meta.media.has_b_frames">2</property>
  <property name="meta.media.width">3840</property>
  <property name="meta.media.height">2160</property>
  <property name="meta.media.aspect_ratio">1</property>
  <property name="meta.media.color_range">mpeg</property>
  <property name="astream">0</property>
  <property name="meta.media.top_field_first">0</property>
  <property name="meta.media.progressive">1</property>
  <property name="kdenlive:folderid">4</property>
  <property name="kdenlive:id">76</property>
  <property name="kdenlive:control_uuid">{8b73b6be-b8a3-40bf-8d43-821c1c41b135}</property>
  <property name="mute_on_pause">0</property>
  <property name="kdenlive:clip_type">0</property>
  <property name="kdenlive:file_size">25394252</property>
  <property name="kdenlive:file_hash">896d33b1e3393fcbcda48ea88ad401d3</property>
  <property name="kdenlive:monitorPosition">0</property>
 </chain>
 <chain id="chain105" out="00:00:04.958">
  <property name="length">120</property>
  <property name="eof">pause</property>
  <property name="resource">C:/dev/workspace/indy/dist/room/attic/content/upscale/wide/dialog3-1.mp4</property>
  <property name="mlt_service">avformat-novalidate</property>
  <property name="meta.media.nb_streams">2</property>
  <property name="meta.media.0.stream.type">video</property>
  <property name="meta.media.0.stream.frame_rate">24</property>
  <property name="meta.media.0.stream.sample_aspect_ratio">0</property>
  <property name="meta.media.0.codec.width">5160</property>
  <property name="meta.media.0.codec.height">2160</property>
  <property name="meta.media.0.codec.rotate">0</property>
  <property name="meta.media.0.codec.pix_fmt">yuv420p</property>
  <property name="meta.media.0.codec.sample_aspect_ratio">0</property>
  <property name="meta.media.0.codec.colorspace">709</property>
  <property name="meta.media.0.codec.name">hevc</property>
  <property name="meta.media.0.codec.long_name">HEVC (High Efficiency Video Coding)</property>
  <property name="meta.media.0.codec.bit_rate">19779054</property>
  <property name="meta.attr.0.stream.handler_name.markup">VideoHandler</property>
  <property name="meta.attr.0.stream.vendor_id.markup">[0][0][0][0]</property>
  <property name="meta.attr.0.stream.encoder.markup">Lavc61.19.101 libx265</property>
  <property name="meta.media.1.stream.type">audio</property>
  <property name="meta.media.1.codec.sample_fmt">fltp</property>
  <property name="meta.media.1.codec.sample_rate">48000</property>
  <property name="meta.media.1.codec.channels">2</property>
  <property name="meta.media.1.codec.layout">stereo</property>
  <property name="meta.media.1.codec.name">aac</property>
  <property name="meta.media.1.codec.long_name">AAC (Advanced Audio Coding)</property>
  <property name="meta.media.1.codec.bit_rate">2277</property>
  <property name="meta.attr.1.stream.handler_name.markup">SoundHandler</property>
  <property name="meta.attr.1.stream.vendor_id.markup">[0][0][0][0]</property>
  <property name="meta.attr.minor_version.markup">512</property>
  <property name="meta.attr.major_brand.markup">isom</property>
  <property name="meta.attr.compatible_brands.markup">isomiso2mp41</property>
  <property name="meta.attr.encoder.markup">Lavf61.9.100</property>
  <property name="seekable">1</property>
  <property name="meta.media.sample_aspect_num">1</property>
  <property name="meta.media.sample_aspect_den">1</property>
  <property name="audio_index">1</property>
  <property name="video_index">0</property>
  <property name="vstream">0</property>
  <property name="meta.media.frame_rate_num">24</property>
  <property name="meta.media.frame_rate_den">1</property>
  <property name="meta.media.colorspace">709</property>
  <property name="meta.media.color_trc">2</property>
  <property name="meta.media.has_b_frames">2</property>
  <property name="meta.media.width">5160</property>
  <property name="meta.media.height">2160</property>
  <property name="meta.media.aspect_ratio">1</property>
  <property name="meta.media.color_range">mpeg</property>
  <property name="astream">0</property>
  <property name="meta.media.top_field_first">0</property>
  <property name="meta.media.progressive">1</property>
  <property name="kdenlive:folderid">4</property>
  <property name="kdenlive:id">77</property>
  <property name="kdenlive:control_uuid">{0bc2d9f2-6a0f-454d-ac98-34d0bff16cb8}</property>
  <property name="mute_on_pause">0</property>
  <property name="kdenlive:clip_type">0</property>
  <property name="kdenlive:file_size">12370970</property>
  <property name="kdenlive:file_hash">545c960e6cd9981053da4a98233a7a16</property>
 </chain>
 <chain id="chain106" out="00:00:05.250">
  <property name="length">127</property>
  <property name="eof">pause</property>
  <property name="resource">C:/dev/workspace/indy/dist/room/attic/content/upscale/wide/dialog3-2.mp4</property>
  <property name="mlt_service">avformat-novalidate</property>
  <property name="meta.media.nb_streams">2</property>
  <property name="meta.media.0.stream.type">video</property>
  <property name="meta.media.0.stream.frame_rate">24</property>
  <property name="meta.media.0.stream.sample_aspect_ratio">0</property>
  <property name="meta.media.0.codec.width">5160</property>
  <property name="meta.media.0.codec.height">2160</property>
  <property name="meta.media.0.codec.rotate">0</property>
  <property name="meta.media.0.codec.pix_fmt">yuv420p</property>
  <property name="meta.media.0.codec.sample_aspect_ratio">0</property>
  <property name="meta.media.0.codec.colorspace">709</property>
  <property name="meta.media.0.codec.name">hevc</property>
  <property name="meta.media.0.codec.long_name">HEVC (High Efficiency Video Coding)</property>
  <property name="meta.media.0.codec.bit_rate">18361050</property>
  <property name="meta.attr.0.stream.handler_name.markup">VideoHandler</property>
  <property name="meta.attr.0.stream.vendor_id.markup">[0][0][0][0]</property>
  <property name="meta.attr.0.stream.encoder.markup">Lavc61.19.101 libx265</property>
  <property name="meta.media.1.stream.type">audio</property>
  <property name="meta.media.1.codec.sample_fmt">fltp</property>
  <property name="meta.media.1.codec.sample_rate">48000</property>
  <property name="meta.media.1.codec.channels">2</property>
  <property name="meta.media.1.codec.layout">stereo</property>
  <property name="meta.media.1.codec.name">aac</property>
  <property name="meta.media.1.codec.long_name">AAC (Advanced Audio Coding)</property>
  <property name="meta.media.1.codec.bit_rate">2275</property>
  <property name="meta.attr.1.stream.handler_name.markup">SoundHandler</property>
  <property name="meta.attr.1.stream.vendor_id.markup">[0][0][0][0]</property>
  <property name="meta.attr.minor_version.markup">512</property>
  <property name="meta.attr.major_brand.markup">isom</property>
  <property name="meta.attr.compatible_brands.markup">isomiso2mp41</property>
  <property name="meta.attr.encoder.markup">Lavf61.9.100</property>
  <property name="seekable">1</property>
  <property name="meta.media.sample_aspect_num">1</property>
  <property name="meta.media.sample_aspect_den">1</property>
  <property name="audio_index">1</property>
  <property name="video_index">0</property>
  <property name="vstream">0</property>
  <property name="meta.media.frame_rate_num">24</property>
  <property name="meta.media.frame_rate_den">1</property>
  <property name="meta.media.colorspace">709</property>
  <property name="meta.media.color_trc">2</property>
  <property name="meta.media.has_b_frames">2</property>
  <property name="meta.media.width">5160</property>
  <property name="meta.media.height">2160</property>
  <property name="meta.media.aspect_ratio">1</property>
  <property name="meta.media.color_range">mpeg</property>
  <property name="astream">0</property>
  <property name="meta.media.top_field_first">0</property>
  <property name="meta.media.progressive">1</property>
  <property name="kdenlive:folderid">4</property>
  <property name="kdenlive:id">78</property>
  <property name="kdenlive:control_uuid">{1adec1a0-9e73-4702-a52d-2d6786c2be7b}</property>
  <property name="mute_on_pause">0</property>
  <property name="kdenlive:clip_type">0</property>
  <property name="kdenlive:file_size">12154424</property>
  <property name="kdenlive:file_hash">16cf206bacf207770850f05cc9af0a44</property>
 </chain>
 <chain id="chain107" out="00:00:08.958">
  <property name="length">216</property>
  <property name="eof">pause</property>
  <property name="resource">C:/dev/workspace/indy/dist/room/attic/content/upscale/wide/attic11-1.mp4</property>
  <property name="mlt_service">avformat-novalidate</property>
  <property name="meta.media.nb_streams">2</property>
  <property name="meta.media.0.stream.type">video</property>
  <property name="meta.media.0.stream.frame_rate">60</property>
  <property name="meta.media.0.stream.sample_aspect_ratio">0</property>
  <property name="meta.media.0.codec.width">5160</property>
  <property name="meta.media.0.codec.height">2160</property>
  <property name="meta.media.0.codec.rotate">0</property>
  <property name="meta.media.0.codec.pix_fmt">yuv444p</property>
  <property name="meta.media.0.codec.sample_aspect_ratio">0</property>
  <property name="meta.media.0.codec.colorspace">709</property>
  <property name="meta.media.0.codec.name">h264</property>
  <property name="meta.media.0.codec.long_name">H.264 / AVC / MPEG-4 AVC / MPEG-4 part 10</property>
  <property name="meta.media.0.codec.bit_rate">33893657</property>
  <property name="meta.attr.0.stream.handler_name.markup">VideoHandler</property>
  <property name="meta.attr.0.stream.vendor_id.markup">[0][0][0][0]</property>
  <property name="meta.attr.0.stream.encoder.markup">Lavc61.19.101 libx264</property>
  <property name="meta.media.1.stream.type">audio</property>
  <property name="meta.media.1.codec.sample_fmt">fltp</property>
  <property name="meta.media.1.codec.sample_rate">48000</property>
  <property name="meta.media.1.codec.channels">2</property>
  <property name="meta.media.1.codec.layout">stereo</property>
  <property name="meta.media.1.codec.name">aac</property>
  <property name="meta.media.1.codec.long_name">AAC (Advanced Audio Coding)</property>
  <property name="meta.media.1.codec.bit_rate">2265</property>
  <property name="meta.attr.1.stream.handler_name.markup">SoundHandler</property>
  <property name="meta.attr.1.stream.vendor_id.markup">[0][0][0][0]</property>
  <property name="meta.attr.minor_version.markup">512</property>
  <property name="meta.attr.major_brand.markup">isom</property>
  <property name="meta.attr.compatible_brands.markup">isomiso2avc1mp41</property>
  <property name="meta.attr.encoder.markup">Lavf61.9.100</property>
  <property name="seekable">1</property>
  <property name="meta.media.sample_aspect_num">1</property>
  <property name="meta.media.sample_aspect_den">1</property>
  <property name="audio_index">1</property>
  <property name="video_index">0</property>
  <property name="vstream">0</property>
  <property name="meta.media.frame_rate_num">60</property>
  <property name="meta.media.frame_rate_den">1</property>
  <property name="meta.media.colorspace">709</property>
  <property name="meta.media.color_trc">2</property>
  <property name="meta.media.has_b_frames">2</property>
  <property name="meta.media.width">5160</property>
  <property name="meta.media.height">2160</property>
  <property name="meta.media.aspect_ratio">1</property>
  <property name="meta.media.color_range">mpeg</property>
  <property name="astream">0</property>
  <property name="meta.media.top_field_first">0</property>
  <property name="meta.media.progressive">1</property>
  <property name="kdenlive:folderid">4</property>
  <property name="kdenlive:id">79</property>
  <property name="kdenlive:control_uuid">{017a4357-fc50-4b3f-b1f9-76c667b28b9b}</property>
  <property name="mute_on_pause">0</property>
  <property name="kdenlive:clip_type">0</property>
  <property name="kdenlive:file_size">38148891</property>
  <property name="kdenlive:file_hash">8066214d4d254130ff00c05bcabc54f8</property>
 </chain>
 <chain id="chain108" out="00:00:05.042">
  <property name="length">122</property>
  <property name="eof">pause</property>
  <property name="resource">C:/dev/workspace/indy/dist/room/attic/content/upscale/wide/attic12.mp4</property>
  <property name="mlt_service">avformat-novalidate</property>
  <property name="meta.media.nb_streams">2</property>
  <property name="meta.media.0.stream.type">video</property>
  <property name="meta.media.0.stream.frame_rate">60</property>
  <property name="meta.media.0.stream.sample_aspect_ratio">0</property>
  <property name="meta.media.0.codec.width">5160</property>
  <property name="meta.media.0.codec.height">2160</property>
  <property name="meta.media.0.codec.rotate">0</property>
  <property name="meta.media.0.codec.pix_fmt">yuv444p</property>
  <property name="meta.media.0.codec.sample_aspect_ratio">0</property>
  <property name="meta.media.0.codec.colorspace">709</property>
  <property name="meta.media.0.codec.name">h264</property>
  <property name="meta.media.0.codec.long_name">H.264 / AVC / MPEG-4 AVC / MPEG-4 part 10</property>
  <property name="meta.media.0.codec.bit_rate">23928425</property>
  <property name="meta.attr.0.stream.handler_name.markup">VideoHandler</property>
  <property name="meta.attr.0.stream.vendor_id.markup">[0][0][0][0]</property>
  <property name="meta.attr.0.stream.encoder.markup">Lavc61.19.101 libx264</property>
  <property name="meta.media.1.stream.type">audio</property>
  <property name="meta.media.1.codec.sample_fmt">fltp</property>
  <property name="meta.media.1.codec.sample_rate">48000</property>
  <property name="meta.media.1.codec.channels">2</property>
  <property name="meta.media.1.codec.layout">stereo</property>
  <property name="meta.media.1.codec.name">aac</property>
  <property name="meta.media.1.codec.long_name">AAC (Advanced Audio Coding)</property>
  <property name="meta.media.1.codec.bit_rate">2276</property>
  <property name="meta.attr.1.stream.handler_name.markup">SoundHandler</property>
  <property name="meta.attr.1.stream.vendor_id.markup">[0][0][0][0]</property>
  <property name="meta.attr.minor_version.markup">512</property>
  <property name="meta.attr.major_brand.markup">isom</property>
  <property name="meta.attr.compatible_brands.markup">isomiso2avc1mp41</property>
  <property name="meta.attr.encoder.markup">Lavf61.9.100</property>
  <property name="seekable">1</property>
  <property name="meta.media.sample_aspect_num">1</property>
  <property name="meta.media.sample_aspect_den">1</property>
  <property name="audio_index">1</property>
  <property name="video_index">0</property>
  <property name="vstream">0</property>
  <property name="meta.media.frame_rate_num">60</property>
  <property name="meta.media.frame_rate_den">1</property>
  <property name="meta.media.colorspace">709</property>
  <property name="meta.media.color_trc">2</property>
  <property name="meta.media.has_b_frames">2</property>
  <property name="meta.media.width">5160</property>
  <property name="meta.media.height">2160</property>
  <property name="meta.media.aspect_ratio">1</property>
  <property name="meta.media.color_range">mpeg</property>
  <property name="astream">0</property>
  <property name="meta.media.top_field_first">0</property>
  <property name="meta.media.progressive">1</property>
  <property name="kdenlive:folderid">4</property>
  <property name="kdenlive:id">80</property>
  <property name="kdenlive:control_uuid">{99033c3d-8dfc-4a46-8477-1c02f7bb170e}</property>
  <property name="mute_on_pause">0</property>
  <property name="kdenlive:clip_type">0</property>
  <property name="kdenlive:file_size">15265559</property>
  <property name="kdenlive:file_hash">211a41be7b4b1d1be8fbc50721280d89</property>
 </chain>
 <chain id="chain109" out="00:00:03.958">
  <property name="length">96</property>
  <property name="eof">pause</property>
  <property name="resource">C:/dev/workspace/indy/dist/room/attic/content/upscale/wide/dialog2.mp4</property>
  <property name="mlt_service">avformat-novalidate</property>
  <property name="meta.media.nb_streams">2</property>
  <property name="meta.media.0.stream.type">video</property>
  <property name="meta.media.0.stream.frame_rate">60</property>
  <property name="meta.media.0.stream.sample_aspect_ratio">0</property>
  <property name="meta.media.0.codec.width">5160</property>
  <property name="meta.media.0.codec.height">2160</property>
  <property name="meta.media.0.codec.rotate">0</property>
  <property name="meta.media.0.codec.pix_fmt">yuv444p</property>
  <property name="meta.media.0.codec.sample_aspect_ratio">0</property>
  <property name="meta.media.0.codec.colorspace">709</property>
  <property name="meta.media.0.codec.name">h264</property>
  <property name="meta.media.0.codec.long_name">H.264 / AVC / MPEG-4 AVC / MPEG-4 part 10</property>
  <property name="meta.media.0.codec.bit_rate">29952713</property>
  <property name="meta.attr.0.stream.handler_name.markup">VideoHandler</property>
  <property name="meta.attr.0.stream.vendor_id.markup">[0][0][0][0]</property>
  <property name="meta.attr.0.stream.encoder.markup">Lavc61.19.101 libx264</property>
  <property name="meta.media.1.stream.type">audio</property>
  <property name="meta.media.1.codec.sample_fmt">fltp</property>
  <property name="meta.media.1.codec.sample_rate">48000</property>
  <property name="meta.media.1.codec.channels">2</property>
  <property name="meta.media.1.codec.layout">stereo</property>
  <property name="meta.media.1.codec.name">aac</property>
  <property name="meta.media.1.codec.long_name">AAC (Advanced Audio Coding)</property>
  <property name="meta.media.1.codec.bit_rate">2250</property>
  <property name="meta.attr.1.stream.handler_name.markup">SoundHandler</property>
  <property name="meta.attr.1.stream.vendor_id.markup">[0][0][0][0]</property>
  <property name="meta.attr.minor_version.markup">512</property>
  <property name="meta.attr.major_brand.markup">isom</property>
  <property name="meta.attr.compatible_brands.markup">isomiso2avc1mp41</property>
  <property name="meta.attr.encoder.markup">Lavf61.9.100</property>
  <property name="seekable">1</property>
  <property name="meta.media.sample_aspect_num">1</property>
  <property name="meta.media.sample_aspect_den">1</property>
  <property name="audio_index">1</property>
  <property name="video_index">0</property>
  <property name="vstream">0</property>
  <property name="meta.media.frame_rate_num">60</property>
  <property name="meta.media.frame_rate_den">1</property>
  <property name="meta.media.colorspace">709</property>
  <property name="meta.media.color_trc">2</property>
  <property name="meta.media.has_b_frames">2</property>
  <property name="meta.media.width">5160</property>
  <property name="meta.media.height">2160</property>
  <property name="meta.media.aspect_ratio">1</property>
  <property name="meta.media.color_range">mpeg</property>
  <property name="astream">0</property>
  <property name="meta.media.top_field_first">0</property>
  <property name="meta.media.progressive">1</property>
  <property name="kdenlive:folderid">4</property>
  <property name="kdenlive:id">81</property>
  <property name="kdenlive:control_uuid">{5e279771-c57f-49fc-bb69-67783c0d79f0}</property>
  <property name="mute_on_pause">0</property>
  <property name="kdenlive:clip_type">0</property>
  <property name="kdenlive:file_size">15047151</property>
  <property name="kdenlive:file_hash">c08d4d5eb35b2f8a407d485c5ed0c595</property>
 </chain>
 <producer id="producer2" in="00:00:00.000" out="00:00:04.958">
  <property name="length">00:00:05.000</property>
  <property name="eof">pause</property>
  <property name="resource">C:/dev/workspace/indy/dist/room/attic/content/dialog2-wide.png</property>
  <property name="ttl">25</property>
  <property name="aspect_ratio">1</property>
  <property name="meta.media.progressive">1</property>
  <property name="seekable">1</property>
  <property name="format">2</property>
  <property name="meta.media.width">5160</property>
  <property name="meta.media.height">2160</property>
  <property name="mlt_service">qimage</property>
  <property name="kdenlive:duration">00:00:05.000</property>
  <property name="xml">was here</property>
  <property name="kdenlive:folderid">4</property>
  <property name="kdenlive:id">82</property>
  <property name="kdenlive:control_uuid">{55e07897-4c5e-4855-b30b-8b935bab6513}</property>
  <property name="kdenlive:clip_type">2</property>
  <property name="kdenlive:file_size">7109633</property>
  <property name="kdenlive:monitorPosition">0</property>
  <property name="kdenlive:file_hash">b317aecfa1015b39949e13f610ab1d0c</property>
 </producer>
 <chain id="chain110" out="00:00:05.042">
  <property name="length">122</property>
  <property name="eof">pause</property>
  <property name="resource">C:/dev/workspace/indy/dist/room/attic/content/upscale/wide/cross7.mp4</property>
  <property name="mlt_service">avformat-novalidate</property>
  <property name="meta.media.nb_streams">2</property>
  <property name="meta.media.0.stream.type">video</property>
  <property name="meta.media.0.stream.frame_rate">60</property>
  <property name="meta.media.0.stream.sample_aspect_ratio">0</property>
  <property name="meta.media.0.codec.width">5160</property>
  <property name="meta.media.0.codec.height">2160</property>
  <property name="meta.media.0.codec.rotate">0</property>
  <property name="meta.media.0.codec.pix_fmt">yuv444p</property>
  <property name="meta.media.0.codec.sample_aspect_ratio">0</property>
  <property name="meta.media.0.codec.colorspace">709</property>
  <property name="meta.media.0.codec.name">h264</property>
  <property name="meta.media.0.codec.long_name">H.264 / AVC / MPEG-4 AVC / MPEG-4 part 10</property>
  <property name="meta.media.0.codec.bit_rate">28334243</property>
  <property name="meta.attr.0.stream.handler_name.markup">VideoHandler</property>
  <property name="meta.attr.0.stream.vendor_id.markup">[0][0][0][0]</property>
  <property name="meta.attr.0.stream.encoder.markup">Lavc61.19.101 libx264</property>
  <property name="meta.media.1.stream.type">audio</property>
  <property name="meta.media.1.codec.sample_fmt">fltp</property>
  <property name="meta.media.1.codec.sample_rate">48000</property>
  <property name="meta.media.1.codec.channels">2</property>
  <property name="meta.media.1.codec.layout">stereo</property>
  <property name="meta.media.1.codec.name">aac</property>
  <property name="meta.media.1.codec.long_name">AAC (Advanced Audio Coding)</property>
  <property name="meta.media.1.codec.bit_rate">2276</property>
  <property name="meta.attr.1.stream.handler_name.markup">SoundHandler</property>
  <property name="meta.attr.1.stream.vendor_id.markup">[0][0][0][0]</property>
  <property name="meta.attr.minor_version.markup">512</property>
  <property name="meta.attr.major_brand.markup">isom</property>
  <property name="meta.attr.compatible_brands.markup">isomiso2avc1mp41</property>
  <property name="meta.attr.encoder.markup">Lavf61.9.100</property>
  <property name="seekable">1</property>
  <property name="meta.media.sample_aspect_num">1</property>
  <property name="meta.media.sample_aspect_den">1</property>
  <property name="audio_index">1</property>
  <property name="video_index">0</property>
  <property name="vstream">0</property>
  <property name="meta.media.frame_rate_num">60</property>
  <property name="meta.media.frame_rate_den">1</property>
  <property name="meta.media.colorspace">709</property>
  <property name="meta.media.color_trc">2</property>
  <property name="meta.media.has_b_frames">2</property>
  <property name="meta.media.width">5160</property>
  <property name="meta.media.height">2160</property>
  <property name="meta.media.aspect_ratio">1</property>
  <property name="meta.media.color_range">mpeg</property>
  <property name="astream">0</property>
  <property name="meta.media.top_field_first">0</property>
  <property name="meta.media.progressive">1</property>
  <property name="kdenlive:folderid">4</property>
  <property name="kdenlive:id">83</property>
  <property name="kdenlive:control_uuid">{404a8c4c-fa56-46ed-a4b9-67eb61a1cfef}</property>
  <property name="mute_on_pause">0</property>
  <property name="kdenlive:clip_type">0</property>
  <property name="kdenlive:file_size">18074284</property>
  <property name="kdenlive:file_hash">8db658993111f3259dc9fe380058c8ae</property>
 </chain>
 <chain id="chain111" out="00:00:09.542">
  <property name="length">230</property>
  <property name="eof">pause</property>
  <property name="resource">C:/dev/workspace/indy/dist/room/attic/content/upscale/wide/gargoyle6.mp4</property>
  <property name="mlt_service">avformat-novalidate</property>
  <property name="meta.media.nb_streams">2</property>
  <property name="meta.media.0.stream.type">video</property>
  <property name="meta.media.0.stream.frame_rate">60</property>
  <property name="meta.media.0.stream.sample_aspect_ratio">0</property>
  <property name="meta.media.0.codec.width">5160</property>
  <property name="meta.media.0.codec.height">2160</property>
  <property name="meta.media.0.codec.rotate">0</property>
  <property name="meta.media.0.codec.pix_fmt">yuv444p</property>
  <property name="meta.media.0.codec.sample_aspect_ratio">0</property>
  <property name="meta.media.0.codec.colorspace">709</property>
  <property name="meta.media.0.codec.name">h264</property>
  <property name="meta.media.0.codec.long_name">H.264 / AVC / MPEG-4 AVC / MPEG-4 part 10</property>
  <property name="meta.media.0.codec.bit_rate">26080268</property>
  <property name="meta.attr.0.stream.handler_name.markup">VideoHandler</property>
  <property name="meta.attr.0.stream.vendor_id.markup">[0][0][0][0]</property>
  <property name="meta.attr.0.stream.encoder.markup">Lavc61.19.101 libx264</property>
  <property name="meta.media.1.stream.type">audio</property>
  <property name="meta.media.1.codec.sample_fmt">fltp</property>
  <property name="meta.media.1.codec.sample_rate">48000</property>
  <property name="meta.media.1.codec.channels">2</property>
  <property name="meta.media.1.codec.layout">stereo</property>
  <property name="meta.media.1.codec.name">aac</property>
  <property name="meta.media.1.codec.long_name">AAC (Advanced Audio Coding)</property>
  <property name="meta.media.1.codec.bit_rate">2265</property>
  <property name="meta.attr.1.stream.handler_name.markup">SoundHandler</property>
  <property name="meta.attr.1.stream.vendor_id.markup">[0][0][0][0]</property>
  <property name="meta.attr.minor_version.markup">512</property>
  <property name="meta.attr.major_brand.markup">isom</property>
  <property name="meta.attr.compatible_brands.markup">isomiso2avc1mp41</property>
  <property name="meta.attr.encoder.markup">Lavf61.9.100</property>
  <property name="seekable">1</property>
  <property name="meta.media.sample_aspect_num">1</property>
  <property name="meta.media.sample_aspect_den">1</property>
  <property name="audio_index">1</property>
  <property name="video_index">0</property>
  <property name="vstream">0</property>
  <property name="meta.media.frame_rate_num">60</property>
  <property name="meta.media.frame_rate_den">1</property>
  <property name="meta.media.colorspace">709</property>
  <property name="meta.media.color_trc">2</property>
  <property name="meta.media.has_b_frames">2</property>
  <property name="meta.media.width">5160</property>
  <property name="meta.media.height">2160</property>
  <property name="meta.media.aspect_ratio">1</property>
  <property name="meta.media.color_range">mpeg</property>
  <property name="astream">0</property>
  <property name="meta.media.top_field_first">0</property>
  <property name="meta.media.progressive">1</property>
  <property name="kdenlive:folderid">4</property>
  <property name="kdenlive:id">84</property>
  <property name="kdenlive:control_uuid">{2e334969-7fd2-47d7-8d0a-cae72a5f7f49}</property>
  <property name="mute_on_pause">0</property>
  <property name="kdenlive:clip_type">0</property>
  <property name="kdenlive:file_size">31260942</property>
  <property name="kdenlive:file_hash">a2576581b4948abdd9725a312b31e501</property>
 </chain>
 <chain id="chain112" out="00:00:05.042">
  <property name="length">122</property>
  <property name="eof">pause</property>
  <property name="resource">C:/dev/workspace/indy/dist/room/attic2/content/upscale/wide/indy.mp4</property>
  <property name="mlt_service">avformat-novalidate</property>
  <property name="meta.media.nb_streams">1</property>
  <property name="meta.media.0.stream.type">video</property>
  <property name="meta.media.0.stream.frame_rate">60</property>
  <property name="meta.media.0.stream.sample_aspect_ratio">0</property>
  <property name="meta.media.0.codec.width">5160</property>
  <property name="meta.media.0.codec.height">2160</property>
  <property name="meta.media.0.codec.rotate">0</property>
  <property name="meta.media.0.codec.pix_fmt">yuv444p</property>
  <property name="meta.media.0.codec.sample_aspect_ratio">0</property>
  <property name="meta.media.0.codec.colorspace">709</property>
  <property name="meta.media.0.codec.name">h264</property>
  <property name="meta.media.0.codec.long_name">H.264 / AVC / MPEG-4 AVC / MPEG-4 part 10</property>
  <property name="meta.media.0.codec.bit_rate">30132963</property>
  <property name="meta.attr.0.stream.handler_name.markup">VideoHandler</property>
  <property name="meta.attr.0.stream.vendor_id.markup">[0][0][0][0]</property>
  <property name="meta.attr.0.stream.encoder.markup">Lavc61.19.101 libx264</property>
  <property name="meta.attr.minor_version.markup">512</property>
  <property name="meta.attr.major_brand.markup">isom</property>
  <property name="meta.attr.compatible_brands.markup">isomiso2avc1mp41</property>
  <property name="meta.attr.encoder.markup">Lavf61.9.100</property>
  <property name="seekable">1</property>
  <property name="meta.media.sample_aspect_num">1</property>
  <property name="meta.media.sample_aspect_den">1</property>
  <property name="audio_index">-1</property>
  <property name="video_index">0</property>
  <property name="vstream">0</property>
  <property name="meta.media.frame_rate_num">60</property>
  <property name="meta.media.frame_rate_den">1</property>
  <property name="meta.media.colorspace">709</property>
  <property name="meta.media.color_trc">2</property>
  <property name="meta.media.has_b_frames">2</property>
  <property name="meta.media.width">5160</property>
  <property name="meta.media.height">2160</property>
  <property name="meta.media.aspect_ratio">1</property>
  <property name="meta.media.color_range">mpeg</property>
  <property name="meta.media.top_field_first">0</property>
  <property name="meta.media.progressive">1</property>
  <property name="kdenlive:folderid">4</property>
  <property name="kdenlive:id">85</property>
  <property name="kdenlive:control_uuid">{0bf7c8a8-76e0-4d93-8782-da6eb447392c}</property>
  <property name="mute_on_pause">0</property>
  <property name="kdenlive:clip_type">2</property>
  <property name="kdenlive:file_size">19151951</property>
  <property name="kdenlive:file_hash">dbeab0e57545d1e5e736da2faa4422b5</property>
 </chain>
 <chain id="chain113" out="00:00:04.625">
  <property name="length">112</property>
  <property name="eof">pause</property>
  <property name="resource">C:/dev/workspace/indy/dist/room/attic2/content/upscale/wide/indy4.mp4</property>
  <property name="mlt_service">avformat-novalidate</property>
  <property name="meta.media.nb_streams">2</property>
  <property name="meta.media.0.stream.type">video</property>
  <property name="meta.media.0.stream.frame_rate">48</property>
  <property name="meta.media.0.stream.sample_aspect_ratio">0</property>
  <property name="meta.media.0.codec.width">5160</property>
  <property name="meta.media.0.codec.height">2160</property>
  <property name="meta.media.0.codec.rotate">0</property>
  <property name="meta.media.0.codec.pix_fmt">yuv444p</property>
  <property name="meta.media.0.codec.sample_aspect_ratio">0</property>
  <property name="meta.media.0.codec.colorspace">709</property>
  <property name="meta.media.0.codec.name">h264</property>
  <property name="meta.media.0.codec.long_name">H.264 / AVC / MPEG-4 AVC / MPEG-4 part 10</property>
  <property name="meta.media.0.codec.bit_rate">45708204</property>
  <property name="meta.attr.0.stream.handler_name.markup">VideoHandler</property>
  <property name="meta.attr.0.stream.vendor_id.markup">[0][0][0][0]</property>
  <property name="meta.attr.0.stream.encoder.markup">Lavc61.19.101 libx264</property>
  <property name="meta.media.1.stream.type">audio</property>
  <property name="meta.media.1.codec.sample_fmt">fltp</property>
  <property name="meta.media.1.codec.sample_rate">48000</property>
  <property name="meta.media.1.codec.channels">2</property>
  <property name="meta.media.1.codec.layout">stereo</property>
  <property name="meta.media.1.codec.name">aac</property>
  <property name="meta.media.1.codec.long_name">AAC (Advanced Audio Coding)</property>
  <property name="meta.media.1.codec.bit_rate">2279</property>
  <property name="meta.attr.1.stream.handler_name.markup">SoundHandler</property>
  <property name="meta.attr.1.stream.vendor_id.markup">[0][0][0][0]</property>
  <property name="meta.attr.minor_version.markup">512</property>
  <property name="meta.attr.major_brand.markup">isom</property>
  <property name="meta.attr.compatible_brands.markup">isomiso2avc1mp41</property>
  <property name="meta.attr.encoder.markup">Lavf61.9.100</property>
  <property name="seekable">1</property>
  <property name="meta.media.sample_aspect_num">1</property>
  <property name="meta.media.sample_aspect_den">1</property>
  <property name="audio_index">1</property>
  <property name="video_index">0</property>
  <property name="vstream">0</property>
  <property name="meta.media.frame_rate_num">48</property>
  <property name="meta.media.frame_rate_den">1</property>
  <property name="meta.media.colorspace">709</property>
  <property name="meta.media.color_trc">2</property>
  <property name="meta.media.has_b_frames">2</property>
  <property name="meta.media.width">5160</property>
  <property name="meta.media.height">2160</property>
  <property name="meta.media.aspect_ratio">1</property>
  <property name="meta.media.color_range">mpeg</property>
  <property name="astream">0</property>
  <property name="meta.media.top_field_first">0</property>
  <property name="meta.media.progressive">1</property>
  <property name="kdenlive:folderid">4</property>
  <property name="kdenlive:id">86</property>
  <property name="kdenlive:control_uuid">{0ec0567e-2b79-4a68-8520-02c5e24bd8c7}</property>
  <property name="mute_on_pause">0</property>
  <property name="kdenlive:clip_type">0</property>
  <property name="kdenlive:file_size">26671519</property>
  <property name="kdenlive:file_hash">d50ec30b0591ad374bbf6351906c6c44</property>
 </chain>
 <chain id="chain114" out="00:00:05.042">
  <property name="length">122</property>
  <property name="eof">pause</property>
  <property name="resource">C:/dev/workspace/indy/dist/room/attic2/content/upscale/wide/indy6.mp4</property>
  <property name="mlt_service">avformat-novalidate</property>
  <property name="meta.media.nb_streams">2</property>
  <property name="meta.media.0.stream.type">video</property>
  <property name="meta.media.0.stream.frame_rate">60</property>
  <property name="meta.media.0.stream.sample_aspect_ratio">0</property>
  <property name="meta.media.0.codec.width">5160</property>
  <property name="meta.media.0.codec.height">2160</property>
  <property name="meta.media.0.codec.rotate">0</property>
  <property name="meta.media.0.codec.pix_fmt">yuv444p</property>
  <property name="meta.media.0.codec.sample_aspect_ratio">0</property>
  <property name="meta.media.0.codec.colorspace">709</property>
  <property name="meta.media.0.codec.name">h264</property>
  <property name="meta.media.0.codec.long_name">H.264 / AVC / MPEG-4 AVC / MPEG-4 part 10</property>
  <property name="meta.media.0.codec.bit_rate">26639377</property>
  <property name="meta.attr.0.stream.handler_name.markup">VideoHandler</property>
  <property name="meta.attr.0.stream.vendor_id.markup">[0][0][0][0]</property>
  <property name="meta.attr.0.stream.encoder.markup">Lavc61.19.101 libx264</property>
  <property name="meta.media.1.stream.type">audio</property>
  <property name="meta.media.1.codec.sample_fmt">fltp</property>
  <property name="meta.media.1.codec.sample_rate">48000</property>
  <property name="meta.media.1.codec.channels">2</property>
  <property name="meta.media.1.codec.layout">stereo</property>
  <property name="meta.media.1.codec.name">aac</property>
  <property name="meta.media.1.codec.long_name">AAC (Advanced Audio Coding)</property>
  <property name="meta.media.1.codec.bit_rate">2276</property>
  <property name="meta.attr.1.stream.handler_name.markup">SoundHandler</property>
  <property name="meta.attr.1.stream.vendor_id.markup">[0][0][0][0]</property>
  <property name="meta.attr.minor_version.markup">512</property>
  <property name="meta.attr.major_brand.markup">isom</property>
  <property name="meta.attr.compatible_brands.markup">isomiso2avc1mp41</property>
  <property name="meta.attr.encoder.markup">Lavf61.9.100</property>
  <property name="seekable">1</property>
  <property name="meta.media.sample_aspect_num">1</property>
  <property name="meta.media.sample_aspect_den">1</property>
  <property name="audio_index">1</property>
  <property name="video_index">0</property>
  <property name="vstream">0</property>
  <property name="meta.media.frame_rate_num">60</property>
  <property name="meta.media.frame_rate_den">1</property>
  <property name="meta.media.colorspace">709</property>
  <property name="meta.media.color_trc">2</property>
  <property name="meta.media.has_b_frames">2</property>
  <property name="meta.media.width">5160</property>
  <property name="meta.media.height">2160</property>
  <property name="meta.media.aspect_ratio">1</property>
  <property name="meta.media.color_range">mpeg</property>
  <property name="astream">0</property>
  <property name="meta.media.top_field_first">0</property>
  <property name="meta.media.progressive">1</property>
  <property name="kdenlive:folderid">4</property>
  <property name="kdenlive:id">87</property>
  <property name="kdenlive:control_uuid">{7ebad5ea-c89a-4078-8d49-c906b1ff91a7}</property>
  <property name="mute_on_pause">0</property>
  <property name="kdenlive:clip_type">0</property>
  <property name="kdenlive:file_size">16993807</property>
  <property name="kdenlive:file_hash">efd26ab8c0e2e730c5b4daf3e1f4a545</property>
 </chain>
 <chain id="chain115" out="00:00:09.542">
  <property name="length">230</property>
  <property name="eof">pause</property>
  <property name="resource">C:/dev/workspace/indy/dist/room/attic2/content/upscale/wide/indy5.mp4</property>
  <property name="mlt_service">avformat-novalidate</property>
  <property name="meta.media.nb_streams">2</property>
  <property name="meta.media.0.stream.type">video</property>
  <property name="meta.media.0.stream.frame_rate">60</property>
  <property name="meta.media.0.stream.sample_aspect_ratio">0</property>
  <property name="meta.media.0.codec.width">5160</property>
  <property name="meta.media.0.codec.height">2160</property>
  <property name="meta.media.0.codec.rotate">0</property>
  <property name="meta.media.0.codec.pix_fmt">yuv444p</property>
  <property name="meta.media.0.codec.sample_aspect_ratio">0</property>
  <property name="meta.media.0.codec.colorspace">709</property>
  <property name="meta.media.0.codec.name">h264</property>
  <property name="meta.media.0.codec.long_name">H.264 / AVC / MPEG-4 AVC / MPEG-4 part 10</property>
  <property name="meta.media.0.codec.bit_rate">23033844</property>
  <property name="meta.attr.0.stream.handler_name.markup">VideoHandler</property>
  <property name="meta.attr.0.stream.vendor_id.markup">[0][0][0][0]</property>
  <property name="meta.attr.0.stream.encoder.markup">Lavc61.19.101 libx264</property>
  <property name="meta.media.1.stream.type">audio</property>
  <property name="meta.media.1.codec.sample_fmt">fltp</property>
  <property name="meta.media.1.codec.sample_rate">48000</property>
  <property name="meta.media.1.codec.channels">2</property>
  <property name="meta.media.1.codec.layout">stereo</property>
  <property name="meta.media.1.codec.name">aac</property>
  <property name="meta.media.1.codec.long_name">AAC (Advanced Audio Coding)</property>
  <property name="meta.media.1.codec.bit_rate">2265</property>
  <property name="meta.attr.1.stream.handler_name.markup">SoundHandler</property>
  <property name="meta.attr.1.stream.vendor_id.markup">[0][0][0][0]</property>
  <property name="meta.attr.minor_version.markup">512</property>
  <property name="meta.attr.major_brand.markup">isom</property>
  <property name="meta.attr.compatible_brands.markup">isomiso2avc1mp41</property>
  <property name="meta.attr.encoder.markup">Lavf61.9.100</property>
  <property name="seekable">1</property>
  <property name="meta.media.sample_aspect_num">1</property>
  <property name="meta.media.sample_aspect_den">1</property>
  <property name="audio_index">1</property>
  <property name="video_index">0</property>
  <property name="vstream">0</property>
  <property name="meta.media.frame_rate_num">60</property>
  <property name="meta.media.frame_rate_den">1</property>
  <property name="meta.media.colorspace">709</property>
  <property name="meta.media.color_trc">2</property>
  <property name="meta.media.has_b_frames">2</property>
  <property name="meta.media.width">5160</property>
  <property name="meta.media.height">2160</property>
  <property name="meta.media.aspect_ratio">1</property>
  <property name="meta.media.color_range">mpeg</property>
  <property name="astream">0</property>
  <property name="meta.media.top_field_first">0</property>
  <property name="meta.media.progressive">1</property>
  <property name="kdenlive:folderid">4</property>
  <property name="kdenlive:id">88</property>
  <property name="kdenlive:control_uuid">{63753bce-76fb-4b8a-880f-0328ed26bd88}</property>
  <property name="mute_on_pause">0</property>
  <property name="kdenlive:clip_type">0</property>
  <property name="kdenlive:file_size">27611596</property>
  <property name="kdenlive:file_hash">c4ff82228ae7078d9b2eec964d47d708</property>
 </chain>
 <chain id="chain116" out="00:00:09.958">
  <property name="length">250</property>
  <property name="eof">pause</property>
  <property name="resource">C:/dev/workspace/indy/dist/room/chase/content/upscale/wide/college4.mp4</property>
  <property name="mlt_service">avformat-novalidate</property>
  <property name="meta.media.nb_streams">2</property>
  <property name="meta.media.0.stream.type">video</property>
  <property name="meta.media.0.stream.frame_rate">60</property>
  <property name="meta.media.0.stream.sample_aspect_ratio">0</property>
  <property name="meta.media.0.codec.width">5160</property>
  <property name="meta.media.0.codec.height">2160</property>
  <property name="meta.media.0.codec.rotate">0</property>
  <property name="meta.media.0.codec.pix_fmt">yuv420p</property>
  <property name="meta.media.0.codec.sample_aspect_ratio">0</property>
  <property name="meta.media.0.codec.colorspace">709</property>
  <property name="meta.media.0.codec.name">hevc</property>
  <property name="meta.media.0.codec.long_name">HEVC (High Efficiency Video Coding)</property>
  <property name="meta.media.0.codec.bit_rate">39409790</property>
  <property name="meta.attr.0.stream.handler_name.markup">VideoHandler</property>
  <property name="meta.attr.0.stream.vendor_id.markup">[0][0][0][0]</property>
  <property name="meta.attr.0.stream.encoder.markup">Lavc61.19.101 libx265</property>
  <property name="meta.media.1.stream.type">audio</property>
  <property name="meta.media.1.codec.sample_fmt">fltp</property>
  <property name="meta.media.1.codec.sample_rate">48000</property>
  <property name="meta.media.1.codec.channels">2</property>
  <property name="meta.media.1.codec.layout">stereo</property>
  <property name="meta.media.1.codec.name">aac</property>
  <property name="meta.media.1.codec.long_name">AAC (Advanced Audio Coding)</property>
  <property name="meta.media.1.codec.bit_rate">2265</property>
  <property name="meta.attr.1.stream.handler_name.markup">SoundHandler</property>
  <property name="meta.attr.1.stream.vendor_id.markup">[0][0][0][0]</property>
  <property name="meta.attr.minor_version.markup">512</property>
  <property name="meta.attr.major_brand.markup">isom</property>
  <property name="meta.attr.compatible_brands.markup">isomiso2mp41</property>
  <property name="meta.attr.encoder.markup">Lavf62.0.102</property>
  <property name="seekable">1</property>
  <property name="meta.media.sample_aspect_num">1</property>
  <property name="meta.media.sample_aspect_den">1</property>
  <property name="audio_index">1</property>
  <property name="video_index">0</property>
  <property name="vstream">0</property>
  <property name="meta.media.frame_rate_num">60</property>
  <property name="meta.media.frame_rate_den">1</property>
  <property name="meta.media.colorspace">709</property>
  <property name="meta.media.color_trc">2</property>
  <property name="meta.media.has_b_frames">2</property>
  <property name="meta.media.width">5160</property>
  <property name="meta.media.height">2160</property>
  <property name="meta.media.aspect_ratio">1</property>
  <property name="meta.media.color_range">mpeg</property>
  <property name="astream">0</property>
  <property name="meta.media.top_field_first">0</property>
  <property name="meta.media.progressive">1</property>
  <property name="kdenlive:folderid">4</property>
  <property name="kdenlive:id">89</property>
  <property name="kdenlive:control_uuid">{a8d9ba59-151c-4b90-b0f9-1040d5e3469c}</property>
  <property name="mute_on_pause">0</property>
  <property name="kdenlive:clip_type">0</property>
  <property name="kdenlive:file_size">51336590</property>
  <property name="kdenlive:file_hash">b862f9687c3a34c96dd7d05007272173</property>
 </chain>
 <chain id="chain117" out="00:00:05.042">
  <property name="length">122</property>
  <property name="eof">pause</property>
  <property name="resource">C:/dev/workspace/indy/dist/room/chase/content/upscale/wide/college2.mp4</property>
  <property name="mlt_service">avformat-novalidate</property>
  <property name="meta.media.nb_streams">2</property>
  <property name="meta.media.0.stream.type">video</property>
  <property name="meta.media.0.stream.frame_rate">60</property>
  <property name="meta.media.0.stream.sample_aspect_ratio">0</property>
  <property name="meta.media.0.codec.width">5160</property>
  <property name="meta.media.0.codec.height">2160</property>
  <property name="meta.media.0.codec.rotate">0</property>
  <property name="meta.media.0.codec.pix_fmt">yuv420p</property>
  <property name="meta.media.0.codec.sample_aspect_ratio">0</property>
  <property name="meta.media.0.codec.colorspace">709</property>
  <property name="meta.media.0.codec.name">hevc</property>
  <property name="meta.media.0.codec.long_name">HEVC (High Efficiency Video Coding)</property>
  <property name="meta.media.0.codec.bit_rate">65755181</property>
  <property name="meta.attr.0.stream.handler_name.markup">VideoHandler</property>
  <property name="meta.attr.0.stream.vendor_id.markup">[0][0][0][0]</property>
  <property name="meta.attr.0.stream.encoder.markup">Lavc61.19.101 libx265</property>
  <property name="meta.media.1.stream.type">audio</property>
  <property name="meta.media.1.codec.sample_fmt">fltp</property>
  <property name="meta.media.1.codec.sample_rate">48000</property>
  <property name="meta.media.1.codec.channels">2</property>
  <property name="meta.media.1.codec.layout">stereo</property>
  <property name="meta.media.1.codec.name">aac</property>
  <property name="meta.media.1.codec.long_name">AAC (Advanced Audio Coding)</property>
  <property name="meta.media.1.codec.bit_rate">2276</property>
  <property name="meta.attr.1.stream.handler_name.markup">SoundHandler</property>
  <property name="meta.attr.1.stream.vendor_id.markup">[0][0][0][0]</property>
  <property name="meta.attr.minor_version.markup">512</property>
  <property name="meta.attr.major_brand.markup">isom</property>
  <property name="meta.attr.compatible_brands.markup">isomiso2mp41</property>
  <property name="meta.attr.encoder.markup">Lavf62.0.102</property>
  <property name="seekable">1</property>
  <property name="meta.media.sample_aspect_num">1</property>
  <property name="meta.media.sample_aspect_den">1</property>
  <property name="audio_index">1</property>
  <property name="video_index">0</property>
  <property name="vstream">0</property>
  <property name="meta.media.frame_rate_num">60</property>
  <property name="meta.media.frame_rate_den">1</property>
  <property name="meta.media.colorspace">709</property>
  <property name="meta.media.color_trc">2</property>
  <property name="meta.media.has_b_frames">2</property>
  <property name="meta.media.width">5160</property>
  <property name="meta.media.height">2160</property>
  <property name="meta.media.aspect_ratio">1</property>
  <property name="meta.media.color_range">mpeg</property>
  <property name="astream">0</property>
  <property name="meta.media.top_field_first">0</property>
  <property name="meta.media.progressive">1</property>
  <property name="kdenlive:folderid">4</property>
  <property name="kdenlive:id">90</property>
  <property name="kdenlive:control_uuid">{8af01e7e-23fb-4062-ab1d-5b8f1ad533f3}</property>
  <property name="mute_on_pause">0</property>
  <property name="kdenlive:clip_type">0</property>
  <property name="kdenlive:file_size">41932890</property>
  <property name="kdenlive:file_hash">253cc58109444fb1a175b2479ff0aaed</property>
 </chain>
 <chain id="chain118" out="00:00:05.042">
  <property name="length">122</property>
  <property name="eof">pause</property>
  <property name="resource">C:/dev/workspace/indy/dist/room/chase/content/upscale/wide/interior.mp4</property>
  <property name="mlt_service">avformat-novalidate</property>
  <property name="meta.media.nb_streams">2</property>
  <property name="meta.media.0.stream.type">video</property>
  <property name="meta.media.0.stream.frame_rate">30</property>
  <property name="meta.media.0.stream.sample_aspect_ratio">0</property>
  <property name="meta.media.0.codec.width">5160</property>
  <property name="meta.media.0.codec.height">2160</property>
  <property name="meta.media.0.codec.rotate">0</property>
  <property name="meta.media.0.codec.pix_fmt">yuv420p</property>
  <property name="meta.media.0.codec.sample_aspect_ratio">0</property>
  <property name="meta.media.0.codec.colorspace">709</property>
  <property name="meta.media.0.codec.name">hevc</property>
  <property name="meta.media.0.codec.long_name">HEVC (High Efficiency Video Coding)</property>
  <property name="meta.media.0.codec.bit_rate">26954947</property>
  <property name="meta.attr.0.stream.handler_name.markup">VideoHandler</property>
  <property name="meta.attr.0.stream.vendor_id.markup">[0][0][0][0]</property>
  <property name="meta.attr.0.stream.encoder.markup">Lavc61.19.101 libx265</property>
  <property name="meta.media.1.stream.type">audio</property>
  <property name="meta.media.1.codec.sample_fmt">fltp</property>
  <property name="meta.media.1.codec.sample_rate">48000</property>
  <property name="meta.media.1.codec.channels">2</property>
  <property name="meta.media.1.codec.layout">stereo</property>
  <property name="meta.media.1.codec.name">aac</property>
  <property name="meta.media.1.codec.long_name">AAC (Advanced Audio Coding)</property>
  <property name="meta.media.1.codec.bit_rate">2276</property>
  <property name="meta.attr.1.stream.handler_name.markup">SoundHandler</property>
  <property name="meta.attr.1.stream.vendor_id.markup">[0][0][0][0]</property>
  <property name="meta.attr.minor_version.markup">512</property>
  <property name="meta.attr.major_brand.markup">isom</property>
  <property name="meta.attr.compatible_brands.markup">isomiso2mp41</property>
  <property name="meta.attr.encoder.markup">Lavf62.0.102</property>
  <property name="seekable">1</property>
  <property name="meta.media.sample_aspect_num">1</property>
  <property name="meta.media.sample_aspect_den">1</property>
  <property name="audio_index">1</property>
  <property name="video_index">0</property>
  <property name="vstream">0</property>
  <property name="meta.media.frame_rate_num">30</property>
  <property name="meta.media.frame_rate_den">1</property>
  <property name="meta.media.colorspace">709</property>
  <property name="meta.media.color_trc">2</property>
  <property name="meta.media.has_b_frames">2</property>
  <property name="meta.media.width">5160</property>
  <property name="meta.media.height">2160</property>
  <property name="meta.media.aspect_ratio">1</property>
  <property name="meta.media.color_range">mpeg</property>
  <property name="astream">0</property>
  <property name="meta.media.top_field_first">0</property>
  <property name="meta.media.progressive">1</property>
  <property name="kdenlive:folderid">4</property>
  <property name="kdenlive:id">91</property>
  <property name="kdenlive:control_uuid">{aecacae2-e1d8-460b-906a-0da150404ea6}</property>
  <property name="mute_on_pause">0</property>
  <property name="kdenlive:clip_type">0</property>
  <property name="kdenlive:file_size">17194892</property>
  <property name="kdenlive:file_hash">4c156ef4a6a87d0b64a6061a4fa2c603</property>
 </chain>
 <chain id="chain119" out="00:00:05.042">
  <property name="length">122</property>
  <property name="eof">pause</property>
  <property name="resource">C:/dev/workspace/indy/dist/room/chase/content/upscale/wide/interior4.mp4</property>
  <property name="mlt_service">avformat-novalidate</property>
  <property name="meta.media.nb_streams">2</property>
  <property name="meta.media.0.stream.type">video</property>
  <property name="meta.media.0.stream.frame_rate">30</property>
  <property name="meta.media.0.stream.sample_aspect_ratio">0</property>
  <property name="meta.media.0.codec.width">5160</property>
  <property name="meta.media.0.codec.height">2160</property>
  <property name="meta.media.0.codec.rotate">0</property>
  <property name="meta.media.0.codec.pix_fmt">yuv420p</property>
  <property name="meta.media.0.codec.sample_aspect_ratio">0</property>
  <property name="meta.media.0.codec.colorspace">709</property>
  <property name="meta.media.0.codec.name">hevc</property>
  <property name="meta.media.0.codec.long_name">HEVC (High Efficiency Video Coding)</property>
  <property name="meta.media.0.codec.bit_rate">31426624</property>
  <property name="meta.attr.0.stream.handler_name.markup">VideoHandler</property>
  <property name="meta.attr.0.stream.vendor_id.markup">[0][0][0][0]</property>
  <property name="meta.attr.0.stream.encoder.markup">Lavc61.19.101 libx265</property>
  <property name="meta.media.1.stream.type">audio</property>
  <property name="meta.media.1.codec.sample_fmt">fltp</property>
  <property name="meta.media.1.codec.sample_rate">48000</property>
  <property name="meta.media.1.codec.channels">2</property>
  <property name="meta.media.1.codec.layout">stereo</property>
  <property name="meta.media.1.codec.name">aac</property>
  <property name="meta.media.1.codec.long_name">AAC (Advanced Audio Coding)</property>
  <property name="meta.media.1.codec.bit_rate">2276</property>
  <property name="meta.attr.1.stream.handler_name.markup">SoundHandler</property>
  <property name="meta.attr.1.stream.vendor_id.markup">[0][0][0][0]</property>
  <property name="meta.attr.minor_version.markup">512</property>
  <property name="meta.attr.major_brand.markup">isom</property>
  <property name="meta.attr.compatible_brands.markup">isomiso2mp41</property>
  <property name="meta.attr.encoder.markup">Lavf62.0.102</property>
  <property name="seekable">1</property>
  <property name="meta.media.sample_aspect_num">1</property>
  <property name="meta.media.sample_aspect_den">1</property>
  <property name="audio_index">1</property>
  <property name="video_index">0</property>
  <property name="vstream">0</property>
  <property name="meta.media.frame_rate_num">30</property>
  <property name="meta.media.frame_rate_den">1</property>
  <property name="meta.media.colorspace">709</property>
  <property name="meta.media.color_trc">2</property>
  <property name="meta.media.has_b_frames">2</property>
  <property name="meta.media.width">5160</property>
  <property name="meta.media.height">2160</property>
  <property name="meta.media.aspect_ratio">1</property>
  <property name="meta.media.color_range">mpeg</property>
  <property name="astream">0</property>
  <property name="meta.media.top_field_first">0</property>
  <property name="meta.media.progressive">1</property>
  <property name="kdenlive:folderid">4</property>
  <property name="kdenlive:id">92</property>
  <property name="kdenlive:control_uuid">{07748508-6ef1-4620-b70b-7eb3b84a35ac}</property>
  <property name="mute_on_pause">0</property>
  <property name="kdenlive:clip_type">0</property>
  <property name="kdenlive:file_size">20045594</property>
  <property name="kdenlive:file_hash">e7a44d268cf5cdf27534cbdaf025eb87</property>
 </chain>
 <chain id="chain120" out="00:00:09.542">
  <property name="length">230</property>
  <property name="eof">pause</property>
  <property name="resource">C:/dev/workspace/indy/dist/room/chase/content/upscale/wide/interior5.mp4</property>
  <property name="mlt_service">avformat-novalidate</property>
  <property name="meta.media.nb_streams">2</property>
  <property name="meta.media.0.stream.type">video</property>
  <property name="meta.media.0.stream.frame_rate">30</property>
  <property name="meta.media.0.stream.sample_aspect_ratio">0</property>
  <property name="meta.media.0.codec.width">5160</property>
  <property name="meta.media.0.codec.height">2160</property>
  <property name="meta.media.0.codec.rotate">0</property>
  <property name="meta.media.0.codec.pix_fmt">yuv420p</property>
  <property name="meta.media.0.codec.sample_aspect_ratio">0</property>
  <property name="meta.media.0.codec.colorspace">709</property>
  <property name="meta.media.0.codec.name">hevc</property>
  <property name="meta.media.0.codec.long_name">HEVC (High Efficiency Video Coding)</property>
  <property name="meta.media.0.codec.bit_rate">21800353</property>
  <property name="meta.attr.0.stream.handler_name.markup">VideoHandler</property>
  <property name="meta.attr.0.stream.vendor_id.markup">[0][0][0][0]</property>
  <property name="meta.attr.0.stream.encoder.markup">Lavc61.19.101 libx265</property>
  <property name="meta.media.1.stream.type">audio</property>
  <property name="meta.media.1.codec.sample_fmt">fltp</property>
  <property name="meta.media.1.codec.sample_rate">48000</property>
  <property name="meta.media.1.codec.channels">2</property>
  <property name="meta.media.1.codec.layout">stereo</property>
  <property name="meta.media.1.codec.name">aac</property>
  <property name="meta.media.1.codec.long_name">AAC (Advanced Audio Coding)</property>
  <property name="meta.media.1.codec.bit_rate">2265</property>
  <property name="meta.attr.1.stream.handler_name.markup">SoundHandler</property>
  <property name="meta.attr.1.stream.vendor_id.markup">[0][0][0][0]</property>
  <property name="meta.attr.minor_version.markup">512</property>
  <property name="meta.attr.major_brand.markup">isom</property>
  <property name="meta.attr.compatible_brands.markup">isomiso2mp41</property>
  <property name="meta.attr.encoder.markup">Lavf62.0.102</property>
  <property name="seekable">1</property>
  <property name="meta.media.sample_aspect_num">1</property>
  <property name="meta.media.sample_aspect_den">1</property>
  <property name="audio_index">1</property>
  <property name="video_index">0</property>
  <property name="vstream">0</property>
  <property name="meta.media.frame_rate_num">30</property>
  <property name="meta.media.frame_rate_den">1</property>
  <property name="meta.media.colorspace">709</property>
  <property name="meta.media.color_trc">2</property>
  <property name="meta.media.has_b_frames">2</property>
  <property name="meta.media.width">5160</property>
  <property name="meta.media.height">2160</property>
  <property name="meta.media.aspect_ratio">1</property>
  <property name="meta.media.color_range">mpeg</property>
  <property name="astream">0</property>
  <property name="meta.media.top_field_first">0</property>
  <property name="meta.media.progressive">1</property>
  <property name="kdenlive:folderid">4</property>
  <property name="kdenlive:id">93</property>
  <property name="kdenlive:control_uuid">{571fcfd8-2867-4ef9-a595-b60fb178f684}</property>
  <property name="mute_on_pause">0</property>
  <property name="kdenlive:clip_type">0</property>
  <property name="kdenlive:file_size">26086366</property>
  <property name="kdenlive:file_hash">629f7bd1b61b03b6a37e677c693ee16b</property>
 </chain>
 <chain id="chain121" out="00:00:05.042">
  <property name="length">122</property>
  <property name="eof">pause</property>
  <property name="resource">C:/dev/workspace/indy/dist/room/chase/content/upscale/wide/interior6.mp4</property>
  <property name="mlt_service">avformat-novalidate</property>
  <property name="meta.media.nb_streams">2</property>
  <property name="meta.media.0.stream.type">video</property>
  <property name="meta.media.0.stream.frame_rate">30</property>
  <property name="meta.media.0.stream.sample_aspect_ratio">0</property>
  <property name="meta.media.0.codec.width">5160</property>
  <property name="meta.media.0.codec.height">2160</property>
  <property name="meta.media.0.codec.rotate">0</property>
  <property name="meta.media.0.codec.pix_fmt">yuv420p</property>
  <property name="meta.media.0.codec.sample_aspect_ratio">0</property>
  <property name="meta.media.0.codec.colorspace">709</property>
  <property name="meta.media.0.codec.name">hevc</property>
  <property name="meta.media.0.codec.long_name">HEVC (High Efficiency Video Coding)</property>
  <property name="meta.media.0.codec.bit_rate">25578768</property>
  <property name="meta.attr.0.stream.handler_name.markup">VideoHandler</property>
  <property name="meta.attr.0.stream.vendor_id.markup">[0][0][0][0]</property>
  <property name="meta.attr.0.stream.encoder.markup">Lavc61.19.101 libx265</property>
  <property name="meta.media.1.stream.type">audio</property>
  <property name="meta.media.1.codec.sample_fmt">fltp</property>
  <property name="meta.media.1.codec.sample_rate">48000</property>
  <property name="meta.media.1.codec.channels">2</property>
  <property name="meta.media.1.codec.layout">stereo</property>
  <property name="meta.media.1.codec.name">aac</property>
  <property name="meta.media.1.codec.long_name">AAC (Advanced Audio Coding)</property>
  <property name="meta.media.1.codec.bit_rate">2276</property>
  <property name="meta.attr.1.stream.handler_name.markup">SoundHandler</property>
  <property name="meta.attr.1.stream.vendor_id.markup">[0][0][0][0]</property>
  <property name="meta.attr.minor_version.markup">512</property>
  <property name="meta.attr.major_brand.markup">isom</property>
  <property name="meta.attr.compatible_brands.markup">isomiso2mp41</property>
  <property name="meta.attr.encoder.markup">Lavf62.0.102</property>
  <property name="seekable">1</property>
  <property name="meta.media.sample_aspect_num">1</property>
  <property name="meta.media.sample_aspect_den">1</property>
  <property name="audio_index">1</property>
  <property name="video_index">0</property>
  <property name="vstream">0</property>
  <property name="meta.media.frame_rate_num">30</property>
  <property name="meta.media.frame_rate_den">1</property>
  <property name="meta.media.colorspace">709</property>
  <property name="meta.media.color_trc">2</property>
  <property name="meta.media.has_b_frames">2</property>
  <property name="meta.media.width">5160</property>
  <property name="meta.media.height">2160</property>
  <property name="meta.media.aspect_ratio">1</property>
  <property name="meta.media.color_range">mpeg</property>
  <property name="astream">0</property>
  <property name="meta.media.top_field_first">0</property>
  <property name="meta.media.progressive">1</property>
  <property name="kdenlive:folderid">4</property>
  <property name="kdenlive:id">94</property>
  <property name="kdenlive:control_uuid">{7cc0d786-57dc-472d-a447-c4fbe9c0e474}</property>
  <property name="mute_on_pause">0</property>
  <property name="kdenlive:clip_type">0</property>
  <property name="kdenlive:file_size">16317530</property>
  <property name="kdenlive:file_hash">1d9f89bb59ab53f347c4d72f1a2f8722</property>
 </chain>
 <chain id="chain122" out="00:00:05.042">
  <property name="length">122</property>
  <property name="eof">pause</property>
  <property name="resource">C:/dev/workspace/indy/dist/room/chase/content/upscale/wide/interior7.mp4</property>
  <property name="mlt_service">avformat-novalidate</property>
  <property name="meta.media.nb_streams">2</property>
  <property name="meta.media.0.stream.type">video</property>
  <property name="meta.media.0.stream.frame_rate">30</property>
  <property name="meta.media.0.stream.sample_aspect_ratio">0</property>
  <property name="meta.media.0.codec.width">5160</property>
  <property name="meta.media.0.codec.height">2160</property>
  <property name="meta.media.0.codec.rotate">0</property>
  <property name="meta.media.0.codec.pix_fmt">yuv420p</property>
  <property name="meta.media.0.codec.sample_aspect_ratio">0</property>
  <property name="meta.media.0.codec.colorspace">709</property>
  <property name="meta.media.0.codec.name">hevc</property>
  <property name="meta.media.0.codec.long_name">HEVC (High Efficiency Video Coding)</property>
  <property name="meta.media.0.codec.bit_rate">25609601</property>
  <property name="meta.attr.0.stream.handler_name.markup">VideoHandler</property>
  <property name="meta.attr.0.stream.vendor_id.markup">[0][0][0][0]</property>
  <property name="meta.attr.0.stream.encoder.markup">Lavc61.19.101 libx265</property>
  <property name="meta.media.1.stream.type">audio</property>
  <property name="meta.media.1.codec.sample_fmt">fltp</property>
  <property name="meta.media.1.codec.sample_rate">48000</property>
  <property name="meta.media.1.codec.channels">2</property>
  <property name="meta.media.1.codec.layout">stereo</property>
  <property name="meta.media.1.codec.name">aac</property>
  <property name="meta.media.1.codec.long_name">AAC (Advanced Audio Coding)</property>
  <property name="meta.media.1.codec.bit_rate">2276</property>
  <property name="meta.attr.1.stream.handler_name.markup">SoundHandler</property>
  <property name="meta.attr.1.stream.vendor_id.markup">[0][0][0][0]</property>
  <property name="meta.attr.minor_version.markup">512</property>
  <property name="meta.attr.major_brand.markup">isom</property>
  <property name="meta.attr.compatible_brands.markup">isomiso2mp41</property>
  <property name="meta.attr.encoder.markup">Lavf62.0.102</property>
  <property name="seekable">1</property>
  <property name="meta.media.sample_aspect_num">1</property>
  <property name="meta.media.sample_aspect_den">1</property>
  <property name="audio_index">1</property>
  <property name="video_index">0</property>
  <property name="vstream">0</property>
  <property name="meta.media.frame_rate_num">30</property>
  <property name="meta.media.frame_rate_den">1</property>
  <property name="meta.media.colorspace">709</property>
  <property name="meta.media.color_trc">2</property>
  <property name="meta.media.has_b_frames">2</property>
  <property name="meta.media.width">5160</property>
  <property name="meta.media.height">2160</property>
  <property name="meta.media.aspect_ratio">1</property>
  <property name="meta.media.color_range">mpeg</property>
  <property name="astream">0</property>
  <property name="meta.media.top_field_first">0</property>
  <property name="meta.media.progressive">1</property>
  <property name="kdenlive:folderid">4</property>
  <property name="kdenlive:id">95</property>
  <property name="kdenlive:control_uuid">{3c2ec637-d1ad-49e5-a19d-8870da4d65b8}</property>
  <property name="mute_on_pause">0</property>
  <property name="kdenlive:clip_type">0</property>
  <property name="kdenlive:file_size">16337218</property>
  <property name="kdenlive:file_hash">2094c534a15b201c3f3f6c0c653a13d0</property>
 </chain>
 <chain id="chain123" out="00:00:04.958">
  <property name="length">122</property>
  <property name="eof">pause</property>
  <property name="resource">C:/dev/workspace/indy/dist/room/chase/content/upscale/wide/interior8.mp4</property>
  <property name="mlt_service">avformat-novalidate</property>
  <property name="meta.media.nb_streams">2</property>
  <property name="meta.media.0.stream.type">video</property>
  <property name="meta.media.0.stream.frame_rate">30</property>
  <property name="meta.media.0.stream.sample_aspect_ratio">0</property>
  <property name="meta.media.0.codec.width">5160</property>
  <property name="meta.media.0.codec.height">2160</property>
  <property name="meta.media.0.codec.rotate">0</property>
  <property name="meta.media.0.codec.pix_fmt">yuv420p</property>
  <property name="meta.media.0.codec.sample_aspect_ratio">0</property>
  <property name="meta.media.0.codec.colorspace">709</property>
  <property name="meta.media.0.codec.name">hevc</property>
  <property name="meta.media.0.codec.long_name">HEVC (High Efficiency Video Coding)</property>
  <property name="meta.media.0.codec.bit_rate">28007681</property>
  <property name="meta.attr.0.stream.handler_name.markup">VideoHandler</property>
  <property name="meta.attr.0.stream.vendor_id.markup">[0][0][0][0]</property>
  <property name="meta.attr.0.stream.encoder.markup">Lavc61.19.101 libx265</property>
  <property name="meta.media.1.stream.type">audio</property>
  <property name="meta.media.1.codec.sample_fmt">fltp</property>
  <property name="meta.media.1.codec.sample_rate">48000</property>
  <property name="meta.media.1.codec.channels">2</property>
  <property name="meta.media.1.codec.layout">stereo</property>
  <property name="meta.media.1.codec.name">aac</property>
  <property name="meta.media.1.codec.long_name">AAC (Advanced Audio Coding)</property>
  <property name="meta.media.1.codec.bit_rate">2276</property>
  <property name="meta.attr.1.stream.handler_name.markup">SoundHandler</property>
  <property name="meta.attr.1.stream.vendor_id.markup">[0][0][0][0]</property>
  <property name="meta.attr.minor_version.markup">512</property>
  <property name="meta.attr.major_brand.markup">isom</property>
  <property name="meta.attr.compatible_brands.markup">isomiso2mp41</property>
  <property name="meta.attr.encoder.markup">Lavf62.0.102</property>
  <property name="seekable">1</property>
  <property name="meta.media.sample_aspect_num">1</property>
  <property name="meta.media.sample_aspect_den">1</property>
  <property name="audio_index">1</property>
  <property name="video_index">0</property>
  <property name="vstream">0</property>
  <property name="meta.media.frame_rate_num">30</property>
  <property name="meta.media.frame_rate_den">1</property>
  <property name="meta.media.colorspace">709</property>
  <property name="meta.media.color_trc">2</property>
  <property name="meta.media.has_b_frames">2</property>
  <property name="meta.media.width">5160</property>
  <property name="meta.media.height">2160</property>
  <property name="meta.media.aspect_ratio">1</property>
  <property name="meta.media.color_range">mpeg</property>
  <property name="astream">0</property>
  <property name="meta.media.top_field_first">0</property>
  <property name="meta.media.progressive">1</property>
  <property name="kdenlive:folderid">4</property>
  <property name="kdenlive:id">96</property>
  <property name="kdenlive:control_uuid">{317b59b2-c3db-4578-ac6b-1dc821f4ac02}</property>
  <property name="mute_on_pause">0</property>
  <property name="kdenlive:clip_type">0</property>
  <property name="kdenlive:file_size">17866034</property>
  <property name="kdenlive:file_hash">98423b2ca4807097a70a1f8343592201</property>
 </chain>
 <chain id="chain125" out="00:00:10.250">
  <property name="length">247</property>
  <property name="eof">pause</property>
  <property name="resource">C:/dev/workspace/indy/dist/room/attic/content/upscale/dialog3.mp4</property>
  <property name="mlt_service">avformat-novalidate</property>
  <property name="meta.media.nb_streams">2</property>
  <property name="meta.media.0.stream.type">video</property>
  <property name="meta.media.0.stream.frame_rate">24</property>
  <property name="meta.media.0.stream.sample_aspect_ratio">0</property>
  <property name="meta.media.0.codec.width">3840</property>
  <property name="meta.media.0.codec.height">2160</property>
  <property name="meta.media.0.codec.rotate">0</property>
  <property name="meta.media.0.codec.pix_fmt">yuv420p</property>
  <property name="meta.media.0.codec.sample_aspect_ratio">0</property>
  <property name="meta.media.0.codec.colorspace">709</property>
  <property name="meta.media.0.codec.name">hevc</property>
  <property name="meta.media.0.codec.long_name">HEVC (High Efficiency Video Coding)</property>
  <property name="meta.media.0.codec.bit_rate">19001611</property>
  <property name="meta.attr.0.stream.handler_name.markup">VideoHandler</property>
  <property name="meta.attr.0.stream.vendor_id.markup">[0][0][0][0]</property>
  <property name="meta.attr.0.stream.encoder.markup">Lavc61.19.101 libx265</property>
  <property name="meta.media.1.stream.type">audio</property>
  <property name="meta.media.1.codec.sample_fmt">fltp</property>
  <property name="meta.media.1.codec.sample_rate">48000</property>
  <property name="meta.media.1.codec.channels">2</property>
  <property name="meta.media.1.codec.layout">stereo</property>
  <property name="meta.media.1.codec.name">aac</property>
  <property name="meta.media.1.codec.long_name">AAC (Advanced Audio Coding)</property>
  <property name="meta.media.1.codec.bit_rate">103356</property>
  <property name="meta.attr.1.stream.handler_name.markup">SoundHandler</property>
  <property name="meta.attr.1.stream.vendor_id.markup">[0][0][0][0]</property>
  <property name="meta.attr.minor_version.markup">512</property>
  <property name="meta.attr.major_brand.markup">isom</property>
  <property name="meta.attr.compatible_brands.markup">isomiso2mp41</property>
  <property name="meta.attr.encoder.markup">Lavf61.9.100</property>
  <property name="seekable">1</property>
  <property name="meta.media.sample_aspect_num">1</property>
  <property name="meta.media.sample_aspect_den">1</property>
  <property name="audio_index">1</property>
  <property name="video_index">0</property>
  <property name="vstream">0</property>
  <property name="meta.media.frame_rate_num">24</property>
  <property name="meta.media.frame_rate_den">1</property>
  <property name="meta.media.colorspace">709</property>
  <property name="meta.media.color_trc">2</property>
  <property name="meta.media.has_b_frames">2</property>
  <property name="meta.media.width">3840</property>
  <property name="meta.media.height">2160</property>
  <property name="meta.media.aspect_ratio">1</property>
  <property name="meta.media.color_range">mpeg</property>
  <property name="astream">0</property>
  <property name="meta.media.top_field_first">0</property>
  <property name="meta.media.progressive">1</property>
  <property name="kdenlive:folderid">4</property>
  <property name="kdenlive:id">97</property>
  <property name="kdenlive:control_uuid">{72acb839-8189-441b-a2e8-69d54989afad}</property>
  <property name="mute_on_pause">0</property>
  <property name="kdenlive:clip_type">0</property>
  <property name="kdenlive:file_size">24589164</property>
  <property name="kdenlive:file_hash">96dae550e74932b442d1f81413161ecd</property>
 </chain>
 <producer id="producer0" in="00:00:00.000" out="00:07:24.000">
  <property name="length">2147483647</property>
  <property name="eof">continue</property>
  <property name="resource">black</property>
  <property name="aspect_ratio">1</property>
  <property name="mlt_service">color</property>
  <property name="kdenlive:playlistid">black_track</property>
  <property name="mlt_image_format">rgba</property>
  <property name="set.test_audio">0</property>
 </producer>
 <chain id="chain0" out="00:03:31.167">
  <property name="length">5069</property>
  <property name="eof">pause</property>
  <property name="resource">C:/dev/workspace/indy/dist/room/chase/content/audio/bike.mp3</property>
  <property name="mlt_service">avformat-novalidate</property>
  <property name="seekable">1</property>
  <property name="audio_index">0</property>
  <property name="video_index">-1</property>
  <property name="astream">0</property>
  <property name="kdenlive:control_uuid">{df31d7e1-7a89-4643-9726-9f9ea5b81835}</property>
  <property name="kdenlive:id">42</property>
  <property name="kdenlive:clip_type">1</property>
  <property name="kdenlive:file_size">6759235</property>
  <property name="kdenlive:file_hash">c4664a841663605d56f66c1936bee735</property>
  <property name="kdenlive:folderid">4</property>
  <property name="meta.media.nb_streams">1</property>
  <property name="meta.media.0.stream.type">audio</property>
  <property name="meta.media.0.codec.sample_fmt">fltp</property>
  <property name="meta.media.0.codec.sample_rate">44100</property>
  <property name="meta.media.0.codec.channels">1</property>
  <property name="meta.media.0.codec.layout">mono</property>
  <property name="meta.media.0.codec.name">mp3float</property>
  <property name="meta.media.0.codec.long_name">MP3 (MPEG audio layer 3)</property>
  <property name="meta.media.0.codec.bit_rate">256000</property>
  <property name="xml">was here</property>
  <property name="mute_on_pause">0</property>
  <property name="set.test_audio">0</property>
  <property name="set.test_image">1</property>
 </chain>
 <playlist id="playlist0">
  <property name="kdenlive:audio_track">1</property>
  <blank length="00:01:50.000"/>
  <entry in="00:00:05.375" out="00:00:06.250" producer="chain0">
   <property name="kdenlive:id">42</property>
   <filter id="filter2">
    <property name="window">75</property>
    <property name="max_gain">20dB</property>
    <property name="level">00:00:05.375=2.28571;00:00:05.833=-4</property>
    <property name="mlt_service">volume</property>
    <property name="kdenlive_id">volume</property>
    <property name="kdenlive:collapsed">0</property>
   </filter>
  </entry>
  <entry in="00:00:01.583" out="00:00:06.250" producer="chain0">
   <property name="kdenlive:id">42</property>
   <filter id="filter3">
    <property name="window">75</property>
    <property name="max_gain">20dB</property>
    <property name="level">00:00:01.583=-4</property>
    <property name="mlt_service">volume</property>
    <property name="kdenlive_id">volume</property>
   </filter>
  </entry>
  <entry in="00:00:01.583" out="00:00:03.917" producer="chain0">
   <property name="kdenlive:id">42</property>
   <filter id="filter4">
    <property name="window">75</property>
    <property name="max_gain">20dB</property>
    <property name="level">00:00:01.583=-4</property>
    <property name="mlt_service">volume</property>
    <property name="kdenlive_id">volume</property>
    <property name="kdenlive:collapsed">0</property>
   </filter>
  </entry>
  <entry in="00:00:03.625" out="00:00:06.250" producer="chain0">
   <property name="kdenlive:id">42</property>
   <filter id="filter5">
    <property name="window">75</property>
    <property name="max_gain">20dB</property>
    <property name="level">00:00:03.625=-4</property>
    <property name="mlt_service">volume</property>
    <property name="kdenlive_id">volume</property>
    <property name="kdenlive:collapsed">0</property>
   </filter>
  </entry>
  <entry in="00:00:01.583" out="00:00:02.875" producer="chain0">
   <property name="kdenlive:id">42</property>
   <filter id="filter6">
    <property name="window">75</property>
    <property name="max_gain">20dB</property>
    <property name="level">00:00:01.583=-4</property>
    <property name="mlt_service">volume</property>
    <property name="kdenlive_id">volume</property>
    <property name="kdenlive:collapsed">0</property>
   </filter>
  </entry>
  <entry in="00:00:02.500" out="00:00:06.250" producer="chain0">
   <property name="kdenlive:id">42</property>
   <filter id="filter7">
    <property name="window">75</property>
    <property name="max_gain">20dB</property>
    <property name="level">00:00:02.500=-4</property>
    <property name="mlt_service">volume</property>
    <property name="kdenlive_id">volume</property>
    <property name="kdenlive:collapsed">0</property>
   </filter>
  </entry>
  <entry in="00:00:01.583" out="00:00:02.750" producer="chain0">
   <property name="kdenlive:id">42</property>
   <filter id="filter8">
    <property name="window">75</property>
    <property name="max_gain">20dB</property>
    <property name="level">00:00:01.583=-4</property>
    <property name="mlt_service">volume</property>
    <property name="kdenlive_id">volume</property>
    <property name="kdenlive:collapsed">0</property>
   </filter>
  </entry>
  <entry in="00:00:03.375" out="00:00:06.250" producer="chain0">
   <property name="kdenlive:id">42</property>
   <filter id="filter9">
    <property name="window">75</property>
    <property name="max_gain">20dB</property>
    <property name="level">00:00:03.375=-4</property>
    <property name="mlt_service">volume</property>
    <property name="kdenlive_id">volume</property>
    <property name="kdenlive:collapsed">0</property>
   </filter>
  </entry>
  <entry in="00:00:01.583" out="00:00:02.625" producer="chain0">
   <property name="kdenlive:id">42</property>
   <filter id="filter10">
    <property name="window">75</property>
    <property name="max_gain">20dB</property>
    <property name="level">00:00:01.583=-4</property>
    <property name="mlt_service">volume</property>
    <property name="kdenlive_id">volume</property>
    <property name="kdenlive:collapsed">0</property>
   </filter>
  </entry>
  <entry in="00:00:03.083" out="00:00:06.250" producer="chain0">
   <property name="kdenlive:id">42</property>
   <filter id="filter11">
    <property name="window">75</property>
    <property name="max_gain">20dB</property>
    <property name="level">00:00:03.083=-4</property>
    <property name="mlt_service">volume</property>
    <property name="kdenlive_id">volume</property>
    <property name="kdenlive:collapsed">0</property>
   </filter>
  </entry>
  <entry in="00:00:01.583" out="00:00:02.333" producer="chain0">
   <property name="kdenlive:id">42</property>
   <filter id="filter12">
    <property name="window">75</property>
    <property name="max_gain">20dB</property>
    <property name="level">00:00:01.583=-4</property>
    <property name="mlt_service">volume</property>
    <property name="kdenlive_id">volume</property>
    <property name="kdenlive:collapsed">0</property>
   </filter>
  </entry>
 </playlist>
 <playlist id="playlist1">
  <property name="kdenlive:audio_track">1</property>
 </playlist>
 <tractor id="tractor0" in="00:00:00.000" out="00:02:14.958">
  <property name="kdenlive:audio_track">1</property>
  <property name="kdenlive:trackheight">67</property>
  <property name="kdenlive:timeline_active">1</property>
  <property name="kdenlive:collapsed">0</property>
  <property name="kdenlive:thumbs_format"/>
  <property name="kdenlive:audio_rec"/>
  <track hide="video" producer="playlist0"/>
  <track hide="video" producer="playlist1"/>
  <filter id="filter13">
   <property name="window">75</property>
   <property name="max_gain">20dB</property>
   <property name="mlt_service">volume</property>
   <property name="internal_added">237</property>
   <property name="disable">1</property>
  </filter>
  <filter id="filter14">
   <property name="channel">-1</property>
   <property name="mlt_service">panner</property>
   <property name="internal_added">237</property>
   <property name="start">0.5</property>
   <property name="disable">1</property>
  </filter>
  <filter id="filter0">
   <property name="iec_scale">0</property>
   <property name="mlt_service">audiolevel</property>
   <property name="dbpeak">1</property>
   <property name="disable">1</property>
  </filter>
 </tractor>
 <chain id="chain1" out="00:01:44.333">
  <property name="length">2505</property>
  <property name="eof">pause</property>
  <property name="resource">C:/dev/workspace/indy/dist/room/intro/content/audio/rain.mp3</property>
  <property name="mlt_service">avformat-novalidate</property>
  <property name="seekable">1</property>
  <property name="audio_index">0</property>
  <property name="video_index">-1</property>
  <property name="astream">0</property>
  <property name="kdenlive:control_uuid">{cdccd62d-19cb-4632-a130-dc27efc7aab3}</property>
  <property name="kdenlive:id">18</property>
  <property name="kdenlive:clip_type">1</property>
  <property name="kdenlive:file_size">3339493</property>
  <property name="kdenlive:file_hash">88c51648872e5e4a4a4e5d3f220a7d84</property>
  <property name="kdenlive:folderid">4</property>
  <property name="meta.media.nb_streams">1</property>
  <property name="meta.media.0.stream.type">audio</property>
  <property name="meta.media.0.codec.sample_fmt">fltp</property>
  <property name="meta.media.0.codec.sample_rate">44100</property>
  <property name="meta.media.0.codec.channels">2</property>
  <property name="meta.media.0.codec.layout">stereo</property>
  <property name="meta.media.0.codec.name">mp3float</property>
  <property name="meta.media.0.codec.long_name">MP3 (MPEG audio layer 3)</property>
  <property name="meta.media.0.codec.bit_rate">256000</property>
  <property name="xml">was here</property>
  <property name="mute_on_pause">0</property>
  <property name="set.test_audio">0</property>
  <property name="set.test_image">1</property>
 </chain>
 <chain id="chain2" out="00:00:15.167">
  <property name="length">365</property>
  <property name="eof">pause</property>
  <property name="resource">C:/dev/workspace/indy/dist/room/chase/content/audio/fire.mp3</property>
  <property name="mlt_service">avformat-novalidate</property>
  <property name="seekable">1</property>
  <property name="audio_index">0</property>
  <property name="video_index">-1</property>
  <property name="astream">0</property>
  <property name="kdenlive:control_uuid">{89b58955-0f12-43c0-81d2-95fcf017f554}</property>
  <property name="kdenlive:id">39</property>
  <property name="kdenlive:clip_type">1</property>
  <property name="kdenlive:file_size">486504</property>
  <property name="kdenlive:file_hash">ad89feba011006b7f4b7a2d2799aec1b</property>
  <property name="kdenlive:folderid">4</property>
  <property name="meta.media.nb_streams">1</property>
  <property name="meta.media.0.stream.type">audio</property>
  <property name="meta.media.0.codec.sample_fmt">fltp</property>
  <property name="meta.media.0.codec.sample_rate">44100</property>
  <property name="meta.media.0.codec.channels">2</property>
  <property name="meta.media.0.codec.layout">stereo</property>
  <property name="meta.media.0.codec.name">mp3float</property>
  <property name="meta.media.0.codec.long_name">MP3 (MPEG audio layer 3)</property>
  <property name="meta.media.0.codec.bit_rate">256000</property>
  <property name="xml">was here</property>
  <property name="mute_on_pause">0</property>
  <property name="set.test_audio">0</property>
  <property name="set.test_image">1</property>
 </chain>
 <chain id="chain3" out="00:03:31.167">
  <property name="length">5069</property>
  <property name="eof">pause</property>
  <property name="resource">C:/dev/workspace/indy/dist/room/chase/content/audio/bike.mp3</property>
  <property name="mlt_service">avformat-novalidate</property>
  <property name="seekable">1</property>
  <property name="audio_index">0</property>
  <property name="video_index">-1</property>
  <property name="astream">0</property>
  <property name="kdenlive:control_uuid">{df31d7e1-7a89-4643-9726-9f9ea5b81835}</property>
  <property name="kdenlive:id">42</property>
  <property name="kdenlive:clip_type">1</property>
  <property name="kdenlive:file_size">6759235</property>
  <property name="kdenlive:file_hash">c4664a841663605d56f66c1936bee735</property>
  <property name="kdenlive:folderid">4</property>
  <property name="meta.media.nb_streams">1</property>
  <property name="meta.media.0.stream.type">audio</property>
  <property name="meta.media.0.codec.sample_fmt">fltp</property>
  <property name="meta.media.0.codec.sample_rate">44100</property>
  <property name="meta.media.0.codec.channels">1</property>
  <property name="meta.media.0.codec.layout">mono</property>
  <property name="meta.media.0.codec.name">mp3float</property>
  <property name="meta.media.0.codec.long_name">MP3 (MPEG audio layer 3)</property>
  <property name="meta.media.0.codec.bit_rate">256000</property>
  <property name="xml">was here</property>
  <property name="mute_on_pause">0</property>
  <property name="set.test_audio">0</property>
  <property name="set.test_image">1</property>
 </chain>
 <playlist id="playlist2">
  <property name="kdenlive:audio_track">1</property>
  <blank length="00:00:56.000"/>
  <entry in="00:00:00.000" out="00:00:03.958" producer="chain1">
   <property name="kdenlive:id">18</property>
   <filter id="filter16">
    <property name="window">75</property>
    <property name="max_gain">20dB</property>
    <property name="level">00:00:00.000=-8</property>
    <property name="mlt_service">volume</property>
    <property name="kdenlive_id">volume</property>
    <property name="kdenlive:collapsed">0</property>
   </filter>
  </entry>
  <blank length="00:00:42.000"/>
  <entry in="00:00:00.000" out="00:00:03.958" producer="chain2">
   <property name="kdenlive:id">39</property>
   <filter id="filter17">
    <property name="window">75</property>
    <property name="max_gain">20dB</property>
    <property name="level">00:00:00.000=-2</property>
    <property name="mlt_service">volume</property>
    <property name="kdenlive_id">volume</property>
    <property name="kdenlive:collapsed">0</property>
   </filter>
  </entry>
  <entry in="00:00:00.000" out="00:00:03.958" producer="chain3">
   <property name="kdenlive:id">42</property>
   <filter id="filter1">
    <property name="window">75</property>
    <property name="max_gain">20dB</property>
    <property name="level">00:00:00.000=8</property>
    <property name="mlt_service">volume</property>
    <property name="kdenlive_id">volume</property>
    <property name="kdenlive:collapsed">0</property>
   </filter>
  </entry>
  <entry in="00:00:15.167" out="00:00:23.125" producer="chain1">
   <property name="kdenlive:id">18</property>
   <filter id="filter18">
    <property name="window">75</property>
    <property name="max_gain">20dB</property>
    <property name="level">00:00:15.167=-3.84173;00:00:15.625=-8.0125</property>
    <property name="mlt_service">volume</property>
    <property name="kdenlive_id">volume</property>
    <property name="kdenlive:collapsed">0</property>
   </filter>
  </entry>
  <entry in="00:00:22.833" out="00:00:23.792" producer="chain1">
   <property name="kdenlive:id">18</property>
   <filter id="filter19">
    <property name="window">75</property>
    <property name="max_gain">20dB</property>
    <property name="level">00:00:22.833=-8.0125</property>
    <property name="mlt_service">volume</property>
    <property name="kdenlive_id">volume</property>
    <property name="kdenlive:collapsed">0</property>
   </filter>
  </entry>
  <entry in="00:00:00.375" out="00:00:03.333" producer="chain1">
   <property name="kdenlive:id">18</property>
   <filter id="filter20">
    <property name="window">75</property>
    <property name="max_gain">20dB</property>
    <property name="level">00:00:00.375=-8</property>
    <property name="mlt_service">volume</property>
    <property name="kdenlive_id">volume</property>
    <property name="kdenlive:collapsed">0</property>
   </filter>
  </entry>
  <entry in="00:00:02.958" out="00:00:07.917" producer="chain1">
   <property name="kdenlive:id">18</property>
   <filter id="filter21">
    <property name="window">75</property>
    <property name="max_gain">20dB</property>
    <property name="level">00:00:02.958=-8</property>
    <property name="mlt_service">volume</property>
    <property name="kdenlive_id">volume</property>
    <property name="kdenlive:collapsed">0</property>
   </filter>
  </entry>
  <entry in="00:00:08.542" out="00:00:12.500" producer="chain1">
   <property name="kdenlive:id">18</property>
   <filter id="filter22">
    <property name="window">75</property>
    <property name="max_gain">20dB</property>
    <property name="level">00:00:08.542=-8</property>
    <property name="mlt_service">volume</property>
    <property name="kdenlive_id">volume</property>
    <property name="kdenlive:collapsed">0</property>
   </filter>
  </entry>
  <entry in="00:00:12.958" out="00:00:16.917" producer="chain1">
   <property name="kdenlive:id">18</property>
   <filter id="filter23">
    <property name="window">75</property>
    <property name="max_gain">20dB</property>
    <property name="level">00:00:12.958=-8</property>
    <property name="mlt_service">volume</property>
    <property name="kdenlive_id">volume</property>
    <property name="kdenlive:collapsed">0</property>
   </filter>
  </entry>
 </playlist>
 <playlist id="playlist3">
  <property name="kdenlive:audio_track">1</property>
 </playlist>
 <tractor id="tractor1" in="00:00:00.000" out="00:02:14.958">
  <property name="kdenlive:audio_track">1</property>
  <property name="kdenlive:trackheight">67</property>
  <property name="kdenlive:timeline_active">1</property>
  <property name="kdenlive:collapsed">0</property>
  <property name="kdenlive:thumbs_format"/>
  <property name="kdenlive:audio_rec"/>
  <track hide="video" producer="playlist2"/>
  <track hide="video" producer="playlist3"/>
  <filter id="filter24">
   <property name="window">75</property>
   <property name="max_gain">20dB</property>
   <property name="mlt_service">volume</property>
   <property name="internal_added">237</property>
   <property name="disable">1</property>
  </filter>
  <filter id="filter25">
   <property name="channel">-1</property>
   <property name="mlt_service">panner</property>
   <property name="internal_added">237</property>
   <property name="start">0.5</property>
   <property name="disable">1</property>
  </filter>
  <filter id="filter15">
   <property name="iec_scale">0</property>
   <property name="mlt_service">audiolevel</property>
   <property name="dbpeak">1</property>
   <property name="disable">1</property>
  </filter>
 </tractor>
 <chain id="chain4" out="00:01:44.333">
  <property name="length">2505</property>
  <property name="eof">pause</property>
  <property name="resource">C:/dev/workspace/indy/dist/room/intro/content/audio/rain.mp3</property>
  <property name="mlt_service">avformat-novalidate</property>
  <property name="seekable">1</property>
  <property name="audio_index">0</property>
  <property name="video_index">-1</property>
  <property name="astream">0</property>
  <property name="kdenlive:control_uuid">{cdccd62d-19cb-4632-a130-dc27efc7aab3}</property>
  <property name="kdenlive:id">18</property>
  <property name="kdenlive:clip_type">1</property>
  <property name="kdenlive:file_size">3339493</property>
  <property name="kdenlive:file_hash">88c51648872e5e4a4a4e5d3f220a7d84</property>
  <property name="kdenlive:folderid">4</property>
  <property name="meta.media.nb_streams">1</property>
  <property name="meta.media.0.stream.type">audio</property>
  <property name="meta.media.0.codec.sample_fmt">fltp</property>
  <property name="meta.media.0.codec.sample_rate">44100</property>
  <property name="meta.media.0.codec.channels">2</property>
  <property name="meta.media.0.codec.layout">stereo</property>
  <property name="meta.media.0.codec.name">mp3float</property>
  <property name="meta.media.0.codec.long_name">MP3 (MPEG audio layer 3)</property>
  <property name="meta.media.0.codec.bit_rate">256000</property>
  <property name="xml">was here</property>
  <property name="mute_on_pause">0</property>
  <property name="set.test_audio">0</property>
  <property name="set.test_image">1</property>
 </chain>
 <chain id="chain5" out="00:00:03.000">
  <property name="length">73</property>
  <property name="eof">pause</property>
  <property name="resource">C:/dev/workspace/indy/dist/room/attic/content/audio/splash2.mp3</property>
  <property name="mlt_service">avformat-novalidate</property>
  <property name="seekable">1</property>
  <property name="audio_index">0</property>
  <property name="video_index">-1</property>
  <property name="astream">0</property>
  <property name="kdenlive:control_uuid">{8cfed3c7-3f36-4365-9ce5-620d89654764}</property>
  <property name="kdenlive:id">20</property>
  <property name="kdenlive:clip_type">1</property>
  <property name="kdenlive:file_size">122253</property>
  <property name="kdenlive:file_hash">8a78e8a526a6dee69ddf8924eac22dce</property>
  <property name="kdenlive:folderid">4</property>
  <property name="meta.media.nb_streams">1</property>
  <property name="meta.media.0.stream.type">audio</property>
  <property name="meta.media.0.codec.sample_fmt">fltp</property>
  <property name="meta.media.0.codec.sample_rate">44100</property>
  <property name="meta.media.0.codec.channels">2</property>
  <property name="meta.media.0.codec.layout">stereo</property>
  <property name="meta.media.0.codec.name">mp3float</property>
  <property name="meta.media.0.codec.long_name">MP3 (MPEG audio layer 3)</property>
  <property name="meta.media.0.codec.bit_rate">320000</property>
  <property name="xml">was here</property>
  <property name="mute_on_pause">0</property>
  <property name="set.test_audio">0</property>
  <property name="set.test_image">1</property>
 </chain>
 <chain id="chain6" out="00:00:04.625">
  <property name="length">112</property>
  <property name="eof">pause</property>
  <property name="resource">C:/dev/workspace/indy/dist/room/attic/content/voice/attic.mp3</property>
  <property name="mlt_service">avformat-novalidate</property>
  <property name="seekable">1</property>
  <property name="audio_index">0</property>
  <property name="video_index">-1</property>
  <property name="astream">0</property>
  <property name="kdenlive:control_uuid">{08b2d8a6-cb94-4b5f-bed7-4b6f59ade682}</property>
  <property name="kdenlive:id">14</property>
  <property name="kdenlive:clip_type">1</property>
  <property name="kdenlive:file_size">37424</property>
  <property name="kdenlive:file_hash">c4fd485530845196267c27f7a6e84346</property>
  <property name="kdenlive:folderid">4</property>
  <property name="meta.media.nb_streams">1</property>
  <property name="meta.media.0.stream.type">audio</property>
  <property name="meta.media.0.codec.sample_fmt">fltp</property>
  <property name="meta.media.0.codec.sample_rate">44100</property>
  <property name="meta.media.0.codec.channels">1</property>
  <property name="meta.media.0.codec.layout">mono</property>
  <property name="meta.media.0.codec.name">mp3float</property>
  <property name="meta.media.0.codec.long_name">MP3 (MPEG audio layer 3)</property>
  <property name="meta.media.0.codec.bit_rate">64000</property>
  <property name="meta.attr.encoder.markup">Lavf61.1.100</property>
  <property name="xml">was here</property>
  <property name="mute_on_pause">0</property>
  <property name="set.test_audio">0</property>
  <property name="set.test_image">1</property>
 </chain>
 <chain id="chain7" out="00:00:14.042">
  <property name="length">338</property>
  <property name="eof">pause</property>
  <property name="resource">C:/dev/workspace/indy/dist/room/attic/content/audio/step2.mp4</property>
  <property name="mlt_service">avformat-novalidate</property>
  <property name="seekable">1</property>
  <property name="audio_index">1</property>
  <property name="video_index">0</property>
  <property name="vstream">0</property>
  <property name="astream">0</property>
  <property name="kdenlive:control_uuid">{05a85b7c-9aa7-491b-ba8b-0dccc44eb205}</property>
  <property name="kdenlive:id">23</property>
  <property name="kdenlive:clip_type">0</property>
  <property name="kdenlive:file_size">3631982</property>
  <property name="kdenlive:file_hash">c1c55660fe4c92c03ffeecc1ef93ab83</property>
  <property name="kdenlive:folderid">4</property>
  <property name="meta.media.nb_streams">2</property>
  <property name="meta.media.0.stream.type">video</property>
  <property name="meta.media.0.stream.frame_rate">30</property>
  <property name="meta.media.0.stream.sample_aspect_ratio">0</property>
  <property name="meta.media.0.codec.width">1280</property>
  <property name="meta.media.0.codec.height">720</property>
  <property name="meta.media.0.codec.rotate">0</property>
  <property name="meta.media.0.codec.pix_fmt">yuv420p</property>
  <property name="meta.media.0.codec.sample_aspect_ratio">0</property>
  <property name="meta.media.0.codec.colorspace">709</property>
  <property name="meta.media.0.codec.name">h264</property>
  <property name="meta.media.0.codec.long_name">H.264 / AVC / MPEG-4 AVC / MPEG-4 part 10</property>
  <property name="meta.media.0.codec.bit_rate">1952151</property>
  <property name="meta.attr.0.stream.handler_name.markup">VideoHandler</property>
  <property name="meta.attr.0.stream.vendor_id.markup">[0][0][0][0]</property>
  <property name="meta.attr.0.stream.encoder.markup">Lavc59.37.100 libx264</property>
  <property name="meta.media.1.stream.type">audio</property>
  <property name="meta.media.1.codec.sample_fmt">fltp</property>
  <property name="meta.media.1.codec.sample_rate">44100</property>
  <property name="meta.media.1.codec.channels">2</property>
  <property name="meta.media.1.codec.layout">stereo</property>
  <property name="meta.media.1.codec.name">aac</property>
  <property name="meta.media.1.codec.long_name">AAC (Advanced Audio Coding)</property>
  <property name="meta.media.1.codec.bit_rate">127730</property>
  <property name="meta.attr.1.stream.handler_name.markup">SoundHandler</property>
  <property name="meta.attr.1.stream.vendor_id.markup">[0][0][0][0]</property>
  <property name="meta.attr.major_brand.markup">isom</property>
  <property name="meta.attr.minor_version.markup">512</property>
  <property name="meta.attr.compatible_brands.markup">isomiso2avc1mp41</property>
  <property name="meta.attr.encoder.markup">Lavf59.27.100</property>
  <property name="meta.media.sample_aspect_num">1</property>
  <property name="meta.media.sample_aspect_den">1</property>
  <property name="meta.media.frame_rate_num">30</property>
  <property name="meta.media.frame_rate_den">1</property>
  <property name="meta.media.colorspace">709</property>
  <property name="meta.media.color_trc">2</property>
  <property name="meta.media.has_b_frames">2</property>
  <property name="meta.media.width">1280</property>
  <property name="meta.media.height">720</property>
  <property name="meta.media.aspect_ratio">1</property>
  <property name="meta.media.color_range">mpeg</property>
  <property name="xml">was here</property>
  <property name="mute_on_pause">0</property>
  <property name="meta.media.top_field_first">0</property>
  <property name="meta.media.progressive">1</property>
  <property name="set.test_audio">0</property>
  <property name="set.test_image">1</property>
 </chain>
 <chain id="chain8" out="00:00:03.625">
  <property name="length">88</property>
  <property name="eof">pause</property>
  <property name="resource">C:/dev/workspace/indy/dist/room/chase/content/voice/chase.mp3</property>
  <property name="mlt_service">avformat-novalidate</property>
  <property name="seekable">1</property>
  <property name="audio_index">0</property>
  <property name="video_index">-1</property>
  <property name="astream">0</property>
  <property name="kdenlive:control_uuid">{0b1f3561-d4ee-4bfa-8c03-99bf54d9f4fb}</property>
  <property name="kdenlive:id">47</property>
  <property name="kdenlive:clip_type">1</property>
  <property name="kdenlive:file_size">29692</property>
  <property name="kdenlive:file_hash">f2f8011546584a0a3f788f0b94ab74a7</property>
  <property name="kdenlive:folderid">4</property>
  <property name="meta.media.nb_streams">1</property>
  <property name="meta.media.0.stream.type">audio</property>
  <property name="meta.media.0.codec.sample_fmt">fltp</property>
  <property name="meta.media.0.codec.sample_rate">44100</property>
  <property name="meta.media.0.codec.channels">1</property>
  <property name="meta.media.0.codec.layout">mono</property>
  <property name="meta.media.0.codec.name">mp3float</property>
  <property name="meta.media.0.codec.long_name">MP3 (MPEG audio layer 3)</property>
  <property name="meta.media.0.codec.bit_rate">64000</property>
  <property name="meta.attr.encoder.markup">Lavf61.1.100</property>
  <property name="xml">was here</property>
  <property name="mute_on_pause">0</property>
  <property name="set.test_audio">0</property>
  <property name="set.test_image">1</property>
 </chain>
 <chain id="chain9" out="00:00:03.167">
  <property name="length">77</property>
  <property name="eof">pause</property>
  <property name="resource">C:/dev/workspace/indy/dist/room/chase/content/voice/chase2.mp3</property>
  <property name="mlt_service">avformat-novalidate</property>
  <property name="seekable">1</property>
  <property name="audio_index">0</property>
  <property name="video_index">-1</property>
  <property name="astream">0</property>
  <property name="kdenlive:control_uuid">{a65441ca-decd-417b-a5e5-2d74cba61ed2}</property>
  <property name="kdenlive:id">46</property>
  <property name="kdenlive:clip_type">1</property>
  <property name="kdenlive:file_size">25930</property>
  <property name="kdenlive:file_hash">d1f88924c9967e500dd2edb108a2a91c</property>
  <property name="kdenlive:folderid">4</property>
  <property name="meta.media.nb_streams">1</property>
  <property name="meta.media.0.stream.type">audio</property>
  <property name="meta.media.0.codec.sample_fmt">fltp</property>
  <property name="meta.media.0.codec.sample_rate">44100</property>
  <property name="meta.media.0.codec.channels">1</property>
  <property name="meta.media.0.codec.layout">mono</property>
  <property name="meta.media.0.codec.name">mp3float</property>
  <property name="meta.media.0.codec.long_name">MP3 (MPEG audio layer 3)</property>
  <property name="meta.media.0.codec.bit_rate">64000</property>
  <property name="meta.attr.encoder.markup">Lavf61.1.100</property>
  <property name="xml">was here</property>
  <property name="mute_on_pause">0</property>
  <property name="set.test_audio">0</property>
  <property name="set.test_image">1</property>
 </chain>
 <chain id="chain10" out="00:00:01.833">
  <property name="length">45</property>
  <property name="eof">pause</property>
  <property name="resource">C:/dev/workspace/indy/dist/room/chase/content/voice/chase3.mp3</property>
  <property name="mlt_service">avformat-novalidate</property>
  <property name="seekable">1</property>
  <property name="audio_index">0</property>
  <property name="video_index">-1</property>
  <property name="astream">0</property>
  <property name="kdenlive:control_uuid">{b74e6306-c7c2-42c0-bb3c-79980bb3d6ea}</property>
  <property name="kdenlive:id">52</property>
  <property name="kdenlive:clip_type">1</property>
  <property name="kdenlive:file_size">15272</property>
  <property name="kdenlive:file_hash">4f3d4f9fa8b2e605f609b5dda1998eb8</property>
  <property name="kdenlive:folderid">4</property>
  <property name="meta.media.nb_streams">1</property>
  <property name="meta.media.0.stream.type">audio</property>
  <property name="meta.media.0.codec.sample_fmt">fltp</property>
  <property name="meta.media.0.codec.sample_rate">44100</property>
  <property name="meta.media.0.codec.channels">1</property>
  <property name="meta.media.0.codec.layout">mono</property>
  <property name="meta.media.0.codec.name">mp3float</property>
  <property name="meta.media.0.codec.long_name">MP3 (MPEG audio layer 3)</property>
  <property name="meta.media.0.codec.bit_rate">64000</property>
  <property name="meta.attr.encoder.markup">Lavf61.1.100</property>
  <property name="xml">was here</property>
  <property name="mute_on_pause">0</property>
  <property name="set.test_audio">0</property>
  <property name="set.test_image">1</property>
 </chain>
 <chain id="chain11" out="00:00:01.250">
  <property name="length">31</property>
  <property name="eof">pause</property>
  <property name="resource">C:/dev/workspace/indy/dist/room/chase/content/voice/chase4.mp3</property>
  <property name="mlt_service">avformat-novalidate</property>
  <property name="seekable">1</property>
  <property name="audio_index">0</property>
  <property name="video_index">-1</property>
  <property name="astream">0</property>
  <property name="kdenlive:control_uuid">{9aa422d9-51ee-4df3-88c2-b6ca5be934cf}</property>
  <property name="kdenlive:id">51</property>
  <property name="kdenlive:clip_type">1</property>
  <property name="kdenlive:file_size">10466</property>
  <property name="kdenlive:file_hash">743d2dabcd7c100180b76079562c6009</property>
  <property name="kdenlive:folderid">4</property>
  <property name="meta.media.nb_streams">1</property>
  <property name="meta.media.0.stream.type">audio</property>
  <property name="meta.media.0.codec.sample_fmt">fltp</property>
  <property name="meta.media.0.codec.sample_rate">44100</property>
  <property name="meta.media.0.codec.channels">1</property>
  <property name="meta.media.0.codec.layout">mono</property>
  <property name="meta.media.0.codec.name">mp3float</property>
  <property name="meta.media.0.codec.long_name">MP3 (MPEG audio layer 3)</property>
  <property name="meta.media.0.codec.bit_rate">64000</property>
  <property name="meta.attr.encoder.markup">Lavf61.1.100</property>
  <property name="xml">was here</property>
  <property name="mute_on_pause">0</property>
  <property name="set.test_audio">0</property>
  <property name="set.test_image">1</property>
 </chain>
 <chain id="chain12" out="00:00:01.458">
  <property name="length">36</property>
  <property name="eof">pause</property>
  <property name="resource">C:/dev/workspace/indy/dist/room/chase/content/voice/chase5.mp3</property>
  <property name="mlt_service">avformat-novalidate</property>
  <property name="seekable">1</property>
  <property name="audio_index">0</property>
  <property name="video_index">-1</property>
  <property name="astream">0</property>
  <property name="kdenlive:control_uuid">{59a2b094-aa5f-4d6f-a67a-669b91fec5c4}</property>
  <property name="kdenlive:id">55</property>
  <property name="kdenlive:clip_type">1</property>
  <property name="kdenlive:file_size">12346</property>
  <property name="kdenlive:file_hash">9abc8227ae3e9697d5e76d97a9b17852</property>
  <property name="kdenlive:folderid">4</property>
  <property name="meta.media.nb_streams">1</property>
  <property name="meta.media.0.stream.type">audio</property>
  <property name="meta.media.0.codec.sample_fmt">fltp</property>
  <property name="meta.media.0.codec.sample_rate">44100</property>
  <property name="meta.media.0.codec.channels">1</property>
  <property name="meta.media.0.codec.layout">mono</property>
  <property name="meta.media.0.codec.name">mp3float</property>
  <property name="meta.media.0.codec.long_name">MP3 (MPEG audio layer 3)</property>
  <property name="meta.media.0.codec.bit_rate">64000</property>
  <property name="meta.attr.encoder.markup">Lavf61.1.100</property>
  <property name="xml">was here</property>
  <property name="mute_on_pause">0</property>
  <property name="set.test_audio">0</property>
  <property name="set.test_image">1</property>
 </chain>
 <chain id="chain13" out="00:00:03.333">
  <property name="length">81</property>
  <property name="eof">pause</property>
  <property name="resource">C:/dev/workspace/indy/dist/room/chase/content/voice/chase6.mp3</property>
  <property name="mlt_service">avformat-novalidate</property>
  <property name="seekable">1</property>
  <property name="audio_index">0</property>
  <property name="video_index">-1</property>
  <property name="astream">0</property>
  <property name="kdenlive:control_uuid">{8dc67b9f-43fe-4d0b-9194-b15e8895692a}</property>
  <property name="kdenlive:id">56</property>
  <property name="kdenlive:clip_type">1</property>
  <property name="kdenlive:file_size">27184</property>
  <property name="kdenlive:file_hash">b80047b1bed89dab6bbda0241f0bdfec</property>
  <property name="kdenlive:folderid">4</property>
  <property name="meta.media.nb_streams">1</property>
  <property name="meta.media.0.stream.type">audio</property>
  <property name="meta.media.0.codec.sample_fmt">fltp</property>
  <property name="meta.media.0.codec.sample_rate">44100</property>
  <property name="meta.media.0.codec.channels">1</property>
  <property name="meta.media.0.codec.layout">mono</property>
  <property name="meta.media.0.codec.name">mp3float</property>
  <property name="meta.media.0.codec.long_name">MP3 (MPEG audio layer 3)</property>
  <property name="meta.media.0.codec.bit_rate">64000</property>
  <property name="meta.attr.encoder.markup">Lavf61.1.100</property>
  <property name="xml">was here</property>
  <property name="mute_on_pause">0</property>
  <property name="set.test_audio">0</property>
  <property name="set.test_image">1</property>
 </chain>
 <chain id="chain14" out="00:00:01.958">
  <property name="length">48</property>
  <property name="eof">pause</property>
  <property name="resource">C:/dev/workspace/indy/dist/room/chase/content/voice/chase7.mp3</property>
  <property name="mlt_service">avformat-novalidate</property>
  <property name="seekable">1</property>
  <property name="audio_index">0</property>
  <property name="video_index">-1</property>
  <property name="astream">0</property>
  <property name="kdenlive:control_uuid">{3930f476-df2d-4485-ba49-040fd5bbcfb1}</property>
  <property name="kdenlive:id">58</property>
  <property name="kdenlive:clip_type">1</property>
  <property name="kdenlive:file_size">16317</property>
  <property name="kdenlive:file_hash">9b5ab6bfb08f5b3779e8c20ef91fc22c</property>
  <property name="kdenlive:folderid">4</property>
  <property name="meta.media.nb_streams">1</property>
  <property name="meta.media.0.stream.type">audio</property>
  <property name="meta.media.0.codec.sample_fmt">fltp</property>
  <property name="meta.media.0.codec.sample_rate">44100</property>
  <property name="meta.media.0.codec.channels">1</property>
  <property name="meta.media.0.codec.layout">mono</property>
  <property name="meta.media.0.codec.name">mp3float</property>
  <property name="meta.media.0.codec.long_name">MP3 (MPEG audio layer 3)</property>
  <property name="meta.media.0.codec.bit_rate">64000</property>
  <property name="meta.attr.encoder.markup">Lavf61.1.100</property>
  <property name="xml">was here</property>
  <property name="mute_on_pause">0</property>
  <property name="set.test_audio">0</property>
  <property name="set.test_image">1</property>
 </chain>
 <chain id="chain15" out="00:00:01.750">
  <property name="length">43</property>
  <property name="eof">pause</property>
  <property name="resource">C:/dev/workspace/indy/dist/room/chase/content/voice/chase8.mp3</property>
  <property name="mlt_service">avformat-novalidate</property>
  <property name="seekable">1</property>
  <property name="audio_index">0</property>
  <property name="video_index">-1</property>
  <property name="astream">0</property>
  <property name="kdenlive:control_uuid">{48db584e-9b7e-46a5-8ab8-ec637272a309}</property>
  <property name="kdenlive:id">59</property>
  <property name="kdenlive:clip_type">1</property>
  <property name="kdenlive:file_size">14436</property>
  <property name="kdenlive:file_hash">0cf5d4d64dec56c1d47c337ae0a37227</property>
  <property name="kdenlive:folderid">4</property>
  <property name="meta.media.nb_streams">1</property>
  <property name="meta.media.0.stream.type">audio</property>
  <property name="meta.media.0.codec.sample_fmt">fltp</property>
  <property name="meta.media.0.codec.sample_rate">44100</property>
  <property name="meta.media.0.codec.channels">1</property>
  <property name="meta.media.0.codec.layout">mono</property>
  <property name="meta.media.0.codec.name">mp3float</property>
  <property name="meta.media.0.codec.long_name">MP3 (MPEG audio layer 3)</property>
  <property name="meta.media.0.codec.bit_rate">64000</property>
  <property name="meta.attr.encoder.markup">Lavf61.1.100</property>
  <property name="xml">was here</property>
  <property name="mute_on_pause">0</property>
  <property name="set.test_audio">0</property>
  <property name="set.test_image">1</property>
 </chain>
 <chain id="chain16" out="00:00:01.375">
  <property name="length">34</property>
  <property name="eof">pause</property>
  <property name="resource">C:/dev/workspace/indy/dist/room/chase/content/voice/chase9.mp3</property>
  <property name="mlt_service">avformat-novalidate</property>
  <property name="seekable">1</property>
  <property name="audio_index">0</property>
  <property name="video_index">-1</property>
  <property name="astream">0</property>
  <property name="kdenlive:control_uuid">{cdff09b4-b36b-4955-baea-23556e9fbe8c}</property>
  <property name="kdenlive:id">62</property>
  <property name="kdenlive:clip_type">1</property>
  <property name="kdenlive:file_size">11510</property>
  <property name="kdenlive:file_hash">7eb2f7f55f35cb11506d1e6f1efc7bee</property>
  <property name="kdenlive:folderid">4</property>
  <property name="meta.media.nb_streams">1</property>
  <property name="meta.media.0.stream.type">audio</property>
  <property name="meta.media.0.codec.sample_fmt">fltp</property>
  <property name="meta.media.0.codec.sample_rate">44100</property>
  <property name="meta.media.0.codec.channels">1</property>
  <property name="meta.media.0.codec.layout">mono</property>
  <property name="meta.media.0.codec.name">mp3float</property>
  <property name="meta.media.0.codec.long_name">MP3 (MPEG audio layer 3)</property>
  <property name="meta.media.0.codec.bit_rate">64000</property>
  <property name="meta.attr.encoder.markup">Lavf61.1.100</property>
  <property name="xml">was here</property>
  <property name="mute_on_pause">0</property>
  <property name="set.test_audio">0</property>
  <property name="set.test_image">1</property>
 </chain>
 <chain id="chain17" out="00:00:01.125">
  <property name="length">28</property>
  <property name="eof">pause</property>
  <property name="resource">C:/dev/workspace/indy/dist/room/chase/content/voice/chase10.mp3</property>
  <property name="mlt_service">avformat-novalidate</property>
  <property name="seekable">1</property>
  <property name="audio_index">0</property>
  <property name="video_index">-1</property>
  <property name="astream">0</property>
  <property name="kdenlive:control_uuid">{4ea62fff-c52e-4c29-a500-17419863811b}</property>
  <property name="kdenlive:id">63</property>
  <property name="kdenlive:clip_type">1</property>
  <property name="kdenlive:file_size">9630</property>
  <property name="kdenlive:file_hash">bbc8b0fed0803bdf8bf39d1a7046f592</property>
  <property name="kdenlive:folderid">4</property>
  <property name="meta.media.nb_streams">1</property>
  <property name="meta.media.0.stream.type">audio</property>
  <property name="meta.media.0.codec.sample_fmt">fltp</property>
  <property name="meta.media.0.codec.sample_rate">44100</property>
  <property name="meta.media.0.codec.channels">1</property>
  <property name="meta.media.0.codec.layout">mono</property>
  <property name="meta.media.0.codec.name">mp3float</property>
  <property name="meta.media.0.codec.long_name">MP3 (MPEG audio layer 3)</property>
  <property name="meta.media.0.codec.bit_rate">64000</property>
  <property name="meta.attr.encoder.markup">Lavf61.1.100</property>
  <property name="xml">was here</property>
  <property name="mute_on_pause">0</property>
  <property name="set.test_audio">0</property>
  <property name="set.test_image">1</property>
 </chain>
 <playlist id="playlist4">
  <property name="kdenlive:audio_track">1</property>
  <blank length="00:00:48.000"/>
  <entry in="00:00:00.000" out="00:00:03.958" producer="chain4">
   <property name="kdenlive:id">18</property>
  </entry>
  <entry in="00:00:04.000" out="00:00:07.958" producer="chain4">
   <property name="kdenlive:id">18</property>
  </entry>
  <entry in="00:00:00.000" out="00:00:02.958" producer="chain5">
   <property name="kdenlive:id">20</property>
   <filter id="filter27">
    <property name="window">75</property>
    <property name="max_gain">20dB</property>
    <property name="level">00:00:00.000=-12;00:00:01.000=-12;00:00:02.958=-80</property>
    <property name="mlt_service">volume</property>
    <property name="kdenlive_id">volume</property>
   </filter>
  </entry>
  <blank length="00:00:01.958"/>
  <entry in="00:00:00.000" out="00:00:01.333" producer="chain6">
   <property name="kdenlive:id">14</property>
  </entry>
  <blank length="00:00:00.292"/>
  <entry in="00:00:01.375" out="00:00:04.625" producer="chain6">
   <property name="kdenlive:id">14</property>
  </entry>
  <blank length="00:00:12.083"/>
  <entry in="00:00:00.000" out="00:00:03.958" producer="chain7">
   <property name="kdenlive:id">23</property>
   <filter id="filter28">
    <property name="window">75</property>
    <property name="max_gain">20dB</property>
    <property name="level">00:00:00.000=8</property>
    <property name="mlt_service">volume</property>
    <property name="kdenlive_id">volume</property>
    <property name="kdenlive:collapsed">0</property>
   </filter>
  </entry>
  <entry in="00:00:04.000" out="00:00:07.958" producer="chain7">
   <property name="kdenlive:id">23</property>
   <filter id="filter29">
    <property name="window">75</property>
    <property name="max_gain">20dB</property>
    <property name="level">00:00:04.000=8</property>
    <property name="mlt_service">volume</property>
    <property name="kdenlive_id">volume</property>
    <property name="kdenlive:collapsed">0</property>
   </filter>
  </entry>
  <entry in="00:00:00.000" out="00:00:03.958" producer="chain7">
   <property name="kdenlive:id">23</property>
   <filter id="filter30">
    <property name="window">75</property>
    <property name="max_gain">20dB</property>
    <property name="level">00:00:00.000=8</property>
    <property name="mlt_service">volume</property>
    <property name="kdenlive_id">volume</property>
    <property name="kdenlive:collapsed">0</property>
   </filter>
  </entry>
  <blank length="00:00:12.000"/>
  <entry in="00:00:00.000" out="00:00:03.958" producer="chain4">
   <property name="kdenlive:id">18</property>
   <filter id="filter31">
    <property name="window">75</property>
    <property name="max_gain">20dB</property>
    <property name="level">00:00:00.000=8</property>
    <property name="mlt_service">volume</property>
    <property name="kdenlive_id">volume</property>
    <property name="kdenlive:collapsed">0</property>
   </filter>
  </entry>
  <entry in="00:00:05.083" out="00:00:09.042" producer="chain4">
   <property name="kdenlive:id">18</property>
   <filter id="filter26">
    <property name="window">75</property>
    <property name="max_gain">20dB</property>
    <property name="level">00:00:05.083=8;00:00:09.042=-0.0341258</property>
    <property name="mlt_service">volume</property>
    <property name="kdenlive_id">volume</property>
    <property name="kdenlive:collapsed">0</property>
   </filter>
  </entry>
  <blank length="00:00:00.583"/>
  <entry in="00:00:00.000" out="00:00:03.625" producer="chain8">
   <property name="kdenlive:id">47</property>
  </entry>
  <entry in="00:00:00.000" out="00:00:03.167" producer="chain9">
   <property name="kdenlive:id">46</property>
  </entry>
  <blank length="00:00:00.875"/>
  <entry in="00:00:00.000" out="00:00:01.833" producer="chain10">
   <property name="kdenlive:id">52</property>
  </entry>
  <entry in="00:00:00.000" out="00:00:01.250" producer="chain11">
   <property name="kdenlive:id">51</property>
  </entry>
  <blank length="00:00:00.667"/>
  <entry in="00:00:00.000" out="00:00:01.458" producer="chain12">
   <property name="kdenlive:id">55</property>
  </entry>
  <entry in="00:00:00.000" out="00:00:03.292" producer="chain13">
   <property name="kdenlive:id">56</property>
  </entry>
  <blank length="00:00:00.333"/>
  <entry in="00:00:00.000" out="00:00:01.958" producer="chain14">
   <property name="kdenlive:id">58</property>
  </entry>
  <entry in="00:00:00.000" out="00:00:01.625" producer="chain15">
   <property name="kdenlive:id">59</property>
  </entry>
  <blank length="00:00:00.125"/>
  <entry in="00:00:00.000" out="00:00:01.375" producer="chain16">
   <property name="kdenlive:id">62</property>
  </entry>
  <blank length="00:00:00.250"/>
  <entry in="00:00:00.000" out="00:00:01.125" producer="chain17">
   <property name="kdenlive:id">63</property>
  </entry>
 </playlist>
 <playlist id="playlist5">
  <property name="kdenlive:audio_track">1</property>
 </playlist>
 <tractor id="tractor2" in="00:00:00.000" out="00:02:13.917">
  <property name="kdenlive:audio_track">1</property>
  <property name="kdenlive:trackheight">67</property>
  <property name="kdenlive:timeline_active">1</property>
  <property name="kdenlive:collapsed">0</property>
  <property name="kdenlive:thumbs_format"/>
  <property name="kdenlive:audio_rec"/>
  <track hide="video" producer="playlist4"/>
  <track hide="video" producer="playlist5"/>
  <filter id="filter33">
   <property name="window">75</property>
   <property name="max_gain">20dB</property>
   <property name="mlt_service">volume</property>
   <property name="internal_added">237</property>
   <property name="disable">1</property>
  </filter>
  <filter id="filter34">
   <property name="channel">-1</property>
   <property name="mlt_service">panner</property>
   <property name="internal_added">237</property>
   <property name="start">0.5</property>
   <property name="disable">1</property>
  </filter>
  <filter id="filter32">
   <property name="iec_scale">0</property>
   <property name="mlt_service">audiolevel</property>
   <property name="dbpeak">1</property>
   <property name="disable">1</property>
  </filter>
 </tractor>
 <chain id="chain18" out="00:03:36.708">
  <property name="length">5202</property>
  <property name="eof">pause</property>
  <property name="resource">C:/dev/workspace/indy/dist/trailer/content/extra/interview.mp4</property>
  <property name="mlt_service">avformat-novalidate</property>
  <property name="seekable">1</property>
  <property name="audio_index">1</property>
  <property name="video_index">0</property>
  <property name="vstream">0</property>
  <property name="astream">0</property>
  <property name="kdenlive:control_uuid">{93b15476-3e7c-4ac6-bb97-fa3639a25c08}</property>
  <property name="kdenlive:id">69</property>
  <property name="kdenlive:clip_type">0</property>
  <property name="kdenlive:file_size">30708458</property>
  <property name="kdenlive:file_hash">9317d79f07d77e43c649fd8cca85cda2</property>
  <property name="kdenlive:folderid">4</property>
  <property name="meta.media.nb_streams">2</property>
  <property name="meta.media.0.stream.type">video</property>
  <property name="meta.media.0.stream.frame_rate">29.97</property>
  <property name="meta.media.0.stream.sample_aspect_ratio">1</property>
  <property name="meta.media.0.codec.width">1920</property>
  <property name="meta.media.0.codec.height">1080</property>
  <property name="meta.media.0.codec.rotate">0</property>
  <property name="meta.media.0.codec.pix_fmt">yuv420p</property>
  <property name="meta.media.0.codec.sample_aspect_ratio">1</property>
  <property name="meta.media.0.codec.colorspace">709</property>
  <property name="meta.media.0.codec.color_trc">1</property>
  <property name="meta.media.0.codec.name">h264</property>
  <property name="meta.media.0.codec.long_name">H.264 / AVC / MPEG-4 AVC / MPEG-4 part 10</property>
  <property name="meta.media.0.codec.bit_rate">1011681</property>
  <property name="meta.attr.0.stream.handler_name.markup">ISO Media file produced by Google Inc.</property>
  <property name="meta.attr.0.stream.vendor_id.markup">[0][0][0][0]</property>
  <property name="meta.media.1.stream.type">audio</property>
  <property name="meta.media.1.codec.sample_fmt">fltp</property>
  <property name="meta.media.1.codec.sample_rate">48000</property>
  <property name="meta.media.1.codec.channels">2</property>
  <property name="meta.media.1.codec.layout">stereo</property>
  <property name="meta.media.1.codec.name">opus</property>
  <property name="meta.media.1.codec.long_name">Opus</property>
  <property name="meta.media.1.codec.bit_rate">113839</property>
  <property name="meta.attr.1.stream.language.markup">eng</property>
  <property name="meta.attr.1.stream.handler_name.markup">SoundHandler</property>
  <property name="meta.attr.1.stream.vendor_id.markup">[0][0][0][0]</property>
  <property name="meta.attr.major_brand.markup">isom</property>
  <property name="meta.attr.minor_version.markup">512</property>
  <property name="meta.attr.compatible_brands.markup">isomiso2avc1mp41</property>
  <property name="meta.attr.encoder.markup">Lavf61.1.100</property>
  <property name="meta.media.sample_aspect_num">1</property>
  <property name="meta.media.sample_aspect_den">1</property>
  <property name="meta.media.frame_rate_num">30000</property>
  <property name="meta.media.frame_rate_den">1001</property>
  <property name="meta.media.colorspace">709</property>
  <property name="meta.media.color_trc">1</property>
  <property name="meta.media.has_b_frames">1</property>
  <property name="meta.media.width">1920</property>
  <property name="meta.media.height">1080</property>
  <property name="meta.media.aspect_ratio">1</property>
  <property name="meta.media.color_range">mpeg</property>
  <property name="xml">was here</property>
  <property name="mute_on_pause">0</property>
  <property name="meta.media.top_field_first">0</property>
  <property name="meta.media.progressive">1</property>
  <property name="set.test_audio">0</property>
  <property name="set.test_image">1</property>
 </chain>
 <chain id="chain19" out="00:00:38.333">
  <property name="length">921</property>
  <property name="eof">pause</property>
  <property name="resource">C:/dev/workspace/indy/dist/trailer/content/extra/interview2.mp4</property>
  <property name="mlt_service">avformat-novalidate</property>
  <property name="seekable">1</property>
  <property name="audio_index">1</property>
  <property name="video_index">0</property>
  <property name="vstream">0</property>
  <property name="astream">0</property>
  <property name="kdenlive:control_uuid">{2af51a2d-8bed-4ce3-a2e3-e56625a48775}</property>
  <property name="kdenlive:id">70</property>
  <property name="kdenlive:clip_type">0</property>
  <property name="kdenlive:file_size">3584954</property>
  <property name="kdenlive:file_hash">657ab15ac7212c54c7a19dc85fd523b6</property>
  <property name="kdenlive:folderid">4</property>
  <property name="meta.media.nb_streams">2</property>
  <property name="meta.media.0.stream.type">video</property>
  <property name="meta.media.0.stream.frame_rate">30</property>
  <property name="meta.media.0.stream.sample_aspect_ratio">1</property>
  <property name="meta.media.0.codec.width">1920</property>
  <property name="meta.media.0.codec.height">1080</property>
  <property name="meta.media.0.codec.rotate">0</property>
  <property name="meta.media.0.codec.pix_fmt">yuv420p</property>
  <property name="meta.media.0.codec.sample_aspect_ratio">0</property>
  <property name="meta.media.0.codec.colorspace">709</property>
  <property name="meta.media.0.codec.color_trc">1</property>
  <property name="meta.media.0.codec.name">libvpx-vp9</property>
  <property name="meta.media.0.codec.long_name">libvpx VP9</property>
  <property name="meta.media.0.codec.bit_rate">636284</property>
  <property name="meta.attr.0.stream.language.markup">eng</property>
  <property name="meta.attr.0.stream.handler_name.markup">VideoHandler</property>
  <property name="meta.attr.0.stream.vendor_id.markup">[0][0][0][0]</property>
  <property name="meta.media.1.stream.type">audio</property>
  <property name="meta.media.1.codec.sample_fmt">fltp</property>
  <property name="meta.media.1.codec.sample_rate">48000</property>
  <property name="meta.media.1.codec.channels">2</property>
  <property name="meta.media.1.codec.layout">stereo</property>
  <property name="meta.media.1.codec.name">opus</property>
  <property name="meta.media.1.codec.long_name">Opus</property>
  <property name="meta.media.1.codec.bit_rate">104392</property>
  <property name="meta.attr.1.stream.language.markup">eng</property>
  <property name="meta.attr.1.stream.handler_name.markup">SoundHandler</property>
  <property name="meta.attr.1.stream.vendor_id.markup">[0][0][0][0]</property>
  <property name="meta.attr.major_brand.markup">isom</property>
  <property name="meta.attr.minor_version.markup">512</property>
  <property name="meta.attr.compatible_brands.markup">isomiso2mp41</property>
  <property name="meta.attr.encoder.markup">Lavf61.1.100</property>
  <property name="meta.media.sample_aspect_num">1</property>
  <property name="meta.media.sample_aspect_den">1</property>
  <property name="meta.media.frame_rate_num">30</property>
  <property name="meta.media.frame_rate_den">1</property>
  <property name="meta.media.colorspace">709</property>
  <property name="meta.media.color_trc">1</property>
  <property name="meta.media.has_b_frames">0</property>
  <property name="meta.media.width">1920</property>
  <property name="meta.media.height">1080</property>
  <property name="meta.media.aspect_ratio">1</property>
  <property name="meta.media.color_range">mpeg</property>
  <property name="xml">was here</property>
  <property name="mute_on_pause">0</property>
  <property name="meta.media.top_field_first">0</property>
  <property name="meta.media.progressive">1</property>
  <property name="set.test_audio">0</property>
  <property name="set.test_image">1</property>
 </chain>
 <chain id="chain20" out="00:05:15.500">
  <property name="length">7573</property>
  <property name="eof">pause</property>
  <property name="resource">C:/dev/workspace/indy/dist/trailer/content/extra/music.webm</property>
  <property name="mlt_service">avformat-novalidate</property>
  <property name="seekable">1</property>
  <property name="audio_index">0</property>
  <property name="video_index">-1</property>
  <property name="astream">0</property>
  <property name="kdenlive:control_uuid">{36c0b7dd-8df9-4ecd-9809-1684bd3b35a2}</property>
  <property name="kdenlive:id">7</property>
  <property name="kdenlive:clip_type">1</property>
  <property name="kdenlive:file_size">5791304</property>
  <property name="kdenlive:file_hash">dbabf8b963ebb091560d76bfc13b4942</property>
  <property name="kdenlive:folderid">-1</property>
  <property name="meta.media.nb_streams">1</property>
  <property name="meta.media.0.stream.type">audio</property>
  <property name="meta.media.0.codec.sample_fmt">fltp</property>
  <property name="meta.media.0.codec.sample_rate">48000</property>
  <property name="meta.media.0.codec.channels">2</property>
  <property name="meta.media.0.codec.layout">stereo</property>
  <property name="meta.media.0.codec.name">opus</property>
  <property name="meta.media.0.codec.long_name">Opus</property>
  <property name="meta.media.0.codec.bit_rate">0</property>
  <property name="meta.attr.0.stream.language.markup">eng</property>
  <property name="meta.attr.encoder.markup">google/video-file</property>
  <property name="xml">was here</property>
  <property name="mute_on_pause">0</property>
  <property name="set.test_audio">0</property>
  <property name="set.test_image">1</property>
 </chain>
 <playlist id="playlist6">
  <property name="kdenlive:audio_track">1</property>
  <entry in="00:00:00.000" out="00:00:22.792" producer="chain18">
   <property name="kdenlive:id">69</property>
   <filter id="filter36">
    <property name="window">75</property>
    <property name="max_gain">20dB</property>
    <property name="level">00:00:00.000=4</property>
    <property name="mlt_service">volume</property>
    <property name="kdenlive_id">volume</property>
    <property name="kdenlive:collapsed">0</property>
   </filter>
  </entry>
  <entry in="00:00:21.042" out="00:00:38.333" producer="chain19">
   <property name="kdenlive:id">70</property>
   <filter id="filter37">
    <property name="window">75</property>
    <property name="max_gain">20dB</property>
    <property name="level">00:00:21.042=4</property>
    <property name="mlt_service">volume</property>
    <property name="kdenlive_id">volume</property>
    <property name="kdenlive:collapsed">0</property>
   </filter>
  </entry>
  <blank length="00:01:32.833"/>
  <entry in="00:02:51.333" out="00:03:02.292" producer="chain20">
   <property name="kdenlive:id">7</property>
   <filter id="filter35">
    <property name="window">75</property>
    <property name="max_gain">20dB</property>
    <property name="level">00:02:51.333=0</property>
    <property name="mlt_service">volume</property>
    <property name="kdenlive_id">volume</property>
    <property name="kdenlive:collapsed">0</property>
   </filter>
   <filter id="filter38" in="00:02:58.375" out="00:03:02.292">
    <property name="window">75</property>
    <property name="max_gain">20dB</property>
    <property name="mlt_service">volume</property>
    <property name="kdenlive_id">fadeout</property>
    <property name="gain">1</property>
    <property name="end">0</property>
    <property name="kdenlive:collapsed">0</property>
   </filter>
   <filter id="filter39" in="00:02:51.333" out="00:02:53.333">
    <property name="window">75</property>
    <property name="max_gain">20dB</property>
    <property name="mlt_service">volume</property>
    <property name="kdenlive_id">fadein</property>
    <property name="gain">0</property>
    <property name="end">1</property>
   </filter>
  </entry>
 </playlist>
 <playlist id="playlist7">
  <property name="kdenlive:audio_track">1</property>
 </playlist>
 <tractor id="tractor3" in="00:00:00.000" out="00:02:23.958">
  <property name="kdenlive:audio_track">1</property>
  <property name="kdenlive:trackheight">67</property>
  <property name="kdenlive:timeline_active">1</property>
  <property name="kdenlive:collapsed">0</property>
  <property name="kdenlive:thumbs_format"/>
  <property name="kdenlive:audio_rec"/>
  <track hide="video" producer="playlist6"/>
  <track hide="video" producer="playlist7"/>
  <filter id="filter40">
   <property name="window">75</property>
   <property name="max_gain">20dB</property>
   <property name="mlt_service">volume</property>
   <property name="internal_added">237</property>
   <property name="disable">1</property>
  </filter>
  <filter id="filter41">
   <property name="channel">-1</property>
   <property name="mlt_service">panner</property>
   <property name="internal_added">237</property>
   <property name="start">0.5</property>
   <property name="disable">1</property>
  </filter>
  <filter id="filter42">
   <property name="iec_scale">0</property>
   <property name="mlt_service">audiolevel</property>
   <property name="dbpeak">1</property>
   <property name="disable">1</property>
  </filter>
 </tractor>
 <chain id="chain21" out="00:05:15.500">
  <property name="length">7573</property>
  <property name="eof">pause</property>
  <property name="resource">C:/dev/workspace/indy/dist/trailer/content/extra/music.webm</property>
  <property name="mlt_service">avformat-novalidate</property>
  <property name="seekable">1</property>
  <property name="audio_index">0</property>
  <property name="video_index">-1</property>
  <property name="astream">0</property>
  <property name="kdenlive:control_uuid">{36c0b7dd-8df9-4ecd-9809-1684bd3b35a2}</property>
  <property name="kdenlive:id">7</property>
  <property name="kdenlive:clip_type">1</property>
  <property name="kdenlive:file_size">5791304</property>
  <property name="kdenlive:file_hash">dbabf8b963ebb091560d76bfc13b4942</property>
  <property name="kdenlive:folderid">-1</property>
  <property name="meta.media.nb_streams">1</property>
  <property name="meta.media.0.stream.type">audio</property>
  <property name="meta.media.0.codec.sample_fmt">fltp</property>
  <property name="meta.media.0.codec.sample_rate">48000</property>
  <property name="meta.media.0.codec.channels">2</property>
  <property name="meta.media.0.codec.layout">stereo</property>
  <property name="meta.media.0.codec.name">opus</property>
  <property name="meta.media.0.codec.long_name">Opus</property>
  <property name="meta.media.0.codec.bit_rate">0</property>
  <property name="meta.attr.0.stream.language.markup">eng</property>
  <property name="meta.attr.encoder.markup">google/video-file</property>
  <property name="xml">was here</property>
  <property name="mute_on_pause">0</property>
  <property name="set.test_audio">0</property>
  <property name="set.test_image">1</property>
 </chain>
 <playlist id="playlist8">
  <property name="kdenlive:audio_track">1</property>
  <entry in="00:00:00.583" out="00:02:15.542" producer="chain21">
   <property name="kdenlive:id">7</property>
   <filter id="filter43">
    <property name="window">75</property>
    <property name="max_gain">20dB</property>
    <property name="level">00:00:00.583=0;00:01:51.833=0;00:01:52.250=-12</property>
    <property name="mlt_service">volume</property>
    <property name="kdenlive_id">volume</property>
    <property name="kdenlive:collapsed">0</property>
   </filter>
   <filter id="filter44" in="00:00:00.583" out="00:00:48.583">
    <property name="window">75</property>
    <property name="max_gain">20dB</property>
    <property name="mlt_service">volume</property>
    <property name="kdenlive_id">fadein</property>
    <property name="gain">0</property>
    <property name="end">1</property>
    <property name="kdenlive:collapsed">0</property>
   </filter>
   <filter id="filter45" in="00:02:13.542" out="00:02:15.542">
    <property name="window">75</property>
    <property name="max_gain">20dB</property>
    <property name="mlt_service">volume</property>
    <property name="kdenlive_id">fadeout</property>
    <property name="gain">1</property>
    <property name="end">0</property>
    <property name="kdenlive:collapsed">0</property>
   </filter>
  </entry>
 </playlist>
 <playlist id="playlist9">
  <property name="kdenlive:audio_track">1</property>
 </playlist>
 <tractor id="tractor4" in="00:00:00.000" out="00:02:14.958">
  <property name="kdenlive:audio_track">1</property>
  <property name="kdenlive:trackheight">67</property>
  <property name="kdenlive:timeline_active">1</property>
  <property name="kdenlive:collapsed">0</property>
  <property name="kdenlive:thumbs_format"/>
  <property name="kdenlive:audio_rec"/>
  <track hide="video" producer="playlist8"/>
  <track hide="video" producer="playlist9"/>
  <filter id="filter46">
   <property name="window">75</property>
   <property name="max_gain">20dB</property>
   <property name="mlt_service">volume</property>
   <property name="internal_added">237</property>
   <property name="disable">1</property>
  </filter>
  <filter id="filter47">
   <property name="channel">-1</property>
   <property name="mlt_service">panner</property>
   <property name="internal_added">237</property>
   <property name="start">0.5</property>
   <property name="disable">1</property>
  </filter>
  <filter id="filter48">
   <property name="iec_scale">0</property>
   <property name="mlt_service">audiolevel</property>
   <property name="dbpeak">1</property>
   <property name="disable">1</property>
  </filter>
 </tractor>
 <chain id="chain22" out="00:00:09.542">
  <property name="length">230</property>
  <property name="eof">pause</property>
  <property name="resource">C:/dev/workspace/indy/dist/room/intro/content/upscale/wide/college.mp4</property>
  <property name="mlt_service">avformat-novalidate</property>
  <property name="seekable">1</property>
  <property name="audio_index">1</property>
  <property name="video_index">0</property>
  <property name="vstream">0</property>
  <property name="astream">0</property>
  <property name="kdenlive:folderid">4</property>
  <property name="kdenlive:id">73</property>
  <property name="kdenlive:control_uuid">{ddf0e512-1e62-42f7-a34f-a8314d5a08d9}</property>
  <property name="mute_on_pause">0</property>
  <property name="kdenlive:clip_type">0</property>
  <property name="kdenlive:file_size">42220288</property>
  <property name="kdenlive:file_hash">639daf801664993e6d6e024b25a56698</property>
  <property name="meta.media.nb_streams">2</property>
  <property name="meta.media.0.stream.type">video</property>
  <property name="meta.media.0.stream.frame_rate">60</property>
  <property name="meta.media.0.stream.sample_aspect_ratio">0</property>
  <property name="meta.media.0.codec.width">5160</property>
  <property name="meta.media.0.codec.height">2160</property>
  <property name="meta.media.0.codec.rotate">0</property>
  <property name="meta.media.0.codec.pix_fmt">yuv420p</property>
  <property name="meta.media.0.codec.sample_aspect_ratio">0</property>
  <property name="meta.media.0.codec.colorspace">709</property>
  <property name="meta.media.0.codec.name">hevc</property>
  <property name="meta.media.0.codec.long_name">HEVC (High Efficiency Video Coding)</property>
  <property name="meta.media.0.codec.bit_rate">35226980</property>
  <property name="meta.attr.0.stream.handler_name.markup">VideoHandler</property>
  <property name="meta.attr.0.stream.vendor_id.markup">[0][0][0][0]</property>
  <property name="meta.attr.0.stream.encoder.markup">Lavc61.19.101 libx265</property>
  <property name="meta.media.1.stream.type">audio</property>
  <property name="meta.media.1.codec.sample_fmt">fltp</property>
  <property name="meta.media.1.codec.sample_rate">48000</property>
  <property name="meta.media.1.codec.channels">2</property>
  <property name="meta.media.1.codec.layout">stereo</property>
  <property name="meta.media.1.codec.name">aac</property>
  <property name="meta.media.1.codec.long_name">AAC (Advanced Audio Coding)</property>
  <property name="meta.media.1.codec.bit_rate">2265</property>
  <property name="meta.attr.1.stream.handler_name.markup">SoundHandler</property>
  <property name="meta.attr.1.stream.vendor_id.markup">[0][0][0][0]</property>
  <property name="meta.attr.minor_version.markup">512</property>
  <property name="meta.attr.major_brand.markup">isom</property>
  <property name="meta.attr.compatible_brands.markup">isomiso2mp41</property>
  <property name="meta.attr.encoder.markup">Lavf62.0.102</property>
  <property name="meta.media.sample_aspect_num">1</property>
  <property name="meta.media.sample_aspect_den">1</property>
  <property name="meta.media.frame_rate_num">60</property>
  <property name="meta.media.frame_rate_den">1</property>
  <property name="meta.media.colorspace">709</property>
  <property name="meta.media.color_trc">2</property>
  <property name="meta.media.has_b_frames">2</property>
  <property name="meta.media.width">5160</property>
  <property name="meta.media.height">2160</property>
  <property name="meta.media.aspect_ratio">1</property>
  <property name="meta.media.color_range">mpeg</property>
  <property name="xml">was here</property>
  <property name="meta.media.top_field_first">0</property>
  <property name="meta.media.progressive">1</property>
  <property name="set.test_audio">1</property>
  <property name="set.test_image">0</property>
 </chain>
 <chain id="chain23" out="00:00:08.958">
  <property name="length">216</property>
  <property name="eof">pause</property>
  <property name="resource">C:/dev/workspace/indy/dist/room/intro/content/upscale/wide/college3-1.mp4</property>
  <property name="mlt_service">avformat-novalidate</property>
  <property name="seekable">1</property>
  <property name="audio_index">1</property>
  <property name="video_index">0</property>
  <property name="vstream">0</property>
  <property name="astream">0</property>
  <property name="kdenlive:folderid">4</property>
  <property name="kdenlive:id">74</property>
  <property name="kdenlive:control_uuid">{7e27b817-1c99-4617-ba58-2e996b22b1ab}</property>
  <property name="mute_on_pause">0</property>
  <property name="kdenlive:clip_type">0</property>
  <property name="kdenlive:file_size">89027359</property>
  <property name="kdenlive:file_hash">69d01afd069bed5d1c9338a35e4b3d27</property>
  <property name="meta.media.nb_streams">2</property>
  <property name="meta.media.0.stream.type">video</property>
  <property name="meta.media.0.stream.frame_rate">60</property>
  <property name="meta.media.0.stream.sample_aspect_ratio">0</property>
  <property name="meta.media.0.codec.width">5160</property>
  <property name="meta.media.0.codec.height">2160</property>
  <property name="meta.media.0.codec.rotate">0</property>
  <property name="meta.media.0.codec.pix_fmt">yuv420p</property>
  <property name="meta.media.0.codec.sample_aspect_ratio">0</property>
  <property name="meta.media.0.codec.colorspace">709</property>
  <property name="meta.media.0.codec.name">hevc</property>
  <property name="meta.media.0.codec.long_name">HEVC (High Efficiency Video Coding)</property>
  <property name="meta.media.0.codec.bit_rate">79116459</property>
  <property name="meta.attr.0.stream.handler_name.markup">VideoHandler</property>
  <property name="meta.attr.0.stream.vendor_id.markup">[0][0][0][0]</property>
  <property name="meta.attr.0.stream.encoder.markup">Lavc61.19.101 libx265</property>
  <property name="meta.media.1.stream.type">audio</property>
  <property name="meta.media.1.codec.sample_fmt">fltp</property>
  <property name="meta.media.1.codec.sample_rate">48000</property>
  <property name="meta.media.1.codec.channels">2</property>
  <property name="meta.media.1.codec.layout">stereo</property>
  <property name="meta.media.1.codec.name">aac</property>
  <property name="meta.media.1.codec.long_name">AAC (Advanced Audio Coding)</property>
  <property name="meta.media.1.codec.bit_rate">2265</property>
  <property name="meta.attr.1.stream.handler_name.markup">SoundHandler</property>
  <property name="meta.attr.1.stream.vendor_id.markup">[0][0][0][0]</property>
  <property name="meta.attr.minor_version.markup">512</property>
  <property name="meta.attr.major_brand.markup">isom</property>
  <property name="meta.attr.compatible_brands.markup">isomiso2mp41</property>
  <property name="meta.attr.encoder.markup">Lavf62.0.102</property>
  <property name="meta.media.sample_aspect_num">1</property>
  <property name="meta.media.sample_aspect_den">1</property>
  <property name="meta.media.frame_rate_num">60</property>
  <property name="meta.media.frame_rate_den">1</property>
  <property name="meta.media.colorspace">709</property>
  <property name="meta.media.color_trc">2</property>
  <property name="meta.media.has_b_frames">2</property>
  <property name="meta.media.width">5160</property>
  <property name="meta.media.height">2160</property>
  <property name="meta.media.aspect_ratio">1</property>
  <property name="meta.media.color_range">mpeg</property>
  <property name="xml">was here</property>
  <property name="meta.media.top_field_first">0</property>
  <property name="meta.media.progressive">1</property>
  <property name="set.test_audio">1</property>
  <property name="set.test_image">0</property>
 </chain>
 <chain id="chain24" out="00:00:05.042">
  <property name="length">122</property>
  <property name="eof">pause</property>
  <property name="resource">C:/dev/workspace/indy/dist/room/attic/content/upscale/wide/splash3.mp4</property>
  <property name="mlt_service">avformat-novalidate</property>
  <property name="seekable">1</property>
  <property name="audio_index">1</property>
  <property name="video_index">0</property>
  <property name="vstream">0</property>
  <property name="astream">0</property>
  <property name="kdenlive:folderid">4</property>
  <property name="kdenlive:id">75</property>
  <property name="kdenlive:control_uuid">{9e1e0bc7-b12d-4925-90ed-751714542786}</property>
  <property name="mute_on_pause">0</property>
  <property name="kdenlive:clip_type">0</property>
  <property name="kdenlive:file_size">15207582</property>
  <property name="kdenlive:file_hash">f28883e5327ef3a372cb4cf5871760f1</property>
  <property name="meta.media.nb_streams">2</property>
  <property name="meta.media.0.stream.type">video</property>
  <property name="meta.media.0.stream.frame_rate">60</property>
  <property name="meta.media.0.stream.sample_aspect_ratio">0</property>
  <property name="meta.media.0.codec.width">5160</property>
  <property name="meta.media.0.codec.height">2160</property>
  <property name="meta.media.0.codec.rotate">0</property>
  <property name="meta.media.0.codec.pix_fmt">yuv444p</property>
  <property name="meta.media.0.codec.sample_aspect_ratio">0</property>
  <property name="meta.media.0.codec.colorspace">709</property>
  <property name="meta.media.0.codec.name">h264</property>
  <property name="meta.media.0.codec.long_name">H.264 / AVC / MPEG-4 AVC / MPEG-4 part 10</property>
  <property name="meta.media.0.codec.bit_rate">23837455</property>
  <property name="meta.attr.0.stream.handler_name.markup">VideoHandler</property>
  <property name="meta.attr.0.stream.vendor_id.markup">[0][0][0][0]</property>
  <property name="meta.attr.0.stream.encoder.markup">Lavc61.19.101 libx264</property>
  <property name="meta.media.1.stream.type">audio</property>
  <property name="meta.media.1.codec.sample_fmt">fltp</property>
  <property name="meta.media.1.codec.sample_rate">48000</property>
  <property name="meta.media.1.codec.channels">2</property>
  <property name="meta.media.1.codec.layout">stereo</property>
  <property name="meta.media.1.codec.name">aac</property>
  <property name="meta.media.1.codec.long_name">AAC (Advanced Audio Coding)</property>
  <property name="meta.media.1.codec.bit_rate">2276</property>
  <property name="meta.attr.1.stream.handler_name.markup">SoundHandler</property>
  <property name="meta.attr.1.stream.vendor_id.markup">[0][0][0][0]</property>
  <property name="meta.attr.minor_version.markup">512</property>
  <property name="meta.attr.major_brand.markup">isom</property>
  <property name="meta.attr.compatible_brands.markup">isomiso2avc1mp41</property>
  <property name="meta.attr.encoder.markup">Lavf61.9.100</property>
  <property name="meta.media.sample_aspect_num">1</property>
  <property name="meta.media.sample_aspect_den">1</property>
  <property name="meta.media.frame_rate_num">60</property>
  <property name="meta.media.frame_rate_den">1</property>
  <property name="meta.media.colorspace">709</property>
  <property name="meta.media.color_trc">2</property>
  <property name="meta.media.has_b_frames">2</property>
  <property name="meta.media.width">5160</property>
  <property name="meta.media.height">2160</property>
  <property name="meta.media.aspect_ratio">1</property>
  <property name="meta.media.color_range">mpeg</property>
  <property name="xml">was here</property>
  <property name="meta.media.top_field_first">0</property>
  <property name="meta.media.progressive">1</property>
  <property name="set.test_audio">1</property>
  <property name="set.test_image">0</property>
 </chain>
 <chain id="chain25" out="00:00:04.958">
  <property name="length">120</property>
  <property name="eof">pause</property>
  <property name="resource">C:/dev/workspace/indy/dist/room/attic/content/upscale/wide/dialog3-1.mp4</property>
  <property name="mlt_service">avformat-novalidate</property>
  <property name="seekable">1</property>
  <property name="audio_index">1</property>
  <property name="video_index">0</property>
  <property name="vstream">0</property>
  <property name="astream">0</property>
  <property name="kdenlive:folderid">4</property>
  <property name="kdenlive:id">77</property>
  <property name="kdenlive:control_uuid">{0bc2d9f2-6a0f-454d-ac98-34d0bff16cb8}</property>
  <property name="mute_on_pause">0</property>
  <property name="kdenlive:clip_type">0</property>
  <property name="kdenlive:file_size">12370970</property>
  <property name="kdenlive:file_hash">545c960e6cd9981053da4a98233a7a16</property>
  <property name="meta.media.nb_streams">2</property>
  <property name="meta.media.0.stream.type">video</property>
  <property name="meta.media.0.stream.frame_rate">24</property>
  <property name="meta.media.0.stream.sample_aspect_ratio">0</property>
  <property name="meta.media.0.codec.width">5160</property>
  <property name="meta.media.0.codec.height">2160</property>
  <property name="meta.media.0.codec.rotate">0</property>
  <property name="meta.media.0.codec.pix_fmt">yuv420p</property>
  <property name="meta.media.0.codec.sample_aspect_ratio">0</property>
  <property name="meta.media.0.codec.colorspace">709</property>
  <property name="meta.media.0.codec.name">hevc</property>
  <property name="meta.media.0.codec.long_name">HEVC (High Efficiency Video Coding)</property>
  <property name="meta.media.0.codec.bit_rate">19779054</property>
  <property name="meta.attr.0.stream.handler_name.markup">VideoHandler</property>
  <property name="meta.attr.0.stream.vendor_id.markup">[0][0][0][0]</property>
  <property name="meta.attr.0.stream.encoder.markup">Lavc61.19.101 libx265</property>
  <property name="meta.media.1.stream.type">audio</property>
  <property name="meta.media.1.codec.sample_fmt">fltp</property>
  <property name="meta.media.1.codec.sample_rate">48000</property>
  <property name="meta.media.1.codec.channels">2</property>
  <property name="meta.media.1.codec.layout">stereo</property>
  <property name="meta.media.1.codec.name">aac</property>
  <property name="meta.media.1.codec.long_name">AAC (Advanced Audio Coding)</property>
  <property name="meta.media.1.codec.bit_rate">2277</property>
  <property name="meta.attr.1.stream.handler_name.markup">SoundHandler</property>
  <property name="meta.attr.1.stream.vendor_id.markup">[0][0][0][0]</property>
  <property name="meta.attr.minor_version.markup">512</property>
  <property name="meta.attr.major_brand.markup">isom</property>
  <property name="meta.attr.compatible_brands.markup">isomiso2mp41</property>
  <property name="meta.attr.encoder.markup">Lavf61.9.100</property>
  <property name="meta.media.sample_aspect_num">1</property>
  <property name="meta.media.sample_aspect_den">1</property>
  <property name="meta.media.frame_rate_num">24</property>
  <property name="meta.media.frame_rate_den">1</property>
  <property name="meta.media.colorspace">709</property>
  <property name="meta.media.color_trc">2</property>
  <property name="meta.media.has_b_frames">2</property>
  <property name="meta.media.width">5160</property>
  <property name="meta.media.height">2160</property>
  <property name="meta.media.aspect_ratio">1</property>
  <property name="meta.media.color_range">mpeg</property>
  <property name="xml">was here</property>
  <property name="meta.media.top_field_first">0</property>
  <property name="meta.media.progressive">1</property>
  <property name="set.test_audio">1</property>
  <property name="set.test_image">0</property>
 </chain>
 <chain id="chain26" out="00:00:05.250">
  <property name="length">127</property>
  <property name="eof">pause</property>
  <property name="resource">C:/dev/workspace/indy/dist/room/attic/content/upscale/wide/dialog3-2.mp4</property>
  <property name="mlt_service">avformat-novalidate</property>
  <property name="seekable">1</property>
  <property name="audio_index">1</property>
  <property name="video_index">0</property>
  <property name="vstream">0</property>
  <property name="astream">0</property>
  <property name="kdenlive:folderid">4</property>
  <property name="kdenlive:id">78</property>
  <property name="kdenlive:control_uuid">{1adec1a0-9e73-4702-a52d-2d6786c2be7b}</property>
  <property name="mute_on_pause">0</property>
  <property name="kdenlive:clip_type">0</property>
  <property name="kdenlive:file_size">12154424</property>
  <property name="kdenlive:file_hash">16cf206bacf207770850f05cc9af0a44</property>
  <property name="meta.media.nb_streams">2</property>
  <property name="meta.media.0.stream.type">video</property>
  <property name="meta.media.0.stream.frame_rate">24</property>
  <property name="meta.media.0.stream.sample_aspect_ratio">0</property>
  <property name="meta.media.0.codec.width">5160</property>
  <property name="meta.media.0.codec.height">2160</property>
  <property name="meta.media.0.codec.rotate">0</property>
  <property name="meta.media.0.codec.pix_fmt">yuv420p</property>
  <property name="meta.media.0.codec.sample_aspect_ratio">0</property>
  <property name="meta.media.0.codec.colorspace">709</property>
  <property name="meta.media.0.codec.name">hevc</property>
  <property name="meta.media.0.codec.long_name">HEVC (High Efficiency Video Coding)</property>
  <property name="meta.media.0.codec.bit_rate">18361050</property>
  <property name="meta.attr.0.stream.handler_name.markup">VideoHandler</property>
  <property name="meta.attr.0.stream.vendor_id.markup">[0][0][0][0]</property>
  <property name="meta.attr.0.stream.encoder.markup">Lavc61.19.101 libx265</property>
  <property name="meta.media.1.stream.type">audio</property>
  <property name="meta.media.1.codec.sample_fmt">fltp</property>
  <property name="meta.media.1.codec.sample_rate">48000</property>
  <property name="meta.media.1.codec.channels">2</property>
  <property name="meta.media.1.codec.layout">stereo</property>
  <property name="meta.media.1.codec.name">aac</property>
  <property name="meta.media.1.codec.long_name">AAC (Advanced Audio Coding)</property>
  <property name="meta.media.1.codec.bit_rate">2275</property>
  <property name="meta.attr.1.stream.handler_name.markup">SoundHandler</property>
  <property name="meta.attr.1.stream.vendor_id.markup">[0][0][0][0]</property>
  <property name="meta.attr.minor_version.markup">512</property>
  <property name="meta.attr.major_brand.markup">isom</property>
  <property name="meta.attr.compatible_brands.markup">isomiso2mp41</property>
  <property name="meta.attr.encoder.markup">Lavf61.9.100</property>
  <property name="meta.media.sample_aspect_num">1</property>
  <property name="meta.media.sample_aspect_den">1</property>
  <property name="meta.media.frame_rate_num">24</property>
  <property name="meta.media.frame_rate_den">1</property>
  <property name="meta.media.colorspace">709</property>
  <property name="meta.media.color_trc">2</property>
  <property name="meta.media.has_b_frames">2</property>
  <property name="meta.media.width">5160</property>
  <property name="meta.media.height">2160</property>
  <property name="meta.media.aspect_ratio">1</property>
  <property name="meta.media.color_range">mpeg</property>
  <property name="xml">was here</property>
  <property name="meta.media.top_field_first">0</property>
  <property name="meta.media.progressive">1</property>
  <property name="set.test_audio">1</property>
  <property name="set.test_image">0</property>
 </chain>
 <chain id="chain27" out="00:00:03.958">
  <property name="length">96</property>
  <property name="eof">pause</property>
  <property name="resource">C:/dev/workspace/indy/dist/room/attic/content/upscale/wide/dialog2.mp4</property>
  <property name="mlt_service">avformat-novalidate</property>
  <property name="seekable">1</property>
  <property name="audio_index">1</property>
  <property name="video_index">0</property>
  <property name="vstream">0</property>
  <property name="astream">0</property>
  <property name="kdenlive:folderid">4</property>
  <property name="kdenlive:id">81</property>
  <property name="kdenlive:control_uuid">{5e279771-c57f-49fc-bb69-67783c0d79f0}</property>
  <property name="mute_on_pause">0</property>
  <property name="kdenlive:clip_type">0</property>
  <property name="kdenlive:file_size">15047151</property>
  <property name="kdenlive:file_hash">c08d4d5eb35b2f8a407d485c5ed0c595</property>
  <property name="meta.media.nb_streams">2</property>
  <property name="meta.media.0.stream.type">video</property>
  <property name="meta.media.0.stream.frame_rate">60</property>
  <property name="meta.media.0.stream.sample_aspect_ratio">0</property>
  <property name="meta.media.0.codec.width">5160</property>
  <property name="meta.media.0.codec.height">2160</property>
  <property name="meta.media.0.codec.rotate">0</property>
  <property name="meta.media.0.codec.pix_fmt">yuv444p</property>
  <property name="meta.media.0.codec.sample_aspect_ratio">0</property>
  <property name="meta.media.0.codec.colorspace">709</property>
  <property name="meta.media.0.codec.name">h264</property>
  <property name="meta.media.0.codec.long_name">H.264 / AVC / MPEG-4 AVC / MPEG-4 part 10</property>
  <property name="meta.media.0.codec.bit_rate">29952713</property>
  <property name="meta.attr.0.stream.handler_name.markup">VideoHandler</property>
  <property name="meta.attr.0.stream.vendor_id.markup">[0][0][0][0]</property>
  <property name="meta.attr.0.stream.encoder.markup">Lavc61.19.101 libx264</property>
  <property name="meta.media.1.stream.type">audio</property>
  <property name="meta.media.1.codec.sample_fmt">fltp</property>
  <property name="meta.media.1.codec.sample_rate">48000</property>
  <property name="meta.media.1.codec.channels">2</property>
  <property name="meta.media.1.codec.layout">stereo</property>
  <property name="meta.media.1.codec.name">aac</property>
  <property name="meta.media.1.codec.long_name">AAC (Advanced Audio Coding)</property>
  <property name="meta.media.1.codec.bit_rate">2250</property>
  <property name="meta.attr.1.stream.handler_name.markup">SoundHandler</property>
  <property name="meta.attr.1.stream.vendor_id.markup">[0][0][0][0]</property>
  <property name="meta.attr.minor_version.markup">512</property>
  <property name="meta.attr.major_brand.markup">isom</property>
  <property name="meta.attr.compatible_brands.markup">isomiso2avc1mp41</property>
  <property name="meta.attr.encoder.markup">Lavf61.9.100</property>
  <property name="meta.media.sample_aspect_num">1</property>
  <property name="meta.media.sample_aspect_den">1</property>
  <property name="meta.media.frame_rate_num">60</property>
  <property name="meta.media.frame_rate_den">1</property>
  <property name="meta.media.colorspace">709</property>
  <property name="meta.media.color_trc">2</property>
  <property name="meta.media.has_b_frames">2</property>
  <property name="meta.media.width">5160</property>
  <property name="meta.media.height">2160</property>
  <property name="meta.media.aspect_ratio">1</property>
  <property name="meta.media.color_range">mpeg</property>
  <property name="xml">was here</property>
  <property name="meta.media.top_field_first">0</property>
  <property name="meta.media.progressive">1</property>
  <property name="set.test_audio">1</property>
  <property name="set.test_image">0</property>
 </chain>
 <chain id="chain28" out="00:00:05.042">
  <property name="length">122</property>
  <property name="eof">pause</property>
  <property name="resource">C:/dev/workspace/indy/dist/room/attic/content/upscale/wide/cross7.mp4</property>
  <property name="mlt_service">avformat-novalidate</property>
  <property name="seekable">1</property>
  <property name="audio_index">1</property>
  <property name="video_index">0</property>
  <property name="vstream">0</property>
  <property name="astream">0</property>
  <property name="kdenlive:folderid">4</property>
  <property name="kdenlive:id">83</property>
  <property name="kdenlive:control_uuid">{404a8c4c-fa56-46ed-a4b9-67eb61a1cfef}</property>
  <property name="mute_on_pause">0</property>
  <property name="kdenlive:clip_type">0</property>
  <property name="kdenlive:file_size">18074284</property>
  <property name="kdenlive:file_hash">8db658993111f3259dc9fe380058c8ae</property>
  <property name="meta.media.nb_streams">2</property>
  <property name="meta.media.0.stream.type">video</property>
  <property name="meta.media.0.stream.frame_rate">60</property>
  <property name="meta.media.0.stream.sample_aspect_ratio">0</property>
  <property name="meta.media.0.codec.width">5160</property>
  <property name="meta.media.0.codec.height">2160</property>
  <property name="meta.media.0.codec.rotate">0</property>
  <property name="meta.media.0.codec.pix_fmt">yuv444p</property>
  <property name="meta.media.0.codec.sample_aspect_ratio">0</property>
  <property name="meta.media.0.codec.colorspace">709</property>
  <property name="meta.media.0.codec.name">h264</property>
  <property name="meta.media.0.codec.long_name">H.264 / AVC / MPEG-4 AVC / MPEG-4 part 10</property>
  <property name="meta.media.0.codec.bit_rate">28334243</property>
  <property name="meta.attr.0.stream.handler_name.markup">VideoHandler</property>
  <property name="meta.attr.0.stream.vendor_id.markup">[0][0][0][0]</property>
  <property name="meta.attr.0.stream.encoder.markup">Lavc61.19.101 libx264</property>
  <property name="meta.media.1.stream.type">audio</property>
  <property name="meta.media.1.codec.sample_fmt">fltp</property>
  <property name="meta.media.1.codec.sample_rate">48000</property>
  <property name="meta.media.1.codec.channels">2</property>
  <property name="meta.media.1.codec.layout">stereo</property>
  <property name="meta.media.1.codec.name">aac</property>
  <property name="meta.media.1.codec.long_name">AAC (Advanced Audio Coding)</property>
  <property name="meta.media.1.codec.bit_rate">2276</property>
  <property name="meta.attr.1.stream.handler_name.markup">SoundHandler</property>
  <property name="meta.attr.1.stream.vendor_id.markup">[0][0][0][0]</property>
  <property name="meta.attr.minor_version.markup">512</property>
  <property name="meta.attr.major_brand.markup">isom</property>
  <property name="meta.attr.compatible_brands.markup">isomiso2avc1mp41</property>
  <property name="meta.attr.encoder.markup">Lavf61.9.100</property>
  <property name="meta.media.sample_aspect_num">1</property>
  <property name="meta.media.sample_aspect_den">1</property>
  <property name="meta.media.frame_rate_num">60</property>
  <property name="meta.media.frame_rate_den">1</property>
  <property name="meta.media.colorspace">709</property>
  <property name="meta.media.color_trc">2</property>
  <property name="meta.media.has_b_frames">2</property>
  <property name="meta.media.width">5160</property>
  <property name="meta.media.height">2160</property>
  <property name="meta.media.aspect_ratio">1</property>
  <property name="meta.media.color_range">mpeg</property>
  <property name="xml">was here</property>
  <property name="meta.media.top_field_first">0</property>
  <property name="meta.media.progressive">1</property>
  <property name="set.test_audio">1</property>
  <property name="set.test_image">0</property>
 </chain>
 <chain id="chain29" out="00:00:09.542">
  <property name="length">230</property>
  <property name="eof">pause</property>
  <property name="resource">C:/dev/workspace/indy/dist/room/attic/content/upscale/wide/gargoyle6.mp4</property>
  <property name="mlt_service">avformat-novalidate</property>
  <property name="seekable">1</property>
  <property name="audio_index">1</property>
  <property name="video_index">0</property>
  <property name="vstream">0</property>
  <property name="astream">0</property>
  <property name="kdenlive:folderid">4</property>
  <property name="kdenlive:id">84</property>
  <property name="kdenlive:control_uuid">{2e334969-7fd2-47d7-8d0a-cae72a5f7f49}</property>
  <property name="mute_on_pause">0</property>
  <property name="kdenlive:clip_type">0</property>
  <property name="kdenlive:file_size">31260942</property>
  <property name="kdenlive:file_hash">a2576581b4948abdd9725a312b31e501</property>
  <property name="meta.media.nb_streams">2</property>
  <property name="meta.media.0.stream.type">video</property>
  <property name="meta.media.0.stream.frame_rate">60</property>
  <property name="meta.media.0.stream.sample_aspect_ratio">0</property>
  <property name="meta.media.0.codec.width">5160</property>
  <property name="meta.media.0.codec.height">2160</property>
  <property name="meta.media.0.codec.rotate">0</property>
  <property name="meta.media.0.codec.pix_fmt">yuv444p</property>
  <property name="meta.media.0.codec.sample_aspect_ratio">0</property>
  <property name="meta.media.0.codec.colorspace">709</property>
  <property name="meta.media.0.codec.name">h264</property>
  <property name="meta.media.0.codec.long_name">H.264 / AVC / MPEG-4 AVC / MPEG-4 part 10</property>
  <property name="meta.media.0.codec.bit_rate">26080268</property>
  <property name="meta.attr.0.stream.handler_name.markup">VideoHandler</property>
  <property name="meta.attr.0.stream.vendor_id.markup">[0][0][0][0]</property>
  <property name="meta.attr.0.stream.encoder.markup">Lavc61.19.101 libx264</property>
  <property name="meta.media.1.stream.type">audio</property>
  <property name="meta.media.1.codec.sample_fmt">fltp</property>
  <property name="meta.media.1.codec.sample_rate">48000</property>
  <property name="meta.media.1.codec.channels">2</property>
  <property name="meta.media.1.codec.layout">stereo</property>
  <property name="meta.media.1.codec.name">aac</property>
  <property name="meta.media.1.codec.long_name">AAC (Advanced Audio Coding)</property>
  <property name="meta.media.1.codec.bit_rate">2265</property>
  <property name="meta.attr.1.stream.handler_name.markup">SoundHandler</property>
  <property name="meta.attr.1.stream.vendor_id.markup">[0][0][0][0]</property>
  <property name="meta.attr.minor_version.markup">512</property>
  <property name="meta.attr.major_brand.markup">isom</property>
  <property name="meta.attr.compatible_brands.markup">isomiso2avc1mp41</property>
  <property name="meta.attr.encoder.markup">Lavf61.9.100</property>
  <property name="meta.media.sample_aspect_num">1</property>
  <property name="meta.media.sample_aspect_den">1</property>
  <property name="meta.media.frame_rate_num">60</property>
  <property name="meta.media.frame_rate_den">1</property>
  <property name="meta.media.colorspace">709</property>
  <property name="meta.media.color_trc">2</property>
  <property name="meta.media.has_b_frames">2</property>
  <property name="meta.media.width">5160</property>
  <property name="meta.media.height">2160</property>
  <property name="meta.media.aspect_ratio">1</property>
  <property name="meta.media.color_range">mpeg</property>
  <property name="xml">was here</property>
  <property name="meta.media.top_field_first">0</property>
  <property name="meta.media.progressive">1</property>
  <property name="set.test_audio">1</property>
  <property name="set.test_image">0</property>
 </chain>
 <chain id="chain30" out="00:00:08.958">
  <property name="length">216</property>
  <property name="eof">pause</property>
  <property name="resource">C:/dev/workspace/indy/dist/room/attic/content/upscale/wide/attic11-1.mp4</property>
  <property name="mlt_service">avformat-novalidate</property>
  <property name="seekable">1</property>
  <property name="audio_index">1</property>
  <property name="video_index">0</property>
  <property name="vstream">0</property>
  <property name="astream">0</property>
  <property name="kdenlive:folderid">4</property>
  <property name="kdenlive:id">79</property>
  <property name="kdenlive:control_uuid">{017a4357-fc50-4b3f-b1f9-76c667b28b9b}</property>
  <property name="mute_on_pause">0</property>
  <property name="kdenlive:clip_type">0</property>
  <property name="kdenlive:file_size">38148891</property>
  <property name="kdenlive:file_hash">8066214d4d254130ff00c05bcabc54f8</property>
  <property name="meta.media.nb_streams">2</property>
  <property name="meta.media.0.stream.type">video</property>
  <property name="meta.media.0.stream.frame_rate">60</property>
  <property name="meta.media.0.stream.sample_aspect_ratio">0</property>
  <property name="meta.media.0.codec.width">5160</property>
  <property name="meta.media.0.codec.height">2160</property>
  <property name="meta.media.0.codec.rotate">0</property>
  <property name="meta.media.0.codec.pix_fmt">yuv444p</property>
  <property name="meta.media.0.codec.sample_aspect_ratio">0</property>
  <property name="meta.media.0.codec.colorspace">709</property>
  <property name="meta.media.0.codec.name">h264</property>
  <property name="meta.media.0.codec.long_name">H.264 / AVC / MPEG-4 AVC / MPEG-4 part 10</property>
  <property name="meta.media.0.codec.bit_rate">33893657</property>
  <property name="meta.attr.0.stream.handler_name.markup">VideoHandler</property>
  <property name="meta.attr.0.stream.vendor_id.markup">[0][0][0][0]</property>
  <property name="meta.attr.0.stream.encoder.markup">Lavc61.19.101 libx264</property>
  <property name="meta.media.1.stream.type">audio</property>
  <property name="meta.media.1.codec.sample_fmt">fltp</property>
  <property name="meta.media.1.codec.sample_rate">48000</property>
  <property name="meta.media.1.codec.channels">2</property>
  <property name="meta.media.1.codec.layout">stereo</property>
  <property name="meta.media.1.codec.name">aac</property>
  <property name="meta.media.1.codec.long_name">AAC (Advanced Audio Coding)</property>
  <property name="meta.media.1.codec.bit_rate">2265</property>
  <property name="meta.attr.1.stream.handler_name.markup">SoundHandler</property>
  <property name="meta.attr.1.stream.vendor_id.markup">[0][0][0][0]</property>
  <property name="meta.attr.minor_version.markup">512</property>
  <property name="meta.attr.major_brand.markup">isom</property>
  <property name="meta.attr.compatible_brands.markup">isomiso2avc1mp41</property>
  <property name="meta.attr.encoder.markup">Lavf61.9.100</property>
  <property name="meta.media.sample_aspect_num">1</property>
  <property name="meta.media.sample_aspect_den">1</property>
  <property name="meta.media.frame_rate_num">60</property>
  <property name="meta.media.frame_rate_den">1</property>
  <property name="meta.media.colorspace">709</property>
  <property name="meta.media.color_trc">2</property>
  <property name="meta.media.has_b_frames">2</property>
  <property name="meta.media.width">5160</property>
  <property name="meta.media.height">2160</property>
  <property name="meta.media.aspect_ratio">1</property>
  <property name="meta.media.color_range">mpeg</property>
  <property name="xml">was here</property>
  <property name="meta.media.top_field_first">0</property>
  <property name="meta.media.progressive">1</property>
  <property name="set.test_audio">1</property>
  <property name="set.test_image">0</property>
 </chain>
 <chain id="chain31" out="00:00:05.042">
  <property name="length">122</property>
  <property name="eof">pause</property>
  <property name="resource">C:/dev/workspace/indy/dist/room/attic/content/upscale/wide/attic12.mp4</property>
  <property name="mlt_service">avformat-novalidate</property>
  <property name="seekable">1</property>
  <property name="audio_index">1</property>
  <property name="video_index">0</property>
  <property name="vstream">0</property>
  <property name="astream">0</property>
  <property name="kdenlive:folderid">4</property>
  <property name="kdenlive:id">80</property>
  <property name="kdenlive:control_uuid">{99033c3d-8dfc-4a46-8477-1c02f7bb170e}</property>
  <property name="mute_on_pause">0</property>
  <property name="kdenlive:clip_type">0</property>
  <property name="kdenlive:file_size">15265559</property>
  <property name="kdenlive:file_hash">211a41be7b4b1d1be8fbc50721280d89</property>
  <property name="meta.media.nb_streams">2</property>
  <property name="meta.media.0.stream.type">video</property>
  <property name="meta.media.0.stream.frame_rate">60</property>
  <property name="meta.media.0.stream.sample_aspect_ratio">0</property>
  <property name="meta.media.0.codec.width">5160</property>
  <property name="meta.media.0.codec.height">2160</property>
  <property name="meta.media.0.codec.rotate">0</property>
  <property name="meta.media.0.codec.pix_fmt">yuv444p</property>
  <property name="meta.media.0.codec.sample_aspect_ratio">0</property>
  <property name="meta.media.0.codec.colorspace">709</property>
  <property name="meta.media.0.codec.name">h264</property>
  <property name="meta.media.0.codec.long_name">H.264 / AVC / MPEG-4 AVC / MPEG-4 part 10</property>
  <property name="meta.media.0.codec.bit_rate">23928425</property>
  <property name="meta.attr.0.stream.handler_name.markup">VideoHandler</property>
  <property name="meta.attr.0.stream.vendor_id.markup">[0][0][0][0]</property>
  <property name="meta.attr.0.stream.encoder.markup">Lavc61.19.101 libx264</property>
  <property name="meta.media.1.stream.type">audio</property>
  <property name="meta.media.1.codec.sample_fmt">fltp</property>
  <property name="meta.media.1.codec.sample_rate">48000</property>
  <property name="meta.media.1.codec.channels">2</property>
  <property name="meta.media.1.codec.layout">stereo</property>
  <property name="meta.media.1.codec.name">aac</property>
  <property name="meta.media.1.codec.long_name">AAC (Advanced Audio Coding)</property>
  <property name="meta.media.1.codec.bit_rate">2276</property>
  <property name="meta.attr.1.stream.handler_name.markup">SoundHandler</property>
  <property name="meta.attr.1.stream.vendor_id.markup">[0][0][0][0]</property>
  <property name="meta.attr.minor_version.markup">512</property>
  <property name="meta.attr.major_brand.markup">isom</property>
  <property name="meta.attr.compatible_brands.markup">isomiso2avc1mp41</property>
  <property name="meta.attr.encoder.markup">Lavf61.9.100</property>
  <property name="meta.media.sample_aspect_num">1</property>
  <property name="meta.media.sample_aspect_den">1</property>
  <property name="meta.media.frame_rate_num">60</property>
  <property name="meta.media.frame_rate_den">1</property>
  <property name="meta.media.colorspace">709</property>
  <property name="meta.media.color_trc">2</property>
  <property name="meta.media.has_b_frames">2</property>
  <property name="meta.media.width">5160</property>
  <property name="meta.media.height">2160</property>
  <property name="meta.media.aspect_ratio">1</property>
  <property name="meta.media.color_range">mpeg</property>
  <property name="xml">was here</property>
  <property name="meta.media.top_field_first">0</property>
  <property name="meta.media.progressive">1</property>
  <property name="set.test_audio">1</property>
  <property name="set.test_image">0</property>
 </chain>
 <chain id="chain32" out="00:00:05.042">
  <property name="length">122</property>
  <property name="eof">pause</property>
  <property name="resource">C:/dev/workspace/indy/dist/room/attic2/content/upscale/wide/indy.mp4</property>
  <property name="mlt_service">avformat-novalidate</property>
  <property name="seekable">1</property>
  <property name="audio_index">-1</property>
  <property name="video_index">0</property>
  <property name="vstream">0</property>
  <property name="kdenlive:folderid">4</property>
  <property name="kdenlive:id">85</property>
  <property name="kdenlive:control_uuid">{0bf7c8a8-76e0-4d93-8782-da6eb447392c}</property>
  <property name="mute_on_pause">0</property>
  <property name="kdenlive:clip_type">2</property>
  <property name="kdenlive:file_size">19151951</property>
  <property name="kdenlive:file_hash">dbeab0e57545d1e5e736da2faa4422b5</property>
  <property name="meta.media.nb_streams">1</property>
  <property name="meta.media.0.stream.type">video</property>
  <property name="meta.media.0.stream.frame_rate">60</property>
  <property name="meta.media.0.stream.sample_aspect_ratio">0</property>
  <property name="meta.media.0.codec.width">5160</property>
  <property name="meta.media.0.codec.height">2160</property>
  <property name="meta.media.0.codec.rotate">0</property>
  <property name="meta.media.0.codec.pix_fmt">yuv444p</property>
  <property name="meta.media.0.codec.sample_aspect_ratio">0</property>
  <property name="meta.media.0.codec.colorspace">709</property>
  <property name="meta.media.0.codec.name">h264</property>
  <property name="meta.media.0.codec.long_name">H.264 / AVC / MPEG-4 AVC / MPEG-4 part 10</property>
  <property name="meta.media.0.codec.bit_rate">30132963</property>
  <property name="meta.attr.0.stream.handler_name.markup">VideoHandler</property>
  <property name="meta.attr.0.stream.vendor_id.markup">[0][0][0][0]</property>
  <property name="meta.attr.0.stream.encoder.markup">Lavc61.19.101 libx264</property>
  <property name="meta.attr.minor_version.markup">512</property>
  <property name="meta.attr.major_brand.markup">isom</property>
  <property name="meta.attr.compatible_brands.markup">isomiso2avc1mp41</property>
  <property name="meta.attr.encoder.markup">Lavf61.9.100</property>
  <property name="meta.media.sample_aspect_num">1</property>
  <property name="meta.media.sample_aspect_den">1</property>
  <property name="meta.media.frame_rate_num">60</property>
  <property name="meta.media.frame_rate_den">1</property>
  <property name="meta.media.colorspace">709</property>
  <property name="meta.media.color_trc">2</property>
  <property name="meta.media.has_b_frames">2</property>
  <property name="meta.media.width">5160</property>
  <property name="meta.media.height">2160</property>
  <property name="meta.media.aspect_ratio">1</property>
  <property name="meta.media.color_range">mpeg</property>
  <property name="xml">was here</property>
  <property name="meta.media.top_field_first">0</property>
  <property name="meta.media.progressive">1</property>
  <property name="set.test_audio">1</property>
  <property name="set.test_image">0</property>
 </chain>
 <producer id="producer3" in="00:00:00.000" out="00:00:03.958">
  <property name="length">96</property>
  <property name="eof">pause</property>
  <property name="resource">1.166670:C:/dev/workspace/indy/dist/room/attic2/content/upscale/wide/indy4.mp4</property>
  <property name="aspect_ratio">1</property>
  <property name="meta.media.nb_streams">2</property>
  <property name="meta.media.0.stream.type">video</property>
  <property name="meta.media.0.stream.frame_rate">48</property>
  <property name="meta.media.0.stream.sample_aspect_ratio">0</property>
  <property name="meta.media.0.codec.width">5160</property>
  <property name="meta.media.0.codec.height">2160</property>
  <property name="meta.media.0.codec.rotate">0</property>
  <property name="meta.media.0.codec.pix_fmt">yuv444p</property>
  <property name="meta.media.0.codec.sample_aspect_ratio">0</property>
  <property name="meta.media.0.codec.colorspace">709</property>
  <property name="meta.media.0.codec.name">h264</property>
  <property name="meta.media.0.codec.long_name">H.264 / AVC / MPEG-4 AVC / MPEG-4 part 10</property>
  <property name="meta.media.0.codec.bit_rate">45708204</property>
  <property name="meta.attr.0.stream.handler_name.markup">VideoHandler</property>
  <property name="meta.attr.0.stream.vendor_id.markup">[0][0][0][0]</property>
  <property name="meta.attr.0.stream.encoder.markup">Lavc61.19.101 libx264</property>
  <property name="meta.media.1.stream.type">audio</property>
  <property name="meta.media.1.codec.sample_fmt">fltp</property>
  <property name="meta.media.1.codec.sample_rate">48000</property>
  <property name="meta.media.1.codec.channels">2</property>
  <property name="meta.media.1.codec.layout">stereo</property>
  <property name="meta.media.1.codec.name">aac</property>
  <property name="meta.media.1.codec.long_name">AAC (Advanced Audio Coding)</property>
  <property name="meta.media.1.codec.bit_rate">2279</property>
  <property name="meta.attr.1.stream.handler_name.markup">SoundHandler</property>
  <property name="meta.attr.1.stream.vendor_id.markup">[0][0][0][0]</property>
  <property name="meta.attr.minor_version.markup">512</property>
  <property name="meta.attr.major_brand.markup">isom</property>
  <property name="meta.attr.compatible_brands.markup">isomiso2avc1mp41</property>
  <property name="meta.attr.encoder.markup">Lavf61.9.100</property>
  <property name="seekable">1</property>
  <property name="meta.media.sample_aspect_num">1</property>
  <property name="meta.media.sample_aspect_den">1</property>
  <property name="audio_index">-1</property>
  <property name="video_index">0</property>
  <property name="warp_speed">1.16667</property>
  <property name="warp_resource">C:/dev/workspace/indy/dist/room/attic2/content/upscale/wide/indy4.mp4</property>
  <property name="mlt_service">timewarp</property>
  <property name="kdenlive:control_uuid">{0ec0567e-2b79-4a68-8520-02c5e24bd8c7}</property>
  <property name="vstream">0</property>
  <property name="astream">-1</property>
  <property name="set.test_audio">1</property>
  <property name="set.test_image">0</property>
  <property name="kdenlive:id">86</property>
  <property name="warp_pitch">0</property>
  <property name="meta.media.frame_rate_num">48</property>
  <property name="meta.media.frame_rate_den">1</property>
  <property name="meta.media.colorspace">709</property>
  <property name="meta.media.color_trc">2</property>
  <property name="meta.media.has_b_frames">2</property>
  <property name="meta.media.width">5160</property>
  <property name="meta.media.height">2160</property>
  <property name="meta.media.aspect_ratio">1</property>
  <property name="meta.media.color_range">mpeg</property>
  <property name="meta.media.top_field_first">0</property>
  <property name="meta.media.progressive">1</property>
 </producer>
 <chain id="chain33" out="00:00:05.042">
  <property name="length">122</property>
  <property name="eof">pause</property>
  <property name="resource">C:/dev/workspace/indy/dist/room/attic2/content/upscale/wide/indy6.mp4</property>
  <property name="mlt_service">avformat-novalidate</property>
  <property name="seekable">1</property>
  <property name="audio_index">1</property>
  <property name="video_index">0</property>
  <property name="vstream">0</property>
  <property name="astream">0</property>
  <property name="kdenlive:folderid">4</property>
  <property name="kdenlive:id">87</property>
  <property name="kdenlive:control_uuid">{7ebad5ea-c89a-4078-8d49-c906b1ff91a7}</property>
  <property name="mute_on_pause">0</property>
  <property name="kdenlive:clip_type">0</property>
  <property name="kdenlive:file_size">16993807</property>
  <property name="kdenlive:file_hash">efd26ab8c0e2e730c5b4daf3e1f4a545</property>
  <property name="meta.media.nb_streams">2</property>
  <property name="meta.media.0.stream.type">video</property>
  <property name="meta.media.0.stream.frame_rate">60</property>
  <property name="meta.media.0.stream.sample_aspect_ratio">0</property>
  <property name="meta.media.0.codec.width">5160</property>
  <property name="meta.media.0.codec.height">2160</property>
  <property name="meta.media.0.codec.rotate">0</property>
  <property name="meta.media.0.codec.pix_fmt">yuv444p</property>
  <property name="meta.media.0.codec.sample_aspect_ratio">0</property>
  <property name="meta.media.0.codec.colorspace">709</property>
  <property name="meta.media.0.codec.name">h264</property>
  <property name="meta.media.0.codec.long_name">H.264 / AVC / MPEG-4 AVC / MPEG-4 part 10</property>
  <property name="meta.media.0.codec.bit_rate">26639377</property>
  <property name="meta.attr.0.stream.handler_name.markup">VideoHandler</property>
  <property name="meta.attr.0.stream.vendor_id.markup">[0][0][0][0]</property>
  <property name="meta.attr.0.stream.encoder.markup">Lavc61.19.101 libx264</property>
  <property name="meta.media.1.stream.type">audio</property>
  <property name="meta.media.1.codec.sample_fmt">fltp</property>
  <property name="meta.media.1.codec.sample_rate">48000</property>
  <property name="meta.media.1.codec.channels">2</property>
  <property name="meta.media.1.codec.layout">stereo</property>
  <property name="meta.media.1.codec.name">aac</property>
  <property name="meta.media.1.codec.long_name">AAC (Advanced Audio Coding)</property>
  <property name="meta.media.1.codec.bit_rate">2276</property>
  <property name="meta.attr.1.stream.handler_name.markup">SoundHandler</property>
  <property name="meta.attr.1.stream.vendor_id.markup">[0][0][0][0]</property>
  <property name="meta.attr.minor_version.markup">512</property>
  <property name="meta.attr.major_brand.markup">isom</property>
  <property name="meta.attr.compatible_brands.markup">isomiso2avc1mp41</property>
  <property name="meta.attr.encoder.markup">Lavf61.9.100</property>
  <property name="meta.media.sample_aspect_num">1</property>
  <property name="meta.media.sample_aspect_den">1</property>
  <property name="meta.media.frame_rate_num">60</property>
  <property name="meta.media.frame_rate_den">1</property>
  <property name="meta.media.colorspace">709</property>
  <property name="meta.media.color_trc">2</property>
  <property name="meta.media.has_b_frames">2</property>
  <property name="meta.media.width">5160</property>
  <property name="meta.media.height">2160</property>
  <property name="meta.media.aspect_ratio">1</property>
  <property name="meta.media.color_range">mpeg</property>
  <property name="xml">was here</property>
  <property name="meta.media.top_field_first">0</property>
  <property name="meta.media.progressive">1</property>
  <property name="set.test_audio">1</property>
  <property name="set.test_image">0</property>
 </chain>
 <chain id="chain34" out="00:00:09.542">
  <property name="length">230</property>
  <property name="eof">pause</property>
  <property name="resource">C:/dev/workspace/indy/dist/room/attic2/content/upscale/wide/indy5.mp4</property>
  <property name="mlt_service">avformat-novalidate</property>
  <property name="seekable">1</property>
  <property name="audio_index">1</property>
  <property name="video_index">0</property>
  <property name="vstream">0</property>
  <property name="astream">0</property>
  <property name="kdenlive:folderid">4</property>
  <property name="kdenlive:id">88</property>
  <property name="kdenlive:control_uuid">{63753bce-76fb-4b8a-880f-0328ed26bd88}</property>
  <property name="mute_on_pause">0</property>
  <property name="kdenlive:clip_type">0</property>
  <property name="kdenlive:file_size">27611596</property>
  <property name="kdenlive:file_hash">c4ff82228ae7078d9b2eec964d47d708</property>
  <property name="meta.media.nb_streams">2</property>
  <property name="meta.media.0.stream.type">video</property>
  <property name="meta.media.0.stream.frame_rate">60</property>
  <property name="meta.media.0.stream.sample_aspect_ratio">0</property>
  <property name="meta.media.0.codec.width">5160</property>
  <property name="meta.media.0.codec.height">2160</property>
  <property name="meta.media.0.codec.rotate">0</property>
  <property name="meta.media.0.codec.pix_fmt">yuv444p</property>
  <property name="meta.media.0.codec.sample_aspect_ratio">0</property>
  <property name="meta.media.0.codec.colorspace">709</property>
  <property name="meta.media.0.codec.name">h264</property>
  <property name="meta.media.0.codec.long_name">H.264 / AVC / MPEG-4 AVC / MPEG-4 part 10</property>
  <property name="meta.media.0.codec.bit_rate">23033844</property>
  <property name="meta.attr.0.stream.handler_name.markup">VideoHandler</property>
  <property name="meta.attr.0.stream.vendor_id.markup">[0][0][0][0]</property>
  <property name="meta.attr.0.stream.encoder.markup">Lavc61.19.101 libx264</property>
  <property name="meta.media.1.stream.type">audio</property>
  <property name="meta.media.1.codec.sample_fmt">fltp</property>
  <property name="meta.media.1.codec.sample_rate">48000</property>
  <property name="meta.media.1.codec.channels">2</property>
  <property name="meta.media.1.codec.layout">stereo</property>
  <property name="meta.media.1.codec.name">aac</property>
  <property name="meta.media.1.codec.long_name">AAC (Advanced Audio Coding)</property>
  <property name="meta.media.1.codec.bit_rate">2265</property>
  <property name="meta.attr.1.stream.handler_name.markup">SoundHandler</property>
  <property name="meta.attr.1.stream.vendor_id.markup">[0][0][0][0]</property>
  <property name="meta.attr.minor_version.markup">512</property>
  <property name="meta.attr.major_brand.markup">isom</property>
  <property name="meta.attr.compatible_brands.markup">isomiso2avc1mp41</property>
  <property name="meta.attr.encoder.markup">Lavf61.9.100</property>
  <property name="meta.media.sample_aspect_num">1</property>
  <property name="meta.media.sample_aspect_den">1</property>
  <property name="meta.media.frame_rate_num">60</property>
  <property name="meta.media.frame_rate_den">1</property>
  <property name="meta.media.colorspace">709</property>
  <property name="meta.media.color_trc">2</property>
  <property name="meta.media.has_b_frames">2</property>
  <property name="meta.media.width">5160</property>
  <property name="meta.media.height">2160</property>
  <property name="meta.media.aspect_ratio">1</property>
  <property name="meta.media.color_range">mpeg</property>
  <property name="xml">was here</property>
  <property name="meta.media.top_field_first">0</property>
  <property name="meta.media.progressive">1</property>
  <property name="set.test_audio">1</property>
  <property name="set.test_image">0</property>
 </chain>
 <producer id="producer4" in="00:00:00.000" out="00:00:13.000">
  <property name="length">313</property>
  <property name="eof">pause</property>
  <property name="resource">0.800000:C:/dev/workspace/indy/dist/room/chase/content/upscale/wide/college4.mp4</property>
  <property name="aspect_ratio">1</property>
  <property name="meta.media.nb_streams">2</property>
  <property name="meta.media.0.stream.type">video</property>
  <property name="meta.media.0.stream.frame_rate">60</property>
  <property name="meta.media.0.stream.sample_aspect_ratio">0</property>
  <property name="meta.media.0.codec.width">5160</property>
  <property name="meta.media.0.codec.height">2160</property>
  <property name="meta.media.0.codec.rotate">0</property>
  <property name="meta.media.0.codec.pix_fmt">yuv420p</property>
  <property name="meta.media.0.codec.sample_aspect_ratio">0</property>
  <property name="meta.media.0.codec.colorspace">709</property>
  <property name="meta.media.0.codec.name">hevc</property>
  <property name="meta.media.0.codec.long_name">HEVC (High Efficiency Video Coding)</property>
  <property name="meta.media.0.codec.bit_rate">39409790</property>
  <property name="meta.attr.0.stream.handler_name.markup">VideoHandler</property>
  <property name="meta.attr.0.stream.vendor_id.markup">[0][0][0][0]</property>
  <property name="meta.attr.0.stream.encoder.markup">Lavc61.19.101 libx265</property>
  <property name="meta.media.1.stream.type">audio</property>
  <property name="meta.media.1.codec.sample_fmt">fltp</property>
  <property name="meta.media.1.codec.sample_rate">48000</property>
  <property name="meta.media.1.codec.channels">2</property>
  <property name="meta.media.1.codec.layout">stereo</property>
  <property name="meta.media.1.codec.name">aac</property>
  <property name="meta.media.1.codec.long_name">AAC (Advanced Audio Coding)</property>
  <property name="meta.media.1.codec.bit_rate">2265</property>
  <property name="meta.attr.1.stream.handler_name.markup">SoundHandler</property>
  <property name="meta.attr.1.stream.vendor_id.markup">[0][0][0][0]</property>
  <property name="meta.attr.minor_version.markup">512</property>
  <property name="meta.attr.major_brand.markup">isom</property>
  <property name="meta.attr.compatible_brands.markup">isomiso2mp41</property>
  <property name="meta.attr.encoder.markup">Lavf62.0.102</property>
  <property name="seekable">1</property>
  <property name="meta.media.sample_aspect_num">1</property>
  <property name="meta.media.sample_aspect_den">1</property>
  <property name="audio_index">-1</property>
  <property name="video_index">0</property>
  <property name="warp_speed">0.8</property>
  <property name="warp_resource">C:/dev/workspace/indy/dist/room/chase/content/upscale/wide/college4.mp4</property>
  <property name="mlt_service">timewarp</property>
  <property name="kdenlive:control_uuid">{a8d9ba59-151c-4b90-b0f9-1040d5e3469c}</property>
  <property name="vstream">0</property>
  <property name="astream">-1</property>
  <property name="set.test_audio">1</property>
  <property name="set.test_image">0</property>
  <property name="kdenlive:id">89</property>
  <property name="warp_pitch">0</property>
  <property name="meta.media.frame_rate_num">60</property>
  <property name="meta.media.frame_rate_den">1</property>
  <property name="meta.media.colorspace">709</property>
  <property name="meta.media.color_trc">2</property>
  <property name="meta.media.has_b_frames">2</property>
  <property name="meta.media.width">5160</property>
  <property name="meta.media.height">2160</property>
  <property name="meta.media.aspect_ratio">1</property>
  <property name="meta.media.color_range">mpeg</property>
  <property name="meta.media.top_field_first">0</property>
  <property name="meta.media.progressive">1</property>
 </producer>
 <producer id="producer5" in="00:00:00.000" out="00:00:05.042">
  <property name="length">122</property>
  <property name="eof">pause</property>
  <property name="resource">-1.000000:C:/dev/workspace/indy/dist/room/chase/content/upscale/wide/college2.mp4</property>
  <property name="aspect_ratio">1</property>
  <property name="meta.media.nb_streams">2</property>
  <property name="meta.media.0.stream.type">video</property>
  <property name="meta.media.0.stream.frame_rate">60</property>
  <property name="meta.media.0.stream.sample_aspect_ratio">0</property>
  <property name="meta.media.0.codec.width">5160</property>
  <property name="meta.media.0.codec.height">2160</property>
  <property name="meta.media.0.codec.rotate">0</property>
  <property name="meta.media.0.codec.pix_fmt">yuv420p</property>
  <property name="meta.media.0.codec.sample_aspect_ratio">0</property>
  <property name="meta.media.0.codec.colorspace">709</property>
  <property name="meta.media.0.codec.name">hevc</property>
  <property name="meta.media.0.codec.long_name">HEVC (High Efficiency Video Coding)</property>
  <property name="meta.media.0.codec.bit_rate">65755181</property>
  <property name="meta.attr.0.stream.handler_name.markup">VideoHandler</property>
  <property name="meta.attr.0.stream.vendor_id.markup">[0][0][0][0]</property>
  <property name="meta.attr.0.stream.encoder.markup">Lavc61.19.101 libx265</property>
  <property name="meta.media.1.stream.type">audio</property>
  <property name="meta.media.1.codec.sample_fmt">fltp</property>
  <property name="meta.media.1.codec.sample_rate">48000</property>
  <property name="meta.media.1.codec.channels">2</property>
  <property name="meta.media.1.codec.layout">stereo</property>
  <property name="meta.media.1.codec.name">aac</property>
  <property name="meta.media.1.codec.long_name">AAC (Advanced Audio Coding)</property>
  <property name="meta.media.1.codec.bit_rate">2276</property>
  <property name="meta.attr.1.stream.handler_name.markup">SoundHandler</property>
  <property name="meta.attr.1.stream.vendor_id.markup">[0][0][0][0]</property>
  <property name="meta.attr.minor_version.markup">512</property>
  <property name="meta.attr.major_brand.markup">isom</property>
  <property name="meta.attr.compatible_brands.markup">isomiso2mp41</property>
  <property name="meta.attr.encoder.markup">Lavf62.0.102</property>
  <property name="seekable">1</property>
  <property name="meta.media.sample_aspect_num">1</property>
  <property name="meta.media.sample_aspect_den">1</property>
  <property name="audio_index">-1</property>
  <property name="video_index">0</property>
  <property name="warp_speed">-1</property>
  <property name="warp_resource">C:/dev/workspace/indy/dist/room/chase/content/upscale/wide/college2.mp4</property>
  <property name="mlt_service">timewarp</property>
  <property name="kdenlive:control_uuid">{8af01e7e-23fb-4062-ab1d-5b8f1ad533f3}</property>
  <property name="vstream">0</property>
  <property name="astream">-1</property>
  <property name="set.test_audio">1</property>
  <property name="set.test_image">0</property>
  <property name="kdenlive:id">90</property>
  <property name="warp_pitch">0</property>
  <property name="meta.media.frame_rate_num">60</property>
  <property name="meta.media.frame_rate_den">1</property>
  <property name="meta.media.colorspace">709</property>
  <property name="meta.media.color_trc">2</property>
  <property name="meta.media.has_b_frames">2</property>
  <property name="meta.media.width">5160</property>
  <property name="meta.media.height">2160</property>
  <property name="meta.media.aspect_ratio">1</property>
  <property name="meta.media.color_range">mpeg</property>
  <property name="meta.media.top_field_first">0</property>
  <property name="meta.media.progressive">1</property>
 </producer>
 <producer id="producer6" in="00:00:00.000" out="00:00:06.667">
  <property name="length">161</property>
  <property name="eof">pause</property>
  <property name="resource">-0.760000:C:/dev/workspace/indy/dist/room/chase/content/upscale/wide/interior.mp4</property>
  <property name="aspect_ratio">1</property>
  <property name="meta.media.nb_streams">2</property>
  <property name="meta.media.0.stream.type">video</property>
  <property name="meta.media.0.stream.frame_rate">30</property>
  <property name="meta.media.0.stream.sample_aspect_ratio">0</property>
  <property name="meta.media.0.codec.width">5160</property>
  <property name="meta.media.0.codec.height">2160</property>
  <property name="meta.media.0.codec.rotate">0</property>
  <property name="meta.media.0.codec.pix_fmt">yuv420p</property>
  <property name="meta.media.0.codec.sample_aspect_ratio">0</property>
  <property name="meta.media.0.codec.colorspace">709</property>
  <property name="meta.media.0.codec.name">hevc</property>
  <property name="meta.media.0.codec.long_name">HEVC (High Efficiency Video Coding)</property>
  <property name="meta.media.0.codec.bit_rate">26954947</property>
  <property name="meta.attr.0.stream.handler_name.markup">VideoHandler</property>
  <property name="meta.attr.0.stream.vendor_id.markup">[0][0][0][0]</property>
  <property name="meta.attr.0.stream.encoder.markup">Lavc61.19.101 libx265</property>
  <property name="meta.media.1.stream.type">audio</property>
  <property name="meta.media.1.codec.sample_fmt">fltp</property>
  <property name="meta.media.1.codec.sample_rate">48000</property>
  <property name="meta.media.1.codec.channels">2</property>
  <property name="meta.media.1.codec.layout">stereo</property>
  <property name="meta.media.1.codec.name">aac</property>
  <property name="meta.media.1.codec.long_name">AAC (Advanced Audio Coding)</property>
  <property name="meta.media.1.codec.bit_rate">2276</property>
  <property name="meta.attr.1.stream.handler_name.markup">SoundHandler</property>
  <property name="meta.attr.1.stream.vendor_id.markup">[0][0][0][0]</property>
  <property name="meta.attr.minor_version.markup">512</property>
  <property name="meta.attr.major_brand.markup">isom</property>
  <property name="meta.attr.compatible_brands.markup">isomiso2mp41</property>
  <property name="meta.attr.encoder.markup">Lavf62.0.102</property>
  <property name="seekable">1</property>
  <property name="meta.media.sample_aspect_num">1</property>
  <property name="meta.media.sample_aspect_den">1</property>
  <property name="audio_index">-1</property>
  <property name="video_index">0</property>
  <property name="warp_speed">-0.76</property>
  <property name="warp_resource">C:/dev/workspace/indy/dist/room/chase/content/upscale/wide/interior.mp4</property>
  <property name="mlt_service">timewarp</property>
  <property name="kdenlive:control_uuid">{aecacae2-e1d8-460b-906a-0da150404ea6}</property>
  <property name="vstream">0</property>
  <property name="astream">-1</property>
  <property name="set.test_audio">1</property>
  <property name="set.test_image">0</property>
  <property name="kdenlive:id">91</property>
  <property name="warp_pitch">0</property>
  <property name="meta.media.frame_rate_num">30</property>
  <property name="meta.media.frame_rate_den">1</property>
  <property name="meta.media.colorspace">709</property>
  <property name="meta.media.color_trc">2</property>
  <property name="meta.media.has_b_frames">2</property>
  <property name="meta.media.width">5160</property>
  <property name="meta.media.height">2160</property>
  <property name="meta.media.aspect_ratio">1</property>
  <property name="meta.media.color_range">mpeg</property>
  <property name="meta.media.top_field_first">0</property>
  <property name="meta.media.progressive">1</property>
 </producer>
 <producer id="producer7" in="00:00:00.000" out="00:00:05.042">
  <property name="length">122</property>
  <property name="eof">pause</property>
  <property name="resource">-1.000000:C:/dev/workspace/indy/dist/room/chase/content/upscale/wide/interior.mp4</property>
  <property name="aspect_ratio">1</property>
  <property name="meta.media.nb_streams">2</property>
  <property name="meta.media.0.stream.type">video</property>
  <property name="meta.media.0.stream.frame_rate">30</property>
  <property name="meta.media.0.stream.sample_aspect_ratio">0</property>
  <property name="meta.media.0.codec.width">5160</property>
  <property name="meta.media.0.codec.height">2160</property>
  <property name="meta.media.0.codec.rotate">0</property>
  <property name="meta.media.0.codec.pix_fmt">yuv420p</property>
  <property name="meta.media.0.codec.sample_aspect_ratio">0</property>
  <property name="meta.media.0.codec.colorspace">709</property>
  <property name="meta.media.0.codec.name">hevc</property>
  <property name="meta.media.0.codec.long_name">HEVC (High Efficiency Video Coding)</property>
  <property name="meta.media.0.codec.bit_rate">26954947</property>
  <property name="meta.attr.0.stream.handler_name.markup">VideoHandler</property>
  <property name="meta.attr.0.stream.vendor_id.markup">[0][0][0][0]</property>
  <property name="meta.attr.0.stream.encoder.markup">Lavc61.19.101 libx265</property>
  <property name="meta.media.1.stream.type">audio</property>
  <property name="meta.media.1.codec.sample_fmt">fltp</property>
  <property name="meta.media.1.codec.sample_rate">48000</property>
  <property name="meta.media.1.codec.channels">2</property>
  <property name="meta.media.1.codec.layout">stereo</property>
  <property name="meta.media.1.codec.name">aac</property>
  <property name="meta.media.1.codec.long_name">AAC (Advanced Audio Coding)</property>
  <property name="meta.media.1.codec.bit_rate">2276</property>
  <property name="meta.attr.1.stream.handler_name.markup">SoundHandler</property>
  <property name="meta.attr.1.stream.vendor_id.markup">[0][0][0][0]</property>
  <property name="meta.attr.minor_version.markup">512</property>
  <property name="meta.attr.major_brand.markup">isom</property>
  <property name="meta.attr.compatible_brands.markup">isomiso2mp41</property>
  <property name="meta.attr.encoder.markup">Lavf62.0.102</property>
  <property name="seekable">1</property>
  <property name="meta.media.sample_aspect_num">1</property>
  <property name="meta.media.sample_aspect_den">1</property>
  <property name="audio_index">-1</property>
  <property name="video_index">0</property>
  <property name="warp_speed">-1</property>
  <property name="warp_resource">C:/dev/workspace/indy/dist/room/chase/content/upscale/wide/interior.mp4</property>
  <property name="mlt_service">timewarp</property>
  <property name="kdenlive:control_uuid">{aecacae2-e1d8-460b-906a-0da150404ea6}</property>
  <property name="vstream">0</property>
  <property name="astream">-1</property>
  <property name="set.test_audio">1</property>
  <property name="set.test_image">0</property>
  <property name="kdenlive:id">91</property>
  <property name="warp_pitch">0</property>
 </producer>
 <chain id="chain35" out="00:00:05.042">
  <property name="length">122</property>
  <property name="eof">pause</property>
  <property name="resource">C:/dev/workspace/indy/dist/room/chase/content/upscale/wide/interior.mp4</property>
  <property name="mlt_service">avformat-novalidate</property>
  <property name="seekable">1</property>
  <property name="audio_index">1</property>
  <property name="video_index">0</property>
  <property name="vstream">0</property>
  <property name="astream">0</property>
  <property name="kdenlive:folderid">4</property>
  <property name="kdenlive:id">91</property>
  <property name="kdenlive:control_uuid">{aecacae2-e1d8-460b-906a-0da150404ea6}</property>
  <property name="mute_on_pause">0</property>
  <property name="kdenlive:clip_type">0</property>
  <property name="kdenlive:file_size">17194892</property>
  <property name="kdenlive:file_hash">4c156ef4a6a87d0b64a6061a4fa2c603</property>
  <property name="meta.media.nb_streams">2</property>
  <property name="meta.media.0.stream.type">video</property>
  <property name="meta.media.0.stream.frame_rate">30</property>
  <property name="meta.media.0.stream.sample_aspect_ratio">0</property>
  <property name="meta.media.0.codec.width">5160</property>
  <property name="meta.media.0.codec.height">2160</property>
  <property name="meta.media.0.codec.rotate">0</property>
  <property name="meta.media.0.codec.pix_fmt">yuv420p</property>
  <property name="meta.media.0.codec.sample_aspect_ratio">0</property>
  <property name="meta.media.0.codec.colorspace">709</property>
  <property name="meta.media.0.codec.name">hevc</property>
  <property name="meta.media.0.codec.long_name">HEVC (High Efficiency Video Coding)</property>
  <property name="meta.media.0.codec.bit_rate">26954947</property>
  <property name="meta.attr.0.stream.handler_name.markup">VideoHandler</property>
  <property name="meta.attr.0.stream.vendor_id.markup">[0][0][0][0]</property>
  <property name="meta.attr.0.stream.encoder.markup">Lavc61.19.101 libx265</property>
  <property name="meta.media.1.stream.type">audio</property>
  <property name="meta.media.1.codec.sample_fmt">fltp</property>
  <property name="meta.media.1.codec.sample_rate">48000</property>
  <property name="meta.media.1.codec.channels">2</property>
  <property name="meta.media.1.codec.layout">stereo</property>
  <property name="meta.media.1.codec.name">aac</property>
  <property name="meta.media.1.codec.long_name">AAC (Advanced Audio Coding)</property>
  <property name="meta.media.1.codec.bit_rate">2276</property>
  <property name="meta.attr.1.stream.handler_name.markup">SoundHandler</property>
  <property name="meta.attr.1.stream.vendor_id.markup">[0][0][0][0]</property>
  <property name="meta.attr.minor_version.markup">512</property>
  <property name="meta.attr.major_brand.markup">isom</property>
  <property name="meta.attr.compatible_brands.markup">isomiso2mp41</property>
  <property name="meta.attr.encoder.markup">Lavf62.0.102</property>
  <property name="meta.media.sample_aspect_num">1</property>
  <property name="meta.media.sample_aspect_den">1</property>
  <property name="meta.media.frame_rate_num">30</property>
  <property name="meta.media.frame_rate_den">1</property>
  <property name="meta.media.colorspace">709</property>
  <property name="meta.media.color_trc">2</property>
  <property name="meta.media.has_b_frames">2</property>
  <property name="meta.media.width">5160</property>
  <property name="meta.media.height">2160</property>
  <property name="meta.media.aspect_ratio">1</property>
  <property name="meta.media.color_range">mpeg</property>
  <property name="xml">was here</property>
  <property name="meta.media.top_field_first">0</property>
  <property name="meta.media.progressive">1</property>
  <property name="set.test_audio">1</property>
  <property name="set.test_image">0</property>
 </chain>
 <chain id="chain36" out="00:00:05.042">
  <property name="length">122</property>
  <property name="eof">pause</property>
  <property name="resource">C:/dev/workspace/indy/dist/room/chase/content/upscale/wide/interior4.mp4</property>
  <property name="mlt_service">avformat-novalidate</property>
  <property name="seekable">1</property>
  <property name="audio_index">1</property>
  <property name="video_index">0</property>
  <property name="vstream">0</property>
  <property name="astream">0</property>
  <property name="kdenlive:folderid">4</property>
  <property name="kdenlive:id">92</property>
  <property name="kdenlive:control_uuid">{07748508-6ef1-4620-b70b-7eb3b84a35ac}</property>
  <property name="mute_on_pause">0</property>
  <property name="kdenlive:clip_type">0</property>
  <property name="kdenlive:file_size">20045594</property>
  <property name="kdenlive:file_hash">e7a44d268cf5cdf27534cbdaf025eb87</property>
  <property name="meta.media.nb_streams">2</property>
  <property name="meta.media.0.stream.type">video</property>
  <property name="meta.media.0.stream.frame_rate">30</property>
  <property name="meta.media.0.stream.sample_aspect_ratio">0</property>
  <property name="meta.media.0.codec.width">5160</property>
  <property name="meta.media.0.codec.height">2160</property>
  <property name="meta.media.0.codec.rotate">0</property>
  <property name="meta.media.0.codec.pix_fmt">yuv420p</property>
  <property name="meta.media.0.codec.sample_aspect_ratio">0</property>
  <property name="meta.media.0.codec.colorspace">709</property>
  <property name="meta.media.0.codec.name">hevc</property>
  <property name="meta.media.0.codec.long_name">HEVC (High Efficiency Video Coding)</property>
  <property name="meta.media.0.codec.bit_rate">31426624</property>
  <property name="meta.attr.0.stream.handler_name.markup">VideoHandler</property>
  <property name="meta.attr.0.stream.vendor_id.markup">[0][0][0][0]</property>
  <property name="meta.attr.0.stream.encoder.markup">Lavc61.19.101 libx265</property>
  <property name="meta.media.1.stream.type">audio</property>
  <property name="meta.media.1.codec.sample_fmt">fltp</property>
  <property name="meta.media.1.codec.sample_rate">48000</property>
  <property name="meta.media.1.codec.channels">2</property>
  <property name="meta.media.1.codec.layout">stereo</property>
  <property name="meta.media.1.codec.name">aac</property>
  <property name="meta.media.1.codec.long_name">AAC (Advanced Audio Coding)</property>
  <property name="meta.media.1.codec.bit_rate">2276</property>
  <property name="meta.attr.1.stream.handler_name.markup">SoundHandler</property>
  <property name="meta.attr.1.stream.vendor_id.markup">[0][0][0][0]</property>
  <property name="meta.attr.minor_version.markup">512</property>
  <property name="meta.attr.major_brand.markup">isom</property>
  <property name="meta.attr.compatible_brands.markup">isomiso2mp41</property>
  <property name="meta.attr.encoder.markup">Lavf62.0.102</property>
  <property name="meta.media.sample_aspect_num">1</property>
  <property name="meta.media.sample_aspect_den">1</property>
  <property name="meta.media.frame_rate_num">30</property>
  <property name="meta.media.frame_rate_den">1</property>
  <property name="meta.media.colorspace">709</property>
  <property name="meta.media.color_trc">2</property>
  <property name="meta.media.has_b_frames">2</property>
  <property name="meta.media.width">5160</property>
  <property name="meta.media.height">2160</property>
  <property name="meta.media.aspect_ratio">1</property>
  <property name="meta.media.color_range">mpeg</property>
  <property name="xml">was here</property>
  <property name="meta.media.top_field_first">0</property>
  <property name="meta.media.progressive">1</property>
  <property name="set.test_audio">1</property>
  <property name="set.test_image">0</property>
 </chain>
 <chain id="chain37" out="00:00:09.542">
  <property name="length">230</property>
  <property name="eof">pause</property>
  <property name="resource">C:/dev/workspace/indy/dist/room/chase/content/upscale/wide/interior5.mp4</property>
  <property name="mlt_service">avformat-novalidate</property>
  <property name="seekable">1</property>
  <property name="audio_index">1</property>
  <property name="video_index">0</property>
  <property name="vstream">0</property>
  <property name="astream">0</property>
  <property name="kdenlive:folderid">4</property>
  <property name="kdenlive:id">93</property>
  <property name="kdenlive:control_uuid">{571fcfd8-2867-4ef9-a595-b60fb178f684}</property>
  <property name="mute_on_pause">0</property>
  <property name="kdenlive:clip_type">0</property>
  <property name="kdenlive:file_size">26086366</property>
  <property name="kdenlive:file_hash">629f7bd1b61b03b6a37e677c693ee16b</property>
  <property name="meta.media.nb_streams">2</property>
  <property name="meta.media.0.stream.type">video</property>
  <property name="meta.media.0.stream.frame_rate">30</property>
  <property name="meta.media.0.stream.sample_aspect_ratio">0</property>
  <property name="meta.media.0.codec.width">5160</property>
  <property name="meta.media.0.codec.height">2160</property>
  <property name="meta.media.0.codec.rotate">0</property>
  <property name="meta.media.0.codec.pix_fmt">yuv420p</property>
  <property name="meta.media.0.codec.sample_aspect_ratio">0</property>
  <property name="meta.media.0.codec.colorspace">709</property>
  <property name="meta.media.0.codec.name">hevc</property>
  <property name="meta.media.0.codec.long_name">HEVC (High Efficiency Video Coding)</property>
  <property name="meta.media.0.codec.bit_rate">21800353</property>
  <property name="meta.attr.0.stream.handler_name.markup">VideoHandler</property>
  <property name="meta.attr.0.stream.vendor_id.markup">[0][0][0][0]</property>
  <property name="meta.attr.0.stream.encoder.markup">Lavc61.19.101 libx265</property>
  <property name="meta.media.1.stream.type">audio</property>
  <property name="meta.media.1.codec.sample_fmt">fltp</property>
  <property name="meta.media.1.codec.sample_rate">48000</property>
  <property name="meta.media.1.codec.channels">2</property>
  <property name="meta.media.1.codec.layout">stereo</property>
  <property name="meta.media.1.codec.name">aac</property>
  <property name="meta.media.1.codec.long_name">AAC (Advanced Audio Coding)</property>
  <property name="meta.media.1.codec.bit_rate">2265</property>
  <property name="meta.attr.1.stream.handler_name.markup">SoundHandler</property>
  <property name="meta.attr.1.stream.vendor_id.markup">[0][0][0][0]</property>
  <property name="meta.attr.minor_version.markup">512</property>
  <property name="meta.attr.major_brand.markup">isom</property>
  <property name="meta.attr.compatible_brands.markup">isomiso2mp41</property>
  <property name="meta.attr.encoder.markup">Lavf62.0.102</property>
  <property name="meta.media.sample_aspect_num">1</property>
  <property name="meta.media.sample_aspect_den">1</property>
  <property name="meta.media.frame_rate_num">30</property>
  <property name="meta.media.frame_rate_den">1</property>
  <property name="meta.media.colorspace">709</property>
  <property name="meta.media.color_trc">2</property>
  <property name="meta.media.has_b_frames">2</property>
  <property name="meta.media.width">5160</property>
  <property name="meta.media.height">2160</property>
  <property name="meta.media.aspect_ratio">1</property>
  <property name="meta.media.color_range">mpeg</property>
  <property name="xml">was here</property>
  <property name="meta.media.top_field_first">0</property>
  <property name="meta.media.progressive">1</property>
  <property name="set.test_audio">1</property>
  <property name="set.test_image">0</property>
 </chain>
 <chain id="chain38" out="00:00:05.042">
  <property name="length">122</property>
  <property name="eof">pause</property>
  <property name="resource">C:/dev/workspace/indy/dist/room/chase/content/upscale/wide/interior6.mp4</property>
  <property name="mlt_service">avformat-novalidate</property>
  <property name="seekable">1</property>
  <property name="audio_index">1</property>
  <property name="video_index">0</property>
  <property name="vstream">0</property>
  <property name="astream">0</property>
  <property name="kdenlive:folderid">4</property>
  <property name="kdenlive:id">94</property>
  <property name="kdenlive:control_uuid">{7cc0d786-57dc-472d-a447-c4fbe9c0e474}</property>
  <property name="mute_on_pause">0</property>
  <property name="kdenlive:clip_type">0</property>
  <property name="kdenlive:file_size">16317530</property>
  <property name="kdenlive:file_hash">1d9f89bb59ab53f347c4d72f1a2f8722</property>
  <property name="meta.media.nb_streams">2</property>
  <property name="meta.media.0.stream.type">video</property>
  <property name="meta.media.0.stream.frame_rate">30</property>
  <property name="meta.media.0.stream.sample_aspect_ratio">0</property>
  <property name="meta.media.0.codec.width">5160</property>
  <property name="meta.media.0.codec.height">2160</property>
  <property name="meta.media.0.codec.rotate">0</property>
  <property name="meta.media.0.codec.pix_fmt">yuv420p</property>
  <property name="meta.media.0.codec.sample_aspect_ratio">0</property>
  <property name="meta.media.0.codec.colorspace">709</property>
  <property name="meta.media.0.codec.name">hevc</property>
  <property name="meta.media.0.codec.long_name">HEVC (High Efficiency Video Coding)</property>
  <property name="meta.media.0.codec.bit_rate">25578768</property>
  <property name="meta.attr.0.stream.handler_name.markup">VideoHandler</property>
  <property name="meta.attr.0.stream.vendor_id.markup">[0][0][0][0]</property>
  <property name="meta.attr.0.stream.encoder.markup">Lavc61.19.101 libx265</property>
  <property name="meta.media.1.stream.type">audio</property>
  <property name="meta.media.1.codec.sample_fmt">fltp</property>
  <property name="meta.media.1.codec.sample_rate">48000</property>
  <property name="meta.media.1.codec.channels">2</property>
  <property name="meta.media.1.codec.layout">stereo</property>
  <property name="meta.media.1.codec.name">aac</property>
  <property name="meta.media.1.codec.long_name">AAC (Advanced Audio Coding)</property>
  <property name="meta.media.1.codec.bit_rate">2276</property>
  <property name="meta.attr.1.stream.handler_name.markup">SoundHandler</property>
  <property name="meta.attr.1.stream.vendor_id.markup">[0][0][0][0]</property>
  <property name="meta.attr.minor_version.markup">512</property>
  <property name="meta.attr.major_brand.markup">isom</property>
  <property name="meta.attr.compatible_brands.markup">isomiso2mp41</property>
  <property name="meta.attr.encoder.markup">Lavf62.0.102</property>
  <property name="meta.media.sample_aspect_num">1</property>
  <property name="meta.media.sample_aspect_den">1</property>
  <property name="meta.media.frame_rate_num">30</property>
  <property name="meta.media.frame_rate_den">1</property>
  <property name="meta.media.colorspace">709</property>
  <property name="meta.media.color_trc">2</property>
  <property name="meta.media.has_b_frames">2</property>
  <property name="meta.media.width">5160</property>
  <property name="meta.media.height">2160</property>
  <property name="meta.media.aspect_ratio">1</property>
  <property name="meta.media.color_range">mpeg</property>
  <property name="xml">was here</property>
  <property name="meta.media.top_field_first">0</property>
  <property name="meta.media.progressive">1</property>
  <property name="set.test_audio">1</property>
  <property name="set.test_image">0</property>
 </chain>
 <producer id="producer8" in="00:00:00.000" out="00:00:05.042">
  <property name="length">122</property>
  <property name="eof">pause</property>
  <property name="resource">-1.000000:C:/dev/workspace/indy/dist/room/chase/content/upscale/wide/interior7.mp4</property>
  <property name="aspect_ratio">1</property>
  <property name="meta.media.nb_streams">2</property>
  <property name="meta.media.0.stream.type">video</property>
  <property name="meta.media.0.stream.frame_rate">30</property>
  <property name="meta.media.0.stream.sample_aspect_ratio">0</property>
  <property name="meta.media.0.codec.width">5160</property>
  <property name="meta.media.0.codec.height">2160</property>
  <property name="meta.media.0.codec.rotate">0</property>
  <property name="meta.media.0.codec.pix_fmt">yuv420p</property>
  <property name="meta.media.0.codec.sample_aspect_ratio">0</property>
  <property name="meta.media.0.codec.colorspace">709</property>
  <property name="meta.media.0.codec.name">hevc</property>
  <property name="meta.media.0.codec.long_name">HEVC (High Efficiency Video Coding)</property>
  <property name="meta.media.0.codec.bit_rate">25609601</property>
  <property name="meta.attr.0.stream.handler_name.markup">VideoHandler</property>
  <property name="meta.attr.0.stream.vendor_id.markup">[0][0][0][0]</property>
  <property name="meta.attr.0.stream.encoder.markup">Lavc61.19.101 libx265</property>
  <property name="meta.media.1.stream.type">audio</property>
  <property name="meta.media.1.codec.sample_fmt">fltp</property>
  <property name="meta.media.1.codec.sample_rate">48000</property>
  <property name="meta.media.1.codec.channels">2</property>
  <property name="meta.media.1.codec.layout">stereo</property>
  <property name="meta.media.1.codec.name">aac</property>
  <property name="meta.media.1.codec.long_name">AAC (Advanced Audio Coding)</property>
  <property name="meta.media.1.codec.bit_rate">2276</property>
  <property name="meta.attr.1.stream.handler_name.markup">SoundHandler</property>
  <property name="meta.attr.1.stream.vendor_id.markup">[0][0][0][0]</property>
  <property name="meta.attr.minor_version.markup">512</property>
  <property name="meta.attr.major_brand.markup">isom</property>
  <property name="meta.attr.compatible_brands.markup">isomiso2mp41</property>
  <property name="meta.attr.encoder.markup">Lavf62.0.102</property>
  <property name="seekable">1</property>
  <property name="meta.media.sample_aspect_num">1</property>
  <property name="meta.media.sample_aspect_den">1</property>
  <property name="audio_index">1</property>
  <property name="video_index">0</property>
  <property name="warp_speed">-1</property>
  <property name="warp_resource">C:/dev/workspace/indy/dist/room/chase/content/upscale/wide/interior7.mp4</property>
  <property name="mlt_service">timewarp</property>
  <property name="kdenlive:control_uuid">{3c2ec637-d1ad-49e5-a19d-8870da4d65b8}</property>
  <property name="vstream">0</property>
  <property name="astream">0</property>
  <property name="set.test_audio">1</property>
  <property name="set.test_image">0</property>
  <property name="kdenlive:id">95</property>
  <property name="warp_pitch">0</property>
  <property name="meta.media.frame_rate_num">30</property>
  <property name="meta.media.frame_rate_den">1</property>
  <property name="meta.media.colorspace">709</property>
  <property name="meta.media.color_trc">2</property>
  <property name="meta.media.has_b_frames">2</property>
  <property name="meta.media.width">5160</property>
  <property name="meta.media.height">2160</property>
  <property name="meta.media.aspect_ratio">1</property>
  <property name="meta.media.color_range">mpeg</property>
  <property name="meta.media.top_field_first">0</property>
  <property name="meta.media.progressive">1</property>
 </producer>
 <chain id="chain39" out="00:00:04.958">
  <property name="length">122</property>
  <property name="eof">pause</property>
  <property name="resource">C:/dev/workspace/indy/dist/room/chase/content/upscale/wide/interior8.mp4</property>
  <property name="mlt_service">avformat-novalidate</property>
  <property name="seekable">1</property>
  <property name="audio_index">1</property>
  <property name="video_index">0</property>
  <property name="vstream">0</property>
  <property name="astream">0</property>
  <property name="kdenlive:folderid">4</property>
  <property name="kdenlive:id">96</property>
  <property name="kdenlive:control_uuid">{317b59b2-c3db-4578-ac6b-1dc821f4ac02}</property>
  <property name="mute_on_pause">0</property>
  <property name="kdenlive:clip_type">0</property>
  <property name="kdenlive:file_size">17866034</property>
  <property name="kdenlive:file_hash">98423b2ca4807097a70a1f8343592201</property>
  <property name="meta.media.nb_streams">2</property>
  <property name="meta.media.0.stream.type">video</property>
  <property name="meta.media.0.stream.frame_rate">30</property>
  <property name="meta.media.0.stream.sample_aspect_ratio">0</property>
  <property name="meta.media.0.codec.width">5160</property>
  <property name="meta.media.0.codec.height">2160</property>
  <property name="meta.media.0.codec.rotate">0</property>
  <property name="meta.media.0.codec.pix_fmt">yuv420p</property>
  <property name="meta.media.0.codec.sample_aspect_ratio">0</property>
  <property name="meta.media.0.codec.colorspace">709</property>
  <property name="meta.media.0.codec.name">hevc</property>
  <property name="meta.media.0.codec.long_name">HEVC (High Efficiency Video Coding)</property>
  <property name="meta.media.0.codec.bit_rate">28007681</property>
  <property name="meta.attr.0.stream.handler_name.markup">VideoHandler</property>
  <property name="meta.attr.0.stream.vendor_id.markup">[0][0][0][0]</property>
  <property name="meta.attr.0.stream.encoder.markup">Lavc61.19.101 libx265</property>
  <property name="meta.media.1.stream.type">audio</property>
  <property name="meta.media.1.codec.sample_fmt">fltp</property>
  <property name="meta.media.1.codec.sample_rate">48000</property>
  <property name="meta.media.1.codec.channels">2</property>
  <property name="meta.media.1.codec.layout">stereo</property>
  <property name="meta.media.1.codec.name">aac</property>
  <property name="meta.media.1.codec.long_name">AAC (Advanced Audio Coding)</property>
  <property name="meta.media.1.codec.bit_rate">2276</property>
  <property name="meta.attr.1.stream.handler_name.markup">SoundHandler</property>
  <property name="meta.attr.1.stream.vendor_id.markup">[0][0][0][0]</property>
  <property name="meta.attr.minor_version.markup">512</property>
  <property name="meta.attr.major_brand.markup">isom</property>
  <property name="meta.attr.compatible_brands.markup">isomiso2mp41</property>
  <property name="meta.attr.encoder.markup">Lavf62.0.102</property>
  <property name="meta.media.sample_aspect_num">1</property>
  <property name="meta.media.sample_aspect_den">1</property>
  <property name="meta.media.frame_rate_num">30</property>
  <property name="meta.media.frame_rate_den">1</property>
  <property name="meta.media.colorspace">709</property>
  <property name="meta.media.color_trc">2</property>
  <property name="meta.media.has_b_frames">2</property>
  <property name="meta.media.width">5160</property>
  <property name="meta.media.height">2160</property>
  <property name="meta.media.aspect_ratio">1</property>
  <property name="meta.media.color_range">mpeg</property>
  <property name="xml">was here</property>
  <property name="meta.media.top_field_first">0</property>
  <property name="meta.media.progressive">1</property>
  <property name="set.test_audio">1</property>
  <property name="set.test_image">0</property>
 </chain>
 <playlist id="playlist10">
  <blank length="00:00:46.000"/>
  <entry in="00:00:00.000" out="00:00:01.958" producer="producer1">
   <property name="kdenlive:id">71</property>
   <property name="kdenlive:activeeffect">1</property>
   <filter id="filter50">
    <property name="rotate_center">1</property>
    <property name="mlt_service">qtblend</property>
    <property name="kdenlive_id">qtblend</property>
    <property name="compositing">0</property>
    <property name="distort">1</property>
    <property name="rect">00:00:00.000=0 -20 5160 2200 1.000000</property>
    <property name="rotation">00:00:00.000=0</property>
    <property name="kdenlive:collapsed">1</property>
   </filter>
   <filter id="filter49">
    <property name="version">0.3</property>
    <property name="mlt_service">frei0r.saturat0r</property>
    <property name="kdenlive_id">frei0r.saturat0r</property>
    <property name="Saturation">00:00:00.000=0.001;00:00:01.958=0.125</property>
    <property name="kdenlive:collapsed">1</property>
   </filter>
  </entry>
  <entry in="00:00:00.000" out="00:00:03.958" producer="chain22">
   <property name="kdenlive:id">73</property>
   <filter id="filter51">
    <property name="version">0.2</property>
    <property name="mlt_service">frei0r.coloradj_RGB</property>
    <property name="kdenlive_id">frei0r.coloradj_RGB</property>
    <property name="R">00:00:00.000=0.6</property>
    <property name="G">00:00:00.000=0.5</property>
    <property name="B">00:00:00.000=0.4</property>
    <property name="Action">0.5</property>
    <property name="Keep luma">1</property>
    <property name="Alpha controlled">0</property>
    <property name="Luma formula">1</property>
    <property name="kdenlive:collapsed">0</property>
   </filter>
  </entry>
  <entry in="00:00:00.000" out="00:00:03.958" producer="chain23">
   <property name="kdenlive:id">74</property>
   <filter id="filter52">
    <property name="version">0.3</property>
    <property name="mlt_service">frei0r.saturat0r</property>
    <property name="kdenlive_id">frei0r.saturat0r</property>
    <property name="Saturation">00:00:00.000=0.001;00:00:01.000=0.125</property>
   </filter>
  </entry>
  <entry in="00:00:00.000" out="00:00:03.958" producer="chain24">
   <property name="kdenlive:id">75</property>
   <filter id="filter53">
    <property name="version">0.2</property>
    <property name="mlt_service">frei0r.coloradj_RGB</property>
    <property name="kdenlive_id">frei0r.coloradj_RGB</property>
    <property name="R">00:00:00.000=0.4</property>
    <property name="G">00:00:00.000=0.7</property>
    <property name="B">00:00:00.000=0.8</property>
    <property name="Action">0.5</property>
    <property name="Keep luma">1</property>
    <property name="Alpha controlled">0</property>
    <property name="Luma formula">1</property>
    <property name="kdenlive:collapsed">0</property>
   </filter>
   <filter id="filter54">
    <property name="version">0.3</property>
    <property name="mlt_service">frei0r.saturat0r</property>
    <property name="kdenlive_id">frei0r.saturat0r</property>
    <property name="Saturation">00:00:00.000=0.001;00:00:01.000=0.125</property>
    <property name="kdenlive:collapsed">0</property>
   </filter>
  </entry>
  <entry in="00:00:00.000" out="00:00:04.958" producer="chain25">
   <property name="kdenlive:id">77</property>
   <property name="kdenlive:activeeffect">3</property>
   <filter id="filter55">
    <property name="filter">frei0r.select0r</property>
    <property name="mlt_service">mask_start</property>
    <property name="kdenlive_id">mask_start-frei0r.select0r</property>
    <property name="filter.Color to select">0=0x0078b4ff</property>
    <property name="filter.Invert selection">0</property>
    <property name="filter.Selection subspace">0</property>
    <property name="filter.Subspace shape">0.5</property>
    <property name="filter.Edge mode">0.9</property>
    <property name="filter.Delta R / A / Hue">0=0.2</property>
    <property name="filter.Delta G / B / Chroma">0=0.2</property>
    <property name="filter.Delta B / I / I">0=0.2</property>
    <property name="filter.Slope">0=0.5</property>
    <property name="filter.Operation">0</property>
    <property name="kdenlive:collapsed">0</property>
   </filter>
   <filter id="filter56">
    <property name="version">0.2</property>
    <property name="mlt_service">frei0r.coloradj_RGB</property>
    <property name="kdenlive_id">frei0r.coloradj_RGB</property>
    <property name="R">00:00:00.000=0.5</property>
    <property name="G">00:00:00.000=0.5</property>
    <property name="B">00:00:00.000=0.4</property>
    <property name="Action">0.5</property>
    <property name="Keep luma">1</property>
    <property name="Alpha controlled">0</property>
    <property name="Luma formula">1</property>
    <property name="kdenlive:collapsed">1</property>
   </filter>
   <filter id="filter57">
    <property name="transition">frei0r.composition</property>
    <property name="mlt_image_format">rgba</property>
    <property name="mlt_service">mask_apply</property>
    <property name="kdenlive_id">mask_apply</property>
    <property name="kdenlive:collapsed">0</property>
   </filter>
   <filter id="filter58">
    <property name="version">0.3</property>
    <property name="mlt_service">frei0r.saturat0r</property>
    <property name="kdenlive_id">frei0r.saturat0r</property>
    <property name="Saturation">00:00:00.000=0.001;00:00:01.000=0.125</property>
    <property name="kdenlive:collapsed">1</property>
   </filter>
  </entry>
  <entry in="00:00:00.000" out="00:00:00.958" producer="chain26">
   <property name="kdenlive:id">78</property>
  </entry>
  <entry in="00:00:00.083" out="00:00:02.500" producer="chain27">
   <property name="kdenlive:id">81</property>
   <property name="kdenlive:activeeffect">1</property>
   <filter id="filter59">
    <property name="version">0.2</property>
    <property name="mlt_service">frei0r.coloradj_RGB</property>
    <property name="kdenlive_id">frei0r.coloradj_RGB</property>
    <property name="R">00:00:00.083=0.5</property>
    <property name="G">00:00:00.083=0.55</property>
    <property name="B">00:00:00.083=0.5</property>
    <property name="Action">0.5</property>
    <property name="Keep luma">1</property>
    <property name="Alpha controlled">0</property>
    <property name="Luma formula">1</property>
    <property name="kdenlive:collapsed">1</property>
   </filter>
   <filter id="filter62">
    <property name="version">0.3</property>
    <property name="mlt_service">frei0r.saturat0r</property>
    <property name="kdenlive_id">frei0r.saturat0r</property>
    <property name="Saturation">00:00:00.083=0.001;00:00:01.083=0.125</property>
    <property name="kdenlive:collapsed">0</property>
   </filter>
  </entry>
  <entry in="00:00:02.542" out="00:00:03.958" producer="chain27">
   <property name="kdenlive:id">81</property>
   <filter id="filter63">
    <property name="version">0.2</property>
    <property name="mlt_service">frei0r.coloradj_RGB</property>
    <property name="kdenlive_id">frei0r.coloradj_RGB</property>
    <property name="R">00:00:02.542=0.5</property>
    <property name="G">00:00:02.542=0.55</property>
    <property name="B">00:00:02.542=0.5</property>
    <property name="Action">0.5</property>
    <property name="Keep luma">1</property>
    <property name="Alpha controlled">0</property>
    <property name="Luma formula">1</property>
    <property name="kdenlive:collapsed">0</property>
   </filter>
   <filter id="filter64">
    <property name="version">0.2</property>
    <property name="mlt_service">frei0r.contrast0r</property>
    <property name="kdenlive_id">frei0r.contrast0r</property>
    <property name="Contrast">00:00:02.542=0.49</property>
    <property name="kdenlive:collapsed">0</property>
   </filter>
  </entry>
  <entry in="00:00:00.000" out="00:00:00.042" producer="producer2">
   <property name="kdenlive:id">82</property>
  </entry>
  <entry in="00:00:00.000" out="00:00:03.958" producer="chain28">
   <property name="kdenlive:id">83</property>
   <property name="kdenlive:activeeffect">1</property>
   <filter id="filter65">
    <property name="version">0.2</property>
    <property name="mlt_service">frei0r.contrast0r</property>
    <property name="kdenlive_id">frei0r.contrast0r</property>
    <property name="Contrast">00:00:00.000=0.49</property>
    <property name="kdenlive:collapsed">0</property>
   </filter>
   <filter id="filter66">
    <property name="version">0.3</property>
    <property name="mlt_service">frei0r.saturat0r</property>
    <property name="kdenlive_id">frei0r.saturat0r</property>
    <property name="Saturation">00:00:00.000=0.001;00:00:01.000=0.125</property>
    <property name="kdenlive:collapsed">0</property>
   </filter>
  </entry>
  <entry in="00:00:00.000" out="00:00:03.958" producer="chain29">
   <property name="kdenlive:id">84</property>
   <filter id="filter67">
    <property name="version">0.3</property>
    <property name="mlt_service">frei0r.saturat0r</property>
    <property name="kdenlive_id">frei0r.saturat0r</property>
    <property name="Saturation">00:00:00.000=0.001;00:00:01.000=0.125</property>
    <property name="kdenlive:collapsed">0</property>
   </filter>
  </entry>
  <entry in="00:00:00.000" out="00:00:03.958" producer="chain30">
   <property name="kdenlive:id">79</property>
   <filter id="filter68">
    <property name="version">0.2</property>
    <property name="mlt_service">frei0r.coloradj_RGB</property>
    <property name="kdenlive_id">frei0r.coloradj_RGB</property>
    <property name="R">00:00:00.000=0.5</property>
    <property name="G">00:00:00.000=0.55</property>
    <property name="B">00:00:00.000=0.5</property>
    <property name="Action">0.5</property>
    <property name="Keep luma">1</property>
    <property name="Alpha controlled">0</property>
    <property name="Luma formula">1</property>
    <property name="kdenlive:collapsed">0</property>
   </filter>
   <filter id="filter69">
    <property name="filter">frei0r.select0r</property>
    <property name="mlt_service">mask_start</property>
    <property name="kdenlive_id">mask_start-frei0r.select0r</property>
    <property name="filter.Color to select">0=0x0078b4ff</property>
    <property name="filter.Invert selection">0</property>
    <property name="filter.Selection subspace">0</property>
    <property name="filter.Subspace shape">0.5</property>
    <property name="filter.Edge mode">0.9</property>
    <property name="filter.Delta R / A / Hue">0=0.2</property>
    <property name="filter.Delta G / B / Chroma">0=0.2</property>
    <property name="filter.Delta B / I / I">0=0.2</property>
    <property name="filter.Slope">0=0.5</property>
    <property name="filter.Operation">0</property>
    <property name="kdenlive:collapsed">1</property>
   </filter>
   <filter id="filter70">
    <property name="version">0.2</property>
    <property name="mlt_service">frei0r.coloradj_RGB</property>
    <property name="kdenlive_id">frei0r.coloradj_RGB</property>
    <property name="R">00:00:00.000=0.5</property>
    <property name="G">00:00:00.000=0.5</property>
    <property name="B">00:00:00.000=0.4</property>
    <property name="Action">0.5</property>
    <property name="Keep luma">1</property>
    <property name="Alpha controlled">0</property>
    <property name="Luma formula">1</property>
    <property name="kdenlive:collapsed">1</property>
   </filter>
   <filter id="filter71">
    <property name="transition">frei0r.composition</property>
    <property name="mlt_image_format">rgba</property>
    <property name="mlt_service">mask_apply</property>
    <property name="kdenlive_id">mask_apply</property>
   </filter>
   <filter id="filter72">
    <property name="version">0.3</property>
    <property name="mlt_service">frei0r.saturat0r</property>
    <property name="kdenlive_id">frei0r.saturat0r</property>
    <property name="Saturation">00:00:00.000=0.001;00:00:01.000=0.125</property>
   </filter>
  </entry>
  <entry in="00:00:00.000" out="00:00:03.958" producer="chain31">
   <property name="kdenlive:id">80</property>
   <filter id="filter73">
    <property name="version">0.2</property>
    <property name="mlt_service">frei0r.coloradj_RGB</property>
    <property name="kdenlive_id">frei0r.coloradj_RGB</property>
    <property name="R">00:00:00.000=0.45</property>
    <property name="G">00:00:00.000=0.5</property>
    <property name="B">00:00:00.000=0.4</property>
    <property name="Action">0.5</property>
    <property name="Keep luma">1</property>
    <property name="Alpha controlled">0</property>
    <property name="Luma formula">1</property>
    <property name="kdenlive:collapsed">1</property>
   </filter>
   <filter id="filter77">
    <property name="version">0.3</property>
    <property name="mlt_service">frei0r.saturat0r</property>
    <property name="kdenlive_id">frei0r.saturat0r</property>
    <property name="Saturation">00:00:00.000=0.001;00:00:01.000=0.125</property>
    <property name="kdenlive:collapsed">0</property>
   </filter>
  </entry>
  <entry in="00:00:00.000" out="00:00:03.958" producer="chain32">
   <property name="kdenlive:id">85</property>
   <filter id="filter78">
    <property name="version">0.2</property>
    <property name="mlt_service">frei0r.coloradj_RGB</property>
    <property name="kdenlive_id">frei0r.coloradj_RGB</property>
    <property name="R">00:00:00.000=0.4</property>
    <property name="G">00:00:00.000=0.6</property>
    <property name="B">00:00:00.000=0.6</property>
    <property name="Action">0.5</property>
    <property name="Keep luma">1</property>
    <property name="Alpha controlled">0</property>
    <property name="Luma formula">1</property>
    <property name="kdenlive:collapsed">1</property>
   </filter>
   <filter id="filter79">
    <property name="rotate_center">1</property>
    <property name="mlt_service">qtblend</property>
    <property name="kdenlive_id">qtblend</property>
    <property name="compositing">0</property>
    <property name="distort">0</property>
    <property name="rect">00:00:00.000=-153 -64 5469 2289 1.000000</property>
    <property name="rotation">00:00:00.000=0</property>
    <property name="kdenlive:collapsed">1</property>
   </filter>
   <filter id="filter80">
    <property name="version">0.3</property>
    <property name="mlt_service">frei0r.saturat0r</property>
    <property name="kdenlive_id">frei0r.saturat0r</property>
    <property name="Saturation">00:00:00.000=0.001;00:00:01.000=0.125</property>
    <property name="kdenlive:collapsed">0</property>
   </filter>
  </entry>
  <entry in="00:00:00.000" out="00:00:03.958" producer="producer3">
   <property name="kdenlive:id">86</property>
   <filter id="filter81">
    <property name="version">0.2</property>
    <property name="mlt_service">frei0r.brightness</property>
    <property name="kdenlive_id">frei0r.brightness</property>
    <property name="Brightness">00:00:00.000=0.48</property>
    <property name="kdenlive:collapsed">1</property>
   </filter>
   <filter id="filter82">
    <property name="version">0.2</property>
    <property name="mlt_service">frei0r.coloradj_RGB</property>
    <property name="kdenlive_id">frei0r.coloradj_RGB</property>
    <property name="R">00:00:00.000=0.52</property>
    <property name="G">00:00:00.000=0.48</property>
    <property name="B">00:00:00.000=0.5</property>
    <property name="Action">0.5</property>
    <property name="Keep luma">1</property>
    <property name="Alpha controlled">0</property>
    <property name="Luma formula">1</property>
    <property name="kdenlive:collapsed">1</property>
   </filter>
   <filter id="filter83">
    <property name="rotate_center">1</property>
    <property name="mlt_service">qtblend</property>
    <property name="kdenlive_id">qtblend</property>
    <property name="compositing">0</property>
    <property name="distort">1</property>
    <property name="rect">00:00:00.000=-50 0 5260 2160 1.000000</property>
    <property name="rotation">00:00:00.000=0</property>
   </filter>
   <filter id="filter84">
    <property name="version">0.3</property>
    <property name="mlt_service">frei0r.saturat0r</property>
    <property name="kdenlive_id">frei0r.saturat0r</property>
    <property name="Saturation">00:00:00.000=0.001;00:00:01.000=0.125</property>
   </filter>
  </entry>
  <entry in="00:00:00.000" out="00:00:03.958" producer="chain33">
   <property name="kdenlive:id">87</property>
   <filter id="filter85">
    <property name="version">0.3</property>
    <property name="mlt_service">frei0r.saturat0r</property>
    <property name="kdenlive_id">frei0r.saturat0r</property>
    <property name="Saturation">00:00:00.000=0.001;00:00:01.000=0.125</property>
    <property name="kdenlive:collapsed">0</property>
   </filter>
  </entry>
  <entry in="00:00:00.000" out="00:00:03.958" producer="chain34">
   <property name="kdenlive:id">88</property>
   <filter id="filter86">
    <property name="rotate_center">1</property>
    <property name="mlt_service">qtblend</property>
    <property name="kdenlive_id">qtblend</property>
    <property name="compositing">0</property>
    <property name="distort">0</property>
    <property name="rect">00:00:00.000=-153 -64 5469 2289 1.000000</property>
    <property name="rotation">00:00:00.000=0</property>
    <property name="kdenlive:collapsed">0</property>
   </filter>
   <filter id="filter87">
    <property name="version">0.3</property>
    <property name="mlt_service">frei0r.saturat0r</property>
    <property name="kdenlive_id">frei0r.saturat0r</property>
    <property name="Saturation">00:00:00.000=0.001;00:00:01.000=0.125</property>
   </filter>
  </entry>
  <entry in="00:00:00.000" out="00:00:03.958" producer="producer4">
   <property name="kdenlive:id">89</property>
   <filter id="filter88">
    <property name="version">0.2</property>
    <property name="mlt_service">frei0r.coloradj_RGB</property>
    <property name="kdenlive_id">frei0r.coloradj_RGB</property>
    <property name="R">00:00:00.000=0.55</property>
    <property name="G">00:00:00.000=0.55</property>
    <property name="B">00:00:00.000=0.5</property>
    <property name="Action">0.5</property>
    <property name="Keep luma">1</property>
    <property name="Alpha controlled">0</property>
    <property name="Luma formula">1</property>
    <property name="kdenlive:collapsed">1</property>
   </filter>
  </entry>
  <entry in="00:00:00.000" out="00:00:03.958" producer="producer5">
   <property name="kdenlive:id">90</property>
  </entry>
  <entry in="00:00:00.000" out="00:00:01.000" producer="producer6">
   <property name="kdenlive:id">91</property>
   <filter id="filter89">
    <property name="version">0.3</property>
    <property name="mlt_service">frei0r.saturat0r</property>
    <property name="kdenlive_id">frei0r.saturat0r</property>
    <property name="Saturation">0=0.001;24=0.125</property>
   </filter>
  </entry>
  <entry in="00:00:00.792" out="00:00:05.042" producer="producer7">
   <property name="kdenlive:id">91</property>
  </entry>
  <entry in="00:00:00.000" out="00:00:02.625" producer="chain35">
   <property name="kdenlive:id">91</property>
  </entry>
  <entry in="00:00:00.000" out="00:00:03.958" producer="chain36">
   <property name="kdenlive:id">92</property>
   <filter id="filter90">
    <property name="version">0.3</property>
    <property name="mlt_service">frei0r.saturat0r</property>
    <property name="kdenlive_id">frei0r.saturat0r</property>
    <property name="Saturation">0=0.001;24=0.125</property>
   </filter>
  </entry>
  <entry in="00:00:00.167" out="00:00:05.125" producer="chain37">
   <property name="kdenlive:id">93</property>
   <property name="kdenlive:activeeffect">1</property>
   <filter id="filter91">
    <property name="rotate_center">1</property>
    <property name="mlt_service">qtblend</property>
    <property name="kdenlive_id">qtblend</property>
    <property name="compositing">0</property>
    <property name="distort">0</property>
    <property name="rect">00:00:00.167=-154 -129 5469 2289 1.000000</property>
    <property name="rotation">00:00:00.167=0</property>
    <property name="kdenlive:collapsed">0</property>
   </filter>
   <filter id="filter92">
    <property name="version">0.3</property>
    <property name="mlt_service">frei0r.saturat0r</property>
    <property name="kdenlive_id">frei0r.saturat0r</property>
    <property name="Saturation">00:00:00.167=0.001;00:00:01.167=0.125</property>
    <property name="kdenlive:collapsed">0</property>
   </filter>
  </entry>
  <entry in="00:00:00.000" out="00:00:03.958" producer="chain38">
   <property name="kdenlive:id">94</property>
   <filter id="filter93">
    <property name="version">0.3</property>
    <property name="mlt_service">frei0r.saturat0r</property>
    <property name="kdenlive_id">frei0r.saturat0r</property>
    <property name="Saturation">00:00:00.000=0.001;00:00:01.000=0.125</property>
   </filter>
  </entry>
  <entry in="00:00:03.292" out="00:00:05.042" producer="producer8">
   <property name="kdenlive:id">95</property>
   <filter id="filter94">
    <property name="rotate_center">1</property>
    <property name="mlt_service">qtblend</property>
    <property name="kdenlive_id">qtblend</property>
    <property name="compositing">0</property>
    <property name="distort">0</property>
    <property name="rect">00:00:03.292=0 -172 5572 2332 1.000000</property>
    <property name="rotation">00:00:03.292=0</property>
    <property name="kdenlive:collapsed">0</property>
   </filter>
   <filter id="filter95">
    <property name="version">0.3</property>
    <property name="mlt_service">frei0r.saturat0r</property>
    <property name="kdenlive_id">frei0r.saturat0r</property>
    <property name="Saturation">00:00:03.292=0.001;00:00:04.292=0.125</property>
   </filter>
  </entry>
  <entry in="00:00:00.000" out="00:00:02.167" producer="chain39">
   <property name="kdenlive:id">96</property>
   <filter id="filter96">
    <property name="rotate_center">1</property>
    <property name="mlt_service">qtblend</property>
    <property name="kdenlive_id">qtblend</property>
    <property name="compositing">0</property>
    <property name="distort">0</property>
    <property name="rect">00:00:00.000=0 -172 5572 2332 1.000000</property>
    <property name="rotation">00:00:00.000=0</property>
    <property name="kdenlive:collapsed">0</property>
   </filter>
  </entry>
 </playlist>
 <playlist id="playlist11"/>
 <tractor id="tractor5" in="00:00:00.000" out="00:02:14.958">
  <property name="kdenlive:trackheight">67</property>
  <property name="kdenlive:timeline_active">1</property>
  <property name="kdenlive:collapsed">0</property>
  <property name="kdenlive:thumbs_format"/>
  <property name="kdenlive:audio_rec"/>
  <track hide="audio" producer="playlist10"/>
  <track hide="audio" producer="playlist11"/>
 </tractor>
 <chain id="chain40" out="00:03:36.708">
  <property name="length">5202</property>
  <property name="eof">pause</property>
  <property name="resource">C:/dev/workspace/indy/dist/trailer/content/extra/interview.mp4</property>
  <property name="mlt_service">avformat-novalidate</property>
  <property name="seekable">1</property>
  <property name="audio_index">1</property>
  <property name="video_index">0</property>
  <property name="vstream">0</property>
  <property name="astream">0</property>
  <property name="kdenlive:control_uuid">{93b15476-3e7c-4ac6-bb97-fa3639a25c08}</property>
  <property name="kdenlive:id">69</property>
  <property name="kdenlive:clip_type">0</property>
  <property name="kdenlive:file_size">30708458</property>
  <property name="kdenlive:file_hash">9317d79f07d77e43c649fd8cca85cda2</property>
  <property name="kdenlive:folderid">4</property>
  <property name="meta.media.nb_streams">2</property>
  <property name="meta.media.0.stream.type">video</property>
  <property name="meta.media.0.stream.frame_rate">29.97</property>
  <property name="meta.media.0.stream.sample_aspect_ratio">1</property>
  <property name="meta.media.0.codec.width">1920</property>
  <property name="meta.media.0.codec.height">1080</property>
  <property name="meta.media.0.codec.rotate">0</property>
  <property name="meta.media.0.codec.pix_fmt">yuv420p</property>
  <property name="meta.media.0.codec.sample_aspect_ratio">1</property>
  <property name="meta.media.0.codec.colorspace">709</property>
  <property name="meta.media.0.codec.color_trc">1</property>
  <property name="meta.media.0.codec.name">h264</property>
  <property name="meta.media.0.codec.long_name">H.264 / AVC / MPEG-4 AVC / MPEG-4 part 10</property>
  <property name="meta.media.0.codec.bit_rate">1011681</property>
  <property name="meta.attr.0.stream.handler_name.markup">ISO Media file produced by Google Inc.</property>
  <property name="meta.attr.0.stream.vendor_id.markup">[0][0][0][0]</property>
  <property name="meta.media.1.stream.type">audio</property>
  <property name="meta.media.1.codec.sample_fmt">fltp</property>
  <property name="meta.media.1.codec.sample_rate">48000</property>
  <property name="meta.media.1.codec.channels">2</property>
  <property name="meta.media.1.codec.layout">stereo</property>
  <property name="meta.media.1.codec.name">opus</property>
  <property name="meta.media.1.codec.long_name">Opus</property>
  <property name="meta.media.1.codec.bit_rate">113839</property>
  <property name="meta.attr.1.stream.language.markup">eng</property>
  <property name="meta.attr.1.stream.handler_name.markup">SoundHandler</property>
  <property name="meta.attr.1.stream.vendor_id.markup">[0][0][0][0]</property>
  <property name="meta.attr.major_brand.markup">isom</property>
  <property name="meta.attr.minor_version.markup">512</property>
  <property name="meta.attr.compatible_brands.markup">isomiso2avc1mp41</property>
  <property name="meta.attr.encoder.markup">Lavf61.1.100</property>
  <property name="meta.media.sample_aspect_num">1</property>
  <property name="meta.media.sample_aspect_den">1</property>
  <property name="meta.media.frame_rate_num">30000</property>
  <property name="meta.media.frame_rate_den">1001</property>
  <property name="meta.media.colorspace">709</property>
  <property name="meta.media.color_trc">1</property>
  <property name="meta.media.has_b_frames">1</property>
  <property name="meta.media.width">1920</property>
  <property name="meta.media.height">1080</property>
  <property name="meta.media.aspect_ratio">1</property>
  <property name="meta.media.color_range">mpeg</property>
  <property name="xml">was here</property>
  <property name="mute_on_pause">0</property>
  <property name="meta.media.top_field_first">0</property>
  <property name="meta.media.progressive">1</property>
  <property name="set.test_audio">1</property>
  <property name="set.test_image">0</property>
 </chain>
 <chain id="chain41" out="00:00:38.333">
  <property name="length">921</property>
  <property name="eof">pause</property>
  <property name="resource">C:/dev/workspace/indy/dist/trailer/content/extra/interview2.mp4</property>
  <property name="mlt_service">avformat-novalidate</property>
  <property name="seekable">1</property>
  <property name="audio_index">1</property>
  <property name="video_index">0</property>
  <property name="vstream">0</property>
  <property name="astream">0</property>
  <property name="kdenlive:control_uuid">{2af51a2d-8bed-4ce3-a2e3-e56625a48775}</property>
  <property name="kdenlive:id">70</property>
  <property name="kdenlive:clip_type">0</property>
  <property name="kdenlive:file_size">3584954</property>
  <property name="kdenlive:file_hash">657ab15ac7212c54c7a19dc85fd523b6</property>
  <property name="kdenlive:folderid">4</property>
  <property name="meta.media.nb_streams">2</property>
  <property name="meta.media.0.stream.type">video</property>
  <property name="meta.media.0.stream.frame_rate">30</property>
  <property name="meta.media.0.stream.sample_aspect_ratio">1</property>
  <property name="meta.media.0.codec.width">1920</property>
  <property name="meta.media.0.codec.height">1080</property>
  <property name="meta.media.0.codec.rotate">0</property>
  <property name="meta.media.0.codec.pix_fmt">yuv420p</property>
  <property name="meta.media.0.codec.sample_aspect_ratio">0</property>
  <property name="meta.media.0.codec.colorspace">709</property>
  <property name="meta.media.0.codec.color_trc">1</property>
  <property name="meta.media.0.codec.name">libvpx-vp9</property>
  <property name="meta.media.0.codec.long_name">libvpx VP9</property>
  <property name="meta.media.0.codec.bit_rate">636284</property>
  <property name="meta.attr.0.stream.language.markup">eng</property>
  <property name="meta.attr.0.stream.handler_name.markup">VideoHandler</property>
  <property name="meta.attr.0.stream.vendor_id.markup">[0][0][0][0]</property>
  <property name="meta.media.1.stream.type">audio</property>
  <property name="meta.media.1.codec.sample_fmt">fltp</property>
  <property name="meta.media.1.codec.sample_rate">48000</property>
  <property name="meta.media.1.codec.channels">2</property>
  <property name="meta.media.1.codec.layout">stereo</property>
  <property name="meta.media.1.codec.name">opus</property>
  <property name="meta.media.1.codec.long_name">Opus</property>
  <property name="meta.media.1.codec.bit_rate">104392</property>
  <property name="meta.attr.1.stream.language.markup">eng</property>
  <property name="meta.attr.1.stream.handler_name.markup">SoundHandler</property>
  <property name="meta.attr.1.stream.vendor_id.markup">[0][0][0][0]</property>
  <property name="meta.attr.major_brand.markup">isom</property>
  <property name="meta.attr.minor_version.markup">512</property>
  <property name="meta.attr.compatible_brands.markup">isomiso2mp41</property>
  <property name="meta.attr.encoder.markup">Lavf61.1.100</property>
  <property name="meta.media.sample_aspect_num">1</property>
  <property name="meta.media.sample_aspect_den">1</property>
  <property name="meta.media.frame_rate_num">30</property>
  <property name="meta.media.frame_rate_den">1</property>
  <property name="meta.media.colorspace">709</property>
  <property name="meta.media.color_trc">1</property>
  <property name="meta.media.has_b_frames">0</property>
  <property name="meta.media.width">1920</property>
  <property name="meta.media.height">1080</property>
  <property name="meta.media.aspect_ratio">1</property>
  <property name="meta.media.color_range">mpeg</property>
  <property name="xml">was here</property>
  <property name="mute_on_pause">0</property>
  <property name="meta.media.top_field_first">0</property>
  <property name="meta.media.progressive">1</property>
  <property name="set.test_audio">1</property>
  <property name="set.test_image">0</property>
 </chain>
 <producer id="producer9" in="00:00:00.000" out="00:00:49.417">
  <property name="length">1187</property>
  <property name="eof">pause</property>
  <property name="resource">0.775800:C:/dev/workspace/indy/dist/trailer/content/extra/interview2.mp4</property>
  <property name="aspect_ratio">1</property>
  <property name="meta.media.nb_streams">2</property>
  <property name="meta.media.0.stream.type">video</property>
  <property name="meta.media.0.stream.frame_rate">30</property>
  <property name="meta.media.0.stream.sample_aspect_ratio">1</property>
  <property name="meta.media.0.codec.width">1920</property>
  <property name="meta.media.0.codec.height">1080</property>
  <property name="meta.media.0.codec.rotate">0</property>
  <property name="meta.media.0.codec.pix_fmt">yuv420p</property>
  <property name="meta.media.0.codec.sample_aspect_ratio">0</property>
  <property name="meta.media.0.codec.colorspace">709</property>
  <property name="meta.media.0.codec.color_trc">1</property>
  <property name="meta.media.0.codec.name">libvpx-vp9</property>
  <property name="meta.media.0.codec.long_name">libvpx VP9</property>
  <property name="meta.media.0.codec.bit_rate">636284</property>
  <property name="meta.attr.0.stream.language.markup">eng</property>
  <property name="meta.attr.0.stream.handler_name.markup">VideoHandler</property>
  <property name="meta.attr.0.stream.vendor_id.markup">[0][0][0][0]</property>
  <property name="meta.media.1.stream.type">audio</property>
  <property name="meta.media.1.codec.sample_fmt">fltp</property>
  <property name="meta.media.1.codec.sample_rate">48000</property>
  <property name="meta.media.1.codec.channels">2</property>
  <property name="meta.media.1.codec.layout">stereo</property>
  <property name="meta.media.1.codec.name">opus</property>
  <property name="meta.media.1.codec.long_name">Opus</property>
  <property name="meta.media.1.codec.bit_rate">104392</property>
  <property name="meta.attr.1.stream.language.markup">eng</property>
  <property name="meta.attr.1.stream.handler_name.markup">SoundHandler</property>
  <property name="meta.attr.1.stream.vendor_id.markup">[0][0][0][0]</property>
  <property name="meta.attr.major_brand.markup">isom</property>
  <property name="meta.attr.minor_version.markup">512</property>
  <property name="meta.attr.compatible_brands.markup">isomiso2mp41</property>
  <property name="meta.attr.encoder.markup">Lavf61.1.100</property>
  <property name="seekable">1</property>
  <property name="meta.media.sample_aspect_num">1</property>
  <property name="meta.media.sample_aspect_den">1</property>
  <property name="audio_index">1</property>
  <property name="video_index">0</property>
  <property name="warp_speed">0.7758</property>
  <property name="warp_resource">C:/dev/workspace/indy/dist/trailer/content/extra/interview2.mp4</property>
  <property name="mlt_service">timewarp</property>
  <property name="kdenlive:control_uuid">{2af51a2d-8bed-4ce3-a2e3-e56625a48775}</property>
  <property name="vstream">0</property>
  <property name="astream">0</property>
  <property name="set.test_audio">1</property>
  <property name="set.test_image">0</property>
  <property name="kdenlive:id">70</property>
  <property name="warp_pitch">0</property>
  <property name="meta.media.frame_rate_num">30</property>
  <property name="meta.media.frame_rate_den">1</property>
  <property name="meta.media.colorspace">709</property>
  <property name="meta.media.color_trc">1</property>
  <property name="meta.media.has_b_frames">0</property>
  <property name="meta.media.width">1920</property>
  <property name="meta.media.height">1080</property>
  <property name="meta.media.aspect_ratio">1</property>
  <property name="meta.media.color_range">mpeg</property>
  <property name="meta.media.top_field_first">0</property>
  <property name="meta.media.progressive">1</property>
 </producer>
 <chain id="chain42" out="00:00:09.542">
  <property name="length">230</property>
  <property name="eof">pause</property>
  <property name="resource">C:/dev/workspace/indy/dist/room/intro/content/upscale/college.mp4</property>
  <property name="mlt_service">avformat-novalidate</property>
  <property name="seekable">1</property>
  <property name="audio_index">-1</property>
  <property name="video_index">0</property>
  <property name="vstream">0</property>
  <property name="kdenlive:control_uuid">{350e073c-9b0a-4f0d-9454-c17930be46ca}</property>
  <property name="kdenlive:id">9</property>
  <property name="kdenlive:clip_type">2</property>
  <property name="kdenlive:file_size">60545575</property>
  <property name="kdenlive:file_hash">6fab5adb01b4b530cfd57ff860acce9f</property>
  <property name="kdenlive:folderid">4</property>
  <property name="meta.media.nb_streams">1</property>
  <property name="meta.media.0.stream.type">video</property>
  <property name="meta.media.0.stream.frame_rate">60</property>
  <property name="meta.media.0.stream.sample_aspect_ratio">0</property>
  <property name="meta.media.0.codec.width">3840</property>
  <property name="meta.media.0.codec.height">2160</property>
  <property name="meta.media.0.codec.rotate">0</property>
  <property name="meta.media.0.codec.pix_fmt">yuv420p</property>
  <property name="meta.media.0.codec.sample_aspect_ratio">0</property>
  <property name="meta.media.0.codec.colorspace">709</property>
  <property name="meta.media.0.codec.name">hevc</property>
  <property name="meta.media.0.codec.long_name">HEVC (High Efficiency Video Coding)</property>
  <property name="meta.media.0.codec.bit_rate">50445084</property>
  <property name="meta.attr.0.stream.handler_name.markup">VideoHandler</property>
  <property name="meta.attr.0.stream.vendor_id.markup">[0][0][0][0]</property>
  <property name="meta.attr.0.stream.encoder.markup">Lavc61.19.101 libx265</property>
  <property name="meta.attr.minor_version.markup">512</property>
  <property name="meta.attr.major_brand.markup">isom</property>
  <property name="meta.attr.compatible_brands.markup">isomiso2mp41</property>
  <property name="meta.attr.encoder.markup">Lavf62.0.102</property>
  <property name="meta.media.sample_aspect_num">1</property>
  <property name="meta.media.sample_aspect_den">1</property>
  <property name="meta.media.frame_rate_num">60</property>
  <property name="meta.media.frame_rate_den">1</property>
  <property name="meta.media.colorspace">709</property>
  <property name="meta.media.color_trc">2</property>
  <property name="meta.media.has_b_frames">2</property>
  <property name="meta.media.width">3840</property>
  <property name="meta.media.height">2160</property>
  <property name="meta.media.aspect_ratio">1</property>
  <property name="meta.media.color_range">mpeg</property>
  <property name="xml">was here</property>
  <property name="mute_on_pause">0</property>
  <property name="meta.media.top_field_first">0</property>
  <property name="meta.media.progressive">1</property>
  <property name="set.test_audio">1</property>
  <property name="set.test_image">0</property>
 </chain>
 <chain id="chain43" out="00:00:14.042">
  <property name="length">338</property>
  <property name="eof">pause</property>
  <property name="resource">C:/dev/workspace/indy/dist/room/intro/content/upscale/college3.mp4</property>
  <property name="mlt_service">avformat-novalidate</property>
  <property name="seekable">1</property>
  <property name="audio_index">-1</property>
  <property name="video_index">0</property>
  <property name="vstream">0</property>
  <property name="kdenlive:control_uuid">{4b4b3df4-e61e-40fc-81c7-0b0d71b1bd6f}</property>
  <property name="kdenlive:id">15</property>
  <property name="kdenlive:clip_type">2</property>
  <property name="kdenlive:file_size">131528758</property>
  <property name="kdenlive:file_hash">df4e9251f563eeac1c9c4aa9c7aa5b5e</property>
  <property name="kdenlive:folderid">4</property>
  <property name="meta.media.nb_streams">1</property>
  <property name="meta.media.0.stream.type">video</property>
  <property name="meta.media.0.stream.frame_rate">60</property>
  <property name="meta.media.0.stream.sample_aspect_ratio">0</property>
  <property name="meta.media.0.codec.width">3840</property>
  <property name="meta.media.0.codec.height">2160</property>
  <property name="meta.media.0.codec.rotate">0</property>
  <property name="meta.media.0.codec.pix_fmt">yuv420p</property>
  <property name="meta.media.0.codec.sample_aspect_ratio">0</property>
  <property name="meta.media.0.codec.colorspace">709</property>
  <property name="meta.media.0.codec.name">hevc</property>
  <property name="meta.media.0.codec.long_name">HEVC (High Efficiency Video Coding)</property>
  <property name="meta.media.0.codec.bit_rate">74617285</property>
  <property name="meta.attr.0.stream.handler_name.markup">VideoHandler</property>
  <property name="meta.attr.0.stream.vendor_id.markup">[0][0][0][0]</property>
  <property name="meta.attr.0.stream.encoder.markup">Lavc61.19.101 libx265</property>
  <property name="meta.attr.minor_version.markup">512</property>
  <property name="meta.attr.major_brand.markup">isom</property>
  <property name="meta.attr.compatible_brands.markup">isomiso2mp41</property>
  <property name="meta.attr.encoder.markup">Lavf62.0.102</property>
  <property name="meta.media.sample_aspect_num">1</property>
  <property name="meta.media.sample_aspect_den">1</property>
  <property name="meta.media.frame_rate_num">60</property>
  <property name="meta.media.frame_rate_den">1</property>
  <property name="meta.media.colorspace">709</property>
  <property name="meta.media.color_trc">2</property>
  <property name="meta.media.has_b_frames">2</property>
  <property name="meta.media.width">3840</property>
  <property name="meta.media.height">2160</property>
  <property name="meta.media.aspect_ratio">1</property>
  <property name="meta.media.color_range">mpeg</property>
  <property name="xml">was here</property>
  <property name="mute_on_pause">0</property>
  <property name="meta.media.top_field_first">0</property>
  <property name="meta.media.progressive">1</property>
  <property name="set.test_audio">1</property>
  <property name="set.test_image">0</property>
 </chain>
 <chain id="chain44" out="00:00:05.042">
  <property name="length">122</property>
  <property name="eof">pause</property>
  <property name="resource">C:/dev/workspace/indy/dist/room/attic/content/upscale/splash3.mp4</property>
  <property name="mlt_service">avformat-novalidate</property>
  <property name="seekable">1</property>
  <property name="audio_index">-1</property>
  <property name="video_index">0</property>
  <property name="vstream">0</property>
  <property name="kdenlive:control_uuid">{7e67cc9d-b056-4809-b3cc-26650cde1ffc}</property>
  <property name="kdenlive:id">12</property>
  <property name="kdenlive:clip_type">2</property>
  <property name="kdenlive:file_size">13178089</property>
  <property name="kdenlive:file_hash">b3c8d8006b85fdde4229ecd99517e18a</property>
  <property name="kdenlive:folderid">4</property>
  <property name="meta.media.nb_streams">1</property>
  <property name="meta.media.0.stream.type">video</property>
  <property name="meta.media.0.stream.frame_rate">60</property>
  <property name="meta.media.0.stream.sample_aspect_ratio">0</property>
  <property name="meta.media.0.codec.width">3840</property>
  <property name="meta.media.0.codec.height">2160</property>
  <property name="meta.media.0.codec.rotate">0</property>
  <property name="meta.media.0.codec.pix_fmt">yuv444p</property>
  <property name="meta.media.0.codec.sample_aspect_ratio">0</property>
  <property name="meta.media.0.codec.colorspace">709</property>
  <property name="meta.media.0.codec.name">h264</property>
  <property name="meta.media.0.codec.long_name">H.264 / AVC / MPEG-4 AVC / MPEG-4 part 10</property>
  <property name="meta.media.0.codec.bit_rate">20663921</property>
  <property name="meta.attr.0.stream.handler_name.markup">VideoHandler</property>
  <property name="meta.attr.0.stream.vendor_id.markup">[0][0][0][0]</property>
  <property name="meta.attr.0.stream.encoder.markup">Lavc61.19.101 libx264</property>
  <property name="meta.attr.minor_version.markup">512</property>
  <property name="meta.attr.major_brand.markup">isom</property>
  <property name="meta.attr.compatible_brands.markup">isomiso2avc1mp41</property>
  <property name="meta.attr.encoder.markup">Lavf61.9.100</property>
  <property name="meta.media.sample_aspect_num">1</property>
  <property name="meta.media.sample_aspect_den">1</property>
  <property name="meta.media.frame_rate_num">60</property>
  <property name="meta.media.frame_rate_den">1</property>
  <property name="meta.media.colorspace">709</property>
  <property name="meta.media.color_trc">2</property>
  <property name="meta.media.has_b_frames">2</property>
  <property name="meta.media.width">3840</property>
  <property name="meta.media.height">2160</property>
  <property name="meta.media.aspect_ratio">1</property>
  <property name="meta.media.color_range">mpeg</property>
  <property name="xml">was here</property>
  <property name="mute_on_pause">0</property>
  <property name="meta.media.top_field_first">0</property>
  <property name="meta.media.progressive">1</property>
  <property name="set.test_audio">1</property>
  <property name="set.test_image">0</property>
 </chain>
 <chain id="chain45" out="00:00:10.208">
  <property name="length">246</property>
  <property name="eof">pause</property>
  <property name="resource">C:/dev/workspace/indy/dist/room/attic/content/upscale/dialog.mp4</property>
  <property name="mlt_service">avformat-novalidate</property>
  <property name="seekable">1</property>
  <property name="audio_index">1</property>
  <property name="video_index">0</property>
  <property name="vstream">0</property>
  <property name="astream">0</property>
  <property name="kdenlive:folderid">4</property>
  <property name="kdenlive:id">76</property>
  <property name="kdenlive:control_uuid">{8b73b6be-b8a3-40bf-8d43-821c1c41b135}</property>
  <property name="mute_on_pause">0</property>
  <property name="kdenlive:clip_type">0</property>
  <property name="kdenlive:file_size">25394252</property>
  <property name="kdenlive:file_hash">896d33b1e3393fcbcda48ea88ad401d3</property>
  <property name="meta.media.nb_streams">2</property>
  <property name="meta.media.0.stream.type">video</property>
  <property name="meta.media.0.stream.frame_rate">30</property>
  <property name="meta.media.0.stream.sample_aspect_ratio">0</property>
  <property name="meta.media.0.codec.width">3840</property>
  <property name="meta.media.0.codec.height">2160</property>
  <property name="meta.media.0.codec.rotate">0</property>
  <property name="meta.media.0.codec.pix_fmt">yuv420p</property>
  <property name="meta.media.0.codec.sample_aspect_ratio">0</property>
  <property name="meta.media.0.codec.colorspace">709</property>
  <property name="meta.media.0.codec.name">hevc</property>
  <property name="meta.media.0.codec.long_name">HEVC (High Efficiency Video Coding)</property>
  <property name="meta.media.0.codec.bit_rate">19672531</property>
  <property name="meta.attr.0.stream.handler_name.markup">VideoHandler</property>
  <property name="meta.attr.0.stream.vendor_id.markup">[0][0][0][0]</property>
  <property name="meta.attr.0.stream.encoder.markup">Lavc61.19.101 libx265</property>
  <property name="meta.media.1.stream.type">audio</property>
  <property name="meta.media.1.codec.sample_fmt">fltp</property>
  <property name="meta.media.1.codec.sample_rate">48000</property>
  <property name="meta.media.1.codec.channels">2</property>
  <property name="meta.media.1.codec.layout">stereo</property>
  <property name="meta.media.1.codec.name">aac</property>
  <property name="meta.media.1.codec.long_name">AAC (Advanced Audio Coding)</property>
  <property name="meta.media.1.codec.bit_rate">103123</property>
  <property name="meta.attr.1.stream.handler_name.markup">SoundHandler</property>
  <property name="meta.attr.1.stream.vendor_id.markup">[0][0][0][0]</property>
  <property name="meta.attr.minor_version.markup">512</property>
  <property name="meta.attr.major_brand.markup">isom</property>
  <property name="meta.attr.compatible_brands.markup">isomiso2mp41</property>
  <property name="meta.attr.encoder.markup">Lavf61.9.100</property>
  <property name="meta.media.sample_aspect_num">1</property>
  <property name="meta.media.sample_aspect_den">1</property>
  <property name="meta.media.frame_rate_num">30</property>
  <property name="meta.media.frame_rate_den">1</property>
  <property name="meta.media.colorspace">709</property>
  <property name="meta.media.color_trc">2</property>
  <property name="meta.media.has_b_frames">2</property>
  <property name="meta.media.width">3840</property>
  <property name="meta.media.height">2160</property>
  <property name="meta.media.aspect_ratio">1</property>
  <property name="meta.media.color_range">mpeg</property>
  <property name="xml">was here</property>
  <property name="meta.media.top_field_first">0</property>
  <property name="meta.media.progressive">1</property>
  <property name="set.test_audio">1</property>
  <property name="set.test_image">0</property>
 </chain>
 <chain id="chain46" out="00:00:05.042">
  <property name="length">122</property>
  <property name="eof">pause</property>
  <property name="resource">C:/dev/workspace/indy/dist/room/attic/content/upscale/attic20.mp4</property>
  <property name="mlt_service">avformat-novalidate</property>
  <property name="seekable">1</property>
  <property name="audio_index">-1</property>
  <property name="video_index">0</property>
  <property name="vstream">0</property>
  <property name="kdenlive:control_uuid">{a7e7d69e-cdbe-44ac-a669-c29e195e17b8}</property>
  <property name="kdenlive:id">32</property>
  <property name="kdenlive:clip_type">2</property>
  <property name="kdenlive:file_size">18313745</property>
  <property name="kdenlive:file_hash">2b52ff0a8760bb68787e98a4f18023c4</property>
  <property name="kdenlive:folderid">4</property>
  <property name="meta.media.nb_streams">1</property>
  <property name="meta.media.0.stream.type">video</property>
  <property name="meta.media.0.stream.frame_rate">60</property>
  <property name="meta.media.0.stream.sample_aspect_ratio">0</property>
  <property name="meta.media.0.codec.width">3840</property>
  <property name="meta.media.0.codec.height">2160</property>
  <property name="meta.media.0.codec.rotate">0</property>
  <property name="meta.media.0.codec.pix_fmt">yuv444p</property>
  <property name="meta.media.0.codec.sample_aspect_ratio">0</property>
  <property name="meta.media.0.codec.colorspace">709</property>
  <property name="meta.media.0.codec.name">h264</property>
  <property name="meta.media.0.codec.long_name">H.264 / AVC / MPEG-4 AVC / MPEG-4 part 10</property>
  <property name="meta.media.0.codec.bit_rate">28719658</property>
  <property name="meta.attr.0.stream.handler_name.markup">VideoHandler</property>
  <property name="meta.attr.0.stream.vendor_id.markup">[0][0][0][0]</property>
  <property name="meta.attr.0.stream.encoder.markup">Lavc61.19.101 libx264</property>
  <property name="meta.attr.minor_version.markup">512</property>
  <property name="meta.attr.major_brand.markup">isom</property>
  <property name="meta.attr.compatible_brands.markup">isomiso2avc1mp41</property>
  <property name="meta.attr.encoder.markup">Lavf61.9.100</property>
  <property name="meta.media.sample_aspect_num">1</property>
  <property name="meta.media.sample_aspect_den">1</property>
  <property name="meta.media.frame_rate_num">60</property>
  <property name="meta.media.frame_rate_den">1</property>
  <property name="meta.media.colorspace">709</property>
  <property name="meta.media.color_trc">2</property>
  <property name="meta.media.has_b_frames">2</property>
  <property name="meta.media.width">3840</property>
  <property name="meta.media.height">2160</property>
  <property name="meta.media.aspect_ratio">1</property>
  <property name="meta.media.color_range">mpeg</property>
  <property name="xml">was here</property>
  <property name="mute_on_pause">0</property>
  <property name="meta.media.top_field_first">0</property>
  <property name="meta.media.progressive">1</property>
  <property name="set.test_audio">1</property>
  <property name="set.test_image">0</property>
 </chain>
 <chain id="chain47" out="00:00:05.042">
  <property name="length">122</property>
  <property name="eof">pause</property>
  <property name="resource">C:/dev/workspace/indy/dist/room/attic/content/upscale/cross7.mp4</property>
  <property name="mlt_service">avformat-novalidate</property>
  <property name="seekable">1</property>
  <property name="audio_index">-1</property>
  <property name="video_index">0</property>
  <property name="vstream">0</property>
  <property name="kdenlive:control_uuid">{71594a7b-c502-4a08-a166-bf2224dd3e7a}</property>
  <property name="kdenlive:id">25</property>
  <property name="kdenlive:clip_type">2</property>
  <property name="kdenlive:file_size">16676721</property>
  <property name="kdenlive:file_hash">b8f228d4f20ce1c83f77733bab4a687c</property>
  <property name="kdenlive:folderid">4</property>
  <property name="meta.media.nb_streams">1</property>
  <property name="meta.media.0.stream.type">video</property>
  <property name="meta.media.0.stream.frame_rate">60</property>
  <property name="meta.media.0.stream.sample_aspect_ratio">0</property>
  <property name="meta.media.0.codec.width">3840</property>
  <property name="meta.media.0.codec.height">2160</property>
  <property name="meta.media.0.codec.rotate">0</property>
  <property name="meta.media.0.codec.pix_fmt">yuv444p</property>
  <property name="meta.media.0.codec.sample_aspect_ratio">0</property>
  <property name="meta.media.0.codec.colorspace">709</property>
  <property name="meta.media.0.codec.name">h264</property>
  <property name="meta.media.0.codec.long_name">H.264 / AVC / MPEG-4 AVC / MPEG-4 part 10</property>
  <property name="meta.media.0.codec.bit_rate">26151796</property>
  <property name="meta.attr.0.stream.handler_name.markup">VideoHandler</property>
  <property name="meta.attr.0.stream.vendor_id.markup">[0][0][0][0]</property>
  <property name="meta.attr.0.stream.encoder.markup">Lavc61.19.101 libx264</property>
  <property name="meta.attr.minor_version.markup">512</property>
  <property name="meta.attr.major_brand.markup">isom</property>
  <property name="meta.attr.compatible_brands.markup">isomiso2avc1mp41</property>
  <property name="meta.attr.encoder.markup">Lavf61.9.100</property>
  <property name="meta.media.sample_aspect_num">1</property>
  <property name="meta.media.sample_aspect_den">1</property>
  <property name="meta.media.frame_rate_num">60</property>
  <property name="meta.media.frame_rate_den">1</property>
  <property name="meta.media.colorspace">709</property>
  <property name="meta.media.color_trc">2</property>
  <property name="meta.media.has_b_frames">2</property>
  <property name="meta.media.width">3840</property>
  <property name="meta.media.height">2160</property>
  <property name="meta.media.aspect_ratio">1</property>
  <property name="meta.media.color_range">mpeg</property>
  <property name="xml">was here</property>
  <property name="mute_on_pause">0</property>
  <property name="meta.media.top_field_first">0</property>
  <property name="meta.media.progressive">1</property>
  <property name="set.test_audio">1</property>
  <property name="set.test_image">0</property>
 </chain>
 <chain id="chain48" out="00:00:09.542">
  <property name="length">230</property>
  <property name="eof">pause</property>
  <property name="resource">C:/dev/workspace/indy/dist/room/attic/content/upscale/gargoyle6.mp4</property>
  <property name="mlt_service">avformat-novalidate</property>
  <property name="seekable">1</property>
  <property name="audio_index">-1</property>
  <property name="video_index">0</property>
  <property name="vstream">0</property>
  <property name="kdenlive:control_uuid">{13dbe6ca-4333-4e67-a088-fc0091b70fe6}</property>
  <property name="kdenlive:id">26</property>
  <property name="kdenlive:clip_type">2</property>
  <property name="kdenlive:file_size">26851860</property>
  <property name="kdenlive:file_hash">f393253d63bf724f621b21d28fb7c1d6</property>
  <property name="kdenlive:folderid">4</property>
  <property name="meta.media.nb_streams">1</property>
  <property name="meta.media.0.stream.type">video</property>
  <property name="meta.media.0.stream.frame_rate">60</property>
  <property name="meta.media.0.stream.sample_aspect_ratio">0</property>
  <property name="meta.media.0.codec.width">3840</property>
  <property name="meta.media.0.codec.height">2160</property>
  <property name="meta.media.0.codec.rotate">0</property>
  <property name="meta.media.0.codec.pix_fmt">yuv444p</property>
  <property name="meta.media.0.codec.sample_aspect_ratio">0</property>
  <property name="meta.media.0.codec.colorspace">709</property>
  <property name="meta.media.0.codec.name">h264</property>
  <property name="meta.media.0.codec.long_name">H.264 / AVC / MPEG-4 AVC / MPEG-4 part 10</property>
  <property name="meta.media.0.codec.bit_rate">22369630</property>
  <property name="meta.attr.0.stream.handler_name.markup">VideoHandler</property>
  <property name="meta.attr.0.stream.vendor_id.markup">[0][0][0][0]</property>
  <property name="meta.attr.0.stream.encoder.markup">Lavc61.19.101 libx264</property>
  <property name="meta.attr.minor_version.markup">512</property>
  <property name="meta.attr.major_brand.markup">isom</property>
  <property name="meta.attr.compatible_brands.markup">isomiso2avc1mp41</property>
  <property name="meta.attr.encoder.markup">Lavf61.9.100</property>
  <property name="meta.media.sample_aspect_num">1</property>
  <property name="meta.media.sample_aspect_den">1</property>
  <property name="meta.media.frame_rate_num">60</property>
  <property name="meta.media.frame_rate_den">1</property>
  <property name="meta.media.colorspace">709</property>
  <property name="meta.media.color_trc">2</property>
  <property name="meta.media.has_b_frames">2</property>
  <property name="meta.media.width">3840</property>
  <property name="meta.media.height">2160</property>
  <property name="meta.media.aspect_ratio">1</property>
  <property name="meta.media.color_range">mpeg</property>
  <property name="xml">was here</property>
  <property name="mute_on_pause">0</property>
  <property name="meta.media.top_field_first">0</property>
  <property name="meta.media.progressive">1</property>
  <property name="set.test_audio">1</property>
  <property name="set.test_image">0</property>
 </chain>
 <chain id="chain49" out="00:00:14.042">
  <property name="length">338</property>
  <property name="eof">pause</property>
  <property name="resource">C:/dev/workspace/indy/dist/room/attic/content/upscale/attic11.mp4</property>
  <property name="mlt_service">avformat-novalidate</property>
  <property name="seekable">1</property>
  <property name="audio_index">-1</property>
  <property name="video_index">0</property>
  <property name="vstream">0</property>
  <property name="kdenlive:control_uuid">{39dbe2a6-41a1-4f0c-8d0f-71be3ea69946}</property>
  <property name="kdenlive:id">24</property>
  <property name="kdenlive:clip_type">2</property>
  <property name="kdenlive:file_size">55220516</property>
  <property name="kdenlive:file_hash">54379de5fb6d35007c3273e256f13538</property>
  <property name="kdenlive:folderid">4</property>
  <property name="meta.media.nb_streams">1</property>
  <property name="meta.media.0.stream.type">video</property>
  <property name="meta.media.0.stream.frame_rate">60</property>
  <property name="meta.media.0.stream.sample_aspect_ratio">0</property>
  <property name="meta.media.0.codec.width">3840</property>
  <property name="meta.media.0.codec.height">2160</property>
  <property name="meta.media.0.codec.rotate">0</property>
  <property name="meta.media.0.codec.pix_fmt">yuv444p</property>
  <property name="meta.media.0.codec.sample_aspect_ratio">0</property>
  <property name="meta.media.0.codec.colorspace">709</property>
  <property name="meta.media.0.codec.name">h264</property>
  <property name="meta.media.0.codec.long_name">H.264 / AVC / MPEG-4 AVC / MPEG-4 part 10</property>
  <property name="meta.media.0.codec.bit_rate">31324053</property>
  <property name="meta.attr.0.stream.handler_name.markup">VideoHandler</property>
  <property name="meta.attr.0.stream.vendor_id.markup">[0][0][0][0]</property>
  <property name="meta.attr.0.stream.encoder.markup">Lavc61.19.101 libx264</property>
  <property name="meta.attr.minor_version.markup">512</property>
  <property name="meta.attr.major_brand.markup">isom</property>
  <property name="meta.attr.compatible_brands.markup">isomiso2avc1mp41</property>
  <property name="meta.attr.encoder.markup">Lavf61.9.100</property>
  <property name="meta.media.sample_aspect_num">1</property>
  <property name="meta.media.sample_aspect_den">1</property>
  <property name="meta.media.frame_rate_num">60</property>
  <property name="meta.media.frame_rate_den">1</property>
  <property name="meta.media.colorspace">709</property>
  <property name="meta.media.color_trc">2</property>
  <property name="meta.media.has_b_frames">2</property>
  <property name="meta.media.width">3840</property>
  <property name="meta.media.height">2160</property>
  <property name="meta.media.aspect_ratio">1</property>
  <property name="meta.media.color_range">mpeg</property>
  <property name="xml">was here</property>
  <property name="mute_on_pause">0</property>
  <property name="meta.media.top_field_first">0</property>
  <property name="meta.media.progressive">1</property>
  <property name="set.test_audio">1</property>
  <property name="set.test_image">0</property>
 </chain>
 <chain id="chain50" out="00:00:05.042">
  <property name="length">122</property>
  <property name="eof">pause</property>
  <property name="resource">C:/dev/workspace/indy/dist/room/attic/content/upscale/attic12.mp4</property>
  <property name="mlt_service">avformat-novalidate</property>
  <property name="seekable">1</property>
  <property name="audio_index">-1</property>
  <property name="video_index">0</property>
  <property name="vstream">0</property>
  <property name="kdenlive:control_uuid">{7572f282-183b-44fe-a9f2-a3db2cbd2775}</property>
  <property name="kdenlive:id">28</property>
  <property name="kdenlive:clip_type">2</property>
  <property name="kdenlive:file_size">12212751</property>
  <property name="kdenlive:file_hash">65ec6cfb5f2e104a4576ed5c11718406</property>
  <property name="kdenlive:folderid">4</property>
  <property name="meta.media.nb_streams">1</property>
  <property name="meta.media.0.stream.type">video</property>
  <property name="meta.media.0.stream.frame_rate">60</property>
  <property name="meta.media.0.stream.sample_aspect_ratio">0</property>
  <property name="meta.media.0.codec.width">3840</property>
  <property name="meta.media.0.codec.height">2160</property>
  <property name="meta.media.0.codec.rotate">0</property>
  <property name="meta.media.0.codec.pix_fmt">yuv444p</property>
  <property name="meta.media.0.codec.sample_aspect_ratio">0</property>
  <property name="meta.media.0.codec.colorspace">709</property>
  <property name="meta.media.0.codec.name">h264</property>
  <property name="meta.media.0.codec.long_name">H.264 / AVC / MPEG-4 AVC / MPEG-4 part 10</property>
  <property name="meta.media.0.codec.bit_rate">19149596</property>
  <property name="meta.attr.0.stream.handler_name.markup">VideoHandler</property>
  <property name="meta.attr.0.stream.vendor_id.markup">[0][0][0][0]</property>
  <property name="meta.attr.0.stream.encoder.markup">Lavc61.19.101 libx264</property>
  <property name="meta.attr.minor_version.markup">512</property>
  <property name="meta.attr.major_brand.markup">isom</property>
  <property name="meta.attr.compatible_brands.markup">isomiso2avc1mp41</property>
  <property name="meta.attr.encoder.markup">Lavf61.9.100</property>
  <property name="meta.media.sample_aspect_num">1</property>
  <property name="meta.media.sample_aspect_den">1</property>
  <property name="meta.media.frame_rate_num">60</property>
  <property name="meta.media.frame_rate_den">1</property>
  <property name="meta.media.colorspace">709</property>
  <property name="meta.media.color_trc">2</property>
  <property name="meta.media.has_b_frames">2</property>
  <property name="meta.media.width">3840</property>
  <property name="meta.media.height">2160</property>
  <property name="meta.media.aspect_ratio">1</property>
  <property name="meta.media.color_range">mpeg</property>
  <property name="xml">was here</property>
  <property name="mute_on_pause">0</property>
  <property name="meta.media.top_field_first">0</property>
  <property name="meta.media.progressive">1</property>
  <property name="set.test_audio">1</property>
  <property name="set.test_image">0</property>
 </chain>
 <chain id="chain51" out="00:00:05.042">
  <property name="length">122</property>
  <property name="eof">pause</property>
  <property name="resource">C:/dev/workspace/indy/dist/room/attic2/content/upscale/indy.mp4</property>
  <property name="mlt_service">avformat-novalidate</property>
  <property name="seekable">1</property>
  <property name="audio_index">-1</property>
  <property name="video_index">0</property>
  <property name="vstream">0</property>
  <property name="kdenlive:control_uuid">{95143fde-b306-4947-be1b-a56f8dd316f0}</property>
  <property name="kdenlive:id">30</property>
  <property name="kdenlive:clip_type">2</property>
  <property name="kdenlive:file_size">15361542</property>
  <property name="kdenlive:file_hash">56ca686ab9ca25016bdd3a6b935f41b0</property>
  <property name="kdenlive:folderid">4</property>
  <property name="meta.media.nb_streams">1</property>
  <property name="meta.media.0.stream.type">video</property>
  <property name="meta.media.0.stream.frame_rate">60</property>
  <property name="meta.media.0.stream.sample_aspect_ratio">0</property>
  <property name="meta.media.0.codec.width">3840</property>
  <property name="meta.media.0.codec.height">2160</property>
  <property name="meta.media.0.codec.rotate">0</property>
  <property name="meta.media.0.codec.pix_fmt">yuv444p</property>
  <property name="meta.media.0.codec.sample_aspect_ratio">0</property>
  <property name="meta.media.0.codec.colorspace">709</property>
  <property name="meta.media.0.codec.name">h264</property>
  <property name="meta.media.0.codec.long_name">H.264 / AVC / MPEG-4 AVC / MPEG-4 part 10</property>
  <property name="meta.media.0.codec.bit_rate">24088795</property>
  <property name="meta.attr.0.stream.handler_name.markup">VideoHandler</property>
  <property name="meta.attr.0.stream.vendor_id.markup">[0][0][0][0]</property>
  <property name="meta.attr.0.stream.encoder.markup">Lavc61.19.101 libx264</property>
  <property name="meta.attr.minor_version.markup">512</property>
  <property name="meta.attr.major_brand.markup">isom</property>
  <property name="meta.attr.compatible_brands.markup">isomiso2avc1mp41</property>
  <property name="meta.attr.encoder.markup">Lavf61.9.100</property>
  <property name="meta.media.sample_aspect_num">1</property>
  <property name="meta.media.sample_aspect_den">1</property>
  <property name="meta.media.frame_rate_num">60</property>
  <property name="meta.media.frame_rate_den">1</property>
  <property name="meta.media.colorspace">709</property>
  <property name="meta.media.color_trc">2</property>
  <property name="meta.media.has_b_frames">2</property>
  <property name="meta.media.width">3840</property>
  <property name="meta.media.height">2160</property>
  <property name="meta.media.aspect_ratio">1</property>
  <property name="meta.media.color_range">mpeg</property>
  <property name="xml">was here</property>
  <property name="mute_on_pause">0</property>
  <property name="meta.media.top_field_first">0</property>
  <property name="meta.media.progressive">1</property>
  <property name="set.test_audio">1</property>
  <property name="set.test_image">0</property>
 </chain>
 <producer id="producer13" in="00:00:00.000" out="00:00:03.958">
  <property name="length">96</property>
  <property name="eof">pause</property>
  <property name="resource">1.166670:C:/dev/workspace/indy/dist/room/attic2/content/upscale/indy4.mp4</property>
  <property name="aspect_ratio">1</property>
  <property name="meta.media.nb_streams">1</property>
  <property name="meta.media.0.stream.type">video</property>
  <property name="meta.media.0.stream.frame_rate">48</property>
  <property name="meta.media.0.stream.sample_aspect_ratio">0</property>
  <property name="meta.media.0.codec.width">3840</property>
  <property name="meta.media.0.codec.height">2160</property>
  <property name="meta.media.0.codec.rotate">0</property>
  <property name="meta.media.0.codec.pix_fmt">yuv444p</property>
  <property name="meta.media.0.codec.sample_aspect_ratio">0</property>
  <property name="meta.media.0.codec.colorspace">709</property>
  <property name="meta.media.0.codec.name">h264</property>
  <property name="meta.media.0.codec.long_name">H.264 / AVC / MPEG-4 AVC / MPEG-4 part 10</property>
  <property name="meta.media.0.codec.bit_rate">41180501</property>
  <property name="meta.attr.0.stream.handler_name.markup">VideoHandler</property>
  <property name="meta.attr.0.stream.vendor_id.markup">[0][0][0][0]</property>
  <property name="meta.attr.0.stream.encoder.markup">Lavc61.19.101 libx264</property>
  <property name="meta.attr.minor_version.markup">512</property>
  <property name="meta.attr.major_brand.markup">isom</property>
  <property name="meta.attr.compatible_brands.markup">isomiso2avc1mp41</property>
  <property name="meta.attr.encoder.markup">Lavf61.9.100</property>
  <property name="seekable">1</property>
  <property name="meta.media.sample_aspect_num">1</property>
  <property name="meta.media.sample_aspect_den">1</property>
  <property name="audio_index">-1</property>
  <property name="video_index">0</property>
  <property name="warp_speed">1.16667</property>
  <property name="warp_resource">C:/dev/workspace/indy/dist/room/attic2/content/upscale/indy4.mp4</property>
  <property name="mlt_service">timewarp</property>
  <property name="kdenlive:control_uuid">{aa77de68-239d-464d-8544-f8d3d47c7cf6}</property>
  <property name="vstream">0</property>
  <property name="astream">-1</property>
  <property name="set.test_audio">1</property>
  <property name="set.test_image">0</property>
  <property name="kdenlive:id">34</property>
  <property name="warp_pitch">0</property>
  <property name="meta.media.frame_rate_num">48</property>
  <property name="meta.media.frame_rate_den">1</property>
  <property name="meta.media.colorspace">709</property>
  <property name="meta.media.color_trc">2</property>
  <property name="meta.media.has_b_frames">2</property>
  <property name="meta.media.width">3840</property>
  <property name="meta.media.height">2160</property>
  <property name="meta.media.aspect_ratio">1</property>
  <property name="meta.media.color_range">mpeg</property>
  <property name="meta.media.top_field_first">0</property>
  <property name="meta.media.progressive">1</property>
 </producer>
 <chain id="chain52" out="00:00:05.042">
  <property name="length">122</property>
  <property name="eof">pause</property>
  <property name="resource">C:/dev/workspace/indy/dist/room/attic2/content/upscale/indy6.mp4</property>
  <property name="mlt_service">avformat-novalidate</property>
  <property name="seekable">1</property>
  <property name="audio_index">-1</property>
  <property name="video_index">0</property>
  <property name="vstream">0</property>
  <property name="kdenlive:control_uuid">{6e11a6a9-cb8a-4522-9645-f691d70b5e47}</property>
  <property name="kdenlive:id">36</property>
  <property name="kdenlive:clip_type">2</property>
  <property name="kdenlive:file_size">17410283</property>
  <property name="kdenlive:file_hash">e620a7cff7361829603e44380d0ee701</property>
  <property name="kdenlive:folderid">-1</property>
  <property name="meta.media.nb_streams">1</property>
  <property name="meta.media.0.stream.type">video</property>
  <property name="meta.media.0.stream.frame_rate">60</property>
  <property name="meta.media.0.stream.sample_aspect_ratio">0</property>
  <property name="meta.media.0.codec.width">3840</property>
  <property name="meta.media.0.codec.height">2160</property>
  <property name="meta.media.0.codec.rotate">0</property>
  <property name="meta.media.0.codec.pix_fmt">yuv444p</property>
  <property name="meta.media.0.codec.sample_aspect_ratio">0</property>
  <property name="meta.media.0.codec.colorspace">709</property>
  <property name="meta.media.0.codec.name">h264</property>
  <property name="meta.media.0.codec.long_name">H.264 / AVC / MPEG-4 AVC / MPEG-4 part 10</property>
  <property name="meta.media.0.codec.bit_rate">27302487</property>
  <property name="meta.attr.0.stream.handler_name.markup">VideoHandler</property>
  <property name="meta.attr.0.stream.vendor_id.markup">[0][0][0][0]</property>
  <property name="meta.attr.0.stream.encoder.markup">Lavc61.19.101 libx264</property>
  <property name="meta.attr.minor_version.markup">512</property>
  <property name="meta.attr.major_brand.markup">isom</property>
  <property name="meta.attr.compatible_brands.markup">isomiso2avc1mp41</property>
  <property name="meta.attr.encoder.markup">Lavf61.9.100</property>
  <property name="meta.media.sample_aspect_num">1</property>
  <property name="meta.media.sample_aspect_den">1</property>
  <property name="meta.media.frame_rate_num">60</property>
  <property name="meta.media.frame_rate_den">1</property>
  <property name="meta.media.colorspace">709</property>
  <property name="meta.media.color_trc">2</property>
  <property name="meta.media.has_b_frames">2</property>
  <property name="meta.media.width">3840</property>
  <property name="meta.media.height">2160</property>
  <property name="meta.media.aspect_ratio">1</property>
  <property name="meta.media.color_range">mpeg</property>
  <property name="xml">was here</property>
  <property name="mute_on_pause">0</property>
  <property name="meta.media.top_field_first">0</property>
  <property name="meta.media.progressive">1</property>
  <property name="set.test_audio">1</property>
  <property name="set.test_image">0</property>
 </chain>
 <chain id="chain53" out="00:00:09.542">
  <property name="length">230</property>
  <property name="eof">pause</property>
  <property name="resource">C:/dev/workspace/indy/dist/room/attic2/content/upscale/indy5.mp4</property>
  <property name="mlt_service">avformat-novalidate</property>
  <property name="seekable">1</property>
  <property name="audio_index">-1</property>
  <property name="video_index">0</property>
  <property name="vstream">0</property>
  <property name="kdenlive:control_uuid">{fa6d5020-90c7-4cd0-b94b-d173171c8d05}</property>
  <property name="kdenlive:id">65</property>
  <property name="kdenlive:clip_type">2</property>
  <property name="kdenlive:file_size">24243831</property>
  <property name="kdenlive:file_hash">d13b0ecc0959c3fed37943396aac9de6</property>
  <property name="kdenlive:folderid">-1</property>
  <property name="meta.media.nb_streams">1</property>
  <property name="meta.media.0.stream.type">video</property>
  <property name="meta.media.0.stream.frame_rate">60</property>
  <property name="meta.media.0.stream.sample_aspect_ratio">0</property>
  <property name="meta.media.0.codec.width">3840</property>
  <property name="meta.media.0.codec.height">2160</property>
  <property name="meta.media.0.codec.rotate">0</property>
  <property name="meta.media.0.codec.pix_fmt">yuv444p</property>
  <property name="meta.media.0.codec.sample_aspect_ratio">0</property>
  <property name="meta.media.0.codec.colorspace">709</property>
  <property name="meta.media.0.codec.name">h264</property>
  <property name="meta.media.0.codec.long_name">H.264 / AVC / MPEG-4 AVC / MPEG-4 part 10</property>
  <property name="meta.media.0.codec.bit_rate">20196336</property>
  <property name="meta.attr.0.stream.handler_name.markup">VideoHandler</property>
  <property name="meta.attr.0.stream.vendor_id.markup">[0][0][0][0]</property>
  <property name="meta.attr.0.stream.encoder.markup">Lavc61.19.101 libx264</property>
  <property name="meta.attr.minor_version.markup">512</property>
  <property name="meta.attr.major_brand.markup">isom</property>
  <property name="meta.attr.compatible_brands.markup">isomiso2avc1mp41</property>
  <property name="meta.attr.encoder.markup">Lavf61.9.100</property>
  <property name="meta.media.sample_aspect_num">1</property>
  <property name="meta.media.sample_aspect_den">1</property>
  <property name="meta.media.frame_rate_num">60</property>
  <property name="meta.media.frame_rate_den">1</property>
  <property name="meta.media.colorspace">709</property>
  <property name="meta.media.color_trc">2</property>
  <property name="meta.media.has_b_frames">2</property>
  <property name="meta.media.width">3840</property>
  <property name="meta.media.height">2160</property>
  <property name="meta.media.aspect_ratio">1</property>
  <property name="meta.media.color_range">mpeg</property>
  <property name="xml">was here</property>
  <property name="mute_on_pause">0</property>
  <property name="meta.media.top_field_first">0</property>
  <property name="meta.media.progressive">1</property>
  <property name="set.test_audio">1</property>
  <property name="set.test_image">0</property>
 </chain>
 <producer id="producer14" in="00:00:00.000" out="00:00:13.000">
  <property name="length">313</property>
  <property name="eof">pause</property>
  <property name="resource">0.800000:C:/dev/workspace/indy/dist/room/chase/content/upscale/college4.mp4</property>
  <property name="aspect_ratio">1</property>
  <property name="meta.media.nb_streams">1</property>
  <property name="meta.media.0.stream.type">video</property>
  <property name="meta.media.0.stream.frame_rate">60</property>
  <property name="meta.media.0.stream.sample_aspect_ratio">0</property>
  <property name="meta.media.0.codec.width">3840</property>
  <property name="meta.media.0.codec.height">2160</property>
  <property name="meta.media.0.codec.rotate">0</property>
  <property name="meta.media.0.codec.pix_fmt">yuv420p</property>
  <property name="meta.media.0.codec.sample_aspect_ratio">0</property>
  <property name="meta.media.0.codec.colorspace">709</property>
  <property name="meta.media.0.codec.name">hevc</property>
  <property name="meta.media.0.codec.long_name">HEVC (High Efficiency Video Coding)</property>
  <property name="meta.media.0.codec.bit_rate">69299527</property>
  <property name="meta.attr.0.stream.handler_name.markup">VideoHandler</property>
  <property name="meta.attr.0.stream.vendor_id.markup">[0][0][0][0]</property>
  <property name="meta.attr.0.stream.encoder.markup">Lavc61.19.101 libx265</property>
  <property name="meta.attr.minor_version.markup">512</property>
  <property name="meta.attr.major_brand.markup">isom</property>
  <property name="meta.attr.compatible_brands.markup">isomiso2mp41</property>
  <property name="meta.attr.encoder.markup">Lavf62.0.102</property>
  <property name="seekable">1</property>
  <property name="meta.media.sample_aspect_num">1</property>
  <property name="meta.media.sample_aspect_den">1</property>
  <property name="audio_index">-1</property>
  <property name="video_index">0</property>
  <property name="warp_speed">0.8</property>
  <property name="warp_resource">C:/dev/workspace/indy/dist/room/chase/content/upscale/college4.mp4</property>
  <property name="mlt_service">timewarp</property>
  <property name="kdenlive:control_uuid">{fea74bcb-f56a-414f-812a-fc621b1cec6a}</property>
  <property name="vstream">0</property>
  <property name="astream">-1</property>
  <property name="set.test_audio">1</property>
  <property name="set.test_image">0</property>
  <property name="kdenlive:id">38</property>
  <property name="warp_pitch">0</property>
  <property name="meta.media.frame_rate_num">60</property>
  <property name="meta.media.frame_rate_den">1</property>
  <property name="meta.media.colorspace">709</property>
  <property name="meta.media.color_trc">2</property>
  <property name="meta.media.has_b_frames">2</property>
  <property name="meta.media.width">3840</property>
  <property name="meta.media.height">2160</property>
  <property name="meta.media.aspect_ratio">1</property>
  <property name="meta.media.color_range">mpeg</property>
  <property name="meta.media.top_field_first">0</property>
  <property name="meta.media.progressive">1</property>
 </producer>
 <producer id="producer15" in="00:00:00.000" out="00:00:05.042">
  <property name="length">122</property>
  <property name="eof">pause</property>
  <property name="resource">-1.000000:C:/dev/workspace/indy/dist/room/chase/content/upscale/college2.mp4</property>
  <property name="aspect_ratio">1</property>
  <property name="meta.media.nb_streams">1</property>
  <property name="meta.media.0.stream.type">video</property>
  <property name="meta.media.0.stream.frame_rate">60</property>
  <property name="meta.media.0.stream.sample_aspect_ratio">0</property>
  <property name="meta.media.0.codec.width">3840</property>
  <property name="meta.media.0.codec.height">2160</property>
  <property name="meta.media.0.codec.rotate">0</property>
  <property name="meta.media.0.codec.pix_fmt">yuv420p</property>
  <property name="meta.media.0.codec.sample_aspect_ratio">0</property>
  <property name="meta.media.0.codec.colorspace">709</property>
  <property name="meta.media.0.codec.name">hevc</property>
  <property name="meta.media.0.codec.long_name">HEVC (High Efficiency Video Coding)</property>
  <property name="meta.media.0.codec.bit_rate">90305882</property>
  <property name="meta.attr.0.stream.handler_name.markup">VideoHandler</property>
  <property name="meta.attr.0.stream.vendor_id.markup">[0][0][0][0]</property>
  <property name="meta.attr.0.stream.encoder.markup">Lavc61.19.101 libx265</property>
  <property name="meta.attr.minor_version.markup">512</property>
  <property name="meta.attr.major_brand.markup">isom</property>
  <property name="meta.attr.compatible_brands.markup">isomiso2mp41</property>
  <property name="meta.attr.encoder.markup">Lavf62.0.102</property>
  <property name="seekable">1</property>
  <property name="meta.media.sample_aspect_num">1</property>
  <property name="meta.media.sample_aspect_den">1</property>
  <property name="audio_index">-1</property>
  <property name="video_index">0</property>
  <property name="warp_speed">-1</property>
  <property name="warp_resource">C:/dev/workspace/indy/dist/room/chase/content/upscale/college2.mp4</property>
  <property name="mlt_service">timewarp</property>
  <property name="kdenlive:control_uuid">{0fe66d87-af90-4a81-a90b-1455468bd608}</property>
  <property name="vstream">0</property>
  <property name="astream">-1</property>
  <property name="set.test_audio">1</property>
  <property name="set.test_image">0</property>
  <property name="kdenlive:id">41</property>
  <property name="warp_pitch">0</property>
  <property name="meta.media.frame_rate_num">60</property>
  <property name="meta.media.frame_rate_den">1</property>
  <property name="meta.media.colorspace">709</property>
  <property name="meta.media.color_trc">2</property>
  <property name="meta.media.has_b_frames">2</property>
  <property name="meta.media.width">3840</property>
  <property name="meta.media.height">2160</property>
  <property name="meta.media.aspect_ratio">1</property>
  <property name="meta.media.color_range">mpeg</property>
  <property name="meta.media.top_field_first">0</property>
  <property name="meta.media.progressive">1</property>
 </producer>
 <producer id="producer16" in="00:00:00.000" out="00:00:10.917">
  <property name="length">263</property>
  <property name="eof">pause</property>
  <property name="resource">0.760000:C:/dev/workspace/indy/dist/room/chase/content/upscale/dialog.mp4</property>
  <property name="aspect_ratio">1</property>
  <property name="meta.media.nb_streams">2</property>
  <property name="meta.media.0.stream.type">video</property>
  <property name="meta.media.0.stream.frame_rate">30</property>
  <property name="meta.media.0.stream.sample_aspect_ratio">0</property>
  <property name="meta.media.0.codec.width">3840</property>
  <property name="meta.media.0.codec.height">2160</property>
  <property name="meta.media.0.codec.rotate">0</property>
  <property name="meta.media.0.codec.pix_fmt">yuv420p</property>
  <property name="meta.media.0.codec.sample_aspect_ratio">0</property>
  <property name="meta.media.0.codec.colorspace">709</property>
  <property name="meta.media.0.codec.name">hevc</property>
  <property name="meta.media.0.codec.long_name">HEVC (High Efficiency Video Coding)</property>
  <property name="meta.media.0.codec.bit_rate">30124176</property>
  <property name="meta.attr.0.stream.handler_name.markup">VideoHandler</property>
  <property name="meta.attr.0.stream.vendor_id.markup">[0][0][0][0]</property>
  <property name="meta.attr.0.stream.encoder.markup">Lavc61.19.101 libx265</property>
  <property name="meta.media.1.stream.type">audio</property>
  <property name="meta.media.1.codec.sample_fmt">fltp</property>
  <property name="meta.media.1.codec.sample_rate">48000</property>
  <property name="meta.media.1.codec.channels">2</property>
  <property name="meta.media.1.codec.layout">stereo</property>
  <property name="meta.media.1.codec.name">aac</property>
  <property name="meta.media.1.codec.long_name">AAC (Advanced Audio Coding)</property>
  <property name="meta.media.1.codec.bit_rate">130299</property>
  <property name="meta.attr.1.stream.handler_name.markup">SoundHandler</property>
  <property name="meta.attr.1.stream.vendor_id.markup">[0][0][0][0]</property>
  <property name="meta.attr.minor_version.markup">512</property>
  <property name="meta.attr.major_brand.markup">isom</property>
  <property name="meta.attr.compatible_brands.markup">isomiso2mp41</property>
  <property name="meta.attr.encoder.markup">Lavf62.0.102</property>
  <property name="seekable">1</property>
  <property name="meta.media.sample_aspect_num">1</property>
  <property name="meta.media.sample_aspect_den">1</property>
  <property name="audio_index">1</property>
  <property name="video_index">0</property>
  <property name="warp_speed">0.76</property>
  <property name="warp_resource">C:/dev/workspace/indy/dist/room/chase/content/upscale/dialog.mp4</property>
  <property name="mlt_service">timewarp</property>
  <property name="kdenlive:control_uuid">{3fd1eed3-c9f3-4e28-b226-f74d2b5144bb}</property>
  <property name="vstream">0</property>
  <property name="astream">0</property>
  <property name="set.test_audio">1</property>
  <property name="set.test_image">0</property>
  <property name="kdenlive:id">45</property>
  <property name="warp_pitch">0</property>
  <property name="meta.media.frame_rate_num">30</property>
  <property name="meta.media.frame_rate_den">1</property>
  <property name="meta.media.colorspace">709</property>
  <property name="meta.media.color_trc">2</property>
  <property name="meta.media.has_b_frames">2</property>
  <property name="meta.media.width">3840</property>
  <property name="meta.media.height">2160</property>
  <property name="meta.media.aspect_ratio">1</property>
  <property name="meta.media.color_range">mpeg</property>
  <property name="meta.media.top_field_first">0</property>
  <property name="meta.media.progressive">1</property>
 </producer>
 <chain id="chain54" out="00:00:08.292">
  <property name="length">200</property>
  <property name="eof">pause</property>
  <property name="resource">C:/dev/workspace/indy/dist/room/chase/content/upscale/dialog.mp4</property>
  <property name="mlt_service">avformat-novalidate</property>
  <property name="seekable">1</property>
  <property name="audio_index">1</property>
  <property name="video_index">0</property>
  <property name="vstream">0</property>
  <property name="astream">0</property>
  <property name="kdenlive:control_uuid">{3fd1eed3-c9f3-4e28-b226-f74d2b5144bb}</property>
  <property name="kdenlive:id">45</property>
  <property name="kdenlive:clip_type">2</property>
  <property name="kdenlive:file_size">31528630</property>
  <property name="kdenlive:file_hash">8cdd88a8d6684fb4ecf65ad8261dbcb8</property>
  <property name="kdenlive:folderid">4</property>
  <property name="meta.media.nb_streams">2</property>
  <property name="meta.media.0.stream.type">video</property>
  <property name="meta.media.0.stream.frame_rate">30</property>
  <property name="meta.media.0.stream.sample_aspect_ratio">0</property>
  <property name="meta.media.0.codec.width">3840</property>
  <property name="meta.media.0.codec.height">2160</property>
  <property name="meta.media.0.codec.rotate">0</property>
  <property name="meta.media.0.codec.pix_fmt">yuv420p</property>
  <property name="meta.media.0.codec.sample_aspect_ratio">0</property>
  <property name="meta.media.0.codec.colorspace">709</property>
  <property name="meta.media.0.codec.name">hevc</property>
  <property name="meta.media.0.codec.long_name">HEVC (High Efficiency Video Coding)</property>
  <property name="meta.media.0.codec.bit_rate">30124176</property>
  <property name="meta.attr.0.stream.handler_name.markup">VideoHandler</property>
  <property name="meta.attr.0.stream.vendor_id.markup">[0][0][0][0]</property>
  <property name="meta.attr.0.stream.encoder.markup">Lavc61.19.101 libx265</property>
  <property name="meta.media.1.stream.type">audio</property>
  <property name="meta.media.1.codec.sample_fmt">fltp</property>
  <property name="meta.media.1.codec.sample_rate">48000</property>
  <property name="meta.media.1.codec.channels">2</property>
  <property name="meta.media.1.codec.layout">stereo</property>
  <property name="meta.media.1.codec.name">aac</property>
  <property name="meta.media.1.codec.long_name">AAC (Advanced Audio Coding)</property>
  <property name="meta.media.1.codec.bit_rate">130299</property>
  <property name="meta.attr.1.stream.handler_name.markup">SoundHandler</property>
  <property name="meta.attr.1.stream.vendor_id.markup">[0][0][0][0]</property>
  <property name="meta.attr.minor_version.markup">512</property>
  <property name="meta.attr.major_brand.markup">isom</property>
  <property name="meta.attr.compatible_brands.markup">isomiso2mp41</property>
  <property name="meta.attr.encoder.markup">Lavf62.0.102</property>
  <property name="meta.media.sample_aspect_num">1</property>
  <property name="meta.media.sample_aspect_den">1</property>
  <property name="meta.media.frame_rate_num">30</property>
  <property name="meta.media.frame_rate_den">1</property>
  <property name="meta.media.colorspace">709</property>
  <property name="meta.media.color_trc">2</property>
  <property name="meta.media.has_b_frames">2</property>
  <property name="meta.media.width">3840</property>
  <property name="meta.media.height">2160</property>
  <property name="meta.media.aspect_ratio">1</property>
  <property name="meta.media.color_range">mpeg</property>
  <property name="xml">was here</property>
  <property name="mute_on_pause">0</property>
  <property name="meta.media.top_field_first">0</property>
  <property name="meta.media.progressive">1</property>
  <property name="set.test_audio">1</property>
  <property name="set.test_image">0</property>
 </chain>
 <chain id="chain55" out="00:00:03.958">
  <property name="length">96</property>
  <property name="eof">pause</property>
  <property name="resource">C:/dev/workspace/indy/dist/room/chase/content/upscale/dialog2.mp4</property>
  <property name="mlt_service">avformat-novalidate</property>
  <property name="seekable">1</property>
  <property name="audio_index">1</property>
  <property name="video_index">0</property>
  <property name="vstream">0</property>
  <property name="astream">0</property>
  <property name="kdenlive:control_uuid">{c69f94b3-4ec4-4316-88cb-86e027fca721}</property>
  <property name="kdenlive:id">50</property>
  <property name="kdenlive:clip_type">2</property>
  <property name="kdenlive:file_size">17482873</property>
  <property name="kdenlive:file_hash">35df3b5e6e41f17110d34eb312855ac3</property>
  <property name="kdenlive:folderid">4</property>
  <property name="meta.media.nb_streams">2</property>
  <property name="meta.media.0.stream.type">video</property>
  <property name="meta.media.0.stream.frame_rate">30</property>
  <property name="meta.media.0.stream.sample_aspect_ratio">0</property>
  <property name="meta.media.0.codec.width">3840</property>
  <property name="meta.media.0.codec.height">2160</property>
  <property name="meta.media.0.codec.rotate">0</property>
  <property name="meta.media.0.codec.pix_fmt">yuv420p</property>
  <property name="meta.media.0.codec.sample_aspect_ratio">0</property>
  <property name="meta.media.0.codec.colorspace">709</property>
  <property name="meta.media.0.codec.name">hevc</property>
  <property name="meta.media.0.codec.long_name">HEVC (High Efficiency Video Coding)</property>
  <property name="meta.media.0.codec.bit_rate">34818166</property>
  <property name="meta.attr.0.stream.handler_name.markup">VideoHandler</property>
  <property name="meta.attr.0.stream.vendor_id.markup">[0][0][0][0]</property>
  <property name="meta.attr.0.stream.encoder.markup">Lavc61.19.101 libx265</property>
  <property name="meta.media.1.stream.type">audio</property>
  <property name="meta.media.1.codec.sample_fmt">fltp</property>
  <property name="meta.media.1.codec.sample_rate">48000</property>
  <property name="meta.media.1.codec.channels">2</property>
  <property name="meta.media.1.codec.layout">stereo</property>
  <property name="meta.media.1.codec.name">aac</property>
  <property name="meta.media.1.codec.long_name">AAC (Advanced Audio Coding)</property>
  <property name="meta.media.1.codec.bit_rate">130157</property>
  <property name="meta.attr.1.stream.handler_name.markup">SoundHandler</property>
  <property name="meta.attr.1.stream.vendor_id.markup">[0][0][0][0]</property>
  <property name="meta.attr.minor_version.markup">512</property>
  <property name="meta.attr.major_brand.markup">isom</property>
  <property name="meta.attr.compatible_brands.markup">isomiso2mp41</property>
  <property name="meta.attr.encoder.markup">Lavf62.0.102</property>
  <property name="meta.media.sample_aspect_num">1</property>
  <property name="meta.media.sample_aspect_den">1</property>
  <property name="meta.media.frame_rate_num">30</property>
  <property name="meta.media.frame_rate_den">1</property>
  <property name="meta.media.colorspace">709</property>
  <property name="meta.media.color_trc">2</property>
  <property name="meta.media.has_b_frames">2</property>
  <property name="meta.media.width">3840</property>
  <property name="meta.media.height">2160</property>
  <property name="meta.media.aspect_ratio">1</property>
  <property name="meta.media.color_range">mpeg</property>
  <property name="xml">was here</property>
  <property name="mute_on_pause">0</property>
  <property name="meta.media.top_field_first">0</property>
  <property name="meta.media.progressive">1</property>
  <property name="set.test_audio">1</property>
  <property name="set.test_image">0</property>
 </chain>
 <chain id="chain56" out="00:00:05.958">
  <property name="length">144</property>
  <property name="eof">pause</property>
  <property name="resource">C:/dev/workspace/indy/dist/room/chase/content/upscale/dialog3.mp4</property>
  <property name="mlt_service">avformat-novalidate</property>
  <property name="seekable">1</property>
  <property name="audio_index">1</property>
  <property name="video_index">0</property>
  <property name="vstream">0</property>
  <property name="astream">0</property>
  <property name="kdenlive:control_uuid">{915d2845-d97f-47c8-8eee-2ceba1a9d8d0}</property>
  <property name="kdenlive:id">54</property>
  <property name="kdenlive:clip_type">2</property>
  <property name="kdenlive:file_size">20687559</property>
  <property name="kdenlive:file_hash">b9437859cb7b15356ec25fc569a7b6cd</property>
  <property name="kdenlive:folderid">4</property>
  <property name="meta.media.nb_streams">2</property>
  <property name="meta.media.0.stream.type">video</property>
  <property name="meta.media.0.stream.frame_rate">30</property>
  <property name="meta.media.0.stream.sample_aspect_ratio">0</property>
  <property name="meta.media.0.codec.width">3840</property>
  <property name="meta.media.0.codec.height">2160</property>
  <property name="meta.media.0.codec.rotate">0</property>
  <property name="meta.media.0.codec.pix_fmt">yuv420p</property>
  <property name="meta.media.0.codec.sample_aspect_ratio">0</property>
  <property name="meta.media.0.codec.colorspace">709</property>
  <property name="meta.media.0.codec.name">hevc</property>
  <property name="meta.media.0.codec.long_name">HEVC (High Efficiency Video Coding)</property>
  <property name="meta.media.0.codec.bit_rate">27439021</property>
  <property name="meta.attr.0.stream.handler_name.markup">VideoHandler</property>
  <property name="meta.attr.0.stream.vendor_id.markup">[0][0][0][0]</property>
  <property name="meta.attr.0.stream.encoder.markup">Lavc61.19.101 libx265</property>
  <property name="meta.media.1.stream.type">audio</property>
  <property name="meta.media.1.codec.sample_fmt">fltp</property>
  <property name="meta.media.1.codec.sample_rate">48000</property>
  <property name="meta.media.1.codec.channels">2</property>
  <property name="meta.media.1.codec.layout">stereo</property>
  <property name="meta.media.1.codec.name">aac</property>
  <property name="meta.media.1.codec.long_name">AAC (Advanced Audio Coding)</property>
  <property name="meta.media.1.codec.bit_rate">129650</property>
  <property name="meta.attr.1.stream.handler_name.markup">SoundHandler</property>
  <property name="meta.attr.1.stream.vendor_id.markup">[0][0][0][0]</property>
  <property name="meta.attr.minor_version.markup">512</property>
  <property name="meta.attr.major_brand.markup">isom</property>
  <property name="meta.attr.compatible_brands.markup">isomiso2mp41</property>
  <property name="meta.attr.encoder.markup">Lavf62.0.102</property>
  <property name="meta.media.sample_aspect_num">1</property>
  <property name="meta.media.sample_aspect_den">1</property>
  <property name="meta.media.frame_rate_num">30</property>
  <property name="meta.media.frame_rate_den">1</property>
  <property name="meta.media.colorspace">709</property>
  <property name="meta.media.color_trc">2</property>
  <property name="meta.media.has_b_frames">2</property>
  <property name="meta.media.width">3840</property>
  <property name="meta.media.height">2160</property>
  <property name="meta.media.aspect_ratio">1</property>
  <property name="meta.media.color_range">mpeg</property>
  <property name="xml">was here</property>
  <property name="mute_on_pause">0</property>
  <property name="meta.media.top_field_first">0</property>
  <property name="meta.media.progressive">1</property>
  <property name="set.test_audio">1</property>
  <property name="set.test_image">0</property>
 </chain>
 <chain id="chain57" out="00:00:04.958">
  <property name="length">120</property>
  <property name="eof">pause</property>
  <property name="resource">C:/dev/workspace/indy/dist/room/chase/content/upscale/dialog4.mp4</property>
  <property name="mlt_service">avformat-novalidate</property>
  <property name="seekable">1</property>
  <property name="audio_index">1</property>
  <property name="video_index">0</property>
  <property name="vstream">0</property>
  <property name="astream">0</property>
  <property name="kdenlive:control_uuid">{d20737bd-266e-4bcd-a8ca-612fe8a8d25f}</property>
  <property name="kdenlive:id">57</property>
  <property name="kdenlive:clip_type">2</property>
  <property name="kdenlive:file_size">18760353</property>
  <property name="kdenlive:file_hash">bfd939e69e72b1a73f7d785a9c47974d</property>
  <property name="kdenlive:folderid">4</property>
  <property name="meta.media.nb_streams">2</property>
  <property name="meta.media.0.stream.type">video</property>
  <property name="meta.media.0.stream.frame_rate">30</property>
  <property name="meta.media.0.stream.sample_aspect_ratio">0</property>
  <property name="meta.media.0.codec.width">3840</property>
  <property name="meta.media.0.codec.height">2160</property>
  <property name="meta.media.0.codec.rotate">0</property>
  <property name="meta.media.0.codec.pix_fmt">yuv420p</property>
  <property name="meta.media.0.codec.sample_aspect_ratio">0</property>
  <property name="meta.media.0.codec.colorspace">709</property>
  <property name="meta.media.0.codec.name">hevc</property>
  <property name="meta.media.0.codec.long_name">HEVC (High Efficiency Video Coding)</property>
  <property name="meta.media.0.codec.bit_rate">29869400</property>
  <property name="meta.attr.0.stream.handler_name.markup">VideoHandler</property>
  <property name="meta.attr.0.stream.vendor_id.markup">[0][0][0][0]</property>
  <property name="meta.attr.0.stream.encoder.markup">Lavc61.19.101 libx265</property>
  <property name="meta.media.1.stream.type">audio</property>
  <property name="meta.media.1.codec.sample_fmt">fltp</property>
  <property name="meta.media.1.codec.sample_rate">48000</property>
  <property name="meta.media.1.codec.channels">2</property>
  <property name="meta.media.1.codec.layout">stereo</property>
  <property name="meta.media.1.codec.name">aac</property>
  <property name="meta.media.1.codec.long_name">AAC (Advanced Audio Coding)</property>
  <property name="meta.media.1.codec.bit_rate">131618</property>
  <property name="meta.attr.1.stream.handler_name.markup">SoundHandler</property>
  <property name="meta.attr.1.stream.vendor_id.markup">[0][0][0][0]</property>
  <property name="meta.attr.minor_version.markup">512</property>
  <property name="meta.attr.major_brand.markup">isom</property>
  <property name="meta.attr.compatible_brands.markup">isomiso2mp41</property>
  <property name="meta.attr.encoder.markup">Lavf62.0.102</property>
  <property name="meta.media.sample_aspect_num">1</property>
  <property name="meta.media.sample_aspect_den">1</property>
  <property name="meta.media.frame_rate_num">30</property>
  <property name="meta.media.frame_rate_den">1</property>
  <property name="meta.media.colorspace">709</property>
  <property name="meta.media.color_trc">2</property>
  <property name="meta.media.has_b_frames">2</property>
  <property name="meta.media.width">3840</property>
  <property name="meta.media.height">2160</property>
  <property name="meta.media.aspect_ratio">1</property>
  <property name="meta.media.color_range">mpeg</property>
  <property name="xml">was here</property>
  <property name="mute_on_pause">0</property>
  <property name="meta.media.top_field_first">0</property>
  <property name="meta.media.progressive">1</property>
  <property name="set.test_audio">1</property>
  <property name="set.test_image">0</property>
 </chain>
 <chain id="chain58" out="00:00:04.958">
  <property name="length">120</property>
  <property name="eof">pause</property>
  <property name="resource">C:/dev/workspace/indy/dist/room/chase/content/upscale/dialog5.mp4</property>
  <property name="mlt_service">avformat-novalidate</property>
  <property name="seekable">1</property>
  <property name="audio_index">1</property>
  <property name="video_index">0</property>
  <property name="vstream">0</property>
  <property name="astream">0</property>
  <property name="kdenlive:control_uuid">{bf5712c3-b5fe-4d7a-8d95-a8193a4401bc}</property>
  <property name="kdenlive:id">61</property>
  <property name="kdenlive:clip_type">2</property>
  <property name="kdenlive:file_size">21874833</property>
  <property name="kdenlive:file_hash">6e00c650a645ffc18e0d0e0ea841b453</property>
  <property name="kdenlive:folderid">4</property>
  <property name="meta.media.nb_streams">2</property>
  <property name="meta.media.0.stream.type">video</property>
  <property name="meta.media.0.stream.frame_rate">30</property>
  <property name="meta.media.0.stream.sample_aspect_ratio">0</property>
  <property name="meta.media.0.codec.width">3840</property>
  <property name="meta.media.0.codec.height">2160</property>
  <property name="meta.media.0.codec.rotate">0</property>
  <property name="meta.media.0.codec.pix_fmt">yuv420p</property>
  <property name="meta.media.0.codec.sample_aspect_ratio">0</property>
  <property name="meta.media.0.codec.colorspace">709</property>
  <property name="meta.media.0.codec.name">hevc</property>
  <property name="meta.media.0.codec.long_name">HEVC (High Efficiency Video Coding)</property>
  <property name="meta.media.0.codec.bit_rate">34856308</property>
  <property name="meta.attr.0.stream.handler_name.markup">VideoHandler</property>
  <property name="meta.attr.0.stream.vendor_id.markup">[0][0][0][0]</property>
  <property name="meta.attr.0.stream.encoder.markup">Lavc61.19.101 libx265</property>
  <property name="meta.media.1.stream.type">audio</property>
  <property name="meta.media.1.codec.sample_fmt">fltp</property>
  <property name="meta.media.1.codec.sample_rate">48000</property>
  <property name="meta.media.1.codec.channels">2</property>
  <property name="meta.media.1.codec.layout">stereo</property>
  <property name="meta.media.1.codec.name">aac</property>
  <property name="meta.media.1.codec.long_name">AAC (Advanced Audio Coding)</property>
  <property name="meta.media.1.codec.bit_rate">127657</property>
  <property name="meta.attr.1.stream.handler_name.markup">SoundHandler</property>
  <property name="meta.attr.1.stream.vendor_id.markup">[0][0][0][0]</property>
  <property name="meta.attr.minor_version.markup">512</property>
  <property name="meta.attr.major_brand.markup">isom</property>
  <property name="meta.attr.compatible_brands.markup">isomiso2mp41</property>
  <property name="meta.attr.encoder.markup">Lavf62.0.102</property>
  <property name="meta.media.sample_aspect_num">1</property>
  <property name="meta.media.sample_aspect_den">1</property>
  <property name="meta.media.frame_rate_num">30</property>
  <property name="meta.media.frame_rate_den">1</property>
  <property name="meta.media.colorspace">709</property>
  <property name="meta.media.color_trc">2</property>
  <property name="meta.media.has_b_frames">2</property>
  <property name="meta.media.width">3840</property>
  <property name="meta.media.height">2160</property>
  <property name="meta.media.aspect_ratio">1</property>
  <property name="meta.media.color_range">mpeg</property>
  <property name="xml">was here</property>
  <property name="mute_on_pause">0</property>
  <property name="meta.media.top_field_first">0</property>
  <property name="meta.media.progressive">1</property>
  <property name="set.test_audio">1</property>
  <property name="set.test_image">0</property>
 </chain>
 <playlist id="playlist12">
  <entry in="00:00:00.000" out="00:00:22.792" producer="chain40">
   <property name="kdenlive:id">69</property>
   <property name="kdenlive:activeeffect">1</property>
   <filter id="filter97">
    <property name="version">0.3</property>
    <property name="mlt_service">frei0r.saturat0r</property>
    <property name="kdenlive_id">frei0r.saturat0r</property>
    <property name="Saturation">00:00:00.000=0.02</property>
    <property name="kdenlive:collapsed">0</property>
   </filter>
   <filter id="filter98">
    <property name="rotate_center">1</property>
    <property name="mlt_service">qtblend</property>
    <property name="kdenlive_id">qtblend</property>
    <property name="rect">00:00:00.000=1620 540 1920 1080 1.000000</property>
    <property name="rotation">00:00:00.000=0</property>
    <property name="compositing">0</property>
    <property name="distort">0</property>
    <property name="kdenlive:collapsed">0</property>
   </filter>
   <filter id="filter99" out="00:00:02.000">
    <property name="start">1</property>
    <property name="level">1</property>
    <property name="mlt_service">brightness</property>
    <property name="kdenlive_id">fade_from_black</property>
    <property name="alpha">00:00:00.000=0;00:00:02.000=1</property>
    <property name="kdenlive:collapsed">0</property>
   </filter>
  </entry>
  <entry in="00:00:21.042" out="00:00:36.792" producer="chain41">
   <property name="kdenlive:id">70</property>
   <property name="kdenlive:activeeffect">1</property>
   <filter id="filter100">
    <property name="version">0.3</property>
    <property name="mlt_service">frei0r.saturat0r</property>
    <property name="kdenlive_id">frei0r.saturat0r</property>
    <property name="Saturation">00:00:21.042=0.02</property>
    <property name="kdenlive:collapsed">0</property>
   </filter>
   <filter id="filter101">
    <property name="rotate_center">1</property>
    <property name="mlt_service">qtblend</property>
    <property name="kdenlive_id">qtblend</property>
    <property name="rect">00:00:21.042=1620 540 1920 1080 1.000000</property>
    <property name="rotation">00:00:21.042=0</property>
    <property name="compositing">0</property>
    <property name="distort">0</property>
    <property name="kdenlive:collapsed">0</property>
   </filter>
  </entry>
  <entry in="00:00:47.417" out="00:00:48.750" producer="producer9">
   <property name="kdenlive:id">70</property>
   <property name="kdenlive:activeeffect">1</property>
   <filter id="filter102">
    <property name="version">0.3</property>
    <property name="mlt_service">frei0r.saturat0r</property>
    <property name="kdenlive_id">frei0r.saturat0r</property>
    <property name="Saturation">00:00:47.417=0.02</property>
    <property name="kdenlive:collapsed">0</property>
   </filter>
   <filter id="filter103">
    <property name="rotate_center">1</property>
    <property name="mlt_service">qtblend</property>
    <property name="kdenlive_id">qtblend</property>
    <property name="rect">00:00:47.417=1620 540 1920 1080 1.000000</property>
    <property name="rotation">00:00:47.417=0</property>
    <property name="compositing">0</property>
    <property name="distort">0</property>
    <property name="kdenlive:collapsed">0</property>
   </filter>
   <filter id="filter104" in="00:00:48.333" out="00:00:48.750">
    <property name="start">1</property>
    <property name="level">1</property>
    <property name="mlt_service">brightness</property>
    <property name="kdenlive_id">fade_to_black</property>
    <property name="alpha">00:00:00.000=1;00:00:00.417=0</property>
    <property name="kdenlive:collapsed">0</property>
   </filter>
  </entry>
  <entry in="00:00:00.000" out="00:00:02.958" producer="producer10">
   <property name="kdenlive:id">5</property>
   <filter id="filter105" out="00:00:00.833">
    <property name="start">1</property>
    <property name="level">1</property>
    <property name="mlt_service">brightness</property>
    <property name="kdenlive_id">fade_from_black</property>
    <property name="alpha">00:00:00.000=0;00:00:00.833=1</property>
    <property name="kdenlive:collapsed">0</property>
   </filter>
   <filter id="filter106" in="00:00:02.750" out="00:00:02.958">
    <property name="start">1</property>
    <property name="level">1</property>
    <property name="mlt_service">brightness</property>
    <property name="kdenlive_id">fade_to_black</property>
    <property name="alpha">00:00:00.000=1;00:00:00.208=0</property>
    <property name="kdenlive:collapsed">0</property>
   </filter>
  </entry>
  <entry in="00:00:00.000" out="00:00:02.958" producer="producer11">
   <property name="kdenlive:id">6</property>
   <filter id="filter107" out="00:00:00.208">
    <property name="start">1</property>
    <property name="level">1</property>
    <property name="mlt_service">brightness</property>
    <property name="kdenlive_id">fade_from_black</property>
    <property name="alpha">00:00:00.000=0;00:00:00.208=1</property>
    <property name="kdenlive:collapsed">0</property>
   </filter>
   <filter id="filter108" in="00:00:02.542" out="00:00:02.958">
    <property name="start">1</property>
    <property name="level">1</property>
    <property name="mlt_service">brightness</property>
    <property name="kdenlive_id">fade_to_black</property>
    <property name="alpha">00:00:00.000=1;00:00:00.417=0</property>
   </filter>
  </entry>
  <entry in="00:00:00.000" out="00:00:01.958" producer="producer12">
   <property name="kdenlive:id">8</property>
   <property name="kdenlive:activeeffect">1</property>
   <filter id="filter109">
    <property name="rotate_center">1</property>
    <property name="mlt_service">qtblend</property>
    <property name="kdenlive_id">qtblend</property>
    <property name="rect">00:00:00.000=660 -20 3840 2200 1.000000</property>
    <property name="rotation">00:00:00.000=0</property>
    <property name="compositing">0</property>
    <property name="distort">1</property>
    <property name="kdenlive:collapsed">1</property>
   </filter>
   <filter id="filter110">
    <property name="version">0.3</property>
    <property name="mlt_service">frei0r.saturat0r</property>
    <property name="kdenlive_id">frei0r.saturat0r</property>
    <property name="Saturation">00:00:00.000=0.001;00:00:01.958=0.125</property>
    <property name="kdenlive:collapsed">1</property>
   </filter>
  </entry>
  <entry in="00:00:00.000" out="00:00:03.958" producer="chain42">
   <property name="kdenlive:id">9</property>
   <filter id="filter111">
    <property name="version">0.2</property>
    <property name="mlt_service">frei0r.coloradj_RGB</property>
    <property name="kdenlive_id">frei0r.coloradj_RGB</property>
    <property name="R">00:00:00.000=0.6</property>
    <property name="G">00:00:00.000=0.5</property>
    <property name="B">00:00:00.000=0.4</property>
    <property name="Action">0.5</property>
    <property name="Keep luma">1</property>
    <property name="Alpha controlled">0</property>
    <property name="Luma formula">1</property>
    <property name="kdenlive:collapsed">0</property>
   </filter>
  </entry>
  <entry in="00:00:00.000" out="00:00:03.958" producer="chain43">
   <property name="kdenlive:id">15</property>
   <filter id="filter112">
    <property name="version">0.3</property>
    <property name="mlt_service">frei0r.saturat0r</property>
    <property name="kdenlive_id">frei0r.saturat0r</property>
    <property name="Saturation">00:00:00.000=0.001;00:00:01.000=0.125</property>
    <property name="kdenlive:collapsed">0</property>
   </filter>
  </entry>
  <entry in="00:00:00.000" out="00:00:03.958" producer="chain44">
   <property name="kdenlive:id">12</property>
   <property name="kdenlive:activeeffect">1</property>
   <filter id="filter113">
    <property name="version">0.2</property>
    <property name="mlt_service">frei0r.coloradj_RGB</property>
    <property name="kdenlive_id">frei0r.coloradj_RGB</property>
    <property name="R">00:00:00.000=0.4</property>
    <property name="G">00:00:00.000=0.7</property>
    <property name="B">00:00:00.000=0.8</property>
    <property name="Action">0.5</property>
    <property name="Keep luma">1</property>
    <property name="Alpha controlled">0</property>
    <property name="Luma formula">1</property>
    <property name="kdenlive:collapsed">0</property>
   </filter>
   <filter id="filter114">
    <property name="version">0.3</property>
    <property name="mlt_service">frei0r.saturat0r</property>
    <property name="kdenlive_id">frei0r.saturat0r</property>
    <property name="Saturation">00:00:00.000=0.001;00:00:01.000=0.125</property>
    <property name="kdenlive:collapsed">0</property>
   </filter>
  </entry>
  <entry in="00:00:00.000" out="00:00:05.958" producer="chain45">
   <property name="kdenlive:id">76</property>
   <property name="kdenlive:activeeffect">3</property>
   <filter id="filter115">
    <property name="filter">frei0r.select0r</property>
    <property name="mlt_service">mask_start</property>
    <property name="kdenlive_id">mask_start-frei0r.select0r</property>
    <property name="filter.Color to select">0=0x0078b4ff</property>
    <property name="filter.Invert selection">0</property>
    <property name="filter.Selection subspace">0</property>
    <property name="filter.Subspace shape">0.5</property>
    <property name="filter.Edge mode">0.9</property>
    <property name="filter.Delta R / A / Hue">0=0.2</property>
    <property name="filter.Delta G / B / Chroma">0=0.2</property>
    <property name="filter.Delta B / I / I">0=0.2</property>
    <property name="filter.Slope">0=0.5</property>
    <property name="filter.Operation">0</property>
    <property name="kdenlive:collapsed">1</property>
   </filter>
   <filter id="filter116">
    <property name="version">0.2</property>
    <property name="mlt_service">frei0r.coloradj_RGB</property>
    <property name="kdenlive_id">frei0r.coloradj_RGB</property>
    <property name="R">00:00:00.000=0.5</property>
    <property name="G">00:00:00.000=0.5</property>
    <property name="B">00:00:00.000=0.4</property>
    <property name="Action">0.5</property>
    <property name="Keep luma">1</property>
    <property name="Alpha controlled">0</property>
    <property name="Luma formula">1</property>
    <property name="kdenlive:collapsed">1</property>
   </filter>
   <filter id="filter117">
    <property name="transition">frei0r.composition</property>
    <property name="mlt_image_format">rgba</property>
    <property name="mlt_service">mask_apply</property>
    <property name="kdenlive_id">mask_apply</property>
    <property name="kdenlive:collapsed">0</property>
   </filter>
   <filter id="filter118">
    <property name="version">0.3</property>
    <property name="mlt_service">frei0r.saturat0r</property>
    <property name="kdenlive_id">frei0r.saturat0r</property>
    <property name="Saturation">00:00:00.000=0.001;00:00:01.000=0.125</property>
    <property name="kdenlive:collapsed">0</property>
   </filter>
  </entry>
  <entry in="00:00:01.083" out="00:00:05.042" producer="chain46">
   <property name="kdenlive:id">32</property>
   <filter id="filter119">
    <property name="version">0.3</property>
    <property name="mlt_service">frei0r.saturat0r</property>
    <property name="kdenlive_id">frei0r.saturat0r</property>
    <property name="Saturation">00:00:01.083=0.001;00:00:02.083=0.125</property>
    <property name="kdenlive:collapsed">0</property>
   </filter>
  </entry>
  <entry in="00:00:00.000" out="00:00:03.958" producer="chain47">
   <property name="kdenlive:id">25</property>
   <property name="kdenlive:activeeffect">3</property>
   <filter id="filter120">
    <property name="filter">frei0r.select0r</property>
    <property name="mlt_service">mask_start</property>
    <property name="kdenlive_id">mask_start-frei0r.select0r</property>
    <property name="filter.Color to select">0=0x0078b4ff</property>
    <property name="filter.Invert selection">0</property>
    <property name="filter.Selection subspace">0</property>
    <property name="filter.Subspace shape">0.5</property>
    <property name="filter.Edge mode">0.9</property>
    <property name="filter.Delta R / A / Hue">0=0.2</property>
    <property name="filter.Delta G / B / Chroma">0=0.2</property>
    <property name="filter.Delta B / I / I">0=0.2</property>
    <property name="filter.Slope">0=0.5</property>
    <property name="filter.Operation">0</property>
    <property name="disable">1</property>
    <property name="kdenlive:collapsed">1</property>
   </filter>
   <filter id="filter121">
    <property name="version">0.2</property>
    <property name="mlt_service">frei0r.coloradj_RGB</property>
    <property name="kdenlive_id">frei0r.coloradj_RGB</property>
    <property name="R">0=0.5</property>
    <property name="G">0=0.5</property>
    <property name="B">0=0.4</property>
    <property name="Action">0.5</property>
    <property name="Keep luma">1</property>
    <property name="Alpha controlled">0</property>
    <property name="Luma formula">1</property>
    <property name="disable">1</property>
    <property name="kdenlive:collapsed">1</property>
   </filter>
   <filter id="filter122">
    <property name="transition">frei0r.composition</property>
    <property name="mlt_image_format">rgba</property>
    <property name="mlt_service">mask_apply</property>
    <property name="kdenlive_id">mask_apply</property>
    <property name="disable">1</property>
    <property name="kdenlive:collapsed">0</property>
   </filter>
   <filter id="filter123">
    <property name="version">0.3</property>
    <property name="mlt_service">frei0r.saturat0r</property>
    <property name="kdenlive_id">frei0r.saturat0r</property>
    <property name="Saturation">00:00:00.000=0.001;00:00:01.000=0.125</property>
    <property name="kdenlive:collapsed">0</property>
   </filter>
  </entry>
  <entry in="00:00:00.000" out="00:00:03.958" producer="chain48">
   <property name="kdenlive:id">26</property>
   <filter id="filter124">
    <property name="filter">frei0r.select0r</property>
    <property name="mlt_service">mask_start</property>
    <property name="kdenlive_id">mask_start-frei0r.select0r</property>
    <property name="filter.Color to select">0=0x0078b4ff</property>
    <property name="filter.Invert selection">0</property>
    <property name="filter.Selection subspace">0</property>
    <property name="filter.Subspace shape">0.5</property>
    <property name="filter.Edge mode">0.9</property>
    <property name="filter.Delta R / A / Hue">0=0.2</property>
    <property name="filter.Delta G / B / Chroma">0=0.2</property>
    <property name="filter.Delta B / I / I">0=0.2</property>
    <property name="filter.Slope">0=0.5</property>
    <property name="filter.Operation">0</property>
    <property name="disable">1</property>
    <property name="kdenlive:collapsed">1</property>
   </filter>
   <filter id="filter125">
    <property name="version">0.2</property>
    <property name="mlt_service">frei0r.coloradj_RGB</property>
    <property name="kdenlive_id">frei0r.coloradj_RGB</property>
    <property name="R">0=0.5</property>
    <property name="G">0=0.5</property>
    <property name="B">0=0.4</property>
    <property name="Action">0.5</property>
    <property name="Keep luma">1</property>
    <property name="Alpha controlled">0</property>
    <property name="Luma formula">1</property>
    <property name="disable">1</property>
    <property name="kdenlive:collapsed">1</property>
   </filter>
   <filter id="filter126">
    <property name="transition">frei0r.composition</property>
    <property name="mlt_image_format">rgba</property>
    <property name="mlt_service">mask_apply</property>
    <property name="kdenlive_id">mask_apply</property>
    <property name="disable">1</property>
    <property name="kdenlive:collapsed">0</property>
   </filter>
   <filter id="filter127">
    <property name="version">0.3</property>
    <property name="mlt_service">frei0r.saturat0r</property>
    <property name="kdenlive_id">frei0r.saturat0r</property>
    <property name="Saturation">00:00:00.000=0.001;00:00:01.000=0.125</property>
    <property name="kdenlive:collapsed">0</property>
   </filter>
  </entry>
  <entry in="00:00:00.000" out="00:00:03.958" producer="chain49">
   <property name="kdenlive:id">24</property>
   <property name="kdenlive:activeeffect">3</property>
   <filter id="filter128">
    <property name="filter">frei0r.select0r</property>
    <property name="mlt_service">mask_start</property>
    <property name="kdenlive_id">mask_start-frei0r.select0r</property>
    <property name="filter.Color to select">0=0x0078b4ff</property>
    <property name="filter.Invert selection">0</property>
    <property name="filter.Selection subspace">0</property>
    <property name="filter.Subspace shape">0.5</property>
    <property name="filter.Edge mode">0.9</property>
    <property name="filter.Delta R / A / Hue">0=0.2</property>
    <property name="filter.Delta G / B / Chroma">0=0.2</property>
    <property name="filter.Delta B / I / I">0=0.2</property>
    <property name="filter.Slope">0=0.5</property>
    <property name="filter.Operation">0</property>
    <property name="kdenlive:collapsed">1</property>
   </filter>
   <filter id="filter129">
    <property name="version">0.2</property>
    <property name="mlt_service">frei0r.coloradj_RGB</property>
    <property name="kdenlive_id">frei0r.coloradj_RGB</property>
    <property name="R">00:00:00.000=0.5</property>
    <property name="G">00:00:00.000=0.5</property>
    <property name="B">00:00:00.000=0.4</property>
    <property name="Action">0.5</property>
    <property name="Keep luma">1</property>
    <property name="Alpha controlled">0</property>
    <property name="Luma formula">1</property>
    <property name="kdenlive:collapsed">1</property>
   </filter>
   <filter id="filter130">
    <property name="transition">frei0r.composition</property>
    <property name="mlt_image_format">rgba</property>
    <property name="mlt_service">mask_apply</property>
    <property name="kdenlive_id">mask_apply</property>
    <property name="kdenlive:collapsed">0</property>
   </filter>
   <filter id="filter131">
    <property name="version">0.3</property>
    <property name="mlt_service">frei0r.saturat0r</property>
    <property name="kdenlive_id">frei0r.saturat0r</property>
    <property name="Saturation">00:00:00.000=0.001;00:00:01.000=0.125</property>
    <property name="kdenlive:collapsed">0</property>
   </filter>
  </entry>
  <entry in="00:00:00.000" out="00:00:03.958" producer="chain50">
   <property name="kdenlive:id">28</property>
   <property name="kdenlive:activeeffect">3</property>
   <filter id="filter132">
    <property name="filter">frei0r.select0r</property>
    <property name="mlt_service">mask_start</property>
    <property name="kdenlive_id">mask_start-frei0r.select0r</property>
    <property name="filter.Color to select">0=0x0078b4ff</property>
    <property name="filter.Invert selection">0</property>
    <property name="filter.Selection subspace">0</property>
    <property name="filter.Subspace shape">0.5</property>
    <property name="filter.Edge mode">0.9</property>
    <property name="filter.Delta R / A / Hue">0=0.2</property>
    <property name="filter.Delta G / B / Chroma">0=0.2</property>
    <property name="filter.Delta B / I / I">0=0.2</property>
    <property name="filter.Slope">0=0.5</property>
    <property name="filter.Operation">0</property>
    <property name="kdenlive:collapsed">1</property>
   </filter>
   <filter id="filter133">
    <property name="version">0.2</property>
    <property name="mlt_service">frei0r.coloradj_RGB</property>
    <property name="kdenlive_id">frei0r.coloradj_RGB</property>
    <property name="R">00:00:00.000=0.5</property>
    <property name="G">00:00:00.000=0.5</property>
    <property name="B">00:00:00.000=0.4</property>
    <property name="Action">0.5</property>
    <property name="Keep luma">1</property>
    <property name="Alpha controlled">0</property>
    <property name="Luma formula">1</property>
    <property name="kdenlive:collapsed">1</property>
   </filter>
   <filter id="filter134">
    <property name="transition">frei0r.composition</property>
    <property name="mlt_image_format">rgba</property>
    <property name="mlt_service">mask_apply</property>
    <property name="kdenlive_id">mask_apply</property>
    <property name="kdenlive:collapsed">0</property>
   </filter>
   <filter id="filter135">
    <property name="version">0.3</property>
    <property name="mlt_service">frei0r.saturat0r</property>
    <property name="kdenlive_id">frei0r.saturat0r</property>
    <property name="Saturation">00:00:00.000=0.001;00:00:01.000=0.125</property>
    <property name="kdenlive:collapsed">0</property>
   </filter>
  </entry>
  <entry in="00:00:00.000" out="00:00:03.958" producer="chain51">
   <property name="kdenlive:id">30</property>
   <property name="kdenlive:activeeffect">3</property>
   <filter id="filter136">
    <property name="version">0.2</property>
    <property name="mlt_service">frei0r.coloradj_RGB</property>
    <property name="kdenlive_id">frei0r.coloradj_RGB</property>
    <property name="R">00:00:00.000=0.4</property>
    <property name="G">00:00:00.000=0.6</property>
    <property name="B">00:00:00.000=0.6</property>
    <property name="Action">0.5</property>
    <property name="Keep luma">1</property>
    <property name="Alpha controlled">0</property>
    <property name="Luma formula">1</property>
    <property name="kdenlive:collapsed">1</property>
   </filter>
   <filter id="filter137">
    <property name="version">0.2</property>
    <property name="mlt_service">frei0r.contrast0r</property>
    <property name="kdenlive_id">frei0r.contrast0r</property>
    <property name="Contrast">0=0.48</property>
    <property name="disable">1</property>
    <property name="kdenlive:collapsed">1</property>
   </filter>
   <filter id="filter138">
    <property name="rotate_center">1</property>
    <property name="mlt_service">qtblend</property>
    <property name="kdenlive_id">qtblend</property>
    <property name="rect">00:00:00.000=545 -64 4070 2289 1.000000</property>
    <property name="rotation">00:00:00.000=0</property>
    <property name="compositing">0</property>
    <property name="distort">0</property>
    <property name="kdenlive:collapsed">1</property>
   </filter>
   <filter id="filter139">
    <property name="version">0.3</property>
    <property name="mlt_service">frei0r.saturat0r</property>
    <property name="kdenlive_id">frei0r.saturat0r</property>
    <property name="Saturation">00:00:00.000=0.001;00:00:01.000=0.125</property>
    <property name="kdenlive:collapsed">0</property>
   </filter>
  </entry>
  <entry in="00:00:00.000" out="00:00:03.958" producer="producer13">
   <property name="kdenlive:id">34</property>
   <filter id="filter140">
    <property name="version">0.2</property>
    <property name="mlt_service">frei0r.contrast0r</property>
    <property name="kdenlive_id">frei0r.contrast0r</property>
    <property name="Contrast">0=0.52</property>
    <property name="disable">1</property>
   </filter>
   <filter id="filter141">
    <property name="version">0.3</property>
    <property name="mlt_service">frei0r.saturat0r</property>
    <property name="kdenlive_id">frei0r.saturat0r</property>
    <property name="Saturation">00:00:00.000=0.001;00:00:01.000=0.125</property>
   </filter>
  </entry>
  <entry in="00:00:00.000" out="00:00:03.958" producer="chain52">
   <property name="kdenlive:id">36</property>
   <filter id="filter142">
    <property name="version">0.3</property>
    <property name="mlt_service">frei0r.saturat0r</property>
    <property name="kdenlive_id">frei0r.saturat0r</property>
    <property name="Saturation">00:00:00.000=0.001;00:00:01.000=0.125</property>
    <property name="kdenlive:collapsed">0</property>
   </filter>
  </entry>
  <entry in="00:00:00.000" out="00:00:03.958" producer="chain53">
   <property name="kdenlive:id">65</property>
   <filter id="filter143">
    <property name="rotate_center">1</property>
    <property name="mlt_service">qtblend</property>
    <property name="kdenlive_id">qtblend</property>
    <property name="rect">00:00:00.000=545 -64 4070 2289 1.000000</property>
    <property name="rotation">00:00:00.000=0</property>
    <property name="compositing">0</property>
    <property name="distort">0</property>
    <property name="kdenlive:collapsed">0</property>
   </filter>
   <filter id="filter144">
    <property name="version">0.3</property>
    <property name="mlt_service">frei0r.saturat0r</property>
    <property name="kdenlive_id">frei0r.saturat0r</property>
    <property name="Saturation">00:00:00.000=0.001;00:00:01.000=0.125</property>
    <property name="kdenlive:collapsed">0</property>
   </filter>
  </entry>
  <entry in="00:00:00.000" out="00:00:03.958" producer="producer14">
   <property name="kdenlive:id">38</property>
   <filter id="filter145">
    <property name="version">0.3</property>
    <property name="mlt_service">frei0r.saturat0r</property>
    <property name="kdenlive_id">frei0r.saturat0r</property>
    <property name="Saturation">00:00:00.000=0.001;00:00:01.000=0.125</property>
    <property name="kdenlive:collapsed">0</property>
   </filter>
  </entry>
  <entry in="00:00:00.000" out="00:00:03.958" producer="producer15">
   <property name="kdenlive:id">41</property>
   <filter id="filter146">
    <property name="version">0.3</property>
    <property name="mlt_service">frei0r.saturat0r</property>
    <property name="kdenlive_id">frei0r.saturat0r</property>
    <property name="Saturation">00:00:00.000=0.001;00:00:01.000=0.125</property>
    <property name="kdenlive:collapsed">0</property>
   </filter>
  </entry>
  <entry in="00:00:00.000" out="00:00:01.000" producer="producer16">
   <property name="kdenlive:id">45</property>
   <filter id="filter147">
    <property name="version">0.3</property>
    <property name="mlt_service">frei0r.saturat0r</property>
    <property name="kdenlive_id">frei0r.saturat0r</property>
    <property name="Saturation">00:00:00.000=0.001;00:00:01.000=0.125</property>
    <property name="kdenlive:collapsed">0</property>
   </filter>
  </entry>
  <entry in="00:00:00.792" out="00:00:07.708" producer="chain54">
   <property name="kdenlive:id">45</property>
  </entry>
  <entry in="00:00:00.000" out="00:00:03.958" producer="chain55">
   <property name="kdenlive:id">50</property>
   <filter id="filter148">
    <property name="version">0.3</property>
    <property name="mlt_service">frei0r.saturat0r</property>
    <property name="kdenlive_id">frei0r.saturat0r</property>
    <property name="Saturation">00:00:00.000=0.001;00:00:01.000=0.125</property>
    <property name="kdenlive:collapsed">0</property>
   </filter>
  </entry>
  <entry in="00:00:00.167" out="00:00:05.125" producer="chain56">
   <property name="kdenlive:id">54</property>
   <filter id="filter149">
    <property name="rotate_center">1</property>
    <property name="mlt_service">qtblend</property>
    <property name="kdenlive_id">qtblend</property>
    <property name="compositing">0</property>
    <property name="distort">0</property>
    <property name="rect">00:00:00.167=-154 -129 5469 2289 1.000000</property>
    <property name="rotation">00:00:00.167=0</property>
    <property name="kdenlive:collapsed">0</property>
   </filter>
   <filter id="filter150">
    <property name="version">0.3</property>
    <property name="mlt_service">frei0r.saturat0r</property>
    <property name="kdenlive_id">frei0r.saturat0r</property>
    <property name="Saturation">00:00:00.167=0.001;00:00:01.167=0.125</property>
   </filter>
  </entry>
  <entry in="00:00:00.000" out="00:00:03.958" producer="chain57">
   <property name="kdenlive:id">57</property>
   <filter id="filter151">
    <property name="version">0.3</property>
    <property name="mlt_service">frei0r.saturat0r</property>
    <property name="kdenlive_id">frei0r.saturat0r</property>
    <property name="Saturation">00:00:00.000=0.001;00:00:01.000=0.125</property>
    <property name="kdenlive:collapsed">0</property>
   </filter>
  </entry>
  <entry in="00:00:00.208" out="00:00:04.167" producer="chain58">
   <property name="kdenlive:id">61</property>
   <filter id="filter152">
    <property name="rotate_center">1</property>
    <property name="mlt_service">qtblend</property>
    <property name="kdenlive_id">qtblend</property>
    <property name="compositing">0</property>
    <property name="distort">0</property>
    <property name="rect">00:00:00.208=0 -172 5572 2332 1.000000</property>
    <property name="rotation">00:00:00.208=0</property>
    <property name="kdenlive:collapsed">0</property>
   </filter>
   <filter id="filter153">
    <property name="version">0.3</property>
    <property name="mlt_service">frei0r.saturat0r</property>
    <property name="kdenlive_id">frei0r.saturat0r</property>
    <property name="Saturation">00:00:00.208=0.001;00:00:01.208=0.125</property>
   </filter>
  </entry>
  <blank length="00:00:02.583"/>
  <entry in="00:00:00.000" out="00:00:02.458" producer="producer17">
   <property name="kdenlive:id">66</property>
   <filter id="filter154" out="00:00:00.208">
    <property name="start">1</property>
    <property name="level">1</property>
    <property name="mlt_service">brightness</property>
    <property name="kdenlive_id">fade_from_black</property>
    <property name="alpha">00:00:00.000=0;00:00:00.208=1</property>
    <property name="kdenlive:collapsed">0</property>
   </filter>
   <filter id="filter155" in="00:00:02.250" out="00:00:02.458">
    <property name="start">1</property>
    <property name="level">1</property>
    <property name="mlt_service">brightness</property>
    <property name="kdenlive_id">fade_to_black</property>
    <property name="alpha">00:00:00.000=1;00:00:00.208=0</property>
    <property name="kdenlive:collapsed">0</property>
   </filter>
  </entry>
  <entry in="00:00:00.000" out="00:00:03.875" producer="producer18">
   <property name="kdenlive:id">68</property>
   <filter id="filter156" out="00:00:00.208">
    <property name="start">1</property>
    <property name="level">1</property>
    <property name="mlt_service">brightness</property>
    <property name="kdenlive_id">fade_from_black</property>
    <property name="alpha">00:00:00.000=0;00:00:00.208=1</property>
    <property name="kdenlive:collapsed">0</property>
   </filter>
  </entry>
 </playlist>
 <playlist id="playlist13"/>
 <tractor id="tractor6" in="00:00:00.000" out="00:02:23.958">
  <property name="kdenlive:trackheight">67</property>
  <property name="kdenlive:timeline_active">1</property>
  <property name="kdenlive:collapsed">0</property>
  <property name="kdenlive:thumbs_format"/>
  <property name="kdenlive:audio_rec"/>
  <track hide="audio" producer="playlist12"/>
  <track hide="audio" producer="playlist13"/>
 </tractor>
 <chain id="chain124" out="00:00:10.250">
  <property name="length">247</property>
  <property name="eof">pause</property>
  <property name="resource">C:/dev/workspace/indy/dist/room/attic/content/upscale/dialog3.mp4</property>
  <property name="mlt_service">avformat-novalidate</property>
  <property name="seekable">1</property>
  <property name="audio_index">1</property>
  <property name="video_index">0</property>
  <property name="vstream">0</property>
  <property name="astream">0</property>
  <property name="kdenlive:folderid">4</property>
  <property name="kdenlive:id">97</property>
  <property name="kdenlive:control_uuid">{72acb839-8189-441b-a2e8-69d54989afad}</property>
  <property name="mute_on_pause">0</property>
  <property name="kdenlive:clip_type">0</property>
  <property name="kdenlive:file_size">24589164</property>
  <property name="kdenlive:file_hash">96dae550e74932b442d1f81413161ecd</property>
  <property name="meta.media.nb_streams">2</property>
  <property name="meta.media.0.stream.type">video</property>
  <property name="meta.media.0.stream.frame_rate">24</property>
  <property name="meta.media.0.stream.sample_aspect_ratio">0</property>
  <property name="meta.media.0.codec.width">3840</property>
  <property name="meta.media.0.codec.height">2160</property>
  <property name="meta.media.0.codec.rotate">0</property>
  <property name="meta.media.0.codec.pix_fmt">yuv420p</property>
  <property name="meta.media.0.codec.sample_aspect_ratio">0</property>
  <property name="meta.media.0.codec.colorspace">709</property>
  <property name="meta.media.0.codec.name">hevc</property>
  <property name="meta.media.0.codec.long_name">HEVC (High Efficiency Video Coding)</property>
  <property name="meta.media.0.codec.bit_rate">19001611</property>
  <property name="meta.attr.0.stream.handler_name.markup">VideoHandler</property>
  <property name="meta.attr.0.stream.vendor_id.markup">[0][0][0][0]</property>
  <property name="meta.attr.0.stream.encoder.markup">Lavc61.19.101 libx265</property>
  <property name="meta.media.1.stream.type">audio</property>
  <property name="meta.media.1.codec.sample_fmt">fltp</property>
  <property name="meta.media.1.codec.sample_rate">48000</property>
  <property name="meta.media.1.codec.channels">2</property>
  <property name="meta.media.1.codec.layout">stereo</property>
  <property name="meta.media.1.codec.name">aac</property>
  <property name="meta.media.1.codec.long_name">AAC (Advanced Audio Coding)</property>
  <property name="meta.media.1.codec.bit_rate">103356</property>
  <property name="meta.attr.1.stream.handler_name.markup">SoundHandler</property>
  <property name="meta.attr.1.stream.vendor_id.markup">[0][0][0][0]</property>
  <property name="meta.attr.minor_version.markup">512</property>
  <property name="meta.attr.major_brand.markup">isom</property>
  <property name="meta.attr.compatible_brands.markup">isomiso2mp41</property>
  <property name="meta.attr.encoder.markup">Lavf61.9.100</property>
  <property name="meta.media.sample_aspect_num">1</property>
  <property name="meta.media.sample_aspect_den">1</property>
  <property name="meta.media.frame_rate_num">24</property>
  <property name="meta.media.frame_rate_den">1</property>
  <property name="meta.media.colorspace">709</property>
  <property name="meta.media.color_trc">2</property>
  <property name="meta.media.has_b_frames">2</property>
  <property name="meta.media.width">3840</property>
  <property name="meta.media.height">2160</property>
  <property name="meta.media.aspect_ratio">1</property>
  <property name="meta.media.color_range">mpeg</property>
  <property name="xml">was here</property>
  <property name="meta.media.top_field_first">0</property>
  <property name="meta.media.progressive">1</property>
  <property name="set.test_audio">1</property>
  <property name="set.test_image">0</property>
 </chain>
 <playlist id="playlist14">
  <blank length="00:00:46.000"/>
  <entry in="00:00:00.000" out="00:00:00.375" producer="producer19">
   <property name="kdenlive:id">72</property>
   <filter id="filter157" in="00:00:-0.042" out="00:00:00.375">
    <property name="start">1</property>
    <property name="level">1</property>
    <property name="mlt_service">brightness</property>
    <property name="kdenlive_id">fade_to_black</property>
    <property name="alpha">00:00:00.000=1;00:00:00.417=0</property>
    <property name="kdenlive:collapsed">0</property>
   </filter>
  </entry>
  <blank length="00:00:18.583"/>
  <entry in="00:00:05.000" out="00:00:05.958" producer="chain124">
   <property name="kdenlive:id">97</property>
  </entry>
  <blank length="00:01:09.000"/>
  <entry in="00:00:00.000" out="00:00:02.542" producer="producer10">
   <property name="kdenlive:id">5</property>
   <filter id="filter158" in="00:00:02.333" out="00:00:02.542">
    <property name="start">1</property>
    <property name="level">1</property>
    <property name="mlt_service">brightness</property>
    <property name="kdenlive_id">fade_to_black</property>
    <property name="alpha">00:00:00.000=1;00:00:00.208=0</property>
    <property name="kdenlive:collapsed">0</property>
   </filter>
  </entry>
 </playlist>
 <playlist id="playlist15"/>
 <tractor id="tractor7" in="00:00:00.000" out="00:02:17.542">
  <property name="kdenlive:trackheight">67</property>
  <property name="kdenlive:timeline_active">1</property>
  <property name="kdenlive:collapsed">0</property>
  <property name="kdenlive:thumbs_format"/>
  <property name="kdenlive:audio_rec"/>
  <track hide="audio" producer="playlist14"/>
  <track hide="audio" producer="playlist15"/>
 </tractor>
 <playlist id="playlist16"/>
 <playlist id="playlist17"/>
 <tractor id="tractor8" in="00:00:00.000">
  <property name="kdenlive:trackheight">67</property>
  <property name="kdenlive:timeline_active">1</property>
  <property name="kdenlive:collapsed">0</property>
  <property name="kdenlive:thumbs_format"/>
  <property name="kdenlive:audio_rec"/>
  <track hide="audio" producer="playlist16"/>
  <track hide="audio" producer="playlist17"/>
 </tractor>
 <tractor id="tractor9" in="00:00:00.000" out="00:02:23.958">
  <property name="kdenlive:duration">00:02:24.000</property>
  <property name="kdenlive:maxduration">3456</property>
  <property name="kdenlive:clipname">Sequence 1</property>
  <property name="kdenlive:description"/>
  <property name="kdenlive:uuid">{d922d5bf-6097-4f61-81e0-d1ff096ddac8}</property>
  <property name="kdenlive:producer_type">17</property>
  <property name="kdenlive:control_uuid">{f1dec66f-838a-494d-bd20-496a90555b49}</property>
  <property name="kdenlive:id">3</property>
  <property name="kdenlive:clip_type">0</property>
  <property name="kdenlive:file_hash">e4b0b74dcc8b9a2b37418223b59be8a4</property>
  <property name="kdenlive:folderid">2</property>
  <property name="kdenlive:sequenceproperties.activeTrack">5</property>
  <property name="kdenlive:sequenceproperties.audioTarget">1</property>
  <property name="kdenlive:sequenceproperties.disablepreview">0</property>
  <property name="kdenlive:sequenceproperties.documentuuid">{d922d5bf-6097-4f61-81e0-d1ff096ddac8}</property>
  <property name="kdenlive:sequenceproperties.hasAudio">1</property>
  <property name="kdenlive:sequenceproperties.hasVideo">1</property>
  <property name="kdenlive:sequenceproperties.position">1157</property>
  <property name="kdenlive:sequenceproperties.scrollPos">6349</property>
  <property name="kdenlive:sequenceproperties.tracks">4</property>
  <property name="kdenlive:sequenceproperties.tracksCount">9</property>
  <property name="kdenlive:sequenceproperties.verticalzoom">1</property>
  <property name="kdenlive:sequenceproperties.videoTarget">2</property>
  <property name="kdenlive:sequenceproperties.zonein">1010</property>
  <property name="kdenlive:sequenceproperties.zoneout">1344</property>
  <property name="kdenlive:sequenceproperties.zoom">3</property>
  <property name="kdenlive:sequenceproperties.groups">[
]
</property>
  <property name="kdenlive:sequenceproperties.guides">[
]
</property>
  <track producer="producer0"/>
  <track producer="tractor0"/>
  <track producer="tractor1"/>
  <track producer="tractor2"/>
  <track producer="tractor3"/>
  <track producer="tractor4"/>
  <track producer="tractor5"/>
  <track producer="tractor6"/>
  <track producer="tractor7"/>
  <track producer="tractor8"/>
  <transition id="transition0">
   <property name="a_track">0</property>
   <property name="b_track">1</property>
   <property name="mlt_service">mix</property>
   <property name="kdenlive_id">mix</property>
   <property name="internal_added">237</property>
   <property name="always_active">1</property>
   <property name="accepts_blanks">1</property>
   <property name="sum">1</property>
  </transition>
  <transition id="transition1">
   <property name="a_track">0</property>
   <property name="b_track">2</property>
   <property name="mlt_service">mix</property>
   <property name="kdenlive_id">mix</property>
   <property name="internal_added">237</property>
   <property name="always_active">1</property>
   <property name="accepts_blanks">1</property>
   <property name="sum">1</property>
  </transition>
  <transition id="transition2">
   <property name="a_track">0</property>
   <property name="b_track">3</property>
   <property name="mlt_service">mix</property>
   <property name="kdenlive_id">mix</property>
   <property name="internal_added">237</property>
   <property name="always_active">1</property>
   <property name="accepts_blanks">1</property>
   <property name="sum">1</property>
  </transition>
  <transition id="transition3">
   <property name="a_track">0</property>
   <property name="b_track">4</property>
   <property name="mlt_service">mix</property>
   <property name="kdenlive_id">mix</property>
   <property name="internal_added">237</property>
   <property name="always_active">1</property>
   <property name="accepts_blanks">1</property>
   <property name="sum">1</property>
  </transition>
  <transition id="transition4">
   <property name="a_track">0</property>
   <property name="b_track">5</property>
   <property name="mlt_service">mix</property>
   <property name="kdenlive_id">mix</property>
   <property name="internal_added">237</property>
   <property name="always_active">1</property>
   <property name="accepts_blanks">1</property>
   <property name="sum">1</property>
  </transition>
  <transition id="transition5">
   <property name="a_track">0</property>
   <property name="b_track">6</property>
   <property name="compositing">0</property>
   <property name="distort">0</property>
   <property name="rotate_center">0</property>
   <property name="mlt_service">qtblend</property>
   <property name="kdenlive_id">qtblend</property>
   <property name="internal_added">237</property>
   <property name="always_active">1</property>
  </transition>
  <transition id="transition6">
   <property name="a_track">0</property>
   <property name="b_track">7</property>
   <property name="compositing">0</property>
   <property name="distort">0</property>
   <property name="rotate_center">0</property>
   <property name="mlt_service">qtblend</property>
   <property name="kdenlive_id">qtblend</property>
   <property name="internal_added">237</property>
   <property name="always_active">1</property>
  </transition>
  <transition id="transition7">
   <property name="a_track">0</property>
   <property name="b_track">8</property>
   <property name="compositing">0</property>
   <property name="distort">0</property>
   <property name="rotate_center">0</property>
   <property name="mlt_service">qtblend</property>
   <property name="kdenlive_id">qtblend</property>
   <property name="internal_added">237</property>
   <property name="always_active">1</property>
  </transition>
  <transition id="transition8">
   <property name="a_track">0</property>
   <property name="b_track">9</property>
   <property name="compositing">0</property>
   <property name="distort">0</property>
   <property name="rotate_center">0</property>
   <property name="mlt_service">qtblend</property>
   <property name="kdenlive_id">qtblend</property>
   <property name="internal_added">237</property>
   <property name="always_active">1</property>
  </transition>
  <filter id="filter159">
   <property name="window">75</property>
   <property name="max_gain">20dB</property>
   <property name="mlt_service">volume</property>
   <property name="internal_added">237</property>
   <property name="disable">1</property>
  </filter>
  <filter id="filter160">
   <property name="channel">-1</property>
   <property name="mlt_service">panner</property>
   <property name="internal_added">237</property>
   <property name="start">0.5</property>
   <property name="disable">1</property>
  </filter>
 </tractor>
 <playlist id="main_bin">
  <property name="kdenlive:folder.-1.2">Sequences</property>
  <property name="kdenlive:folder.-1.4">Pasted clips</property>
  <property name="kdenlive:sequenceFolder">2</property>
  <property name="kdenlive:docproperties.activetimeline">{d922d5bf-6097-4f61-81e0-d1ff096ddac8}</property>
  <property name="kdenlive:docproperties.audioChannels">2</property>
  <property name="kdenlive:docproperties.binsort">0</property>
  <property name="kdenlive:docproperties.browserurl">C:/Users/barnaud/Videos/</property>
  <property name="kdenlive:docproperties.compositing">1</property>
  <property name="kdenlive:docproperties.documentid">1731689716018</property>
  <property name="kdenlive:docproperties.enableTimelineZone">0</property>
  <property name="kdenlive:docproperties.enableexternalproxy">0</property>
  <property name="kdenlive:docproperties.enableproxy">0</property>
  <property name="kdenlive:docproperties.externalproxyparams"/>
  <property name="kdenlive:docproperties.generateimageproxy">0</property>
  <property name="kdenlive:docproperties.generateproxy">0</property>
  <property name="kdenlive:docproperties.guidesCategories">[&#xd;&#xd;&#xd;&#xd;&#xd;&#xd;&#xd;&#xd;
    {&#xd;&#xd;&#xd;&#xd;&#xd;&#xd;&#xd;&#xd;
        "color": "#9b59b6",&#xd;&#xd;&#xd;&#xd;&#xd;&#xd;&#xd;&#xd;
        "comment": "Category 1",&#xd;&#xd;&#xd;&#xd;&#xd;&#xd;&#xd;&#xd;
        "index": 0&#xd;&#xd;&#xd;&#xd;&#xd;&#xd;&#xd;&#xd;
    },&#xd;&#xd;&#xd;&#xd;&#xd;&#xd;&#xd;&#xd;
    {&#xd;&#xd;&#xd;&#xd;&#xd;&#xd;&#xd;&#xd;
        "color": "#3daee9",&#xd;&#xd;&#xd;&#xd;&#xd;&#xd;&#xd;&#xd;
        "comment": "Category 2",&#xd;&#xd;&#xd;&#xd;&#xd;&#xd;&#xd;&#xd;
        "index": 1&#xd;&#xd;&#xd;&#xd;&#xd;&#xd;&#xd;&#xd;
    },&#xd;&#xd;&#xd;&#xd;&#xd;&#xd;&#xd;&#xd;
    {&#xd;&#xd;&#xd;&#xd;&#xd;&#xd;&#xd;&#xd;
        "color": "#1abc9c",&#xd;&#xd;&#xd;&#xd;&#xd;&#xd;&#xd;&#xd;
        "comment": "Category 3",&#xd;&#xd;&#xd;&#xd;&#xd;&#xd;&#xd;&#xd;
        "index": 2&#xd;&#xd;&#xd;&#xd;&#xd;&#xd;&#xd;&#xd;
    },&#xd;&#xd;&#xd;&#xd;&#xd;&#xd;&#xd;&#xd;
    {&#xd;&#xd;&#xd;&#xd;&#xd;&#xd;&#xd;&#xd;
        "color": "#1cdc9a",&#xd;&#xd;&#xd;&#xd;&#xd;&#xd;&#xd;&#xd;
        "comment": "Category 4",&#xd;&#xd;&#xd;&#xd;&#xd;&#xd;&#xd;&#xd;
        "index": 3&#xd;&#xd;&#xd;&#xd;&#xd;&#xd;&#xd;&#xd;
    },&#xd;&#xd;&#xd;&#xd;&#xd;&#xd;&#xd;&#xd;
    {&#xd;&#xd;&#xd;&#xd;&#xd;&#xd;&#xd;&#xd;
        "color": "#c9ce3b",&#xd;&#xd;&#xd;&#xd;&#xd;&#xd;&#xd;&#xd;
        "comment": "Category 5",&#xd;&#xd;&#xd;&#xd;&#xd;&#xd;&#xd;&#xd;
        "index": 4&#xd;&#xd;&#xd;&#xd;&#xd;&#xd;&#xd;&#xd;
    },&#xd;&#xd;&#xd;&#xd;&#xd;&#xd;&#xd;&#xd;
    {&#xd;&#xd;&#xd;&#xd;&#xd;&#xd;&#xd;&#xd;
        "color": "#fdbc4b",&#xd;&#xd;&#xd;&#xd;&#xd;&#xd;&#xd;&#xd;
        "comment": "Category 6",&#xd;&#xd;&#xd;&#xd;&#xd;&#xd;&#xd;&#xd;
        "index": 5&#xd;&#xd;&#xd;&#xd;&#xd;&#xd;&#xd;&#xd;
    },&#xd;&#xd;&#xd;&#xd;&#xd;&#xd;&#xd;&#xd;
    {&#xd;&#xd;&#xd;&#xd;&#xd;&#xd;&#xd;&#xd;
        "color": "#f39c1f",&#xd;&#xd;&#xd;&#xd;&#xd;&#xd;&#xd;&#xd;
        "comment": "Category 7",&#xd;&#xd;&#xd;&#xd;&#xd;&#xd;&#xd;&#xd;
        "index": 6&#xd;&#xd;&#xd;&#xd;&#xd;&#xd;&#xd;&#xd;
    },&#xd;&#xd;&#xd;&#xd;&#xd;&#xd;&#xd;&#xd;
    {&#xd;&#xd;&#xd;&#xd;&#xd;&#xd;&#xd;&#xd;
        "color": "#f47750",&#xd;&#xd;&#xd;&#xd;&#xd;&#xd;&#xd;&#xd;
        "comment": "Category 8",&#xd;&#xd;&#xd;&#xd;&#xd;&#xd;&#xd;&#xd;
        "index": 7&#xd;&#xd;&#xd;&#xd;&#xd;&#xd;&#xd;&#xd;
    },&#xd;&#xd;&#xd;&#xd;&#xd;&#xd;&#xd;&#xd;
    {&#xd;&#xd;&#xd;&#xd;&#xd;&#xd;&#xd;&#xd;
        "color": "#da4453",&#xd;&#xd;&#xd;&#xd;&#xd;&#xd;&#xd;&#xd;
        "comment": "Category 9",&#xd;&#xd;&#xd;&#xd;&#xd;&#xd;&#xd;&#xd;
        "index": 8&#xd;&#xd;&#xd;&#xd;&#xd;&#xd;&#xd;&#xd;
    }&#xd;&#xd;&#xd;&#xd;&#xd;&#xd;&#xd;&#xd;
]&#xd;&#xd;&#xd;&#xd;&#xd;&#xd;&#xd;&#xd;
</property>
  <property name="kdenlive:docproperties.kdenliveversion">25.04.1</property>
  <property name="kdenlive:docproperties.opensequences">{d922d5bf-6097-4f61-81e0-d1ff096ddac8}</property>
  <property name="kdenlive:docproperties.previewextension"/>
  <property name="kdenlive:docproperties.previewparameters"/>
  <property name="kdenlive:docproperties.profile">C:/Users/barnaud/AppData/Roaming/kdenlive/profiles/customprofile16</property>
  <property name="kdenlive:docproperties.proxyextension"/>
  <property name="kdenlive:docproperties.proxyimageminsize">2000</property>
  <property name="kdenlive:docproperties.proxyimagesize">800</property>
  <property name="kdenlive:docproperties.proxyminsize">1000</property>
  <property name="kdenlive:docproperties.proxyparams"/>
  <property name="kdenlive:docproperties.proxyresize">640</property>
  <property name="kdenlive:docproperties.rendercategory">Generic (HD for web, mobile devices...)</property>
  <property name="kdenlive:docproperties.rendercustomquality">-1</property>
  <property name="kdenlive:docproperties.renderendguide">-1</property>
  <property name="kdenlive:docproperties.renderexportaudio">0</property>
  <property name="kdenlive:docproperties.renderfullcolorrange">0</property>
  <property name="kdenlive:docproperties.rendermode">1</property>
  <property name="kdenlive:docproperties.renderplay">0</property>
  <property name="kdenlive:docproperties.renderpreview">0</property>
  <property name="kdenlive:docproperties.renderprofile">MP4-H264/AAC</property>
  <property name="kdenlive:docproperties.renderrescale">0</property>
  <property name="kdenlive:docproperties.renderrescaleheight">1080</property>
  <property name="kdenlive:docproperties.renderrescalewidth">2580</property>
  <property name="kdenlive:docproperties.renderspeed">6</property>
  <property name="kdenlive:docproperties.renderstartguide">-1</property>
  <property name="kdenlive:docproperties.rendertcoverlay">0</property>
  <property name="kdenlive:docproperties.rendertctype">-1</property>
  <property name="kdenlive:docproperties.rendertwopass">0</property>
  <property name="kdenlive:docproperties.renderurl">C:/dev/workspace/indy/deploy/wide/trailer6-test7.mp4</property>
  <property name="kdenlive:docproperties.seekOffset">30000</property>
  <property name="kdenlive:docproperties.sessionid">{ea369cd2-bf53-4709-a291-fdf685b32798}</property>
  <property name="kdenlive:docproperties.uuid">{d922d5bf-6097-4f61-81e0-d1ff096ddac8}</property>
  <property name="kdenlive:docproperties.version">1.1</property>
  <property name="kdenlive:expandedFolders">4</property>
  <property name="kdenlive:binZoom">4</property>
  <property name="kdenlive:extraBins">project_bin:-1:0</property>
  <property name="kdenlive:documentnotes"/>
  <property name="kdenlive:documentnotesversion">2</property>
  <property name="xml_retain">1</property>
  <entry in="00:00:00.000" out="00:00:04.958" producer="producer10"/>
  <entry in="00:00:00.000" out="00:00:04.958" producer="producer11"/>
  <entry in="00:00:00.000" out="00:05:15.500" producer="chain97"/>
  <entry in="00:00:00.000" out="00:00:04.958" producer="producer12"/>
  <entry in="00:00:00.000" out="00:00:09.542" producer="chain63"/>
  <entry in="00:00:00.000" out="00:00:04.958" producer="producer22"/>
  <entry in="00:00:00.000" out="00:00:04.958" producer="producer24"/>
  <entry in="00:00:00.000" out="00:00:05.042" producer="chain66"/>
  <entry in="00:00:00.000" out="00:00:04.958" producer="producer23"/>
  <entry in="00:00:00.000" out="00:00:04.625" producer="chain59"/>
  <entry in="00:00:00.000" out="00:00:14.042" producer="chain65"/>
  <entry in="00:00:00.000" out="00:00:03.417" producer="chain60"/>
  <entry in="00:00:00.000" out="00:00:04.958" producer="producer26"/>
  <entry in="00:00:00.000" out="00:01:44.333" producer="chain61"/>
  <entry in="00:00:00.000" out="00:00:04.958" producer="producer25"/>
  <entry in="00:00:00.000" out="00:00:03.000" producer="chain62"/>
  <entry in="00:00:00.000" out="00:00:04.958" producer="producer27"/>
  <entry in="00:00:00.000" out="00:00:04.958" producer="producer28"/>
  <entry in="00:00:00.000" out="00:00:14.042" producer="chain64"/>
  <entry in="00:00:00.000" out="00:00:14.042" producer="chain67"/>
  <entry in="00:00:00.000" out="00:00:05.042" producer="chain69"/>
  <entry in="00:00:00.000" out="00:00:09.542" producer="chain68"/>
  <entry in="00:00:00.000" out="00:00:04.958" producer="producer29"/>
  <entry in="00:00:00.000" out="00:00:05.042" producer="chain71"/>
  <entry in="00:00:00.000" out="00:00:04.958" producer="producer20"/>
  <entry in="00:00:00.000" out="00:00:05.042" producer="chain72"/>
  <entry in="00:00:00.000" out="00:03:11.125" producer="chain70"/>
  <entry in="00:00:00.000" out="00:00:05.042" producer="chain73"/>
  <entry in="00:00:00.000" out="00:00:04.958" producer="producer30"/>
  <entry in="00:00:00.000" out="00:00:04.625" producer="chain76"/>
  <entry in="00:00:00.000" out="00:00:04.958" producer="producer31"/>
  <entry in="00:00:00.000" out="00:00:05.042" producer="chain98"/>
  <entry in="00:00:00.000" out="00:00:04.958" producer="producer32"/>
  <entry in="00:00:00.000" out="00:00:10.375" producer="chain75"/>
  <entry in="00:00:00.000" out="00:00:15.167" producer="chain74"/>
  <entry in="00:00:00.000" out="00:00:04.958" producer="producer33"/>
  <entry in="00:00:00.000" out="00:00:05.042" producer="chain77"/>
  <entry in="00:00:00.000" out="00:03:31.167" producer="chain78"/>
  <entry in="00:00:00.000" out="00:00:05.042" producer="chain84"/>
  <entry in="00:00:00.000" out="00:00:04.958" producer="producer34"/>
  <entry in="00:00:00.000" out="00:00:08.292" producer="chain83"/>
  <entry in="00:00:00.000" out="00:00:03.167" producer="chain79"/>
  <entry in="00:00:00.000" out="00:00:03.625" producer="chain80"/>
  <entry in="00:00:00.000" out="00:00:05.042" producer="chain99"/>
  <entry in="00:00:00.000" out="00:00:04.958" producer="producer35"/>
  <entry in="00:00:00.000" out="00:00:03.958" producer="chain85"/>
  <entry in="00:00:00.000" out="00:00:01.250" producer="chain81"/>
  <entry in="00:00:00.000" out="00:00:01.833" producer="chain82"/>
  <entry in="00:00:00.000" out="00:00:04.958" producer="producer36"/>
  <entry in="00:00:00.000" out="00:00:05.958" producer="chain86"/>
  <entry in="00:00:00.000" out="00:00:01.458" producer="chain87"/>
  <entry in="00:00:00.000" out="00:00:03.333" producer="chain88"/>
  <entry in="00:00:00.000" out="00:00:04.958" producer="chain94"/>
  <entry in="00:00:00.000" out="00:00:01.958" producer="chain90"/>
  <entry in="00:00:00.000" out="00:00:01.750" producer="chain89"/>
  <entry in="00:00:00.000" out="00:00:04.958" producer="producer37"/>
  <entry in="00:00:00.000" out="00:00:04.958" producer="chain93"/>
  <entry in="00:00:00.000" out="00:00:01.375" producer="chain91"/>
  <entry in="00:00:00.000" out="00:00:01.125" producer="chain92"/>
  <entry in="00:00:00.000" out="00:00:04.958" producer="producer38"/>
  <entry in="00:00:00.000" out="00:00:09.542" producer="chain100"/>
  <entry in="00:00:00.000" out="00:00:04.958" producer="producer17"/>
  <entry in="00:00:00.000" out="00:00:04.958" producer="producer21"/>
  <entry in="00:00:00.000" out="00:00:06.000" producer="producer18"/>
  <entry in="00:00:00.000" out="00:03:36.708" producer="chain96"/>
  <entry in="00:00:00.000" out="00:00:38.333" producer="chain95"/>
  <entry in="00:00:00.000" out="00:00:04.958" producer="producer1"/>
  <entry in="00:00:00.000" out="00:00:04.958" producer="producer19"/>
  <entry in="00:00:00.000" out="00:00:09.542" producer="chain101"/>
  <entry in="00:00:00.000" out="00:00:08.958" producer="chain102"/>
  <entry in="00:00:00.000" out="00:00:05.042" producer="chain103"/>
  <entry in="00:00:00.000" out="00:00:10.208" producer="chain104"/>
  <entry in="00:00:00.000" out="00:00:04.958" producer="chain105"/>
  <entry in="00:00:00.000" out="00:00:05.250" producer="chain106"/>
  <entry in="00:00:00.000" out="00:00:08.958" producer="chain107"/>
  <entry in="00:00:00.000" out="00:00:05.042" producer="chain108"/>
  <entry in="00:00:00.000" out="00:00:03.958" producer="chain109"/>
  <entry in="00:00:00.000" out="00:00:04.958" producer="producer2"/>
  <entry in="00:00:00.000" out="00:00:05.042" producer="chain110"/>
  <entry in="00:00:00.000" out="00:00:09.542" producer="chain111"/>
  <entry in="00:00:00.000" out="00:00:05.042" producer="chain112"/>
  <entry in="00:00:00.000" out="00:00:04.625" producer="chain113"/>
  <entry in="00:00:00.000" out="00:00:05.042" producer="chain114"/>
  <entry in="00:00:00.000" out="00:00:09.542" producer="chain115"/>
  <entry in="00:00:00.000" out="00:00:09.958" producer="chain116"/>
  <entry in="00:00:00.000" out="00:00:05.042" producer="chain117"/>
  <entry in="00:00:00.000" out="00:00:05.042" producer="chain118"/>
  <entry in="00:00:00.000" out="00:00:05.042" producer="chain119"/>
  <entry in="00:00:00.000" out="00:00:09.542" producer="chain120"/>
  <entry in="00:00:00.000" out="00:00:05.042" producer="chain121"/>
  <entry in="00:00:00.000" out="00:00:05.042" producer="chain122"/>
  <entry in="00:00:00.000" out="00:00:04.958" producer="chain123"/>
  <entry in="00:00:00.000" out="00:00:10.250" producer="chain125"/>
  <entry in="00:00:00.000" out="00:02:23.958" producer="tractor9"/>
 </playlist>
 <tractor id="tractor10" in="00:00:00.000" out="00:02:23.958">
  <property name="kdenlive:projectTractor">1</property>
  <track in="00:00:00.000" out="00:02:23.958" producer="tractor9"/>
 </tractor>
</mlt>
