<?xml version='1.0' encoding='utf-8'?>
<mlt LC_NUMERIC="en_US.UTF-8" producer="main_bin" version="7.21.0" root="C:/dev/workspace/indy/dist/movie">
 <profile frame_rate_num="24" sample_aspect_num="1" display_aspect_den="9" colorspace="709" progressive="1" description="5K UHD 2160p 21:9 24 fps" display_aspect_num="21" frame_rate_den="1" width="5120" height="2160" sample_aspect_den="1"/>
 <chain id="chain2" out="00:02:25.792">
  <property name="length">3500</property>
  <property name="eof">pause</property>
  <property name="resource">C:/dev/workspace/indy/deploy/base/movie.mp4</property>
  <property name="mlt_service">avformat-novalidate</property>
  <property name="meta.media.nb_streams">2</property>
  <property name="meta.media.0.stream.type">video</property>
  <property name="meta.media.0.stream.frame_rate">24</property>
  <property name="meta.media.0.stream.sample_aspect_ratio">1</property>
  <property name="meta.media.0.codec.width">3840</property>
  <property name="meta.media.0.codec.height">2160</property>
  <property name="meta.media.0.codec.rotate">0</property>
  <property name="meta.media.0.codec.pix_fmt">yuv420p</property>
  <property name="meta.media.0.codec.sample_aspect_ratio">1</property>
  <property name="meta.media.0.codec.colorspace">709</property>
  <property name="meta.media.0.codec.color_trc">1</property>
  <property name="meta.media.0.codec.name">h264</property>
  <property name="meta.media.0.codec.long_name">H.264 / AVC / MPEG-4 AVC / MPEG-4 part 10</property>
  <property name="meta.media.0.codec.bit_rate">264284198</property>
  <property name="meta.attr.0.stream.handler_name.markup">VideoHandler</property>
  <property name="meta.attr.0.stream.vendor_id.markup">[0][0][0][0]</property>
  <property name="meta.media.1.stream.type">audio</property>
  <property name="meta.media.1.codec.sample_fmt">fltp</property>
  <property name="meta.media.1.codec.sample_rate">48000</property>
  <property name="meta.media.1.codec.channels">2</property>
  <property name="meta.media.1.codec.name">aac</property>
  <property name="meta.media.1.codec.long_name">AAC (Advanced Audio Coding)</property>
  <property name="meta.media.1.codec.bit_rate">292873</property>
  <property name="meta.attr.1.stream.handler_name.markup">SoundHandler</property>
  <property name="meta.attr.1.stream.vendor_id.markup">[0][0][0][0]</property>
  <property name="meta.attr.major_brand.markup">isom</property>
  <property name="meta.attr.minor_version.markup">512</property>
  <property name="meta.attr.compatible_brands.markup">isomiso2avc1mp41</property>
  <property name="meta.attr.encoder.markup">Lavf60.16.100</property>
  <property name="seekable">1</property>
  <property name="meta.media.sample_aspect_num">1</property>
  <property name="meta.media.sample_aspect_den">1</property>
  <property name="audio_index">1</property>
  <property name="video_index">0</property>
  <property name="vstream">0</property>
  <property name="meta.media.frame_rate_num">24</property>
  <property name="meta.media.frame_rate_den">1</property>
  <property name="meta.media.colorspace">709</property>
  <property name="meta.media.color_trc">1</property>
  <property name="meta.media.has_b_frames">0</property>
  <property name="meta.media.width">3840</property>
  <property name="meta.media.height">2160</property>
  <property name="meta.media.color_range">mpeg</property>
  <property name="astream">0</property>
  <property name="meta.media.top_field_first">0</property>
  <property name="meta.media.progressive">1</property>
  <property name="kdenlive:folderid">-1</property>
  <property name="kdenlive:id">4</property>
  <property name="mute_on_pause">0</property>
  <property name="kdenlive:clip_type">0</property>
  <property name="kdenlive:file_size">4823123730</property>
  <property name="kdenlive:file_hash">b72157332946d8bedc2fb54bcdc520da</property>
  <property name="kdenlive:audio_max1">208</property>
 </chain>
 <producer id="producer0" in="00:00:00.000" out="00:23:15.833">
  <property name="length">2147483647</property>
  <property name="eof">continue</property>
  <property name="resource">black</property>
  <property name="aspect_ratio">1</property>
  <property name="mlt_service">color</property>
  <property name="kdenlive:playlistid">black_track</property>
  <property name="mlt_image_format">rgba</property>
  <property name="set.test_audio">0</property>
 </producer>
 <playlist id="playlist0">
  <property name="kdenlive:audio_track">1</property>
 </playlist>
 <playlist id="playlist1">
  <property name="kdenlive:audio_track">1</property>
 </playlist>
 <tractor id="tractor0" in="00:00:00.000">
  <property name="kdenlive:audio_track">1</property>
  <property name="kdenlive:trackheight">67</property>
  <property name="kdenlive:timeline_active">1</property>
  <property name="kdenlive:collapsed">0</property>
  <property name="kdenlive:thumbs_format"/>
  <property name="kdenlive:audio_rec"/>
  <track hide="video" producer="playlist0"/>
  <track hide="video" producer="playlist1"/>
  <filter id="filter0">
   <property name="window">75</property>
   <property name="max_gain">20dB</property>
   <property name="mlt_service">volume</property>
   <property name="internal_added">237</property>
   <property name="disable">1</property>
  </filter>
  <filter id="filter1">
   <property name="channel">-1</property>
   <property name="mlt_service">panner</property>
   <property name="internal_added">237</property>
   <property name="start">0.5</property>
   <property name="disable">1</property>
  </filter>
  <filter id="filter2">
   <property name="iec_scale">0</property>
   <property name="mlt_service">audiolevel</property>
   <property name="dbpeak">1</property>
   <property name="disable">1</property>
  </filter>
 </tractor>
 <chain id="chain0" out="00:02:25.792">
  <property name="length">3500</property>
  <property name="eof">pause</property>
  <property name="resource">C:/dev/workspace/indy/deploy/base/movie.mp4</property>
  <property name="mlt_service">avformat-novalidate</property>
  <property name="seekable">1</property>
  <property name="audio_index">1</property>
  <property name="video_index">0</property>
  <property name="vstream">0</property>
  <property name="astream">0</property>
  <property name="kdenlive:folderid">-1</property>
  <property name="kdenlive:id">4</property>
  <property name="mute_on_pause">0</property>
  <property name="kdenlive:clip_type">0</property>
  <property name="kdenlive:file_size">4823123730</property>
  <property name="kdenlive:file_hash">b72157332946d8bedc2fb54bcdc520da</property>
  <property name="kdenlive:audio_max1">208</property>
  <property name="meta.media.nb_streams">2</property>
  <property name="meta.media.0.stream.type">video</property>
  <property name="meta.media.0.stream.frame_rate">24</property>
  <property name="meta.media.0.stream.sample_aspect_ratio">1</property>
  <property name="meta.media.0.codec.width">3840</property>
  <property name="meta.media.0.codec.height">2160</property>
  <property name="meta.media.0.codec.rotate">0</property>
  <property name="meta.media.0.codec.pix_fmt">yuv420p</property>
  <property name="meta.media.0.codec.sample_aspect_ratio">1</property>
  <property name="meta.media.0.codec.colorspace">709</property>
  <property name="meta.media.0.codec.color_trc">1</property>
  <property name="meta.media.0.codec.name">h264</property>
  <property name="meta.media.0.codec.long_name">H.264 / AVC / MPEG-4 AVC / MPEG-4 part 10</property>
  <property name="meta.media.0.codec.bit_rate">264284198</property>
  <property name="meta.attr.0.stream.handler_name.markup">VideoHandler</property>
  <property name="meta.attr.0.stream.vendor_id.markup">[0][0][0][0]</property>
  <property name="meta.media.1.stream.type">audio</property>
  <property name="meta.media.1.codec.sample_fmt">fltp</property>
  <property name="meta.media.1.codec.sample_rate">48000</property>
  <property name="meta.media.1.codec.channels">2</property>
  <property name="meta.media.1.codec.name">aac</property>
  <property name="meta.media.1.codec.long_name">AAC (Advanced Audio Coding)</property>
  <property name="meta.media.1.codec.bit_rate">292873</property>
  <property name="meta.attr.1.stream.handler_name.markup">SoundHandler</property>
  <property name="meta.attr.1.stream.vendor_id.markup">[0][0][0][0]</property>
  <property name="meta.attr.major_brand.markup">isom</property>
  <property name="meta.attr.minor_version.markup">512</property>
  <property name="meta.attr.compatible_brands.markup">isomiso2avc1mp41</property>
  <property name="meta.attr.encoder.markup">Lavf60.16.100</property>
  <property name="meta.media.sample_aspect_num">1</property>
  <property name="meta.media.sample_aspect_den">1</property>
  <property name="meta.media.frame_rate_num">24</property>
  <property name="meta.media.frame_rate_den">1</property>
  <property name="meta.media.colorspace">709</property>
  <property name="meta.media.color_trc">1</property>
  <property name="meta.media.has_b_frames">0</property>
  <property name="meta.media.width">3840</property>
  <property name="meta.media.height">2160</property>
  <property name="meta.media.color_range">mpeg</property>
  <property name="xml">was here</property>
  <property name="meta.media.top_field_first">0</property>
  <property name="meta.media.progressive">1</property>
  <property name="set.test_audio">0</property>
  <property name="set.test_image">1</property>
 </chain>
 <playlist id="playlist2">
  <property name="kdenlive:audio_track">1</property>
  <entry producer="chain0" in="00:00:00.000" out="00:00:03.958">
   <property name="kdenlive:id">4</property>
  </entry>
  <entry producer="chain0" in="00:00:04.000" out="00:00:14.792">
   <property name="kdenlive:id">4</property>
  </entry>
  <entry producer="chain0" in="00:00:14.833" out="00:00:37.625">
   <property name="kdenlive:id">4</property>
  </entry>
  <entry producer="chain0" in="00:00:37.667" out="00:00:40.625">
   <property name="kdenlive:id">4</property>
  </entry>
  <entry producer="chain0" in="00:00:40.667" out="00:00:45.625">
   <property name="kdenlive:id">4</property>
  </entry>
  <entry producer="chain0" in="00:00:45.667" out="00:00:55.625">
   <property name="kdenlive:id">4</property>
  </entry>
  <entry producer="chain0" in="00:00:55.667" out="00:01:06.792">
   <property name="kdenlive:id">4</property>
  </entry>
  <entry producer="chain0" in="00:01:06.833" out="00:01:26.375">
   <property name="kdenlive:id">4</property>
  </entry>
  <entry producer="chain0" in="00:01:26.417" out="00:01:57.792">
   <property name="kdenlive:id">4</property>
  </entry>
  <entry producer="chain0" in="00:01:57.833" out="00:02:02.792">
   <property name="kdenlive:id">4</property>
  </entry>
  <entry producer="chain0" in="00:02:02.833" out="00:02:09.792">
   <property name="kdenlive:id">4</property>
  </entry>
  <entry producer="chain0" in="00:02:09.833" out="00:02:12.250">
   <property name="kdenlive:id">4</property>
  </entry>
  <entry producer="chain0" in="00:02:12.292" out="00:02:22.167">
   <property name="kdenlive:id">4</property>
  </entry>
  <entry producer="chain0" in="00:02:22.208" out="00:02:25.792">
   <property name="kdenlive:id">4</property>
  </entry>
 </playlist>
 <playlist id="playlist3">
  <property name="kdenlive:audio_track">1</property>
 </playlist>
 <tractor id="tractor1" in="00:00:00.000" out="00:02:25.792">
  <property name="kdenlive:audio_track">1</property>
  <property name="kdenlive:trackheight">67</property>
  <property name="kdenlive:timeline_active">1</property>
  <property name="kdenlive:collapsed">0</property>
  <property name="kdenlive:thumbs_format"/>
  <property name="kdenlive:audio_rec"/>
  <track hide="video" producer="playlist2"/>
  <track hide="video" producer="playlist3"/>
  <filter id="filter3">
   <property name="window">75</property>
   <property name="max_gain">20dB</property>
   <property name="mlt_service">volume</property>
   <property name="internal_added">237</property>
   <property name="disable">1</property>
  </filter>
  <filter id="filter4">
   <property name="channel">-1</property>
   <property name="mlt_service">panner</property>
   <property name="internal_added">237</property>
   <property name="start">0.5</property>
   <property name="disable">1</property>
  </filter>
  <filter id="filter5">
   <property name="iec_scale">0</property>
   <property name="mlt_service">audiolevel</property>
   <property name="dbpeak">1</property>
   <property name="disable">1</property>
  </filter>
 </tractor>
 <chain id="chain1" out="00:02:25.792">
  <property name="length">3500</property>
  <property name="eof">pause</property>
  <property name="resource">C:/dev/workspace/indy/deploy/base/movie.mp4</property>
  <property name="mlt_service">avformat-novalidate</property>
  <property name="seekable">1</property>
  <property name="audio_index">1</property>
  <property name="video_index">0</property>
  <property name="vstream">0</property>
  <property name="astream">0</property>
  <property name="kdenlive:folderid">-1</property>
  <property name="kdenlive:id">4</property>
  <property name="mute_on_pause">0</property>
  <property name="kdenlive:clip_type">0</property>
  <property name="kdenlive:file_size">4823123730</property>
  <property name="kdenlive:file_hash">b72157332946d8bedc2fb54bcdc520da</property>
  <property name="kdenlive:audio_max1">208</property>
  <property name="meta.media.nb_streams">2</property>
  <property name="meta.media.0.stream.type">video</property>
  <property name="meta.media.0.stream.frame_rate">24</property>
  <property name="meta.media.0.stream.sample_aspect_ratio">1</property>
  <property name="meta.media.0.codec.width">3840</property>
  <property name="meta.media.0.codec.height">2160</property>
  <property name="meta.media.0.codec.rotate">0</property>
  <property name="meta.media.0.codec.pix_fmt">yuv420p</property>
  <property name="meta.media.0.codec.sample_aspect_ratio">1</property>
  <property name="meta.media.0.codec.colorspace">709</property>
  <property name="meta.media.0.codec.color_trc">1</property>
  <property name="meta.media.0.codec.name">h264</property>
  <property name="meta.media.0.codec.long_name">H.264 / AVC / MPEG-4 AVC / MPEG-4 part 10</property>
  <property name="meta.media.0.codec.bit_rate">264284198</property>
  <property name="meta.attr.0.stream.handler_name.markup">VideoHandler</property>
  <property name="meta.attr.0.stream.vendor_id.markup">[0][0][0][0]</property>
  <property name="meta.media.1.stream.type">audio</property>
  <property name="meta.media.1.codec.sample_fmt">fltp</property>
  <property name="meta.media.1.codec.sample_rate">48000</property>
  <property name="meta.media.1.codec.channels">2</property>
  <property name="meta.media.1.codec.name">aac</property>
  <property name="meta.media.1.codec.long_name">AAC (Advanced Audio Coding)</property>
  <property name="meta.media.1.codec.bit_rate">292873</property>
  <property name="meta.attr.1.stream.handler_name.markup">SoundHandler</property>
  <property name="meta.attr.1.stream.vendor_id.markup">[0][0][0][0]</property>
  <property name="meta.attr.major_brand.markup">isom</property>
  <property name="meta.attr.minor_version.markup">512</property>
  <property name="meta.attr.compatible_brands.markup">isomiso2avc1mp41</property>
  <property name="meta.attr.encoder.markup">Lavf60.16.100</property>
  <property name="meta.media.sample_aspect_num">1</property>
  <property name="meta.media.sample_aspect_den">1</property>
  <property name="meta.media.frame_rate_num">24</property>
  <property name="meta.media.frame_rate_den">1</property>
  <property name="meta.media.colorspace">709</property>
  <property name="meta.media.color_trc">1</property>
  <property name="meta.media.has_b_frames">0</property>
  <property name="meta.media.width">3840</property>
  <property name="meta.media.height">2160</property>
  <property name="meta.media.color_range">mpeg</property>
  <property name="xml">was here</property>
  <property name="meta.media.top_field_first">0</property>
  <property name="meta.media.progressive">1</property>
  <property name="set.test_audio">1</property>
  <property name="set.test_image">0</property>
 </chain>
 <playlist id="playlist4">
  <entry producer="chain1" in="00:00:00.000" out="00:00:03.958">
   <property name="kdenlive:id">4</property>
   <filter id="filter6">
    <property name="rotate_center">1</property>
    <property name="mlt_service">qtblend</property>
    <property name="kdenlive_id">qtblend</property>
    <property name="rect">00:00:00.000=-512 -216 6144 2592 1.000000</property>
    <property name="rotation">00:00:00.000=0</property>
    <property name="compositing">0</property>
    <property name="distort">0</property>
    <property name="kdenlive:collapsed">0</property>
   </filter>
  </entry>
  <entry producer="chain1" in="00:00:04.000" out="00:00:14.792">
   <property name="kdenlive:id">4</property>
   <filter id="filter7">
    <property name="rotate_center">1</property>
    <property name="mlt_service">qtblend</property>
    <property name="kdenlive_id">qtblend</property>
    <property name="rect">00:00:04.000=-512 -216 6144 2592 1.000000</property>
    <property name="rotation">00:00:04.000=0</property>
    <property name="compositing">0</property>
    <property name="distort">0</property>
    <property name="kdenlive:collapsed">0</property>
   </filter>
  </entry>
  <entry producer="chain1" in="00:00:14.833" out="00:00:37.625">
   <property name="kdenlive:id">4</property>
   <filter id="filter8">
    <property name="rotate_center">1</property>
    <property name="mlt_service">qtblend</property>
    <property name="kdenlive_id">qtblend</property>
    <property name="rect">00:00:14.833=-896 -378 6912 2916 1.000000</property>
    <property name="rotation">00:00:14.833=0</property>
    <property name="compositing">0</property>
    <property name="distort">0</property>
    <property name="kdenlive:collapsed">0</property>
   </filter>
  </entry>
  <entry producer="chain1" in="00:00:37.667" out="00:00:40.625">
   <property name="kdenlive:id">4</property>
   <filter id="filter9">
    <property name="rotate_center">1</property>
    <property name="mlt_service">qtblend</property>
    <property name="kdenlive_id">qtblend</property>
    <property name="rect">00:00:37.667=-896 0 6912 2916 1.000000</property>
    <property name="rotation">00:00:37.667=0</property>
    <property name="compositing">0</property>
    <property name="distort">0</property>
    <property name="kdenlive:collapsed">0</property>
   </filter>
  </entry>
  <entry producer="chain1" in="00:00:40.667" out="00:00:45.625">
   <property name="kdenlive:id">4</property>
   <filter id="filter10">
    <property name="rotate_center">1</property>
    <property name="mlt_service">qtblend</property>
    <property name="kdenlive_id">qtblend</property>
    <property name="rect">00:00:40.667=-896 0 6912 2916 1.000000;00:00:43.667=-896 0 6912 2916 1.000000;00:00:45.625=-896 -500 6912 2916 1.000000</property>
    <property name="rotation">00:00:40.667=0;00:00:43.667=0;00:00:45.625=0</property>
    <property name="compositing">0</property>
    <property name="distort">0</property>
    <property name="kdenlive:collapsed">0</property>
   </filter>
  </entry>
  <entry producer="chain1" in="00:00:45.667" out="00:00:55.625">
   <property name="kdenlive:id">4</property>
   <filter id="filter11">
    <property name="rotate_center">1</property>
    <property name="mlt_service">qtblend</property>
    <property name="kdenlive_id">qtblend</property>
    <property name="rect">00:00:45.667=-896 -300 6912 2916 1.000000;00:00:48.833=-896 -533 6912 2916 1.000000;00:00:51.083=-896 -700 6912 2916 1.000000;00:00:52.667=-896 -500 6912 2916 1.000000;00:00:54.667=-896 -400 6912 2916 1.000000</property>
    <property name="rotation">00:00:45.667=0;00:00:48.833=0;00:00:51.083=0;00:00:52.667=0;00:00:54.667=0</property>
    <property name="compositing">0</property>
    <property name="distort">0</property>
    <property name="kdenlive:collapsed">0</property>
   </filter>
  </entry>
  <entry producer="chain1" in="00:00:55.667" out="00:01:06.792">
   <property name="kdenlive:id">4</property>
   <filter id="filter12">
    <property name="rotate_center">1</property>
    <property name="mlt_service">qtblend</property>
    <property name="kdenlive_id">qtblend</property>
    <property name="rect">00:00:55.667=-896 -378 6912 2916 1.000000</property>
    <property name="rotation">00:00:55.667=0</property>
    <property name="compositing">0</property>
    <property name="distort">0</property>
    <property name="kdenlive:collapsed">0</property>
   </filter>
  </entry>
  <entry producer="chain1" in="00:01:06.833" out="00:01:26.375">
   <property name="kdenlive:id">4</property>
   <filter id="filter13">
    <property name="rotate_center">1</property>
    <property name="mlt_service">qtblend</property>
    <property name="kdenlive_id">qtblend</property>
    <property name="rect">00:01:06.833=-896 -240 6912 2916 1.000000;00:01:24.833=-896 -240 6912 2916 1.000000;00:01:26.375=-896 -378 6912 2916 1.000000</property>
    <property name="rotation">00:01:06.833=0;00:01:24.833=0;00:01:26.375=0</property>
    <property name="compositing">0</property>
    <property name="distort">0</property>
    <property name="kdenlive:collapsed">0</property>
   </filter>
  </entry>
  <entry producer="chain1" in="00:01:26.417" out="00:01:57.792">
   <property name="kdenlive:id">4</property>
   <filter id="filter14">
    <property name="rotate_center">1</property>
    <property name="mlt_service">qtblend</property>
    <property name="kdenlive_id">qtblend</property>
    <property name="rect">00:01:26.417=-896 -378 6912 2916 1.000000</property>
    <property name="rotation">00:01:26.417=0</property>
    <property name="compositing">0</property>
    <property name="distort">0</property>
    <property name="kdenlive:collapsed">0</property>
   </filter>
  </entry>
  <entry producer="chain1" in="00:01:57.833" out="00:02:02.792">
   <property name="kdenlive:id">4</property>
   <filter id="filter15">
    <property name="rotate_center">1</property>
    <property name="mlt_service">qtblend</property>
    <property name="kdenlive_id">qtblend</property>
    <property name="rect">00:01:57.833=-896 -200 6912 2916 1.000000</property>
    <property name="rotation">00:01:57.833=0</property>
    <property name="compositing">0</property>
    <property name="distort">0</property>
    <property name="kdenlive:collapsed">0</property>
   </filter>
  </entry>
  <entry producer="chain1" in="00:02:02.833" out="00:02:09.792">
   <property name="kdenlive:id">4</property>
   <filter id="filter16">
    <property name="rotate_center">1</property>
    <property name="mlt_service">qtblend</property>
    <property name="kdenlive_id">qtblend</property>
    <property name="rect">00:02:02.833=-896 -200 6912 2916 1.000000;00:02:05.833=-896 -300 6912 2916 1.000000;00:02:09.792=-896 -378 6912 2916 1.000000</property>
    <property name="rotation">00:02:02.833=0;00:02:05.833=0;00:02:09.792=0</property>
    <property name="compositing">0</property>
    <property name="distort">0</property>
    <property name="kdenlive:collapsed">0</property>
   </filter>
  </entry>
  <entry producer="chain1" in="00:02:09.833" out="00:02:12.250">
   <property name="kdenlive:id">4</property>
   <filter id="filter17">
    <property name="rotate_center">1</property>
    <property name="mlt_service">qtblend</property>
    <property name="kdenlive_id">qtblend</property>
    <property name="rect">00:02:09.833=-896 -200 6912 2916 1.000000</property>
    <property name="rotation">00:02:09.833=0</property>
    <property name="compositing">0</property>
    <property name="distort">0</property>
    <property name="kdenlive:collapsed">0</property>
   </filter>
  </entry>
  <entry producer="chain1" in="00:02:12.292" out="00:02:22.167">
   <property name="kdenlive:id">4</property>
   <filter id="filter18">
    <property name="rotate_center">1</property>
    <property name="mlt_service">qtblend</property>
    <property name="kdenlive_id">qtblend</property>
    <property name="rect">00:02:12.292=-896 -378 6912 2916 1.000000</property>
    <property name="rotation">00:02:12.292=0</property>
    <property name="compositing">0</property>
    <property name="distort">0</property>
   </filter>
  </entry>
  <entry producer="chain1" in="00:02:22.208" out="00:02:25.792">
   <property name="kdenlive:id">4</property>
   <filter id="filter19">
    <property name="rotate_center">1</property>
    <property name="mlt_service">qtblend</property>
    <property name="kdenlive_id">qtblend</property>
    <property name="rect">00:02:22.208=-512 -216 6144 2592 1.000000</property>
    <property name="rotation">00:02:22.208=0</property>
    <property name="compositing">0</property>
    <property name="distort">0</property>
    <property name="kdenlive:collapsed">0</property>
   </filter>
  </entry>
 </playlist>
 <playlist id="playlist5"/>
 <tractor id="tractor2" in="00:00:00.000" out="00:02:25.792">
  <property name="kdenlive:trackheight">67</property>
  <property name="kdenlive:timeline_active">1</property>
  <property name="kdenlive:collapsed">0</property>
  <property name="kdenlive:thumbs_format"/>
  <property name="kdenlive:audio_rec"/>
  <track hide="audio" producer="playlist4"/>
  <track hide="audio" producer="playlist5"/>
 </tractor>
 <playlist id="playlist6"/>
 <playlist id="playlist7"/>
 <tractor id="tractor3" in="00:00:00.000">
  <property name="kdenlive:trackheight">67</property>
  <property name="kdenlive:timeline_active">1</property>
  <property name="kdenlive:collapsed">0</property>
  <property name="kdenlive:thumbs_format"/>
  <property name="kdenlive:audio_rec"/>
  <track hide="audio" producer="playlist6"/>
  <track hide="audio" producer="playlist7"/>
 </tractor>
 <tractor id="tractor4" in="00:00:00.000" out="00:02:25.792">
  <property name="kdenlive:duration">00:02:25:20</property>
  <property name="kdenlive:maxduration">3500</property>
  <property name="kdenlive:clipname">Sequence 1</property>
  <property name="kdenlive:description"/>
  <property name="kdenlive:uuid">{eef67dc6-2ffe-424f-88e7-ad03d8eacf49}</property>
  <property name="kdenlive:producer_type">17</property>
  <property name="kdenlive:id">3</property>
  <property name="kdenlive:clip_type">0</property>
  <property name="kdenlive:file_hash">6288f9623538b29cf1efaa379d3c4edb</property>
  <property name="kdenlive:folderid">2</property>
  <property name="kdenlive:sequenceproperties.activeTrack">2</property>
  <property name="kdenlive:sequenceproperties.audioTarget">1</property>
  <property name="kdenlive:sequenceproperties.disablepreview">0</property>
  <property name="kdenlive:sequenceproperties.documentuuid">{eef67dc6-2ffe-424f-88e7-ad03d8eacf49}</property>
  <property name="kdenlive:sequenceproperties.hasAudio">1</property>
  <property name="kdenlive:sequenceproperties.hasVideo">1</property>
  <property name="kdenlive:sequenceproperties.position">2975</property>
  <property name="kdenlive:sequenceproperties.scrollPos">1479</property>
  <property name="kdenlive:sequenceproperties.tracks">4</property>
  <property name="kdenlive:sequenceproperties.tracksCount">4</property>
  <property name="kdenlive:sequenceproperties.verticalzoom">1</property>
  <property name="kdenlive:sequenceproperties.videoTarget">2</property>
  <property name="kdenlive:sequenceproperties.zonein">0</property>
  <property name="kdenlive:sequenceproperties.zoneout">75</property>
  <property name="kdenlive:sequenceproperties.zoom">6</property>
  <property name="kdenlive:sequenceproperties.groups">[
    {
        "children": [
            {
                "data": "1:2074",
                "leaf": "clip",
                "type": "Leaf"
            },
            {
                "data": "2:2074",
                "leaf": "clip",
                "type": "Leaf"
            }
        ],
        "type": "AVSplit"
    },
    {
        "children": [
            {
                "data": "2:2828",
                "leaf": "clip",
                "type": "Leaf"
            },
            {
                "data": "1:2828",
                "leaf": "clip",
                "type": "Leaf"
            }
        ],
        "type": "AVSplit"
    },
    {
        "children": [
            {
                "data": "2:0",
                "leaf": "clip",
                "type": "Leaf"
            },
            {
                "data": "1:0",
                "leaf": "clip",
                "type": "Leaf"
            }
        ],
        "type": "AVSplit"
    },
    {
        "children": [
            {
                "data": "1:96",
                "leaf": "clip",
                "type": "Leaf"
            },
            {
                "data": "2:96",
                "leaf": "clip",
                "type": "Leaf"
            }
        ],
        "type": "AVSplit"
    },
    {
        "children": [
            {
                "data": "2:3116",
                "leaf": "clip",
                "type": "Leaf"
            },
            {
                "data": "1:3116",
                "leaf": "clip",
                "type": "Leaf"
            }
        ],
        "type": "AVSplit"
    },
    {
        "children": [
            {
                "data": "1:3175",
                "leaf": "clip",
                "type": "Leaf"
            },
            {
                "data": "2:3175",
                "leaf": "clip",
                "type": "Leaf"
            }
        ],
        "type": "AVSplit"
    },
    {
        "children": [
            {
                "data": "1:2948",
                "leaf": "clip",
                "type": "Leaf"
            },
            {
                "data": "2:2948",
                "leaf": "clip",
                "type": "Leaf"
            }
        ],
        "type": "AVSplit"
    },
    {
        "children": [
            {
                "data": "1:3413",
                "leaf": "clip",
                "type": "Leaf"
            },
            {
                "data": "2:3413",
                "leaf": "clip",
                "type": "Leaf"
            }
        ],
        "type": "AVSplit"
    },
    {
        "children": [
            {
                "data": "1:356",
                "leaf": "clip",
                "type": "Leaf"
            },
            {
                "data": "2:356",
                "leaf": "clip",
                "type": "Leaf"
            }
        ],
        "type": "AVSplit"
    },
    {
        "children": [
            {
                "data": "2:904",
                "leaf": "clip",
                "type": "Leaf"
            },
            {
                "data": "1:904",
                "leaf": "clip",
                "type": "Leaf"
            }
        ],
        "type": "AVSplit"
    },
    {
        "children": [
            {
                "data": "1:976",
                "leaf": "clip",
                "type": "Leaf"
            },
            {
                "data": "2:976",
                "leaf": "clip",
                "type": "Leaf"
            }
        ],
        "type": "AVSplit"
    },
    {
        "children": [
            {
                "data": "2:1096",
                "leaf": "clip",
                "type": "Leaf"
            },
            {
                "data": "1:1096",
                "leaf": "clip",
                "type": "Leaf"
            }
        ],
        "type": "AVSplit"
    },
    {
        "children": [
            {
                "data": "1:1336",
                "leaf": "clip",
                "type": "Leaf"
            },
            {
                "data": "2:1336",
                "leaf": "clip",
                "type": "Leaf"
            }
        ],
        "type": "AVSplit"
    },
    {
        "children": [
            {
                "data": "2:1604",
                "leaf": "clip",
                "type": "Leaf"
            },
            {
                "data": "1:1604",
                "leaf": "clip",
                "type": "Leaf"
            }
        ],
        "type": "AVSplit"
    }
]
</property>
  <property name="kdenlive:sequenceproperties.guides">[
]
</property>
  <track producer="producer0"/>
  <track producer="tractor0"/>
  <track producer="tractor1"/>
  <track producer="tractor2"/>
  <track producer="tractor3"/>
  <transition id="transition0">
   <property name="a_track">0</property>
   <property name="b_track">1</property>
   <property name="mlt_service">mix</property>
   <property name="kdenlive_id">mix</property>
   <property name="internal_added">237</property>
   <property name="always_active">1</property>
   <property name="accepts_blanks">1</property>
   <property name="sum">1</property>
  </transition>
  <transition id="transition1">
   <property name="a_track">0</property>
   <property name="b_track">2</property>
   <property name="mlt_service">mix</property>
   <property name="kdenlive_id">mix</property>
   <property name="internal_added">237</property>
   <property name="always_active">1</property>
   <property name="accepts_blanks">1</property>
   <property name="sum">1</property>
  </transition>
  <transition id="transition2">
   <property name="a_track">0</property>
   <property name="b_track">3</property>
   <property name="compositing">0</property>
   <property name="distort">0</property>
   <property name="rotate_center">0</property>
   <property name="mlt_service">qtblend</property>
   <property name="always_active">1</property>
   <property name="internal_added">237</property>
  </transition>
  <transition id="transition3">
   <property name="a_track">0</property>
   <property name="b_track">4</property>
   <property name="compositing">0</property>
   <property name="distort">0</property>
   <property name="rotate_center">0</property>
   <property name="mlt_service">qtblend</property>
   <property name="always_active">1</property>
   <property name="internal_added">237</property>
  </transition>
  <filter id="filter20">
   <property name="window">75</property>
   <property name="max_gain">20dB</property>
   <property name="mlt_service">volume</property>
   <property name="internal_added">237</property>
   <property name="disable">1</property>
  </filter>
  <filter id="filter21">
   <property name="channel">-1</property>
   <property name="mlt_service">panner</property>
   <property name="internal_added">237</property>
   <property name="start">0.5</property>
   <property name="disable">1</property>
  </filter>
 </tractor>
 <playlist id="main_bin">
  <property name="kdenlive:folder.-1.2">Sequences</property>
  <property name="kdenlive:sequenceFolder">2</property>
  <property name="kdenlive:docproperties.activetimeline">{eef67dc6-2ffe-424f-88e7-ad03d8eacf49}</property>
  <property name="kdenlive:docproperties.audioChannels">2</property>
  <property name="kdenlive:docproperties.browserurl">C:/Users/barnaud/Videos/</property>
  <property name="kdenlive:docproperties.compositing">1</property>
  <property name="kdenlive:docproperties.documentid">1726495769725</property>
  <property name="kdenlive:docproperties.enableTimelineZone">0</property>
  <property name="kdenlive:docproperties.enableexternalproxy">0</property>
  <property name="kdenlive:docproperties.enableproxy">0</property>
  <property name="kdenlive:docproperties.externalproxyparams"/>
  <property name="kdenlive:docproperties.generateimageproxy">0</property>
  <property name="kdenlive:docproperties.generateproxy">0</property>
  <property name="kdenlive:docproperties.guidesCategories">[&#xd;&#xd;
    {&#xd;&#xd;
        "color": "#9b59b6",&#xd;&#xd;
        "comment": "Category 1",&#xd;&#xd;
        "index": 0&#xd;&#xd;
    },&#xd;&#xd;
    {&#xd;&#xd;
        "color": "#3daee9",&#xd;&#xd;
        "comment": "Category 2",&#xd;&#xd;
        "index": 1&#xd;&#xd;
    },&#xd;&#xd;
    {&#xd;&#xd;
        "color": "#1abc9c",&#xd;&#xd;
        "comment": "Category 3",&#xd;&#xd;
        "index": 2&#xd;&#xd;
    },&#xd;&#xd;
    {&#xd;&#xd;
        "color": "#1cdc9a",&#xd;&#xd;
        "comment": "Category 4",&#xd;&#xd;
        "index": 3&#xd;&#xd;
    },&#xd;&#xd;
    {&#xd;&#xd;
        "color": "#c9ce3b",&#xd;&#xd;
        "comment": "Category 5",&#xd;&#xd;
        "index": 4&#xd;&#xd;
    },&#xd;&#xd;
    {&#xd;&#xd;
        "color": "#fdbc4b",&#xd;&#xd;
        "comment": "Category 6",&#xd;&#xd;
        "index": 5&#xd;&#xd;
    },&#xd;&#xd;
    {&#xd;&#xd;
        "color": "#f39c1f",&#xd;&#xd;
        "comment": "Category 7",&#xd;&#xd;
        "index": 6&#xd;&#xd;
    },&#xd;&#xd;
    {&#xd;&#xd;
        "color": "#f47750",&#xd;&#xd;
        "comment": "Category 8",&#xd;&#xd;
        "index": 7&#xd;&#xd;
    },&#xd;&#xd;
    {&#xd;&#xd;
        "color": "#da4453",&#xd;&#xd;
        "comment": "Category 9",&#xd;&#xd;
        "index": 8&#xd;&#xd;
    }&#xd;&#xd;
]&#xd;&#xd;
</property>
  <property name="kdenlive:docproperties.kdenliveversion">23.08.5</property>
  <property name="kdenlive:docproperties.opensequences">{eef67dc6-2ffe-424f-88e7-ad03d8eacf49}</property>
  <property name="kdenlive:docproperties.previewextension"/>
  <property name="kdenlive:docproperties.previewparameters"/>
  <property name="kdenlive:docproperties.profile">C:/Users/barnaud/AppData/Roaming/kdenlive/profiles/customprofile6</property>
  <property name="kdenlive:docproperties.proxyextension"/>
  <property name="kdenlive:docproperties.proxyimageminsize">2000</property>
  <property name="kdenlive:docproperties.proxyimagesize">800</property>
  <property name="kdenlive:docproperties.proxyminsize">1000</property>
  <property name="kdenlive:docproperties.proxyparams"/>
  <property name="kdenlive:docproperties.proxyresize">640</property>
  <property name="kdenlive:docproperties.rendercategory">Generic (HD for web, mobile devices...)</property>
  <property name="kdenlive:docproperties.rendercustomquality">-1</property>
  <property name="kdenlive:docproperties.renderendguide">-1</property>
  <property name="kdenlive:docproperties.renderexportaudio">0</property>
  <property name="kdenlive:docproperties.renderfullcolorrange">0</property>
  <property name="kdenlive:docproperties.rendermode">0</property>
  <property name="kdenlive:docproperties.renderplay">0</property>
  <property name="kdenlive:docproperties.renderpreview">0</property>
  <property name="kdenlive:docproperties.renderprofile">MP4-H264/AAC</property>
  <property name="kdenlive:docproperties.renderrescale">0</property>
  <property name="kdenlive:docproperties.renderrescaleheight">1080</property>
  <property name="kdenlive:docproperties.renderrescalewidth">2560</property>
  <property name="kdenlive:docproperties.renderspeed">6</property>
  <property name="kdenlive:docproperties.renderstartguide">-1</property>
  <property name="kdenlive:docproperties.rendertcoverlay">0</property>
  <property name="kdenlive:docproperties.rendertctype">-1</property>
  <property name="kdenlive:docproperties.rendertwopass">0</property>
  <property name="kdenlive:docproperties.renderurl">C:/dev/workspace/indy/deploy/movie-wide.mp4</property>
  <property name="kdenlive:docproperties.seekOffset">30000</property>
  <property name="kdenlive:docproperties.uuid">{eef67dc6-2ffe-424f-88e7-ad03d8eacf49}</property>
  <property name="kdenlive:docproperties.version">1.1</property>
  <property name="kdenlive:expandedFolders"/>
  <property name="kdenlive:binZoom">4</property>
  <property name="kdenlive:documentnotes"/>
  <property name="xml_retain">1</property>
  <entry producer="chain2" in="00:00:00.000" out="00:02:25.792"/>
  <entry producer="tractor4" in="00:00:00.000" out="00:02:25.792"/>
 </playlist>
 <tractor id="tractor5" in="00:00:00.000" out="00:02:25.792">
  <property name="kdenlive:projectTractor">1</property>
  <track producer="tractor4" in="00:00:00.000" out="00:02:25.792"/>
 </tractor>
</mlt>
